#N canvas 370 22 592 615 10;
#X obj -30 401 dac~ 1 2;
#X obj -110 -167 cnv 15 15 15 empty empty ExMM5f-DetectEnvelope-FFT.pd
0 8 1 14 -262144 -66577 0;
#X obj -99 -92 switch~;
#N canvas 608 166 228 173 ARGOnOff 0;
#X obj 100 100 tgl 18 1 \$0-SendOnOff \$0-ReceiveOnOff On/Off 20 11
1 14 -4033 -1 -1 1 1;
#X obj 99 10 loadbang;
#X msg 99 33 \; pd dsp 1;
#X obj 100 129 outlet;
#X text -50 99 Audio On/Off du patch ->;
#X text -22 45 Audio General On ->;
#X text 107 82 17 3 2010;
#X connect 0 0 3 0;
#X connect 1 0 2 0;
#X coords 0 -1 1 1 65 18 2 100 100;
#X restore -99 -110 pd ARGOnOff;
#X text -94 -126 V;
#X text -94 -133 |;
#X text -106 -144 On/Off Patch;
#X obj 423 375 cnv 15 41 30 empty empty empty 20 12 0 14 -24198 -66577
0;
#N canvas 350 196 308 136 ?? 0;
#X obj -9 87 cnv 15 300 38 empty empty empty 20 12 0 14 -224896 -66577
0;
#X obj -9 10 cnv 18 300 70 empty empty ARGOPdMiniModules 1 10 1 14
-4033 -1 1.04858e+06;
#X obj 9 29 cnv 10 10 10 empty empty Gerard 0 5 1 9 -4033 -1 1.04858e+06
;
#X obj 40 29 cnv 10 10 10 empty empty Paresys 0 5 1 9 -4033 -1 1.04858e+06
;
#X text -8 89 Construit sous / Build under Pd 0.42.5-extended;
#X obj 39 105 pddplink http://puredata.info/downloads;
#X obj 3 42 pddplink http://pagesperso-orange.fr/Paresys/ARGOPd/;
#X obj 3 57 pddplink http://gerard.paresys.free.fr/ARGOPd/;
#X restore 427 382 pd ??;
#N canvas 219 46 718 469 ARGO 0;
#X obj 368 103 cnv 10 20 10 empty empty Play 1 5 1 14 -262144 -1 1.04858e+06
;
#X obj 101 130 cnv 4 10 4 empty empty empty 20 12 0 14 -1 -66577 0
;
#X obj 82 450 outlet~;
#X obj -13 64 openpanel;
#X msg 212 352 1;
#X msg 141 326 0;
#X msg 25 107 set \$1;
#X msg 242 377 open \$1;
#X obj 197 291 t b b;
#X msg 222 436 set 0;
#X obj 177 193 sel 1 0;
#X floatatom 230 231 5 0 0 0 - - -;
#X msg 230 208 set \$1;
#X obj 204 261 sel 1;
#X msg 110 361 set 1;
#X obj 185 6 key;
#X obj 186 29 select 32;
#X obj 42 7 loadbang;
#X obj 243 404 readsf~ 2;
#X obj -12 84 t b s;
#X obj 151 100 tgl 12 1 \$0-A \$0-B Play(Space) 14 6 1 9 -262144 -1
-1 1 1;
#X obj 311 100 bng 12 250 50 0 \$0-A \$0-B Stop 14 6 1 9 -262144 -1
-1;
#X obj 249 100 tgl 12 1 \$0-A \$0-B Loop 15 6 1 9 -262144 -1 -1 1 1
;
#X obj 48 196 list2symbol;
#X obj 100 100 bng 12 250 50 0 \$0-A \$0-B empty 14 6 1 9 -262144 -1
-1;
#X obj 174 328 delay 5;
#X obj 102 6 inlet~;
#X obj 101 58 threshold~ 0.5 5 0.49 5;
#X obj 101 100 cnv 2 10 4 empty empty empty 20 12 0 14 -1 -66577 0
;
#X obj 102 101 cnv 2 8 2 empty empty empty 20 12 0 14 -262144 -66577
0;
#X text 75 81 Trig Decl;
#X obj 106 113 hradio 14 1 0 20 empty empty empty 0 6 0 8 -260097 -260097
-260097 0;
#X obj -13 42 bang;
#X text 403 115 <- Click the name to change;
#X symbolatom 101 113 49 0 0 0 - - -;
#X obj 49 140 cnv 15 400 50 empty empty empty 20 12 0 14 -260097 -66577
0;
#X text 51 139 Nom du fichier / File name;
#X text 454 152 <- Ajouter ../ devant le nom du fichier \; pour remonter
d'un dossier;
#X obj 654 424 cnv 15 41 30 empty empty empty 20 12 0 14 -24198 -66577
0;
#N canvas 350 196 308 136 ?? 0;
#X obj -9 87 cnv 15 300 38 empty empty empty 20 12 0 14 -224896 -66577
0;
#X obj -9 10 cnv 18 300 70 empty empty ARGOPdMiniModules 1 10 1 14
-4033 -1 1.04858e+06;
#X obj 9 29 cnv 10 10 10 empty empty Gerard 0 5 1 9 -4033 -1 1.04858e+06
;
#X obj 40 29 cnv 10 10 10 empty empty Paresys 0 5 1 9 -4033 -1 1.04858e+06
;
#X text -8 89 Construit sous / Build under Pd 0.42.5-extended;
#X obj 39 105 pddplink http://puredata.info/downloads;
#X obj 3 42 pddplink http://pagesperso-orange.fr/Paresys/ARGOPd/;
#X obj 3 57 pddplink http://gerard.paresys.free.fr/ARGOPd/;
#X restore 658 431 pd ??;
#X obj 396 258 cnv 15 60 30 empty empty empty 20 12 0 14 -24198 -66577
0;
#N canvas 309 46 564 575 Help 0;
#X obj 9 -296 cnv 15 400 100 empty empty empty 20 12 0 14 -233017 -66577
0;
#X text 12 -297 Citation;
#X obj 8 -51 cnv 15 550 310 empty empty empty 20 12 0 14 -258113 -66577
0;
#X text 20 -44 - Ne lit pas un fichier au format mp3 \, SoundDesigner
II (.SDII ou .SD2);
#X text 23 56 Solution: ouvrir puis sauver le fichier au format aiff
avec Audacity;
#X text 36 43 error: dsp: xxx.aiff: unknown or bad header format;
#X text 31 -281 READSF~ - read a soundfile;
#X text 30 -263 The wave \, aiff \, and nextstep formats are parsed
automatically \, although only 2- 3- and 4- byte samples are accepted
(4 bytes implies floating point and is not available in aiff format.)
;
#X text 13 -189 - Si le Patch est sauvé avec 1 Player contenant un
nom de fichier Audio \, ce fichier sera lu automatiquement à la prochaine
ouverture s'il n'a pas changé d'emplacement.;
#X text 191 206 If the sample rate of pd is set to 44100 \, files having
the sample rates of 44100 are correctly played \, other files will
be transposed.;
#X text 193 179 WARNING The sample rate of the output depends on the
system sample rate of pd:;
#X text 21 95 - ATTENTION Le taux d'échantillonnage de la lecture du
fichier dépends du taux d'échantillonnage de Pd.;
#X text 33 122 Si le taux d'échantillonnage de Pd est de 44100 (Menu
Preferences -> Audio Settings...) \, les fichiers échantillonnés à
44100 Hz sont lus correctement \, sinon ils sont transposés.;
#X text 12 -143 - Peut Ouvrir automatiquement 1 fichier qui se trouve
dans le même dossier que lui \, quelquesoit l'emplacement du dossier.
Pour cela ouvrir le module et taper le nom du fichier (sans chemin
d'accés) dans le message. Le dossier contenant le patch et le fichier
Audio est ainsi transportable.;
#X text 21 4 - Ne lit pas un fichier au format aiff "Entier petit boutien"
comme les pistes d'un CD Audio copiées avec le finder du Mac. Le message
d'erreur s'affichent:;
#X text 8 -434 MM Audio-Play;
#X text 18 -404 Le canal 2 d'un fichier Audio Stereo est mélangé au
canal 1;
#X text 18 -390 Les canaux 3 \, 4... d'un fichier Audio de plus de
2 canaux ne sont pas lus.;
#X text 197 -328 Channels 3 \, 4... of an Audio file of more than 2
channels are not read.;
#X text 197 -342 Channel 2 of a Stereo Audio file is mixed with channel
1;
#X text 19 -418 Lit un fichier Audio Mono (1 canal) au format aiff
\, wav.;
#X text 198 -357 Reads a Mono Audio file (1 channel) with aiff \, wav
format..;
#X restore 403 264 pd Help;
#X text 405 96 13 11 2010;
#X msg 53 158 drumLoop.aiff;
#X connect 3 0 19 0;
#X connect 4 0 18 0;
#X connect 5 0 18 0;
#X connect 6 0 43 0;
#X connect 7 0 18 0;
#X connect 8 0 25 0;
#X connect 8 1 43 0;
#X connect 9 0 20 0;
#X connect 10 0 8 0;
#X connect 10 1 9 0;
#X connect 10 1 5 0;
#X connect 11 0 13 0;
#X connect 12 0 11 0;
#X connect 13 0 24 0;
#X connect 14 0 20 0;
#X connect 15 0 16 0;
#X connect 16 0 20 0;
#X connect 17 0 43 0;
#X connect 18 0 2 0;
#X connect 18 1 2 0;
#X connect 18 2 11 0;
#X connect 18 2 9 0;
#X connect 19 0 43 0;
#X connect 19 1 6 0;
#X connect 20 0 10 0;
#X connect 21 0 5 0;
#X connect 21 0 9 0;
#X connect 22 0 12 0;
#X connect 23 0 34 0;
#X connect 23 0 7 0;
#X connect 24 0 8 0;
#X connect 25 0 4 0;
#X connect 25 0 14 0;
#X connect 26 0 27 0;
#X connect 27 0 24 0;
#X connect 31 0 32 0;
#X connect 32 0 3 0;
#X connect 43 0 23 0;
#X coords 0 -1 1 1 300 35 2 100 100;
#X restore -6 -141 pd ARGO;
#N canvas 404 201 221 198 ARGO 0;
#X obj 115 105 cnv 10 20 10 empty empty PinkNoise 1 5 1 14 -262144
-1 1.04858e+06;
#X obj 101 113 cnv 4 10 4 empty empty empty 20 12 0 14 -1 -66577 0
;
#X obj 90 155 outlet~;
#X obj 90 124 pink~;
#X text 16 55 pink noise with -3 dB per octave;
#X text 7 41 pink~ (iemlib);
#X connect 3 0 2 0;
#X coords 0 -1 1 1 95 18 2 100 100;
#X restore 144 160 pd ARGO;
#N canvas 168 221 353 247 ARGO 0;
#X obj 101 101 cnv 20 104 34 empty ColorAmpli empty 20 12 0 14 -261299
-1 1.04858e+06;
#X obj 89 145 outlet~;
#X obj 136 104 cnv 10 20 10 empty ColorAmpli AmpliLin+ 1 5 1 14 -261299
-1 1.04858e+06;
#X obj 91 -54 inlet~;
#X obj 187 -56 inlet~;
#X obj 90 33 *~;
#X obj 103 118 hsl 101 12 0 2 0 1 \$0-A ColorAmpli empty 0 7 1 9 -262144
-1 -1 0 0;
#X msg 231 68 set \$1;
#X obj 187 -30 +~;
#X obj 232 10 snapshot~;
#X obj 231 46 change;
#X msg 280 67 label \$1;
#X obj 279 44 tosymbol;
#X obj 195 101 cnv 4 10 4 empty empty empty 20 12 0 14 -258113 -66577
0;
#X obj 101 101 cnv 4 10 4 empty empty empty 20 12 0 14 -1 -66577 0
;
#X obj 101 131 cnv 4 10 4 empty empty empty 20 12 0 14 -1 -66577 0
;
#X obj 105 8 clip~ 0 100;
#X obj 103 118 hsl 101 12 0 2 0 0 \$0-A ColorAmpli 0 0 7 1 9 -261299
-258049 -1 243 0;
#X text 209 122 2 HSLIDER superposés;
#X text 208 111 <-- ATTENTION;
#X obj 232 -57 loadbang;
#X obj 232 -17 metro 201;
#X text 212 98 29 11 2009;
#X connect 3 0 5 0;
#X connect 4 0 8 0;
#X connect 5 0 1 0;
#X connect 6 0 8 1;
#X connect 6 0 12 0;
#X connect 7 0 17 0;
#X connect 8 0 9 0;
#X connect 8 0 16 0;
#X connect 9 0 10 0;
#X connect 10 0 7 0;
#X connect 11 0 17 0;
#X connect 12 0 11 0;
#X connect 16 0 5 1;
#X connect 20 0 21 0;
#X connect 21 0 9 0;
#X coords 0 -1 1 1 106 36 1 100 100;
#X restore 6 243 pd ARGO;
#N canvas 309 45 492 302 ARGO 0;
#X obj 40 -35 inlet~;
#X obj 251 108 cnv 10 44 10 empty empty Scope 1 5 1 14 -262144 -1 1.04858e+06
;
#X obj 101 101 cnv 4 10 4 empty empty empty 20 12 0 14 -1 -66577 0
;
#X msg -36 168 frgb 255 0 0;
#X obj 124 105 nbx 4 12 1 2000 0 1 \$0-A ColorTime ms/div 40 7 1 9
-208064 -1 -1 49 256;
#X obj 205 105 tgl 12 1 \$0-A \$0-B Sync 15 6 1 9 -262144 -1 -1 0 1
;
#X msg 128 52 delay 0 \, triglevel 0 \, trigger 0;
#X obj 126 5 sel 0 1;
#X msg -39 192 brgb 255 255 255;
#X obj 85 64 * 2;
#X msg 146 28 delay 1 \, triglevel 0.1 \, trigger 1;
#X obj 277 -36 inlet~;
#X obj 289 101 cnv 4 10 4 empty empty empty 20 12 0 14 -1 -66577 0
;
#X obj -14 80 t b b b b;
#X obj -15 57 bng 15 250 50 0 empty empty empty 17 7 0 10 -262144 -1
-1;
#X msg -33 111 bufsize 176;
#X obj 196 -34 cnv 15 60 30 empty empty empty 20 12 0 14 -24198 -66577
0;
#N canvas 374 104 413 135 Help 0;
#X text 24 54 Voir MSP46ReferenceManual.pdf;
#X text 23 1 utilise l'objet Scope~ de la library cyclone;
#X text 24 26 Voir Browser -> Pure Data/examples/cyclone/scope-test.pd
;
#X text 24 40 Voir Browser -> Pure Data/examples/cyclone/pink-test.pd
;
#X text 24 -20 Scope;
#X restore 203 -28 pd Help;
#X obj 101 121 cnv 15 199 129 empty empty empty 20 12 0 14 -1 -66577
0;
#X obj 101 123 Scope~ 198 61 98 3 176 -0.95 0.95 0 0 0 0 255 0 0 255
255 255 0;
#X obj 101 187 Scope~ 198 61 98 3 176 -0.95 0.95 0 0 0 0 255 0 0 255
255 255 0;
#X msg -24 136 range -0.95 0.95;
#X obj 277 -12 -~ 0.025;
#X obj 40 -11 -~ 0.025;
#X obj 396 222 cnv 15 41 30 empty empty empty 20 12 0 14 -24198 -66577
0;
#N canvas 350 196 308 136 ?? 0;
#X obj -9 87 cnv 15 300 38 empty empty empty 20 12 0 14 -224896 -66577
0;
#X obj -9 10 cnv 18 300 70 empty empty ARGOPdMiniModules 1 10 1 14
-4033 -1 1.04858e+06;
#X obj 9 29 cnv 10 10 10 empty empty Gerard 0 5 1 9 -4033 -1 1.04858e+06
;
#X obj 40 29 cnv 10 10 10 empty empty Paresys 0 5 1 9 -4033 -1 1.04858e+06
;
#X text -8 89 Construit sous / Build under Pd 0.42.5-extended;
#X obj 39 105 pddplink http://puredata.info/downloads;
#X obj 3 42 pddplink http://pagesperso-orange.fr/Paresys/ARGOPd/;
#X obj 3 57 pddplink http://gerard.paresys.free.fr/ARGOPd/;
#X restore 400 229 pd ??;
#X text 243 85 15 5 2011;
#X connect 0 0 23 0;
#X connect 3 0 19 0;
#X connect 3 0 20 0;
#X connect 4 0 9 0;
#X connect 5 0 7 0;
#X connect 6 0 19 0;
#X connect 6 0 20 0;
#X connect 7 0 6 0;
#X connect 7 1 10 0;
#X connect 8 0 19 0;
#X connect 8 0 20 0;
#X connect 9 0 19 0;
#X connect 9 0 20 0;
#X connect 10 0 19 0;
#X connect 10 0 20 0;
#X connect 11 0 22 0;
#X connect 13 0 15 0;
#X connect 13 1 21 0;
#X connect 13 2 3 0;
#X connect 13 3 8 0;
#X connect 14 0 13 0;
#X connect 15 0 19 0;
#X connect 15 0 20 0;
#X connect 21 0 19 0;
#X connect 21 0 20 0;
#X connect 22 0 20 0;
#X connect 23 0 19 0;
#X coords 0 -1 1 1 200 150 2 100 100;
#X restore 123 2 pd ARGO;
#N canvas 350 62 236 332 ARGO 0;
#X obj 101 101 cnv 20 104 34 empty ColorAmpli empty 20 12 0 14 -261299
-1 1.04858e+06;
#X obj 92 302 outlet~;
#X obj 141 104 cnv 10 20 10 empty ColorAmpli Mix 1 5 1 14 -261299 -1
1.04858e+06;
#X obj 88 75 inlet~;
#X obj 181 75 inlet~;
#X obj 86 272 *~;
#X obj 103 118 hsl 101 12 -1 1 0 1 \$0-A ColorAmpli 1 0 7 1 9 -261299
-1 -1 10000 0;
#X msg 22 132 label \$1;
#X obj 21 109 tosymbol;
#X obj 101 101 cnv 4 10 4 empty empty empty 20 12 0 14 -1 -66577 0
;
#X obj 101 131 cnv 4 10 4 empty empty empty 20 12 0 14 -1 -66577 0
;
#X obj 195 101 cnv 4 10 4 empty empty empty 20 12 0 14 -1 -66577 0
;
#X obj 179 271 *~;
#X obj 136 145 + 1;
#X obj 136 170 / 2;
#X obj 101 196 t b f;
#X msg 101 220 1;
#X obj 101 247 -;
#X connect 3 0 5 0;
#X connect 4 0 12 0;
#X connect 5 0 1 0;
#X connect 6 0 8 0;
#X connect 6 0 13 0;
#X connect 7 0 6 0;
#X connect 8 0 7 0;
#X connect 12 0 1 0;
#X connect 13 0 14 0;
#X connect 14 0 15 0;
#X connect 14 0 12 1;
#X connect 15 0 16 0;
#X connect 15 1 17 1;
#X connect 16 0 17 0;
#X connect 17 0 5 1;
#X coords 0 -1 1 1 106 36 1 100 100;
#X restore -6 290 pd ARGO;
#X text -78 305 Original ->;
#X text 103 305 <- Synthetic;
#N canvas 324 59 331 313 ARGO 0;
#X obj 101 101 cnv 20 104 34 empty ColorAmpli empty 20 12 0 14 -261299
-1 1.04858e+06;
#X obj 85 285 outlet~;
#X obj 134 104 cnv 10 20 10 empty ColorAmpli Ampli 1 5 1 14 -261299
-1 1.04858e+06;
#X obj 85 72 inlet~;
#X obj 85 260 *~;
#X obj 103 118 hsl 101 12 -80 20 0 1 \$0-A ColorAmpli 0dB 0 7 1 9 -261299
-1 -1 8000 0;
#X msg -24 161 label \$1;
#X obj -25 138 tosymbol;
#X obj -25 103 sprintf %ddB;
#X obj 101 101 cnv 4 10 4 empty empty empty 20 12 0 14 -1 -66577 0
;
#X obj 101 131 cnv 4 10 4 empty empty empty 20 12 0 14 -1 -66577 0
;
#X text -16 120 -> -80dB..20dB;
#X text 106 182 -> 0.0001..10 = -80dB..20dB;
#X text 209 97 5 5 2011;
#X obj 100 163 expr (pow(10 \, $f1 / 20));
#X text 107 140 -> -80..20;
#X obj 227 270 cnv 15 41 30 empty empty empty 20 12 0 14 -24198 -66577
0;
#N canvas 350 196 308 136 ?? 0;
#X obj -9 87 cnv 15 300 38 empty empty empty 20 12 0 14 -224896 -66577
0;
#X obj -9 10 cnv 18 300 70 empty empty ARGOPdMiniModules 1 10 1 14
-4033 -1 1.04858e+06;
#X obj 9 29 cnv 10 10 10 empty empty Gerard 0 5 1 9 -4033 -1 1.04858e+06
;
#X obj 40 29 cnv 10 10 10 empty empty Paresys 0 5 1 9 -4033 -1 1.04858e+06
;
#X text -8 89 Construit sous / Build under Pd 0.42.5-extended;
#X obj 39 105 pddplink http://puredata.info/downloads;
#X obj 3 42 pddplink http://pagesperso-orange.fr/Paresys/ARGOPd/;
#X obj 3 57 pddplink http://gerard.paresys.free.fr/ARGOPd/;
#X restore 231 277 pd ??;
#X obj 100 206 sel 0.0001;
#X msg 100 234 0;
#X connect 3 0 4 0;
#X connect 4 0 1 0;
#X connect 5 0 8 0;
#X connect 5 0 14 0;
#X connect 6 0 5 0;
#X connect 7 0 6 0;
#X connect 8 0 7 0;
#X connect 14 0 18 0;
#X connect 18 0 19 0;
#X connect 18 1 4 1;
#X connect 19 0 4 1;
#X connect 19 0 7 0;
#X coords 0 -1 1 1 106 36 1 100 100;
#X restore -6 339 pd ARGO;
#X text -116 348 Niveau general ->;
#X text -110 358 General level ->;
#N canvas 355 90 451 254 ARGO 0;
#X obj 101 101 cnv 6 130 27 empty ColorAmpli DetectEnvelope2 23 8 1
14 -261299 -1 1.04858e+06;
#X obj 101 101 cnv 4 10 4 empty empty empty 20 12 0 14 -1 -66577 0
;
#X obj 101 124 cnv 4 10 4 empty empty empty 20 12 0 14 -1 -66577 0
;
#X obj 89 231 outlet~;
#X obj 89 74 inlet~;
#X obj 91 31 cnv 15 60 30 empty empty empty 20 12 0 14 -24198 -66577
0;
#N canvas 373 111 439 222 Help 0;
#X text 23 15 Detecteur d'enveloppe = Suiveur d'enveloppe;
#X text 23 35 Envelope detector = Envelope follower;
#X obj 21 64 cnv 15 400 140 empty empty empty 20 12 0 14 -233017 -66577
0;
#X text 24 66 Citation;
#X text 42 120 (output_envelope decrements about 63% in this time)
;
#X text 122 67 peakenv~;
#X text 213 66 signal-peak-envelope;
#X text 107 167 IEM KUG;
#X text 91 155 musil;
#X text 121 155 @;
#X text 127 155 iem.at;
#X text 42 144 (c) Thomas Musil 2000 - 2005;
#X text 90 177 Graz \, Austria;
#X text 43 88 reset: resets peak-envelope to 0;
#X text 42 105 time-constant [ms] (default: 0 ms);
#X restore 99 38 pd Help;
#X obj 314 213 cnv 15 41 30 empty empty empty 20 12 0 14 -24198 -66577
0;
#N canvas 350 196 308 136 ?? 0;
#X obj -9 87 cnv 15 300 38 empty empty empty 20 12 0 14 -224896 -66577
0;
#X obj -9 10 cnv 18 300 70 empty empty ARGOPdMiniModules 1 10 1 14
-4033 -1 1.04858e+06;
#X obj 9 29 cnv 10 10 10 empty empty Gerard 0 5 1 9 -4033 -1 1.04858e+06
;
#X obj 40 29 cnv 10 10 10 empty empty Paresys 0 5 1 9 -4033 -1 1.04858e+06
;
#X text -8 89 Construit sous / Build under Pd 0.42.5-extended;
#X obj 39 105 pddplink http://puredata.info/downloads;
#X obj 3 42 pddplink http://pagesperso-orange.fr/Paresys/ARGOPd/;
#X obj 3 57 pddplink http://gerard.paresys.free.fr/ARGOPd/;
#X restore 318 220 pd ??;
#X obj 131 117 hsl 99 12 0.1 10000 1 1 \$0-A ColorForm 102.3ms 0 7
1 9 -208064 -1 -1 5900 0;
#N canvas 0 22 450 300 label-ms 0;
#X msg 156 171 label \$1;
#X obj 156 151 tosymbol;
#X obj 154 84 inlet;
#X obj 157 200 outlet;
#X obj 156 111 expr (int(10 * $f1) / 10) \;;
#X obj 156 131 sprintf %sms;
#X connect 0 0 3 0;
#X connect 1 0 0 0;
#X connect 2 0 4 0;
#X connect 4 0 5 0;
#X connect 5 0 1 0;
#X restore 201 146 pd label-ms;
#X text 181 82 1 6 2011;
#X msg 101 144 reset;
#X obj 89 180 iemlib/peakenv~ 1000;
#X obj 100 106 bng 12 250 50 0 \$0-A \$0-B 0 15 8 1 12 -262144 -1 -1
;
#X text 234 113 <- Time-constant [ms];
#X text -7 97 Remis a zero ->;
#X text -84 107 resets peak-envelope to 0 ->;
#X connect 4 0 13 0;
#X connect 9 0 10 0;
#X connect 9 0 13 1;
#X connect 10 0 9 0;
#X connect 12 0 13 0;
#X connect 13 0 3 0;
#X connect 14 0 12 0;
#X coords 0 -1 1 1 132 29 1 100 100;
#X restore 105 -42 pd ARGO;
#N canvas 552 62 586 498 ARGO 0;
#X obj 101 101 cnv 10 228 27 empty ColorForm empty 20 12 0 14 -188398
-1 1.04858e+06;
#X obj 101 105 cnv 10 20 10 empty ColorForm Init-FFT 1 5 1 14 -188398
-1 1.04858e+06;
#X obj 155 103 hradio 12 1 1 11 \$0-A ColorForm empty 0 -8 0 10 -188398
-1 -1 4;
#X obj 287 103 nbx 5 12 1 99999 0 1 \$0-A ColorForm empty 0 0 1 9 -188398
-1 -1 1024 256;
#X text 138 75 Nommer FFTGeneral???;
#N canvas 0 22 450 300 (subpatch) 0;
#X array \$0-hann 1024 float 0;
#X coords 0 0 1023 1 300 100 0;
#X restore 79 203 graph;
#X obj 157 390 osc~;
#X obj 156 411 *~ -0.5;
#X obj 156 433 +~ 0.5;
#X obj 89 468 tabwrite~ \$0-hann;
#X obj 173 261 samplerate~;
#X obj 154 286 swap;
#X obj 154 310 /;
#X obj 153 237 t f b f;
#X msg 361 439 resize \$1;
#X obj 333 468 s \$0-hann;
#X msg 214 358 0;
#X obj 154 200 pow 2;
#X msg 154 177 2;
#X obj 154 154 t b f;
#X obj 154 123 + 6;
#X text 22 50 calculate Hann window table (variable window size);
#X text 161 219 <- window-size;
#X text 249 220 64..65536;
#X text 163 137 <- 6..16;
#X text 23 14 Voir Pd-0.40.3-extended -> 3.audio.examples/I05.compressor.pd
-> pd hann-window;
#X obj 230 409 phasor~;
#N canvas 9 234 450 300 (subpatch) 0;
#X array \$0-FFTIndex 1024 float 0;
#X coords 0 0 1023 1 300 100 0;
#X restore 78 231 graph;
#X obj 199 468 tabwrite~ \$0-FFTIndex;
#X obj 395 468 s \$0-FFTIndex;
#X obj 7 468 s \$0-FFTSize;
#X obj 239 115 hradio 12 1 1 4 \$0-A ColorForm empty 0 -8 0 10 -188398
-1 -1 1;
#X obj 205 117 cnv 10 20 10 empty ColorForm Overlap 1 5 1 9 -188398
-1 1.04858e+06;
#X obj 238 194 pow 2;
#X msg 238 171 2;
#X obj 238 148 t b f;
#X text 247 131 <- 0 1 2 3;
#X obj 287 115 nbx 1 12 1 99999 0 1 \$0-A ColorForm empty 0 0 1 9 -188398
-1 -1 2 256;
#X obj 481 467 s \$0-FFTOverlap;
#X text 198 293 Si le son d'un MiniModule FFT est haché \, avec Init-FFT
grand (65536...) -> Pd-extended -> Preferences -> Audio Settings...
-> delay (msec) -> Augmenter;
#X text 289 248 <- Overlap 1 2 4 8;
#X text 284 160 L'array \$0-FFTIndex n'est utilise que dans le MM FFT-BrickWallFilter
;
#X text 333 106 8 5 2009;
#X msg 73 435 stop;
#X obj 154 333 t b b b b b f;
#X obj 74 374 delay 2000;
#X connect 2 0 20 0;
#X connect 6 0 7 0;
#X connect 7 0 8 0;
#X connect 8 0 9 0;
#X connect 10 0 11 1;
#X connect 11 0 12 0;
#X connect 11 1 12 1;
#X connect 12 0 44 0;
#X connect 13 0 11 0;
#X connect 13 1 10 0;
#X connect 13 2 14 0;
#X connect 14 0 15 0;
#X connect 14 0 29 0;
#X connect 16 0 6 1;
#X connect 16 0 26 1;
#X connect 17 0 13 0;
#X connect 17 0 3 0;
#X connect 17 0 30 0;
#X connect 18 0 17 0;
#X connect 19 0 18 0;
#X connect 19 1 17 1;
#X connect 20 0 19 0;
#X connect 26 0 28 0;
#X connect 31 0 35 0;
#X connect 33 0 37 0;
#X connect 33 0 38 0;
#X connect 34 0 33 0;
#X connect 35 0 34 0;
#X connect 35 1 33 1;
#X connect 43 0 28 0;
#X connect 43 0 9 0;
#X connect 44 0 45 0;
#X connect 44 2 9 0;
#X connect 44 3 28 0;
#X connect 44 4 16 0;
#X connect 44 5 26 0;
#X connect 44 5 6 0;
#X connect 45 0 43 0;
#X coords 0 -1 1 1 230 29 1 100 100;
#X restore 111 -180 pd ARGO;
#N canvas 396 296 408 282 ARGO 0;
#X obj 101 101 cnv 10 164 34 empty ColorForm empty 20 12 0 14 -188398
-1 1.04858e+06;
#X obj 101 131 cnv 4 10 4 empty empty empty 20 12 0 14 -1 -66577 0
;
#X obj 93 51 inlet~;
#X obj 101 101 cnv 4 10 4 empty empty empty 20 12 0 14 -1 -66577 0
;
#X obj 92 183 outlet~;
#X obj 125 105 cnv 10 20 10 empty ColorForm FFT-BrickWallFilter 1 5
1 14 -188398 -1 1.04858e+06;
#X obj 255 131 cnv 4 10 4 empty empty empty 20 12 0 14 -1 -66577 0
;
#N canvas 197 134 569 400 fft-analysis 0;
#X obj 42 128 *~;
#X obj 43 55 *~;
#X obj 12 14 inlet~;
#X obj 43 78 rfft~;
#X obj 37 298 *~;
#X obj 42 159 rifft~;
#X obj 38 358 outlet~;
#X obj 60 15 tabreceive~ \$0-hann;
#X obj 38 333 *~;
#X obj 196 131 *~;
#X obj 191 357 outlet~;
#X obj 191 332 *~;
#X text 217 331 normalize;
#X obj 191 298 *~;
#X obj 196 159 rifft~;
#X obj 75 126 *~;
#X obj 229 132 *~;
#X obj 328 15 inlet;
#X obj 240 53 expr~ $v1 > $v2;
#X obj 132 53 expr~ $v1 <= $v2;
#X obj 182 15 tabreceive~ \$0-FFTIndex;
#X text 188 375 HighPass;
#X text 38 375 LowPass;
#X obj 402 361 switch~ 1024 4 1;
#X msg 516 332 0;
#X msg 366 331 1;
#X text 366 0 64..65536;
#X obj 367 16 r \$0-FFTSize;
#X obj 404 123 /;
#X obj 466 15 r \$0-FFTOverlap;
#X text 483 -3 1 2 4 8;
#X obj 434 244 pack 1 2;
#X msg 401 331 set \$1 \$2 1;
#X obj 466 72 t b b f b;
#X obj 367 72 t b b b f f f b;
#X msg 376 99 0.628;
#X connect 0 0 5 0;
#X connect 1 0 3 0;
#X connect 2 0 1 0;
#X connect 3 0 0 0;
#X connect 3 0 9 0;
#X connect 3 1 15 0;
#X connect 3 1 16 0;
#X connect 4 0 8 0;
#X connect 5 0 4 0;
#X connect 7 0 1 1;
#X connect 7 0 4 1;
#X connect 7 0 13 1;
#X connect 8 0 6 0;
#X connect 9 0 14 0;
#X connect 11 0 10 0;
#X connect 13 0 11 0;
#X connect 14 0 13 0;
#X connect 15 0 5 1;
#X connect 16 0 14 1;
#X connect 17 0 18 1;
#X connect 17 0 19 1;
#X connect 18 0 9 1;
#X connect 18 0 16 1;
#X connect 19 0 0 1;
#X connect 19 0 15 1;
#X connect 20 0 18 0;
#X connect 20 0 19 0;
#X connect 24 0 23 0;
#X connect 25 0 23 0;
#X connect 27 0 34 0;
#X connect 28 0 11 1;
#X connect 28 0 8 1;
#X connect 29 0 33 0;
#X connect 31 0 32 0;
#X connect 32 0 23 0;
#X connect 33 0 25 0;
#X connect 33 1 31 0;
#X connect 33 2 31 1;
#X connect 33 3 24 0;
#X connect 34 0 25 0;
#X connect 34 2 35 0;
#X connect 34 3 28 1;
#X connect 34 5 31 0;
#X connect 34 6 24 0;
#X connect 35 0 28 0;
#X restore 120 158 pd fft-analysis;
#X text 11 209 cf MaxMSP463 -> Documentation -> MSP46TutorialsAndTopics.pdf
;
#X text 26 222 -> Tutorial 26: Frequency Domain Signal Processing with...
;
#X obj 235 183 outlet~;
#X text 238 137 HighPass;
#X text 91 136 LowPass;
#X obj 103 118 hsl 161 12 0.0005 0.5 1 1 \$0-A ColorTime 697Hz 0 7
1 9 -208064 -1 -1 8000 0;
#X obj -11 98 *;
#X obj -11 48 t f b;
#X obj 16 75 samplerate~;
#X msg -11 169 label \$1;
#X obj -11 146 tosymbol;
#X obj -11 123 sprintf %dHz;
#X text 37 11 Filtres Passe-Bas et Passe-Haut dont la représentation
graphique est verticale comme un mur de briques.;
#X text 36 -18 Low-pass and High-pass filters of which the image is
as vertical as a brick wall.;
#X text 271 110 4 4 2010;
#X connect 2 0 7 0;
#X connect 7 0 4 0;
#X connect 7 1 10 0;
#X connect 13 0 7 1;
#X connect 13 0 15 0;
#X connect 14 0 19 0;
#X connect 15 0 14 0;
#X connect 15 1 16 0;
#X connect 16 0 14 1;
#X connect 17 0 13 0;
#X connect 18 0 17 0;
#X connect 19 0 18 0;
#X coords 0 -1 1 1 166 36 1 100 100;
#X restore 144 184 pd ARGO;
#N canvas 396 296 408 282 ARGO 0;
#X obj 101 101 cnv 10 164 34 empty ColorForm empty 20 12 0 14 -188398
-1 1.04858e+06;
#X obj 101 131 cnv 4 10 4 empty empty empty 20 12 0 14 -1 -66577 0
;
#X obj 93 51 inlet~;
#X obj 101 101 cnv 4 10 4 empty empty empty 20 12 0 14 -1 -66577 0
;
#X obj 92 183 outlet~;
#X obj 125 105 cnv 10 20 10 empty ColorForm FFT-BrickWallFilter 1 5
1 14 -188398 -1 1.04858e+06;
#X obj 255 131 cnv 4 10 4 empty empty empty 20 12 0 14 -1 -66577 0
;
#N canvas 197 134 569 400 fft-analysis 0;
#X obj 42 128 *~;
#X obj 43 55 *~;
#X obj 12 14 inlet~;
#X obj 43 78 rfft~;
#X obj 37 298 *~;
#X obj 42 159 rifft~;
#X obj 38 358 outlet~;
#X obj 60 15 tabreceive~ \$0-hann;
#X obj 38 333 *~;
#X obj 196 131 *~;
#X obj 191 357 outlet~;
#X obj 191 332 *~;
#X text 217 331 normalize;
#X obj 191 298 *~;
#X obj 196 159 rifft~;
#X obj 75 126 *~;
#X obj 229 132 *~;
#X obj 328 15 inlet;
#X obj 240 53 expr~ $v1 > $v2;
#X obj 132 53 expr~ $v1 <= $v2;
#X obj 182 15 tabreceive~ \$0-FFTIndex;
#X text 188 375 HighPass;
#X text 38 375 LowPass;
#X obj 402 361 switch~ 1024 4 1;
#X msg 516 332 0;
#X msg 366 331 1;
#X text 366 0 64..65536;
#X obj 367 16 r \$0-FFTSize;
#X obj 404 123 /;
#X obj 466 15 r \$0-FFTOverlap;
#X text 483 -3 1 2 4 8;
#X obj 434 244 pack 1 2;
#X msg 401 331 set \$1 \$2 1;
#X obj 466 72 t b b f b;
#X obj 367 72 t b b b f f f b;
#X msg 376 99 0.628;
#X connect 0 0 5 0;
#X connect 1 0 3 0;
#X connect 2 0 1 0;
#X connect 3 0 0 0;
#X connect 3 0 9 0;
#X connect 3 1 15 0;
#X connect 3 1 16 0;
#X connect 4 0 8 0;
#X connect 5 0 4 0;
#X connect 7 0 1 1;
#X connect 7 0 4 1;
#X connect 7 0 13 1;
#X connect 8 0 6 0;
#X connect 9 0 14 0;
#X connect 11 0 10 0;
#X connect 13 0 11 0;
#X connect 14 0 13 0;
#X connect 15 0 5 1;
#X connect 16 0 14 1;
#X connect 17 0 18 1;
#X connect 17 0 19 1;
#X connect 18 0 9 1;
#X connect 18 0 16 1;
#X connect 19 0 0 1;
#X connect 19 0 15 1;
#X connect 20 0 18 0;
#X connect 20 0 19 0;
#X connect 24 0 23 0;
#X connect 25 0 23 0;
#X connect 27 0 34 0;
#X connect 28 0 11 1;
#X connect 28 0 8 1;
#X connect 29 0 33 0;
#X connect 31 0 32 0;
#X connect 32 0 23 0;
#X connect 33 0 25 0;
#X connect 33 1 31 0;
#X connect 33 2 31 1;
#X connect 33 3 24 0;
#X connect 34 0 25 0;
#X connect 34 2 35 0;
#X connect 34 3 28 1;
#X connect 34 5 31 0;
#X connect 34 6 24 0;
#X connect 35 0 28 0;
#X restore 120 158 pd fft-analysis;
#X text 11 209 cf MaxMSP463 -> Documentation -> MSP46TutorialsAndTopics.pdf
;
#X text 26 222 -> Tutorial 26: Frequency Domain Signal Processing with...
;
#X obj 235 183 outlet~;
#X text 238 137 HighPass;
#X text 91 136 LowPass;
#X obj 103 118 hsl 161 12 0.0005 0.5 1 1 \$0-A ColorTime 697Hz 0 7
1 9 -208064 -1 -1 8000 0;
#X obj -11 98 *;
#X obj -11 48 t f b;
#X obj 16 75 samplerate~;
#X msg -11 169 label \$1;
#X obj -11 146 tosymbol;
#X obj -11 123 sprintf %dHz;
#X text 37 11 Filtres Passe-Bas et Passe-Haut dont la représentation
graphique est verticale comme un mur de briques.;
#X text 36 -18 Low-pass and High-pass filters of which the image is
as vertical as a brick wall.;
#X text 271 110 4 4 2010;
#X connect 2 0 7 0;
#X connect 7 0 4 0;
#X connect 7 1 10 0;
#X connect 13 0 7 1;
#X connect 13 0 15 0;
#X connect 14 0 19 0;
#X connect 15 0 14 0;
#X connect 15 1 16 0;
#X connect 16 0 14 1;
#X connect 17 0 13 0;
#X connect 18 0 17 0;
#X connect 19 0 18 0;
#X coords 0 -1 1 1 166 36 1 100 100;
#X restore 149 -95 pd ARGO;
#N canvas 355 90 451 254 ARGO 0;
#X obj 101 101 cnv 6 130 27 empty ColorAmpli DetectEnvelope2 23 8 1
14 -261299 -1 1.04858e+06;
#X obj 101 101 cnv 4 10 4 empty empty empty 20 12 0 14 -1 -66577 0
;
#X obj 101 124 cnv 4 10 4 empty empty empty 20 12 0 14 -1 -66577 0
;
#X obj 89 231 outlet~;
#X obj 89 74 inlet~;
#X obj 91 31 cnv 15 60 30 empty empty empty 20 12 0 14 -24198 -66577
0;
#N canvas 373 111 439 222 Help 0;
#X text 23 15 Detecteur d'enveloppe = Suiveur d'enveloppe;
#X text 23 35 Envelope detector = Envelope follower;
#X obj 21 64 cnv 15 400 140 empty empty empty 20 12 0 14 -233017 -66577
0;
#X text 24 66 Citation;
#X text 42 120 (output_envelope decrements about 63% in this time)
;
#X text 122 67 peakenv~;
#X text 213 66 signal-peak-envelope;
#X text 107 167 IEM KUG;
#X text 91 155 musil;
#X text 121 155 @;
#X text 127 155 iem.at;
#X text 42 144 (c) Thomas Musil 2000 - 2005;
#X text 90 177 Graz \, Austria;
#X text 43 88 reset: resets peak-envelope to 0;
#X text 42 105 time-constant [ms] (default: 0 ms);
#X restore 99 38 pd Help;
#X obj 314 213 cnv 15 41 30 empty empty empty 20 12 0 14 -24198 -66577
0;
#N canvas 350 196 308 136 ?? 0;
#X obj -9 87 cnv 15 300 38 empty empty empty 20 12 0 14 -224896 -66577
0;
#X obj -9 10 cnv 18 300 70 empty empty ARGOPdMiniModules 1 10 1 14
-4033 -1 1.04858e+06;
#X obj 9 29 cnv 10 10 10 empty empty Gerard 0 5 1 9 -4033 -1 1.04858e+06
;
#X obj 40 29 cnv 10 10 10 empty empty Paresys 0 5 1 9 -4033 -1 1.04858e+06
;
#X text -8 89 Construit sous / Build under Pd 0.42.5-extended;
#X obj 39 105 pddplink http://puredata.info/downloads;
#X obj 3 42 pddplink http://pagesperso-orange.fr/Paresys/ARGOPd/;
#X obj 3 57 pddplink http://gerard.paresys.free.fr/ARGOPd/;
#X restore 318 220 pd ??;
#X obj 131 117 hsl 99 12 0.1 10000 1 1 \$0-A ColorForm 102.3ms 0 7
1 9 -208064 -1 -1 5900 0;
#N canvas 0 22 450 300 label-ms 0;
#X msg 156 171 label \$1;
#X obj 156 151 tosymbol;
#X obj 154 84 inlet;
#X obj 157 200 outlet;
#X obj 156 111 expr (int(10 * $f1) / 10) \;;
#X obj 156 131 sprintf %sms;
#X connect 0 0 3 0;
#X connect 1 0 0 0;
#X connect 2 0 4 0;
#X connect 4 0 5 0;
#X connect 5 0 1 0;
#X restore 201 146 pd label-ms;
#X text 181 82 1 6 2011;
#X msg 101 144 reset;
#X obj 89 180 iemlib/peakenv~ 1000;
#X obj 100 106 bng 12 250 50 0 \$0-A \$0-B 0 15 8 1 12 -262144 -1 -1
;
#X text 234 113 <- Time-constant [ms];
#X text -7 97 Remis a zero ->;
#X text -84 107 resets peak-envelope to 0 ->;
#X connect 4 0 13 0;
#X connect 9 0 10 0;
#X connect 9 0 13 1;
#X connect 10 0 9 0;
#X connect 12 0 13 0;
#X connect 13 0 3 0;
#X connect 14 0 12 0;
#X coords 0 -1 1 1 132 29 1 100 100;
#X restore 336 -42 pd ARGO;
#N canvas 168 221 353 247 ARGO 0;
#X obj 101 101 cnv 20 104 34 empty ColorAmpli empty 20 12 0 14 -261299
-1 1.04858e+06;
#X obj 89 145 outlet~;
#X obj 136 104 cnv 10 20 10 empty ColorAmpli AmpliLin+ 1 5 1 14 -261299
-1 1.04858e+06;
#X obj 91 -54 inlet~;
#X obj 187 -56 inlet~;
#X obj 90 33 *~;
#X obj 103 118 hsl 101 12 0 2 0 1 \$0-A ColorAmpli empty 0 7 1 9 -262144
-1 -1 0 0;
#X msg 231 68 set \$1;
#X obj 187 -30 +~;
#X obj 232 10 snapshot~;
#X obj 231 46 change;
#X msg 280 67 label \$1;
#X obj 279 44 tosymbol;
#X obj 195 101 cnv 4 10 4 empty empty empty 20 12 0 14 -258113 -66577
0;
#X obj 101 101 cnv 4 10 4 empty empty empty 20 12 0 14 -1 -66577 0
;
#X obj 101 131 cnv 4 10 4 empty empty empty 20 12 0 14 -1 -66577 0
;
#X obj 105 8 clip~ 0 100;
#X obj 103 118 hsl 101 12 0 2 0 0 \$0-A ColorAmpli 0 0 7 1 9 -261299
-258049 -1 216 0;
#X text 209 122 2 HSLIDER superposés;
#X text 208 111 <-- ATTENTION;
#X obj 232 -57 loadbang;
#X obj 232 -17 metro 201;
#X text 212 98 29 11 2009;
#X connect 3 0 5 0;
#X connect 4 0 8 0;
#X connect 5 0 1 0;
#X connect 6 0 8 1;
#X connect 6 0 12 0;
#X connect 7 0 17 0;
#X connect 8 0 9 0;
#X connect 8 0 16 0;
#X connect 9 0 10 0;
#X connect 10 0 7 0;
#X connect 11 0 17 0;
#X connect 12 0 11 0;
#X connect 16 0 5 1;
#X connect 20 0 21 0;
#X connect 21 0 9 0;
#X coords 0 -1 1 1 106 36 1 100 100;
#X restore 237 244 pd ARGO;
#X connect 3 0 2 0;
#X connect 9 0 13 0;
#X connect 9 0 22 0;
#X connect 10 0 21 0;
#X connect 11 0 13 1;
#X connect 13 0 16 0;
#X connect 16 0 0 0;
#X connect 16 0 0 1;
#X connect 19 0 12 0;
#X connect 19 0 11 1;
#X connect 21 0 11 0;
#X connect 21 1 24 0;
#X connect 22 0 19 0;
#X connect 22 1 23 0;
#X connect 23 0 12 1;
#X connect 23 0 24 1;
#X connect 24 0 13 1;
