#N canvas 385 22 330 385 10;
#X obj 98 281 dac~ 1 2;
#X obj -35 -78 cnv 15 15 15 empty empty ExMM5c-DetectEnvelope-Flt.pd
0 8 1 14 -262144 -66577 0;
#X obj 2 137 switch~;
#N canvas 608 166 228 173 ARGOnOff 0;
#X obj 100 100 tgl 18 1 \$0-SendOnOff \$0-ReceiveOnOff On/Off 20 11
1 14 -4033 -1 -1 1 1;
#X obj 99 10 loadbang;
#X msg 99 33 \; pd dsp 1;
#X obj 100 129 outlet;
#X text -50 99 Audio On/Off du patch ->;
#X text -22 45 Audio General On ->;
#X text 107 82 17 3 2010;
#X connect 0 0 3 0;
#X connect 1 0 2 0;
#X coords 0 -1 1 1 65 18 2 100 100;
#X restore 2 119 pd ARGOnOff;
#X text 7 103 V;
#X text 7 96 |;
#X text -5 85 On/Off Patch;
#X obj 233 268 cnv 15 48 25 empty empty empty 20 12 0 14 -24198 -66577
0;
#N canvas 350 196 308 136 ??? 0;
#X obj -6 87 cnv 15 300 38 empty empty empty 20 12 0 14 -224896 -66577
0;
#X obj -6 10 cnv 18 300 70 empty empty ARGOPdMiniModules 3 10 1 14
-4033 -1 1.04858e+06;
#X obj 13 31 cnv 10 10 10 empty empty Gerard 0 5 1 11 -4033 -1 1.04858e+06
;
#X obj 55 30 cnv 10 10 10 empty empty Paresys 0 5 1 11 -4033 -1 1.04858e+06
;
#X text -1 89 Construit sous / Build under Pd 0.42.5-extended;
#X obj 6 43 pddp/pddplink http://pagesperso-orange.fr/Paresys/ARGOPd/
;
#X obj 6 58 pddp/pddplink http://gerard.paresys.free.fr/ARGOPd/;
#X obj 46 105 pddp/pddplink http://puredata.info/downloads;
#X restore 237 272 pd ???;
#N canvas 324 59 331 313 ARGO 0;
#X obj 101 101 cnv 20 104 34 empty ColorAmpli empty 20 12 0 14 -261299
-1 1.04858e+06;
#X obj 85 285 outlet~;
#X obj 134 104 cnv 10 20 10 empty ColorAmpli Ampli 1 5 1 14 -261299
-1 1.04858e+06;
#X obj 85 72 inlet~;
#X obj 85 260 *~;
#X obj 103 118 hsl 101 12 -80 20 0 1 \$0-A ColorAmpli 13dB 0 7 1 9
-261299 -1 -1 9300 0;
#X msg -24 161 label \$1;
#X obj -25 138 tosymbol;
#X obj -25 103 sprintf %ddB;
#X obj 101 101 cnv 4 10 4 empty empty empty 20 12 0 14 -1 -66577 0
;
#X obj 101 131 cnv 4 10 4 empty empty empty 20 12 0 14 -1 -66577 0
;
#X text -16 120 -> -80dB..20dB;
#X text 106 182 -> 0.0001..10 = -80dB..20dB;
#X text 209 97 5 5 2011;
#X obj 100 163 expr (pow(10 \, $f1 / 20));
#X text 107 140 -> -80..20;
#X obj 227 270 cnv 15 41 30 empty empty empty 20 12 0 14 -24198 -66577
0;
#N canvas 350 196 308 136 ?? 0;
#X obj -9 87 cnv 15 300 38 empty empty empty 20 12 0 14 -224896 -66577
0;
#X obj -9 10 cnv 18 300 70 empty empty ARGOPdMiniModules 1 10 1 14
-4033 -1 1.04858e+06;
#X obj 9 29 cnv 10 10 10 empty empty Gerard 0 5 1 9 -4033 -1 1.04858e+06
;
#X obj 40 29 cnv 10 10 10 empty empty Paresys 0 5 1 9 -4033 -1 1.04858e+06
;
#X text -8 89 Construit sous / Build under Pd 0.42.5-extended;
#X obj 39 105 pddplink http://puredata.info/downloads;
#X obj 3 42 pddplink http://pagesperso-orange.fr/Paresys/ARGOPd/;
#X obj 3 57 pddplink http://gerard.paresys.free.fr/ARGOPd/;
#X restore 231 277 pd ??;
#X obj 100 206 sel 0.0001;
#X msg 100 234 0;
#X connect 3 0 4 0;
#X connect 4 0 1 0;
#X connect 5 0 8 0;
#X connect 5 0 14 0;
#X connect 6 0 5 0;
#X connect 7 0 6 0;
#X connect 8 0 7 0;
#X connect 14 0 18 0;
#X connect 18 0 19 0;
#X connect 18 1 4 1;
#X connect 19 0 4 1;
#X connect 19 0 7 0;
#X coords 0 -1 1 1 106 36 1 100 100;
#X restore 121 227 pd ARGO;
#N canvas 43 152 390 254 ARGO 0;
#X obj 101 101 cnv 6 130 27 empty ColorAmpli DetectEnvelope1 23 8 1
14 -261299 -1 1.04858e+06;
#X obj 101 101 cnv 4 10 4 empty empty empty 20 12 0 14 -1 -66577 0
;
#X obj 101 124 cnv 4 10 4 empty empty empty 20 12 0 14 -1 -66577 0
;
#X obj 89 231 outlet~;
#X obj 89 74 inlet~;
#X obj 89 151 abs~;
#X obj 89 203 lop~ 5;
#X obj 10 20 cnv 15 60 30 empty empty empty 20 12 0 14 -24198 -66577
0;
#N canvas 419 111 342 167 Help 0;
#X text 23 15 Detecteur d'enveloppe = Suiveur d'enveloppe;
#X text 23 35 Envelope detector = Envelope follower;
#X text 26 78 Freq(Hz) = 1 / 2 x pi x Time constant(sec);
#X text 80 93 = 1 / 6.28 x (Time constant(ms) / 1000);
#X text 81 107 = 1 / 6.28 x (Time constant(ms) / 1000);
#X text 82 122 = 1000 / 6.28 x Time constant(ms);
#X restore 17 26 pd Help;
#X obj 289 212 cnv 15 41 30 empty empty empty 20 12 0 14 -24198 -66577
0;
#N canvas 350 196 308 136 ?? 0;
#X obj -9 87 cnv 15 300 38 empty empty empty 20 12 0 14 -224896 -66577
0;
#X obj -9 10 cnv 18 300 70 empty empty ARGOPdMiniModules 1 10 1 14
-4033 -1 1.04858e+06;
#X obj 9 29 cnv 10 10 10 empty empty Gerard 0 5 1 9 -4033 -1 1.04858e+06
;
#X obj 40 29 cnv 10 10 10 empty empty Paresys 0 5 1 9 -4033 -1 1.04858e+06
;
#X text -8 89 Construit sous / Build under Pd 0.42.5-extended;
#X obj 39 105 pddplink http://puredata.info/downloads;
#X obj 3 42 pddplink http://pagesperso-orange.fr/Paresys/ARGOPd/;
#X obj 3 57 pddplink http://gerard.paresys.free.fr/ARGOPd/;
#X restore 293 219 pd ??;
#X obj 131 117 hsl 99 12 0.1 10000 1 1 \$0-A ColorForm 19.7ms 0 7 1
9 -208064 -1 -1 4500 0;
#N canvas 0 22 450 300 label-ms 0;
#X msg 156 171 label \$1;
#X obj 156 151 tosymbol;
#X obj 154 84 inlet;
#X obj 157 200 outlet;
#X obj 156 111 expr (int(10 * $f1) / 10) \;;
#X obj 156 131 sprintf %sms;
#X connect 0 0 3 0;
#X connect 1 0 0 0;
#X connect 2 0 4 0;
#X connect 4 0 5 0;
#X connect 5 0 1 0;
#X restore 162 137 pd label-ms;
#X text 241 100 1 6 2011;
#X obj 122 167 expr 1000 / (6.28 * $f1);
#X msg 42 151 clear;
#X obj 101 106 bng 12 250 50 0 \$0-A \$0-B 0 15 8 1 12 -262144 -1 -1
;
#X text -3 97 Remis a zero ->;
#X text -50 108 Resets envelope to 0 ->;
#X connect 4 0 5 0;
#X connect 5 0 6 0;
#X connect 6 0 3 0;
#X connect 11 0 12 0;
#X connect 11 0 14 0;
#X connect 12 0 11 0;
#X connect 14 0 6 1;
#X connect 15 0 6 0;
#X connect 16 0 15 0;
#X coords 0 -1 1 1 132 29 1 100 100;
#X restore 86 85 pd ARGO;
#N canvas 67 40 861 570 ARGO 0;
#X obj 99 527 outlet~;
#X obj 261 7 openpanel;
#X msg 289 53 set \$1;
#X msg 194 331 set 0;
#X obj 207 294 sel 1 0;
#X obj 81 -20 key;
#X obj 49 28 select 32;
#X obj -55 -20 loadbang;
#X obj -47 106 list2symbol;
#X obj 262 27 t b s;
#X obj 366 522 outlet~;
#X msg 13 198 set \$1;
#X obj -14 293 list2symbol;
#X obj 114 -20 inlet~;
#X obj 113 28 threshold~ 0.5 5 0.49 5;
#X text 346 63 Les canaux 3 \, 4... d'un fichier Audio de plus de 2
canaux ne sont pas lus.;
#X text 346 36 Lit un fichier Audio Stereo (2 canaux).;
#X text 346 49 Le canal d'un fichier Audio Mono est lu sur la sortie
gauche;
#X text 413 149 A Mono Audio file is read on the left output.;
#X obj 408 -5 cnv 15 60 30 empty empty empty 20 12 0 14 -24198 -66577
0;
#N canvas 348 108 563 525 Help 0;
#X obj 10 85 cnv 15 400 120 empty empty empty 20 12 0 14 -233017 -66577
0;
#X text 13 84 Citation;
#X obj 8 348 cnv 15 550 230 empty empty empty 20 12 0 14 -224896 -66577
0;
#X text 12 -41 - Ne lit pas un fichier au format mp3 \, SoundDesigner
II (.SDII ou .SD2);
#X text 29 30 error: soundfiler_read: x.aiff: unknown or bad header
format;
#X text 16 54 Solution: ouvrir puis sauver le fichier au format aiff
avec Audacity;
#X text 15 -9 - Ne lit pas un fichier au format aiff "Entier petit
boutien" comme les pistes d'un CD Audio copiées avec le finder du Mac.
Les messages d'erreur s'affichent:;
#X text 29 41 error: dsp: xxx.aiff: unknown or bad header format;
#X text 11 -60 - Lit un fichier Audio au format aiff \, wave;
#X text 19 503 Erreur dans la fenêtre Pd:;
#X text 11 208 - Si le Patch est sauvé avec 1 Player contenant un nom
de fichier Audio \, ce fichier sera lu automatiquement à la prochaine
ouverture s'il n'a pas changé d'emplacement.;
#X text 186 463 If the sample rate of pd is set to 44100 \, files having
the sample rates of 44100 are correctly played \, other files will
be transposed.;
#X text 188 436 WARNING The sample rate of the output depends on the
system sample rate of pd:;
#X text 16 352 - ATTENTION Le taux d'échantillonnage de la lecture
du fichier dépends du taux d'échantillonnage de Pd.;
#X text 28 379 Si le taux d'échantillonnage de Pd est de 44100 (Menu
Preferences -> Audio Settings...) \, les fichiers échantillonnés à
44100 Hz sont lus correctement \, sinon ils sont transposés.;
#X text 32 99 The soundfiler object reads and writes floating point
arrays to binary soundfiles which may contain 2 or 3 byte fixed point
or 4 byte floating point samples in wave \, aiff \, or next formats
(no floating point aiff \, though.). The number of channels of the
soundfile need not match the number of arrays given (extras are dropped
and unsupplied channels are zeroed out.);
#X text 52 545 Quand on duplique le miniModule sous MacOSX.4;
#X text 34 518 warning: B...: multiply defined;
#X text 34 531 warning: A...: multiply defined;
#X text 73 558 Sans consequence...;
#X obj 11 653 cnv 15 350 170 empty empty empty 20 12 0 14 -258113 -66577
0;
#X text 18 656 ATTENTION;
#X text 30 670 Bug sous MacOSX.5 (pas sous MacOSX.4);
#X text 30 685 Ces 3 Mini%odules ne sont pas duplicables directement
;
#X text 31 699 en faisant: Pomme D ou Pomme C -> Pomme V;
#X text 31 712 Cela crash Pd...;
#X text 33 781 3 Ré-ouvrir le patch qui vient d'etre fermé;
#X text 33 796 4 Coller le MiniModule dans le patch;
#X text 64 767 (aprés avoir sauvé ce patch au besoin);
#X text 34 754 2 Fermer le patch d'où il a été copié;
#X text 34 740 1 Copier le MiniModule à dupliquer;
#X text 17 726 SOLUTION;
#X obj 11 586 cnv 15 290 60 empty empty empty 20 12 0 14 -258113 -66577
0;
#X text 14 590 File < 4e+06 samples;
#X text 46 602 < 90 sec at 44100 samples/sec;
#X text 11 249 - Peut Ouvrir automatiquement 1 fichier qui se trouve
dans le même dossier que lui \, quelquesoit l'emplacement du dossier.
Pour cela ouvrir le module et taper le nom du fichier (sans chemin
d'accés) dans le message. Sauver le patch. Fermer le patch. Ré-ouvrir
le patch. Le dossier contenant le module ARGO et le fichier audio est
ainsi transportable.;
#X restore 415 1 pd Help;
#X text 82 73 Trig Decl;
#X obj -47 172 soundfiler;
#X msg -47 148 read -resize \$1 \$2 \$3;
#X obj -47 129 pack s s s;
#X obj -57 31 t b b b b;
#N canvas 415 209 678 351 RenameArrays 0;
#X obj -457 -189 realtime;
#X obj -457 -165 * 100;
#X obj -457 -142 int;
#X obj -522 -98 tosymbol;
#X obj -522 -120 sprintf A%d;
#X obj -479 39 pack s s;
#X msg -479 64 \; \$1 rename \$2;
#X obj -479 13 tosymbol;
#X msg -553 -43 set \$1;
#X text -500 68 (1);
#X text -576 -44 (2);
#X text -501 -10 (3);
#X text -360 -201 array -> Voir:;
#X text -360 -188 Help Browser/2.control.examples/15.array.pd;
#X text -360 -175 Help Browser/2.control.examples/16.more.arrays.pd
;
#X text -360 -163 Help Browser/5.reference/all_about_arrays.pd;
#X obj -362 -99 tosymbol;
#X obj -320 38 pack s s;
#X msg -320 63 \; \$1 rename \$2;
#X obj -320 12 tosymbol;
#X msg -389 -43 set \$1;
#X text -341 68 (1);
#X text -414 -44 (2);
#X text -341 -10 (3);
#X obj -362 -121 sprintf B%d;
#X obj -346 104 outlet;
#X obj -510 103 outlet;
#X obj -411 -217 inlet;
#X text -274 -50 Démarrer en nommant les arrays (graph) A et B et en
mettant A et B dans (3);
#X text -278 -99 SOLUTION:;
#X text -273 -83 (1) Renommer les 2 arrays;
#X obj -556 102 outlet;
#X obj -392 103 outlet;
#X text -276 -127 PROBLEME: Comment dupliquer un MiniModule comportant
un ou plusieurs arrays;
#X text -274 -68 (2) Renommer le message qui renomme les 2 arrays;
#X obj -522 -71 t a a b a;
#X obj -362 -72 t a a b a;
#X msg -479 -9 A3833;
#X msg -320 -10 B3833;
#X connect 0 0 1 0;
#X connect 1 0 2 0;
#X connect 2 0 4 0;
#X connect 2 0 24 0;
#X connect 3 0 35 0;
#X connect 4 0 3 0;
#X connect 5 0 6 0;
#X connect 7 0 5 0;
#X connect 8 0 37 0;
#X connect 8 0 31 0;
#X connect 16 0 36 0;
#X connect 17 0 18 0;
#X connect 19 0 17 0;
#X connect 20 0 38 0;
#X connect 20 0 32 0;
#X connect 24 0 16 0;
#X connect 27 0 0 1;
#X connect 35 0 8 0;
#X connect 35 1 26 0;
#X connect 35 2 37 0;
#X connect 35 3 5 1;
#X connect 36 0 20 0;
#X connect 36 1 25 0;
#X connect 36 2 38 0;
#X connect 36 3 17 1;
#X connect 37 0 7 0;
#X connect 38 0 19 0;
#X restore -23 81 pd RenameArrays;
#X obj 366 500 hip~ 5;
#X obj 99 505 hip~ 5;
#X obj 147 356 * 100000;
#X obj -17 340 snapshot~;
#X obj -17 383 change;
#X obj -17 362 / 1;
#X obj -18 420 > 1;
#X obj -18 441 sel 1;
#X obj -18 489 spigot;
#X msg 89 52 1;
#X obj 127 335 / 100;
#X msg 117 314 10000;
#X obj 117 293 t b f;
#X obj 389 217 cnv 4 10 4 empty empty empty 20 12 0 14 -1 -66577 0
;
#X obj 101 217 cnv 4 10 4 empty empty empty 20 12 0 14 -1 -66577 0
;
#X msg 268 417 stop;
#X obj -18 513 t b b;
#X msg 165 417 1;
#X obj -18 467 t b b b;
#X msg 122 53 0;
#X obj 99 481 tabread4~;
#X obj 365 478 tabread4~;
#X obj 155 52 t b b;
#X obj -22 238 cnv 15 400 50 empty empty empty 20 12 0 14 -260097 -66577
0;
#X text -20 237 Nom du fichier / File name;
#X obj 292 331 sel 0 1;
#X obj 148 379 t b f;
#X msg 197 418 4.41e+08;
#X msg 196 379 set 4.41e+08;
#X msg 281 378 set -4.41e+08;
#X text 352 418 list2symbol pour les noms de fichier avec espace;
#X obj -72 439 sel 1;
#X obj -72 487 spigot;
#X obj -72 511 t b b;
#X obj -72 461 t b b b;
#X obj -72 418 < 0;
#X msg 114 417 153402;
#X msg 96 381 set \$1;
#X obj 423 380 spigot;
#X obj 454 359 expr 1-$f1;
#X obj 373 378 spigot;
#X obj 194 454 vline~;
#X obj 261 -15 bang;
#X text 399 107 <- Clic le nom du fichier pour le changer;
#X text 400 118 <- Click to change the file name;
#X obj 246 332 spigot;
#X obj 275 295 t b f f f;
#X obj 101 101 cnv 15 298 28 empty empty empty 20 12 0 14 -262144 -66577
0;
#X obj 368 103 cnv 10 20 10 empty empty Play 1 5 1 14 -262144 -1 1.04858e+06
;
#X obj 241 101 bng 12 250 50 0 \$0-A \$0-B Zero 15 7 1 9 -262144 -1
-1;
#X obj 197 101 tgl 12 1 \$0-A \$0-B Loop 15 6 1 9 -262144 -1 -1 1 1
;
#X obj 100 101 bng 12 250 50 0 \$0-A \$0-B empty 14 6 1 9 -262144 -1
-1;
#X obj 103 115 hradio 14 1 0 20 empty empty empty 0 6 0 8 -262144 -1
-1 0;
#X obj 123 101 tgl 12 1 \$0-A \$0-B Play(Space) 14 6 1 9 -262144 -1
-1 1 1;
#X obj 182 210 nbx 5 12 1 1000 0 1 \$0-A ColorTime Speed 47 7 1 9 -208064
-1 -1 100 256;
#X obj 263 210 tgl 12 1 \$0-A \$0-B Reverse 15 7 1 9 -208064 -1 -1
0 1;
#X text 401 139 Reads an Stereo Audio file (2 channels).;
#X obj 101 101 cnv 2 10 4 empty empty empty 20 12 0 14 -1 -66577 0
;
#X obj 102 102 cnv 2 8 2 empty empty empty 20 12 0 14 -262144 -66577
0;
#X obj -6 55 metro 200;
#X obj 3 -20 r SendFluid;
#X obj 514 -6 cnv 15 41 30 empty empty empty 20 12 0 14 -24198 -66577
0;
#N canvas 350 196 381 103 ? 0;
#X obj 5 49 cnv 15 370 38 empty empty empty 20 12 0 14 -224896 -66577
0;
#X text 6 65 Voir/Look at: http://puredata.info/downloads;
#X obj 4 12 cnv 18 370 30 empty empty ARGOPdMiniModules 1 10 1 14 -4033
-1 1.04858e+06;
#X obj 7 31 cnv 10 10 10 empty empty Gerard 0 5 1 9 -4033 -1 1.04858e+06
;
#X obj 38 31 cnv 10 10 10 empty empty Paresys 0 5 1 9 -4033 -1 1.04858e+06
;
#X obj 175 20 cnv 10 10 10 empty empty http://pagesperso-orange.fr/Paresys/ARGOPd/
0 5 1 9 -4033 -1 1.04858e+06;
#X obj 175 31 cnv 10 10 10 empty empty http://gerard.paresys.free.fr/ARGOPd/
0 5 1 9 -4033 -1 1.04858e+06;
#X text 6 51 Construit sous / Build under Pd 0.41.4-extended;
#X restore 520 1 pd ?;
#X obj 404 168 cnv 15 350 170 empty empty empty 20 12 0 14 -258113
-66577 0;
#X text 411 171 ATTENTION;
#X text 423 185 Bug sous MacOSX.5 (pas sous MacOSX.4);
#X text 423 200 Ces 3 Mini%odules ne sont pas duplicables directement
;
#X text 424 227 Cela crash Pd...;
#X text 426 296 3 Ré-ouvrir le patch qui vient d'etre fermé;
#X text 426 311 4 Coller le MiniModule dans le patch;
#X text 457 282 (aprés avoir sauvé ce patch au besoin);
#X text 427 269 2 Fermer le patch d'où il a été copié;
#X text 427 255 1 Copier le MiniModule à dupliquer;
#X text 410 241 SOLUTION;
#X text 424 214 en faisant: Pomme D ou Pomme C + Pomme V;
#X msg -105 244 label \$1;
#X obj -105 222 tosymbol;
#X obj -104 156 int;
#X obj -104 179 / 10;
#X obj -104 201 sprintf %ssec;
#X obj -104 133 / 4410;
#X text 405 90 19 2 2010;
#X obj 103 170 hsl 295 40 0 1 0 0 \$0-A \$0-B 3.4sec 254 36 1 9 -188398
-1 -1 25355 1;
#N canvas 0 22 1149 303 (subpatch) 0;
#X array B3833 153402 float 2;
#X coords 0 1 153402 -1 300 40 1;
#X restore 100 170 graph;
#X obj 103 130 hsl 295 40 0 1 0 0 \$0-A \$0-B empty 0 0 0 10 -188398
-1 -1 25355 1;
#N canvas 0 22 844 357 (subpatch) 0;
#X array A3833 153402 float 2;
#X coords 0 1 153402 -1 300 40 1;
#X restore 100 130 graph;
#X symbolatom 100 114 49 0 0 0 - - -;
#X msg -11 253 drumLoop.aiff;
#X connect 1 0 9 0;
#X connect 2 0 113 0;
#X connect 3 0 80 0;
#X connect 4 0 29 0;
#X connect 4 1 3 0;
#X connect 4 1 42 0;
#X connect 5 0 6 0;
#X connect 6 0 80 0;
#X connect 7 0 25 0;
#X connect 8 0 24 0;
#X connect 9 0 113 0;
#X connect 9 1 2 0;
#X connect 11 0 114 0;
#X connect 12 0 2 0;
#X connect 13 0 14 0;
#X connect 14 0 78 0;
#X connect 22 0 32 1;
#X connect 22 0 64 0;
#X connect 22 0 107 0;
#X connect 23 0 22 0;
#X connect 24 0 23 0;
#X connect 25 0 113 0;
#X connect 25 1 114 0;
#X connect 25 2 26 0;
#X connect 25 3 86 0;
#X connect 26 0 47 0;
#X connect 26 1 24 1;
#X connect 26 2 48 0;
#X connect 26 3 24 2;
#X connect 27 0 10 0;
#X connect 28 0 0 0;
#X connect 29 0 53 0;
#X connect 30 0 32 0;
#X connect 31 0 62 0;
#X connect 31 0 33 0;
#X connect 31 0 109 0;
#X connect 31 0 111 0;
#X connect 32 0 31 0;
#X connect 33 0 34 0;
#X connect 34 0 45 0;
#X connect 35 0 43 0;
#X connect 36 0 80 0;
#X connect 37 0 29 0;
#X connect 38 0 37 0;
#X connect 39 0 38 0;
#X connect 39 1 37 1;
#X connect 42 0 68 0;
#X connect 43 0 29 0;
#X connect 43 1 36 0;
#X connect 44 0 68 0;
#X connect 45 0 35 0;
#X connect 45 1 44 0;
#X connect 45 2 46 0;
#X connect 46 0 80 0;
#X connect 47 0 28 0;
#X connect 48 0 27 0;
#X connect 49 0 80 0;
#X connect 49 1 76 0;
#X connect 52 0 55 0;
#X connect 52 1 56 0;
#X connect 53 0 54 0;
#X connect 53 1 68 1;
#X connect 54 0 68 0;
#X connect 55 0 54 0;
#X connect 56 0 54 0;
#X connect 58 0 61 0;
#X connect 59 0 60 0;
#X connect 60 0 29 0;
#X connect 60 1 36 0;
#X connect 61 0 59 0;
#X connect 61 1 63 0;
#X connect 61 2 46 0;
#X connect 62 0 58 0;
#X connect 63 0 68 0;
#X connect 64 0 63 0;
#X connect 65 0 44 0;
#X connect 66 0 65 1;
#X connect 67 0 63 0;
#X connect 68 0 30 0;
#X connect 68 0 47 0;
#X connect 68 0 48 0;
#X connect 69 0 1 0;
#X connect 72 0 29 0;
#X connect 73 0 72 0;
#X connect 73 1 52 0;
#X connect 73 2 67 1;
#X connect 73 3 66 0;
#X connect 76 0 3 0;
#X connect 76 0 67 0;
#X connect 76 0 65 0;
#X connect 77 0 35 1;
#X connect 77 0 59 1;
#X connect 78 0 49 0;
#X connect 79 0 69 0;
#X connect 80 0 4 0;
#X connect 80 0 72 1;
#X connect 81 0 39 0;
#X connect 82 0 73 0;
#X connect 86 0 30 0;
#X connect 87 0 86 1;
#X connect 102 0 109 0;
#X connect 103 0 102 0;
#X connect 104 0 105 0;
#X connect 105 0 106 0;
#X connect 106 0 103 0;
#X connect 107 0 104 0;
#X connect 113 0 8 0;
#X connect 113 0 11 0;
#X connect 114 0 12 0;
#X coords 0 -1 1 1 300 122 2 100 100;
#X restore -19 -57 pd ARGO;
#N canvas 324 59 331 313 ARGO 0;
#X obj 101 101 cnv 20 104 34 empty ColorAmpli empty 20 12 0 14 -261299
-1 1.04858e+06;
#X obj 85 285 outlet~;
#X obj 134 104 cnv 10 20 10 empty ColorAmpli Ampli 1 5 1 14 -261299
-1 1.04858e+06;
#X obj 85 72 inlet~;
#X obj 85 260 *~;
#X obj 103 118 hsl 101 12 -80 20 0 1 \$0-A ColorAmpli 0dB 0 7 1 9 -261299
-1 -1 8000 0;
#X msg -24 161 label \$1;
#X obj -25 138 tosymbol;
#X obj -25 103 sprintf %ddB;
#X obj 101 101 cnv 4 10 4 empty empty empty 20 12 0 14 -1 -66577 0
;
#X obj 101 131 cnv 4 10 4 empty empty empty 20 12 0 14 -1 -66577 0
;
#X text -16 120 -> -80dB..20dB;
#X text 106 182 -> 0.0001..10 = -80dB..20dB;
#X text 209 97 5 5 2011;
#X obj 100 163 expr (pow(10 \, $f1 / 20));
#X text 107 140 -> -80..20;
#X obj 227 270 cnv 15 41 30 empty empty empty 20 12 0 14 -24198 -66577
0;
#N canvas 350 196 308 136 ?? 0;
#X obj -9 87 cnv 15 300 38 empty empty empty 20 12 0 14 -224896 -66577
0;
#X obj -9 10 cnv 18 300 70 empty empty ARGOPdMiniModules 1 10 1 14
-4033 -1 1.04858e+06;
#X obj 9 29 cnv 10 10 10 empty empty Gerard 0 5 1 9 -4033 -1 1.04858e+06
;
#X obj 40 29 cnv 10 10 10 empty empty Paresys 0 5 1 9 -4033 -1 1.04858e+06
;
#X text -8 89 Construit sous / Build under Pd 0.42.5-extended;
#X obj 39 105 pddplink http://puredata.info/downloads;
#X obj 3 42 pddplink http://pagesperso-orange.fr/Paresys/ARGOPd/;
#X obj 3 57 pddplink http://gerard.paresys.free.fr/ARGOPd/;
#X restore 231 277 pd ??;
#X obj 100 206 sel 0.0001;
#X msg 100 234 0;
#X connect 3 0 4 0;
#X connect 4 0 1 0;
#X connect 5 0 8 0;
#X connect 5 0 14 0;
#X connect 6 0 5 0;
#X connect 7 0 6 0;
#X connect 8 0 7 0;
#X connect 14 0 18 0;
#X connect 18 0 19 0;
#X connect 18 1 4 1;
#X connect 19 0 4 1;
#X connect 19 0 7 0;
#X coords 0 -1 1 1 106 36 1 100 100;
#X restore 86 126 pd ARGO;
#N canvas 89 65 442 316 ARGO 0;
#X obj 101 101 cnv 20 215 34 empty ColorForm empty 20 12 0 14 -188398
-1 1.04858e+06;
#X obj 248 104 cnv 10 65 10 empty ColorForm Flt-BP 1 5 1 14 -188398
-1 1.04858e+06;
#X obj 101 131 cnv 4 10 4 empty empty empty 20 12 0 14 -1 -66577 0
;
#X obj 203 101 cnv 4 10 4 empty empty empty 20 12 0 14 -1728 -66577
0;
#X obj 306 131 cnv 4 10 4 empty empty empty 0 0 0 9 -1 -66577 0;
#X obj 87 44 inlet~;
#X obj 209 289 outlet~;
#X obj 271 289 outlet~;
#X obj 100 106 nbx 7 12 0 20000 0 1 \$0-A ColorTime Hz 60 7 1 9 -208064
-1 -1 123.471 256;
#X obj 188 44 inlet~;
#X obj 297 44 inlet~;
#X obj 101 101 cnv 4 10 4 empty empty empty 20 12 0 14 -1 -66577 0
;
#X obj 306 101 cnv 4 10 4 empty empty empty 20 12 0 14 -3522 -66577
0;
#X obj 87 180 vcf~;
#X obj 149 203 vcf~;
#X obj 209 232 vcf~;
#X obj 271 262 vcf~;
#X obj 87 289 outlet~;
#X obj 149 289 outlet~;
#X obj 241 131 cnv 4 10 4 empty empty empty 0 0 0 9 -1 -66577 0;
#X obj 166 131 cnv 4 10 4 empty empty empty 0 0 0 9 -1 -66577 0;
#X text 179 84 frequency;
#X text 6 4 Controlled bandpass filter;
#X text 80 136 1 filter;
#X text 145 136 2 filters;
#X text 218 136 3 filters;
#X text 286 137 4 filters;
#X text 282 81 Resonance;
#X text 7 18 Filtre Passe-bande controllable;
#X obj 103 118 hsl 127 12 0 1 0 0 \$0-A ColorTime empty 0 7 1 9 -262144
-1 -1 4100 0;
#X obj 103 118 hsl 127 12 0 1 0 0 \$0-A ColorTime B1 0 7 1 9 -208064
-1728 -1 4464 0;
#X obj 234 118 hsl 81 12 0 1 0 1 \$0-A ColorForm empty 0 7 1 9 -262144
-1 -1 1700 0;
#X obj 234 118 hsl 81 12 0 1 0 1 \$0-A ColorForm 21.25 0 7 1 9 -188398
-3522 -1 1700 0;
#X text 259 17 2 HSLIDER superposés;
#X text 258 6 ATTENTION;
#X obj 332 221 cnv 15 41 30 empty empty empty 20 12 0 14 -24198 -66577
0;
#N canvas 350 196 381 103 ? 0;
#X obj 5 49 cnv 15 370 38 empty empty empty 20 12 0 14 -224896 -66577
0;
#X text 6 65 Voir/Look at: http://puredata.info/downloads;
#X obj 4 12 cnv 18 370 30 empty empty ARGOPdMiniModules 1 10 1 14 -4033
-1 1.04858e+06;
#X obj 7 31 cnv 10 10 10 empty empty Gerard 0 5 1 9 -4033 -1 1.04858e+06
;
#X obj 38 31 cnv 10 10 10 empty empty Paresys 0 5 1 9 -4033 -1 1.04858e+06
;
#X obj 175 20 cnv 10 10 10 empty empty http://pagesperso-orange.fr/Paresys/ARGOPd/
0 5 1 9 -4033 -1 1.04858e+06;
#X obj 175 31 cnv 10 10 10 empty empty http://gerard.paresys.free.fr/ARGOPd/
0 5 1 9 -4033 -1 1.04858e+06;
#X text 6 51 Construit sous / Build under Pd 0.41.4-extended;
#X restore 338 228 pd ?;
#N canvas 110 253 362 334 Freq-v5-sig- 0;
#X obj 297 156 ftom;
#X obj 135 204 mtof;
#X obj 210 73 +~;
#X obj 22 119 snapshot~;
#X obj 22 141 change;
#X msg 22 226 set \$1;
#X msg 136 226 set \$1;
#X obj 135 157 * 126;
#X obj 135 180 + 6;
#X obj 299 201 / 126;
#X obj 298 179 - 6;
#X obj 158 33 *~ 1.90476;
#X obj 227 6 inlet;
#X obj 297 6 inlet;
#X obj 48 253 outlet;
#X obj 136 253 outlet;
#X text 45 270 Hslider;
#X text 222 -20 Hslider;
#X obj 158 8 inlet~;
#X obj 22 64 metro 200;
#X obj 22 7 loadbang;
#X obj 135 129 change;
#X obj 299 253 outlet;
#X text 297 269 Hslider;
#X text 136 269 Number;
#X text 294 -10 Number;
#X text 50 282 Over;
#X text 302 280 Under;
#X text 227 -9 Under;
#N canvas 60 186 486 280 pitchb 0;
#X obj 75 79 mod 12;
#X obj 75 103 sel 0 1 2 3 4 5 6 7 8 9 10 11;
#X msg 251 138 A;
#X msg 305 138 B;
#X msg 197 138 G;
#X msg 8 138 C;
#X msg 62 138 D;
#X msg 116 138 E;
#X msg 143 138 F;
#X obj 209 8 inlet;
#X obj 334 83 div 12;
#X obj 334 112 - 2;
#X obj 209 47 t f f;
#X text 339 158 -> Numero de l'octave;
#X text 215 27 -> Numero MIDI de la note (69 = A3 = 440Hz);
#X msg 265 228 label \$1;
#X obj 265 251 outlet;
#X msg 35 138 Db;
#X msg 89 138 Eb;
#X msg 170 138 Gb;
#X msg 224 138 Ab;
#X msg 278 138 Bb;
#X text 371 41 (70 = A#3 = Bb3);
#X obj 265 206 symbol;
#X obj 265 181 sprintf %s%d;
#X connect 0 0 1 0;
#X connect 1 0 5 0;
#X connect 1 1 17 0;
#X connect 1 2 6 0;
#X connect 1 3 18 0;
#X connect 1 4 7 0;
#X connect 1 5 8 0;
#X connect 1 6 19 0;
#X connect 1 7 4 0;
#X connect 1 8 20 0;
#X connect 1 9 2 0;
#X connect 1 10 21 0;
#X connect 1 11 3 0;
#X connect 2 0 24 0;
#X connect 3 0 24 0;
#X connect 4 0 24 0;
#X connect 5 0 24 0;
#X connect 6 0 24 0;
#X connect 7 0 24 0;
#X connect 8 0 24 0;
#X connect 9 0 12 0;
#X connect 10 0 11 0;
#X connect 11 0 24 1;
#X connect 12 0 0 0;
#X connect 12 1 10 0;
#X connect 15 0 16 0;
#X connect 17 0 24 0;
#X connect 18 0 24 0;
#X connect 19 0 24 0;
#X connect 20 0 24 0;
#X connect 21 0 24 0;
#X connect 23 0 15 0;
#X connect 24 0 23 0;
#X restore 70 225 pd pitchb;
#X obj 203 226 clip~ 0 20000;
#X obj 203 204 mtof~;
#X obj 203 157 *~ 126;
#X obj 203 179 +~ 6;
#X obj 203 253 outlet~;
#X obj 81 8 r SendFluid;
#X connect 0 0 10 0;
#X connect 1 0 6 0;
#X connect 2 0 3 0;
#X connect 2 0 32 0;
#X connect 3 0 4 0;
#X connect 4 0 5 0;
#X connect 5 0 14 0;
#X connect 6 0 15 0;
#X connect 7 0 8 0;
#X connect 8 0 1 0;
#X connect 8 0 29 0;
#X connect 9 0 22 0;
#X connect 10 0 9 0;
#X connect 11 0 2 0;
#X connect 12 0 2 1;
#X connect 12 0 21 0;
#X connect 13 0 0 0;
#X connect 18 0 11 0;
#X connect 19 0 3 0;
#X connect 20 0 19 0;
#X connect 21 0 7 0;
#X connect 29 0 14 0;
#X connect 30 0 34 0;
#X connect 31 0 30 0;
#X connect 32 0 33 0;
#X connect 33 0 31 0;
#X connect 35 0 19 1;
#X restore -19 114 pd Freq-v5-sig-;
#X obj -10 52 cnv 15 60 30 empty empty empty 20 12 0 14 -24198 -66577
0;
#N canvas 161 113 422 363 Help 0;
#X text 14 258 Resonance = "Q" = filter sharpness = Coefficient of
Quality;
#X text 14 271 http://en.wikipedia.org/wiki/Q_factor;
#X text 15 283 http://fr.wikipedia.org/wiki/Facteur_de_qualité;
#X text 13 -16 Flt-BP = Filter BandPass = Filtre passe-bande;
#X text 13 313 La résonance est controlée seulement 100 fois par seconde
;
#X obj 8 57 cnv 15 400 200 empty empty empty 20 12 0 14 -233017 -66577
0;
#X text 27 88 vcf~ is like bp~ except that it takes an audio signal
to set center frequency \, which may thus change continuously in time.
The "Q" or filter sharpness is still only set by messages. More expensive
than bp~ in CPU time but more powerful too.;
#X text 27 73 vcf~ = voltage-controlled bandpass filter;
#X text 26 185 The left inlet is the incoming audio signal \, the middle
control input sets center frequency and the rigth input sets "Q".;
#X text 27 156 bp~ passes a sinusoid at the center frequency at unit
gain (approximately). Other frequencies are attenuated.;
#X text 12 59 Citation;
#X text 11 20 1 = 240 1/2 ton = 20 octaves;
#X text 11 8 Sensibilité de l'entrée de contrôle de la fréquence:;
#X restore -3 58 pd Help;
#X text 187 74 Center;
#N canvas 375 291 285 327 Q-Ctrl 0;
#X obj 73 278 line;
#X obj 11 9 loadbang;
#X msg 148 128 set \$1;
#X obj 149 57 +~;
#X obj 78 89 snapshot~;
#X obj 78 109 change;
#X obj 10 54 metro 10;
#X obj 76 215 + 1;
#X obj 75 236 clip 1 200;
#X msg 74 257 \$1 100;
#X obj 76 173 * 1;
#X obj 77 152 * 1;
#X obj 78 129 t f f f;
#X obj 73 300 outlet;
#X obj 75 194 * 200;
#X obj 149 88 snapshot~;
#X obj 149 108 change;
#X obj 219 11 inlet;
#X obj 148 300 outlet;
#X obj 149 11 inlet~;
#X msg 218 132 label \$1;
#X obj 218 110 tosymbol;
#X obj 218 88 * 100;
#X obj 67 54 metro 200;
#X obj 70 9 r SendFluid;
#X connect 0 0 13 0;
#X connect 1 0 6 0;
#X connect 1 0 23 0;
#X connect 2 0 18 0;
#X connect 3 0 4 0;
#X connect 3 0 15 0;
#X connect 4 0 5 0;
#X connect 5 0 12 0;
#X connect 6 0 4 0;
#X connect 7 0 8 0;
#X connect 8 0 9 0;
#X connect 9 0 0 0;
#X connect 10 0 14 0;
#X connect 11 0 10 0;
#X connect 12 0 11 0;
#X connect 12 1 11 1;
#X connect 12 2 10 1;
#X connect 14 0 7 0;
#X connect 15 0 16 0;
#X connect 16 0 2 0;
#X connect 17 0 3 1;
#X connect 17 0 22 0;
#X connect 19 0 3 0;
#X connect 20 0 18 0;
#X connect 21 0 20 0;
#X connect 22 0 21 0;
#X connect 23 0 15 0;
#X connect 24 0 23 1;
#X restore 354 114 pd Q-Ctrl;
#X text 333 66 11 4 2010;
#X connect 5 0 13 0;
#X connect 8 0 37 2;
#X connect 9 0 37 0;
#X connect 10 0 41 0;
#X connect 13 0 14 0;
#X connect 13 0 17 0;
#X connect 14 0 15 0;
#X connect 14 0 18 0;
#X connect 15 0 16 0;
#X connect 15 0 6 0;
#X connect 16 0 7 0;
#X connect 29 0 37 1;
#X connect 31 0 41 1;
#X connect 37 0 30 0;
#X connect 37 1 8 0;
#X connect 37 2 13 1;
#X connect 37 2 14 1;
#X connect 37 2 15 1;
#X connect 37 2 16 1;
#X connect 37 3 29 0;
#X connect 41 0 13 2;
#X connect 41 0 14 2;
#X connect 41 0 15 2;
#X connect 41 0 16 2;
#X connect 41 1 32 0;
#X coords 0 -1 1 1 217 36 1 100 100;
#X restore -19 175 pd ARGO;
#X text 12 236 Niveau general ->;
#X text 18 246 General level ->;
#X connect 3 0 2 0;
#X connect 9 0 0 1;
#X connect 9 0 0 0;
#X connect 10 0 12 0;
#X connect 11 0 10 0;
#X connect 11 0 13 0;
#X connect 12 0 13 1;
#X connect 13 2 9 0;
