#N canvas 521 22 617 433 10;
#X obj -251 7 cnv 15 15 15 empty empty ExMM31o-GEMFilm-Cube2.pd 0 8
1 14 -262144 -1 0;
#X obj -218 111 switch~;
#N canvas 608 166 228 173 ARGOnOff 0;
#X obj 100 100 tgl 18 1 \$0-SendOnOff \$0-ReceiveOnOff On/Off 20 11
1 14 -4033 -1 -1 1 1;
#X obj 99 10 loadbang;
#X msg 99 33 \; pd dsp 1;
#X obj 100 129 outlet;
#X text -50 99 Audio On/Off du patch ->;
#X text -22 45 Audio General On ->;
#X text 107 82 17 3 2010;
#X connect 0 0 3 0;
#X connect 1 0 2 0;
#X coords 0 -1 1 1 65 18 2 100 100;
#X restore -218 93 pd ARGOnOff;
#X text -213 77 V;
#X text -213 70 |;
#X text -225 59 On/Off Patch;
#N canvas 413 140 402 279 ARGO 0;
#X obj 101 101 cnv 10 95 41 \$0-A \$0-B empty 20 12 0 14 -1 -1 1.04858e+06
;
#X obj 101 109 nbx 4 12 0 1e+37 0 0 \$0 \$0-ReceiveCpuPeak CPUPeak
45 7 1 11 -24198 -1 -24198 46 256;
#X obj 101 122 nbx 4 12 0 1e+37 0 0 \$0 \$0-ReceiveCpuMean CPUMean
45 7 1 11 -24198 -1 -24198 47.65 256;
#X obj 145 -55 cputime;
#X obj 145 -76 t b b;
#X text 188 24 (c) musil@iem.kug.ac.at;
#X text 230 37 IEM KUG;
#X text 78 18 CPU-load;
#X obj 144 -125 loadbang;
#X text 205 48 graz \, austria 2001;
#X obj 145 -100 metro 500;
#X obj 145 -34 * 0.2;
#X text 237 -88 -dsp-load in %;
#X text 228 -101 measure average- and peak-;
#X obj 37 18 * 100;
#X obj 37 63 int;
#X obj 37 41 + 0.499;
#X obj 37 86 * 0.01;
#N canvas 524 162 422 273 1p1zmodif 0;
#X text 134 89 (c) musil@iem.kug.ac.at;
#X text 179 99 IEM KUG;
#X obj 14 195 +;
#X text 151 108 graz \, austria 2001;
#X text 135 71 y[n] = a0*x[n] + a1*x[n-1] + b1*y[n-1];
#X text 18 13 x[n];
#X text 16 244 y[n];
#X text 84 111 y[n-1];
#X text 134 56 <float> control-IIR-filter 1.order;
#X obj 15 28 inlet;
#X obj 14 228 outlet;
#X obj 15 112 * 0.1;
#X obj 59 156 * 0.9;
#X text 139 144 a1 = 0;
#X text 139 155 b1 = 0.9;
#X text 139 133 a0 = 0.1;
#X obj 15 50 t f b;
#X text 135 40 Inspiré de 1p1z;
#X obj 59 112 f 0;
#X connect 2 0 10 0;
#X connect 2 0 18 1;
#X connect 9 0 16 0;
#X connect 11 0 2 0;
#X connect 12 0 2 1;
#X connect 16 0 11 0;
#X connect 16 1 18 0;
#X connect 18 0 12 0;
#X restore 37 -8 pd 1p1zmodif;
#X text 146 9 Inspiré de 5.reference/iemabs/help-dsp.pd;
#X text 141 83 25 3 2010;
#X connect 3 0 11 0;
#X connect 4 0 3 0;
#X connect 4 1 3 1;
#X connect 8 0 10 0;
#X connect 10 0 4 0;
#X connect 11 0 18 0;
#X connect 11 0 1 0;
#X connect 14 0 16 0;
#X connect 15 0 17 0;
#X connect 16 0 15 0;
#X connect 17 0 2 0;
#X connect 18 0 14 0;
#X coords 0 -1 1 1 97 43 1 100 100;
#X restore 220 21 pd ARGO;
#N canvas 77 120 492 363 ARGO 0;
#X obj 101 101 cnv 10 144 54 empty ColorForm empty 20 12 0 14 -228856
-1 1.04858e+06;
#X obj 101 101 cnv 4 10 4 empty empty empty 20 12 0 14 -128992 -66577
0;
#X obj 154 109 cnv 10 20 10 empty ColorForm GEM-Rotation 1 5 1 14 -228856
-1 1.04858e+06;
#X text 71 55 gemlist;
#X obj 101 151 cnv 4 10 4 empty empty empty 20 12 0 14 -128992 -66577
0;
#X text 83 156 gemlist;
#X obj 235 101 cnv 4 10 4 empty empty empty 20 12 0 14 -1 -66577 0
;
#X obj 115 120 hsl 129 12 0 1 0 1 \$0-A \$0-B empty 0 7 1 9 -262144
-1 -1 6800 0;
#X obj 115 132 hsl 129 12 0 1 0 1 \$0-A \$0-B empty 0 7 1 9 -262144
-1 -1 6800 0;
#X obj 115 144 hsl 129 12 0 1 0 1 \$0-A \$0-B empty 0 8 1 12 -262144
-1 -1 6400 0;
#X obj 249 78 inlet~;
#X obj 143 101 cnv 4 10 4 empty empty empty 20 12 0 14 -1 -66577 0
;
#X obj 191 101 cnv 4 10 4 empty empty empty 20 12 0 14 -1 -66577 0
;
#X obj 131 75 inlet~;
#X obj 183 76 inlet~;
#X text 131 47 Control;
#X text 187 47 Control;
#X text 246 48 Control;
#X text 141 58 X;
#X text 191 58 Y;
#X text 254 60 Z;
#X obj 75 340 outlet;
#X obj 75 320 rotateXYZ 0 0 0;
#X obj 77 74 inlet;
#X obj 249 227 snapshot~;
#X obj 249 249 change;
#X obj 176 227 snapshot~;
#X obj 176 249 change;
#X obj 104 230 snapshot~;
#X obj 104 252 change;
#X obj 16 175 t a b b b;
#X obj 115 120 hsl 129 12 0 1 0 0 \$0-A \$0-B 11 0 8 1 12 -228856 -1
-1 6800 0;
#X obj 104 276 * 360;
#X obj 104 297 - 180;
#N canvas 795 278 241 330 GEMRot~ 0;
#X msg 124 150 set \$1;
#X obj 15 51 +~;
#X obj 89 300 outlet;
#X obj 102 88 snapshot~;
#X obj 125 130 change;
#X obj 60 10 inlet;
#X obj 15 10 inlet~;
#X obj 17 299 outlet~;
#X obj 100 11 loadbang;
#X obj 101 51 metro 200;
#X obj 158 12 r SendFluid;
#X msg 60 189 label \$1;
#X obj 60 167 tosymbol;
#X obj 59 144 int;
#X obj 57 87 * 360;
#X obj 57 113 - 180;
#X connect 0 0 2 0;
#X connect 1 0 3 0;
#X connect 1 0 7 0;
#X connect 3 0 4 0;
#X connect 4 0 0 0;
#X connect 5 0 1 1;
#X connect 5 0 14 0;
#X connect 6 0 1 0;
#X connect 8 0 9 0;
#X connect 9 0 3 0;
#X connect 10 0 9 1;
#X connect 11 0 2 0;
#X connect 12 0 11 0;
#X connect 13 0 12 0;
#X connect 14 0 15 0;
#X connect 15 0 13 0;
#X restore 103 203 pd GEMRot~;
#N canvas 795 278 241 330 GEMRot~ 0;
#X msg 124 150 set \$1;
#X obj 15 51 +~;
#X obj 89 300 outlet;
#X obj 102 88 snapshot~;
#X obj 125 130 change;
#X obj 60 10 inlet;
#X obj 15 10 inlet~;
#X obj 17 299 outlet~;
#X obj 100 11 loadbang;
#X obj 101 51 metro 200;
#X obj 158 12 r SendFluid;
#X msg 60 189 label \$1;
#X obj 60 167 tosymbol;
#X obj 59 144 int;
#X obj 57 87 * 360;
#X obj 57 113 - 180;
#X connect 0 0 2 0;
#X connect 1 0 3 0;
#X connect 1 0 7 0;
#X connect 3 0 4 0;
#X connect 4 0 0 0;
#X connect 5 0 1 1;
#X connect 5 0 14 0;
#X connect 6 0 1 0;
#X connect 8 0 9 0;
#X connect 9 0 3 0;
#X connect 10 0 9 1;
#X connect 11 0 2 0;
#X connect 12 0 11 0;
#X connect 13 0 12 0;
#X connect 14 0 15 0;
#X connect 15 0 13 0;
#X restore 176 204 pd GEMRot~;
#X obj 115 132 hsl 129 12 0 1 0 0 \$0-A \$0-B 11 0 8 1 12 -228856 -1
-1 6800 0;
#X obj 176 274 * 360;
#X obj 175 294 - 180;
#X obj 249 278 * 360;
#X obj 248 298 - 180;
#N canvas 795 278 241 330 GEMRot~ 0;
#X msg 124 150 set \$1;
#X obj 15 51 +~;
#X obj 89 300 outlet;
#X obj 102 88 snapshot~;
#X obj 125 130 change;
#X obj 60 10 inlet;
#X obj 15 10 inlet~;
#X obj 17 299 outlet~;
#X obj 100 11 loadbang;
#X obj 101 51 metro 200;
#X obj 158 12 r SendFluid;
#X msg 60 189 label \$1;
#X obj 60 167 tosymbol;
#X obj 59 144 int;
#X obj 57 87 * 360;
#X obj 57 113 - 180;
#X connect 0 0 2 0;
#X connect 1 0 3 0;
#X connect 1 0 7 0;
#X connect 3 0 4 0;
#X connect 4 0 0 0;
#X connect 5 0 1 1;
#X connect 5 0 14 0;
#X connect 6 0 1 0;
#X connect 8 0 9 0;
#X connect 9 0 3 0;
#X connect 10 0 9 1;
#X connect 11 0 2 0;
#X connect 12 0 11 0;
#X connect 13 0 12 0;
#X connect 14 0 15 0;
#X connect 15 0 13 0;
#X restore 249 204 pd GEMRot~;
#X obj 115 144 hsl 129 12 0 1 0 0 \$0-A \$0-B 0 0 8 1 12 -228856 -1
-1 6917 0;
#X obj 102 120 cnv 5 5 5 empty ColorForm X 0 8 1 12 -228856 -1 1.04858e+06
;
#X obj 102 132 cnv 5 5 5 empty ColorForm Y 0 8 1 12 -228856 -1 1.04858e+06
;
#X text 255 132 2 HSLIDER superposés;
#X text 255 121 ATTENTION;
#X obj 154 15 cnv 15 41 30 empty empty empty 20 12 0 14 -24198 -66577
0;
#N canvas 350 196 381 103 ? 0;
#X obj 5 49 cnv 15 370 38 empty empty empty 20 12 0 14 -224896 -66577
0;
#X text 6 65 Voir/Look at: http://puredata.info/downloads;
#X obj 4 12 cnv 18 370 30 empty empty ARGOPdMiniModules 1 10 1 14 -4033
-1 1.04858e+06;
#X obj 7 31 cnv 10 10 10 empty empty Gerard 0 5 1 9 -4033 -1 1.04858e+06
;
#X obj 38 31 cnv 10 10 10 empty empty Paresys 0 5 1 9 -4033 -1 1.04858e+06
;
#X obj 175 20 cnv 10 10 10 empty empty http://pagesperso-orange.fr/Paresys/ARGOPd/
0 5 1 9 -4033 -1 1.04858e+06;
#X obj 175 31 cnv 10 10 10 empty empty http://gerard.paresys.free.fr/ARGOPd/
0 5 1 9 -4033 -1 1.04858e+06;
#X text 6 51 Construit sous / Build under Pd 0.41.4-extended;
#X restore 160 22 pd ?;
#X obj 80 14 cnv 15 60 30 empty empty empty 20 12 0 14 -24198 -66577
0;
#N canvas 312 59 421 380 Help 0;
#X obj 8 113 cnv 15 400 150 empty empty empty 20 12 0 14 -258113 -66577
0;
#X text 11 116 - Erreur dans la fenêtre Pd:;
#X obj 7 -95 cnv 15 400 200 empty empty empty 20 12 0 14 -233017 -66577
0;
#X text 10 -96 Citation;
#X text 20 -75 Description: rotation;
#X text 23 -60 rotate accepts a gemList and changes the current transformation
matrix by the specified rotation;
#X text 20 -26 the rotation around the X- \, Y- and Z-axis (in this
order) can be specified separately by arguments and changed via inlets.
;
#X restore 87 20 pd Help;
#X text 250 105 30 12 2009;
#X connect 7 0 34 1;
#X connect 8 0 35 1;
#X connect 9 0 41 1;
#X connect 10 0 41 0;
#X connect 13 0 34 0;
#X connect 14 0 35 0;
#X connect 22 0 21 0;
#X connect 23 0 30 0;
#X connect 24 0 25 0;
#X connect 25 0 39 0;
#X connect 26 0 27 0;
#X connect 27 0 37 0;
#X connect 28 0 29 0;
#X connect 29 0 32 0;
#X connect 30 0 22 0;
#X connect 30 1 28 0;
#X connect 30 2 26 0;
#X connect 30 3 24 0;
#X connect 32 0 33 0;
#X connect 33 0 22 1;
#X connect 34 0 28 0;
#X connect 34 1 31 0;
#X connect 35 0 26 0;
#X connect 35 1 36 0;
#X connect 37 0 38 0;
#X connect 38 0 22 2;
#X connect 39 0 40 0;
#X connect 40 0 22 3;
#X connect 41 0 24 0;
#X connect 41 1 42 0;
#X coords 0 -1 1 1 146 56 1 100 100;
#X restore 93 282 pd ARGO;
#N canvas 419 151 259 228 ARGO 0;
#X obj 101 101 cnv 10 144 15 empty ColorForm empty 20 12 0 14 -228856
-1 1.04858e+06;
#X obj 101 101 cnv 4 10 4 empty empty empty 20 12 0 14 -128992 -66577
0;
#X obj 171 105 cnv 10 20 10 empty ColorGEM GEM-Ortho 1 5 1 14 -228856
-1 1.04858e+06;
#X text 83 80 gemlist;
#X obj 93 51 inlet;
#X obj 101 112 cnv 4 10 4 empty empty empty 20 12 0 14 -128992 -66577
0;
#X text 84 116 gemlist;
#X obj 93 200 outlet;
#X obj 129 103 tgl 12 1 \$0-A \$0-B empty 0 0 1 9 -262144 -1 -1 1 1
;
#X obj 128 138 t f b;
#X obj 93 175 ortho;
#X obj 141 103 tgl 12 1 \$0-A \$0-B empty 0 0 1 9 -262144 -1 -1 0 1
;
#X msg 170 138 compat \$1;
#X text 185 82 31 12 2009;
#X obj 19 109 cnv 15 41 30 empty empty empty 20 12 0 14 -24198 -66577
0;
#N canvas 350 196 381 103 ? 0;
#X obj 5 49 cnv 15 370 38 empty empty empty 20 12 0 14 -224896 -66577
0;
#X text 6 65 Voir/Look at: http://puredata.info/downloads;
#X obj 4 12 cnv 18 370 30 empty empty ARGOPdMiniModules 1 10 1 14 -4033
-1 1.04858e+06;
#X obj 7 31 cnv 10 10 10 empty empty Gerard 0 5 1 9 -4033 -1 1.04858e+06
;
#X obj 38 31 cnv 10 10 10 empty empty Paresys 0 5 1 9 -4033 -1 1.04858e+06
;
#X obj 175 20 cnv 10 10 10 empty empty http://pagesperso-orange.fr/Paresys/ARGOPd/
0 5 1 9 -4033 -1 1.04858e+06;
#X obj 175 31 cnv 10 10 10 empty empty http://gerard.paresys.free.fr/ARGOPd/
0 5 1 9 -4033 -1 1.04858e+06;
#X text 6 51 Construit sous / Build under Pd 0.41.4-extended;
#X restore 25 116 pd ?;
#X obj 16 50 cnv 15 60 30 empty empty empty 20 12 0 14 -24198 -66577
0;
#N canvas 358 215 424 266 Help 0;
#X obj 9 -83 cnv 15 400 200 empty empty empty 20 12 0 14 -233017 -66577
0;
#X text 12 -84 Citation;
#X text 26 -66 Description: orthographic rendering;
#X text 37 -50 [ortho] changes the current viewing-mode from (evtl.)
"perspective" (objects that are fare away appear smaller than objects
thta are near) to "orthographic" (parallels appear parallel) for all
subsequent shapes.;
#X text 38 8 compat 0|1 : switch aspect ratio default: 1 = 1 \, 0 =
window width/height;
#X restore 23 56 pd Help;
#X connect 4 0 10 0;
#X connect 8 0 9 0;
#X connect 9 0 10 0;
#X connect 10 0 7 0;
#X connect 11 0 12 0;
#X connect 12 0 10 0;
#X coords 0 -1 1 1 146 17 1 100 100;
#X restore 93 348 pd ARGO;
#X text 6 347 Clic Ortho ->;
#X obj -257 209 cnv 15 180 40 empty empty empty 20 12 0 14 -258113
-66577 0;
#X text -250 212 Prefer RGBA under Windows ->;
#X text -232 232 Prefer YUV under MacOS ->;
#N canvas 324 59 331 313 ARGO 0;
#X obj 101 101 cnv 20 104 34 empty ColorAmpli empty 20 12 0 14 -261299
-1 1.04858e+06;
#X obj 85 285 outlet~;
#X obj 134 104 cnv 10 20 10 empty ColorAmpli Ampli 1 5 1 14 -261299
-1 1.04858e+06;
#X obj 85 72 inlet~;
#X obj 85 260 *~;
#X obj 103 118 hsl 101 12 -80 20 0 1 \$0-A ColorAmpli -27dB 0 7 1 9
-261299 -1 -1 5300 0;
#X msg -24 161 label \$1;
#X obj -25 138 tosymbol;
#X obj -25 103 sprintf %ddB;
#X obj 101 101 cnv 4 10 4 empty empty empty 20 12 0 14 -1 -66577 0
;
#X obj 101 131 cnv 4 10 4 empty empty empty 20 12 0 14 -1 -66577 0
;
#X text -16 120 -> -80dB..20dB;
#X text 106 182 -> 0.0001..10 = -80dB..20dB;
#X text 209 97 5 5 2011;
#X obj 100 163 expr (pow(10 \, $f1 / 20));
#X text 107 140 -> -80..20;
#X obj 227 270 cnv 15 41 30 empty empty empty 20 12 0 14 -24198 -66577
0;
#N canvas 350 196 308 136 ?? 0;
#X obj -9 87 cnv 15 300 38 empty empty empty 20 12 0 14 -224896 -66577
0;
#X obj -9 10 cnv 18 300 70 empty empty ARGOPdMiniModules 1 10 1 14
-4033 -1 1.04858e+06;
#X obj 9 29 cnv 10 10 10 empty empty Gerard 0 5 1 9 -4033 -1 1.04858e+06
;
#X obj 40 29 cnv 10 10 10 empty empty Paresys 0 5 1 9 -4033 -1 1.04858e+06
;
#X text -8 89 Construit sous / Build under Pd 0.42.5-extended;
#X obj 39 105 pddplink http://puredata.info/downloads;
#X obj 3 42 pddplink http://pagesperso-orange.fr/Paresys/ARGOPd/;
#X obj 3 57 pddplink http://gerard.paresys.free.fr/ARGOPd/;
#X restore 231 277 pd ??;
#X obj 100 206 sel 0.0001;
#X msg 100 234 0;
#X connect 3 0 4 0;
#X connect 4 0 1 0;
#X connect 5 0 8 0;
#X connect 5 0 14 0;
#X connect 6 0 5 0;
#X connect 7 0 6 0;
#X connect 8 0 7 0;
#X connect 14 0 18 0;
#X connect 18 0 19 0;
#X connect 18 1 4 1;
#X connect 19 0 4 1;
#X connect 19 0 7 0;
#X coords 0 -1 1 1 106 36 1 100 100;
#X restore 232 178 pd ARGO;
#N canvas 262 86 718 585 ARGO 0;
#X obj 467 98 cnv 15 60 30 empty empty empty 20 12 0 14 -24198 -66577
0;
#N canvas 403 109 421 480 Help 0;
#X obj 11 -6 cnv 15 380 90 empty empty empty 20 12 0 14 -233017 -66577
0;
#X text 16 -8 Citation;
#X text 15 5 "GEM is the Graphics Environment for Multimedia. It was
originally written by Mark Danks to generate real-time computer graphics
\, especially for audio-visual compositions.";
#X text 15 55 "GEM is a collection of externals which allow the user
to create OpenGL graphics within Pd";
#X text 10 92 - Raccourcis clavier;
#X text 12 148 - En "FullScreen" taper F ou Pomme + Tab sous MacOSX...
;
#X text 120 161 taper F ou Alt + Tab sous Windows...;
#X text 120 173 taper F ou Alt + F4 sous Linux...;
#X obj 10 425 cnv 15 400 190 empty empty empty 20 12 0 14 -258113 -66577
0;
#X text 13 431 Impossible de supprimer la barre de menu sous MacOSX.5
+ Pd-0.41.4-extended;
#X text 13 457 Pas de probleme sous MacOSX.4 + Pd-0.41.4-extended;
#X text 25 513 Solution: Quitter Pd et relancer;
#X text 14 474 - Problème Windows: Quand on sort de fullscreen le dessin
des objets dans les patches est buggé (taille du texte \, HSlider décalés...)
;
#X text 26 525 Vu avec carte Matrox + Windows XP SP2 + Pd-0.41.4-extended
;
#X text 18 582 Solution: cocher Compatible;
#X text 35 317 Inconvenient: Charge CPU => la texture est calculée
(objet pix_texture) par le processeur de l'ordinateur et pas par la
carte video);
#X text 18 559 GL: énumérant non valide (répété);
#X text 18 570 OpenGL: invalid enumérant (repeat);
#X text 14 545 - Erreur dans la fenêtre Pd:;
#X text 12 265 Il faut cocher compatible avec certaines cartes video
\, de certains PC \, sous Windows...;
#X text 13 291 Compatible Off -> mode 1: TEXTURE_RECTANGLE;
#X text 13 303 Compatible On -> mode 0: TEXTURE_2D;
#X text 8 -31 - GEM On ouvre une fenetre;
#X text 134 91 g / G -> GEM On/Off;
#X text 135 105 f / F -> FullScreen On/Off;
#X text 136 118 b /B -> Menu bar On/Off;
#X text 136 132 Echap / Esc -> FullScreen Off;
#X text 15 391 16/9 = 512/288 = 1024/576 = 1152/648 = 1280/720 = 1440/810
;
#X text 9 379 16/10 = 512/320 = 1024/640 = 1152/720 = 1280x800 = 1440/900
;
#X text 343 366 = 1280/960;
#X text 20 367 4/3 = 160/120 = 320/240 = 512/384 = 640/480 = 1024x768
;
#X text 121 186 ou Echap / Esc...;
#X text 11 239 - Compatible envoie le message mode 1 ou mode 0 à tous
les objets pix_texture des autres modules;
#X restore 474 104 pd Help;
#X obj 101 101 cnv 22 183 69 empty empty GEM 5 12 1 18 -1 -262144 1.04858e+06
;
#X obj 191 154 tgl 12 1 \$0-A \$0-ColorGEM (F)ullScreen 15 7 1 11 -24198
-1 -24198 0 1;
#X obj 103 124 tgl 12 1 \$0-A \$0-ColorGEM (G)EM 15 7 1 11 -24198 -1
-24198 1 1;
#X obj 191 105 nbx 2 12 1 30 0 1 \$0-A \$0-ColorGEM Frames/sec 26 7
1 11 -24198 -1 -24198 30 256;
#X obj 191 139 tgl 12 1 \$0-A \$0-ColorGEM KeyShortCut 15 7 1 11 -24198
-1 -24198 1 1;
#X obj 283 -26 key;
#X msg 15 462 create;
#X msg 429 460 destroy;
#X msg 387 460 reset;
#X msg 296 460 fullscreen \$1;
#X msg 489 460 0;
#X obj 169 511 gemwin;
#X obj 78 251 sel 1;
#X msg 296 298 set \$1;
#X msg 95 204 set \$1;
#X msg 78 229 1;
#X msg -80 461 frame \$1;
#X obj 462 395 t b b;
#X obj 429 418 delay 200;
#X msg 64 461 dimen 640 480;
#X msg -15 463 1;
#X obj 283 11 spigot;
#X obj 70 -28 gemkeyname;
#X obj 516 391 select 0 1;
#X obj 78 178 t b f f f;
#X msg 532 438 color 16 22 16;
#X msg 517 415 color 0 22 0;
#X obj 188 67 select 65 97 70 102 76 108 71 103 66 98;
#X obj -25 -25 r SendGEM;
#X obj 517 483 s \$0-ColorGEM;
#X obj 191 124 tgl 12 1 SendMode \$0-ColorGEM Compatible 15 7 1 11
-24198 -1 -24198 0 1;
#X obj 55 68 select 27;
#X msg -21 134 0;
#X obj 103 154 hradio 12 1 1 3 \$0-A \$0-ColorGEM 640x480 39 7 1 11
-24198 -1 -24198 1;
#X obj 248 178 t b f;
#N canvas 0 22 450 300 Dimension 0;
#X obj 169 76 sel 0 1 2;
#X msg 203 141 set dimen 1280 720;
#X msg 187 183 set dimen 640 480;
#X msg 169 225 set dimen 320 240;
#X msg 198 162 label 640x480;
#X msg 213 120 label 1280x720;
#X msg 179 204 label 320x240;
#X obj 169 50 inlet;
#X obj 103 257 outlet;
#X obj 303 259 outlet;
#X connect 0 0 3 0;
#X connect 0 0 6 0;
#X connect 0 1 2 0;
#X connect 0 1 4 0;
#X connect 0 2 1 0;
#X connect 0 2 5 0;
#X connect 1 0 9 0;
#X connect 2 0 9 0;
#X connect 3 0 9 0;
#X connect 4 0 8 0;
#X connect 5 0 8 0;
#X connect 6 0 8 0;
#X connect 7 0 0 0;
#X restore 275 213 pd Dimension;
#X obj 78 325 select linux macos windows;
#X obj 55 42 mrpeach/str to_list;
#X text 150 -29 Sortir de fullscreen;
#X text 146 -19 sous Linux avec Esc ->;
#X text -70 37 Sortir de fullscreen;
#X text -82 47 sous MacOS avec Esc ->;
#X msg 345 298 set \$1;
#X msg 157 437 1;
#X obj 187 179 t b f;
#X msg 157 461 border \$1 \, menubar \$1;
#X obj 103 139 tgl 12 1 \$0-A \$0-ColorGEM (B)arMenu 15 7 1 11 -24198
-1 -24198 1 1;
#X obj 36 16 spigot;
#X obj 69 -6 == 0;
#X obj -47 68 sel f F g G b B;
#X obj 146 204 t b f b;
#X msg 185 227 1;
#X obj -21 112 t b b;
#X msg 6 158 set 1;
#X obj -32 500 cnv 15 120 30 empty empty empty 20 12 0 14 -258113 -66577
0;
#X obj -15 507 s RenderGEM;
#X obj 533 512 cnv 15 41 30 empty empty empty 20 12 0 14 -24198 -66577
0;
#N canvas 350 196 308 136 ?? 0;
#X obj -9 87 cnv 15 300 38 empty empty empty 20 12 0 14 -224896 -66577
0;
#X obj -9 10 cnv 18 300 70 empty empty ARGOPdMiniModules 1 10 1 14
-4033 -1 1.04858e+06;
#X obj 9 29 cnv 10 10 10 empty empty Gerard 0 5 1 9 -4033 -1 1.04858e+06
;
#X obj 40 29 cnv 10 10 10 empty empty Paresys 0 5 1 9 -4033 -1 1.04858e+06
;
#X text -8 89 Construit sous / Build under Pd 0.42.5-extended;
#X obj 39 105 pddplink http://puredata.info/downloads;
#X obj 3 42 pddplink http://pagesperso-orange.fr/Paresys/ARGOPd/;
#X obj 3 57 pddplink http://gerard.paresys.free.fr/ARGOPd/;
#X restore 537 519 pd ??;
#X obj 15 415 delay 300;
#X obj -15 438 delay 300;
#X msg 296 434 0;
#X obj 64 391 delay 300;
#X obj 129 361 t b b b;
#X obj 78 361 t b b b;
#X obj 78 414 spigot;
#X obj 263 298 == 0;
#X obj 78 275 t b b b b;
#X obj 78 302 zexy/operating_system;
#X obj 122 68 select 27;
#X text 293 101 2 8 2011;
#X connect 3 0 52 0;
#X connect 4 0 26 0;
#X connect 5 0 18 0;
#X connect 6 0 23 1;
#X connect 7 0 23 0;
#X connect 7 0 33 0;
#X connect 7 0 70 0;
#X connect 8 0 13 0;
#X connect 9 0 13 0;
#X connect 10 0 13 0;
#X connect 11 0 13 0;
#X connect 12 0 13 0;
#X connect 14 0 68 0;
#X connect 14 1 19 0;
#X connect 15 0 62 0;
#X connect 16 0 17 0;
#X connect 17 0 14 0;
#X connect 18 0 13 0;
#X connect 19 0 20 0;
#X connect 19 1 12 0;
#X connect 20 0 9 0;
#X connect 21 0 13 0;
#X connect 22 0 13 0;
#X connect 22 0 57 0;
#X connect 23 0 29 0;
#X connect 24 0 50 0;
#X connect 24 1 49 0;
#X connect 25 0 28 0;
#X connect 25 1 27 0;
#X connect 26 0 17 0;
#X connect 26 1 16 0;
#X connect 26 3 25 0;
#X connect 27 0 31 0;
#X connect 28 0 31 0;
#X connect 29 2 3 0;
#X connect 29 3 3 0;
#X connect 29 6 4 0;
#X connect 29 7 4 0;
#X connect 29 8 48 0;
#X connect 29 9 48 0;
#X connect 30 0 4 0;
#X connect 33 0 54 0;
#X connect 34 0 3 0;
#X connect 35 0 36 0;
#X connect 36 0 17 0;
#X connect 36 1 37 0;
#X connect 37 0 35 0;
#X connect 37 1 21 0;
#X connect 38 0 65 0;
#X connect 38 1 64 0;
#X connect 38 2 65 0;
#X connect 39 0 33 0;
#X connect 44 0 45 0;
#X connect 45 0 47 0;
#X connect 46 0 17 0;
#X connect 46 1 44 0;
#X connect 47 0 13 0;
#X connect 48 0 46 0;
#X connect 49 0 39 0;
#X connect 49 0 51 0;
#X connect 50 0 49 1;
#X connect 51 0 3 0;
#X connect 51 1 3 0;
#X connect 51 2 4 0;
#X connect 51 3 4 0;
#X connect 51 4 48 0;
#X connect 51 5 48 0;
#X connect 52 0 17 0;
#X connect 52 1 15 0;
#X connect 52 1 67 0;
#X connect 52 2 53 0;
#X connect 53 0 6 0;
#X connect 54 0 34 0;
#X connect 54 1 55 0;
#X connect 55 0 48 0;
#X connect 55 0 45 0;
#X connect 60 0 8 0;
#X connect 60 0 61 0;
#X connect 61 0 22 0;
#X connect 62 0 11 0;
#X connect 63 0 60 0;
#X connect 63 0 21 0;
#X connect 64 0 63 0;
#X connect 64 1 45 0;
#X connect 64 2 62 0;
#X connect 65 0 60 0;
#X connect 65 1 62 0;
#X connect 65 2 66 0;
#X connect 66 0 21 0;
#X connect 67 0 66 1;
#X connect 68 0 69 0;
#X connect 68 1 10 0;
#X connect 68 2 9 0;
#X connect 68 3 12 0;
#X connect 69 0 38 0;
#X connect 70 0 54 0;
#X coords 0 -1 1 1 185 71 1 100 100;
#X restore -15 7 pd ARGO;
#N canvas 313 46 630 459 ARGO 0;
#X obj 101 101 cnv 10 298 76 \$0-A \$0-B empty 20 12 0 14 -228856 -1
1.04858e+06;
#X obj 101 173 cnv 4 10 4 empty empty empty 20 12 0 14 -128992 -66577
0;
#X obj 322 104 cnv 10 20 10 empty ColorGEM GEM-Film2 1 5 1 14 -228856
-1 1.04858e+06;
#X obj 124 101 nbx 3 12 1 100 0 1 \$0-A \$0-B Render 33 7 1 9 -262144
-1 -1 50 256;
#X obj 187 278 gemhead;
#X msg 210 244 set \$1;
#X obj 107 400 outlet;
#X obj 24 -16 loadbang;
#X obj 30 34 delay 1000;
#X msg 205 70 set \$1;
#X msg 115 328 open \$1;
#X obj 115 303 list2symbol;
#X obj 178 46 t b s;
#X msg 18 147 set \$1;
#X obj 36 243 list2symbol;
#X obj 295 158 cnv 10 8 8 empty empty I 0 8 1 18 -228856 -1 0;
#X obj 193 366 pix_film;
#N canvas 642 214 424 256 Frame 0;
#X obj 286 18 inlet;
#X obj 18 222 outlet;
#X msg 286 193 range 0 \$1;
#X msg 208 191 set \$1;
#X obj 100 68 +~;
#X obj 208 100 snapshot~;
#X obj 208 144 change;
#X obj 18 112 snapshot~;
#X obj 18 183 change;
#X obj 19 69 metro 40;
#X obj 208 122 int;
#X obj 18 134 int;
#X obj 18 159 clip 0 10;
#X obj 74 40 *~ 10;
#X obj 74 15 inlet~;
#X obj 208 222 outlet;
#X obj 117 15 inlet;
#X obj 286 136 max 1;
#X text 326 135 Bug si 0 frame;
#X msg 146 190 label \$1;
#X obj 146 168 tosymbol;
#X obj 155 16 loadbang;
#X obj 156 56 metro 200;
#X obj 211 17 r SendFluid;
#X obj 146 141 int;
#X obj 285 222 outlet;
#X connect 0 0 12 2;
#X connect 0 0 17 0;
#X connect 2 0 15 0;
#X connect 2 0 25 0;
#X connect 3 0 15 0;
#X connect 4 0 5 0;
#X connect 4 0 7 0;
#X connect 5 0 10 0;
#X connect 6 0 3 0;
#X connect 7 0 11 0;
#X connect 8 0 1 0;
#X connect 9 0 7 0;
#X connect 10 0 6 0;
#X connect 11 0 12 0;
#X connect 12 0 8 0;
#X connect 13 0 4 0;
#X connect 14 0 13 0;
#X connect 16 0 4 1;
#X connect 16 0 24 0;
#X connect 17 0 2 0;
#X connect 19 0 15 0;
#X connect 20 0 19 0;
#X connect 21 0 22 0;
#X connect 21 0 9 0;
#X connect 22 0 5 0;
#X connect 23 0 22 1;
#X connect 24 0 20 0;
#X restore 238 341 pd Frame;
#X text 92 82 Frame;
#X obj 85 -16 inlet~;
#X obj 101 101 cnv 4 10 4 empty empty empty 20 12 0 14 -1 -66577 0
;
#X obj 412 137 cnv 15 60 30 empty empty empty 20 12 0 14 -24198 -66577
0;
#N canvas 710 47 414 536 Help 0;
#X text 10 415 - Si le module est sauvé avec 1 nom de fichier \, Ce
fichier sera lu automatiquement a la prochaine ouverture s'il n'a pas
changé d'emplacement.;
#X text 10 -23 - Ouvre des fichiers Film (.mov .avi...);
#X obj 8 103 cnv 15 400 310 empty empty empty 20 12 0 14 -233017 -66577
0;
#X text 17 116 the format [pix_film] is able to decode depends on the
system you are running Gem.;
#X text 15 164 Win32: [pix_film] should be able to decode AVIs (all
installed codecs). If you are lucky and your version of Gem is compiled
with quicktime-support and you have quicktime installed on your machine
\, you might be able to play back quicktime MOVs.;
#X text 13 230 linux: that's a bit tricky. Since there is no "native"
video-format for linux it heavily depends on what you have installed
on your machine and how Gem has been compiled. If your system supports
it \, [pix_film] is able to use quicktime4linux/libquicktime to decode
quicktime-MOVs \, libmpeg1/libmpeg3 to decode MPEG2-videos and libaviplay
which opens a wide range of supported formats (with the possibility
to install additional codec-plugins) \, from AVI via MPEG2 to DivX
\, although i have found MPEG support rather unstable. libaviplay does
not support quicktime decoding. There is also some ruddy ffmpeg support
(apart from the one supplied by libaviplay).;
#X text 13 385 although one wouldn't believe it \, but i have found
that iunder linux i could play most formats...;
#X text 16 144 macOS-X: [pix_film] should be able to decode quicktime
MOVs.;
#X text 11 102 Citation;
#X text 10 456 - Peut Ouvrir automatiquement 1 fichier qui se trouve
dans le même dossier que lui \, quelquesoit l'emplacement du dossier.
Pour cela taper le nom du fichier (sans chemin d'accés) dans le message.
Sauver le patch. Fermer le patch. Ré-ouvrir le patch. Le dossier contenant
le module ARGO et le fichier image est ainsi transportable.;
#X text 6 -40 GEM-Film2;
#X text 28 18 YUV = Luma \, ChromaB \, ChromaR;
#X text 10 -6 - RGBA = Red \, Green \, Blue \, Alpha;
#X text 57 57 Prefer RGBA under Windows;
#X text 63 33 Prefer YUV under MacOS;
#X text 33 69 Grey don't work under MacOS;
#X text 39 81 RGB don't work under MacOS;
#X text 28 6 RGB = Red \, Green \, Blue;
#X text 75 45 Prefer ? under Linux;
#X obj 8 540 cnv 15 400 380 empty empty empty 20 12 0 14 -258113 -66577
0;
#X text 55 587 Se produit avec certaines cartes video \, de certains
PC \, sous Windows...;
#X text 55 612 Inconvenient: Charge CPU => la texture est calculée
(objet pix_texture) par le processeur de l'ordinateur et pas par la
carte video);
#X text 29 552 GL: énumérant non valide (répété);
#X text 12 540 - Erreur dans la fenêtre Pd:;
#X text 28 564 OpenGL: invalid enumerant (repeated);
#X text 28 653 GL: invalid value (répété repeated);
#X text 29 677 Se produit avec certaines cartes video \, sous MacOSX...
;
#X text 55 576 Solution: cocher Compatible dans ARGOGeneral;
#X text 28 665 Solution: décocher Compatible dans ARGOGeneral;
#X text 34 718 Solution -> Changer le format du fichier (en .mp4 par
ex);
#X text 35 705 Le nombre "Frames" ne s'affiche pas (0 sous MacOSX).
;
#X text 14 692 - Problème fichier video-stream (par ex mpeg2 .m2v):
;
#X text 48 751 Si un fichier .mov ne s'ouvre pas et dans la fenetre
Pd:;
#X text 49 765 error: filmQT: Could not initialize quicktime: error
-2093;
#X text 48 774 ...;
#X text 48 788 error: filmQT: object not correctly initialized;
#X text 48 802 QuickTime failed ...[pix_filmNEW]: ...;
#X text 32 818 SOLUTION: Installer Apple QuickTime;
#X text 15 738 - Probleme sous Windows;
#X text 24 899 ...;
#X text 48 846 colorspace Grey ne fonctionne pas;
#X text 13 833 - Problemes sous MacOS;
#X text 48 859 colorspace RGB ne fonctionne pas;
#X restore 419 143 pd Help;
#X obj -68 -16 r \$0-SendOnOff;
#X obj -53 125 delay 1000;
#X obj 258 -33 cnv 15 250 110 empty empty empty 20 12 0 14 -258113
-66577 0;
#X text 261 -29 Sous Pd-0.40.3-extended;
#X text 272 -16 - Si le fichier a une piste Audio;
#X obj 112 101 tgl 12 1 \$0-A \$0-B empty 15 7 1 9 -262144 -1 -1 1
1;
#X msg -111 62 0;
#X text 41 98 On/Off ->;
#X obj -68 7 select 0 1;
#X msg -78 62 set 0;
#X msg 132 278 set \$1;
#X obj 182 244 int;
#X obj 197 166 hsl 201 12 0 460 0 1 \$0-SendFrame \$0-ReceiveFrame
empty 0 7 1 9 -262144 -1 -1 10000 0;
#X obj -40 188 cnv 15 400 50 empty empty empty 20 12 0 14 -260097 -66577
0;
#X text -38 187 Nom du fichier / File name;
#X obj -40 34 delay 1000;
#X obj -109 34 delay 1000;
#X obj 30 59 t b b;
#X obj 197 166 hsl 201 12 0 460 0 0 \$0-SendFrame \$0-ReceiveFrame
230 0 8 1 12 -262144 -1 -1 8913 0;
#X obj 178 21 openpanel;
#X obj 178 -2 bang;
#X obj 127 157 cnv 10 20 10 empty empty YUV 0 4 1 9 -228856 -1 0;
#X msg -49 344 colorspace RGBA;
#X obj -49 244 change;
#X obj -2 366 t b a;
#X obj 127 169 cnv 8 8 8 empty empty Grey 0 4 1 9 -228856 -1 0;
#X obj 127 145 cnv 8 8 8 empty empty RGB 0 4 1 9 -228856 -1 0;
#X obj -49 264 select 0 1 2 3;
#X msg 10 285 colorspace Grey;
#X msg -9 304 colorspace YUV;
#X msg -29 324 colorspace RGB;
#X text 303 -4 On l'entend sous Windows;
#X text 303 8 On l'entend sous MacOSX.3;
#X text 303 20 On ne l'entend pas sous MacOSX.4;
#X text 303 32 On ne l'entend pas sous MacOSX.5;
#X obj 103 115 hradio 14 1 0 20 empty empty 320x240-460Frames 85 24
1 11 -262144 -1 -1 0;
#N canvas 216 382 418 247 info-label 0;
#X obj 14 10 inlet;
#X obj 16 211 outlet;
#X text 19 226 label;
#X msg 15 187 label \$1;
#X obj 15 165 tosymbol;
#X text 154 139 <- ATTENTION jamais d'espace dans un label;
#X obj 14 37 unpack 0 0 0;
#X obj 14 65 change;
#X obj 59 65 change;
#X obj 105 65 change;
#X obj 105 90 t b f;
#X obj 16 92 t b f;
#X obj 14 139 sprintf %dx%d-%dFrames;
#X obj 91 212 outlet;
#X text 88 228 Nb Frames;
#X connect 0 0 6 0;
#X connect 3 0 1 0;
#X connect 4 0 3 0;
#X connect 6 0 7 0;
#X connect 6 0 13 0;
#X connect 6 1 8 0;
#X connect 6 2 9 0;
#X connect 7 0 11 0;
#X connect 8 0 12 0;
#X connect 9 0 10 0;
#X connect 10 0 12 0;
#X connect 10 1 12 1;
#X connect 11 0 12 0;
#X connect 11 1 12 2;
#X connect 12 0 4 0;
#X restore 215 389 pd info-label;
#X symbolatom 100 114 49 0 0 0 - - -;
#X text 350 82 10 1 2011;
#X obj 464 380 cnv 15 41 30 empty empty empty 20 12 0 14 -24198 -66577
0;
#N canvas 350 196 308 136 ?? 0;
#X obj -9 87 cnv 15 300 38 empty empty empty 20 12 0 14 -224896 -66577
0;
#X obj -9 10 cnv 18 300 70 empty empty ARGOPdMiniModules 1 10 1 14
-4033 -1 1.04858e+06;
#X obj 9 29 cnv 10 10 10 empty empty Gerard 0 5 1 9 -4033 -1 1.04858e+06
;
#X obj 40 29 cnv 10 10 10 empty empty Paresys 0 5 1 9 -4033 -1 1.04858e+06
;
#X text -8 89 Construit sous / Build under Pd 0.42.5-extended;
#X obj 39 105 pddplink http://puredata.info/downloads;
#X obj 3 42 pddplink http://pagesperso-orange.fr/Paresys/ARGOPd/;
#X obj 3 57 pddplink http://gerard.paresys.free.fr/ARGOPd/;
#X restore 468 387 pd ??;
#X obj 112 130 vradio 12 1 1 4 \$0-A ColorGEM RGBA 15 7 1 9 -262144
-1 -1 0;
#X msg -36 207 Grenoble-0433-320x240-30.mov;
#X connect 3 0 5 0;
#X connect 4 0 16 0;
#X connect 5 0 4 0;
#X connect 7 0 8 0;
#X connect 7 0 65 0;
#X connect 8 0 40 0;
#X connect 9 0 60 0;
#X connect 10 0 16 0;
#X connect 11 0 10 0;
#X connect 12 0 60 0;
#X connect 12 1 9 0;
#X connect 13 0 65 0;
#X connect 14 0 9 0;
#X connect 16 0 6 0;
#X connect 16 1 59 0;
#X connect 17 0 16 1;
#X connect 17 1 41 0;
#X connect 17 2 35 0;
#X connect 19 0 17 0;
#X connect 23 0 31 0;
#X connect 24 0 46 0;
#X connect 28 0 34 0;
#X connect 29 0 4 0;
#X connect 31 0 39 0;
#X connect 31 1 38 0;
#X connect 32 0 28 0;
#X connect 33 0 28 0;
#X connect 34 0 33 0;
#X connect 34 0 4 0;
#X connect 35 0 17 1;
#X connect 38 0 34 0;
#X connect 38 0 65 0;
#X connect 39 0 29 0;
#X connect 39 0 32 0;
#X connect 40 0 24 0;
#X connect 40 1 60 0;
#X connect 42 0 12 0;
#X connect 43 0 42 0;
#X connect 45 0 47 0;
#X connect 46 0 50 0;
#X connect 47 0 60 0;
#X connect 47 1 16 0;
#X connect 50 0 45 0;
#X connect 50 1 53 0;
#X connect 50 2 52 0;
#X connect 50 3 51 0;
#X connect 51 0 47 0;
#X connect 52 0 47 0;
#X connect 53 0 47 0;
#X connect 58 0 43 0;
#X connect 59 0 58 0;
#X connect 59 1 17 2;
#X connect 60 0 11 0;
#X connect 60 0 13 0;
#X connect 64 0 46 0;
#X connect 65 0 14 0;
#X coords 0 -1 1 1 300 78 1 100 100;
#X restore -75 178 pd ARGO;
#N canvas 324 59 331 313 ARGO 0;
#X obj 101 101 cnv 20 104 34 empty ColorAmpli empty 20 12 0 14 -261299
-1 1.04858e+06;
#X obj 85 285 outlet~;
#X obj 134 104 cnv 10 20 10 empty ColorAmpli Ampli 1 5 1 14 -261299
-1 1.04858e+06;
#X obj 85 72 inlet~;
#X obj 85 260 *~;
#X obj 103 118 hsl 101 12 -80 20 0 1 \$0-A ColorAmpli 15dB 0 7 1 9
-261299 -1 -1 9500 0;
#X msg -24 161 label \$1;
#X obj -25 138 tosymbol;
#X obj -25 103 sprintf %ddB;
#X obj 101 101 cnv 4 10 4 empty empty empty 20 12 0 14 -1 -66577 0
;
#X obj 101 131 cnv 4 10 4 empty empty empty 20 12 0 14 -1 -66577 0
;
#X text -16 120 -> -80dB..20dB;
#X text 106 182 -> 0.0001..10 = -80dB..20dB;
#X text 209 97 5 5 2011;
#X obj 100 163 expr (pow(10 \, $f1 / 20));
#X text 107 140 -> -80..20;
#X obj 227 270 cnv 15 41 30 empty empty empty 20 12 0 14 -24198 -66577
0;
#N canvas 350 196 308 136 ?? 0;
#X obj -9 87 cnv 15 300 38 empty empty empty 20 12 0 14 -224896 -66577
0;
#X obj -9 10 cnv 18 300 70 empty empty ARGOPdMiniModules 1 10 1 14
-4033 -1 1.04858e+06;
#X obj 9 29 cnv 10 10 10 empty empty Gerard 0 5 1 9 -4033 -1 1.04858e+06
;
#X obj 40 29 cnv 10 10 10 empty empty Paresys 0 5 1 9 -4033 -1 1.04858e+06
;
#X text -8 89 Construit sous / Build under Pd 0.42.5-extended;
#X obj 39 105 pddplink http://puredata.info/downloads;
#X obj 3 42 pddplink http://pagesperso-orange.fr/Paresys/ARGOPd/;
#X obj 3 57 pddplink http://gerard.paresys.free.fr/ARGOPd/;
#X restore 231 277 pd ??;
#X obj 100 206 sel 0.0001;
#X msg 100 234 0;
#X connect 3 0 4 0;
#X connect 4 0 1 0;
#X connect 5 0 8 0;
#X connect 5 0 14 0;
#X connect 6 0 5 0;
#X connect 7 0 6 0;
#X connect 8 0 7 0;
#X connect 14 0 18 0;
#X connect 18 0 19 0;
#X connect 18 1 4 1;
#X connect 19 0 4 1;
#X connect 19 0 7 0;
#X coords 0 -1 1 1 106 36 1 100 100;
#X restore -74 132 pd ARGO;
#N canvas 355 45 482 287 ARGO 0;
#X obj 101 101 cnv 20 244 34 empty ColorTime Oscill-SinusCosinus 118
8 1 14 -208064 -1 1.04858e+06;
#X obj 85 262 outlet~;
#X obj 100 106 nbx 7 12 0 20000 0 1 \$0-A ColorTime Hz 60 7 1 9 -208064
-1 -1 0.2 256;
#X obj 81 26 inlet~;
#X obj 101 131 cnv 4 10 4 empty empty empty 20 12 0 14 -1 -66577 0
;
#X obj 101 101 cnv 4 10 4 empty empty empty 20 12 0 14 -1728 -66577
0;
#X obj 103 118 hsl 241 12 0 1 0 0 \$0-A ColorTime empty 0 7 1 9 -262144
-1 -1 4376 0;
#X obj 103 118 hsl 241 12 0 1 0 0 \$0-A ColorTime Ab-8 0 7 1 9 -208064
-1728 -1 4376 0;
#X text 352 123 2 HSLIDER superposés;
#X text 351 112 ATTENTION;
#X obj 197 52 cnv 15 60 30 empty empty empty 20 12 0 14 -24198 -66577
0;
#N canvas 411 68 425 238 Help 0;
#X obj 8 85 cnv 15 400 100 empty empty empty 20 12 0 14 -233017 -66577
0;
#X text 12 87 Citation;
#X text 10 45 Sensibilitée de l'entrée de contrôle de la fréquence:
;
#X text 10 57 1 = 240 1/2 ton = 20 octaves;
#X text 24 107 The cos~ object outputs the cosine of two pi times its
signal input. So -1 \, 0 \, 1 and 2 give 1 out \, 0.5 gives -1 \, and
so on.;
#X text 11 19 Oscillateur sinusoïdal à 4 sorties déphasées de 90deg
;
#X restore 204 58 pd Help;
#N canvas 86 284 344 337 Freq-v8-sig- 0;
#X obj 226 11 ftom;
#X obj 279 170 mtof;
#X obj 141 95 +~;
#X obj 9 142 snapshot~;
#X obj 9 164 change;
#X msg 9 189 set \$1;
#X obj 142 198 clip~ 0 20000;
#X obj 142 175 mtof~;
#X obj 142 227 outlet~;
#X obj 280 -12 inlet;
#X obj 225 -13 inlet;
#X obj 38 227 outlet;
#X obj 279 227 outlet;
#X text 35 245 Hslider;
#X obj 141 -8 inlet~;
#X obj 8 -9 loadbang;
#X obj 229 227 outlet;
#X obj 279 109 * 240;
#X obj 279 132 - 108;
#X obj 141 123 *~ 240;
#X obj 141 145 -~ 108;
#X obj 226 34 + 108;
#X obj 226 56 / 240;
#X obj 9 40 metro 200;
#X obj 64 -9 r SendFluid;
#X text 44 256 Over;
#X text 281 245 Number;
#X text 222 -30 Number;
#X text 228 244 Hslider;
#X text 230 255 Under;
#X text 281 -42 Hslider;
#X text 286 -31 Under;
#X msg 229 197 set \$1;
#N canvas 220 243 583 317 pitchb-11-2010 0;
#X obj 70 111 mod 12;
#X obj 70 135 sel 0 1 2 3 4 5 6 7 8 9 10 11;
#X msg 246 170 A;
#X msg 300 170 B;
#X msg 192 170 G;
#X msg 3 170 C;
#X msg 57 170 D;
#X msg 111 170 E;
#X msg 138 170 F;
#X obj 204 1 inlet;
#X obj 329 115 div 12;
#X obj 204 79 t f f;
#X text 334 190 -> Numero de l'octave;
#X text 213 64 -> Numero MIDI de la note (69 = A3 = 440Hz);
#X msg 260 260 label \$1;
#X obj 260 283 outlet;
#X msg 30 170 Db;
#X msg 84 170 Eb;
#X msg 165 170 Gb;
#X msg 219 170 Ab;
#X msg 273 170 Bb;
#X text 369 78 (70 = A#3 = Bb3);
#X obj 260 238 symbol;
#X obj 260 213 sprintf %s%d;
#X text 11 231 Impossible d'afficher # dans un label;
#X text 11 243 donc j'affiche b;
#X obj 204 51 int;
#X text 255 23 -> pour corriger certaines erreurs de calcul;
#X obj 329 144 - 12;
#X text 255 35 et le pb du passage a zero de mod 12;
#X obj 204 25 + 120.5;
#X connect 0 0 1 0;
#X connect 1 0 5 0;
#X connect 1 1 16 0;
#X connect 1 2 6 0;
#X connect 1 3 17 0;
#X connect 1 4 7 0;
#X connect 1 5 8 0;
#X connect 1 6 18 0;
#X connect 1 7 4 0;
#X connect 1 8 19 0;
#X connect 1 9 2 0;
#X connect 1 10 20 0;
#X connect 1 11 3 0;
#X connect 2 0 23 0;
#X connect 3 0 23 0;
#X connect 4 0 23 0;
#X connect 5 0 23 0;
#X connect 6 0 23 0;
#X connect 7 0 23 0;
#X connect 8 0 23 0;
#X connect 9 0 30 0;
#X connect 10 0 28 0;
#X connect 11 0 0 0;
#X connect 11 1 10 0;
#X connect 14 0 15 0;
#X connect 16 0 23 0;
#X connect 17 0 23 0;
#X connect 18 0 23 0;
#X connect 19 0 23 0;
#X connect 20 0 23 0;
#X connect 22 0 14 0;
#X connect 23 0 22 0;
#X connect 26 0 11 0;
#X connect 28 0 23 1;
#X connect 30 0 26 0;
#X restore 85 60 pd pitchb-11-2010;
#X connect 0 0 21 0;
#X connect 0 0 33 0;
#X connect 1 0 12 0;
#X connect 2 0 3 0;
#X connect 2 0 19 0;
#X connect 3 0 4 0;
#X connect 4 0 5 0;
#X connect 5 0 11 0;
#X connect 6 0 8 0;
#X connect 7 0 6 0;
#X connect 9 0 17 0;
#X connect 10 0 0 0;
#X connect 14 0 2 0;
#X connect 15 0 23 0;
#X connect 17 0 18 0;
#X connect 18 0 1 0;
#X connect 19 0 20 0;
#X connect 20 0 7 0;
#X connect 21 0 22 0;
#X connect 22 0 2 1;
#X connect 22 0 32 0;
#X connect 23 0 3 0;
#X connect 24 0 23 1;
#X connect 32 0 16 0;
#X connect 33 0 11 0;
#X restore 56 63 pd Freq-v8-sig-;
#X obj 428 246 cnv 15 41 30 empty empty empty 20 12 0 14 -24198 -66577
0;
#N canvas 652 345 308 136 ?? 0;
#X obj -9 87 cnv 15 300 38 empty empty empty 20 12 0 14 -224896 -66577
0;
#X obj -9 10 cnv 18 300 70 empty empty ARGOPdMiniModules 1 10 1 14
-4033 -1 1.04858e+06;
#X obj 9 29 cnv 10 10 10 empty empty Gerard 0 5 1 9 -4033 -1 1.04858e+06
;
#X obj 40 29 cnv 10 10 10 empty empty Paresys 0 5 1 9 -4033 -1 1.04858e+06
;
#X text -8 89 Construit sous / Build under Pd 0.42.5-extended;
#X obj 39 105 pddplink http://puredata.info/downloads;
#X obj 3 42 pddplink http://pagesperso-orange.fr/Paresys/ARGOPd/;
#X obj 3 57 pddplink http://gerard.paresys.free.fr/ARGOPd/;
#X restore 432 253 pd ??;
#X obj 335 131 cnv 4 10 4 empty empty empty 20 12 0 14 -1 -66577 0
;
#X obj 85 153 phasor~;
#X obj 161 208 cos~;
#X obj 161 185 -~ 0.25;
#X text 219 184 0.25 x 360deg = 90deg;
#X obj 161 262 outlet~;
#X obj 85 205 cos~;
#X obj 179 131 cnv 4 10 4 empty empty empty 20 12 0 14 -1 -66577 0
;
#X obj 261 131 cnv 4 10 4 empty empty empty 20 12 0 14 -1 -66577 0
;
#X obj 248 240 *~ -1;
#X obj 247 263 outlet~;
#X obj 322 239 *~ -1;
#X obj 321 262 outlet~;
#X text 91 135 0deg;
#X text 167 137 90deg;
#X text 250 137 180deg;
#X text 321 138 270deg;
#X text 282 80 19 5 2011;
#X connect 2 0 12 1;
#X connect 3 0 12 0;
#X connect 6 0 12 2;
#X connect 12 0 7 0;
#X connect 12 1 16 0;
#X connect 12 2 6 0;
#X connect 12 3 2 0;
#X connect 16 0 18 0;
#X connect 16 0 21 0;
#X connect 17 0 20 0;
#X connect 17 0 26 0;
#X connect 18 0 17 0;
#X connect 21 0 1 0;
#X connect 21 0 24 0;
#X connect 24 0 25 0;
#X connect 26 0 27 0;
#X coords 0 -1 1 1 246 36 1 100 100;
#X restore -75 86 pd ARGO;
#N canvas 399 181 466 387 ARGO 0;
#X obj 101 101 cnv 10 144 39 empty ColorForm empty 20 12 0 14 -228856
-1 1.04858e+06;
#X obj 101 136 cnv 4 10 4 empty empty empty 20 12 0 14 -128992 -66577
0;
#X obj 82 353 outlet;
#X obj 101 101 cnv 4 10 4 empty empty empty 20 12 0 14 -128992 -66577
0;
#X obj 82 262 pix_texture;
#X msg 99 234 quality \$1;
#X obj -17 140 == 0;
#X obj -17 41 r SendMode;
#X obj -17 120 nbx 1 14 -1e+37 1e+37 0 1 empty empty empty 0 -6 0 10
-262144 -1 -1 0 256;
#X msg 157 261 draw line;
#X msg -63 279 draw fill;
#X obj 235 101 cnv 4 10 4 empty empty empty 20 12 0 14 -1 -66577 0
;
#X obj 225 38 inlet~;
#X obj 82 41 inlet;
#X text 220 72 Control;
#X text 228 84 Size;
#X text 87 142 gemlist;
#X text 85 81 gemlist;
#X obj 83 185 t a b;
#X obj 115 129 hsl 129 12 0 1 0 1 \$0-A \$0-B empty 0 7 1 9 -262144
-1 -1 3700 0;
#X obj 115 129 hsl 129 12 0 1 0 0 \$0-A \$0-B 2.8 0 8 1 12 -228856
-1 -1 3700 0;
#X text 248 138 2 HSLIDER superposés;
#X text 248 127 ATTENTION;
#X obj 134 28 cnv 15 60 30 empty empty empty 20 12 0 14 -24198 -66577
0;
#N canvas 598 22 428 604 Help 0;
#X obj 9 -83 cnv 15 400 450 empty empty empty 20 12 0 14 -233017 -66577
0;
#X text 12 -84 Citation;
#X text 27 -61 The cube object renders a cube at the current position
with current color. The size of the cube can be changed via the second
inlet.;
#X obj 14 424 cnv 15 310 60 empty empty empty 20 12 0 14 -258113 -66577
0;
#X text 18 438 sous MacOSX.4 + Pd-0.41.4-extended;
#X text 20 425 Bug objet cube;
#X text 18 451 draw fill empeche cube de fonctionner correctement;
#X text 17 465 Solution -> draw default;
#X text 61 53 the drawing mode you send to the primitive is not the
openGL drawing mode.;
#X text 54 81 you can have a look at src/base/GemShape.cpp :;
#X text 59 97 void GemShape :: typeMess(t_symbol *type);
#X text 60 136 case 'D': // default m_drawType = GL_DEFAULT_GEM \;
break \; case 'L': // line m_drawType = GL_LINE_LOOP \; break \; case
'F': // fill m_drawType = GL_POLYGON \; break \; case 'Q': // quads
m_drawType = GL_QUADS \; break \; case 'P': // point m_drawType = GL_POINTS
\; break \; case 'T': // triangles m_drawType = GL_TRIANGLES \; break
\; case 'S': // strip m_drawType = GL_TRIANGLE_STRIP \; break \; default:
error ("unknown draw style") \; return \; setModified() \;;
#X text 59 111 char c=toupper(*type->s_name) \; switch (c);
#X text 43 -3 From cyrille.henry at la-kitchen.fr Sun Apr 26 18:58:16
2009;
#X text 43 10 Date: Sun \, 26 Apr 2009 18:58:16 +0200;
#X text 44 25 Subject: [GEM-dev] [ pd-gem-Feature Requests-2612731
] glsl_geometry;
#X text 28 -16 http://lists.puredata.info/pipermail/gem-dev/2009-04.txt
;
#X text 13 388 Utile avec certaines cartes video de certains PC sous
Windows...;
#X text 13 373 SendMode est envoyé par MM GEM (Toggle "Compatible")
;
#X restore 141 34 pd Help;
#X obj 162 104 cnv 10 20 10 empty ColorForm GEM-Cube 1 5 1 14 -228856
-1 1.04858e+06;
#X msg -62 299 draw point;
#X obj 83 330 cube;
#X msg 224 261 draw default;
#X msg -65 214 draw quads;
#X msg -65 236 draw triangles;
#X msg -64 258 draw strips;
#X msg -61 320 draw strip;
#X obj 188 117 nbx 2 12 1 99 0 1 \$0-A ColorGEM empty 0 0 1 9 -262144
-1 -1 1 256;
#X msg 21 263 width \$1;
#X obj 210 117 tgl 12 1 \$0-A ColorGEM Line 15 6 1 9 -262144 -1 -1
0 1;
#X obj 176 234 sel 1;
#X obj 100 118 tgl 12 1 \$0-A ColorGEM Quality 15 6 1 9 -262144 -1
-1 1 1;
#X obj 100 106 tgl 12 1 \$0-A ColorGEM On/Off 15 6 1 9 -262144 -1 -1
1 1;
#X obj 83 159 spigot;
#N canvas 915 300 235 232 GEMSize~ 0;
#X obj 25 43 +~;
#X obj 143 203 outlet;
#X obj 143 10 inlet;
#X obj 25 12 inlet~;
#X msg 143 158 label \$1;
#X obj 143 135 tosymbol;
#X obj 143 68 int;
#X obj 143 44 * 100;
#X obj 143 94 / 10;
#X obj -15 12 inlet;
#X obj 25 77 snapshot~;
#X obj 25 99 change;
#X obj 25 158 clip 0 100;
#X obj 25 135 * 10;
#X obj 25 202 outlet;
#X msg 94 158 set \$1;
#X connect 0 0 10 0;
#X connect 2 0 0 1;
#X connect 2 0 7 0;
#X connect 3 0 0 0;
#X connect 4 0 1 0;
#X connect 5 0 4 0;
#X connect 6 0 8 0;
#X connect 7 0 6 0;
#X connect 8 0 5 0;
#X connect 9 0 10 0;
#X connect 10 0 11 0;
#X connect 11 0 13 0;
#X connect 11 0 15 0;
#X connect 12 0 14 0;
#X connect 13 0 12 0;
#X connect 15 0 1 0;
#X restore 310 261 pd GEMSize~;
#X msg -17 165 rectangle \$1;
#X obj 333 343 cnv 15 48 25 empty empty empty 20 12 0 14 -24198 -66577
0;
#N canvas 350 196 308 136 ??? 0;
#X obj -6 87 cnv 15 300 38 empty empty empty 20 12 0 14 -224896 -66577
0;
#X obj -6 10 cnv 18 300 70 empty empty ARGOPdMiniModules 3 10 1 14
-4033 -1 1.04858e+06;
#X obj 13 31 cnv 10 10 10 empty empty Gerard 0 5 1 11 -4033 -1 1.04858e+06
;
#X obj 55 30 cnv 10 10 10 empty empty Paresys 0 5 1 11 -4033 -1 1.04858e+06
;
#X text -1 89 Construit sous / Build under Pd 0.42.5-extended;
#X obj 6 43 pddp/pddplink http://pagesperso-orange.fr/Paresys/ARGOPd/
;
#X obj 6 58 pddp/pddplink http://gerard.paresys.free.fr/ARGOPd/;
#X obj 46 105 pddp/pddplink http://puredata.info/downloads;
#X restore 337 347 pd ???;
#X text 152 82 2 4 2012;
#X connect 4 0 27 0;
#X connect 5 0 4 0;
#X connect 6 0 41 0;
#X connect 7 0 8 0;
#X connect 8 0 6 0;
#X connect 9 0 27 0;
#X connect 10 0 27 0;
#X connect 12 0 40 1;
#X connect 13 0 39 0;
#X connect 18 0 4 0;
#X connect 18 1 40 0;
#X connect 19 0 40 2;
#X connect 26 0 27 0;
#X connect 27 0 2 0;
#X connect 28 0 27 0;
#X connect 29 0 27 0;
#X connect 30 0 27 0;
#X connect 31 0 27 0;
#X connect 32 0 27 0;
#X connect 33 0 34 0;
#X connect 34 0 27 0;
#X connect 35 0 36 0;
#X connect 36 0 9 0;
#X connect 36 1 28 0;
#X connect 37 0 5 0;
#X connect 38 0 39 1;
#X connect 39 0 18 0;
#X connect 40 0 27 1;
#X connect 40 1 20 0;
#X connect 41 0 4 0;
#X coords 0 -1 1 1 146 41 1 100 100;
#X restore 93 374 pd ARGO;
#X obj 284 388 cnv 15 48 25 empty empty empty 20 12 0 14 -24198 -66577
0;
#N canvas 350 196 308 136 ??? 0;
#X obj -6 87 cnv 15 300 38 empty empty empty 20 12 0 14 -224896 -66577
0;
#X obj -6 10 cnv 18 300 70 empty empty ARGOPdMiniModules 3 10 1 14
-4033 -1 1.04858e+06;
#X obj 13 31 cnv 10 10 10 empty empty Gerard 0 5 1 11 -4033 -1 1.04858e+06
;
#X obj 55 30 cnv 10 10 10 empty empty Paresys 0 5 1 11 -4033 -1 1.04858e+06
;
#X text -1 89 Construit sous / Build under Pd 0.42.5-extended;
#X obj 6 43 pddp/pddplink http://pagesperso-orange.fr/Paresys/ARGOPd/
;
#X obj 6 58 pddp/pddplink http://gerard.paresys.free.fr/ARGOPd/;
#X obj 46 105 pddp/pddplink http://puredata.info/downloads;
#X restore 288 392 pd ???;
#X connect 2 0 1 0;
#X connect 7 0 8 0;
#X connect 8 0 18 0;
#X connect 13 0 7 3;
#X connect 15 0 7 0;
#X connect 16 0 15 0;
#X connect 17 0 16 0;
#X connect 17 3 13 0;
