#N canvas 646 22 491 321 10;
#X obj -209 -176 cnv 15 15 15 empty empty ExMM31c-GEMFilm2-ControlFrame.pd
0 8 1 14 -262144 -1 0;
#N canvas 312 168 336 264 ARGO 0;
#X obj 101 101 cnv 10 139 15 empty ColorForm empty 20 12 0 14 -208064
-1 1.04858e+06;
#X obj 101 112 cnv 4 10 4 empty empty empty 20 12 0 14 -1 -66577 0
;
#X obj 100 100 nbx 6 12 0 999999 0 1 \$0-A ColorTime ms 53 7 1 9 -208064
-1 -1 10000 256;
#X obj 85 231 outlet~;
#X obj 115 125 t b f;
#X obj 128 175 /;
#X obj 167 105 cnv 10 65 10 empty ColorTime Oscill 1 5 1 14 -208064
-1 1.04858e+06;
#X obj 203 105 cnv 10 10 10 empty ColorTime Sinus 1 5 1 14 -208064
-1 1.04858e+06;
#X obj 259 140 cnv 15 41 30 empty empty empty 20 12 0 14 -24198 -66577
0;
#N canvas 350 196 381 103 ? 0;
#X obj 5 49 cnv 15 370 38 empty empty empty 20 12 0 14 -224896 -66577
0;
#X text 6 65 Voir/Look at: http://puredata.info/downloads;
#X obj 4 12 cnv 18 370 30 empty empty ARGOPdMiniModules 1 10 1 14 -4033
-1 1.04858e+06;
#X obj 7 31 cnv 10 10 10 empty empty Gerard 0 5 1 9 -4033 -1 1.04858e+06
;
#X obj 38 31 cnv 10 10 10 empty empty Paresys 0 5 1 9 -4033 -1 1.04858e+06
;
#X obj 175 20 cnv 10 10 10 empty empty http://pagesperso-orange.fr/Paresys/ARGOPd/
0 5 1 9 -4033 -1 1.04858e+06;
#X obj 175 31 cnv 10 10 10 empty empty http://gerard.paresys.free.fr/ARGOPd/
0 5 1 9 -4033 -1 1.04858e+06;
#X text 6 51 Construit sous / Build under Pd 0.41.4-extended;
#X restore 265 147 pd ?;
#X obj 257 97 cnv 15 60 30 empty empty empty 20 12 0 14 -24198 -66577
0;
#N canvas 161 113 425 238 Help 0;
#X obj 8 85 cnv 15 400 100 empty empty empty 20 12 0 14 -233017 -66577
0;
#X text 12 87 Citation;
#X text 10 6 Oscillateur sinusoïdal;
#X text 22 106 The osc~ object outputs a cosine wave. If no argument
is supplied \, the input is taken to be an audio signal.;
#X text 12 21 freq(Hz) = 1 / Periode (sec);
#X text 11 39 freq(Hz) = 1000 / Periode (ms);
#X restore 264 103 pd Help;
#X text 178 82 13 12 2009;
#X obj 128 199 osc~ 1000;
#X msg 115 151 1000;
#X connect 2 0 4 0;
#X connect 4 0 14 0;
#X connect 4 1 5 1;
#X connect 5 0 13 0;
#X connect 13 0 3 0;
#X connect 14 0 5 0;
#X coords 0 -1 1 1 141 17 1 100 100;
#X restore -28 -114 pd ARGO;
#N canvas 313 46 630 459 ARGO 0;
#X obj 101 101 cnv 10 298 76 \$0-A \$0-B empty 20 12 0 14 -228856 -1
1.04858e+06;
#X obj 101 173 cnv 4 10 4 empty empty empty 20 12 0 14 -128992 -66577
0;
#X obj 322 104 cnv 10 20 10 empty ColorGEM GEM-Film2 1 5 1 14 -228856
-1 1.04858e+06;
#X obj 124 101 nbx 3 12 1 100 0 1 \$0-A \$0-B Render 33 7 1 9 -262144
-1 -1 50 256;
#X obj 187 278 gemhead;
#X msg 210 244 set \$1;
#X obj 107 400 outlet;
#X obj 24 -16 loadbang;
#X obj 30 34 delay 1000;
#X msg 205 70 set \$1;
#X msg 115 328 open \$1;
#X obj 115 303 list2symbol;
#X obj 178 46 t b s;
#X msg 18 147 set \$1;
#X obj 36 243 list2symbol;
#X obj 295 158 cnv 10 8 8 empty empty I 0 8 1 18 -228856 -1 0;
#X obj 193 366 pix_film;
#N canvas 642 214 424 256 Frame 0;
#X obj 286 18 inlet;
#X obj 18 222 outlet;
#X msg 286 193 range 0 \$1;
#X msg 208 191 set \$1;
#X obj 100 68 +~;
#X obj 208 100 snapshot~;
#X obj 208 144 change;
#X obj 18 112 snapshot~;
#X obj 18 183 change;
#X obj 19 69 metro 40;
#X obj 208 122 int;
#X obj 18 134 int;
#X obj 18 159 clip 0 10;
#X obj 74 40 *~ 10;
#X obj 74 15 inlet~;
#X obj 208 222 outlet;
#X obj 117 15 inlet;
#X obj 286 136 max 1;
#X text 326 135 Bug si 0 frame;
#X msg 146 190 label \$1;
#X obj 146 168 tosymbol;
#X obj 155 16 loadbang;
#X obj 156 56 metro 200;
#X obj 211 17 r SendFluid;
#X obj 146 141 int;
#X obj 285 222 outlet;
#X connect 0 0 12 2;
#X connect 0 0 17 0;
#X connect 2 0 15 0;
#X connect 2 0 25 0;
#X connect 3 0 15 0;
#X connect 4 0 5 0;
#X connect 4 0 7 0;
#X connect 5 0 10 0;
#X connect 6 0 3 0;
#X connect 7 0 11 0;
#X connect 8 0 1 0;
#X connect 9 0 7 0;
#X connect 10 0 6 0;
#X connect 11 0 12 0;
#X connect 12 0 8 0;
#X connect 13 0 4 0;
#X connect 14 0 13 0;
#X connect 16 0 4 1;
#X connect 16 0 24 0;
#X connect 17 0 2 0;
#X connect 19 0 15 0;
#X connect 20 0 19 0;
#X connect 21 0 22 0;
#X connect 21 0 9 0;
#X connect 22 0 5 0;
#X connect 23 0 22 1;
#X connect 24 0 20 0;
#X restore 238 341 pd Frame;
#X text 92 82 Frame;
#X obj 85 -16 inlet~;
#X obj 101 101 cnv 4 10 4 empty empty empty 20 12 0 14 -1 -66577 0
;
#X obj 412 137 cnv 15 60 30 empty empty empty 20 12 0 14 -24198 -66577
0;
#N canvas 710 47 414 536 Help 0;
#X text 10 415 - Si le module est sauvé avec 1 nom de fichier \, Ce
fichier sera lu automatiquement a la prochaine ouverture s'il n'a pas
changé d'emplacement.;
#X text 10 -23 - Ouvre des fichiers Film (.mov .avi...);
#X obj 8 103 cnv 15 400 310 empty empty empty 20 12 0 14 -233017 -66577
0;
#X text 17 116 the format [pix_film] is able to decode depends on the
system you are running Gem.;
#X text 15 164 Win32: [pix_film] should be able to decode AVIs (all
installed codecs). If you are lucky and your version of Gem is compiled
with quicktime-support and you have quicktime installed on your machine
\, you might be able to play back quicktime MOVs.;
#X text 13 230 linux: that's a bit tricky. Since there is no "native"
video-format for linux it heavily depends on what you have installed
on your machine and how Gem has been compiled. If your system supports
it \, [pix_film] is able to use quicktime4linux/libquicktime to decode
quicktime-MOVs \, libmpeg1/libmpeg3 to decode MPEG2-videos and libaviplay
which opens a wide range of supported formats (with the possibility
to install additional codec-plugins) \, from AVI via MPEG2 to DivX
\, although i have found MPEG support rather unstable. libaviplay does
not support quicktime decoding. There is also some ruddy ffmpeg support
(apart from the one supplied by libaviplay).;
#X text 13 385 although one wouldn't believe it \, but i have found
that iunder linux i could play most formats...;
#X text 16 144 macOS-X: [pix_film] should be able to decode quicktime
MOVs.;
#X text 11 102 Citation;
#X text 10 456 - Peut Ouvrir automatiquement 1 fichier qui se trouve
dans le même dossier que lui \, quelquesoit l'emplacement du dossier.
Pour cela taper le nom du fichier (sans chemin d'accés) dans le message.
Sauver le patch. Fermer le patch. Ré-ouvrir le patch. Le dossier contenant
le module ARGO et le fichier image est ainsi transportable.;
#X text 6 -40 GEM-Film2;
#X text 28 18 YUV = Luma \, ChromaB \, ChromaR;
#X text 10 -6 - RGBA = Red \, Green \, Blue \, Alpha;
#X text 57 57 Prefer RGBA under Windows;
#X text 63 33 Prefer YUV under MacOS;
#X text 33 69 Grey don't work under MacOS;
#X text 39 81 RGB don't work under MacOS;
#X text 28 6 RGB = Red \, Green \, Blue;
#X text 75 45 Prefer ? under Linux;
#X obj 8 540 cnv 15 400 380 empty empty empty 20 12 0 14 -258113 -66577
0;
#X text 55 587 Se produit avec certaines cartes video \, de certains
PC \, sous Windows...;
#X text 55 612 Inconvenient: Charge CPU => la texture est calculée
(objet pix_texture) par le processeur de l'ordinateur et pas par la
carte video);
#X text 29 552 GL: énumérant non valide (répété);
#X text 12 540 - Erreur dans la fenêtre Pd:;
#X text 28 564 OpenGL: invalid enumerant (repeated);
#X text 28 653 GL: invalid value (répété repeated);
#X text 29 677 Se produit avec certaines cartes video \, sous MacOSX...
;
#X text 55 576 Solution: cocher Compatible dans ARGOGeneral;
#X text 28 665 Solution: décocher Compatible dans ARGOGeneral;
#X text 34 718 Solution -> Changer le format du fichier (en .mp4 par
ex);
#X text 35 705 Le nombre "Frames" ne s'affiche pas (0 sous MacOSX).
;
#X text 14 692 - Problème fichier video-stream (par ex mpeg2 .m2v):
;
#X text 48 751 Si un fichier .mov ne s'ouvre pas et dans la fenetre
Pd:;
#X text 49 765 error: filmQT: Could not initialize quicktime: error
-2093;
#X text 48 774 ...;
#X text 48 788 error: filmQT: object not correctly initialized;
#X text 48 802 QuickTime failed ...[pix_filmNEW]: ...;
#X text 32 818 SOLUTION: Installer Apple QuickTime;
#X text 15 738 - Probleme sous Windows;
#X text 24 899 ...;
#X text 48 846 colorspace Grey ne fonctionne pas;
#X text 13 833 - Problemes sous MacOS;
#X text 48 859 colorspace RGB ne fonctionne pas;
#X restore 419 143 pd Help;
#X obj -68 -16 r \$0-SendOnOff;
#X obj -53 125 delay 1000;
#X obj 258 -33 cnv 15 250 110 empty empty empty 20 12 0 14 -258113
-66577 0;
#X text 261 -29 Sous Pd-0.40.3-extended;
#X text 272 -16 - Si le fichier a une piste Audio;
#X obj 112 101 tgl 12 1 \$0-A \$0-B empty 15 7 1 9 -262144 -1 -1 1
1;
#X msg -111 62 0;
#X text 41 98 On/Off ->;
#X obj -68 7 select 0 1;
#X msg -78 62 set 0;
#X msg 132 278 set \$1;
#X obj 182 244 int;
#X obj 197 166 hsl 201 12 0 461 0 1 \$0-SendFrame \$0-ReceiveFrame
empty 0 7 1 9 -262144 -1 -1 10000 0;
#X obj -40 188 cnv 15 400 50 empty empty empty 20 12 0 14 -260097 -66577
0;
#X text -38 187 Nom du fichier / File name;
#X obj -40 34 delay 1000;
#X obj -109 34 delay 1000;
#X obj 30 59 t b b;
#X obj 197 166 hsl 201 12 0 461 0 0 \$0-SendFrame \$0-ReceiveFrame
230 0 8 1 12 -262144 -1 -1 8286 0;
#X obj 178 21 openpanel;
#X obj 178 -2 bang;
#X obj 127 157 cnv 10 20 10 empty empty YUV 0 4 1 9 -228856 -1 0;
#X msg -49 344 colorspace RGBA;
#X obj -49 244 change;
#X obj -2 366 t b a;
#X obj 127 169 cnv 8 8 8 empty empty Grey 0 4 1 9 -228856 -1 0;
#X obj 127 145 cnv 8 8 8 empty empty RGB 0 4 1 9 -228856 -1 0;
#X obj -49 264 select 0 1 2 3;
#X msg 10 285 colorspace Grey;
#X msg -9 304 colorspace YUV;
#X msg -29 324 colorspace RGB;
#X text 303 -4 On l'entend sous Windows;
#X text 303 8 On l'entend sous MacOSX.3;
#X text 303 20 On ne l'entend pas sous MacOSX.4;
#X text 303 32 On ne l'entend pas sous MacOSX.5;
#X obj 103 115 hradio 14 1 0 20 empty empty 320x240-461Frames 85 24
1 11 -262144 -1 -1 0;
#N canvas 216 382 418 247 info-label 0;
#X obj 14 10 inlet;
#X obj 16 211 outlet;
#X text 19 226 label;
#X msg 15 187 label \$1;
#X obj 15 165 tosymbol;
#X text 154 139 <- ATTENTION jamais d'espace dans un label;
#X obj 14 37 unpack 0 0 0;
#X obj 14 65 change;
#X obj 59 65 change;
#X obj 105 65 change;
#X obj 105 90 t b f;
#X obj 16 92 t b f;
#X obj 14 139 sprintf %dx%d-%dFrames;
#X obj 91 212 outlet;
#X text 88 228 Nb Frames;
#X connect 0 0 6 0;
#X connect 3 0 1 0;
#X connect 4 0 3 0;
#X connect 6 0 7 0;
#X connect 6 0 13 0;
#X connect 6 1 8 0;
#X connect 6 2 9 0;
#X connect 7 0 11 0;
#X connect 8 0 12 0;
#X connect 9 0 10 0;
#X connect 10 0 12 0;
#X connect 10 1 12 1;
#X connect 11 0 12 0;
#X connect 11 1 12 2;
#X connect 12 0 4 0;
#X restore 215 389 pd info-label;
#X symbolatom 100 114 49 0 0 0 - - -;
#X text 350 82 10 1 2011;
#X obj 464 380 cnv 15 41 30 empty empty empty 20 12 0 14 -24198 -66577
0;
#N canvas 350 196 308 136 ?? 0;
#X obj -9 87 cnv 15 300 38 empty empty empty 20 12 0 14 -224896 -66577
0;
#X obj -9 10 cnv 18 300 70 empty empty ARGOPdMiniModules 1 10 1 14
-4033 -1 1.04858e+06;
#X obj 9 29 cnv 10 10 10 empty empty Gerard 0 5 1 9 -4033 -1 1.04858e+06
;
#X obj 40 29 cnv 10 10 10 empty empty Paresys 0 5 1 9 -4033 -1 1.04858e+06
;
#X text -8 89 Construit sous / Build under Pd 0.42.5-extended;
#X obj 39 105 pddplink http://puredata.info/downloads;
#X obj 3 42 pddplink http://pagesperso-orange.fr/Paresys/ARGOPd/;
#X obj 3 57 pddplink http://gerard.paresys.free.fr/ARGOPd/;
#X restore 468 387 pd ??;
#X obj 112 130 vradio 12 1 1 4 \$0-A ColorGEM RGBA 15 7 1 9 -262144
-1 -1 0;
#X msg -36 207 Grenoble-0433-320x240-30.mov;
#X connect 3 0 5 0;
#X connect 4 0 16 0;
#X connect 5 0 4 0;
#X connect 7 0 8 0;
#X connect 7 0 65 0;
#X connect 8 0 40 0;
#X connect 9 0 60 0;
#X connect 10 0 16 0;
#X connect 11 0 10 0;
#X connect 12 0 60 0;
#X connect 12 1 9 0;
#X connect 13 0 65 0;
#X connect 14 0 9 0;
#X connect 16 0 6 0;
#X connect 16 1 59 0;
#X connect 17 0 16 1;
#X connect 17 1 41 0;
#X connect 17 2 35 0;
#X connect 19 0 17 0;
#X connect 23 0 31 0;
#X connect 24 0 46 0;
#X connect 28 0 34 0;
#X connect 29 0 4 0;
#X connect 31 0 39 0;
#X connect 31 1 38 0;
#X connect 32 0 28 0;
#X connect 33 0 28 0;
#X connect 34 0 33 0;
#X connect 34 0 4 0;
#X connect 35 0 17 1;
#X connect 38 0 34 0;
#X connect 38 0 65 0;
#X connect 39 0 29 0;
#X connect 39 0 32 0;
#X connect 40 0 24 0;
#X connect 40 1 60 0;
#X connect 42 0 12 0;
#X connect 43 0 42 0;
#X connect 45 0 47 0;
#X connect 46 0 50 0;
#X connect 47 0 60 0;
#X connect 47 1 16 0;
#X connect 50 0 45 0;
#X connect 50 1 53 0;
#X connect 50 2 52 0;
#X connect 50 3 51 0;
#X connect 51 0 47 0;
#X connect 52 0 47 0;
#X connect 53 0 47 0;
#X connect 58 0 43 0;
#X connect 59 0 58 0;
#X connect 59 1 17 2;
#X connect 60 0 11 0;
#X connect 60 0 13 0;
#X connect 64 0 46 0;
#X connect 65 0 14 0;
#X coords 0 -1 1 1 300 78 1 100 100;
#X restore -28 -50 pd ARGO;
#N canvas 413 140 402 279 ARGO 0;
#X obj 101 101 cnv 10 95 41 \$0-A \$0-B empty 20 12 0 14 -1 -1 1.04858e+06
;
#X obj 101 109 nbx 4 12 0 1e+37 0 0 \$0 \$0-ReceiveCpuPeak CPUPeak
45 7 1 11 -24198 -1 -24198 22 256;
#X obj 101 122 nbx 4 12 0 1e+37 0 0 \$0 \$0-ReceiveCpuMean CPUMean
45 7 1 11 -24198 -1 -24198 26.66 256;
#X obj 145 -55 cputime;
#X obj 145 -76 t b b;
#X text 188 24 (c) musil@iem.kug.ac.at;
#X text 230 37 IEM KUG;
#X text 78 18 CPU-load;
#X obj 144 -125 loadbang;
#X text 205 48 graz \, austria 2001;
#X obj 145 -100 metro 500;
#X obj 145 -34 * 0.2;
#X text 237 -88 -dsp-load in %;
#X text 228 -101 measure average- and peak-;
#X obj 37 18 * 100;
#X obj 37 63 int;
#X obj 37 41 + 0.499;
#X obj 37 86 * 0.01;
#N canvas 524 162 422 273 1p1zmodif 0;
#X text 134 89 (c) musil@iem.kug.ac.at;
#X text 179 99 IEM KUG;
#X obj 14 195 +;
#X text 151 108 graz \, austria 2001;
#X text 135 71 y[n] = a0*x[n] + a1*x[n-1] + b1*y[n-1];
#X text 18 13 x[n];
#X text 16 244 y[n];
#X text 84 111 y[n-1];
#X text 134 56 <float> control-IIR-filter 1.order;
#X obj 15 28 inlet;
#X obj 14 228 outlet;
#X obj 15 112 * 0.1;
#X obj 59 156 * 0.9;
#X text 139 144 a1 = 0;
#X text 139 155 b1 = 0.9;
#X text 139 133 a0 = 0.1;
#X obj 15 50 t f b;
#X text 135 40 Inspiré de 1p1z;
#X obj 59 112 f 0;
#X connect 2 0 10 0;
#X connect 2 0 18 1;
#X connect 9 0 16 0;
#X connect 11 0 2 0;
#X connect 12 0 2 1;
#X connect 16 0 11 0;
#X connect 16 1 18 0;
#X connect 18 0 12 0;
#X restore 37 -8 pd 1p1zmodif;
#X text 146 9 Inspiré de 5.reference/iemabs/help-dsp.pd;
#X text 141 83 25 3 2010;
#X connect 3 0 11 0;
#X connect 4 0 3 0;
#X connect 4 1 3 1;
#X connect 8 0 10 0;
#X connect 10 0 4 0;
#X connect 11 0 18 0;
#X connect 11 0 1 0;
#X connect 14 0 16 0;
#X connect 15 0 17 0;
#X connect 16 0 15 0;
#X connect 17 0 2 0;
#X connect 18 0 14 0;
#X coords 0 -1 1 1 97 43 1 100 100;
#X restore 172 -104 pd ARGO;
#N canvas 352 215 338 213 ARGO 0;
#X obj 101 101 cnv 10 208 17 empty ColorForm empty 20 12 0 14 -228856
-1 1.04858e+06;
#X obj 101 101 cnv 4 10 4 empty empty empty 20 12 0 14 -128992 -66577
0;
#X obj 247 106 cnv 10 20 10 empty ColorForm GEM-Info 1 5 1 14 -228856
-1 1.04858e+06;
#X text 83 80 gemlist;
#X obj 101 14 inlet;
#X obj 179 14 loadbang;
#X obj 179 44 delay 1000;
#X obj 11 22 cnv 15 60 30 empty empty empty 20 12 0 14 -24198 -66577
0;
#N canvas 599 156 412 359 Help 0;
#X obj 7 227 cnv 15 400 70 empty empty empty 20 12 0 14 -224896 -66577
0;
#X text 11 227 - Erreur dans la fenêtre Pd:;
#X obj 6 67 cnv 15 400 140 empty empty empty 20 12 0 14 -233017 -66577
0;
#X text 9 66 Citation;
#X text 23 85 [pix_info] will give you some meta-information about
the image data consisting of the image-dimensions \, the pixel-size
\, the colour-space and the pointer to the image-data itself.;
#X text 23 138 The colour-space is given as an openGL-int-constant.
(6408=GL_RGBA (rgba) \, 6409=GL_LUMINANCE (grey) \, 34233 might be
YUV (not standardized);
#X text 22 175 You might not be able to do anything with the data-pointer.
;
#X text 18 14 RGB = Red Green Blue = 6407 decimal = 1907 hexa;
#X text 18 44 YUV = Luma \, ChromaB \, ChromaR = 34233 decimal = 85B9
hexa;
#X text 12 29 RGBA = Red Green Blue Alpha = 6408 decimal = 1908 hexa
;
#X text 12 0 Grey = Niveaux de gris = 6409 decimal = 1909 hexa;
#X text 12 -19 GEM-Info;
#X restore 18 29 pd Help;
#X text 13 136 Préférer des images dont la taille en pixels est un
multiple de 8x8 pixels (cf library PDP... et GEM?);
#N canvas 449 136 449 399 Geminfo 0;
#X obj 34 23 inlet;
#X obj 123 27 inlet;
#X obj 15 357 outlet;
#X text 27 4 gemlist;
#X text 127 9 bang;
#X text 20 373 label;
#X obj 33 57 pix_info;
#X obj 12 139 change;
#X obj 59 139 change;
#X obj 158 136 change;
#X obj 185 194 sel 32993 34233 6409 6408 32992 6407;
#X msg 14 333 label \$1;
#X obj 14 311 tosymbol;
#X msg 185 233 RGBA;
#X msg 221 233 YUV;
#X msg 256 233 Grey;
#X msg 327 233 RGB;
#X msg 398 233 ?;
#X text 180 285 <- ATTENTION jamais d'espace dans un label;
#X obj 11 234 clip 0 100000;
#X obj 99 234 clip 0 100000;
#X msg 175 87 0;
#X obj 124 57 t b b b b;
#X obj 13 285 sprintf %dx%d--%s--%dbytes;
#X obj 158 168 t b f;
#X obj 59 171 t b f;
#X obj 105 137 change;
#X obj 105 169 t b f;
#X connect 0 0 6 0;
#X connect 1 0 22 0;
#X connect 6 1 7 0;
#X connect 6 2 8 0;
#X connect 6 3 26 0;
#X connect 6 4 9 0;
#X connect 7 0 19 0;
#X connect 8 0 25 0;
#X connect 9 0 24 0;
#X connect 10 0 13 0;
#X connect 10 1 14 0;
#X connect 10 2 15 0;
#X connect 10 3 13 0;
#X connect 10 4 16 0;
#X connect 10 5 16 0;
#X connect 10 6 17 0;
#X connect 11 0 2 0;
#X connect 12 0 11 0;
#X connect 13 0 23 2;
#X connect 14 0 23 2;
#X connect 15 0 23 2;
#X connect 16 0 23 2;
#X connect 17 0 23 2;
#X connect 19 0 23 0;
#X connect 20 0 23 1;
#X connect 21 0 9 0;
#X connect 21 0 8 0;
#X connect 21 0 7 0;
#X connect 22 0 7 0;
#X connect 22 1 8 0;
#X connect 22 2 9 0;
#X connect 22 3 21 0;
#X connect 23 0 12 0;
#X connect 24 0 19 0;
#X connect 24 1 10 0;
#X connect 25 0 19 0;
#X connect 25 1 20 0;
#X connect 26 0 27 0;
#X connect 27 0 19 0;
#X connect 27 1 23 3;
#X restore 101 43 pd Geminfo;
#X obj 101 106 bng 12 250 50 0 \$0-A \$0-B 320x240--RGBA--4bytes 15
7 1 11 -262144 -1 -1;
#X text 5 101 Reload Image ->;
#X obj 283 170 cnv 15 41 30 empty empty empty 20 12 0 14 -24198 -66577
0;
#N canvas 350 196 308 136 ?? 0;
#X obj -9 87 cnv 15 300 38 empty empty empty 20 12 0 14 -224896 -66577
0;
#X obj -9 10 cnv 18 300 70 empty empty ARGOPdMiniModules 1 10 1 14
-4033 -1 1.04858e+06;
#X obj 9 29 cnv 10 10 10 empty empty Gerard 0 5 1 9 -4033 -1 1.04858e+06
;
#X obj 40 29 cnv 10 10 10 empty empty Paresys 0 5 1 9 -4033 -1 1.04858e+06
;
#X text -8 89 Construit sous / Build under Pd 0.42.5-extended;
#X obj 39 105 pddplink http://puredata.info/downloads;
#X obj 3 42 pddplink http://pagesperso-orange.fr/Paresys/ARGOPd/;
#X obj 3 57 pddplink http://gerard.paresys.free.fr/ARGOPd/;
#X restore 287 177 pd ??;
#X text 251 81 17 11 2010;
#X connect 4 0 10 0;
#X connect 5 0 6 0;
#X connect 6 0 11 0;
#X connect 10 0 11 0;
#X connect 11 0 10 1;
#X coords 0 -1 1 1 210 19 1 100 100;
#X restore -18 40 pd ARGO;
#X obj 226 79 cnv 15 41 30 empty empty empty 20 12 0 14 -24198 -66577
0;
#N canvas 350 196 308 136 ?? 0;
#X obj -9 87 cnv 15 300 38 empty empty empty 20 12 0 14 -224896 -66577
0;
#X obj -9 10 cnv 18 300 70 empty empty ARGOPdMiniModules 1 10 1 14
-4033 -1 1.04858e+06;
#X obj 9 29 cnv 10 10 10 empty empty Gerard 0 5 1 9 -4033 -1 1.04858e+06
;
#X obj 40 29 cnv 10 10 10 empty empty Paresys 0 5 1 9 -4033 -1 1.04858e+06
;
#X text -8 89 Construit sous / Build under Pd 0.42.5-extended;
#X obj 39 105 pddplink http://puredata.info/downloads;
#X obj 3 42 pddplink http://pagesperso-orange.fr/Paresys/ARGOPd/;
#X obj 3 57 pddplink http://gerard.paresys.free.fr/ARGOPd/;
#X restore 230 86 pd ??;
#X obj -191 -125 switch~;
#N canvas 608 166 228 173 ARGOnOff 0;
#X obj 100 100 tgl 18 1 \$0-SendOnOff \$0-ReceiveOnOff On/Off 20 11
1 14 -4033 -1 -1 1 1;
#X obj 99 10 loadbang;
#X msg 99 33 \; pd dsp 1;
#X obj 100 129 outlet;
#X text -50 99 Audio On/Off du patch ->;
#X text -22 45 Audio General On ->;
#X text 107 82 17 3 2010;
#X connect 0 0 3 0;
#X connect 1 0 2 0;
#X coords 0 -1 1 1 65 18 2 100 100;
#X restore -191 -143 pd ARGOnOff;
#N canvas 324 59 331 313 ARGO 0;
#X obj 101 101 cnv 20 104 34 empty ColorAmpli empty 20 12 0 14 -261299
-1 1.04858e+06;
#X obj 85 285 outlet~;
#X obj 134 104 cnv 10 20 10 empty ColorAmpli Ampli 1 5 1 14 -261299
-1 1.04858e+06;
#X obj 85 72 inlet~;
#X obj 85 260 *~;
#X obj 103 118 hsl 101 12 -80 20 0 1 \$0-A ColorAmpli 12dB 0 7 1 9
-261299 -1 -1 9200 0;
#X msg -24 161 label \$1;
#X obj -25 138 tosymbol;
#X obj -25 103 sprintf %ddB;
#X obj 101 101 cnv 4 10 4 empty empty empty 20 12 0 14 -1 -66577 0
;
#X obj 101 131 cnv 4 10 4 empty empty empty 20 12 0 14 -1 -66577 0
;
#X text -16 120 -> -80dB..20dB;
#X text 106 182 -> 0.0001..10 = -80dB..20dB;
#X text 209 97 5 5 2011;
#X obj 100 163 expr (pow(10 \, $f1 / 20));
#X text 107 140 -> -80..20;
#X obj 227 270 cnv 15 41 30 empty empty empty 20 12 0 14 -24198 -66577
0;
#N canvas 350 196 308 136 ?? 0;
#X obj -9 87 cnv 15 300 38 empty empty empty 20 12 0 14 -224896 -66577
0;
#X obj -9 10 cnv 18 300 70 empty empty ARGOPdMiniModules 1 10 1 14
-4033 -1 1.04858e+06;
#X obj 9 29 cnv 10 10 10 empty empty Gerard 0 5 1 9 -4033 -1 1.04858e+06
;
#X obj 40 29 cnv 10 10 10 empty empty Paresys 0 5 1 9 -4033 -1 1.04858e+06
;
#X text -8 89 Construit sous / Build under Pd 0.42.5-extended;
#X obj 39 105 pddplink http://puredata.info/downloads;
#X obj 3 42 pddplink http://pagesperso-orange.fr/Paresys/ARGOPd/;
#X obj 3 57 pddplink http://gerard.paresys.free.fr/ARGOPd/;
#X restore 231 277 pd ??;
#X obj 100 206 sel 0.0001;
#X msg 100 234 0;
#X connect 3 0 4 0;
#X connect 4 0 1 0;
#X connect 5 0 8 0;
#X connect 5 0 14 0;
#X connect 6 0 5 0;
#X connect 7 0 6 0;
#X connect 8 0 7 0;
#X connect 14 0 18 0;
#X connect 18 0 19 0;
#X connect 18 1 4 1;
#X connect 19 0 4 1;
#X connect 19 0 7 0;
#X coords 0 -1 1 1 106 36 1 100 100;
#X restore -28 -92 pd ARGO;
#X obj -212 -18 cnv 15 180 40 empty empty empty 20 12 0 14 -258113
-66577 0;
#X text -205 -16 Prefer RGBA under Windows ->;
#X text -187 4 Prefer YUV under MacOS ->;
#N canvas 404 91 396 312 ARGO 0;
#X text 80 84 gemlist;
#X obj 93 229 pix_texture;
#X obj 95 -3 inlet;
#X msg 71 198 quality \$1;
#X obj 136 20 select 0 1;
#X msg 152 68 0;
#X msg 110 68 set 0;
#X msg 48 108 set \$1;
#X obj 101 101 cnv 10 144 40 empty ColorForm empty 20 12 0 14 -228856
-1 1.04858e+06;
#X obj 101 101 cnv 4 10 4 empty empty empty 20 12 0 14 -128992 -66577
0;
#X obj 164 105 cnv 10 20 10 empty ColorForm GEM-Direct 1 5 1 14 -228856
-1 1.04858e+06;
#X obj 100 118 tgl 12 1 \$0-A ColorGEM Quality 15 6 1 9 -262144 -1
-1 0 1;
#X obj 100 106 tgl 12 1 \$0-A ColorGEM On/Off 15 6 1 9 -262144 -1 -1
1 1;
#X obj 159 199 int;
#X obj 136 -3 r \$0-SendOnOff;
#X obj 187 44 delay 1000;
#X obj 119 44 delay 1000;
#X obj 234 7 cnv 15 60 30 empty empty empty 20 12 0 14 -24198 -66577
0;
#N canvas 379 113 456 545 Help 0;
#X obj 13 281 cnv 15 400 150 empty empty empty 20 12 0 14 -258113 -66577
0;
#X text 16 284 - Erreur dans la fenêtre Pd:;
#X text 28 337 Se produit avec certaines cartes video \, de certains
PC \, sous Windows...;
#X text 28 365 Inconvenient: Charge CPU => la texture est calculée
(objet pix_texture) par le processeur de l'ordinateur et pas par la
carte video);
#X text 28 302 GL: énumérant non valide (répété);
#X text 28 313 OpenGL: invalid enumérant (repeat);
#X obj 13 35 cnv 15 430 180 empty empty empty 20 12 0 14 -233017 -66577
0;
#X text 28 51 Description: apply texture mapping;
#X text 27 69 Send a quality message to change the quality of the texture
mapping. GL_LINEAR is better than GL_NEAREST (but also more computationally
expensive). However \, on many machines (especially SGIs) \, there
is no speed difference.;
#X text 26 128 [pix_texture] tries to use the fastest way to get a
pix onto a texture. This implies using "rectangle"-texturing if available.
This \, in turn \, can lead to some problems with several geos. Try
using "rectangle 0" if you experience problems. Rectangle textures
cannot be REPEATed (they are always clamped-to-edge);
#X text 17 35 Citation;
#X text 15 -18 Envoie l'entrée remplir la fenêtre GEM;
#X text 15 -5 Send the input fill the GEM window;
#X text 4 -42 GEM-Direct;
#X text 28 325 Solution: cocher Compatible dans MM-GEM;
#X text 27 246 Utile avec certaines cartes video de certains PC sous
Windows...;
#X text 27 219 SendMode recu du MM GEM: Compatible = mode 0/1 = rectangle
0/1;
#X text 21 438 Nouveau depuis GEM-Direct 25 3 2010:;
#X text 31 451 - Ajout spigot sur l'entrée;
#X text 31 463 - Flip;
#X text 31 474 - Neg;
#X text 15 11 Neg = Négatif = Negative;
#X restore 241 13 pd Help;
#X msg 14 198 mode \$1;
#X obj 14 122 == 0;
#X obj 14 36 r SendMode;
#X obj 14 102 nbx 1 14 -1e+37 1e+37 0 1 empty empty empty 0 -6 0 10
-262144 -1 -1 0 256;
#X obj 92 142 spigot;
#X obj 162 130 hradio 12 1 1 4 \$0-A \$0-B 4x3 51 7 1 11 -262144 -1
-1 1;
#N canvas 303 128 648 228 Dimension 0;
#X obj 157 30 inlet;
#X obj 215 196 outlet;
#X obj -24 192 outlet;
#X msg 213 113 label 4x3;
#X msg 279 113 label 16x10;
#X msg 358 114 label 16x9;
#X text 248 25 4/3 = 5.33333333/4;
#X text 236 37 16/10 = 6.4/4;
#X text 242 49 16/9 = 7.11111111/4;
#X msg -157 111 5.33333;
#X msg -102 111 6.4;
#X msg -70 111 7.11111;
#X obj -41 29 inlet;
#X obj 75 31 inlet;
#X text -65 1 Flip Horizontal;
#X text 54 3 Flip Vertical;
#X obj 81 191 outlet;
#X text -32 13 0/1;
#X text 83 15 0/1;
#X obj 75 55 select 0 1;
#X msg 72 112 4;
#X msg 109 112 -4;
#X obj -24 166 *;
#X obj -41 54 select 0 1;
#X msg -14 111 1;
#X msg 22 111 -1;
#X text 248 61 3/4 = 3/4;
#X msg 145 113 label 3x4;
#X obj 157 56 sel 0 1 2 3;
#X msg -188 111 3;
#X obj -13 141 t b f;
#X connect 0 0 28 0;
#X connect 3 0 1 0;
#X connect 4 0 1 0;
#X connect 5 0 1 0;
#X connect 9 0 22 0;
#X connect 10 0 22 0;
#X connect 11 0 22 0;
#X connect 12 0 23 0;
#X connect 13 0 19 0;
#X connect 19 0 20 0;
#X connect 19 1 21 0;
#X connect 20 0 16 0;
#X connect 21 0 16 0;
#X connect 22 0 2 0;
#X connect 23 0 24 0;
#X connect 23 1 25 0;
#X connect 24 0 30 0;
#X connect 25 0 30 0;
#X connect 27 0 1 0;
#X connect 28 0 29 0;
#X connect 28 0 27 0;
#X connect 28 1 9 0;
#X connect 28 1 3 0;
#X connect 28 2 10 0;
#X connect 28 2 4 0;
#X connect 28 3 11 0;
#X connect 28 3 5 0;
#X connect 29 0 22 0;
#X connect 30 0 22 0;
#X connect 30 1 22 1;
#X restore 135 257 pd Dimension;
#X obj 94 284 rectangle 4 4;
#X obj 100 130 tgl 12 1 \$0-A \$0-B empty 15 6 1 9 -262144 -1 -1 0
1;
#X obj 112 130 tgl 12 1 \$0-A \$0-B Flip 15 7 1 9 -262144 -1 -1 0 1
;
#X obj 331 262 cnv 15 41 30 empty empty empty 20 12 0 14 -24198 -66577
0;
#N canvas 350 196 308 136 ?? 0;
#X obj -9 87 cnv 15 300 38 empty empty empty 20 12 0 14 -224896 -66577
0;
#X obj -9 10 cnv 18 300 70 empty empty ARGOPdMiniModules 1 10 1 14
-4033 -1 1.04858e+06;
#X obj 9 29 cnv 10 10 10 empty empty Gerard 0 5 1 9 -4033 -1 1.04858e+06
;
#X obj 40 29 cnv 10 10 10 empty empty Paresys 0 5 1 9 -4033 -1 1.04858e+06
;
#X text -8 89 Construit sous / Build under Pd 0.42.5-extended;
#X obj 39 105 pddplink http://puredata.info/downloads;
#X obj 3 42 pddplink http://pagesperso-orange.fr/Paresys/ARGOPd/;
#X obj 3 57 pddplink http://gerard.paresys.free.fr/ARGOPd/;
#X restore 335 269 pd ??;
#X obj 162 118 tgl 12 1 \$0-A ColorGEM Negative 15 6 1 9 -262144 -1
-1 0 1;
#X msg 191 198 env 5;
#X msg 236 197 env 2;
#X obj 198 170 sel 0 1;
#X obj 198 147 pipe 500;
#X text 271 156 sous Linux;
#X text 253 146 <- Sinon plantage;
#X text 272 166 et Pd-extended-42.5;
#X text 204 84 18 8 2011;
#X connect 1 0 26 0;
#X connect 2 0 23 0;
#X connect 3 0 1 0;
#X connect 4 0 16 0;
#X connect 4 1 15 0;
#X connect 5 0 1 0;
#X connect 6 0 12 0;
#X connect 7 0 12 0;
#X connect 11 0 3 0;
#X connect 12 0 13 0;
#X connect 12 0 23 1;
#X connect 13 0 1 0;
#X connect 13 0 7 0;
#X connect 14 0 4 0;
#X connect 15 0 13 0;
#X connect 16 0 5 0;
#X connect 16 0 6 0;
#X connect 19 0 1 0;
#X connect 20 0 19 0;
#X connect 21 0 22 0;
#X connect 22 0 20 0;
#X connect 23 0 1 0;
#X connect 24 0 25 2;
#X connect 25 0 26 1;
#X connect 25 1 26 2;
#X connect 25 2 24 0;
#X connect 27 0 25 0;
#X connect 28 0 25 1;
#X connect 31 0 35 0;
#X connect 32 0 1 0;
#X connect 33 0 1 0;
#X connect 34 0 32 0;
#X connect 34 1 33 0;
#X connect 35 0 34 0;
#X coords 0 -1 1 1 146 42 1 100 100;
#X restore -28 70 pd ARGO;
#N canvas 262 86 718 585 ARGO 0;
#X obj 467 98 cnv 15 60 30 empty empty empty 20 12 0 14 -24198 -66577
0;
#N canvas 403 109 421 480 Help 0;
#X obj 11 -6 cnv 15 380 90 empty empty empty 20 12 0 14 -233017 -66577
0;
#X text 16 -8 Citation;
#X text 15 5 "GEM is the Graphics Environment for Multimedia. It was
originally written by Mark Danks to generate real-time computer graphics
\, especially for audio-visual compositions.";
#X text 15 55 "GEM is a collection of externals which allow the user
to create OpenGL graphics within Pd";
#X text 10 92 - Raccourcis clavier;
#X text 12 148 - En "FullScreen" taper F ou Pomme + Tab sous MacOSX...
;
#X text 120 161 taper F ou Alt + Tab sous Windows...;
#X text 120 173 taper F ou Alt + F4 sous Linux...;
#X obj 10 425 cnv 15 400 190 empty empty empty 20 12 0 14 -258113 -66577
0;
#X text 13 431 Impossible de supprimer la barre de menu sous MacOSX.5
+ Pd-0.41.4-extended;
#X text 13 457 Pas de probleme sous MacOSX.4 + Pd-0.41.4-extended;
#X text 25 513 Solution: Quitter Pd et relancer;
#X text 14 474 - Problème Windows: Quand on sort de fullscreen le dessin
des objets dans les patches est buggé (taille du texte \, HSlider décalés...)
;
#X text 26 525 Vu avec carte Matrox + Windows XP SP2 + Pd-0.41.4-extended
;
#X text 18 582 Solution: cocher Compatible;
#X text 35 317 Inconvenient: Charge CPU => la texture est calculée
(objet pix_texture) par le processeur de l'ordinateur et pas par la
carte video);
#X text 18 559 GL: énumérant non valide (répété);
#X text 18 570 OpenGL: invalid enumérant (repeat);
#X text 14 545 - Erreur dans la fenêtre Pd:;
#X text 12 265 Il faut cocher compatible avec certaines cartes video
\, de certains PC \, sous Windows...;
#X text 13 291 Compatible Off -> mode 1: TEXTURE_RECTANGLE;
#X text 13 303 Compatible On -> mode 0: TEXTURE_2D;
#X text 8 -31 - GEM On ouvre une fenetre;
#X text 134 91 g / G -> GEM On/Off;
#X text 135 105 f / F -> FullScreen On/Off;
#X text 136 118 b /B -> Menu bar On/Off;
#X text 136 132 Echap / Esc -> FullScreen Off;
#X text 15 391 16/9 = 512/288 = 1024/576 = 1152/648 = 1280/720 = 1440/810
;
#X text 9 379 16/10 = 512/320 = 1024/640 = 1152/720 = 1280x800 = 1440/900
;
#X text 343 366 = 1280/960;
#X text 20 367 4/3 = 160/120 = 320/240 = 512/384 = 640/480 = 1024x768
;
#X text 121 186 ou Echap / Esc...;
#X text 11 239 - Compatible envoie le message mode 1 ou mode 0 à tous
les objets pix_texture des autres modules;
#X restore 474 104 pd Help;
#X obj 101 101 cnv 22 183 69 empty empty GEM 5 12 1 18 -1 -262144 1.04858e+06
;
#X obj 191 154 tgl 12 1 \$0-A \$0-ColorGEM (F)ullScreen 15 7 1 11 -24198
-1 -24198 0 1;
#X obj 103 124 tgl 12 1 \$0-A \$0-ColorGEM (G)EM 15 7 1 11 -24198 -1
-24198 1 1;
#X obj 191 105 nbx 2 12 1 30 0 1 \$0-A \$0-ColorGEM Frames/sec 26 7
1 11 -24198 -1 -24198 30 256;
#X obj 191 139 tgl 12 1 \$0-A \$0-ColorGEM KeyShortCut 15 7 1 11 -24198
-1 -24198 1 1;
#X obj 283 -26 key;
#X msg 15 462 create;
#X msg 429 460 destroy;
#X msg 387 460 reset;
#X msg 296 460 fullscreen \$1;
#X msg 489 460 0;
#X obj 169 511 gemwin;
#X obj 78 251 sel 1;
#X msg 296 298 set \$1;
#X msg 95 204 set \$1;
#X msg 78 229 1;
#X msg -80 461 frame \$1;
#X obj 462 395 t b b;
#X obj 429 418 delay 200;
#X msg 64 461 dimen 640 480;
#X msg -15 463 1;
#X obj 283 11 spigot;
#X obj 70 -28 gemkeyname;
#X obj 516 391 select 0 1;
#X obj 78 178 t b f f f;
#X msg 532 438 color 16 22 16;
#X msg 517 415 color 0 22 0;
#X obj 188 67 select 65 97 70 102 76 108 71 103 66 98;
#X obj -25 -25 r SendGEM;
#X obj 517 483 s \$0-ColorGEM;
#X obj 191 124 tgl 12 1 SendMode \$0-ColorGEM Compatible 15 7 1 11
-24198 -1 -24198 0 1;
#X obj 55 68 select 27;
#X msg -21 134 0;
#X obj 103 154 hradio 12 1 1 3 \$0-A \$0-ColorGEM 640x480 39 7 1 11
-24198 -1 -24198 1;
#X obj 248 178 t b f;
#N canvas 0 22 450 300 Dimension 0;
#X obj 169 76 sel 0 1 2;
#X msg 203 141 set dimen 1280 720;
#X msg 187 183 set dimen 640 480;
#X msg 169 225 set dimen 320 240;
#X msg 198 162 label 640x480;
#X msg 213 120 label 1280x720;
#X msg 179 204 label 320x240;
#X obj 169 50 inlet;
#X obj 103 257 outlet;
#X obj 303 259 outlet;
#X connect 0 0 3 0;
#X connect 0 0 6 0;
#X connect 0 1 2 0;
#X connect 0 1 4 0;
#X connect 0 2 1 0;
#X connect 0 2 5 0;
#X connect 1 0 9 0;
#X connect 2 0 9 0;
#X connect 3 0 9 0;
#X connect 4 0 8 0;
#X connect 5 0 8 0;
#X connect 6 0 8 0;
#X connect 7 0 0 0;
#X restore 275 213 pd Dimension;
#X obj 78 325 select linux macos windows;
#X obj 55 42 mrpeach/str to_list;
#X text 150 -29 Sortir de fullscreen;
#X text 146 -19 sous Linux avec Esc ->;
#X text -70 37 Sortir de fullscreen;
#X text -82 47 sous MacOS avec Esc ->;
#X msg 345 298 set \$1;
#X msg 157 437 1;
#X obj 187 179 t b f;
#X msg 157 461 border \$1 \, menubar \$1;
#X obj 103 139 tgl 12 1 \$0-A \$0-ColorGEM (B)arMenu 15 7 1 11 -24198
-1 -24198 1 1;
#X obj 36 16 spigot;
#X obj 69 -6 == 0;
#X obj -47 68 sel f F g G b B;
#X obj 146 204 t b f b;
#X msg 185 227 1;
#X obj -21 112 t b b;
#X msg 6 158 set 1;
#X obj -32 500 cnv 15 120 30 empty empty empty 20 12 0 14 -258113 -66577
0;
#X obj -15 507 s RenderGEM;
#X obj 533 512 cnv 15 41 30 empty empty empty 20 12 0 14 -24198 -66577
0;
#N canvas 350 196 308 136 ?? 0;
#X obj -9 87 cnv 15 300 38 empty empty empty 20 12 0 14 -224896 -66577
0;
#X obj -9 10 cnv 18 300 70 empty empty ARGOPdMiniModules 1 10 1 14
-4033 -1 1.04858e+06;
#X obj 9 29 cnv 10 10 10 empty empty Gerard 0 5 1 9 -4033 -1 1.04858e+06
;
#X obj 40 29 cnv 10 10 10 empty empty Paresys 0 5 1 9 -4033 -1 1.04858e+06
;
#X text -8 89 Construit sous / Build under Pd 0.42.5-extended;
#X obj 39 105 pddplink http://puredata.info/downloads;
#X obj 3 42 pddplink http://pagesperso-orange.fr/Paresys/ARGOPd/;
#X obj 3 57 pddplink http://gerard.paresys.free.fr/ARGOPd/;
#X restore 537 519 pd ??;
#X obj 15 415 delay 300;
#X obj -15 438 delay 300;
#X msg 296 434 0;
#X obj 64 391 delay 300;
#X obj 129 361 t b b b;
#X obj 78 361 t b b b;
#X obj 78 414 spigot;
#X obj 263 298 == 0;
#X obj 78 275 t b b b b;
#X obj 78 302 zexy/operating_system;
#X obj 122 68 select 27;
#X text 293 101 2 8 2011;
#X connect 3 0 52 0;
#X connect 4 0 26 0;
#X connect 5 0 18 0;
#X connect 6 0 23 1;
#X connect 7 0 23 0;
#X connect 7 0 33 0;
#X connect 7 0 70 0;
#X connect 8 0 13 0;
#X connect 9 0 13 0;
#X connect 10 0 13 0;
#X connect 11 0 13 0;
#X connect 12 0 13 0;
#X connect 14 0 68 0;
#X connect 14 1 19 0;
#X connect 15 0 62 0;
#X connect 16 0 17 0;
#X connect 17 0 14 0;
#X connect 18 0 13 0;
#X connect 19 0 20 0;
#X connect 19 1 12 0;
#X connect 20 0 9 0;
#X connect 21 0 13 0;
#X connect 22 0 13 0;
#X connect 22 0 57 0;
#X connect 23 0 29 0;
#X connect 24 0 50 0;
#X connect 24 1 49 0;
#X connect 25 0 28 0;
#X connect 25 1 27 0;
#X connect 26 0 17 0;
#X connect 26 1 16 0;
#X connect 26 3 25 0;
#X connect 27 0 31 0;
#X connect 28 0 31 0;
#X connect 29 2 3 0;
#X connect 29 3 3 0;
#X connect 29 6 4 0;
#X connect 29 7 4 0;
#X connect 29 8 48 0;
#X connect 29 9 48 0;
#X connect 30 0 4 0;
#X connect 33 0 54 0;
#X connect 34 0 3 0;
#X connect 35 0 36 0;
#X connect 36 0 17 0;
#X connect 36 1 37 0;
#X connect 37 0 35 0;
#X connect 37 1 21 0;
#X connect 38 0 65 0;
#X connect 38 1 64 0;
#X connect 38 2 65 0;
#X connect 39 0 33 0;
#X connect 44 0 45 0;
#X connect 45 0 47 0;
#X connect 46 0 17 0;
#X connect 46 1 44 0;
#X connect 47 0 13 0;
#X connect 48 0 46 0;
#X connect 49 0 39 0;
#X connect 49 0 51 0;
#X connect 50 0 49 1;
#X connect 51 0 3 0;
#X connect 51 1 3 0;
#X connect 51 2 4 0;
#X connect 51 3 4 0;
#X connect 51 4 48 0;
#X connect 51 5 48 0;
#X connect 52 0 17 0;
#X connect 52 1 15 0;
#X connect 52 1 67 0;
#X connect 52 2 53 0;
#X connect 53 0 6 0;
#X connect 54 0 34 0;
#X connect 54 1 55 0;
#X connect 55 0 48 0;
#X connect 55 0 45 0;
#X connect 60 0 8 0;
#X connect 60 0 61 0;
#X connect 61 0 22 0;
#X connect 62 0 11 0;
#X connect 63 0 60 0;
#X connect 63 0 21 0;
#X connect 64 0 63 0;
#X connect 64 1 45 0;
#X connect 64 2 62 0;
#X connect 65 0 60 0;
#X connect 65 1 62 0;
#X connect 65 2 66 0;
#X connect 66 0 21 0;
#X connect 67 0 66 1;
#X connect 68 0 69 0;
#X connect 68 1 10 0;
#X connect 68 2 9 0;
#X connect 68 3 12 0;
#X connect 69 0 38 0;
#X connect 70 0 54 0;
#X coords 0 -1 1 1 185 71 1 100 100;
#X restore 49 -192 pd ARGO;
#X connect 1 0 9 0;
#X connect 2 0 4 0;
#X connect 2 0 13 0;
#X connect 8 0 7 0;
#X connect 9 0 2 0;
