#N canvas 318 22 541 469 10;
#X obj 91 372 dac~ 1 2;
#N canvas 324 59 331 313 ARGO 0;
#X obj 101 101 cnv 20 104 34 empty ColorAmpli empty 20 12 0 14 -261299
-1 1.04858e+06;
#X obj 85 285 outlet~;
#X obj 134 104 cnv 10 20 10 empty ColorAmpli Ampli 1 5 1 14 -261299
-1 1.04858e+06;
#X obj 85 72 inlet~;
#X obj 85 260 *~;
#X obj 103 118 hsl 101 12 -80 20 0 1 \$0-A ColorAmpli 0 0 7 1 9 -261299
-1 -1 0 0;
#X msg -24 161 label \$1;
#X obj -25 138 tosymbol;
#X obj -25 103 sprintf %ddB;
#X obj 101 101 cnv 4 10 4 empty empty empty 20 12 0 14 -1 -66577 0
;
#X obj 101 131 cnv 4 10 4 empty empty empty 20 12 0 14 -1 -66577 0
;
#X text -16 120 -> -80dB..20dB;
#X text 106 182 -> 0.0001..10 = -80dB..20dB;
#X text 209 97 5 5 2011;
#X obj 100 163 expr (pow(10 \, $f1 / 20));
#X text 107 140 -> -80..20;
#X obj 227 270 cnv 15 41 30 empty empty empty 20 12 0 14 -24198 -66577
0;
#N canvas 350 196 308 136 ?? 0;
#X obj -9 87 cnv 15 300 38 empty empty empty 20 12 0 14 -224896 -66577
0;
#X obj -9 10 cnv 18 300 70 empty empty ARGOPdMiniModules 1 10 1 14
-4033 -1 1.04858e+06;
#X obj 9 29 cnv 10 10 10 empty empty Gerard 0 5 1 9 -4033 -1 1.04858e+06
;
#X obj 40 29 cnv 10 10 10 empty empty Paresys 0 5 1 9 -4033 -1 1.04858e+06
;
#X text -8 89 Construit sous / Build under Pd 0.42.5-extended;
#X obj 39 105 pddplink http://puredata.info/downloads;
#X obj 3 42 pddplink http://pagesperso-orange.fr/Paresys/ARGOPd/;
#X obj 3 57 pddplink http://gerard.paresys.free.fr/ARGOPd/;
#X restore 231 277 pd ??;
#X obj 100 206 sel 0.0001;
#X msg 100 234 0;
#X connect 3 0 4 0;
#X connect 4 0 1 0;
#X connect 5 0 8 0;
#X connect 5 0 14 0;
#X connect 6 0 5 0;
#X connect 7 0 6 0;
#X connect 8 0 7 0;
#X connect 14 0 18 0;
#X connect 18 0 19 0;
#X connect 18 1 4 1;
#X connect 19 0 4 1;
#X connect 19 0 7 0;
#X coords 0 -1 1 1 106 36 1 100 100;
#X restore -37 45 pd ARGO;
#N canvas 324 59 331 313 ARGO 0;
#X obj 101 101 cnv 20 104 34 empty ColorAmpli empty 20 12 0 14 -261299
-1 1.04858e+06;
#X obj 85 285 outlet~;
#X obj 134 104 cnv 10 20 10 empty ColorAmpli Ampli 1 5 1 14 -261299
-1 1.04858e+06;
#X obj 85 72 inlet~;
#X obj 85 260 *~;
#X obj 103 118 hsl 101 12 -80 20 0 1 \$0-A ColorAmpli -29dB 0 7 1 9
-261299 -1 -1 5100 0;
#X msg -24 161 label \$1;
#X obj -25 138 tosymbol;
#X obj -25 103 sprintf %ddB;
#X obj 101 101 cnv 4 10 4 empty empty empty 20 12 0 14 -1 -66577 0
;
#X obj 101 131 cnv 4 10 4 empty empty empty 20 12 0 14 -1 -66577 0
;
#X text -16 120 -> -80dB..20dB;
#X text 106 182 -> 0.0001..10 = -80dB..20dB;
#X text 209 97 5 5 2011;
#X obj 100 163 expr (pow(10 \, $f1 / 20));
#X text 107 140 -> -80..20;
#X obj 227 270 cnv 15 41 30 empty empty empty 20 12 0 14 -24198 -66577
0;
#N canvas 350 196 308 136 ?? 0;
#X obj -9 87 cnv 15 300 38 empty empty empty 20 12 0 14 -224896 -66577
0;
#X obj -9 10 cnv 18 300 70 empty empty ARGOPdMiniModules 1 10 1 14
-4033 -1 1.04858e+06;
#X obj 9 29 cnv 10 10 10 empty empty Gerard 0 5 1 9 -4033 -1 1.04858e+06
;
#X obj 40 29 cnv 10 10 10 empty empty Paresys 0 5 1 9 -4033 -1 1.04858e+06
;
#X text -8 89 Construit sous / Build under Pd 0.42.5-extended;
#X obj 39 105 pddplink http://puredata.info/downloads;
#X obj 3 42 pddplink http://pagesperso-orange.fr/Paresys/ARGOPd/;
#X obj 3 57 pddplink http://gerard.paresys.free.fr/ARGOPd/;
#X restore 231 277 pd ??;
#X obj 100 206 sel 0.0001;
#X msg 100 234 0;
#X connect 3 0 4 0;
#X connect 4 0 1 0;
#X connect 5 0 8 0;
#X connect 5 0 14 0;
#X connect 6 0 5 0;
#X connect 7 0 6 0;
#X connect 8 0 7 0;
#X connect 14 0 18 0;
#X connect 18 0 19 0;
#X connect 18 1 4 1;
#X connect 19 0 4 1;
#X connect 19 0 7 0;
#X coords 0 -1 1 1 106 36 1 100 100;
#X restore 120 45 pd ARGO;
#N canvas 324 59 331 313 ARGO 0;
#X obj 101 101 cnv 20 104 34 empty ColorAmpli empty 20 12 0 14 -261299
-1 1.04858e+06;
#X obj 85 285 outlet~;
#X obj 134 104 cnv 10 20 10 empty ColorAmpli Ampli 1 5 1 14 -261299
-1 1.04858e+06;
#X obj 85 72 inlet~;
#X obj 85 260 *~;
#X obj 103 118 hsl 101 12 -80 20 0 1 \$0-A ColorAmpli 0 0 7 1 9 -261299
-1 -1 0 0;
#X msg -24 161 label \$1;
#X obj -25 138 tosymbol;
#X obj -25 103 sprintf %ddB;
#X obj 101 101 cnv 4 10 4 empty empty empty 20 12 0 14 -1 -66577 0
;
#X obj 101 131 cnv 4 10 4 empty empty empty 20 12 0 14 -1 -66577 0
;
#X text -16 120 -> -80dB..20dB;
#X text 106 182 -> 0.0001..10 = -80dB..20dB;
#X text 209 97 5 5 2011;
#X obj 100 163 expr (pow(10 \, $f1 / 20));
#X text 107 140 -> -80..20;
#X obj 227 270 cnv 15 41 30 empty empty empty 20 12 0 14 -24198 -66577
0;
#N canvas 350 196 308 136 ?? 0;
#X obj -9 87 cnv 15 300 38 empty empty empty 20 12 0 14 -224896 -66577
0;
#X obj -9 10 cnv 18 300 70 empty empty ARGOPdMiniModules 1 10 1 14
-4033 -1 1.04858e+06;
#X obj 9 29 cnv 10 10 10 empty empty Gerard 0 5 1 9 -4033 -1 1.04858e+06
;
#X obj 40 29 cnv 10 10 10 empty empty Paresys 0 5 1 9 -4033 -1 1.04858e+06
;
#X text -8 89 Construit sous / Build under Pd 0.42.5-extended;
#X obj 39 105 pddplink http://puredata.info/downloads;
#X obj 3 42 pddplink http://pagesperso-orange.fr/Paresys/ARGOPd/;
#X obj 3 57 pddplink http://gerard.paresys.free.fr/ARGOPd/;
#X restore 231 277 pd ??;
#X obj 100 206 sel 0.0001;
#X msg 100 234 0;
#X connect 3 0 4 0;
#X connect 4 0 1 0;
#X connect 5 0 8 0;
#X connect 5 0 14 0;
#X connect 6 0 5 0;
#X connect 7 0 6 0;
#X connect 8 0 7 0;
#X connect 14 0 18 0;
#X connect 18 0 19 0;
#X connect 18 1 4 1;
#X connect 19 0 4 1;
#X connect 19 0 7 0;
#X coords 0 -1 1 1 106 36 1 100 100;
#X restore 277 45 pd ARGO;
#X obj -45 1 switch~;
#N canvas 608 166 228 173 ARGOnOff 0;
#X obj 100 100 tgl 18 1 \$0-SendOnOff \$0-ReceiveOnOff On/Off 20 11
1 14 -4033 -1 -1 1 1;
#X obj 99 10 loadbang;
#X msg 99 33 \; pd dsp 1;
#X obj 100 129 outlet;
#X text -50 99 Audio On/Off du patch ->;
#X text -22 45 Audio General On ->;
#X text 107 82 17 3 2010;
#X connect 0 0 3 0;
#X connect 1 0 2 0;
#X coords 0 -1 1 1 65 18 2 100 100;
#X restore -45 -17 pd ARGOnOff;
#X text -40 -33 V;
#X text -40 -40 |;
#X text -52 -51 On/Off Patch;
#X obj 395 361 cnv 15 48 25 empty empty empty 20 12 0 14 -24198 -66577
0;
#N canvas 350 196 308 136 ??? 0;
#X obj -6 87 cnv 15 300 38 empty empty empty 20 12 0 14 -224896 -66577
0;
#X obj -6 10 cnv 18 300 70 empty empty ARGOPdMiniModules 3 10 1 14
-4033 -1 1.04858e+06;
#X obj 13 31 cnv 10 10 10 empty empty Gerard 0 5 1 11 -4033 -1 1.04858e+06
;
#X obj 55 30 cnv 10 10 10 empty empty Paresys 0 5 1 11 -4033 -1 1.04858e+06
;
#X text -1 89 Construit sous / Build under Pd 0.42.5-extended;
#X obj 6 43 pddp/pddplink http://pagesperso-orange.fr/Paresys/ARGOPd/
;
#X obj 6 58 pddp/pddplink http://gerard.paresys.free.fr/ARGOPd/;
#X obj 46 105 pddp/pddplink http://puredata.info/downloads;
#X restore 399 365 pd ???;
#X obj -81 -69 cnv 15 15 15 empty empty ExMM134c-Noise-Farnell2.pd
0 8 1 14 -262144 -1 0;
#X text 199 -51 Based on Andy Farnell's work.;
#N canvas 379 120 336 323 ARGO 0;
#X obj 84 204 outlet~;
#X obj 11 95 cnv 15 60 30 empty empty empty 20 12 0 14 -24198 -66577
0;
#N canvas 189 352 458 175 Help 0;
#X obj 27 103 pddplink http://obiwannabe.co.uk;
#X text 201 23 Based on Andy Farnell's work.;
#X text 26 41 Extrait de snow dans snowtex dans texturesource dans
footstep5.pd (11-07-2006);
#X text 88 70 Extract of snow in snowtex in texturesource in footstep5.pd
(11-07-2006);
#X obj 26 117 pddplink http://aspress.co.uk/sd/practical26.php;
#X text 26 132 Code examples for Designing Sound textbook;
#X text 269 117 -> foot2.pd;
#X text 25 147 Snow texture;
#X restore 18 101 pd Help;
#X obj 101 101 cnv 6 130 18 empty ColorForm Noise-Farnell2 38 8 1 14
-262144 -1 1.04858e+06;
#X obj 101 115 cnv 4 10 4 empty empty empty 20 12 0 14 -1 -66577 0
;
#X obj 276 191 cnv 15 48 25 empty empty empty 20 12 0 14 -24198 -66577
0;
#N canvas 350 196 308 136 ??? 0;
#X obj -6 87 cnv 15 300 38 empty empty empty 20 12 0 14 -224896 -66577
0;
#X obj -6 10 cnv 18 300 70 empty empty ARGOPdMiniModules 3 10 1 14
-4033 -1 1.04858e+06;
#X obj 13 31 cnv 10 10 10 empty empty Gerard 0 5 1 11 -4033 -1 1.04858e+06
;
#X obj 55 30 cnv 10 10 10 empty empty Paresys 0 5 1 11 -4033 -1 1.04858e+06
;
#X text -1 89 Construit sous / Build under Pd 0.42.5-extended;
#X obj 6 43 pddp/pddplink http://pagesperso-orange.fr/Paresys/ARGOPd/
;
#X obj 6 58 pddp/pddplink http://gerard.paresys.free.fr/ARGOPd/;
#X obj 46 105 pddp/pddplink http://puredata.info/downloads;
#X restore 280 195 pd ???;
#X obj 221 115 cnv 4 10 4 empty empty empty 20 12 0 14 -1 -66577 0
;
#X obj 160 115 cnv 4 10 4 empty empty empty 20 12 0 14 -1 -66577 0
;
#X obj 149 204 outlet~;
#X obj 211 204 outlet~;
#X obj 48 -82 noise~;
#X obj 42 5 /~;
#X obj 212 156 clip~ -1 1;
#X obj 18 -32 lop~ 110;
#X obj 79 -32 lop~ 900;
#X obj 202 -81 noise~;
#X obj 181 5 /~;
#X obj 141 -32 lop~ 50;
#X obj 202 -33 lop~ 70;
#X obj 115 35 *~;
#X obj 257 -33 lop~ 10;
#X obj 256 -12 *~ 17;
#X obj 250 11 *~;
#X obj 189 63 *~;
#X obj 249 33 +~ 0.5;
#X obj 212 178 hip~ 300;
#X obj 149 175 *~ 0.01;
#X text 244 101 17 12 2011;
#X connect 11 0 14 0;
#X connect 11 0 15 0;
#X connect 12 0 20 0;
#X connect 13 0 26 0;
#X connect 14 0 12 0;
#X connect 15 0 12 1;
#X connect 16 0 18 0;
#X connect 16 0 19 0;
#X connect 16 0 21 0;
#X connect 17 0 20 1;
#X connect 17 0 27 0;
#X connect 18 0 17 0;
#X connect 19 0 17 1;
#X connect 20 0 24 0;
#X connect 21 0 22 0;
#X connect 22 0 23 0;
#X connect 22 0 23 1;
#X connect 23 0 25 0;
#X connect 24 0 13 0;
#X connect 25 0 24 1;
#X connect 25 0 0 0;
#X connect 26 0 10 0;
#X connect 27 0 9 0;
#X coords 0 -1 1 1 132 20 1 100 100;
#X restore 58 -2 pd ARGO;
#N canvas 421 44 268 333 ARGO 0;
#X obj 101 101 cnv 20 130 66 empty ColorForm Reverb2/2 53 8 1 14 -188398
-1 1.04858e+06;
#X obj 101 163 cnv 4 10 4 empty empty empty 20 12 0 14 -1 -66577 0
;
#X obj 221 163 cnv 4 10 4 empty empty empty 0 0 0 9 -1 -66577 0;
#X obj 87 57 inlet~;
#X obj 212 58 inlet~;
#X obj 101 101 cnv 4 10 4 empty empty empty 20 12 0 14 -1 -66577 0
;
#X obj 89 294 outlet~;
#X obj 188 295 outlet~;
#X obj 221 101 cnv 4 10 4 empty empty empty 0 0 0 9 -1 -66577 0;
#X obj 103 138 hsl 127 12 0.001 1 1 1 \$0-A ColorForm Brill 0 7 1 9
-188398 -1 -1 8500 0;
#X obj 103 126 hsl 127 12 0 1 0 1 \$0-A ColorForm Size 0 7 1 9 -188398
-1 -1 10700 0;
#X obj 103 150 hsl 127 12 0 1 0 1 \$0-A ColorAmpli Dir 0 7 1 9 -261299
-1 -1 11000 0;
#X obj 47 24 cnv 15 60 30 empty empty empty 20 12 0 14 -24198 -66577
0;
#N canvas 331 65 447 335 Help 0;
#X obj -169 -78 cnv 15 440 80 empty empty empty 20 12 0 14 -228856
-66577 0;
#X text -166 -78 Citation;
#X text -165 8 Comme MM-Reverb sauf:;
#X text -151 20 - Pas de "Early Echo";
#X text -150 31 - Sorties apres le delay \, sinon la reverb contient
le signal direct c'est a dire sans retard.;
#X text -148 56 - La sortie gauche est alors toujours + intense que
la droite (G vient d'un + et D vient d'un -) Donc on double la reverb
à gauche et a droite en inversant les 2 entrées.;
#X text -144 93 - Temps différents a gauche et a droite pour avoir
une vraie stereo. Un signal Mono \, envoyé sur les 2 entrees a bien
alors une reverb Stereo.;
#X text -143 131 - Temps réglables (* 0.01 ... * 10 de MM-Reverb).
;
#X text -161 168 Contrairement à sa version précédente \, ce MM peut
être présent à 2 exemplaires dans un même patch.;
#X text -168 -114 - Voir Pure Documentation Browser -> Pure Data/ ->
3.audio.examples -> G08.reverb.pd;
#X text -150 -62 "Here is a simple recirculating reverberator. "Feedback"
should be between 0 and 100 - if 100 \, the reverberation lasts forever."
;
#X text -147 -22 "Feedback" = Size;
#X text -168 -130 MM Reverb2/2;
#X restore 54 31 pd Help;
#N canvas 399 412 301 243 DirEffect 0;
#X obj 30 25 inlet~;
#X obj 186 25 inlet~;
#X obj 135 25 inlet~;
#X obj 80 25 inlet~;
#X obj 34 207 outlet~;
#X obj 193 203 outlet~;
#X text 242 7 0...1;
#X text 38 11 Dir1;
#X text 90 9 Dir2;
#X text 184 6 Effect2;
#X text 133 6 Effect1;
#X obj 81 146 *~;
#X obj 133 146 *~;
#X obj 193 147 *~;
#X obj 98 82 - 1;
#X obj 97 108 * -1;
#X obj 33 146 *~;
#X obj 218 107 * 0.2;
#X obj 241 26 inlet;
#X connect 0 0 16 0;
#X connect 1 0 13 0;
#X connect 2 0 12 0;
#X connect 3 0 11 0;
#X connect 11 0 5 0;
#X connect 12 0 4 0;
#X connect 13 0 5 0;
#X connect 14 0 15 0;
#X connect 15 0 11 1;
#X connect 15 0 16 1;
#X connect 16 0 4 0;
#X connect 17 0 12 1;
#X connect 17 0 13 1;
#X connect 18 0 17 0;
#X connect 18 0 14 0;
#X restore 96 259 pd DirEffect;
#X obj 114 102 bng 12 2000 50 0 \$0-A \$0-B Reset 14 6 1 9 -188398
-1 -1;
#X obj 213 259 cnv 15 41 30 empty empty empty 20 12 0 14 -24198 -66577
0;
#N canvas 350 196 308 136 ?? 0;
#X obj -9 87 cnv 15 300 38 empty empty empty 20 12 0 14 -224896 -66577
0;
#X obj -9 10 cnv 18 300 70 empty empty ARGOPdMiniModules 1 10 1 14
-4033 -1 1.04858e+06;
#X obj 9 29 cnv 10 10 10 empty empty Gerard 0 5 1 9 -4033 -1 1.04858e+06
;
#X obj 40 29 cnv 10 10 10 empty empty Paresys 0 5 1 9 -4033 -1 1.04858e+06
;
#X text -8 89 Construit sous / Build under Pd 0.42.5-extended;
#X obj 39 105 pddplink http://puredata.info/downloads;
#X obj 3 42 pddplink http://pagesperso-orange.fr/Paresys/ARGOPd/;
#X obj 3 57 pddplink http://gerard.paresys.free.fr/ARGOPd/;
#X restore 217 266 pd ??;
#N canvas 155 302 314 167 BrillanceStereo 0;
#X msg 79 42 clear;
#X obj 122 102 lop~ 5;
#X obj 261 78 line;
#X obj 122 14 inlet~;
#X obj 122 131 outlet~;
#X obj 260 35 * 20000;
#X obj 79 13 inlet;
#X obj 261 11 inlet;
#X msg 261 58 \$1 10;
#X obj 185 103 lop~ 5;
#X obj 185 15 inlet~;
#X obj 185 132 outlet~;
#X connect 0 0 1 0;
#X connect 0 0 9 0;
#X connect 1 0 4 0;
#X connect 2 0 1 1;
#X connect 2 0 9 1;
#X connect 3 0 1 0;
#X connect 5 0 8 0;
#X connect 6 0 0 0;
#X connect 7 0 5 0;
#X connect 8 0 2 0;
#X connect 9 0 11 0;
#X connect 10 0 9 0;
#X restore 130 181 pd BrillanceStereo;
#X obj 103 114 hsl 127 12 0.01 10 1 1 \$0-A ColorForm Time 0 7 1 9
-188398 -1 -1 9600 0;
#N canvas 4 70 682 544 reverbG 0;
#X obj 113 55 inlet~;
#X obj 46 189 +~;
#X obj 164 183 +~;
#X obj 21 512 outlet~;
#X obj 132 507 outlet~;
#X obj 46 269 +~;
#X obj 289 266 +~;
#X obj 149 258 -~;
#X obj 414 266 -~;
#X obj 47 323 +~;
#X obj 148 323 +~;
#X obj 277 323 -~;
#X obj 399 325 -~;
#X text 387 39 time.;
#X text 385 11 feedback gain on a scale of;
#X obj 393 100 * 0.495;
#X obj 394 123 + 0.005;
#X obj 393 60 inlet;
#X text 387 26 0 to 1 to control reverb;
#X text 18 13 cf "Recirculating schroeder reverb extract from the book
Designing Sound Andy Farnell Page 85";
#X obj 46 390 *~ 0;
#X obj 149 409 *~ 0;
#X obj 277 433 *~ 0;
#X obj 403 455 *~ 0;
#X obj 499 281 pack 0;
#X obj 547 282 pack 0;
#X obj 592 280 pack 0;
#X obj 640 281 pack 0;
#X obj 572 55 inlet;
#X obj 46 350 iem_delay/n_delay1p_line~ 1 1130 0;
#X obj 147 382 iem_delay/n_delay1p_line~ 1 1310 0;
#X obj 278 406 iem_delay/n_delay1p_line~ 1 1510 0;
#X obj 403 430 iem_delay/n_delay1p_line~ 1 1670 0;
#X obj 499 255 * 113;
#X obj 547 256 * 131;
#X obj 592 254 * 151;
#X obj 640 255 * 187;
#X text 566 36 0.01...10;
#X text 567 23 Time;
#X obj 46 415 zexy/pack~;
#X obj 59 437 zexy/unpack~;
#X obj 149 437 zexy/pack~;
#X obj 162 459 zexy/unpack~;
#X obj 277 458 zexy/pack~;
#X obj 290 480 zexy/unpack~;
#X obj 403 479 zexy/pack~;
#X obj 416 501 zexy/unpack~;
#X connect 0 0 1 0;
#X connect 0 0 2 0;
#X connect 1 0 5 0;
#X connect 1 0 7 0;
#X connect 2 0 5 1;
#X connect 2 0 7 1;
#X connect 5 0 9 0;
#X connect 5 0 11 0;
#X connect 6 0 11 1;
#X connect 6 0 9 1;
#X connect 7 0 10 0;
#X connect 7 0 12 0;
#X connect 8 0 10 1;
#X connect 8 0 12 1;
#X connect 9 0 29 0;
#X connect 10 0 30 0;
#X connect 11 0 31 0;
#X connect 12 0 32 0;
#X connect 15 0 16 0;
#X connect 16 0 20 1;
#X connect 16 0 21 1;
#X connect 16 0 22 1;
#X connect 16 0 23 1;
#X connect 17 0 15 0;
#X connect 20 0 39 0;
#X connect 21 0 41 0;
#X connect 22 0 43 0;
#X connect 23 0 45 0;
#X connect 24 0 29 0;
#X connect 25 0 30 0;
#X connect 26 0 31 0;
#X connect 27 0 32 0;
#X connect 28 0 33 0;
#X connect 28 0 34 0;
#X connect 28 0 35 0;
#X connect 28 0 36 0;
#X connect 29 0 20 0;
#X connect 29 0 3 0;
#X connect 30 0 21 0;
#X connect 30 0 4 0;
#X connect 31 0 22 0;
#X connect 32 0 23 0;
#X connect 33 0 24 0;
#X connect 34 0 25 0;
#X connect 35 0 26 0;
#X connect 36 0 27 0;
#X connect 39 0 40 0;
#X connect 40 0 1 1;
#X connect 41 0 42 0;
#X connect 42 0 2 1;
#X connect 43 0 44 0;
#X connect 44 0 6 0;
#X connect 44 0 8 0;
#X connect 45 0 46 0;
#X connect 46 0 8 1;
#X connect 46 0 6 1;
#X restore 35 221 pd reverbG;
#N canvas 470 65 682 544 reverbD 0;
#X obj 113 55 inlet~;
#X obj 46 189 +~;
#X obj 164 183 +~;
#X obj 21 512 outlet~;
#X obj 122 512 outlet~;
#X obj 46 269 +~;
#X obj 289 266 +~;
#X obj 149 258 -~;
#X obj 414 266 -~;
#X obj 47 323 +~;
#X obj 148 323 +~;
#X obj 277 323 -~;
#X obj 399 325 -~;
#X text 387 39 time.;
#X text 385 11 feedback gain on a scale of;
#X obj 394 100 * 0.495;
#X obj 395 123 + 0.005;
#X obj 393 60 inlet;
#X text 387 26 0 to 1 to control reverb;
#X text 18 13 cf "Recirculating schroeder reverb extract from the book
Designing Sound Andy Farnell Page 85";
#X obj 46 390 *~ 0;
#X obj 149 409 *~ 0;
#X obj 276 445 *~ 0;
#X obj 404 465 *~ 0;
#X obj 499 281 pack 0;
#X obj 499 255 * 101;
#X obj 547 282 pack 0;
#X obj 592 280 pack 0;
#X obj 640 281 pack 0;
#X obj 547 256 * 143;
#X obj 592 254 * 165;
#X obj 640 255 * 177;
#X obj 46 350 iem_delay/n_delay1p_line~ 1 1010 0;
#X obj 147 382 iem_delay/n_delay1p_line~ 1 1430 0;
#X obj 278 406 iem_delay/n_delay1p_line~ 1 1650 0;
#X obj 403 430 iem_delay/n_delay1p_line~ 1 1770 0;
#X obj 572 55 inlet;
#X text 561 38 0.01...10;
#X text 562 25 Time;
#X obj 46 419 zexy/pack~;
#X obj 59 441 zexy/unpack~;
#X obj 149 439 zexy/pack~;
#X obj 162 461 zexy/unpack~;
#X obj 276 469 zexy/pack~;
#X obj 289 491 zexy/unpack~;
#X obj 404 490 zexy/pack~;
#X obj 417 512 zexy/unpack~;
#X connect 0 0 1 0;
#X connect 0 0 2 0;
#X connect 1 0 5 0;
#X connect 1 0 7 0;
#X connect 2 0 5 1;
#X connect 2 0 7 1;
#X connect 5 0 9 0;
#X connect 5 0 11 0;
#X connect 6 0 11 1;
#X connect 6 0 9 1;
#X connect 7 0 10 0;
#X connect 7 0 12 0;
#X connect 8 0 10 1;
#X connect 8 0 12 1;
#X connect 9 0 32 0;
#X connect 10 0 33 0;
#X connect 11 0 34 0;
#X connect 12 0 35 0;
#X connect 15 0 16 0;
#X connect 16 0 20 1;
#X connect 16 0 21 1;
#X connect 16 0 22 1;
#X connect 16 0 23 1;
#X connect 17 0 15 0;
#X connect 20 0 39 0;
#X connect 21 0 41 0;
#X connect 22 0 43 0;
#X connect 23 0 45 0;
#X connect 24 0 32 0;
#X connect 25 0 24 0;
#X connect 26 0 33 0;
#X connect 27 0 34 0;
#X connect 28 0 35 0;
#X connect 29 0 26 0;
#X connect 30 0 27 0;
#X connect 31 0 28 0;
#X connect 32 0 20 0;
#X connect 32 0 3 0;
#X connect 33 0 21 0;
#X connect 33 0 4 0;
#X connect 34 0 22 0;
#X connect 35 0 23 0;
#X connect 36 0 25 0;
#X connect 36 0 29 0;
#X connect 36 0 30 0;
#X connect 36 0 31 0;
#X connect 39 0 40 0;
#X connect 40 0 1 1;
#X connect 41 0 42 0;
#X connect 42 0 2 1;
#X connect 43 0 44 0;
#X connect 44 0 6 0;
#X connect 44 0 8 0;
#X connect 45 0 46 0;
#X connect 46 0 8 1;
#X connect 46 0 6 1;
#X restore 168 216 pd reverbD;
#X msg 30 123 0;
#X obj 6 95 delay 2000;
#X obj 142 57 loadbang;
#X text 141 82 21 6 2011;
#X connect 3 0 18 1;
#X connect 3 0 14 0;
#X connect 4 0 14 1;
#X connect 4 0 18 2;
#X connect 9 0 18 3;
#X connect 10 0 21 1;
#X connect 10 0 20 1;
#X connect 11 0 14 4;
#X connect 14 0 6 0;
#X connect 14 1 7 0;
#X connect 15 0 18 0;
#X connect 15 0 22 0;
#X connect 15 0 23 0;
#X connect 18 0 20 0;
#X connect 18 1 21 0;
#X connect 19 0 21 2;
#X connect 19 0 20 2;
#X connect 20 0 14 2;
#X connect 20 1 14 3;
#X connect 21 0 14 3;
#X connect 21 1 14 2;
#X connect 22 0 21 2;
#X connect 22 0 20 2;
#X connect 22 0 20 1;
#X connect 22 0 21 1;
#X connect 23 0 10 0;
#X connect 23 0 19 0;
#X connect 24 0 15 0;
#X coords 0 -1 1 1 132 68 1 100 100;
#X restore 54 105 pd ARGO;
#N canvas 416 45 300 175 ARGO 0;
#X obj 83 132 outlet~;
#X obj 86 64 inlet~;
#X obj 101 101 cnv 12 93 15 empty ColorAmpli Tanh 40 9 1 14 -261299
-1 1.04858e+06;
#X obj 101 112 cnv 4 10 4 empty empty empty 20 12 0 14 -1 -66577 0
;
#X obj 101 101 cnv 4 10 4 empty empty empty 20 12 0 14 -1 -66577 0
;
#X obj 9 100 cyclone/tanh~;
#X obj 14 41 cnv 15 60 30 empty empty empty 20 12 0 14 -24198 -66577
0;
#N canvas 265 68 411 318 Help 0;
#X obj -4 -8 cnv 15 400 290 empty empty empty 20 12 0 14 -233017 -66577
0;
#X text -1 -9 Citation;
#X text 15 17 cyclone library;
#X text 15 29 calculate hyperbolic tangent function;
#X text 15 6 tanh~;
#X obj 15 129 pddplink http://suita.chopin.edu.pl/~czaja/miXed/externs/cyclone.html
;
#X text 15 151 cf doc Max/MSP -> MSP46ReferenceManual.pdf;
#X text 15 77 outputs signal values always between -1 and 1;
#X text 15 97 turn a sine wave into a square wave by cranking up the
volume!;
#X text 15 46 can be used to simulate analog distortion \, and is much
"smoother" than using clip~;
#X restore 21 47 pd Help;
#X obj 184 112 cnv 4 10 4 empty empty empty 20 12 0 14 -1 -66577 0
;
#X obj 184 101 cnv 4 10 4 empty empty empty 20 12 0 14 -1 -66577 0
;
#X obj 173 132 outlet~;
#X obj 176 64 inlet~;
#X obj 207 101 cyclone/tanh~;
#X text 120 85 17 12 2011;
#X obj 238 137 cnv 15 48 25 empty empty empty 20 12 0 14 -24198 -66577
0;
#N canvas 350 196 308 136 ??? 0;
#X obj -6 87 cnv 15 300 38 empty empty empty 20 12 0 14 -224896 -66577
0;
#X obj -6 10 cnv 18 300 70 empty empty ARGOPdMiniModules 3 10 1 14
-4033 -1 1.04858e+06;
#X obj 13 31 cnv 10 10 10 empty empty Gerard 0 5 1 11 -4033 -1 1.04858e+06
;
#X obj 55 30 cnv 10 10 10 empty empty Paresys 0 5 1 11 -4033 -1 1.04858e+06
;
#X text -1 89 Construit sous / Build under Pd 0.42.5-extended;
#X obj 6 43 pddp/pddplink http://pagesperso-orange.fr/Paresys/ARGOPd/
;
#X obj 6 58 pddp/pddplink http://gerard.paresys.free.fr/ARGOPd/;
#X obj 46 105 pddp/pddplink http://puredata.info/downloads;
#X restore 242 141 pd ???;
#X connect 1 0 5 0;
#X connect 5 0 0 0;
#X connect 11 0 12 0;
#X connect 12 0 10 0;
#X coords 0 -1 1 1 95 17 2 100 100;
#X restore 72 186 pd ARGO;
#N canvas 432 42 314 359 ARGO 0;
#X obj 101 101 cnv 30 37 130 empty ColorAmpli empty 20 12 0 14 -1 -258113
0;
#X obj 101 101 cnv 4 10 4 empty empty empty 20 12 0 14 -1 -66577 0
;
#X obj 102 108 vu 8 120 \$0-B empty 0 0 1 11 -1 -4034 1 0;
#X obj 42 -112 inlet~;
#X obj 35 -87 *~;
#X obj 35 3 snapshot~;
#X obj 35 26 sqrt;
#X obj 35 -24 lop~ 10;
#X obj 35 50 rmstodb;
#X obj 98 -111 loadbang;
#X obj 35 73 - 100;
#X obj 171 26 sqrt;
#X obj 172 50 rmstodb;
#X obj 172 73 - 100;
#X obj 97 -23 metro 200;
#X obj 236 -97 cnv 15 60 30 empty empty empty 20 12 0 14 -24198 -66577
0;
#N canvas 300 65 442 264 Help 0;
#X obj 12 48 cnv 15 400 150 empty empty empty 20 12 0 14 -233017 -66577
0;
#X text 16 50 Citation;
#X text 28 67 peakamp~ tracks and outputs the absolute value of the
peak amplitude of the incoming signal. It outputs when banged or using
its own internal clock. The peak value is reset each time peakamp~
outputs a value.;
#X text 17 214 par rapport à la version précédente du MM-Vumetre env~
est remplacé par square~ + lop~ + snapshot~ + sqrt + rmstodb car env~
consomme beaucoup CPU.;
#X text 29 123 cyclone library;
#X text 28 135 http://suita.chopin.edu.pl/~czaja/miXed/externs/cyclone.html
;
#X text 29 155 Voir doc Max/MSP MSP46ReferenceManual.pdf;
#X text 18 14 MM-Vumetre;
#X restore 243 -91 pd Help;
#X obj 261 199 cnv 15 41 30 empty empty empty 20 12 0 14 -24198 -66577
0;
#N canvas 350 196 308 136 ?? 0;
#X obj -9 87 cnv 15 300 38 empty empty empty 20 12 0 14 -224896 -66577
0;
#X obj -9 10 cnv 18 300 70 empty empty ARGOPdMiniModules 1 10 1 14
-4033 -1 1.04858e+06;
#X obj 9 29 cnv 10 10 10 empty empty Gerard 0 5 1 9 -4033 -1 1.04858e+06
;
#X obj 40 29 cnv 10 10 10 empty empty Paresys 0 5 1 9 -4033 -1 1.04858e+06
;
#X text -8 89 Construit sous / Build under Pd 0.42.5-extended;
#X obj 39 105 pddplink http://puredata.info/downloads;
#X obj 3 42 pddplink http://pagesperso-orange.fr/Paresys/ARGOPd/;
#X obj 3 57 pddplink http://gerard.paresys.free.fr/ARGOPd/;
#X restore 265 206 pd ??;
#X obj 158 -111 r SendFluid;
#X obj 171 -50 cyclone/peakamp~ 1000;
#X text 145 106 13 2 2011;
#X connect 3 0 4 0;
#X connect 3 0 4 1;
#X connect 4 0 7 0;
#X connect 4 0 20 0;
#X connect 5 0 6 0;
#X connect 6 0 8 0;
#X connect 7 0 5 0;
#X connect 8 0 10 0;
#X connect 9 0 14 0;
#X connect 10 0 2 0;
#X connect 11 0 12 0;
#X connect 12 0 13 0;
#X connect 13 0 2 1;
#X connect 14 0 5 0;
#X connect 19 0 14 1;
#X connect 20 0 11 0;
#X coords 0 -1 1 1 39 132 2 100 100;
#X restore 172 257 pd ARGO;
#N canvas 432 42 314 359 ARGO 0;
#X obj 101 101 cnv 30 37 130 empty ColorAmpli empty 20 12 0 14 -1 -258113
0;
#X obj 101 101 cnv 4 10 4 empty empty empty 20 12 0 14 -1 -66577 0
;
#X obj 102 108 vu 8 120 \$0-B empty 0 0 1 11 -1 -4034 1 0;
#X obj 42 -112 inlet~;
#X obj 35 -87 *~;
#X obj 35 3 snapshot~;
#X obj 35 26 sqrt;
#X obj 35 -24 lop~ 10;
#X obj 35 50 rmstodb;
#X obj 98 -111 loadbang;
#X obj 35 73 - 100;
#X obj 171 26 sqrt;
#X obj 172 50 rmstodb;
#X obj 172 73 - 100;
#X obj 97 -23 metro 200;
#X obj 236 -97 cnv 15 60 30 empty empty empty 20 12 0 14 -24198 -66577
0;
#N canvas 300 65 442 264 Help 0;
#X obj 12 48 cnv 15 400 150 empty empty empty 20 12 0 14 -233017 -66577
0;
#X text 16 50 Citation;
#X text 28 67 peakamp~ tracks and outputs the absolute value of the
peak amplitude of the incoming signal. It outputs when banged or using
its own internal clock. The peak value is reset each time peakamp~
outputs a value.;
#X text 17 214 par rapport à la version précédente du MM-Vumetre env~
est remplacé par square~ + lop~ + snapshot~ + sqrt + rmstodb car env~
consomme beaucoup CPU.;
#X text 29 123 cyclone library;
#X text 28 135 http://suita.chopin.edu.pl/~czaja/miXed/externs/cyclone.html
;
#X text 29 155 Voir doc Max/MSP MSP46ReferenceManual.pdf;
#X text 18 14 MM-Vumetre;
#X restore 243 -91 pd Help;
#X obj 261 199 cnv 15 41 30 empty empty empty 20 12 0 14 -24198 -66577
0;
#N canvas 350 196 308 136 ?? 0;
#X obj -9 87 cnv 15 300 38 empty empty empty 20 12 0 14 -224896 -66577
0;
#X obj -9 10 cnv 18 300 70 empty empty ARGOPdMiniModules 1 10 1 14
-4033 -1 1.04858e+06;
#X obj 9 29 cnv 10 10 10 empty empty Gerard 0 5 1 9 -4033 -1 1.04858e+06
;
#X obj 40 29 cnv 10 10 10 empty empty Paresys 0 5 1 9 -4033 -1 1.04858e+06
;
#X text -8 89 Construit sous / Build under Pd 0.42.5-extended;
#X obj 39 105 pddplink http://puredata.info/downloads;
#X obj 3 42 pddplink http://pagesperso-orange.fr/Paresys/ARGOPd/;
#X obj 3 57 pddplink http://gerard.paresys.free.fr/ARGOPd/;
#X restore 265 206 pd ??;
#X obj 158 -111 r SendFluid;
#X obj 171 -50 cyclone/peakamp~ 1000;
#X text 145 106 13 2 2011;
#X connect 3 0 4 0;
#X connect 3 0 4 1;
#X connect 4 0 7 0;
#X connect 4 0 20 0;
#X connect 5 0 6 0;
#X connect 6 0 8 0;
#X connect 7 0 5 0;
#X connect 8 0 10 0;
#X connect 9 0 14 0;
#X connect 10 0 2 0;
#X connect 11 0 12 0;
#X connect 12 0 13 0;
#X connect 13 0 2 1;
#X connect 14 0 5 0;
#X connect 19 0 14 1;
#X connect 20 0 11 0;
#X coords 0 -1 1 1 39 132 2 100 100;
#X restore 185 257 pd ARGO;
#X text -83 61 Play ->;
#X text 74 61 Play ->;
#X text 231 61 Play ->;
#X text -42 222 Niveau general ->;
#X text -36 232 General level ->;
#N canvas 497 69 331 310 ARGO 0;
#X obj 101 101 cnv 20 104 34 empty ColorAmpli empty 20 12 0 14 -261299
-1 1.04858e+06;
#X obj 85 282 outlet~;
#X obj 134 104 cnv 10 20 10 empty ColorAmpli Ampli 1 5 1 14 -261299
-1 1.04858e+06;
#X obj 85 43 inlet~;
#X obj 85 259 *~;
#X obj 103 118 hsl 101 12 -80 20 0 1 \$0-A ColorAmpli 0dB 0 7 1 9 -261299
-1 -1 8000 0;
#X obj 101 101 cnv 4 10 4 empty empty empty 20 12 0 14 -1 -66577 0
;
#X obj 101 131 cnv 4 10 4 empty empty empty 20 12 0 14 -1 -66577 0
;
#X obj 195 101 cnv 4 10 4 empty empty empty 20 12 0 14 -1 -66577 0
;
#X obj 195 131 cnv 4 10 4 empty empty empty 20 12 0 14 -1 -66577 0
;
#X obj 210 281 outlet~;
#X obj 210 42 inlet~;
#X obj 210 258 *~;
#X text 221 83 1 6 2011;
#X msg -10 150 label \$1;
#X obj -11 127 tosymbol;
#X obj -11 92 sprintf %ddB;
#X text 107 167 -> 0.0001..10 = -80dB..20dB;
#X obj 101 148 expr (pow(10 \, $f1 / 20));
#X obj 101 191 sel 0.0001;
#X msg 101 219 0;
#X obj 264 269 cnv 15 41 30 empty empty empty 20 12 0 14 -24198 -66577
0;
#N canvas 350 196 308 136 ?? 0;
#X obj -9 87 cnv 15 300 38 empty empty empty 20 12 0 14 -224896 -66577
0;
#X obj -9 10 cnv 18 300 70 empty empty ARGOPdMiniModules 1 10 1 14
-4033 -1 1.04858e+06;
#X obj 9 29 cnv 10 10 10 empty empty Gerard 0 5 1 9 -4033 -1 1.04858e+06
;
#X obj 40 29 cnv 10 10 10 empty empty Paresys 0 5 1 9 -4033 -1 1.04858e+06
;
#X text -8 89 Construit sous / Build under Pd 0.42.5-extended;
#X obj 39 105 pddplink http://puredata.info/downloads;
#X obj 3 42 pddplink http://pagesperso-orange.fr/Paresys/ARGOPd/;
#X obj 3 57 pddplink http://gerard.paresys.free.fr/ARGOPd/;
#X restore 268 276 pd ??;
#X connect 3 0 4 0;
#X connect 4 0 1 0;
#X connect 5 0 16 0;
#X connect 5 0 18 0;
#X connect 11 0 12 0;
#X connect 12 0 10 0;
#X connect 14 0 5 0;
#X connect 15 0 14 0;
#X connect 16 0 15 0;
#X connect 18 0 19 0;
#X connect 19 0 20 0;
#X connect 19 1 4 1;
#X connect 19 1 12 1;
#X connect 20 0 4 1;
#X connect 20 0 12 1;
#X connect 20 0 15 0;
#X coords 0 -1 1 1 106 36 1 100 100;
#X restore 65 211 pd ARGO;
#X text 200 -66 MM Noise-Farnell;
#X obj 200 -36 pddplink http://obiwannabe.co.uk;
#X obj 200 -22 pddplink http://aspress.co.uk/sd/practical26.php;
#X text 200 -7 Code examples for Designing Sound textbook;
#X text 199 7 Snow texture;
#X connect 1 0 14 0;
#X connect 2 0 14 0;
#X connect 2 0 14 1;
#X connect 3 0 14 1;
#X connect 5 0 4 0;
#X connect 13 0 1 0;
#X connect 13 1 2 0;
#X connect 13 2 3 0;
#X connect 14 0 15 0;
#X connect 14 1 15 1;
#X connect 15 0 23 0;
#X connect 15 1 23 1;
#X connect 23 0 0 0;
#X connect 23 0 16 0;
#X connect 23 1 0 1;
#X connect 23 1 17 0;
