#N canvas 473 250 1362 686 10;
#X obj 335 245 bng 50 900 50 0 stop r STOP 6 25 0 16 -258113 -66577
-1;
#X obj 335 143 bng 50 900 50 0 change w ChangeRinging 2 15 0 14 -1
-262144 -2113;
#X obj 284 194 bng 50 900 50 0 :) q :) 10 22 0 20 -262144 -1 -1;
#X obj 386 194 bng 50 900 50 0 :( e :( 10 22 0 20 -1 -262144 -262144
;
#X obj 89 333 bng 25 100 50 0 empty 1a empty 17 7 0 10 -262144 -49933
-1;
#X obj 89 358 bng 25 100 50 0 empty empty empty 17 7 0 10 -262144 -49933
-1;
#X obj 89 383 bng 25 100 50 0 empty empty empty 17 7 0 10 -262144 -49933
-1;
#X obj 89 408 bng 25 100 50 0 empty empty empty 17 7 0 10 -262144 -49933
-1;
#X obj 116 333 bng 25 100 50 0 empty 1c empty 17 7 0 10 -262144 -49933
-1;
#X obj 116 358 bng 25 100 50 0 empty empty empty 17 7 0 10 -262144
-49933 -1;
#X obj 116 383 bng 25 100 50 0 empty empty empty 17 7 0 10 -262144
-49933 -1;
#X obj 116 408 bng 25 100 50 0 empty empty empty 17 7 0 10 -262144
-49933 -1;
#X obj 143 333 bng 25 100 50 0 empty 1e empty 17 7 0 10 -262144 -49933
-1;
#X obj 143 358 bng 25 100 50 0 empty empty empty 17 7 0 10 -262144
-49933 -1;
#X obj 143 383 bng 25 100 50 0 empty empty empty 17 7 0 10 -262144
-49933 -1;
#X obj 143 408 bng 25 100 50 0 empty empty empty 17 7 0 10 -262144
-49933 -1;
#X obj 170 333 bng 25 100 50 0 empty 1f empty 17 7 0 10 -262144 -49933
-1;
#X obj 170 358 bng 25 100 50 0 empty empty empty 17 7 0 10 -262144
-49933 -1;
#X obj 170 383 bng 25 100 50 0 empty empty empty 17 7 0 10 -262144
-49933 -1;
#X obj 170 408 bng 25 100 50 0 empty empty empty 17 7 0 10 -262144
-49933 -1;
#X obj 197 333 bng 25 100 50 0 empty 1h empty 17 7 0 10 -262144 -49933
-1;
#X obj 197 358 bng 25 100 50 0 empty empty empty 17 7 0 10 -262144
-49933 -1;
#X obj 197 383 bng 25 100 50 0 empty empty empty 17 7 0 10 -262144
-49933 -1;
#X obj 197 408 bng 25 100 50 0 empty empty empty 17 7 0 10 -262144
-49933 -1;
#X obj 224 333 bng 25 100 50 0 empty 1j empty 17 7 0 10 -262144 -49933
-1;
#X obj 224 358 bng 25 100 50 0 empty empty empty 17 7 0 10 -262144
-49933 -1;
#X obj 224 383 bng 25 100 50 0 empty empty empty 17 7 0 10 -262144
-49933 -1;
#X obj 224 408 bng 25 100 50 0 empty empty empty 17 7 0 10 -262144
-49933 -1;
#X obj 251 333 bng 25 100 50 0 empty 1l empty 17 7 0 10 -262144 -49933
-1;
#X obj 251 358 bng 25 100 50 0 empty empty empty 17 7 0 10 -262144
-49933 -1;
#X obj 251 383 bng 25 100 50 0 empty empty empty 17 7 0 10 -262144
-49933 -1;
#X obj 251 408 bng 25 100 50 0 empty empty empty 17 7 0 10 -262144
-49933 -1;
#X obj 106 333 bng 19 100 50 0 empty 1b empty 17 7 0 10 -1 -228856
-1;
#X obj 106 352 bng 19 100 50 0 empty empty empty 17 7 0 10 -1 -228856
-1;
#X obj 106 371 bng 19 100 50 0 1 empty empty 17 7 0 10 -1 -228856 -1
;
#X obj 133 333 bng 19 100 50 0 empty 1d empty 17 7 0 10 -1 -228856
-1;
#X obj 133 352 bng 19 100 50 0 empty empty empty 17 7 0 10 -1 -228856
-1;
#X obj 133 371 bng 19 100 50 0 empty empty empty 17 7 0 10 -1 -228856
-1;
#X obj 214 333 bng 19 100 50 0 empty 1i empty 17 7 0 10 -1 -228856
-1;
#X obj 214 352 bng 19 100 50 0 empty empty empty 17 7 0 10 -1 -228856
-1;
#X obj 214 371 bng 19 100 50 0 empty empty empty 17 7 0 10 -1 -228856
-1;
#X obj 187 333 bng 19 100 50 0 empty 1g empty 17 7 0 10 -1 -228856
-1;
#X obj 187 352 bng 19 100 50 0 empty empty empty 17 7 0 10 -1 -228856
-1;
#X obj 187 371 bng 19 100 50 0 empty empty empty 17 7 0 10 -1 -228856
-1;
#X obj 241 333 bng 19 100 50 0 empty 1k empty 17 7 0 10 -1 -228856
-1;
#X obj 241 352 bng 19 100 50 0 empty empty empty 17 7 0 10 -1 -228856
-1;
#X obj 241 371 bng 19 100 50 0 empty empty empty 17 7 0 10 -1 -228856
-1;
#X obj 278 333 bng 25 100 50 0 empty 1m empty 17 7 0 10 -262144 -49933
-1;
#X obj 278 358 bng 25 100 50 0 empty empty empty 17 7 0 10 -262144
-49933 -1;
#X obj 278 383 bng 25 100 50 0 empty empty empty 17 7 0 10 -262144
-49933 -1;
#X obj 278 408 bng 25 100 50 0 empty empty empty 17 7 0 10 -262144
-49933 -1;
#X obj 305 333 bng 25 100 50 0 empty 1o empty 17 7 0 10 -262144 -49933
-1;
#X obj 305 358 bng 25 100 50 0 empty empty empty 17 7 0 10 -262144
-49933 -1;
#X obj 305 383 bng 25 100 50 0 empty empty empty 17 7 0 10 -262144
-49933 -1;
#X obj 305 408 bng 25 100 50 0 empty empty empty 17 7 0 10 -262144
-49933 -1;
#X obj 332 333 bng 25 100 50 0 empty 1q empty 17 7 0 10 -262144 -49933
-1;
#X obj 332 358 bng 25 100 50 0 empty empty empty 17 7 0 10 -262144
-49933 -1;
#X obj 332 383 bng 25 100 50 0 empty empty empty 17 7 0 10 -262144
-49933 -1;
#X obj 332 408 bng 25 100 50 0 empty empty empty 17 7 0 10 -262144
-49933 -1;
#X obj 359 333 bng 25 100 50 0 empty 1r empty 17 7 0 10 -262144 -49933
-1;
#X obj 359 358 bng 25 100 50 0 empty empty empty 17 7 0 10 -262144
-49933 -1;
#X obj 359 383 bng 25 100 50 0 empty empty empty 17 7 0 10 -262144
-49933 -1;
#X obj 359 408 bng 25 100 50 0 empty empty empty 17 7 0 10 -262144
-49933 -1;
#X obj 386 333 bng 25 100 50 0 empty 1t empty 17 7 0 10 -262144 -49933
-1;
#X obj 386 358 bng 25 100 50 0 empty empty empty 17 7 0 10 -262144
-49933 -1;
#X obj 386 383 bng 25 100 50 0 empty empty empty 17 7 0 10 -262144
-49933 -1;
#X obj 386 408 bng 25 100 50 0 empty empty empty 17 7 0 10 -262144
-49933 -1;
#X obj 413 333 bng 25 100 50 0 empty 1v empty 17 7 0 10 -262144 -49933
-1;
#X obj 413 358 bng 25 100 50 0 empty empty empty 17 7 0 10 -262144
-49933 -1;
#X obj 413 383 bng 25 100 50 0 empty empty empty 17 7 0 10 -262144
-49933 -1;
#X obj 413 408 bng 25 100 50 0 empty empty empty 17 7 0 10 -262144
-49933 -1;
#X obj 440 333 bng 25 100 50 0 empty 1x empty 17 7 0 10 -262144 -49933
-1;
#X obj 440 358 bng 25 100 50 0 empty empty empty 17 7 0 10 -262144
-49933 -1;
#X obj 440 383 bng 25 100 50 0 empty empty empty 17 7 0 10 -262144
-49933 -1;
#X obj 440 408 bng 25 100 50 0 empty empty empty 17 7 0 10 -262144
-49933 -1;
#X obj 295 333 bng 19 100 50 0 empty 1n empty 17 7 0 10 -1 -228856
-1;
#X obj 295 352 bng 19 100 50 0 empty empty empty 17 7 0 10 -1 -228856
-1;
#X obj 295 371 bng 19 100 50 0 empty empty empty 17 7 0 10 -1 -228856
-1;
#X obj 322 333 bng 19 100 50 0 empty 1p empty 17 7 0 10 -1 -228856
-1;
#X obj 322 352 bng 19 100 50 0 empty empty empty 17 7 0 10 -1 -228856
-1;
#X obj 322 371 bng 19 100 50 0 empty empty empty 17 7 0 10 -1 -228856
-1;
#X obj 403 333 bng 19 100 50 0 empty 1u empty 17 7 0 10 -1 -228856
-1;
#X obj 403 352 bng 19 100 50 0 empty empty empty 17 7 0 10 -1 -228856
-1;
#X obj 403 371 bng 19 100 50 0 empty empty empty 17 7 0 10 -1 -228856
-1;
#X obj 376 333 bng 19 100 50 0 empty 1s empty 17 7 0 10 -1 -228856
-1;
#X obj 376 352 bng 19 100 50 0 empty empty empty 17 7 0 10 -1 -228856
-1;
#X obj 376 371 bng 19 100 50 0 empty empty empty 17 7 0 10 -1 -228856
-1;
#X obj 430 333 bng 19 100 50 0 empty 1w empty 17 7 0 10 -1 -228856
-1;
#X obj 430 352 bng 19 100 50 0 empty empty empty 17 7 0 10 -1 -228856
-1;
#X obj 430 371 bng 19 100 50 0 empty empty empty 17 7 0 10 -1 -228856
-1;
#X obj 467 333 bng 25 100 50 0 empty 1y empty 17 7 0 10 -262144 -49933
-1;
#X obj 467 358 bng 25 100 50 0 empty 3a empty 17 7 0 10 -262144 -49933
-1;
#X obj 467 383 bng 25 100 50 0 empty empty empty 17 7 0 10 -262144
-49933 -1;
#X obj 467 408 bng 25 100 50 0 empty empty empty 17 7 0 10 -262144
-49933 -1;
#X obj 494 333 bng 25 100 50 0 empty 2a empty 17 7 0 10 -262144 -49933
-1;
#X obj 494 358 bng 25 100 50 0 empty 3c empty 17 7 0 10 -262144 -49933
-1;
#X obj 494 383 bng 25 100 50 0 empty empty empty 17 7 0 10 -262144
-49933 -1;
#X obj 494 408 bng 25 100 50 0 empty empty empty 17 7 0 10 -262144
-49933 -1;
#X obj 521 333 bng 25 100 50 0 empty 2c empty 17 7 0 10 -262144 -49933
-1;
#X obj 521 358 bng 25 100 50 0 empty 3e empty 17 7 0 10 -262144 -49933
-1;
#X obj 521 383 bng 25 100 50 0 empty empty empty 17 7 0 10 -262144
-49933 -1;
#X obj 521 408 bng 25 100 50 0 empty empty empty 17 7 0 10 -262144
-49933 -1;
#X obj 548 333 bng 25 100 50 0 empty 2d empty 17 7 0 10 -262144 -49933
-1;
#X obj 548 358 bng 25 100 50 0 empty 3f empty 17 7 0 10 -262144 -49933
-1;
#X obj 548 383 bng 25 100 50 0 empty empty empty 17 7 0 10 -262144
-49933 -1;
#X obj 548 408 bng 25 100 50 0 empty empty empty 17 7 0 10 -262144
-49933 -1;
#X obj 575 333 bng 25 100 50 0 empty 2f empty 17 7 0 10 -262144 -49933
-1;
#X obj 575 358 bng 25 100 50 0 empty 3h empty 17 7 0 10 -262144 -49933
-1;
#X obj 575 383 bng 25 100 50 0 empty empty empty 17 7 0 10 -262144
-49933 -1;
#X obj 575 408 bng 25 100 50 0 empty empty empty 17 7 0 10 -262144
-49933 -1;
#X obj 602 333 bng 25 100 50 0 empty 2h empty 17 7 0 10 -262144 -49933
-1;
#X obj 602 358 bng 25 100 50 0 empty 3j empty 17 7 0 10 -262144 -49933
-1;
#X obj 602 383 bng 25 100 50 0 empty empty empty 17 7 0 10 -262144
-49933 -1;
#X obj 602 408 bng 25 100 50 0 empty empty empty 17 7 0 10 -262144
-49933 -1;
#X obj 629 333 bng 25 100 50 0 empty 2j empty 17 7 0 10 -262144 -49933
-1;
#X obj 629 358 bng 25 100 50 0 empty 3l empty 17 7 0 10 -262144 -49933
-1;
#X obj 629 383 bng 25 100 50 0 empty empty empty 17 7 0 10 -262144
-49933 -1;
#X obj 629 408 bng 25 100 50 0 empty empty empty 17 7 0 10 -262144
-49933 -1;
#X obj 484 333 bng 19 100 50 0 empty 1z empty 17 7 0 10 -1 -228856
-1;
#X obj 484 352 bng 19 100 50 0 empty 3b empty 17 7 0 10 -1 -228856
-1;
#X obj 484 371 bng 19 100 50 0 empty empty empty 17 7 0 10 -1 -228856
-1;
#X obj 511 333 bng 19 100 50 0 empty 2b empty 17 7 0 10 -1 -228856
-1;
#X obj 511 352 bng 19 100 50 0 empty 3d empty 17 7 0 10 -1 -228856
-1;
#X obj 511 371 bng 19 100 50 0 empty empty empty 17 7 0 10 -1 -228856
-1;
#X obj 592 333 bng 19 100 50 0 empty 2g empty 17 7 0 10 -1 -228856
-1;
#X obj 592 352 bng 19 100 50 0 empty 3i empty 17 7 0 10 -1 -228856
-1;
#X obj 592 371 bng 19 100 50 0 empty empty empty 17 7 0 10 -1 -228856
-1;
#X obj 565 333 bng 19 100 50 0 empty 2e empty 17 7 0 10 -1 -228856
-1;
#X obj 565 352 bng 19 100 50 0 empty 3g empty 17 7 0 10 -1 -228856
-1;
#X obj 565 371 bng 19 100 50 0 empty empty empty 17 7 0 10 -1 -228856
-1;
#X obj 619 333 bng 19 100 50 0 empty 2i empty 17 7 0 10 -1 -228856
-1;
#X obj 619 352 bng 19 100 50 0 empty 3k empty 17 7 0 10 -1 -228856
-1;
#X obj 619 371 bng 19 100 50 0 empty empty empty 17 7 0 10 -1 -228856
-1;
#X obj 656 333 bng 25 100 50 0 empty 3m empty 17 7 0 10 -262144 -49933
-1;
#X obj 656 358 bng 25 100 50 0 empty empty empty 17 7 0 10 -262144
-49933 -1;
#X obj 656 383 bng 25 100 50 0 empty empty empty 17 7 0 10 -262144
-49933 -1;
#X obj 656 408 bng 25 100 50 0 empty empty empty 17 7 0 10 -262144
-49933 -1;
#X obj 683 333 bng 25 100 50 0 empty 3o empty 17 7 0 10 -262144 -49933
-1;
#X obj 683 358 bng 25 100 50 0 empty empty empty 17 7 0 10 -262144
-49933 -1;
#X obj 683 383 bng 25 100 50 0 empty empty empty 17 7 0 10 -262144
-49933 -1;
#X obj 683 408 bng 25 100 50 0 empty empty empty 17 7 0 10 -262144
-49933 -1;
#X obj 710 333 bng 25 100 50 0 empty 3q empty 17 7 0 10 -262144 -49933
-1;
#X obj 710 358 bng 25 100 50 0 empty empty empty 17 7 0 10 -262144
-49933 -1;
#X obj 710 383 bng 25 100 50 0 empty empty empty 17 7 0 10 -262144
-49933 -1;
#X obj 710 408 bng 25 100 50 0 empty empty empty 17 7 0 10 -262144
-49933 -1;
#X obj 737 333 bng 25 100 50 0 empty 3r empty 17 7 0 10 -262144 -49933
-1;
#X obj 737 358 bng 25 100 50 0 empty empty empty 17 7 0 10 -262144
-49933 -1;
#X obj 737 383 bng 25 100 50 0 empty empty empty 17 7 0 10 -262144
-49933 -1;
#X obj 737 408 bng 25 100 50 0 empty empty empty 17 7 0 10 -262144
-49933 -1;
#X obj 764 333 bng 25 100 50 0 empty 3t empty 17 7 0 10 -262144 -49933
-1;
#X obj 764 358 bng 25 100 50 0 empty empty empty 17 7 0 10 -262144
-49933 -1;
#X obj 764 383 bng 25 100 50 0 empty empty empty 17 7 0 10 -262144
-49933 -1;
#X obj 764 408 bng 25 100 50 0 empty empty empty 17 7 0 10 -262144
-49933 -1;
#X obj 791 333 bng 25 100 50 0 empty 3v empty 17 7 0 10 -262144 -49933
-1;
#X obj 791 358 bng 25 100 50 0 empty empty empty 17 7 0 10 -262144
-49933 -1;
#X obj 791 383 bng 25 100 50 0 empty empty empty 17 7 0 10 -262144
-49933 -1;
#X obj 791 408 bng 25 100 50 0 empty empty empty 17 7 0 10 -262144
-49933 -1;
#X obj 818 333 bng 25 100 50 0 empty 3x empty 17 7 0 10 -262144 -49933
-1;
#X obj 818 358 bng 25 100 50 0 empty empty empty 17 7 0 10 -262144
-49933 -1;
#X obj 818 383 bng 25 100 50 0 empty empty empty 17 7 0 10 -262144
-49933 -1;
#X obj 818 408 bng 25 100 50 0 empty empty empty 17 7 0 10 -262144
-49933 -1;
#X obj 673 333 bng 19 100 50 0 empty 3n empty 17 7 0 10 -1 -228856
-1;
#X obj 673 352 bng 19 100 50 0 empty empty empty 17 7 0 10 -1 -228856
-1;
#X obj 673 371 bng 19 100 50 0 empty empty empty 17 7 0 10 -1 -228856
-1;
#X obj 700 333 bng 19 100 50 0 empty 3p empty 17 7 0 10 -1 -228856
-1;
#X obj 700 352 bng 19 100 50 0 empty empty empty 17 7 0 10 -1 -228856
-1;
#X obj 700 371 bng 19 100 50 0 empty empty empty 17 7 0 10 -1 -228856
-1;
#X obj 781 333 bng 19 100 50 0 empty 3u empty 17 7 0 10 -1 -228856
-1;
#X obj 781 352 bng 19 100 50 0 empty empty empty 17 7 0 10 -1 -228856
-1;
#X obj 781 371 bng 19 100 50 0 empty empty empty 17 7 0 10 -1 -228856
-1;
#X obj 754 333 bng 19 100 50 0 empty 3s empty 17 7 0 10 -1 -228856
-1;
#X obj 754 352 bng 19 100 50 0 empty empty empty 17 7 0 10 -1 -228856
-1;
#X obj 754 371 bng 19 100 50 0 empty empty empty 17 7 0 10 -1 -228856
-1;
#X obj 808 333 bng 19 100 50 0 empty 3w empty 17 7 0 10 -1 -228856
-1;
#X obj 808 352 bng 19 100 50 0 empty empty empty 17 7 0 10 -1 -228856
-1;
#X obj 808 371 bng 19 100 50 0 empty empty empty 17 7 0 10 -1 -228856
-1;
#X obj 845 333 bng 25 100 50 0 empty 3y empty 17 7 0 10 -262144 -49933
-1;
#X obj 845 358 bng 25 100 50 0 empty empty empty 17 7 0 10 -262144
-49933 -1;
#X obj 845 383 bng 25 100 50 0 empty empty empty 17 7 0 10 -262144
-49933 -1;
#X obj 845 408 bng 25 100 50 0 empty empty empty 17 7 0 10 -262144
-49933 -1;
#X obj 872 333 bng 25 100 50 0 empty 4a empty 17 7 0 10 -262144 -49933
-1;
#X obj 872 358 bng 25 100 50 0 empty empty empty 17 7 0 10 -262144
-49933 -1;
#X obj 872 383 bng 25 100 50 0 empty empty empty 17 7 0 10 -262144
-49933 -1;
#X obj 872 408 bng 25 100 50 0 empty empty empty 17 7 0 10 -262144
-49933 -1;
#X obj 899 333 bng 25 100 50 0 empty 4c empty 17 7 0 10 -262144 -49933
-1;
#X obj 899 358 bng 25 100 50 0 empty empty empty 17 7 0 10 -262144
-49933 -1;
#X obj 899 383 bng 25 100 50 0 empty empty empty 17 7 0 10 -262144
-49933 -1;
#X obj 899 408 bng 25 100 50 0 empty empty empty 17 7 0 10 -262144
-49933 -1;
#X obj 926 333 bng 25 100 50 0 empty 4d empty 17 7 0 10 -262144 -49933
-1;
#X obj 926 358 bng 25 100 50 0 empty empty empty 17 7 0 10 -262144
-49933 -1;
#X obj 926 383 bng 25 100 50 0 empty empty empty 17 7 0 10 -262144
-49933 -1;
#X obj 926 408 bng 25 100 50 0 empty empty empty 17 7 0 10 -262144
-49933 -1;
#X obj 953 333 bng 25 100 50 0 empty 4f empty 17 7 0 10 -262144 -49933
-1;
#X obj 953 358 bng 25 100 50 0 empty empty empty 17 7 0 10 -262144
-49933 -1;
#X obj 953 383 bng 25 100 50 0 empty empty empty 17 7 0 10 -262144
-49933 -1;
#X obj 953 408 bng 25 100 50 0 empty empty empty 17 7 0 10 -262144
-49933 -1;
#X obj 980 333 bng 25 100 50 0 empty 4h empty 17 7 0 10 -262144 -49933
-1;
#X obj 980 358 bng 25 100 50 0 empty empty empty 17 7 0 10 -262144
-49933 -1;
#X obj 980 383 bng 25 100 50 0 empty empty empty 17 7 0 10 -262144
-49933 -1;
#X obj 980 408 bng 25 100 50 0 empty empty empty 17 7 0 10 -262144
-49933 -1;
#X obj 1007 333 bng 25 100 50 0 empty 4j empty 17 7 0 10 -262144 -49933
-1;
#X obj 1007 358 bng 25 100 50 0 empty empty empty 17 7 0 10 -262144
-49933 -1;
#X obj 1007 383 bng 25 100 50 0 empty empty empty 17 7 0 10 -262144
-49933 -1;
#X obj 1007 408 bng 25 100 50 0 empty empty empty 17 7 0 10 -262144
-49933 -1;
#X obj 862 333 bng 19 100 50 0 empty 3z empty 17 7 0 10 -1 -228856
-1;
#X obj 862 352 bng 19 100 50 0 empty empty empty 17 7 0 10 -1 -228856
-1;
#X obj 862 371 bng 19 100 50 0 empty empty empty 17 7 0 10 -1 -228856
-1;
#X obj 889 333 bng 19 100 50 0 empty 4b empty 17 7 0 10 -1 -228856
-1;
#X obj 889 352 bng 19 100 50 0 empty empty empty 17 7 0 10 -1 -228856
-1;
#X obj 889 371 bng 19 100 50 0 empty empty empty 17 7 0 10 -1 -228856
-1;
#X obj 970 333 bng 19 100 50 0 empty 4g empty 17 7 0 10 -1 -228856
-1;
#X obj 970 352 bng 19 100 50 0 empty empty empty 17 7 0 10 -1 -228856
-1;
#X obj 970 371 bng 19 100 50 0 empty empty empty 17 7 0 10 -1 -228856
-1;
#X obj 943 333 bng 19 100 50 0 empty 4e empty 17 7 0 10 -1 -228856
-1;
#X obj 943 352 bng 19 100 50 0 empty empty empty 17 7 0 10 -1 -228856
-1;
#X obj 943 371 bng 19 100 50 0 empty empty empty 17 7 0 10 -1 -228856
-1;
#X obj 997 333 bng 19 100 50 0 empty 4i empty 17 7 0 10 -1 -228856
-1;
#X obj 997 352 bng 19 100 50 0 empty empty empty 17 7 0 10 -1 -228856
-1;
#X obj 997 371 bng 19 100 50 0 empty empty empty 17 7 0 10 -1 -228856
-1;
#X obj 732 245 bng 50 250 50 0 clear a X 13 25 0 40 -1 -262144 -258113
;
#X obj 732 143 bng 50 250 50 0 embed o . -6 -48 2 250 -1 -258113 -258113
;
#X obj 681 194 bng 50 900 50 0 anal u > 5 25 2 70 -1 -66577 -262144
;
#X floatatom 741 211 5 1 128 3 - in instrument;
#X text 740 293 clear;
#X obj 783 194 bng 50 900 50 0 fast p >> 5 25 2 37 -1 -66577 -262144
;
#N canvas 132 79 1114 462 tutorial 0;
#X obj 321 -179 bng 50 900 50 0 empty empty STOP 6 25 0 16 -258113
-66577 -1;
#X obj 86 -180 bng 50 900 50 0 empty empty Change_Ringing 0 15 0 14
-1 -262144 -2113;
#X obj 35 -130 bng 50 900 50 0 empty empty :) 10 22 0 20 -262144 -1
-1;
#X obj 137 -129 bng 50 900 50 0 empty empty :( 10 22 0 20 -1 -262144
-262144;
#X obj 843 -76 bng 50 250 50 0 clear a X 13 25 0 40 -1 -262144 -258113
;
#X obj 843 -179 bng 50 250 50 0 embed o . -6 -48 2 250 -1 -258113 -258113
;
#X obj 560 -179 bng 50 900 50 0 anal u > 5 25 2 70 -1 -66577 -262144
;
#X floatatom 715 -144 5 1 128 3 - - -;
#X text 850 -27 clear;
#X obj 560 -76 bng 50 900 50 0 fast p >> 5 25 2 37 -1 -66577 -262144
;
#X text 800 -98 Clears new Markov chain.;
#X text 19 -207 Plays pre-embeded Markov chains.;
#X text 295 -207 Stops all music.;
#X text 470 -98 Plays original Markov chain at 4x speed.;
#X text 637 -129 Instrument for original chain.;
#X text 760 -207 Embeds the newly created Markov chain.;
#X text 476 -207 Plays the newly created Markov chain.;
#X restore 526 227 pd tutorial;
#N canvas 364 80 667 653 | 0;
#X floatatom 151 456 5 0 0 0 - - -;
#X floatatom 151 426 5 0 0 0 - - -;
#X floatatom 188 426 5 0 0 0 - - -;
#X obj 151 479 makenote;
#X obj 325 379 loadbang;
#X floatatom 317 485 5 0 0 0 - - -;
#X obj 47 32 bng 30 250 50 0 empty :) empty 17 7 0 10 -262144 -1 -1
;
#X msg 8 171 stop;
#X msg 151 403 100;
#X msg 7 271 0 7 1;
#X msg 7 291 0 12 1;
#X msg 53 271 7 0 1;
#X msg 99 271 12 0 1;
#X msg 7 251 embed 1;
#X obj 37 351 expr $f1 + $f2;
#X obj 47 319 prob;
#C 0 7 1;
#C 0 12 1;
#C 7 0 1;
#C 7 12 1;
#C 12 0 1;
#C 12 7 1;
#C embed 1;
#C restore;
#X obj 317 512 pgmout 1;
#X msg 420 259 embed 1;
#X obj 343 276 prob;
#C 0 2 1;
#C 0 4 1;
#C 0 6 1;
#C 0 7 1;
#C 2 0 1;
#C 2 4 1;
#C 2 6 1;
#C 2 7 1;
#C 4 0 1;
#C 4 2 1;
#C 4 6 1;
#C 4 7 1;
#C 6 0 1;
#C 6 2 1;
#C 6 4 1;
#C 6 7 1;
#C 7 0 1;
#C 7 2 1;
#C 7 4 1;
#C 7 6 1;
#C embed 1;
#C restore;
#X msg 380 172 0 2 1;
#X msg 380 192 0 4 1;
#X msg 380 212 0 6 1;
#X msg 380 232 0 7 1;
#X msg 420 172 2 2 1;
#X msg 420 192 2 4 1;
#X msg 420 213 2 6 1;
#X msg 420 232 2 7 1;
#X msg 460 172 4 2 1;
#X msg 460 192 4 4 1;
#X msg 460 212 4 6 1;
#X msg 460 232 4 7 1;
#X msg 500 172 6 2 1;
#X msg 500 192 6 4 1;
#X msg 500 212 6 6 1;
#X msg 500 232 6 7 1;
#X msg 540 172 7 2 1;
#X msg 540 192 7 4 1;
#X msg 540 212 7 6 1;
#X msg 540 232 7 7 1;
#X msg 420 152 2 0 1;
#X msg 460 152 4 0 1;
#X msg 500 152 6 0 1;
#X msg 540 152 7 0 1;
#X floatatom 225 457 5 0 0 0 - - -;
#X floatatom 225 427 5 0 0 0 - - -;
#X floatatom 262 427 5 0 0 0 - - -;
#X obj 225 480 makenote;
#X obj 151 510 noteout;
#X msg 380 152 0 0 1;
#X msg 420 279 clear;
#X msg 225 404 60;
#X obj 118 246 + 42;
#X msg 99 291 12 7 1;
#X msg 53 291 7 12 1;
#X msg 93 318 clear;
#X obj 118 222 prob;
#C 7 6 1;
#C 7 4 1;
#C 7 2 1;
#C 7 0 1;
#C 6 7 1;
#C 6 4 1;
#C 6 2 1;
#C 6 0 1;
#C 4 7 1;
#C 4 6 1;
#C 4 2 1;
#C 4 0 1;
#C 2 7 1;
#C 2 6 1;
#C 2 4 1;
#C 2 0 1;
#C 0 7 1;
#C 0 6 1;
#C 0 4 1;
#C 0 2 1;
#C embed 1;
#C restore;
#X floatatom 371 489 5 0 0 0 - - -;
#X msg 362 461 1;
#X msg 188 404 14;
#X msg 262 405 14;
#X obj 118 200 metro 1800;
#X obj 47 196 metro 600;
#X obj 201 196 metro 200;
#X msg 235 146 100;
#X obj 200 32 counter 0 1 100;
#X msg 200 145 200;
#X msg 317 464 46;
#X msg 268 146 300;
#X obj 343 345 expr $f1 + $f2;
#X obj 173 254 expr $f1 + 66;
#X obj 208 84 random 3;
#X obj 208 115 select 0 1 2;
#X msg 1044 234 0 6 1;
#X msg 1044 174 0 1 1;
#X msg 1044 194 0 3 1;
#X msg 1044 214 0 4 1;
#X msg 1044 254 0 8 1;
#X msg 1083 174 1 0 1;
#X msg 1083 194 1 3 1;
#X msg 1083 214 1 4 1;
#X msg 1083 234 1 6 1;
#X msg 1083 254 1 8 1;
#X msg 1122 174 3 0 1;
#X msg 1122 194 3 1 1;
#X msg 1122 214 3 4 1;
#X msg 1122 234 3 6 1;
#X msg 1122 254 3 8 1;
#X msg 1161 174 4 0 1;
#X msg 1161 194 4 1 1;
#X msg 1161 214 4 3 1;
#X msg 1161 234 4 6 1;
#X msg 1161 254 4 8 1;
#X msg 1200 174 6 0 1;
#X msg 1200 194 6 1 1;
#X msg 1200 214 6 3 1;
#X msg 1200 234 6 4 1;
#X msg 1200 254 6 8 1;
#X msg 1239 174 8 0 1;
#X msg 1239 194 8 1 1;
#X msg 1239 214 8 3 1;
#X msg 1239 234 8 4 1;
#X msg 1239 254 8 6 1;
#X msg 1111 276 embed 1;
#X obj 1034 293 prob;
#C 8 6 1;
#C 8 4 1;
#C 8 3 1;
#C 8 1 1;
#C 6 8 1;
#C 6 4 1;
#C 6 3 1;
#C 6 1 1;
#C 4 8 1;
#C 4 6 1;
#C 4 3 1;
#C 4 1 1;
#C 3 8 1;
#C 3 6 1;
#C 3 4 1;
#C 3 1 1;
#C 1 8 1;
#C 1 6 1;
#C 1 4 1;
#C 1 3 1;
#C embed 1;
#C restore;
#X msg 1112 296 clear;
#X obj 678 54 bng 30 250 50 0 empty change empty 17 7 0 10 -262144
-1 -1;
#X msg 638 187 stop;
#X obj 675 332 expr $f1 + $f2;
#X obj 748 238 prob;
#C 0 2 1;
#C 0 4 1;
#C 0 6 1;
#C 0 7 1;
#C 2 0 1;
#C 2 4 1;
#C 2 6 1;
#C 2 7 1;
#C 4 0 1;
#C 4 2 1;
#C 4 6 1;
#C 4 7 1;
#C 6 0 1;
#C 6 2 1;
#C 6 4 1;
#C 6 7 1;
#C 7 0 1;
#C 7 2 1;
#C 7 4 1;
#C 7 6 1;
#C embed 1;
#C restore;
#X obj 748 216 metro 1800;
#X obj 822 203 metro 200;
#X msg 830 161 200;
#X obj 803 270 expr $f1 + 66;
#X obj 838 107 random 3;
#X floatatom 838 437 5 0 0 0 - - -;
#X floatatom 838 407 5 0 0 0 - - -;
#X floatatom 875 407 5 0 0 0 - - -;
#X obj 838 460 makenote;
#X obj 1012 360 loadbang;
#X floatatom 1004 466 5 0 0 0 - - -;
#X obj 1004 493 pgmout 1;
#X floatatom 912 438 5 0 0 0 - - -;
#X floatatom 912 408 5 0 0 0 - - -;
#X floatatom 949 408 5 0 0 0 - - -;
#X obj 912 461 makenote;
#X obj 838 491 noteout;
#X floatatom 1058 470 5 0 0 0 - - -;
#X msg 949 386 14;
#X obj 1034 332 expr $f1 + $f2;
#X msg 1049 442 2;
#X msg 1261 608 embed 1;
#X obj 1217 632 prob;
#C embed 1;
#C restore;
#X msg 1261 629 clear;
#X obj 678 302 prob;
#C 7 3 1;
#C 7 0 1;
#C 3 7 1;
#C 3 0 1;
#C 0 7 1;
#C 0 3 1;
#C embed 1;
#C restore;
#X obj 984 304 prob;
#C 2 7 1;
#C 2 5 1;
#C 2 3 1;
#C 2 0 1;
#C 3 0 1;
#C 3 2 1;
#C 3 5 1;
#C 3 7 1;
#C 5 7 1;
#C 5 3 1;
#C 5 2 1;
#C 5 0 1;
#C 7 0 1;
#C 7 2 1;
#C 7 3 1;
#C 7 5 1;
#C 0 2 1;
#C 0 3 1;
#C 0 5 1;
#C 0 7 1;
#C embed 1;
#C restore;
#X msg 875 385 14;
#X obj 838 131 select 0 1;
#X msg 838 384 95;
#X msg 912 385 90;
#X msg 872 161 300;
#X obj 678 212 metro 200;
#X floatatom 1464 488 5 0 0 0 - - -;
#X floatatom 1464 458 5 0 0 0 - - -;
#X floatatom 1501 458 5 0 0 0 - - -;
#X obj 1464 511 makenote;
#X obj 1638 411 loadbang;
#X floatatom 1630 517 5 0 0 0 - - -;
#X obj 1410 157 bng 30 250 50 0 empty :( empty 17 7 0 10 -262144 -1
-1;
#X msg 1371 192 stop;
#X msg 1464 435 100;
#X msg 1370 292 0 7 1;
#X msg 1370 312 0 12 1;
#X msg 1416 292 7 0 1;
#X msg 1462 292 12 0 1;
#X msg 1370 272 embed 1;
#X obj 1400 372 expr $f1 + $f2;
#X obj 1410 340 prob;
#C 0 12 1;
#C 0 7 1;
#C 12 7 1;
#C 12 0 1;
#C 7 0 1;
#C 7 12 1;
#C embed 1;
#C restore;
#X obj 1630 544 pgmout 1;
#X msg 1733 271 embed 1;
#X obj 1693 285 prob;
#C 7 6 1;
#C 7 4 1;
#C 7 2 1;
#C 7 0 1;
#C 6 7 1;
#C 6 4 1;
#C 6 2 1;
#C 6 0 1;
#C 4 7 1;
#C 4 6 1;
#C 4 2 1;
#C 4 0 1;
#C 2 7 1;
#C 2 6 1;
#C 2 4 1;
#C 2 0 1;
#C 0 7 1;
#C 0 6 1;
#C 0 4 1;
#C 0 2 1;
#C embed 1;
#C restore;
#X msg 1693 184 0 2 1;
#X msg 1693 204 0 4 1;
#X msg 1693 224 0 6 1;
#X msg 1693 244 0 7 1;
#X msg 1733 184 2 2 1;
#X msg 1733 204 2 4 1;
#X msg 1733 225 2 6 1;
#X msg 1733 244 2 7 1;
#X msg 1773 184 4 2 1;
#X msg 1773 204 4 4 1;
#X msg 1773 224 4 6 1;
#X msg 1773 244 4 7 1;
#X msg 1813 184 6 2 1;
#X msg 1813 204 6 4 1;
#X msg 1813 224 6 6 1;
#X msg 1813 244 6 7 1;
#X msg 1853 184 7 2 1;
#X msg 1853 204 7 4 1;
#X msg 1853 224 7 6 1;
#X msg 1853 244 7 7 1;
#X msg 1733 164 2 0 1;
#X msg 1773 164 4 0 1;
#X msg 1813 164 6 0 1;
#X msg 1853 164 7 0 1;
#X floatatom 1538 489 5 0 0 0 - - -;
#X floatatom 1538 459 5 0 0 0 - - -;
#X floatatom 1575 459 5 0 0 0 - - -;
#X obj 1538 512 makenote;
#X obj 1464 542 noteout;
#X msg 1693 164 0 0 1;
#X msg 1733 291 clear;
#X msg 1538 436 60;
#X msg 1462 312 12 7 1;
#X msg 1416 312 7 12 1;
#X msg 1456 339 clear;
#X floatatom 1684 521 5 0 0 0 - - -;
#X obj 1410 217 metro 600;
#X obj 1563 217 metro 200;
#X msg 1171 545 0 1 1;
#X msg 1171 565 0 3 1;
#X msg 1171 585 0 5 1;
#X msg 1251 545 3 0 1;
#X msg 1291 545 5 0 1;
#X msg 1211 545 1 0 1;
#X msg 1211 565 1 3 1;
#X msg 1211 585 1 5 1;
#X msg 1251 565 3 1 1;
#X msg 1251 585 3 5 1;
#X msg 1291 565 5 1 1;
#X msg 1291 585 5 3 1;
#X obj 1481 241 prob;
#C 5 3 1;
#C 5 1 1;
#C 5 0 1;
#C 3 5 1;
#C 3 1 1;
#C 3 0 1;
#C 1 5 1;
#C 1 3 1;
#C 1 0 1;
#C 0 5 1;
#C 0 3 1;
#C 0 1 1;
#C embed 1;
#C restore;
#X obj 1481 267 + 45;
#X msg 1263 490 embed 1;
#X obj 1219 514 prob;
#C 1 0 1;
#C 1 8 1;
#C 0 1 1;
#C 0 8 1;
#C 8 1 1;
#C 8 0 1;
#C embed 1;
#C restore;
#X msg 1263 511 clear;
#X msg 1173 467 0 8 1;
#X msg 1213 467 1 8 1;
#X msg 1253 447 8 1 1;
#X msg 1173 447 0 1 1;
#X msg 1213 447 1 0 1;
#X msg 1253 467 8 0 1;
#X obj 1656 283 prob;
#C 8 0 1;
#C 8 1 1;
#C 0 8 1;
#C 0 1 1;
#C 1 8 1;
#C 1 0 1;
#C embed 1;
#C restore;
#X msg 1675 493 3;
#X obj 1656 357 expr $f1 + 64;
#X msg 1575 437 109;
#X msg 1501 436 90;
#X msg 1004 445 15;
#X msg 1630 496 47;
#X obj 201 52 select 3;
#X obj 748 262 + 54;
#X obj 821 54 counter 0 1 100;
#X obj 822 74 select 3;
#X obj 1481 221 metro 1800;
#X obj 634 605 - 36;
#X obj 766 605 - 60;
#N canvas 58 132 1230 261 wirelesslefthand 0;
#X obj 373 153 bng 25 100 50 0 1a empty empty 17 7 0 10 -262144 -49933
-1;
#X obj 420 153 bng 25 100 50 0 1c empty empty 17 7 0 10 -262144 -49933
-1;
#X obj 466 153 bng 25 100 50 0 1e empty empty 17 7 0 10 -262144 -49933
-1;
#X obj 492 153 bng 25 100 50 0 1f empty empty 17 7 0 10 -262144 -49933
-1;
#X obj 538 153 bng 25 100 50 0 1h empty empty 17 7 0 10 -262144 -49933
-1;
#X obj 585 152 bng 25 100 50 0 1j empty empty 17 7 0 10 -262144 -49933
-1;
#X obj 632 153 bng 25 100 50 0 1l empty empty 17 7 0 10 -262144 -49933
-1;
#X obj 399 153 bng 19 100 50 0 1b empty empty 17 7 0 10 -1 -228856
-1;
#X obj 444 153 bng 19 100 50 0 1d empty empty 17 7 0 10 -1 -228856
-1;
#X obj 564 153 bng 19 100 50 0 1i empty empty 17 7 0 10 -1 -228856
-1;
#X obj 518 153 bng 19 100 50 0 1g empty empty 17 7 0 10 -1 -228856
-1;
#X obj 611 152 bng 19 100 50 0 1k empty empty 17 7 0 10 -1 -228856
-1;
#X obj 659 153 bng 25 100 50 0 1m empty empty 17 7 0 10 -262144 -49933
-1;
#X obj 705 153 bng 25 100 50 0 1o empty empty 17 7 0 10 -262144 -49933
-1;
#X obj 750 153 bng 25 100 50 0 1q empty empty 17 7 0 10 -262144 -49933
-1;
#X obj 777 153 bng 25 100 50 0 1r empty empty 17 7 0 10 -262144 -49933
-1;
#X obj 824 153 bng 25 100 50 0 1t empty empty 17 7 0 10 -262144 -49933
-1;
#X obj 870 152 bng 25 100 50 0 1v empty empty 17 7 0 10 -262144 -49933
-1;
#X obj 916 151 bng 25 100 50 0 1x empty empty 17 7 0 10 -262144 -49933
-1;
#X obj 685 153 bng 19 100 50 0 1n empty empty 17 7 0 10 -1 -228856
-1;
#X obj 731 153 bng 19 100 50 0 1p empty empty 17 7 0 10 -1 -228856
-1;
#X obj 850 152 bng 19 100 50 0 1u empty empty 17 7 0 10 -1 -228856
-1;
#X obj 804 153 bng 19 100 50 0 1s empty empty 17 7 0 10 -1 -228856
-1;
#X obj 896 151 bng 19 100 50 0 1w empty empty 17 7 0 10 -1 -228856
-1;
#X obj 943 151 bng 25 100 50 0 1y empty empty 17 7 0 10 -262144 -49933
-1;
#X obj 989 153 bng 25 100 50 0 2a empty empty 17 7 0 10 -262144 -49933
-1;
#X obj 1036 153 bng 25 100 50 0 2c empty empty 17 7 0 10 -262144 -49933
-1;
#X obj 1064 153 bng 25 100 50 0 2d empty empty 17 7 0 10 -262144 -49933
-1;
#X obj 1107 151 bng 25 100 50 0 2f empty empty 17 7 0 10 -262144 -49933
-1;
#X obj 1152 152 bng 25 100 50 0 2h empty empty 17 7 0 10 -262144 -49933
-1;
#X obj 1199 153 bng 25 100 50 0 2j empty empty 17 7 0 10 -262144 -49933
-1;
#X obj 967 151 bng 19 100 50 0 1z empty empty 17 7 0 10 -1 -228856
-1;
#X obj 1015 152 bng 19 100 50 0 2b empty empty 17 7 0 10 -1 -228856
-1;
#X obj 1131 151 bng 19 100 50 0 2g empty empty 17 7 0 10 -1 -228856
-1;
#X obj 1088 152 bng 19 100 50 0 2e empty empty 17 7 0 10 -1 -228856
-1;
#X obj 1179 152 bng 19 100 50 0 2i empty empty 17 7 0 10 -1 -228856
-1;
#X obj 646 80 select 0 1 2 3 4 5 6 7 8 9 10 11 12 13 14 15 16 17 18
19 20 21 22 23 24 25 26 27 28 29 30 31 32 33 34 35;
#X obj 643 51 inlet;
#X connect 36 0 0 0;
#X connect 36 1 7 0;
#X connect 36 2 1 0;
#X connect 36 3 8 0;
#X connect 36 4 2 0;
#X connect 36 5 3 0;
#X connect 36 6 10 0;
#X connect 36 7 4 0;
#X connect 36 8 9 0;
#X connect 36 9 5 0;
#X connect 36 10 11 0;
#X connect 36 11 6 0;
#X connect 36 12 12 0;
#X connect 36 13 19 0;
#X connect 36 14 13 0;
#X connect 36 15 20 0;
#X connect 36 16 14 0;
#X connect 36 17 15 0;
#X connect 36 18 22 0;
#X connect 36 19 16 0;
#X connect 36 20 21 0;
#X connect 36 21 17 0;
#X connect 36 22 23 0;
#X connect 36 23 18 0;
#X connect 36 24 24 0;
#X connect 36 25 31 0;
#X connect 36 26 25 0;
#X connect 36 27 32 0;
#X connect 36 28 26 0;
#X connect 36 29 27 0;
#X connect 36 30 34 0;
#X connect 36 31 28 0;
#X connect 36 32 33 0;
#X connect 36 33 29 0;
#X connect 36 34 35 0;
#X connect 36 35 30 0;
#X connect 37 0 36 0;
#X restore 634 627 pd wirelesslefthand;
#N canvas 61 132 976 261 wirelessrighthand 0;
#X obj -478 150 bng 25 100 50 0 3a empty empty 17 7 0 10 -262144 -49933
-1;
#X obj -431 150 bng 25 100 50 0 3c empty empty 17 7 0 10 -262144 -49933
-1;
#X obj -385 150 bng 25 100 50 0 3e empty empty 17 7 0 10 -262144 -49933
-1;
#X obj -359 150 bng 25 100 50 0 3f empty empty 17 7 0 10 -262144 -49933
-1;
#X obj -313 150 bng 25 100 50 0 3h empty empty 17 7 0 10 -262144 -49933
-1;
#X obj -267 149 bng 25 100 50 0 3j empty empty 17 7 0 10 -262144 -49933
-1;
#X obj -219 150 bng 25 100 50 0 3l empty empty 17 7 0 10 -262144 -49933
-1;
#X obj -452 150 bng 19 100 50 0 3b empty empty 17 7 0 10 -1 -228856
-1;
#X obj -407 150 bng 19 100 50 0 3d empty empty 17 7 0 10 -1 -228856
-1;
#X obj -286 150 bng 19 100 50 0 3i empty empty 17 7 0 10 -1 -228856
-1;
#X obj -333 150 bng 19 100 50 0 3g empty empty 17 7 0 10 -1 -228856
-1;
#X obj -238 150 bng 19 100 50 0 3k empty empty 17 7 0 10 -1 -228856
-1;
#X obj -192 150 bng 25 100 50 0 3m empty empty 17 7 0 10 -262144 -49933
-1;
#X obj -146 150 bng 25 100 50 0 3o empty empty 17 7 0 10 -262144 -49933
-1;
#X obj -101 151 bng 25 100 50 0 3q empty empty 17 7 0 10 -262144 -49933
-1;
#X obj -74 150 bng 25 100 50 0 3r empty empty 17 7 0 10 -262144 -49933
-1;
#X obj -25 150 bng 25 100 50 0 3t empty empty 17 7 0 10 -262144 -49933
-1;
#X obj 19 148 bng 25 100 50 0 3v empty empty 17 7 0 10 -262144 -49933
-1;
#X obj 65 148 bng 25 100 50 0 3x empty empty 17 7 0 10 -262144 -49933
-1;
#X obj -166 151 bng 19 100 50 0 3n empty empty 17 7 0 10 -1 -228856
-1;
#X obj -120 150 bng 19 100 50 0 3p empty empty 17 7 0 10 -1 -228856
-1;
#X obj -1 149 bng 19 100 50 0 3u empty empty 17 7 0 10 -1 -228856 -1
;
#X obj -46 150 bng 19 100 50 0 3s empty empty 17 7 0 10 -1 -228856
-1;
#X obj 45 148 bng 19 100 50 0 3w empty empty 17 7 0 10 -1 -228856 -1
;
#X obj 92 148 bng 25 100 50 0 3y empty empty 17 7 0 10 -262144 -49933
-1;
#X obj 139 150 bng 25 100 50 0 4a empty empty 17 7 0 10 -262144 -49933
-1;
#X obj 185 150 bng 25 100 50 0 4c empty empty 17 7 0 10 -262144 -49933
-1;
#X obj 213 150 bng 25 100 50 0 4d empty empty 17 7 0 10 -262144 -49933
-1;
#X obj 256 148 bng 25 100 50 0 4f empty empty 17 7 0 10 -262144 -49933
-1;
#X obj 301 149 bng 25 100 50 0 4h empty empty 17 7 0 10 -262144 -49933
-1;
#X obj 348 150 bng 25 100 50 0 4j empty empty 17 7 0 10 -262144 -49933
-1;
#X obj 116 148 bng 19 100 50 0 3z empty empty 17 7 0 10 -1 -228856
-1;
#X obj 164 149 bng 19 100 50 0 4b empty empty 17 7 0 10 -1 -228856
-1;
#X obj 280 148 bng 19 100 50 0 4g empty empty 17 7 0 10 -1 -228856
-1;
#X obj 237 149 bng 19 100 50 0 4e empty empty 17 7 0 10 -1 -228856
-1;
#X obj 328 149 bng 19 100 50 0 4i empty empty 17 7 0 10 -1 -228856
-1;
#X obj -205 77 select 0 1 2 3 4 5 6 7 8 9 10 11 12 13 14 15 16 17 18
19 20 21 22 23 24 25 26 27 28 29 30 31 32 33 34 35;
#X obj -208 48 inlet;
#X connect 36 0 0 0;
#X connect 36 1 7 0;
#X connect 36 2 1 0;
#X connect 36 3 8 0;
#X connect 36 4 2 0;
#X connect 36 5 3 0;
#X connect 36 6 10 0;
#X connect 36 7 4 0;
#X connect 36 8 9 0;
#X connect 36 9 5 0;
#X connect 36 10 11 0;
#X connect 36 11 6 0;
#X connect 36 12 12 0;
#X connect 36 13 19 0;
#X connect 36 14 13 0;
#X connect 36 15 20 0;
#X connect 36 16 14 0;
#X connect 36 17 15 0;
#X connect 36 18 22 0;
#X connect 36 19 16 0;
#X connect 36 20 21 0;
#X connect 36 21 17 0;
#X connect 36 22 23 0;
#X connect 36 23 18 0;
#X connect 36 24 24 0;
#X connect 36 25 31 0;
#X connect 36 26 25 0;
#X connect 36 27 32 0;
#X connect 36 28 26 0;
#X connect 36 29 27 0;
#X connect 36 30 34 0;
#X connect 36 31 28 0;
#X connect 36 32 33 0;
#X connect 36 33 29 0;
#X connect 36 34 35 0;
#X connect 36 35 30 0;
#X connect 37 0 36 0;
#X restore 766 627 pd wirelessrighthand;
#X obj 1225 23 bng 15 250 50 0 empty stop empty 17 7 0 10 -258113 -1
-1;
#X obj 2116 383 anal;
#X obj 2191 384 anal;
#X floatatom 2116 502 5 0 0 0 - - -;
#X floatatom 2116 472 5 0 0 0 - - -;
#X floatatom 2153 472 5 0 0 0 - - -;
#X obj 2116 525 makenote;
#X obj 2290 425 loadbang;
#X floatatom 2284 536 5 0 0 0 - instrument -;
#X obj 2040 78 bng 30 250 50 0 empty anal empty 17 7 0 10 -262144 -1
-1;
#X msg 1953 189 stop;
#X msg 2116 449 100;
#X obj 2282 558 pgmout 1;
#X floatatom 2190 503 5 0 0 0 - - -;
#X floatatom 2190 473 5 0 0 0 - - -;
#X floatatom 2227 473 5 0 0 0 - - -;
#X obj 2190 526 makenote;
#X obj 2116 556 noteout;
#X msg 2190 450 60;
#X floatatom 2336 535 5 0 0 0 - - -;
#X obj 2040 233 metro 600;
#X obj 2215 231 metro 200;
#X obj 2226 177 select 0 1 2;
#X msg 2276 199 100;
#X msg 2227 451 109;
#X msg 2153 450 90;
#X obj 2133 235 metro 1800;
#X msg 2327 507 4;
#X obj 2116 410 prob;
#C 51 46 1;
#C 51 44 4;
#C 51 56 1;
#C 51 58 1;
#C 45 60 1;
#C 45 57 2;
#C 45 52 1;
#C 54 42 3;
#C 54 49 4;
#C 54 46 1;
#C 54 44 1;
#C 54 51 1;
#C 54 53 1;
#C 54 57 1;
#C 50 57 1;
#C 50 62 2;
#C 50 55 1;
#C 53 61 1;
#C 53 44 1;
#C 53 57 1;
#C 53 58 2;
#C 53 46 6;
#C 53 50 1;
#C 53 42 2;
#C 53 48 1;
#C 62 50 1;
#C 62 53 1;
#C 62 57 1;
#C 62 48 2;
#C 62 46 1;
#C 62 60 1;
#C 52 45 2;
#C 52 57 1;
#C 52 58 1;
#C 52 62 1;
#C 48 56 1;
#C 48 60 3;
#C 48 55 5;
#C 48 57 1;
#C 48 53 1;
#C 48 61 1;
#C 48 62 1;
#C 48 52 1;
#C 44 58 1;
#C 44 51 4;
#C 44 56 4;
#C 44 49 1;
#C 44 55 2;
#C 44 61 1;
#C 44 53 1;
#C 42 49 2;
#C 42 54 2;
#C 42 56 1;
#C 42 53 1;
#C 42 51 1;
#C 42 12 1;
#C 57 62 2;
#C 57 52 2;
#C 57 50 1;
#C 57 61 2;
#C 57 51 1;
#C 57 53 1;
#C 57 60 1;
#C 55 60 7;
#C 55 48 4;
#C 55 61 1;
#C 55 44 1;
#C 55 42 1;
#C 55 58 3;
#C 55 57 1;
#C 46 54 1;
#C 46 57 1;
#C 46 58 7;
#C 46 53 4;
#C 46 56 1;
#C 46 61 2;
#C 46 60 1;
#C 46 55 2;
#C 12 46 1;
#C 58 53 4;
#C 58 46 6;
#C 58 56 3;
#C 58 44 1;
#C 58 65 1;
#C 58 61 1;
#C 58 59 1;
#C 58 55 1;
#C 58 48 1;
#C 65 61 1;
#C 65 58 2;
#C 59 63 5;
#C 59 56 2;
#C 56 44 6;
#C 56 49 7;
#C 56 58 2;
#C 56 61 3;
#C 56 54 1;
#C 56 51 2;
#C 56 48 1;
#C 56 42 1;
#C 56 59 3;
#C 56 64 1;
#C 56 46 1;
#C 56 63 1;
#C 49 48 1;
#C 49 61 2;
#C 49 51 1;
#C 49 54 8;
#C 49 60 3;
#C 49 56 6;
#C 49 42 1;
#C 61 53 1;
#C 61 49 5;
#C 61 56 4;
#C 61 65 2;
#C 61 58 1;
#C 61 64 1;
#C 61 68 1;
#C 61 67 1;
#C 61 57 2;
#C 61 54 1;
#C 0 60 1;
#C 63 59 3;
#C 63 56 2;
#C 63 67 2;
#C 63 60 2;
#C 63 49 1;
#C 60 48 3;
#C 60 55 8;
#C 60 49 2;
#C 60 46 1;
#C 60 52 1;
#C 60 45 1;
#C 60 67 2;
#C 60 63 1;
#C 60 56 1;
#C 67 0 1;
#C 67 63 3;
#C 67 60 2;
#C 64 61 3;
#C 64 68 1;
#C 68 64 2;
#C embed 1;
#C restore;
#X obj 2191 411 prob;
#C 66 68 7;
#C 66 72 4;
#C 66 73 5;
#C 66 70 2;
#C 73 72 4;
#C 73 68 5;
#C 73 80 5;
#C 73 79 1;
#C 73 77 6;
#C 73 75 8;
#C 73 70 12;
#C 73 66 1;
#C 73 74 1;
#C 73 76 1;
#C 68 70 11;
#C 68 66 4;
#C 68 75 7;
#C 68 72 9;
#C 68 77 3;
#C 68 73 4;
#C 68 74 7;
#C 77 70 5;
#C 77 76 6;
#C 77 72 4;
#C 77 79 11;
#C 77 80 5;
#C 77 75 6;
#C 77 73 7;
#C 77 74 3;
#C 77 77 2;
#C 77 65 1;
#C 80 72 1;
#C 80 75 8;
#C 80 73 4;
#C 80 79 4;
#C 80 77 7;
#C 80 76 1;
#C 75 72 4;
#C 75 74 4;
#C 75 80 6;
#C 75 79 8;
#C 75 68 9;
#C 75 70 9;
#C 75 77 7;
#C 75 73 4;
#C 75 76 1;
#C 79 74 2;
#C 79 73 4;
#C 79 80 7;
#C 79 75 4;
#C 79 72 4;
#C 79 76 6;
#C 79 78 7;
#C 79 77 7;
#C 79 68 1;
#C 79 70 1;
#C 74 75 5;
#C 74 76 5;
#C 74 72 19;
#C 74 77 2;
#C 74 79 4;
#C 74 70 9;
#C 74 68 4;
#C 74 78 3;
#C 74 73 1;
#C 76 72 13;
#C 76 77 7;
#C 76 70 6;
#C 76 74 7;
#C 76 79 3;
#C 76 78 4;
#C 76 76 1;
#C 76 80 1;
#C 76 75 1;
#C 70 73 11;
#C 70 77 5;
#C 70 74 8;
#C 70 75 6;
#C 70 76 9;
#C 70 68 10;
#C 70 72 16;
#C 70 66 8;
#C 70 79 2;
#C 70 80 1;
#C 78 72 3;
#C 78 75 1;
#C 78 79 4;
#C 78 74 5;
#C 78 76 4;
#C 78 70 1;
#C 72 79 6;
#C 72 78 4;
#C 72 74 14;
#C 72 73 4;
#C 72 76 9;
#C 72 70 20;
#C 72 65 32;
#C 72 64 30;
#C 72 75 6;
#C 72 66 5;
#C 72 68 9;
#C 72 77 4;
#C 72 72 1;
#C 65 72 30;
#C 65 64 27;
#C 64 72 33;
#C 64 65 24;
#C embed 1;
#C restore;
#X msg 2032 482 embed 1;
#X msg 2033 450 clear;
#X obj 2033 413 bng 30 250 50 0 empty clear X 8 16 0 25 -1 -262144
-258113;
#X obj 2226 155 random 3;
#X obj 2050 169 select 0 1 2;
#X obj 2050 146 random 3;
#X msg 2042 196 200;
#X msg 2101 196 600;
#X obj 1971 432 bng 50 250 50 0 empty embed save! 1 23 0 17 -45076
-262144 -257985;
#X msg 2072 196 600;
#X obj 2428 82 bng 30 250 50 0 empty fast empty 17 7 0 10 -262144 -1
-1;
#X msg 2390 190 stop;
#X obj 2614 176 select 0 1 2;
#X obj 2614 154 random 3;
#X obj 2438 164 select 0 1 2;
#X obj 2438 141 random 3;
#X msg 2430 191 50;
#X msg 2460 191 150;
#X msg 2489 191 150;
#X obj 2428 228 metro 150;
#X obj 2521 230 metro 450;
#X obj 2603 230 metro 50;
#X msg 2604 199 75;
#X msg 2635 199 50;
#X msg 2663 198 25;
#X obj 566 307 key;
#X floatatom 511 327 5 0 0 0 - - -;
#X obj 507 396 bng 15 250 50 0 q empty empty 17 7 0 10 -262144 -1 -1
;
#X obj 534 396 bng 15 250 50 0 w empty empty 17 7 0 10 -262144 -1 -1
;
#X obj 561 396 bng 15 250 50 0 e empty empty 17 7 0 10 -262144 -1 -1
;
#X obj 589 396 bng 15 250 50 0 r empty empty 17 7 0 10 -262144 -1 -1
;
#X obj 616 396 bng 15 250 50 0 u empty empty 17 7 0 10 -262144 -1 -1
;
#X obj 643 396 bng 15 250 50 0 o empty empty 17 7 0 10 -262144 -1 -1
;
#X obj 671 396 bng 15 250 50 0 p empty empty 17 7 0 10 -262144 -1 -1
;
#X obj 698 396 bng 15 250 50 0 a empty empty 17 7 0 10 -262144 -1 -1
;
#X msg 2282 510 4;
#X msg 2247 199 300;
#X msg 2218 199 300;
#X obj 507 365 select 97 119 100 115 106 105 108 107;
#X connect 0 0 3 0;
#X connect 0 0 233 0;
#X connect 0 0 238 0;
#X connect 1 0 3 1;
#X connect 2 0 3 2;
#X connect 3 0 47 0;
#X connect 3 1 47 1;
#X connect 4 0 57 0;
#X connect 4 0 66 0;
#X connect 4 0 8 0;
#X connect 4 0 58 0;
#X connect 4 0 59 0;
#X connect 4 0 50 0;
#X connect 5 0 16 0;
#X connect 6 0 60 0;
#X connect 6 0 61 0;
#X connect 6 0 65 0;
#X connect 6 0 64 2;
#X connect 6 0 64 0;
#X connect 6 0 106 0;
#X connect 6 0 148 0;
#X connect 6 0 66 0;
#X connect 6 0 57 0;
#X connect 6 0 278 0;
#X connect 6 0 247 0;
#X connect 7 0 60 0;
#X connect 7 0 61 0;
#X connect 7 0 62 0;
#X connect 7 0 65 0;
#X connect 8 0 1 0;
#X connect 9 0 15 0;
#X connect 10 0 15 0;
#X connect 11 0 15 0;
#X connect 12 0 15 0;
#X connect 13 0 15 0;
#X connect 14 0 0 0;
#X connect 15 0 14 0;
#X connect 17 0 18 0;
#X connect 18 0 68 0;
#X connect 19 0 18 0;
#X connect 20 0 18 0;
#X connect 21 0 18 0;
#X connect 22 0 18 0;
#X connect 23 0 18 0;
#X connect 24 0 18 0;
#X connect 25 0 18 0;
#X connect 26 0 18 0;
#X connect 27 0 18 0;
#X connect 28 0 18 0;
#X connect 29 0 18 0;
#X connect 30 0 18 0;
#X connect 31 0 18 0;
#X connect 32 0 18 0;
#X connect 33 0 18 0;
#X connect 34 0 18 0;
#X connect 35 0 18 0;
#X connect 36 0 18 0;
#X connect 37 0 18 0;
#X connect 38 0 18 0;
#X connect 39 0 18 0;
#X connect 40 0 18 0;
#X connect 41 0 18 0;
#X connect 42 0 18 0;
#X connect 43 0 46 0;
#X connect 43 0 234 0;
#X connect 43 0 239 0;
#X connect 44 0 46 1;
#X connect 45 0 46 2;
#X connect 46 0 47 0;
#X connect 46 1 47 1;
#X connect 48 0 18 0;
#X connect 49 0 18 0;
#X connect 50 0 44 0;
#X connect 51 0 14 1;
#X connect 52 0 15 0;
#X connect 53 0 15 0;
#X connect 54 0 15 0;
#X connect 55 0 51 0;
#X connect 55 0 69 0;
#X connect 56 0 16 1;
#X connect 57 0 47 2;
#X connect 57 0 56 0;
#X connect 58 0 2 0;
#X connect 59 0 45 0;
#X connect 60 0 55 0;
#X connect 60 0 64 0;
#X connect 60 0 70 0;
#X connect 61 0 15 0;
#X connect 62 0 18 0;
#X connect 63 0 62 1;
#X connect 64 0 228 0;
#X connect 65 0 62 1;
#X connect 66 0 5 0;
#X connect 67 0 62 1;
#X connect 68 0 43 0;
#X connect 69 0 68 1;
#X connect 70 0 71 0;
#X connect 71 0 65 0;
#X connect 71 1 63 0;
#X connect 71 2 67 0;
#X connect 72 0 103 0;
#X connect 73 0 103 0;
#X connect 74 0 103 0;
#X connect 75 0 103 0;
#X connect 76 0 103 0;
#X connect 77 0 103 0;
#X connect 78 0 103 0;
#X connect 79 0 103 0;
#X connect 80 0 103 0;
#X connect 81 0 103 0;
#X connect 82 0 103 0;
#X connect 83 0 103 0;
#X connect 84 0 103 0;
#X connect 85 0 103 0;
#X connect 86 0 103 0;
#X connect 87 0 103 0;
#X connect 88 0 103 0;
#X connect 89 0 103 0;
#X connect 90 0 103 0;
#X connect 91 0 103 0;
#X connect 92 0 103 0;
#X connect 93 0 103 0;
#X connect 94 0 103 0;
#X connect 95 0 103 0;
#X connect 96 0 103 0;
#X connect 97 0 103 0;
#X connect 98 0 103 0;
#X connect 99 0 103 0;
#X connect 100 0 103 0;
#X connect 101 0 103 0;
#X connect 102 0 103 0;
#X connect 103 0 128 0;
#X connect 104 0 103 0;
#X connect 105 0 109 0;
#X connect 105 0 111 0;
#X connect 105 0 7 0;
#X connect 105 0 140 0;
#X connect 105 0 148 0;
#X connect 105 0 230 0;
#X connect 105 0 230 2;
#X connect 105 0 226 0;
#X connect 105 0 129 0;
#X connect 105 0 278 0;
#X connect 105 0 247 0;
#X connect 106 0 109 0;
#X connect 106 0 110 0;
#X connect 106 0 111 0;
#X connect 106 0 140 0;
#X connect 107 0 114 0;
#X connect 108 0 112 0;
#X connect 108 0 229 0;
#X connect 109 0 108 0;
#X connect 109 0 113 0;
#X connect 109 0 230 0;
#X connect 110 0 134 0;
#X connect 111 0 110 1;
#X connect 112 0 128 1;
#X connect 113 0 136 0;
#X connect 114 0 117 0;
#X connect 114 0 233 0;
#X connect 114 0 238 0;
#X connect 115 0 117 1;
#X connect 116 0 117 2;
#X connect 117 0 125 0;
#X connect 117 1 125 1;
#X connect 118 0 129 0;
#X connect 118 0 226 0;
#X connect 118 0 137 0;
#X connect 118 0 135 0;
#X connect 118 0 127 0;
#X connect 118 0 138 0;
#X connect 119 0 120 0;
#X connect 121 0 124 0;
#X connect 121 0 234 0;
#X connect 121 0 239 0;
#X connect 122 0 124 1;
#X connect 123 0 124 2;
#X connect 124 0 125 0;
#X connect 124 1 125 1;
#X connect 126 0 120 1;
#X connect 127 0 123 0;
#X connect 128 0 121 0;
#X connect 129 0 125 2;
#X connect 129 0 126 0;
#X connect 130 0 131 0;
#X connect 132 0 131 0;
#X connect 133 0 107 0;
#X connect 134 0 128 0;
#X connect 135 0 116 0;
#X connect 136 0 111 0;
#X connect 136 1 139 0;
#X connect 137 0 115 0;
#X connect 138 0 122 0;
#X connect 139 0 110 1;
#X connect 140 0 133 0;
#X connect 141 0 144 0;
#X connect 141 0 233 0;
#X connect 141 0 238 0;
#X connect 142 0 144 1;
#X connect 143 0 144 2;
#X connect 144 0 188 0;
#X connect 144 1 188 1;
#X connect 145 0 222 0;
#X connect 145 0 227 0;
#X connect 145 0 149 0;
#X connect 145 0 225 0;
#X connect 145 0 224 0;
#X connect 145 0 191 0;
#X connect 146 0 157 0;
#X connect 147 0 196 0;
#X connect 147 0 7 0;
#X connect 147 0 106 0;
#X connect 147 0 232 0;
#X connect 147 0 197 0;
#X connect 147 0 227 0;
#X connect 147 0 222 0;
#X connect 147 0 278 0;
#X connect 147 0 247 0;
#X connect 148 0 196 0;
#X connect 148 0 197 0;
#X connect 148 0 232 0;
#X connect 149 0 142 0;
#X connect 150 0 156 0;
#X connect 151 0 156 0;
#X connect 152 0 156 0;
#X connect 153 0 156 0;
#X connect 154 0 156 0;
#X connect 155 0 141 0;
#X connect 156 0 155 0;
#X connect 158 0 159 0;
#X connect 160 0 159 0;
#X connect 161 0 159 0;
#X connect 162 0 159 0;
#X connect 163 0 159 0;
#X connect 164 0 159 0;
#X connect 165 0 159 0;
#X connect 166 0 159 0;
#X connect 167 0 159 0;
#X connect 168 0 159 0;
#X connect 169 0 159 0;
#X connect 170 0 159 0;
#X connect 171 0 159 0;
#X connect 172 0 159 0;
#X connect 173 0 159 0;
#X connect 174 0 159 0;
#X connect 175 0 159 0;
#X connect 176 0 159 0;
#X connect 177 0 159 0;
#X connect 178 0 159 0;
#X connect 179 0 159 0;
#X connect 180 0 159 0;
#X connect 181 0 159 0;
#X connect 182 0 159 0;
#X connect 183 0 159 0;
#X connect 184 0 187 0;
#X connect 184 0 234 0;
#X connect 184 0 239 0;
#X connect 185 0 187 1;
#X connect 186 0 187 2;
#X connect 187 0 188 0;
#X connect 187 1 188 1;
#X connect 189 0 159 0;
#X connect 190 0 159 0;
#X connect 191 0 185 0;
#X connect 192 0 156 0;
#X connect 193 0 156 0;
#X connect 194 0 156 0;
#X connect 195 0 157 1;
#X connect 196 0 156 0;
#X connect 197 0 221 0;
#X connect 198 0 131 0;
#X connect 199 0 131 0;
#X connect 200 0 131 0;
#X connect 201 0 131 0;
#X connect 202 0 131 0;
#X connect 203 0 131 0;
#X connect 204 0 131 0;
#X connect 205 0 131 0;
#X connect 206 0 131 0;
#X connect 207 0 131 0;
#X connect 208 0 131 0;
#X connect 209 0 131 0;
#X connect 210 0 211 0;
#X connect 211 0 155 1;
#X connect 212 0 213 0;
#X connect 214 0 213 0;
#X connect 215 0 213 0;
#X connect 216 0 213 0;
#X connect 217 0 213 0;
#X connect 218 0 213 0;
#X connect 219 0 213 0;
#X connect 220 0 213 0;
#X connect 221 0 223 0;
#X connect 222 0 188 2;
#X connect 222 0 195 0;
#X connect 223 0 184 0;
#X connect 224 0 186 0;
#X connect 225 0 143 0;
#X connect 226 0 119 0;
#X connect 227 0 146 0;
#X connect 228 0 62 0;
#X connect 229 0 107 1;
#X connect 230 0 231 0;
#X connect 231 0 110 0;
#X connect 232 0 210 0;
#X connect 233 0 235 0;
#X connect 234 0 236 0;
#X connect 237 0 148 0;
#X connect 237 0 106 0;
#X connect 237 0 7 0;
#X connect 237 0 247 0;
#X connect 237 0 278 0;
#X connect 238 0 265 0;
#X connect 239 0 266 0;
#X connect 240 0 243 0;
#X connect 240 0 233 0;
#X connect 241 0 243 1;
#X connect 242 0 243 2;
#X connect 243 0 254 0;
#X connect 243 1 254 1;
#X connect 244 0 264 0;
#X connect 244 0 302 0;
#X connect 244 0 248 0;
#X connect 244 0 262 0;
#X connect 244 0 261 0;
#X connect 244 0 255 0;
#X connect 245 0 249 0;
#X connect 246 0 257 0;
#X connect 246 0 263 0;
#X connect 246 0 258 0;
#X connect 246 0 302 0;
#X connect 246 0 264 0;
#X connect 246 0 148 0;
#X connect 246 0 106 0;
#X connect 246 0 7 0;
#X connect 246 0 278 0;
#X connect 247 0 257 0;
#X connect 247 0 258 0;
#X connect 247 0 304 0;
#X connect 247 0 263 0;
#X connect 248 0 241 0;
#X connect 250 0 253 0;
#X connect 250 0 234 0;
#X connect 251 0 253 1;
#X connect 252 0 253 2;
#X connect 253 0 254 0;
#X connect 253 1 254 1;
#X connect 255 0 251 0;
#X connect 256 0 249 1;
#X connect 257 0 265 0;
#X connect 258 0 266 0;
#X connect 259 0 304 0;
#X connect 259 1 303 0;
#X connect 259 2 260 0;
#X connect 260 0 258 1;
#X connect 261 0 252 0;
#X connect 262 0 242 0;
#X connect 263 0 270 0;
#X connect 263 0 272 0;
#X connect 264 0 254 2;
#X connect 264 0 256 0;
#X connect 265 0 240 0;
#X connect 266 0 250 0;
#X connect 267 0 266 0;
#X connect 267 0 265 0;
#X connect 268 0 265 0;
#X connect 268 0 266 0;
#X connect 269 0 268 0;
#X connect 269 0 237 0;
#X connect 270 0 259 0;
#X connect 271 0 273 0;
#X connect 271 1 276 0;
#X connect 271 2 274 0;
#X connect 272 0 271 0;
#X connect 273 0 257 1;
#X connect 274 0 257 1;
#X connect 275 0 267 0;
#X connect 276 0 257 1;
#X connect 277 0 148 0;
#X connect 277 0 247 0;
#X connect 277 0 106 0;
#X connect 277 0 7 0;
#X connect 277 0 286 0;
#X connect 277 0 287 0;
#X connect 277 0 288 0;
#X connect 277 0 302 0;
#X connect 278 0 289 0;
#X connect 278 0 286 0;
#X connect 278 0 287 0;
#X connect 278 0 288 0;
#X connect 279 0 289 0;
#X connect 279 1 290 0;
#X connect 279 2 291 0;
#X connect 280 0 279 0;
#X connect 281 0 283 0;
#X connect 281 1 284 0;
#X connect 281 2 285 0;
#X connect 282 0 281 0;
#X connect 283 0 286 1;
#X connect 284 0 286 1;
#X connect 285 0 286 1;
#X connect 286 0 265 0;
#X connect 287 0 280 0;
#X connect 287 0 282 0;
#X connect 288 0 266 0;
#X connect 289 0 288 1;
#X connect 290 0 288 1;
#X connect 291 0 288 1;
#X connect 292 0 293 0;
#X connect 293 0 305 0;
#X connect 302 0 249 0;
#X connect 303 0 258 1;
#X connect 304 0 258 1;
#X connect 305 0 294 0;
#X connect 305 1 295 0;
#X connect 305 2 296 0;
#X connect 305 3 297 0;
#X connect 305 4 298 0;
#X connect 305 5 299 0;
#X connect 305 6 300 0;
#X connect 305 7 301 0;
#X restore 337 210 pd | bq;
#N canvas 1 102 1267 631 plugin 0;
#X obj 43 415 tabread4~ array1;
#X obj 43 383 line~;
#X obj 111 481 vline~;
#X obj 44 463 *~;
#X msg 111 452 1 2 \, 0 5 120;
#X msg 43 347 70800 \, 75800 \$1;
#X obj 148 283 mtof;
#X floatatom 150 230 5 0 0 0 - - -;
#X obj 149 256 - 48;
#X obj 23 528 outlet~;
#X obj 55 93 bng 30 250 50 0 empty empty empty 17 7 0 10 -262144 -1
-1;
#X msg 226 140 stop;
#X obj 148 315 expr (1/$f1)*413.38;
#X obj 370 419 tabread4~ array1;
#X obj 370 387 line~;
#X obj 438 485 vline~;
#X obj 371 467 *~;
#X msg 438 456 1 2 \, 0 5 120;
#X msg 370 351 70800 \, 75800 \$1;
#X obj 475 287 mtof;
#X floatatom 477 234 5 0 0 0 - - -;
#X obj 476 260 - 48;
#X obj 350 532 outlet~;
#X obj 382 97 bng 30 250 50 0 empty empty empty 17 7 0 10 -262144 -1
-1;
#X msg 553 144 stop;
#X obj 474 319 expr (1/$f1)*113.38;
#X obj 465 116 metro 13;
#X obj 477 206 expr $f1 % 32;
#X obj 138 112 metro 55;
#X obj 699 418 tabread4~ array1;
#X obj 699 386 line~;
#X obj 767 484 vline~;
#X obj 700 466 *~;
#X msg 767 455 1 2 \, 0 5 120;
#X msg 699 350 70800 \, 75800 \$1;
#X obj 804 286 mtof;
#X floatatom 806 233 5 0 0 0 - - -;
#X obj 805 259 - 48;
#X obj 307 16 inlet;
#X obj 679 531 outlet~;
#X obj 711 96 bng 30 250 50 0 empty empty empty 17 7 0 10 -262144 -1
-1;
#X msg 882 143 stop;
#X obj 803 318 expr (1/$f1)*113.38;
#X obj 806 205 expr $f1 % 32;
#X obj 794 115 metro 6;
#X obj 150 202 expr $f1 % 32;
#X obj 1071 133 soundfiler;
#X obj 1071 65 loadbang;
#X floatatom 1071 168 15 0 0 0 - - -;
#X floatatom 1071 234 15 0 0 0 - - -;
#X obj 1071 200 expr $f1 / 44.1;
#X msg 1071 97 read -resize kyletaylor.wav array1;
#N canvas 0 22 450 300 (subpatch) 0;
#X array array1 788928 float 2;
#X coords 0 1 788928 -1 200 140 1;
#X restore 1061 310 graph;
#X obj 22 215 select 32;
#X obj 348 219 select 32;
#X obj 677 218 select 32;
#X obj 154 173 counter 1 0 32;
#X obj 481 177 counter 1 0 32;
#X obj 810 177 counter 1 0 32;
#X obj 309 40 select 59 39 10;
#X connect 0 0 3 0;
#X connect 1 0 0 0;
#X connect 2 0 3 1;
#X connect 3 0 9 0;
#X connect 4 0 2 0;
#X connect 5 0 1 0;
#X connect 5 0 4 0;
#X connect 6 0 12 0;
#X connect 7 0 8 0;
#X connect 8 0 6 0;
#X connect 10 0 28 0;
#X connect 11 0 28 0;
#X connect 12 0 5 0;
#X connect 13 0 16 0;
#X connect 14 0 13 0;
#X connect 15 0 16 1;
#X connect 16 0 22 0;
#X connect 17 0 15 0;
#X connect 18 0 14 0;
#X connect 18 0 17 0;
#X connect 19 0 25 0;
#X connect 20 0 21 0;
#X connect 21 0 19 0;
#X connect 23 0 26 0;
#X connect 24 0 26 0;
#X connect 25 0 18 0;
#X connect 26 0 57 0;
#X connect 27 0 20 0;
#X connect 28 0 56 0;
#X connect 29 0 32 0;
#X connect 30 0 29 0;
#X connect 31 0 32 1;
#X connect 32 0 39 0;
#X connect 33 0 31 0;
#X connect 34 0 30 0;
#X connect 34 0 33 0;
#X connect 35 0 42 0;
#X connect 36 0 37 0;
#X connect 37 0 35 0;
#X connect 38 0 59 0;
#X connect 40 0 44 0;
#X connect 40 0 51 0;
#X connect 41 0 44 0;
#X connect 42 0 34 0;
#X connect 43 0 36 0;
#X connect 44 0 58 0;
#X connect 45 0 7 0;
#X connect 46 0 48 0;
#X connect 47 0 51 0;
#X connect 48 0 50 0;
#X connect 50 0 49 0;
#X connect 51 0 46 0;
#X connect 53 0 11 0;
#X connect 54 0 24 0;
#X connect 55 0 41 0;
#X connect 56 0 45 0;
#X connect 56 0 53 0;
#X connect 57 0 27 0;
#X connect 57 0 54 0;
#X connect 58 0 43 0;
#X connect 58 0 55 0;
#X connect 59 0 28 0;
#X connect 59 1 26 0;
#X connect 59 2 44 0;
#X restore 388 66 pd plugin;
#X floatatom 551 1 5 0 0 0 - - -;
#X obj 551 -26 key;
#N canvas 536 137 599 463 - 0;
#X obj 40 -17 noise~;
#X obj 82 171 vline~;
#X obj 40 212 *~;
#X obj 40 -125 inlet;
#X obj 104 282 outlet~;
#X msg 82 137 1 5 \, 0.3 100 5 \, 0.05 300 105 \, 0.01 500 405 \, 0
1000 905;
#X msg 95 109 1000;
#X obj 91 237 *~ 50;
#X obj 127 49 vline~;
#X obj 40 171 vcf~;
#X msg 127 6 1000 5 \, 500 100 5 \, 2000 300 105 \, 700 500 405 \,
0 1000 905;
#X obj 40 -95 select 45;
#X connect 0 0 9 0;
#X connect 1 0 2 1;
#X connect 2 0 7 0;
#X connect 3 0 11 0;
#X connect 5 0 1 0;
#X connect 6 0 9 2;
#X connect 7 0 4 0;
#X connect 8 0 9 1;
#X connect 9 0 2 0;
#X connect 10 0 8 0;
#X connect 11 0 10 0;
#X connect 11 0 6 0;
#X connect 11 0 5 0;
#X restore 464 67 pd -;
#N canvas 521 109 599 474 + 0;
#X obj 40 171 bp~;
#X obj 40 -17 noise~;
#X obj 82 171 vline~;
#X obj 40 212 *~;
#X obj 40 -125 inlet;
#X obj 104 275 outlet~;
#X obj 12 130 hip~ 2000;
#X msg 94 58 400;
#X obj 23 90 lop~ 1000;
#X msg 95 109 1;
#X obj 91 237 *~ 1;
#X msg 82 137 1 5 \, 0.2 90 5 \, 0 1000 95;
#X obj 40 -95 select 61;
#X connect 0 0 3 0;
#X connect 1 0 0 0;
#X connect 1 0 8 0;
#X connect 2 0 3 1;
#X connect 3 0 10 0;
#X connect 4 0 12 0;
#X connect 6 0 3 0;
#X connect 7 0 0 1;
#X connect 8 0 6 0;
#X connect 9 0 0 2;
#X connect 10 0 5 0;
#X connect 11 0 2 0;
#X connect 12 0 7 0;
#X connect 12 0 9 0;
#X connect 12 0 11 0;
#X restore 506 67 pd +;
#N canvas 519 110 599 474 Backspace 0;
#X obj 40 171 bp~;
#X obj 40 -17 noise~;
#X obj 82 171 vline~;
#X obj 40 212 *~;
#X obj 40 -125 inlet;
#X obj 104 275 outlet~;
#X msg 95 109 1;
#X obj 91 237 *~ 1;
#X obj 11 90 lop~ 400;
#X obj 12 130 hip~ 300;
#X msg 94 58 350;
#X msg 82 137 0 1 \, 1 5 1 \, 0.2 20 6 \, 0 20 26;
#X obj 40 -95 select 8;
#X connect 0 0 3 0;
#X connect 1 0 0 0;
#X connect 1 0 8 0;
#X connect 2 0 3 1;
#X connect 3 0 7 0;
#X connect 4 0 12 0;
#X connect 6 0 0 2;
#X connect 7 0 5 0;
#X connect 8 0 9 0;
#X connect 9 0 3 0;
#X connect 10 0 0 1;
#X connect 11 0 2 0;
#X connect 12 0 10 0;
#X connect 12 0 6 0;
#X connect 12 0 11 0;
#X restore 545 67 pd Backspace;
#N canvas 318 98 599 474 [ 0;
#X obj 40 -17 noise~;
#X obj 79 170 vline~;
#X obj 40 208 *~;
#X obj 40 -125 inlet;
#X obj 148 289 outlet~;
#X obj 40 171 vcf~;
#X msg 79 137 0 5 \, 1 100 5 \, 0 50 105;
#X msg 95 109 10000;
#X obj 234 -50 noise~;
#X obj 272 161 vline~;
#X obj 233 199 *~;
#X obj 233 162 bp~;
#X msg 288 69 5000;
#X obj 234 36 hip~ 4000;
#X obj 284 228 *~ 5;
#X obj 233 70 lop~ 4500;
#X msg 272 127 0 10 \, 1 150 5 \, 0 70 155;
#X msg 288 95 100;
#X obj 115 57 sig~ 12000;
#X obj 90 237 *~ 70;
#X obj 41 -95 select 91;
#X connect 0 0 5 0;
#X connect 1 0 2 1;
#X connect 2 0 19 0;
#X connect 3 0 20 0;
#X connect 5 0 2 0;
#X connect 6 0 1 0;
#X connect 7 0 5 2;
#X connect 8 0 13 0;
#X connect 9 0 10 1;
#X connect 10 0 14 0;
#X connect 11 0 10 0;
#X connect 12 0 11 1;
#X connect 13 0 15 0;
#X connect 14 0 4 0;
#X connect 15 0 11 0;
#X connect 16 0 9 0;
#X connect 17 0 11 2;
#X connect 18 0 5 1;
#X connect 19 0 4 0;
#X connect 20 0 7 0;
#X connect 20 0 6 0;
#X connect 20 0 12 0;
#X connect 20 0 17 0;
#X connect 20 0 16 0;
#X restore 627 67 pd [;
#N canvas 272 140 791 474 ] 0;
#X obj 233 181 vline~;
#X obj 193 252 *~;
#X obj 215 -31 inlet;
#X obj 193 313 outlet~;
#X obj 194 182 vcf~;
#X obj 133 135 osc~;
#X floatatom 176 99 5 0 0 0 - - -;
#X obj 176 136 sig~;
#X floatatom 215 118 5 0 0 0 - - -;
#X obj 132 99 vline~;
#X obj 194 280 *~ 1;
#X msg 214 98 -1;
#X obj 408 183 vline~;
#X obj 369 183 vcf~;
#X obj 308 136 osc~;
#X floatatom 351 100 5 0 0 0 - - -;
#X obj 351 137 sig~;
#X floatatom 390 119 5 0 0 0 - - -;
#X obj 307 100 vline~;
#X msg 389 99 -1;
#X obj 56 181 vline~;
#X obj 17 182 vcf~;
#X obj -44 135 osc~;
#X floatatom -1 99 5 0 0 0 - - -;
#X obj -1 136 sig~;
#X floatatom 38 118 5 0 0 0 - - -;
#X obj -45 99 vline~;
#X msg 37 98 -1;
#X obj 102 213 z~;
#X obj 129 214 z~;
#X obj 290 214 z~;
#X obj 321 214 z~;
#X msg 408 149 1 20 \, 0 50 20 \, 1 1100 70 \, 0 200 170;
#X msg 51 158 1 20 \, 0 50 20 \, 1 100 70 \, 0 200 170;
#X msg 225 157 1 20 \, 0 50 20 \, 1 100 70 \, 0 200 170;
#X msg 221 37 100 20 \, 0 50 20 \, 600 100 70 \, 0 200 170;
#X msg 336 54 200 20 \, 0 50 20 \, 1200 1000 70 \, 0 200 170;
#X msg -47 53 50 20 \, 0 50 20 \, 2400 1200 70 \, 0 200 170;
#X obj 215 1 select 93;
#X connect 0 0 1 1;
#X connect 1 0 10 0;
#X connect 2 0 38 0;
#X connect 4 0 1 0;
#X connect 5 0 4 0;
#X connect 6 0 7 0;
#X connect 7 0 4 1;
#X connect 8 0 4 2;
#X connect 9 0 5 0;
#X connect 10 0 3 0;
#X connect 11 0 8 0;
#X connect 12 0 31 0;
#X connect 13 0 30 0;
#X connect 14 0 13 0;
#X connect 15 0 16 0;
#X connect 16 0 13 1;
#X connect 17 0 13 2;
#X connect 18 0 14 0;
#X connect 19 0 17 0;
#X connect 20 0 29 0;
#X connect 21 0 28 0;
#X connect 22 0 21 0;
#X connect 23 0 24 0;
#X connect 24 0 21 1;
#X connect 25 0 21 2;
#X connect 26 0 22 0;
#X connect 27 0 25 0;
#X connect 28 0 1 0;
#X connect 29 0 1 1;
#X connect 30 0 1 0;
#X connect 31 0 1 1;
#X connect 32 0 12 0;
#X connect 33 0 20 0;
#X connect 34 0 0 0;
#X connect 35 0 9 0;
#X connect 36 0 18 0;
#X connect 37 0 26 0;
#X connect 38 0 6 0;
#X connect 38 0 35 0;
#X connect 38 0 34 0;
#X connect 38 0 11 0;
#X connect 38 0 36 0;
#X connect 38 0 15 0;
#X connect 38 0 19 0;
#X connect 38 0 32 0;
#X connect 38 0 37 0;
#X connect 38 0 27 0;
#X connect 38 0 23 0;
#X connect 38 0 33 0;
#X restore 660 67 pd ];
#N canvas 269 108 450 300 volume 0;
#X obj 123 121 select 44 46;
#X obj 123 82 inlet;
#X msg 113 150 dec;
#X msg 147 148 inc;
#X obj 132 234 outlet;
#X obj 132 208 / 10;
#X obj 132 180 counter 100;
#X connect 0 0 2 0;
#X connect 0 1 3 0;
#X connect 1 0 0 0;
#X connect 2 0 6 0;
#X connect 3 0 6 0;
#X connect 5 0 4 0;
#X connect 6 0 5 0;
#X restore 691 67 pd volume;
#X obj 546 168 *~;
#X obj 545 141 *~ 1;
#X floatatom 631 138 5 0 0 0 - - -;
#X obj 547 204 dac~;
#X connect 4 0 5 0;
#X connect 5 0 6 0;
#X connect 6 0 7 0;
#X connect 8 0 9 0;
#X connect 9 0 10 0;
#X connect 10 0 11 0;
#X connect 12 0 13 0;
#X connect 13 0 14 0;
#X connect 14 0 15 0;
#X connect 16 0 17 0;
#X connect 17 0 18 0;
#X connect 18 0 19 0;
#X connect 20 0 21 0;
#X connect 21 0 22 0;
#X connect 22 0 23 0;
#X connect 24 0 25 0;
#X connect 25 0 26 0;
#X connect 26 0 27 0;
#X connect 28 0 29 0;
#X connect 29 0 30 0;
#X connect 30 0 31 0;
#X connect 32 0 33 0;
#X connect 33 0 34 0;
#X connect 35 0 36 0;
#X connect 36 0 37 0;
#X connect 38 0 39 0;
#X connect 39 0 40 0;
#X connect 41 0 42 0;
#X connect 42 0 43 0;
#X connect 44 0 45 0;
#X connect 45 0 46 0;
#X connect 47 0 48 0;
#X connect 48 0 49 0;
#X connect 49 0 50 0;
#X connect 51 0 52 0;
#X connect 52 0 53 0;
#X connect 53 0 54 0;
#X connect 55 0 56 0;
#X connect 56 0 57 0;
#X connect 57 0 58 0;
#X connect 59 0 60 0;
#X connect 60 0 61 0;
#X connect 61 0 62 0;
#X connect 63 0 64 0;
#X connect 64 0 65 0;
#X connect 65 0 66 0;
#X connect 67 0 68 0;
#X connect 68 0 69 0;
#X connect 69 0 70 0;
#X connect 71 0 72 0;
#X connect 72 0 73 0;
#X connect 73 0 74 0;
#X connect 75 0 76 0;
#X connect 76 0 77 0;
#X connect 78 0 79 0;
#X connect 79 0 80 0;
#X connect 81 0 82 0;
#X connect 82 0 83 0;
#X connect 84 0 85 0;
#X connect 85 0 86 0;
#X connect 87 0 88 0;
#X connect 88 0 89 0;
#X connect 90 0 91 0;
#X connect 91 0 92 0;
#X connect 92 0 93 0;
#X connect 94 0 95 0;
#X connect 95 0 96 0;
#X connect 96 0 97 0;
#X connect 98 0 99 0;
#X connect 99 0 100 0;
#X connect 100 0 101 0;
#X connect 102 0 103 0;
#X connect 103 0 104 0;
#X connect 104 0 105 0;
#X connect 106 0 107 0;
#X connect 107 0 108 0;
#X connect 108 0 109 0;
#X connect 110 0 111 0;
#X connect 111 0 112 0;
#X connect 112 0 113 0;
#X connect 114 0 115 0;
#X connect 115 0 116 0;
#X connect 116 0 117 0;
#X connect 118 0 119 0;
#X connect 119 0 120 0;
#X connect 121 0 122 0;
#X connect 122 0 123 0;
#X connect 124 0 125 0;
#X connect 125 0 126 0;
#X connect 127 0 128 0;
#X connect 128 0 129 0;
#X connect 130 0 131 0;
#X connect 131 0 132 0;
#X connect 133 0 134 0;
#X connect 134 0 135 0;
#X connect 135 0 136 0;
#X connect 137 0 138 0;
#X connect 138 0 139 0;
#X connect 139 0 140 0;
#X connect 141 0 142 0;
#X connect 142 0 143 0;
#X connect 143 0 144 0;
#X connect 145 0 146 0;
#X connect 146 0 147 0;
#X connect 147 0 148 0;
#X connect 149 0 150 0;
#X connect 150 0 151 0;
#X connect 151 0 152 0;
#X connect 153 0 154 0;
#X connect 154 0 155 0;
#X connect 155 0 156 0;
#X connect 157 0 158 0;
#X connect 158 0 159 0;
#X connect 159 0 160 0;
#X connect 161 0 162 0;
#X connect 162 0 163 0;
#X connect 164 0 165 0;
#X connect 165 0 166 0;
#X connect 167 0 168 0;
#X connect 168 0 169 0;
#X connect 170 0 171 0;
#X connect 171 0 172 0;
#X connect 173 0 174 0;
#X connect 174 0 175 0;
#X connect 176 0 177 0;
#X connect 177 0 178 0;
#X connect 178 0 179 0;
#X connect 180 0 181 0;
#X connect 181 0 182 0;
#X connect 182 0 183 0;
#X connect 184 0 185 0;
#X connect 185 0 186 0;
#X connect 186 0 187 0;
#X connect 188 0 189 0;
#X connect 189 0 190 0;
#X connect 190 0 191 0;
#X connect 192 0 193 0;
#X connect 193 0 194 0;
#X connect 194 0 195 0;
#X connect 196 0 197 0;
#X connect 197 0 198 0;
#X connect 198 0 199 0;
#X connect 200 0 201 0;
#X connect 201 0 202 0;
#X connect 202 0 203 0;
#X connect 204 0 205 0;
#X connect 205 0 206 0;
#X connect 207 0 208 0;
#X connect 208 0 209 0;
#X connect 210 0 211 0;
#X connect 211 0 212 0;
#X connect 213 0 214 0;
#X connect 214 0 215 0;
#X connect 216 0 217 0;
#X connect 217 0 218 0;
#X connect 227 0 237 1;
#X connect 227 0 237 0;
#X connect 227 1 237 1;
#X connect 227 1 237 0;
#X connect 227 2 237 1;
#X connect 227 2 237 0;
#X connect 228 0 230 0;
#X connect 228 0 231 0;
#X connect 228 0 233 0;
#X connect 228 0 232 0;
#X connect 228 0 234 0;
#X connect 228 0 227 0;
#X connect 228 0 235 0;
#X connect 229 0 228 0;
#X connect 230 0 237 1;
#X connect 230 0 237 0;
#X connect 231 0 237 0;
#X connect 231 0 237 1;
#X connect 232 0 237 0;
#X connect 232 0 237 1;
#X connect 233 0 237 0;
#X connect 233 0 237 1;
#X connect 234 0 237 0;
#X connect 234 0 237 1;
#X connect 235 0 238 0;
#X connect 236 0 239 0;
#X connect 236 0 239 1;
#X connect 237 0 236 0;
#X connect 238 0 236 1;
