#N canvas 365 22 402 452 10;
#X obj 189 -514 unpack f f f;
#X obj 148 -423 ctlout 123;
#X obj 296 -423 ctlout 125;
#X obj 224 -423 ctlout 124;
#X obj 296 -452 * 25.4;
#X obj 224 -451 * 36.7;
#X obj 148 -452 * 63.5;
#X obj 264 -568 tgl 15 0 empty empty empty 17 7 0 10 -262144 -1 -1
1 1;
#X obj 31 -596 syphonserver;
#X obj 190 -610 hradio 15 1 0 10 empty ctr37 VOLUME 0 -8 0 10 -262144
-1 -1 9;
#X obj 120 -620 ctlin 37;
#X obj 121 -596 / 12.7;
#X floatatom 122 -573 5 0 0 0 - - ctr37;
#X obj 31 -625 gemhead 900;
#N canvas 904 323 203 188 metro 0;
#X obj 72 -9 r metro;
#X obj 61 45 counter;
#X floatatom 61 69 5 0 0 0 - - -;
#X obj 64 146 outlet;
#X obj 123 -13 loadbang;
#X msg 116 14 2;
#X obj 61 95 select 2;
#X obj 115 138 + 1;
#X obj 62 115 random 9;
#X connect 0 0 1 0;
#X connect 1 0 2 0;
#X connect 2 0 6 0;
#X connect 4 0 5 0;
#X connect 5 0 1 4;
#X connect 6 0 8 0;
#X connect 7 0 3 0;
#X connect 8 0 7 0;
#X restore 234 -644 pd metro;
#N canvas 769 22 645 855 Complex_EQ 0;
#X obj -217 -5 adc~ 1;
#X obj -172 -5 inlet;
#X obj -160 125 env~;
#X obj -297 104 env~;
#X floatatom -297 145 0 0 0 0 - - -;
#X obj -15 125 env~;
#X obj -172 36 *~;
#X obj -189 246 route 1 2 3 4;
#X obj -106 286 unpack;
#X obj -22 286 unpack;
#X text -183 227 individual sinusoidal components;
#X text -288 240 amplitude;
#X obj -300 212 fiddle~ 1024 1 20 4;
#X obj -129 29 s~;
#X obj -300 190 r~;
#X obj -15 104 bp~ 1250 5;
#X obj -160 104 bp~ 250 5;
#X obj -235 124 env~;
#X obj -235 104 bp~ 100 5;
#X obj 140 125 env~;
#X obj 140 104 bp~ 10000 5;
#X obj 59 123 env~;
#X obj 59 104 bp~ 6500 5;
#X obj -235 145 s bp100;
#X obj -160 145 s bp250;
#X obj -15 146 s bp1250;
#X obj 59 145 s bp6500;
#X obj 140 145 s bp10000;
#X obj -87 125 env~;
#X obj -87 146 s bp750;
#X obj -87 104 bp~ 750 5;
#N canvas 372 86 749 322 videomodulator 0;
#X obj -141 28 r bp100;
#X obj -57 28 r bp250;
#X obj 25 28 r bp750;
#X obj 106 28 r bp1250;
#X obj 189 28 r bp6500;
#X obj 279 28 r bp10000;
#X obj -141 54 / 100;
#X obj -141 80 * 127;
#X obj -57 54 / 100;
#X obj -57 80 * 127;
#X obj 25 54 / 100;
#X obj 25 80 * 127;
#X obj 106 54 / 100;
#X obj 106 80 * 127;
#X obj 189 54 / 100;
#X obj 189 80 * 127;
#X obj 279 54 / 100;
#X obj 279 80 * 127;
#X obj -141 119 ctlout 101;
#X floatatom -102 80 5 0 0 0 - - osc101;
#X floatatom -20 80 5 0 0 0 - - osc102;
#X obj -60 119 ctlout 102;
#X floatatom 63 80 5 0 0 0 - - osc103;
#X floatatom 142 80 5 0 0 0 - - osc104;
#X floatatom 232 79 5 0 0 0 - - osc105;
#X floatatom 319 80 5 0 0 0 - - osc106;
#X obj 24 122 ctlout 103;
#X obj 105 122 ctlout 104;
#X obj 190 120 ctlout 105;
#X obj 280 120 ctlout 106;
#X obj 129 238 sendOSC;
#X floatatom -132 154 5 0 0 0 - osc101 -;
#X msg -131 183 send /101;
#X msg 203 288 disconnect;
#X obj 184 239 loadbang;
#X msg 184 268 connect localhost 3333;
#X floatatom -60 152 5 0 0 0 - osc102 -;
#X floatatom 24 150 5 0 0 0 - osc103 -;
#X floatatom 104 147 5 0 0 0 - osc104 -;
#X floatatom 189 147 5 0 0 0 - osc105 -;
#X floatatom 278 147 5 0 0 0 - osc106 -;
#X msg 279 176 send /106;
#X msg 190 176 send /105;
#X msg 105 176 send /104;
#X msg 25 179 send /103;
#X msg -59 181 send /102;
#X floatatom 368 152 5 0 0 0 - o123 -;
#X msg 367 174 send /123;
#X floatatom 444 152 5 0 0 0 - o124 -;
#X msg 443 174 send /124;
#X floatatom 515 151 5 0 0 0 - o125 -;
#X msg 514 173 send /125;
#X connect 0 0 6 0;
#X connect 1 0 8 0;
#X connect 2 0 10 0;
#X connect 3 0 12 0;
#X connect 4 0 14 0;
#X connect 5 0 16 0;
#X connect 6 0 7 0;
#X connect 6 0 19 0;
#X connect 7 0 18 0;
#X connect 8 0 9 0;
#X connect 8 0 20 0;
#X connect 9 0 21 0;
#X connect 10 0 11 0;
#X connect 10 0 22 0;
#X connect 11 0 26 0;
#X connect 12 0 13 0;
#X connect 12 0 23 0;
#X connect 13 0 27 0;
#X connect 14 0 15 0;
#X connect 14 0 24 0;
#X connect 15 0 28 0;
#X connect 16 0 17 0;
#X connect 16 0 25 0;
#X connect 17 0 29 0;
#X connect 31 0 32 0;
#X connect 32 0 30 0;
#X connect 34 0 35 0;
#X connect 35 0 30 0;
#X connect 36 0 45 0;
#X connect 37 0 44 0;
#X connect 38 0 43 0;
#X connect 39 0 42 0;
#X connect 40 0 41 0;
#X connect 41 0 30 0;
#X connect 42 0 30 0;
#X connect 43 0 30 0;
#X connect 44 0 30 0;
#X connect 45 0 30 0;
#X connect 46 0 47 0;
#X connect 47 0 30 0;
#X connect 48 0 49 0;
#X connect 49 0 30 0;
#X connect 50 0 51 0;
#X connect 51 0 30 0;
#X restore -336 -5 pd videomodulator;
#X obj -127 -30 inlet;
#N canvas 879 189 489 397 beatdetect 0;
#X obj 82 93 beat;
#X obj 84 38 r attack;
#X floatatom 75 137 5 0 0 0 - - -;
#X floatatom 114 137 5 0 0 0 - - -;
#X obj 127 113 bng 15 250 50 0 empty empty empty 17 7 0 10 -262144
-1 -1;
#X msg 84 66 90;
#X obj 118 192 metro;
#X obj 83 242 s metro;
#X obj 100 300 bng 15 250 50 0 empty empty empty 17 7 0 10 -262144
-1 -1;
#X obj 144 226 s ms;
#X obj 44 160 inlet;
#X obj 142 165 * 4;
#X connect 0 0 2 0;
#X connect 0 1 3 0;
#X connect 0 2 4 0;
#X connect 1 0 5 0;
#X connect 3 0 9 0;
#X connect 3 0 11 0;
#X connect 5 0 0 0;
#X connect 5 0 0 1;
#X connect 6 0 7 0;
#X connect 6 0 8 0;
#X connect 10 0 6 0;
#X connect 11 0 6 1;
#X restore -127 -4 pd beatdetect;
#X obj -342 242 s attack;
#X msg 58 4 10000 6500 1250 750 250 100;
#X obj -37 38 unpack f f f f f f f;
#X msg 58 -18 128 432 512 1350 5200 8600;
#X msg 10 -69 100 250 750 1250 6500 10000;
#X text -35 -69 reset;
#X msg 19 -45 45 256 768 1320 4500 9600;
#X obj -218 559 pack f f f;
#X floatatom -126 339 5 0 0 0 - - -;
#X floatatom -54 345 5 0 0 0 - - -;
#X floatatom -226 242 5 0 0 0 - - -;
#X obj -232 295 / 60;
#X obj -58 380 * 200;
#X obj -204 324 r reset;
#X floatatom -125 387 5 0 0 0 - - -;
#X floatatom -57 410 5 0 0 0 - - -;
#X obj -127 361 * 200;
#X obj -265 327 select 0;
#X msg -265 361 1;
#X obj -121 418 select 0;
#X msg -121 452 1;
#X obj -44 443 select 0;
#X msg -44 477 1;
#X obj -160 446 line;
#X obj -92 483 line;
#X msg -159 420 \$1 75;
#X msg -91 457 \$1 75;
#X obj -235 582 outlet;
#X floatatom -65 548 5 0 0 0 - - -;
#X floatatom -122 567 5 0 0 0 - - -;
#X connect 0 0 6 0;
#X connect 1 0 6 1;
#X connect 2 0 24 0;
#X connect 3 0 4 0;
#X connect 5 0 25 0;
#X connect 6 0 3 0;
#X connect 6 0 13 0;
#X connect 6 0 15 0;
#X connect 6 0 16 0;
#X connect 6 0 18 0;
#X connect 6 0 20 0;
#X connect 6 0 22 0;
#X connect 6 0 30 0;
#X connect 7 1 8 0;
#X connect 7 2 9 0;
#X connect 8 1 43 0;
#X connect 9 1 42 0;
#X connect 12 1 34 0;
#X connect 12 3 44 0;
#X connect 12 4 7 0;
#X connect 14 0 12 0;
#X connect 15 0 5 0;
#X connect 16 0 2 0;
#X connect 17 0 23 0;
#X connect 18 0 17 0;
#X connect 19 0 27 0;
#X connect 20 0 19 0;
#X connect 21 0 26 0;
#X connect 22 0 21 0;
#X connect 28 0 29 0;
#X connect 30 0 28 0;
#X connect 32 0 33 0;
#X connect 35 0 36 0;
#X connect 36 0 18 1;
#X connect 36 1 16 1;
#X connect 36 2 30 1;
#X connect 36 3 15 1;
#X connect 36 4 22 1;
#X connect 36 5 20 1;
#X connect 37 0 36 0;
#X connect 38 0 36 0;
#X connect 40 0 36 0;
#X connect 41 0 61 0;
#X connect 42 0 50 0;
#X connect 42 0 53 0;
#X connect 43 0 46 0;
#X connect 43 0 55 0;
#X connect 44 0 45 0;
#X connect 45 0 41 0;
#X connect 45 0 51 0;
#X connect 46 0 49 0;
#X connect 46 0 60 0;
#X connect 47 0 41 2;
#X connect 47 0 41 1;
#X connect 47 0 41 0;
#X connect 50 0 48 0;
#X connect 50 0 59 0;
#X connect 51 0 52 0;
#X connect 52 0 41 0;
#X connect 53 0 54 0;
#X connect 54 0 41 1;
#X connect 55 0 56 0;
#X connect 56 0 41 2;
#X connect 57 0 41 1;
#X connect 57 0 63 0;
#X connect 58 0 41 2;
#X connect 58 0 62 0;
#X connect 59 0 57 0;
#X connect 60 0 58 0;
#X restore 190 -548 pd Complex_EQ;
#X obj 191 -588 * 0.1;
#X floatatom 52 -560 5 0 0 0 osc101 osc101 -;
#X floatatom 52 -535 5 0 0 0 osc102 osc102 -;
#X floatatom 52 -510 5 0 0 0 osc103 osc103 -;
#X floatatom 52 -485 5 0 0 0 osc104 osc104 -;
#X floatatom 52 -460 5 0 0 0 osc105 osc105 -;
#X floatatom 52 -435 5 0 0 0 osc106 osc106 -;
#X floatatom 52 -410 5 0 0 0 osc123 o123 -;
#X floatatom 52 -385 5 0 0 0 osc124 o124 -;
#X floatatom 52 -360 5 0 0 0 osc125 o125 -;
#X obj 183 -479 s o123;
#X obj 230 -479 s o124;
#X obj 297 -482 s o125;
#X connect 0 0 6 0;
#X connect 0 0 26 0;
#X connect 0 1 5 0;
#X connect 0 1 27 0;
#X connect 0 2 4 0;
#X connect 0 2 28 0;
#X connect 4 0 2 0;
#X connect 5 0 3 0;
#X connect 6 0 1 0;
#X connect 7 0 15 1;
#X connect 9 0 16 0;
#X connect 10 0 11 0;
#X connect 11 0 12 0;
#X connect 13 0 8 0;
#X connect 15 0 0 0;
#X connect 16 0 15 0;
#X coords 0 452 1 451 85 60 0;
