#N canvas 254 150 454 251 10;
#N canvas 97 265 765 529 voices~ 0;
#X obj 83 23 inlet;
#X obj 129 23 inlet;
#X obj 83 86 route 1 2 3 4 5 6 7 8;
#X obj 83 136 unpack;
#X obj 175 23 inlet;
#X obj 83 57 pack 0 0 0;
#N canvas 165 96 512 531 v~ 0;
#X obj 172 56 inlet;
#X obj 323 54 inlet;
#X floatatom 172 87 5 0 0 0 - - -;
#X obj 358 115 / 127;
#X obj 358 142 * 40;
#X obj 358 171 + 55;
#X obj 358 199 dbtorms;
#X obj 323 80 sel 0;
#X obj 172 114 mtof;
#X obj 323 271 line~;
#X obj 173 302 *~;
#X obj 172 354 outlet~;
#X msg 323 239 \$1 5;
#X msg 323 113 0;
#X obj 172 159 phasor~;
#X obj 260 111 switch~;
#X obj 172 191 >~ 0.99;
#X connect 0 0 2 0;
#X connect 1 0 7 0;
#X connect 1 0 15 0;
#X connect 2 0 8 0;
#X connect 3 0 4 0;
#X connect 4 0 5 0;
#X connect 5 0 6 0;
#X connect 6 0 12 0;
#X connect 7 0 13 0;
#X connect 7 1 3 0;
#X connect 8 0 14 0;
#X connect 9 0 10 1;
#X connect 10 0 11 0;
#X connect 12 0 9 0;
#X connect 13 0 12 0;
#X connect 14 0 16 0;
#X connect 16 0 10 0;
#X restore 83 172 pd v~;
#X obj 127 175 unpack;
#N canvas 359 87 500 519 v~ 0;
#X obj 172 56 inlet;
#X obj 323 54 inlet;
#X floatatom 172 87 5 0 0 0 - - -;
#X obj 358 115 / 127;
#X obj 358 142 * 40;
#X obj 358 171 + 55;
#X obj 358 199 dbtorms;
#X obj 323 80 sel 0;
#X obj 172 114 mtof;
#X obj 323 271 line~;
#X obj 173 302 *~;
#X obj 172 354 outlet~;
#X msg 323 239 \$1 5;
#X msg 323 113 0;
#X obj 172 159 phasor~;
#X obj 172 191 >~ 0.99;
#X obj 260 111 switch~;
#X connect 0 0 2 0;
#X connect 1 0 7 0;
#X connect 1 0 16 0;
#X connect 2 0 8 0;
#X connect 3 0 4 0;
#X connect 4 0 5 0;
#X connect 5 0 6 0;
#X connect 6 0 12 0;
#X connect 7 0 13 0;
#X connect 7 1 3 0;
#X connect 8 0 14 0;
#X connect 9 0 10 1;
#X connect 10 0 11 0;
#X connect 12 0 9 0;
#X connect 13 0 12 0;
#X connect 14 0 15 0;
#X connect 15 0 10 0;
#X restore 127 211 pd v~;
#X obj 176 133 unpack;
#N canvas 359 87 500 519 v~ 0;
#X obj 172 56 inlet;
#X obj 323 54 inlet;
#X floatatom 172 87 5 0 0 0 - - -;
#X obj 358 115 / 127;
#X obj 358 142 * 40;
#X obj 358 171 + 55;
#X obj 358 199 dbtorms;
#X obj 323 80 sel 0;
#X obj 172 114 mtof;
#X obj 323 271 line~;
#X obj 173 302 *~;
#X obj 172 354 outlet~;
#X msg 323 239 \$1 5;
#X msg 323 113 0;
#X obj 172 159 phasor~;
#X obj 172 191 >~ 0.99;
#X obj 260 111 switch~;
#X connect 0 0 2 0;
#X connect 1 0 7 0;
#X connect 1 0 16 0;
#X connect 2 0 8 0;
#X connect 3 0 4 0;
#X connect 4 0 5 0;
#X connect 5 0 6 0;
#X connect 6 0 12 0;
#X connect 7 0 13 0;
#X connect 7 1 3 0;
#X connect 8 0 14 0;
#X connect 9 0 10 1;
#X connect 10 0 11 0;
#X connect 12 0 9 0;
#X connect 13 0 12 0;
#X connect 14 0 15 0;
#X connect 15 0 10 0;
#X restore 176 169 pd v~;
#X obj 220 172 unpack;
#N canvas 359 87 500 519 v~ 0;
#X obj 172 56 inlet;
#X obj 323 54 inlet;
#X floatatom 172 87 5 0 0 0 - - -;
#X obj 358 115 / 127;
#X obj 358 142 * 40;
#X obj 358 171 + 55;
#X obj 358 199 dbtorms;
#X obj 323 80 sel 0;
#X obj 172 114 mtof;
#X obj 323 271 line~;
#X obj 173 302 *~;
#X obj 172 354 outlet~;
#X msg 323 239 \$1 5;
#X msg 323 113 0;
#X obj 172 159 phasor~;
#X obj 172 191 >~ 0.99;
#X obj 260 111 switch~;
#X connect 0 0 2 0;
#X connect 1 0 7 0;
#X connect 1 0 16 0;
#X connect 2 0 8 0;
#X connect 3 0 4 0;
#X connect 4 0 5 0;
#X connect 5 0 6 0;
#X connect 6 0 12 0;
#X connect 7 0 13 0;
#X connect 7 1 3 0;
#X connect 8 0 14 0;
#X connect 9 0 10 1;
#X connect 10 0 11 0;
#X connect 12 0 9 0;
#X connect 13 0 12 0;
#X connect 14 0 15 0;
#X connect 15 0 10 0;
#X restore 220 208 pd v~;
#X obj 267 135 unpack;
#N canvas 359 87 500 519 v~ 0;
#X obj 172 56 inlet;
#X obj 323 54 inlet;
#X floatatom 172 87 5 0 0 0 - - -;
#X obj 358 115 / 127;
#X obj 358 142 * 40;
#X obj 358 171 + 55;
#X obj 358 199 dbtorms;
#X obj 323 80 sel 0;
#X obj 172 114 mtof;
#X obj 323 271 line~;
#X obj 173 302 *~;
#X obj 172 354 outlet~;
#X msg 323 239 \$1 5;
#X msg 323 113 0;
#X obj 172 159 phasor~;
#X obj 172 191 >~ 0.99;
#X obj 260 111 switch~;
#X connect 0 0 2 0;
#X connect 1 0 7 0;
#X connect 1 0 16 0;
#X connect 2 0 8 0;
#X connect 3 0 4 0;
#X connect 4 0 5 0;
#X connect 5 0 6 0;
#X connect 6 0 12 0;
#X connect 7 0 13 0;
#X connect 7 1 3 0;
#X connect 8 0 14 0;
#X connect 9 0 10 1;
#X connect 10 0 11 0;
#X connect 12 0 9 0;
#X connect 13 0 12 0;
#X connect 14 0 15 0;
#X connect 15 0 10 0;
#X restore 267 171 pd v~;
#X obj 311 174 unpack;
#N canvas 359 87 500 519 v~ 0;
#X obj 172 56 inlet;
#X obj 323 54 inlet;
#X floatatom 172 87 5 0 0 0 - - -;
#X obj 358 115 / 127;
#X obj 358 142 * 40;
#X obj 358 171 + 55;
#X obj 358 199 dbtorms;
#X obj 323 80 sel 0;
#X obj 172 114 mtof;
#X obj 323 271 line~;
#X obj 173 302 *~;
#X obj 172 354 outlet~;
#X msg 323 239 \$1 5;
#X msg 323 113 0;
#X obj 172 159 phasor~;
#X obj 172 191 >~ 0.99;
#X obj 260 111 switch~;
#X connect 0 0 2 0;
#X connect 1 0 7 0;
#X connect 1 0 16 0;
#X connect 2 0 8 0;
#X connect 3 0 4 0;
#X connect 4 0 5 0;
#X connect 5 0 6 0;
#X connect 6 0 12 0;
#X connect 7 0 13 0;
#X connect 7 1 3 0;
#X connect 8 0 14 0;
#X connect 9 0 10 1;
#X connect 10 0 11 0;
#X connect 12 0 9 0;
#X connect 13 0 12 0;
#X connect 14 0 15 0;
#X connect 15 0 10 0;
#X restore 311 210 pd v~;
#X obj 357 133 unpack;
#N canvas 359 87 500 519 v~ 0;
#X obj 172 56 inlet;
#X obj 323 54 inlet;
#X floatatom 172 87 5 0 0 0 - - -;
#X obj 358 115 / 127;
#X obj 358 142 * 40;
#X obj 358 171 + 55;
#X obj 358 199 dbtorms;
#X obj 323 80 sel 0;
#X obj 172 114 mtof;
#X obj 323 271 line~;
#X obj 173 302 *~;
#X obj 172 354 outlet~;
#X msg 323 239 \$1 5;
#X msg 323 113 0;
#X obj 172 159 phasor~;
#X obj 172 191 >~ 0.99;
#X obj 260 111 switch~;
#X connect 0 0 2 0;
#X connect 1 0 7 0;
#X connect 1 0 16 0;
#X connect 2 0 8 0;
#X connect 3 0 4 0;
#X connect 4 0 5 0;
#X connect 5 0 6 0;
#X connect 6 0 12 0;
#X connect 7 0 13 0;
#X connect 7 1 3 0;
#X connect 8 0 14 0;
#X connect 9 0 10 1;
#X connect 10 0 11 0;
#X connect 12 0 9 0;
#X connect 13 0 12 0;
#X connect 14 0 15 0;
#X connect 15 0 10 0;
#X restore 357 169 pd v~;
#X obj 401 172 unpack;
#N canvas 359 87 500 519 v~ 0;
#X obj 172 56 inlet;
#X obj 323 54 inlet;
#X floatatom 172 87 5 0 0 0 - - -;
#X obj 358 115 / 127;
#X obj 358 142 * 40;
#X obj 358 171 + 55;
#X obj 358 199 dbtorms;
#X obj 323 80 sel 0;
#X obj 172 114 mtof;
#X obj 323 271 line~;
#X obj 173 302 *~;
#X obj 172 354 outlet~;
#X msg 323 239 \$1 5;
#X msg 323 113 0;
#X obj 172 159 phasor~;
#X obj 172 191 >~ 0.99;
#X obj 260 111 switch~;
#X connect 0 0 2 0;
#X connect 1 0 7 0;
#X connect 1 0 16 0;
#X connect 2 0 8 0;
#X connect 3 0 4 0;
#X connect 4 0 5 0;
#X connect 5 0 6 0;
#X connect 6 0 12 0;
#X connect 7 0 13 0;
#X connect 7 1 3 0;
#X connect 8 0 14 0;
#X connect 9 0 10 1;
#X connect 10 0 11 0;
#X connect 12 0 9 0;
#X connect 13 0 12 0;
#X connect 14 0 15 0;
#X connect 15 0 10 0;
#X restore 401 208 pd v~;
#X obj 83 310 outlet~;
#X connect 0 0 5 0;
#X connect 1 0 5 1;
#X connect 2 0 3 0;
#X connect 2 1 7 0;
#X connect 2 2 9 0;
#X connect 2 3 11 0;
#X connect 2 4 13 0;
#X connect 2 5 15 0;
#X connect 2 6 17 0;
#X connect 2 7 19 0;
#X connect 3 0 6 0;
#X connect 3 1 6 1;
#X connect 4 0 5 2;
#X connect 5 0 2 0;
#X connect 6 0 21 0;
#X connect 7 0 8 0;
#X connect 7 1 8 1;
#X connect 8 0 21 0;
#X connect 9 0 10 0;
#X connect 9 1 10 1;
#X connect 10 0 21 0;
#X connect 11 0 12 0;
#X connect 11 1 12 1;
#X connect 12 0 21 0;
#X connect 13 0 14 0;
#X connect 13 1 14 1;
#X connect 14 0 21 0;
#X connect 15 0 16 0;
#X connect 15 1 16 1;
#X connect 16 0 21 0;
#X connect 17 0 18 0;
#X connect 17 1 18 1;
#X connect 18 0 21 0;
#X connect 19 0 20 0;
#X connect 19 1 20 1;
#X connect 20 0 21 0;
#X restore 200 80 pd voices~;
#X obj 200 41 poly 8 1;
#X msg 34 190 stop;
#X msg 37 161 start;
#X obj 79 211 writesf~ 1;
#X msg 37 135 open d:/zxbeptest1.wav;
#X obj 198 224 s~ dacout;
#X obj 78 171 r~ dacout;
#X obj 149 213 dac~;
#X obj 200 5 notein 1;
#X obj 270 57 stripnote;
#X msg 361 28 \; pd dsp 1;
#X msg 361 73 \; pd dsp 0;
#N canvas 121 116 454 294 shaper~ 0;
#N canvas 0 0 450 300 (subpatch) 0;
#X array array1 2 float 1;
#A 0 -1.86265e-08 1;
#X coords 0 1 1 0 200 140 1;
#X restore 213 64 graph;
#X obj 78 137 wrap~;
#X obj 78 162 tabread~ array1;
#X obj 78 114 inlet~;
#X obj 78 184 outlet~;
#X connect 1 0 2 0;
#X connect 2 0 4 0;
#X connect 3 0 1 0;
#X restore 199 167 pd shaper~;
#X obj 36 67 samphold~;
#X obj 90 40 phasor~ 5700;
#X obj 199 195 hip~ 100;
#N canvas 206 191 454 294 drums~ 0;
#X obj -23 82 sig~ 1;
#X obj -23 105 *~;
#X msg 14 59 1 \, 0 5;
#X obj 74 161 *~;
#X obj 18 83 line~;
#X obj 109 149 line~;
#X obj 74 89 samphold~;
#X obj 73 61 noise~;
#X msg 120 111 0.3 \, 0 45;
#X obj 73 113 >~ 0.6;
#X obj 123 65 phasor~ 5700;
#X obj 138 4 inlet;
#X obj 15 33 sel 60;
#X obj 114 31 sel 62;
#X obj 214 172 *~;
#X obj 249 160 line~;
#X obj 214 100 samphold~;
#X obj 213 72 noise~;
#X msg 260 122 0.3 \, 0 45;
#X obj 213 124 >~ 0.6;
#X obj 263 76 phasor~ 5700;
#X msg 263 31 3000 \, 5700 45;
#X obj 263 53 line~;
#X obj 168 30 sel 64;
#X obj -2 238 outlet~;
#X connect 0 0 1 0;
#X connect 1 0 24 0;
#X connect 2 0 4 0;
#X connect 3 0 24 0;
#X connect 4 0 1 1;
#X connect 5 0 3 1;
#X connect 6 0 9 0;
#X connect 7 0 6 0;
#X connect 8 0 5 0;
#X connect 9 0 3 0;
#X connect 10 0 6 1;
#X connect 11 0 12 0;
#X connect 11 0 13 0;
#X connect 11 0 23 0;
#X connect 12 0 2 0;
#X connect 13 0 8 0;
#X connect 14 0 24 0;
#X connect 15 0 14 1;
#X connect 16 0 19 0;
#X connect 17 0 16 0;
#X connect 18 0 15 0;
#X connect 19 0 14 0;
#X connect 20 0 16 1;
#X connect 21 0 22 0;
#X connect 22 0 20 0;
#X connect 23 0 21 0;
#X connect 23 0 18 0;
#X restore 271 101 pd drums~;
#X obj 361 5 loadbang;
#X obj 261 5 notein 1;
#X obj 29 11 import zexy;
#X connect 0 0 13 0;
#X connect 1 0 0 0;
#X connect 1 1 0 1;
#X connect 1 2 0 2;
#X connect 2 0 4 0;
#X connect 3 0 4 0;
#X connect 5 0 4 0;
#X connect 7 0 4 0;
#X connect 7 0 8 0;
#X connect 7 0 8 1;
#X connect 9 0 1 0;
#X connect 9 1 1 1;
#X connect 10 0 17 0;
#X connect 13 0 16 0;
#X connect 15 0 14 1;
#X connect 16 0 6 0;
#X connect 17 0 13 0;
#X connect 18 0 11 0;
#X connect 19 0 10 0;
#X connect 19 1 10 1;
