#N canvas 58 22 1032 279 10;
#X text 44 -171 1 -> Preferences -> MIDI settings... output device
1...;
#N canvas 435 86 349 220 MIDICtrlChange 0;
#X obj 101 101 cnv 5 125 22 empty ColorMIDI Silence 79 8 1 14 -262103
-1 1.04858e+06;
#X obj 288 183 cnv 15 48 25 empty empty empty 20 12 0 14 -24198 -66577
0;
#N canvas 350 196 308 136 ??? 0;
#X obj -6 87 cnv 15 300 38 empty empty empty 20 12 0 14 -224896 -66577
0;
#X obj -6 10 cnv 18 300 70 empty empty ARGOPdMiniModules 3 10 1 14
-4033 -1 1.04858e+06;
#X obj 13 31 cnv 10 10 10 empty empty Gerard 0 5 1 11 -4033 -1 1.04858e+06
;
#X obj 55 30 cnv 10 10 10 empty empty Paresys 0 5 1 11 -4033 -1 1.04858e+06
;
#X text -1 89 Construit sous / Build under Pd 0.42.5-extended;
#X obj 6 43 pddp/pddplink http://pagesperso-orange.fr/Paresys/ARGOPd/
;
#X obj 6 58 pddp/pddplink http://gerard.paresys.free.fr/ARGOPd/;
#X obj 46 105 pddp/pddplink http://puredata.info/downloads;
#X restore 292 187 pd ???;
#X text 176 81 3 1 2012;
#X obj 160 101 cnv 9 9 9 empty ColorMIDI Ch 0 5 1 9 -262103 -1 1.04858e+06
;
#X obj 153 112 nbx 2 12 1 16 0 1 \$0-A ColorMIDI empty 0 0 1 9 -262103
-1 -1 1 256;
#X obj 130 112 nbx 2 12 1 4 0 1 \$0-A ColorMIDI empty 0 0 1 9 -262103
-1 -1 1 256;
#X obj 134 101 cnv 9 9 9 empty ColorMIDI Port 0 5 1 9 -262103 -1 1.04858e+06
;
#X obj 170 158 expr 16*($f1-1) + ($f2);
#X obj 170 133 t b f;
#N canvas 506 239 187 273 silence 0;
#X obj 114 80 + 1;
#X obj 57 81 float;
#X obj 57 55 until;
#X msg 127 39 0;
#X obj 74 0 t b b;
#X msg 57 107 \$1 0;
#X obj 75 -34 inlet;
#X obj 57 146 outlet;
#X text 78 -52 bang;
#X text 53 165 noteout;
#X msg 57 33 128;
#X connect 0 0 1 1;
#X connect 1 0 0 0;
#X connect 1 0 5 0;
#X connect 2 0 1 0;
#X connect 3 0 1 1;
#X connect 4 0 10 0;
#X connect 4 1 3 0;
#X connect 5 0 7 0;
#X connect 6 0 4 0;
#X connect 10 0 2 0;
#X restore 100 159 pd silence;
#X obj 100 196 noteout;
#X obj 100 100 bng 24 50 50 0 \$0-A \$0-B empty 14 7 1 9 -257985 -260097
-1;
#X text 241 105 Silence = "Panic";
#X text 46 71 MM MIDI-Silence;
#X connect 5 0 9 0;
#X connect 6 0 8 0;
#X connect 8 0 11 2;
#X connect 9 0 8 0;
#X connect 9 1 8 1;
#X connect 10 0 11 0;
#X connect 12 0 10 0;
#X coords 0 -1 1 1 127 24 1 100 100;
#X restore 256 73 pd MIDICtrlChange;
#X text 44 -152 2 Clic ->;
#X obj -240 -170 cnv 15 15 15 empty empty ExMM87b-MIDI-Keyboard.pd
0 8 1 14 -262144 -1 0;
#X text 408 -127 -> Bang à la fin du fichier;
#X text 408 -117 -> Bang at the end of the file;
#X obj 727 73 cnv 15 48 25 empty empty empty 20 12 0 14 -24198 -66577
0;
#N canvas 350 196 308 136 ??? 0;
#X obj -6 87 cnv 15 300 38 empty empty empty 20 12 0 14 -224896 -66577
0;
#X obj -6 10 cnv 18 300 70 empty empty ARGOPdMiniModules 3 10 1 14
-4033 -1 1.04858e+06;
#X obj 13 31 cnv 10 10 10 empty empty Gerard 0 5 1 11 -4033 -1 1.04858e+06
;
#X obj 55 30 cnv 10 10 10 empty empty Paresys 0 5 1 11 -4033 -1 1.04858e+06
;
#X text -1 89 Construit sous / Build under Pd 0.42.5-extended;
#X obj 6 43 pddp/pddplink http://pagesperso-orange.fr/Paresys/ARGOPd/
;
#X obj 6 58 pddp/pddplink http://gerard.paresys.free.fr/ARGOPd/;
#X obj 46 105 pddp/pddplink http://puredata.info/downloads;
#X restore 731 77 pd ???;
#N canvas 239 86 714 442 ARGO 0;
#X obj -13 64 openpanel;
#X msg 34 115 set \$1;
#X obj 333 175 sel 1;
#X obj 49 6 loadbang;
#X obj 18 265 list2symbol;
#X obj 147 295 delay 5;
#X obj -13 42 bang;
#X obj 49 199 cnv 15 400 50 empty empty empty 20 12 0 14 -260097 -66577
0;
#X text 51 198 Nom du fichier / File name;
#X text 451 207 <- Ajouter ../ devant le nom du fichier \; pour remonter
d'un dossier;
#X obj 570 45 cnv 15 60 30 empty empty empty 20 12 0 14 -24198 -66577
0;
#N canvas 500 185 422 391 Help 0;
#X obj 9 -256 cnv 15 400 200 empty empty empty 20 12 0 14 -233017 -66577
0;
#X text 12 -257 Citation;
#X text 26 -225 cyclone's [seq] input accepts midi files and realtime
midi messages through [midiin]. All trakcs of a multi-track midi file
are merged into one. [notein] doesn't work. Left inlet outputs midi
data to [midiout]. [noteout] doesn't work. Right inlet outputs a bang
message at the sequence's end \, useful for loops. [seq] has his own
midi list editor.;
#X text 26 -242 seq - a simple MIDI file player and recorder;
#X text 7 -284 MM MIDI-Play;
#X text 26 -113 ver 0.1 05-07;
#X text 26 -141 Click object to open list editor;
#X obj 119 -112 pddp/pddplink http://jkant.altervista.org/;
#X text 16 -39 - Si le Patch est sauvé avec 1 Player contenant un nom
de fichier \, ce fichier sera lu automatiquement à la prochaine ouverture
s'il n'a pas changé d'emplacement.;
#X text 15 7 - Peut Ouvrir automatiquement 1 fichier qui se trouve
dans le même dossier que lui \, quelquesoit l'emplacement du dossier.
Pour cela ouvrir le module et taper le nom du fichier (sans chemin
d'accés) dans le message. Le dossier contenant le patch et le fichier
est ainsi transportable.;
#X restore 577 51 pd Help;
#X obj 639 404 cnv 15 48 25 empty empty empty 20 12 0 14 -24198 -66577
0;
#N canvas 350 196 308 136 ??? 0;
#X obj -6 87 cnv 15 300 38 empty empty empty 20 12 0 14 -224896 -66577
0;
#X obj -6 10 cnv 18 300 70 empty empty ARGOPdMiniModules 3 10 1 14
-4033 -1 1.04858e+06;
#X obj 13 31 cnv 10 10 10 empty empty Gerard 0 5 1 11 -4033 -1 1.04858e+06
;
#X obj 55 30 cnv 10 10 10 empty empty Paresys 0 5 1 11 -4033 -1 1.04858e+06
;
#X text -1 89 Construit sous / Build under Pd 0.42.5-extended;
#X obj 6 43 pddp/pddplink http://pagesperso-orange.fr/Paresys/ARGOPd/
;
#X obj 6 58 pddp/pddplink http://gerard.paresys.free.fr/ARGOPd/;
#X obj 46 105 pddp/pddplink http://puredata.info/downloads;
#X restore 643 408 pd ???;
#X obj 333 149 f;
#X obj -12 84 t b b s;
#X obj 383 404 cnv 15 240 24 empty empty empty 20 12 0 14 -261682 -66577
0;
#X text 433 402 -> Bang à la fin du fichier;
#X text 434 412 -> Bang at the end of the file;
#X obj 388 408 outlet;
#X obj 196 340 cyclone/seq;
#X msg 87 295 read \$1;
#X obj 101 101 cnv 5 298 39 empty ColorMIDI Play 271 8 1 14 -262103
-1 1.04858e+06;
#X obj 190 100 tgl 12 1 \$0-A \$0-B Pause 14 7 1 9 -257985 -1 -1 0
1;
#X obj 311 100 bng 12 250 50 0 \$0-A \$0-B Stop 15 7 1 9 -257985 -1
-1;
#X obj 249 100 tgl 12 1 \$0-A \$0-B Loop 15 7 1 9 -257985 -1 -1 0 1
;
#X text 75 81 Trig Decl;
#X obj 106 113 hradio 14 1 0 20 empty empty empty 0 6 0 8 -260097 -260097
-260097 0;
#X text 401 110 <- Click the name to change;
#X symbolatom 100 113 49 0 0 0 - - -;
#X obj 388 129 bng 12 50 20 0 \$0-A \$0-B empty 14 6 1 9 -262144 -1
-1;
#X obj 389 136 cnv 4 10 4 empty empty empty 20 12 0 14 -260097 -66577
0;
#X obj 100 129 bng 12 50 20 0 \$0-A \$0-B empty 14 6 1 9 -257985 -1
-1;
#X obj 101 136 cnv 4 10 4 empty empty empty 20 12 0 14 -260097 -66577
0;
#X obj 100 100 bng 12 250 50 0 \$0-A \$0-B Play 15 7 1 9 -257985 -1
-1;
#X obj 218 263 select 0 1;
#X msg 351 295 stop;
#X msg 262 295 pause;
#X msg 200 295 continue;
#X obj 77 405 cnv 15 240 24 empty empty empty 20 12 0 14 -261682 -66577
0;
#X obj 85 408 outlet;
#X text 127 403 -> Vers MM-MIDI-Out;
#X text 128 413 -> To MM-MIDI-Out;
#X obj 161 382 cyclone/speedlim 100;
#X msg 190 74 set 0;
#X text 271 339 <- 2 x Clic l'objet seq pour afficher la sequence MIDI
;
#X msg 305 295 print;
#X obj 249 129 bng 12 250 50 0 \$0-A \$0-B Print-beginning 15 7 1 9
-257985 -1 -1;
#X obj 153 26 t b b b;
#X msg 18 290 set \$1;
#X obj 235 173 t b b;
#X text 340 83 7 1 2012;
#X msg 53 217 jsb0817.mid;
#X connect 0 0 15 0;
#X connect 1 0 52 0;
#X connect 2 0 34 0;
#X connect 3 0 52 0;
#X connect 4 0 49 0;
#X connect 5 0 20 0;
#X connect 6 0 0 0;
#X connect 14 0 2 0;
#X connect 15 1 52 0;
#X connect 15 2 1 0;
#X connect 20 0 40 0;
#X connect 20 0 43 0;
#X connect 20 1 30 0;
#X connect 21 0 20 0;
#X connect 23 0 35 0;
#X connect 24 0 36 0;
#X connect 25 0 14 1;
#X connect 27 0 6 0;
#X connect 29 0 21 0;
#X connect 30 0 19 0;
#X connect 30 0 14 0;
#X connect 34 0 48 0;
#X connect 35 0 38 0;
#X connect 35 1 37 0;
#X connect 36 0 20 0;
#X connect 37 0 20 0;
#X connect 38 0 20 0;
#X connect 43 0 32 0;
#X connect 44 0 23 0;
#X connect 46 0 20 0;
#X connect 47 0 50 0;
#X connect 48 0 5 0;
#X connect 48 1 44 0;
#X connect 48 2 29 0;
#X connect 49 0 29 0;
#X connect 50 0 46 0;
#X connect 50 1 29 0;
#X connect 52 0 4 0;
#X coords 0 -1 1 1 300 41 2 100 100;
#X restore 104 -148 pd ARGO;
#X obj 104 -87 midiparse;
#X obj 104 -51 unpack f f;
#N canvas 613 265 325 192 ARGO 0;
#X obj 101 101 cnv 3 118 13 empty empty empty 20 12 0 14 -262103 -1
0;
#X obj 158 104 cnv 10 20 10 empty ColorAmpli MIDINote 1 5 1 14 -262103
-1 1.04858e+06;
#X obj 101 101 bng 12 250 50 0 \$0-A \$0-B Gb3 14 8 1 14 -262144 -1
-1;
#X obj 102 102 cnv 4 10 4 empty empty empty 20 12 0 14 -260097 -66577
0;
#X obj 102 37 inlet;
#N canvas 407 241 539 315 pitchb 0;
#X obj 70 111 mod 12;
#X obj 70 135 sel 0 1 2 3 4 5 6 7 8 9 10 11;
#X msg 246 170 A;
#X msg 300 170 B;
#X msg 192 170 G;
#X msg 3 170 C;
#X msg 57 170 D;
#X msg 111 170 E;
#X msg 138 170 F;
#X obj 204 1 inlet;
#X obj 329 115 div 12;
#X obj 204 79 t f f;
#X text 334 190 -> Numero de l'octave;
#X text 213 64 -> Numero MIDI de la note (69 = A3 = 440Hz);
#X msg 260 260 label \$1;
#X obj 260 283 outlet;
#X msg 30 170 Db;
#X msg 84 170 Eb;
#X msg 165 170 Gb;
#X msg 219 170 Ab;
#X msg 273 170 Bb;
#X text 369 78 (70 = A#3 = Bb3);
#X obj 260 238 symbol;
#X obj 260 213 sprintf %s%d;
#X text 11 231 Impossible d'afficher # dans un label;
#X text 11 243 donc j'affiche b;
#X obj 204 51 int;
#X text 255 23 -> pour corriger certaines erreurs de calcul;
#X obj 204 25 + 120.1;
#X obj 329 144 - 12;
#X text 255 35 et le pb du passage a zero de mod 12;
#X connect 0 0 1 0;
#X connect 1 0 5 0;
#X connect 1 1 16 0;
#X connect 1 2 6 0;
#X connect 1 3 17 0;
#X connect 1 4 7 0;
#X connect 1 5 8 0;
#X connect 1 6 18 0;
#X connect 1 7 4 0;
#X connect 1 8 19 0;
#X connect 1 9 2 0;
#X connect 1 10 20 0;
#X connect 1 11 3 0;
#X connect 2 0 23 0;
#X connect 3 0 23 0;
#X connect 4 0 23 0;
#X connect 5 0 23 0;
#X connect 6 0 23 0;
#X connect 7 0 23 0;
#X connect 8 0 23 0;
#X connect 9 0 28 0;
#X connect 10 0 29 0;
#X connect 11 0 0 0;
#X connect 11 1 10 0;
#X connect 14 0 15 0;
#X connect 16 0 23 0;
#X connect 17 0 23 0;
#X connect 18 0 23 0;
#X connect 19 0 23 0;
#X connect 20 0 23 0;
#X connect 22 0 14 0;
#X connect 23 0 22 0;
#X connect 26 0 11 0;
#X connect 28 0 26 0;
#X connect 29 0 23 1;
#X restore 113 68 pd pitchb;
#X obj 183 34 cnv 15 41 30 empty empty empty 20 12 0 14 -24198 -66577
0;
#N canvas 350 196 381 103 ? 0;
#X obj 5 49 cnv 15 370 38 empty empty empty 20 12 0 14 -224896 -66577
0;
#X text 6 65 Voir/Look at: http://puredata.info/downloads;
#X obj 4 12 cnv 18 370 30 empty empty ARGOPdMiniModules 1 10 1 14 -4033
-1 1.04858e+06;
#X obj 7 31 cnv 10 10 10 empty empty Gerard 0 5 1 9 -4033 -1 1.04858e+06
;
#X obj 38 31 cnv 10 10 10 empty empty Paresys 0 5 1 9 -4033 -1 1.04858e+06
;
#X obj 175 20 cnv 10 10 10 empty empty http://pagesperso-orange.fr/Paresys/ARGOPd/
0 5 1 9 -4033 -1 1.04858e+06;
#X obj 175 31 cnv 10 10 10 empty empty http://gerard.paresys.free.fr/ARGOPd/
0 5 1 9 -4033 -1 1.04858e+06;
#X text 6 51 Construit sous / Build under Pd 0.41.4-extended;
#X restore 189 41 pd ?;
#X text 177 82 10 1 2010;
#X connect 4 0 5 0;
#X connect 4 0 2 0;
#X connect 5 0 2 0;
#X coords 0 -1 1 1 120 15 2 100 100;
#X restore -242 82 pd ARGO;
#N canvas 472 44 349 279 MIDICtrlChange 0;
#X obj 101 101 cnv 10 125 43 empty ColorMIDI OutNote 72 26 1 14 -262103
-1 1.04858e+06;
#X obj 204 106 nbx 2 12 1 16 0 1 \$0-A ColorMIDI empty 0 0 1 9 -262103
-1 -1 7 256;
#X obj 112 133 nbx 2 12 1 4 0 1 \$0-A ColorMIDI empty 0 0 1 9 -262103
-1 -1 1 256;
#X obj 137 134 cnv 9 9 9 empty ColorMIDI Port 0 5 1 9 -262103 -1 1.04858e+06
;
#X obj 100 106 nbx 3 12 0 127 0 1 \$0-A ColorMIDI empty 0 0 1 9 -208064
-1 -1 66 256;
#X text 92 30 Pitch;
#X text 141 28 Velocity;
#X obj 101 101 cnv 4 10 4 empty empty empty 20 12 0 14 -260097 -66577
0;
#X obj 216 101 cnv 4 10 4 empty empty empty 20 12 0 14 -260097 -66577
0;
#X obj 151 106 nbx 3 12 0 127 0 1 \$0-A ColorMIDI empty 0 0 1 9 -261299
-1 -1 127 256;
#X obj 100 133 bng 12 50 50 0 \$0-A \$0-B empty 6 9 0 9 -257985 -260097
-1;
#X text 88 45 0..127;
#X obj 143 233 noteout;
#X text 278 180 Duration;
#X obj 91 64 inlet;
#X text 148 42 0..127;
#X obj 151 61 inlet;
#X obj 182 181 expr 16*($f1-1) + ($f2);
#X obj 204 157 t b f;
#X obj 42 93 t b f;
#X obj 54 130 int;
#X obj 277 224 cnv 15 48 25 empty empty empty 20 12 0 14 -24198 -66577
0;
#N canvas 350 196 308 136 ??? 0;
#X obj -6 87 cnv 15 300 38 empty empty empty 20 12 0 14 -224896 -66577
0;
#X obj -6 10 cnv 18 300 70 empty empty ARGOPdMiniModules 3 10 1 14
-4033 -1 1.04858e+06;
#X obj 13 31 cnv 10 10 10 empty empty Gerard 0 5 1 11 -4033 -1 1.04858e+06
;
#X obj 55 30 cnv 10 10 10 empty empty Paresys 0 5 1 11 -4033 -1 1.04858e+06
;
#X text -1 89 Construit sous / Build under Pd 0.42.5-extended;
#X obj 6 43 pddp/pddplink http://pagesperso-orange.fr/Paresys/ARGOPd/
;
#X obj 6 58 pddp/pddplink http://gerard.paresys.free.fr/ARGOPd/;
#X obj 46 105 pddp/pddplink http://puredata.info/downloads;
#X restore 281 228 pd ???;
#X text 237 113 8 1 2012;
#X obj 218 61 inlet;
#X text 213 29 Channel;
#X text 216 42 1..16;
#X obj 159 101 cnv 4 10 4 empty empty empty 20 12 0 14 -260097 -66577
0;
#X obj 13 38 cnv 15 60 30 empty empty empty 20 12 0 14 -24198 -66577
0;
#N canvas 539 88 418 512 Help 0;
#X obj 8 36 cnv 15 400 360 empty empty empty 20 12 0 14 -233017 -66577
0;
#X text 11 38 Citation;
#X text 8 13 MM MIDI-OutNote;
#X text 26 63 The [noteout] objects writes a note-on MIDI message to
the output port.;
#X restore 20 44 pd Help;
#X connect 1 0 18 0;
#X connect 2 0 17 0;
#X connect 4 0 12 0;
#X connect 9 0 12 1;
#X connect 10 0 20 0;
#X connect 14 0 19 0;
#X connect 16 0 9 0;
#X connect 17 0 12 2;
#X connect 18 0 17 0;
#X connect 18 1 17 1;
#X connect 19 0 10 0;
#X connect 19 1 20 1;
#X connect 20 0 4 0;
#X connect 24 0 1 0;
#X coords 0 -1 1 1 127 45 1 100 100;
#X restore 101 52 pd MIDICtrlChange;
#N canvas 3 69 1134 212 MIDI-Key 0;
#X obj 160 59 inlet;
#X obj 158 153 outlet;
#X obj 101 101 cnv 5 1022 38 empty empty empty 20 12 0 14 -262103 -1
0;
#X obj 100 119 hradio 8 1 0 128 \$0-A \$0-B empty 0 -8 0 10 -262144
-1 -1 66;
#X obj 589 112 cnv 5 6 6 empty empty empty 20 12 0 14 -1 -66577 0;
#X obj 605 112 cnv 5 6 6 empty empty empty 20 12 0 14 -1 -66577 0;
#X obj 629 112 cnv 5 6 6 empty empty empty 20 12 0 14 -1 -66577 0;
#X obj 645 112 cnv 5 6 6 empty empty empty 20 12 0 14 -1 -66577 0;
#X obj 661 112 cnv 5 6 6 empty empty empty 20 12 0 14 -1 -66577 0;
#X text 673 125 C4;
#X obj 685 112 cnv 5 6 6 empty empty empty 20 12 0 14 -1 -66577 0;
#X obj 701 112 cnv 5 6 6 empty empty empty 20 12 0 14 -1 -66577 0;
#X obj 725 112 cnv 5 6 6 empty empty empty 20 12 0 14 -1 -66577 0;
#X obj 741 112 cnv 5 6 6 empty empty empty 20 12 0 14 -1 -66577 0;
#X obj 757 112 cnv 5 6 6 empty empty empty 20 12 0 14 -1 -66577 0;
#X text 769 125 C5;
#X obj 781 112 cnv 5 6 6 empty empty empty 20 12 0 14 -1 -66577 0;
#X obj 797 112 cnv 5 6 6 empty empty empty 20 12 0 14 -1 -66577 0;
#X obj 821 112 cnv 5 6 6 empty empty empty 20 12 0 14 -1 -66577 0;
#X obj 837 112 cnv 5 6 6 empty empty empty 20 12 0 14 -1 -66577 0;
#X obj 853 112 cnv 5 6 6 empty empty empty 20 12 0 14 -1 -66577 0;
#X text 865 125 C6;
#X obj 877 112 cnv 5 6 6 empty empty empty 20 12 0 14 -1 -66577 0;
#X obj 893 112 cnv 5 6 6 empty empty empty 20 12 0 14 -1 -66577 0;
#X obj 917 112 cnv 5 6 6 empty empty empty 20 12 0 14 -1 -66577 0;
#X obj 933 112 cnv 5 6 6 empty empty empty 20 12 0 14 -1 -66577 0;
#X obj 949 112 cnv 5 6 6 empty empty empty 20 12 0 14 -1 -66577 0;
#X text 961 125 C7;
#X obj 973 112 cnv 5 6 6 empty empty empty 20 12 0 14 -1 -66577 0;
#X obj 989 112 cnv 5 6 6 empty empty empty 20 12 0 14 -1 -66577 0;
#X obj 1013 112 cnv 5 6 6 empty empty empty 20 12 0 14 -1 -66577 0
;
#X obj 1029 112 cnv 5 6 6 empty empty empty 20 12 0 14 -1 -66577 0
;
#X obj 1045 112 cnv 5 6 6 empty empty empty 20 12 0 14 -1 -66577 0
;
#X obj 1069 112 cnv 5 6 6 empty empty empty 20 12 0 14 -1 -66577 0
;
#X obj 1085 112 cnv 5 6 6 empty empty empty 20 12 0 14 -1 -66577 0
;
#X obj 1109 112 cnv 5 6 6 empty empty empty 20 12 0 14 -1 -66577 0
;
#X text 1057 125 C8;
#X obj 109 112 cnv 5 6 6 empty empty empty 20 12 0 14 -1 -66577 0;
#X obj 125 112 cnv 5 6 6 empty empty empty 20 12 0 14 -1 -66577 0;
#X obj 149 112 cnv 5 6 6 empty empty empty 20 12 0 14 -1 -66577 0;
#X obj 165 112 cnv 5 6 6 empty empty empty 20 12 0 14 -1 -66577 0;
#X obj 181 112 cnv 5 6 6 empty empty empty 20 12 0 14 -1 -66577 0;
#X obj 205 112 cnv 5 6 6 empty empty empty 20 12 0 14 -1 -66577 0;
#X obj 221 112 cnv 5 6 6 empty empty empty 20 12 0 14 -1 -66577 0;
#X obj 245 112 cnv 5 6 6 empty empty empty 20 12 0 14 -1 -66577 0;
#X obj 261 112 cnv 5 6 6 empty empty empty 20 12 0 14 -1 -66577 0;
#X obj 277 112 cnv 5 6 6 empty empty empty 20 12 0 14 -1 -66577 0;
#X obj 301 112 cnv 5 6 6 empty empty empty 20 12 0 14 -1 -66577 0;
#X obj 317 112 cnv 5 6 6 empty empty empty 20 12 0 14 -1 -66577 0;
#X obj 341 112 cnv 5 6 6 empty empty empty 20 12 0 14 -1 -66577 0;
#X obj 357 112 cnv 5 6 6 empty empty empty 20 12 0 14 -1 -66577 0;
#X obj 373 112 cnv 5 6 6 empty empty empty 20 12 0 14 -1 -66577 0;
#X obj 397 112 cnv 5 6 6 empty empty empty 20 12 0 14 -1 -66577 0;
#X obj 413 112 cnv 5 6 6 empty empty empty 20 12 0 14 -1 -66577 0;
#X obj 437 112 cnv 5 6 6 empty empty empty 20 12 0 14 -1 -66577 0;
#X obj 453 112 cnv 5 6 6 empty empty empty 20 12 0 14 -1 -66577 0;
#X obj 469 112 cnv 5 6 6 empty empty empty 20 12 0 14 -1 -66577 0;
#X obj 493 112 cnv 5 6 6 empty empty empty 20 12 0 14 -1 -66577 0;
#X obj 509 112 cnv 5 6 6 empty empty empty 20 12 0 14 -1 -66577 0;
#X obj 533 112 cnv 5 6 6 empty empty empty 20 12 0 14 -1 -66577 0;
#X obj 549 112 cnv 5 6 6 empty empty empty 20 12 0 14 -1 -66577 0;
#X obj 565 112 cnv 5 6 6 empty empty empty 20 12 0 14 -1 -66577 0;
#X text 577 125 C3;
#X text 481 125 C2;
#X text 385 125 C1;
#X text 289 125 C0;
#X text 189 125 C-1;
#X obj 101 101 bng 12 250 50 0 \$0-A \$0-B empty 0 8 1 14 -262144 -1
-1;
#X obj 102 102 cnv 4 10 4 empty empty empty 20 12 0 14 -260097 -66577
0;
#X obj 101 135 cnv 4 10 4 empty empty empty 20 12 0 14 -260097 -66577
0;
#X obj 1075 173 cnv 15 48 25 empty empty empty 20 12 0 14 -24198 -66577
0;
#N canvas 350 196 308 136 ??? 0;
#X obj -6 87 cnv 15 300 38 empty empty empty 20 12 0 14 -224896 -66577
0;
#X obj -6 10 cnv 18 300 70 empty empty ARGOPdMiniModules 3 10 1 14
-4033 -1 1.04858e+06;
#X obj 13 31 cnv 10 10 10 empty empty Gerard 0 5 1 11 -4033 -1 1.04858e+06
;
#X obj 55 30 cnv 10 10 10 empty empty Paresys 0 5 1 11 -4033 -1 1.04858e+06
;
#X text -1 89 Construit sous / Build under Pd 0.42.5-extended;
#X obj 6 43 pddp/pddplink http://pagesperso-orange.fr/Paresys/ARGOPd/
;
#X obj 6 58 pddp/pddplink http://gerard.paresys.free.fr/ARGOPd/;
#X obj 46 105 pddp/pddplink http://puredata.info/downloads;
#X restore 1079 177 pd ???;
#X text 713 78 26 1 2012;
#X text 478 63 MM MIDI-Keyboard;
#X connect 0 0 3 0;
#X connect 0 0 67 0;
#X connect 3 0 1 0;
#X coords 0 -1 1 1 1024 40 1 100 100;
#X restore -242 -10 pd MIDI-Key;
#X connect 8 0 9 0;
#X connect 9 0 10 0;
#X connect 9 6 12 2;
#X connect 10 0 13 0;
#X connect 10 1 12 1;
#X connect 13 0 11 0;
#X connect 13 0 12 0;
