#N canvas 342 88 1024 537 10;
#N canvas 17 89 1349 679 routing 0;
#X obj 100 100 cnv 15 148 212 empty empty empty 20 12 0 14 -66577 -66577
0;
#X obj 1011 60 r in_throw;
#X symbolatom 315 135 10 0 0 0 - - -;
#X symbolatom 431 207 10 0 0 0 - - -;
#X obj 315 220 s in_throw;
#X obj 356 265 pack s s;
#X msg 356 291 \; \$1_throw symbol \$2 \;;
#X symbolatom 496 297 10 0 0 0 - - -;
#X obj 431 351 pack s s;
#X msg 431 377 \; \$1_throw symbol \$2 \;;
#X symbolatom 569 383 10 0 0 0 - - -;
#X obj 496 439 pack s s;
#X msg 496 465 \; \$1_throw symbol \$2 \;;
#X symbolatom 639 471 10 0 0 0 - - -;
#X obj 570 526 pack s s;
#X msg 570 552 \; \$1_throw symbol \$2 \;;
#X obj 108 207 popup 124 25 grey fx_slot out delay wah-wah drive bit
;
#X obj 969 59 inlet~;
#X obj 356 240 t b s;
#X obj 431 326 t b s;
#X obj 496 414 t b s;
#X obj 570 501 t b s;
#X obj 108 103 popup 124 25 grey fx_slot out delay wah-wah tremolo
chorus phaser drive reverb bit;
#X obj 108 129 popup 124 25 grey fx_slot out delay wah-wah tremolo
phaser drive reverb bit;
#X obj 108 181 popup 124 25 grey fx_slot out delay wah-wah phaser drive
bit;
#X obj 108 155 popup 124 25 grey fx_slot out delay wah-wah phaser drive
reverb bit;
#N canvas 317 65 505 494 element 0;
#X obj 254 121 list-find;
#X obj 305 97 l;
#X obj 223 146 list-delete;
#X obj 223 72 t b a b;
#X obj 223 121 l;
#X obj 197 352 prepend options;
#X obj 197 325 list trim;
#X obj 320 48 inlet;
#X obj 223 28 inlet;
#X obj 197 378 outlet;
#X obj 330 382 outlet;
#X obj 244 220 list-find;
#X msg 243 196 symbol out;
#X obj 295 248 > 0;
#X obj 223 170 t l b l;
#X obj 262 293 spigot;
#X obj 295 269 == 0;
#X obj 197 292 spigot;
#X obj 197 249 list prepend out;
#X connect 0 0 2 1;
#X connect 1 0 0 1;
#X connect 2 0 14 0;
#X connect 3 0 4 0;
#X connect 3 1 0 0;
#X connect 3 2 1 0;
#X connect 4 0 2 0;
#X connect 5 0 9 0;
#X connect 6 0 5 0;
#X connect 7 0 1 1;
#X connect 7 0 4 1;
#X connect 8 0 3 0;
#X connect 11 1 13 0;
#X connect 12 0 11 0;
#X connect 13 0 15 1;
#X connect 13 0 16 0;
#X connect 14 0 15 0;
#X connect 14 0 18 0;
#X connect 14 1 12 0;
#X connect 14 2 11 1;
#X connect 15 0 6 0;
#X connect 15 0 10 0;
#X connect 16 0 17 1;
#X connect 17 0 6 0;
#X connect 17 0 10 0;
#X connect 18 0 17 0;
#X restore -42 120 pd element kill;
#N canvas 346 331 450 300 prepare 0;
#X obj 156 125 prepend options;
#X obj 156 98 list trim;
#X obj 156 74 inlet;
#X obj 156 153 outlet;
#X obj 206 153 outlet;
#X connect 0 0 3 0;
#X connect 1 0 0 0;
#X connect 2 0 1 0;
#X connect 2 0 4 0;
#X restore 108 74 pd prepare;
#N canvas 0 0 1152 354 switch 0;
#X msg 72 186 \; \$2_wah-wah_switch \$1;
#X obj 72 163 pack f \$0;
#X obj 72 140 find_element wah-wah;
#X obj 803 59 inlet;
#X obj 212 163 pack f \$0;
#X obj 212 140 find_element delay;
#X msg 212 186 \; \$2_delay_switch \$1;
#X obj 342 163 pack f \$0;
#X obj 482 163 pack f \$0;
#X obj 342 140 find_element phaser;
#X msg 342 187 \; \$2_phaser_switch \$1;
#X msg 482 186 \; \$2_chorus_switch \$1;
#X obj 482 140 find_element chorus;
#X obj 632 163 pack f \$0;
#X obj 632 140 find_element tremolo;
#X msg 630 185 \; \$2_tremolo_switch \$1;
#X obj 772 163 pack f \$0;
#X obj 772 140 find_element drive;
#X msg 770 185 \; \$2_drive_switch \$1;
#X obj 902 163 pack f \$0;
#X msg 900 185 \; \$2_reverb_switch \$1;
#X obj 902 140 find_element reverb;
#X obj 1042 163 pack f \$0;
#X obj 1042 140 find_element bit;
#X msg 1040 185 \; \$2_bit_switch \$1;
#X connect 1 0 0 0;
#X connect 2 0 1 0;
#X connect 3 0 2 0;
#X connect 3 0 5 0;
#X connect 3 0 9 0;
#X connect 3 0 12 0;
#X connect 3 0 14 0;
#X connect 3 0 17 0;
#X connect 3 0 21 0;
#X connect 3 0 23 0;
#X connect 4 0 6 0;
#X connect 5 0 4 0;
#X connect 7 0 10 0;
#X connect 8 0 11 0;
#X connect 9 0 7 0;
#X connect 12 0 8 0;
#X connect 13 0 15 0;
#X connect 14 0 13 0;
#X connect 16 0 18 0;
#X connect 17 0 16 0;
#X connect 19 0 20 0;
#X connect 21 0 19 0;
#X connect 22 0 24 0;
#X connect 23 0 22 0;
#X restore 648 182 pd switch;
#X obj 969 201 tanh~;
#N canvas 317 65 505 494 element 0;
#X obj 254 121 list-find;
#X obj 305 97 l;
#X obj 223 146 list-delete;
#X obj 223 72 t b a b;
#X obj 223 121 l;
#X obj 197 352 prepend options;
#X obj 197 325 list trim;
#X obj 320 48 inlet;
#X obj 223 28 inlet;
#X obj 197 378 outlet;
#X obj 330 382 outlet;
#X obj 244 220 list-find;
#X msg 243 196 symbol out;
#X obj 295 248 > 0;
#X obj 223 170 t l b l;
#X obj 262 293 spigot;
#X obj 295 269 == 0;
#X obj 197 292 spigot;
#X obj 197 249 list prepend out;
#X connect 0 0 2 1;
#X connect 1 0 0 1;
#X connect 2 0 14 0;
#X connect 3 0 4 0;
#X connect 3 1 0 0;
#X connect 3 2 1 0;
#X connect 4 0 2 0;
#X connect 5 0 9 0;
#X connect 6 0 5 0;
#X connect 7 0 1 1;
#X connect 7 0 4 1;
#X connect 8 0 3 0;
#X connect 11 1 13 0;
#X connect 12 0 11 0;
#X connect 13 0 15 1;
#X connect 13 0 16 0;
#X connect 14 0 15 0;
#X connect 14 0 18 0;
#X connect 14 1 12 0;
#X connect 14 2 11 1;
#X connect 15 0 6 0;
#X connect 15 0 10 0;
#X connect 16 0 17 1;
#X connect 17 0 6 0;
#X connect 17 0 10 0;
#X connect 18 0 17 0;
#X restore -42 147 pd element kill;
#N canvas 317 65 505 494 element 0;
#X obj 254 121 list-find;
#X obj 305 97 l;
#X obj 223 146 list-delete;
#X obj 223 72 t b a b;
#X obj 223 121 l;
#X obj 197 352 prepend options;
#X obj 197 325 list trim;
#X obj 320 48 inlet;
#X obj 223 28 inlet;
#X obj 197 378 outlet;
#X obj 330 382 outlet;
#X obj 244 220 list-find;
#X msg 243 196 symbol out;
#X obj 295 248 > 0;
#X obj 223 170 t l b l;
#X obj 262 293 spigot;
#X obj 295 269 == 0;
#X obj 197 292 spigot;
#X obj 197 249 list prepend out;
#X connect 0 0 2 1;
#X connect 1 0 0 1;
#X connect 2 0 14 0;
#X connect 3 0 4 0;
#X connect 3 1 0 0;
#X connect 3 2 1 0;
#X connect 4 0 2 0;
#X connect 5 0 9 0;
#X connect 6 0 5 0;
#X connect 7 0 1 1;
#X connect 7 0 4 1;
#X connect 8 0 3 0;
#X connect 11 1 13 0;
#X connect 12 0 11 0;
#X connect 13 0 15 1;
#X connect 13 0 16 0;
#X connect 14 0 15 0;
#X connect 14 0 18 0;
#X connect 14 1 12 0;
#X connect 14 2 11 1;
#X connect 15 0 6 0;
#X connect 15 0 10 0;
#X connect 16 0 17 1;
#X connect 17 0 6 0;
#X connect 17 0 10 0;
#X connect 18 0 17 0;
#X restore -42 174 pd element kill;
#N canvas 317 65 505 494 element 0;
#X obj 254 121 list-find;
#X obj 305 97 l;
#X obj 223 146 list-delete;
#X obj 223 72 t b a b;
#X obj 223 121 l;
#X obj 197 352 prepend options;
#X obj 197 325 list trim;
#X obj 320 48 inlet;
#X obj 223 28 inlet;
#X obj 197 378 outlet;
#X obj 330 382 outlet;
#X obj 244 220 list-find;
#X msg 243 196 symbol out;
#X obj 295 248 > 0;
#X obj 223 170 t l b l;
#X obj 262 293 spigot;
#X obj 295 269 == 0;
#X obj 197 292 spigot;
#X obj 197 249 list prepend out;
#X connect 0 0 2 1;
#X connect 1 0 0 1;
#X connect 2 0 14 0;
#X connect 3 0 4 0;
#X connect 3 1 0 0;
#X connect 3 2 1 0;
#X connect 4 0 2 0;
#X connect 5 0 9 0;
#X connect 6 0 5 0;
#X connect 7 0 1 1;
#X connect 7 0 4 1;
#X connect 8 0 3 0;
#X connect 11 1 13 0;
#X connect 12 0 11 0;
#X connect 13 0 15 1;
#X connect 13 0 16 0;
#X connect 14 0 15 0;
#X connect 14 0 18 0;
#X connect 14 1 12 0;
#X connect 14 2 11 1;
#X connect 15 0 6 0;
#X connect 15 0 10 0;
#X connect 16 0 17 1;
#X connect 17 0 6 0;
#X connect 17 0 10 0;
#X connect 18 0 17 0;
#X restore -43 201 pd element kill;
#X obj 356 168 deny out;
#X obj 431 240 deny out;
#X obj 496 326 deny out;
#X obj 569 414 deny out;
#X obj 829 24 t b b b;
#X obj 969 233 outlet~;
#X obj 108 233 popup 124 25 grey fx_slot out delay drive bit;
#N canvas 317 65 505 494 element 0;
#X obj 254 121 list-find;
#X obj 305 97 l;
#X obj 223 146 list-delete;
#X obj 223 72 t b a b;
#X obj 223 121 l;
#X obj 197 352 prepend options;
#X obj 197 325 list trim;
#X obj 320 48 inlet;
#X obj 223 28 inlet;
#X obj 197 378 outlet;
#X obj 330 382 outlet;
#X obj 244 220 list-find;
#X msg 243 196 symbol out;
#X obj 295 248 > 0;
#X obj 223 170 t l b l;
#X obj 262 293 spigot;
#X obj 295 269 == 0;
#X obj 197 292 spigot;
#X obj 197 249 list prepend out;
#X connect 0 0 2 1;
#X connect 1 0 0 1;
#X connect 2 0 14 0;
#X connect 3 0 4 0;
#X connect 3 1 0 0;
#X connect 3 2 1 0;
#X connect 4 0 2 0;
#X connect 5 0 9 0;
#X connect 6 0 5 0;
#X connect 7 0 1 1;
#X connect 7 0 4 1;
#X connect 8 0 3 0;
#X connect 11 1 13 0;
#X connect 12 0 11 0;
#X connect 13 0 15 1;
#X connect 13 0 16 0;
#X connect 14 0 15 0;
#X connect 14 0 18 0;
#X connect 14 1 12 0;
#X connect 14 2 11 1;
#X connect 15 0 6 0;
#X connect 15 0 10 0;
#X connect 16 0 17 1;
#X connect 17 0 6 0;
#X connect 17 0 10 0;
#X connect 18 0 17 0;
#X restore -43 227 pd element kill;
#X symbolatom 705 558 10 0 0 0 - - -;
#X obj 639 613 pack s s;
#X msg 639 639 \; \$1_throw symbol \$2 \;;
#X obj 639 588 t b s;
#X obj 639 511 deny out;
#X msg 868 256 symbol out;
#X obj -43 306 r out_throw;
#X obj -43 330 r symbol_throw;
#X obj 108 259 popup 124 25 grey fx_slot out delay drive bit;
#N canvas 317 65 505 494 element 0;
#X obj 254 121 list-find;
#X obj 305 97 l;
#X obj 223 146 list-delete;
#X obj 223 72 t b a b;
#X obj 223 121 l;
#X obj 197 352 prepend options;
#X obj 197 325 list trim;
#X obj 320 48 inlet;
#X obj 223 28 inlet;
#X obj 197 378 outlet;
#X obj 330 382 outlet;
#X obj 244 220 list-find;
#X msg 243 196 symbol out;
#X obj 295 248 > 0;
#X obj 223 170 t l b l;
#X obj 262 293 spigot;
#X obj 295 269 == 0;
#X obj 197 292 spigot;
#X obj 197 249 list prepend out;
#X connect 0 0 2 1;
#X connect 1 0 0 1;
#X connect 2 0 14 0;
#X connect 3 0 4 0;
#X connect 3 1 0 0;
#X connect 3 2 1 0;
#X connect 4 0 2 0;
#X connect 5 0 9 0;
#X connect 6 0 5 0;
#X connect 7 0 1 1;
#X connect 7 0 4 1;
#X connect 8 0 3 0;
#X connect 11 1 13 0;
#X connect 12 0 11 0;
#X connect 13 0 15 1;
#X connect 13 0 16 0;
#X connect 14 0 15 0;
#X connect 14 0 18 0;
#X connect 14 1 12 0;
#X connect 14 2 11 1;
#X connect 15 0 6 0;
#X connect 15 0 10 0;
#X connect 16 0 17 1;
#X connect 17 0 6 0;
#X connect 17 0 10 0;
#X connect 18 0 17 0;
#X restore -43 253 pd element kill;
#X symbolatom 771 645 10 0 0 0 - - -;
#X obj 705 700 pack s s;
#X msg 705 726 \; \$1_throw symbol \$2 \;;
#X obj 705 675 t b s;
#X obj 705 598 deny out;
#X obj 1077 146 catch~ out_r;
#X obj 1079 201 tanh~;
#X obj 1079 233 outlet~;
#X obj 1121 60 r in_throw;
#X obj 1079 59 inlet~;
#X msg 1011 83 set \$1_l;
#X msg 1121 83 set \$1_r;
#X obj 969 118 throw~ out_l;
#X obj 1079 118 throw~ out_r;
#X obj 968 146 catch~ out_l;
#X obj 1078 179 *~ 0.5;
#X obj 968 179 *~ 0.5;
#X obj 108 285 popup 124 25 grey fx_slot out delay drive bit;
#N canvas 317 65 505 494 element 0;
#X obj 254 121 list-find;
#X obj 305 97 l;
#X obj 223 146 list-delete;
#X obj 223 72 t b a b;
#X obj 223 121 l;
#X obj 197 352 prepend options;
#X obj 197 325 list trim;
#X obj 320 48 inlet;
#X obj 223 28 inlet;
#X obj 197 378 outlet;
#X obj 330 382 outlet;
#X obj 244 220 list-find;
#X msg 243 196 symbol out;
#X obj 295 248 > 0;
#X obj 223 170 t l b l;
#X obj 262 293 spigot;
#X obj 295 269 == 0;
#X obj 197 292 spigot;
#X obj 197 249 list prepend out;
#X connect 0 0 2 1;
#X connect 1 0 0 1;
#X connect 2 0 14 0;
#X connect 3 0 4 0;
#X connect 3 1 0 0;
#X connect 3 2 1 0;
#X connect 4 0 2 0;
#X connect 5 0 9 0;
#X connect 6 0 5 0;
#X connect 7 0 1 1;
#X connect 7 0 4 1;
#X connect 8 0 3 0;
#X connect 11 1 13 0;
#X connect 12 0 11 0;
#X connect 13 0 15 1;
#X connect 13 0 16 0;
#X connect 14 0 15 0;
#X connect 14 0 18 0;
#X connect 14 1 12 0;
#X connect 14 2 11 1;
#X connect 15 0 6 0;
#X connect 15 0 10 0;
#X connect 16 0 17 1;
#X connect 17 0 6 0;
#X connect 17 0 10 0;
#X connect 18 0 17 0;
#X restore -43 281 pd element kill;
#X symbolatom 836 732 10 0 0 0 - - -;
#X obj 770 785 pack s s;
#X msg 770 811 \; \$1_throw symbol \$2 \;;
#X obj 770 760 t b s;
#X obj 770 685 deny out;
#X obj 575 124 t_pack s s s s s s s s;
#X msg 6 14 name fx_slot \, bgcolour grey;
#X obj 109 388 route bang;
#X obj 166 409 s \$0_slot_1;
#X obj 109 428 route bang;
#X obj 166 449 s \$0_slot_2;
#X obj 109 468 route bang;
#X obj 109 508 route bang;
#X obj 166 489 s \$0_slot_3;
#X obj 166 529 s \$0_slot_4;
#X obj 109 548 route bang;
#X obj 166 569 s \$0_slot_5;
#X obj 109 588 route bang;
#X obj 109 628 route bang;
#X obj 109 668 route bang;
#X obj 166 609 s \$0_slot_6;
#X obj 166 649 s \$0_slot_7;
#X obj 166 689 s \$0_slot_8;
#X msg 108 41 list out delay wah-wah tremolo chorus phaser drive reverb
bit;
#X obj 1227 7 inlet;
#N canvas 430 132 450 300 slotrec 0;
#X obj 184 53 r \$0_slot_1-r;
#X obj 184 76 t b f;
#X obj 184 101 del 1;
#X obj 184 128 f;
#X obj 184 196 outlet;
#X connect 0 0 1 0;
#X connect 1 0 2 0;
#X connect 1 1 3 1;
#X connect 2 0 3 0;
#X connect 3 0 4 0;
#X restore -140 85 pd slotrec;
#N canvas 0 0 450 300 slotrec 0;
#X obj 184 128 f;
#X obj 184 206 outlet;
#X obj 199 57 r \$0_slot_2-r;
#X obj 161 57 inlet;
#X obj 167 87 b;
#X connect 0 0 1 0;
#X connect 2 0 0 1;
#X connect 3 0 4 0;
#X connect 4 0 0 0;
#X restore -140 112 pd slotrec;
#N canvas 0 0 450 300 slotrec 0;
#X obj 169 108 f;
#X obj 169 176 outlet;
#X obj 184 53 r \$0_slot_3-r;
#X obj 136 49 inlet;
#X obj 136 71 b;
#X connect 0 0 1 0;
#X connect 2 0 0 1;
#X connect 3 0 4 0;
#X connect 4 0 0 0;
#X restore -140 136 pd slotrec;
#N canvas 0 0 450 300 slotrec 0;
#X obj 184 110 f;
#X obj 184 180 outlet;
#X obj 200 76 r \$0_slot_4-r;
#X obj 172 47 inlet;
#X obj 146 81 b;
#X connect 0 0 1 0;
#X connect 2 0 0 1;
#X connect 3 0 4 0;
#X connect 4 0 0 0;
#X restore -140 163 pd slotrec;
#N canvas 0 0 450 300 slotrec 0;
#X obj 184 128 f;
#X obj 182 219 outlet;
#X obj 204 54 r \$0_slot_5-r;
#X obj 162 71 inlet;
#X obj 156 101 b;
#X connect 0 0 1 0;
#X connect 2 0 0 1;
#X connect 3 0 4 0;
#X connect 4 0 0 0;
#X restore -140 190 pd slotrec;
#N canvas 0 0 450 300 slotrec 0;
#X obj 184 128 f;
#X obj 178 218 outlet;
#X obj 199 57 r \$0_slot_6-r;
#X obj 162 66 inlet;
#X obj 166 101 b;
#X connect 0 0 1 0;
#X connect 2 0 0 1;
#X connect 3 0 4 0;
#X connect 4 0 0 0;
#X restore -140 217 pd slotrec;
#N canvas 0 0 450 300 slotrec 0;
#X obj 184 128 f;
#X obj 184 217 outlet;
#X obj 215 60 r \$0_slot_7-r;
#X obj 156 55 inlet;
#X obj 158 101 b;
#X connect 0 0 1 0;
#X connect 2 0 0 1;
#X connect 3 0 4 0;
#X connect 4 0 0 0;
#X restore -140 241 pd slotrec;
#N canvas 0 0 450 300 slotrec 0;
#X obj 184 128 f;
#X obj 186 213 outlet;
#X obj 206 53 r \$0_slot_8-r;
#X obj 183 27 inlet;
#X obj 168 78 b;
#X connect 0 0 1 0;
#X connect 2 0 0 1;
#X connect 3 0 4 0;
#X connect 4 0 0 0;
#X restore -140 268 pd slotrec;
#X msg 542 41 options out;
#X obj 829 -1 initbang;
#X connect 1 0 61 0;
#X connect 2 0 33 0;
#X connect 2 0 4 0;
#X connect 2 0 75 0;
#X connect 3 0 18 0;
#X connect 3 0 34 0;
#X connect 3 0 75 1;
#X connect 5 0 6 0;
#X connect 7 0 19 0;
#X connect 7 0 35 0;
#X connect 7 0 75 2;
#X connect 8 0 9 0;
#X connect 10 0 20 0;
#X connect 10 0 36 0;
#X connect 10 0 75 3;
#X connect 11 0 12 0;
#X connect 13 0 21 0;
#X connect 13 0 45 0;
#X connect 13 0 75 4;
#X connect 14 0 15 0;
#X connect 16 0 85 0;
#X connect 16 0 100 0;
#X connect 16 1 13 0;
#X connect 16 1 40 0;
#X connect 17 0 63 0;
#X connect 18 0 5 0;
#X connect 18 1 5 1;
#X connect 19 0 8 0;
#X connect 19 1 8 1;
#X connect 20 0 11 0;
#X connect 20 1 11 1;
#X connect 21 0 14 0;
#X connect 21 1 14 1;
#X connect 22 0 77 0;
#X connect 22 0 96 0;
#X connect 22 1 2 0;
#X connect 22 1 26 0;
#X connect 23 0 79 0;
#X connect 23 0 97 0;
#X connect 23 1 3 0;
#X connect 23 1 30 0;
#X connect 24 0 82 0;
#X connect 24 0 99 0;
#X connect 24 1 10 0;
#X connect 24 1 32 0;
#X connect 25 0 81 0;
#X connect 25 0 98 0;
#X connect 25 1 7 0;
#X connect 25 1 31 0;
#X connect 26 0 23 0;
#X connect 26 1 30 1;
#X connect 27 0 22 0;
#X connect 27 0 23 0;
#X connect 27 1 26 1;
#X connect 29 0 38 0;
#X connect 30 0 25 0;
#X connect 30 1 31 1;
#X connect 31 0 24 0;
#X connect 31 1 32 1;
#X connect 32 0 16 0;
#X connect 32 1 40 1;
#X connect 33 0 5 0;
#X connect 34 0 8 0;
#X connect 35 0 11 0;
#X connect 36 0 14 0;
#X connect 37 1 93 0;
#X connect 37 1 103 0;
#X connect 37 2 46 0;
#X connect 39 0 87 0;
#X connect 39 0 101 0;
#X connect 39 1 41 0;
#X connect 39 1 50 0;
#X connect 40 0 39 0;
#X connect 40 1 50 1;
#X connect 41 0 44 0;
#X connect 41 0 55 0;
#X connect 41 0 75 5;
#X connect 42 0 43 0;
#X connect 44 0 42 0;
#X connect 44 1 42 1;
#X connect 45 0 44 0;
#X connect 46 0 5 1;
#X connect 46 0 8 1;
#X connect 46 0 11 1;
#X connect 46 0 14 1;
#X connect 46 0 42 1;
#X connect 46 0 52 1;
#X connect 46 0 71 1;
#X connect 49 0 88 0;
#X connect 49 0 102 0;
#X connect 49 1 51 0;
#X connect 49 1 69 0;
#X connect 50 0 49 0;
#X connect 50 1 69 1;
#X connect 51 0 54 0;
#X connect 51 0 74 0;
#X connect 51 0 75 6;
#X connect 52 0 53 0;
#X connect 54 0 52 0;
#X connect 54 1 52 1;
#X connect 55 0 54 0;
#X connect 56 0 66 0;
#X connect 57 0 58 0;
#X connect 59 0 62 0;
#X connect 60 0 64 0;
#X connect 61 0 63 0;
#X connect 62 0 64 0;
#X connect 65 0 67 0;
#X connect 66 0 57 0;
#X connect 67 0 29 0;
#X connect 68 0 89 0;
#X connect 68 1 70 0;
#X connect 69 0 68 0;
#X connect 70 0 73 0;
#X connect 70 0 75 7;
#X connect 71 0 72 0;
#X connect 73 0 71 0;
#X connect 73 1 71 1;
#X connect 74 0 73 0;
#X connect 75 0 28 0;
#X connect 76 0 22 0;
#X connect 76 0 23 0;
#X connect 76 0 25 0;
#X connect 76 0 24 0;
#X connect 76 0 16 0;
#X connect 76 0 39 0;
#X connect 76 0 49 0;
#X connect 76 0 68 0;
#X connect 77 1 78 0;
#X connect 79 1 80 0;
#X connect 81 1 83 0;
#X connect 82 1 84 0;
#X connect 85 1 86 0;
#X connect 87 1 90 0;
#X connect 88 1 91 0;
#X connect 89 1 92 0;
#X connect 93 0 27 0;
#X connect 94 0 37 0;
#X connect 95 0 22 0;
#X connect 96 0 23 0;
#X connect 97 0 25 0;
#X connect 98 0 24 0;
#X connect 99 0 16 0;
#X connect 100 0 39 0;
#X connect 101 0 49 0;
#X connect 102 0 68 0;
#X connect 103 0 23 0;
#X connect 103 0 25 0;
#X connect 103 0 24 0;
#X connect 103 0 16 0;
#X connect 103 0 39 0;
#X connect 103 0 49 0;
#X connect 103 0 68 0;
#X connect 104 0 37 0;
#X coords 0 -1 1 1 148 212 2 100 100;
#X restore 100 100 pd routing;
#X obj 101 56 inlet~;
#X obj 99 330 outlet~;
#N canvas 126 72 931 728 wah-wah 0;
#X obj 457 138 switch~;
#X obj 100 100 cnv 15 170 105 empty empty Wah-Wah 5 12 0 14 -66577
-262144 0;
#X obj 114 134 vsl 10 60 0 500 0 1 \$0_amt \$0_amt-r amt 0 -9 0 10
-162280 -262144 -262144 5900 1;
#X obj 171 134 vsl 10 60 0 127 0 1 \$0_base \$0_base-r base 0 -9 0
10 -162280 -262144 -262144 2500 1;
#X obj 200 134 vsl 10 60 0 1 0 1 \$0_reso \$0_reso-r reso 0 -9 0 10
-162280 -262144 -262144 0 1;
#X obj 142 134 vsl 10 60 0 200 0 1 \$0_smooth \$0_smooth-r sm 0 -9
0 10 -162280 -262144 -262144 5900 1;
#N canvas 0 0 1024 728 limiter 0;
#X obj -348 168 inlet~;
#X obj -112 323 expr (($f1 - $f3) / $f2) - $f1 + $f3;
#X obj -147 224 env~ 1024;
#X obj -112 367 dbtorms;
#X obj -112 346 expr 100 + $f1;
#X obj -348 632 outlet~;
#X obj -348 605 *~;
#X obj -328 578 line~;
#X msg -265 511 \$1 20;
#X obj -147 275 moses;
#X obj -5 259 loadbang;
#X msg -6 284 10;
#X obj -147 302 b;
#X obj -348 229 delwrite~ \$0_comp 100;
#X obj -348 301 delread~ \$0_comp 23.22;
#X msg -302 510 1 20;
#X obj 100 116 vsl 10 60 50 90 0 1 \$0_dyn \$0_dyn-r dyn 0 -9 0 10
-174294 -260097 -262144 5800 1;
#X connect 0 0 2 0;
#X connect 0 0 13 0;
#X connect 1 0 4 0;
#X connect 2 0 9 0;
#X connect 3 0 8 0;
#X connect 4 0 3 0;
#X connect 6 0 5 0;
#X connect 7 0 6 1;
#X connect 8 0 7 0;
#X connect 9 0 12 0;
#X connect 9 1 1 0;
#X connect 10 0 11 0;
#X connect 11 0 1 1;
#X connect 12 0 15 0;
#X connect 14 0 6 0;
#X connect 15 0 7 0;
#X connect 16 0 1 2;
#X connect 16 0 9 1;
#X coords 0 -1 1 1 10 80 2 100 100;
#X restore 230 120 pd limiter;
#X obj 231 21 +~;
#X obj -124 441 r wah-wah_throw;
#X obj 457 106 r \$0_wah-wah_switch;
#X msg -124 464 set \$1_l;
#X obj -173 485 throw~ out_l;
#X obj -34 441 r wah-wah_throw;
#X obj -84 485 throw~ out_r;
#X msg -34 464 set \$1_r;
#X obj -53 72 catch~ wah-wah_r;
#N canvas 494 60 450 300 wah 0;
#X obj -85 243 svf~;
#X obj -57 167 *~;
#X obj -57 189 +~;
#X obj -57 211 mtof~;
#N canvas 530 204 450 300 envelope 0;
#X obj 112 108 env~;
#X obj 112 193 line~;
#X msg 112 170 \$1 \$2;
#X obj 112 150 pack;
#X obj 112 129 dbtorms;
#X obj 166 128 inlet;
#X obj 113 85 inlet~;
#X obj 113 219 outlet~;
#X connect 0 0 4 0;
#X connect 1 0 7 0;
#X connect 2 0 1 0;
#X connect 3 0 2 0;
#X connect 4 0 3 0;
#X connect 5 0 3 1;
#X connect 6 0 0 0;
#X restore -56 77 pd envelope follower;
#X obj 61 55 r \$0_smooth;
#X obj -42 118 r \$0_amt;
#N canvas 0 0 450 300 smooth 0;
#X obj 191 129 inlet;
#X obj 190 210 outlet~;
#X obj 191 179 line~;
#X msg 191 150 \$1 20;
#X connect 0 0 3 0;
#X connect 2 0 1 0;
#X connect 3 0 2 0;
#X restore -42 146 pd smooth;
#N canvas 0 0 450 300 smooth 0;
#X obj 191 129 inlet;
#X obj 190 210 outlet~;
#X obj 191 179 line~;
#X msg 191 150 \$1 20;
#X connect 0 0 3 0;
#X connect 2 0 1 0;
#X connect 3 0 2 0;
#X restore 22 171 pd smooth;
#X obj 22 118 r \$0_base;
#N canvas 0 0 450 300 smooth 0;
#X obj 191 129 inlet;
#X obj 190 210 outlet~;
#X obj 191 179 line~;
#X msg 191 150 \$1 20;
#X connect 0 0 3 0;
#X connect 2 0 1 0;
#X connect 3 0 2 0;
#X restore -18 212 pd smooth;
#X obj -18 193 r \$0_reso;
#X obj -85 35 inlet~;
#X obj -85 278 outlet~;
#X obj -55 35 inlet~;
#X connect 0 0 13 0;
#X connect 1 0 2 0;
#X connect 2 0 3 0;
#X connect 3 0 0 1;
#X connect 4 0 1 0;
#X connect 5 0 4 1;
#X connect 6 0 7 0;
#X connect 7 0 1 1;
#X connect 8 0 2 1;
#X connect 9 0 8 0;
#X connect 10 0 0 2;
#X connect 11 0 10 0;
#X connect 12 0 0 0;
#X connect 14 0 4 0;
#X restore -172 314 pd wah;
#N canvas 0 0 450 300 wah 0;
#X obj -85 243 svf~;
#X obj -57 167 *~;
#X obj -57 189 +~;
#X obj -57 211 mtof~;
#N canvas 530 204 450 300 envelope 0;
#X obj 112 108 env~;
#X obj 112 193 line~;
#X msg 112 170 \$1 \$2;
#X obj 112 150 pack;
#X obj 112 129 dbtorms;
#X obj 166 128 inlet;
#X obj 113 85 inlet~;
#X obj 113 219 outlet~;
#X connect 0 0 4 0;
#X connect 1 0 7 0;
#X connect 2 0 1 0;
#X connect 3 0 2 0;
#X connect 4 0 3 0;
#X connect 5 0 3 1;
#X connect 6 0 0 0;
#X restore -56 77 pd envelope follower;
#X obj 61 55 r \$0_smooth;
#X obj -42 118 r \$0_amt;
#N canvas 0 0 450 300 smooth 0;
#X obj 191 129 inlet;
#X obj 190 210 outlet~;
#X obj 191 179 line~;
#X msg 191 150 \$1 20;
#X connect 0 0 3 0;
#X connect 2 0 1 0;
#X connect 3 0 2 0;
#X restore -42 146 pd smooth;
#N canvas 0 0 450 300 smooth 0;
#X obj 191 129 inlet;
#X obj 190 210 outlet~;
#X obj 191 179 line~;
#X msg 191 150 \$1 20;
#X connect 0 0 3 0;
#X connect 2 0 1 0;
#X connect 3 0 2 0;
#X restore 22 171 pd smooth;
#X obj 22 118 r \$0_base;
#N canvas 0 0 450 300 smooth 0;
#X obj 191 129 inlet;
#X obj 190 210 outlet~;
#X obj 191 179 line~;
#X msg 191 150 \$1 20;
#X connect 0 0 3 0;
#X connect 2 0 1 0;
#X connect 3 0 2 0;
#X restore -18 212 pd smooth;
#X obj -18 193 r \$0_reso;
#X obj -85 35 inlet~;
#X obj -85 278 outlet~;
#X obj -55 35 inlet~;
#X connect 0 0 13 0;
#X connect 1 0 2 0;
#X connect 2 0 3 0;
#X connect 3 0 0 1;
#X connect 4 0 1 0;
#X connect 5 0 4 1;
#X connect 6 0 7 0;
#X connect 7 0 1 1;
#X connect 8 0 2 1;
#X connect 9 0 8 0;
#X connect 10 0 0 2;
#X connect 11 0 10 0;
#X connect 12 0 0 0;
#X connect 14 0 4 0;
#X restore -83 314 pd wah;
#X obj -167 73 catch~ wah-wah_l;
#X connect 6 0 16 1;
#X connect 6 0 17 1;
#X connect 7 0 6 0;
#X connect 8 0 10 0;
#X connect 9 0 0 0;
#X connect 10 0 11 0;
#X connect 12 0 14 0;
#X connect 14 0 13 0;
#X connect 15 0 7 1;
#X connect 15 0 17 0;
#X connect 16 0 11 0;
#X connect 17 0 13 0;
#X connect 18 0 7 0;
#X connect 18 0 16 0;
#X coords 0 -1 1 1 170 105 2 100 100;
#X restore 452 101 pd wah-wah;
#N canvas 0 72 1366 696 phaser~ 0;
#X obj 492 154 phasor~;
#X obj 492 176 expr~ (abs($v1-0.5)*4)-1;
#X obj 493 332 s \$0-f;
#X obj 516 224 bang;
#X obj 493 250 expr $f1*($f2)+$f3;
#X obj 493 272 mtof;
#N canvas 0 0 450 300 smooth 0;
#X obj 191 129 inlet;
#X obj 190 210 outlet~;
#X obj 191 179 line~;
#X msg 191 150 \$1 20;
#X connect 0 0 3 0;
#X connect 2 0 1 0;
#X connect 3 0 2 0;
#X restore 492 131 pd smooth;
#X obj 603 135 r \$0_phaser_phase;
#X obj 598 82 r \$0_phaser_center;
#X obj 488 81 r \$0_phaser_range;
#X obj 313 129 switch~;
#X obj 100 100 cnv 15 180 105 empty empty Phaser 5 12 0 14 -66577 -262144
0;
#X obj 225 136 vsl 10 40 0.1 3 0 1 \$0_phaser_freq \$0_phaser_freq-r
freq 0 -9 0 10 -162280 -262144 -262144 93 1;
#X obj 194 189 tgl 10 1 \$0_phaser_phase \$0_phaser_phase-r stereo-phase
12 5 0 10 -162280 -262144 -262144 0 0.5;
#X obj 195 136 vsl 10 40 0 1 0 1 \$0_phaser_amt \$0_phaser_amt-r amt
0 -9 0 10 -162280 -262144 -262144 2400 1;
#X obj 165 136 vsl 10 40 0.1 0.5 0 1 \$0-q \$0-q-r q 0 -9 0 10 -162280
-262144 -262144 3900 1;
#X obj 135 136 vsl 10 40 30 80 0 1 \$0_phaser_center \$0_phaser_center-r
cntr 0 -9 0 10 -162280 -262144 -262144 3600 1;
#X obj 106 136 vsl 10 40 0 0.8 0 1 \$0_phaser_range \$0_phaser_range-r
rng 0 -9 0 10 -162280 -262144 -262144 3900 1;
#X obj 88 296 r phaser_throw;
#X obj 313 97 r \$0_phaser_switch;
#X obj 552 219 *;
#X obj 548 196 t b f;
#X obj 609 110 - 30;
#X obj 493 198 stom 400;
#X obj 188 296 r phaser_throw;
#X msg 87 320 set \$1_l;
#X obj 57 343 throw~ out_l;
#X obj 157 343 throw~ out_r;
#X msg 187 319 set \$1_r;
#N canvas 0 0 1366 696 phaser_l 0;
#X obj -334 320 +~;
#N canvas 0 0 450 300 allp 0;
#X obj 152 78 inlet~;
#X obj 161 194 outlet~;
#X obj 202 81 r \$0-f;
#X obj 248 80 r \$0-q;
#X obj 169 135 ap2~;
#X connect 0 0 4 0;
#X connect 2 0 4 1;
#X connect 3 0 4 2;
#X connect 4 0 1 0;
#X restore -248 83 pd allp;
#N canvas 0 0 450 300 allp 0;
#X obj 152 78 inlet~;
#X obj 161 194 outlet~;
#X obj 169 135 ap2~;
#X obj 202 81 r \$0-f;
#X obj 248 80 r \$0-q;
#X connect 0 0 2 0;
#X connect 2 0 1 0;
#X connect 3 0 2 1;
#X connect 4 0 2 2;
#X restore -248 103 pd allp;
#N canvas 0 0 450 300 allp 0;
#X obj 152 78 inlet~;
#X obj 161 194 outlet~;
#X obj 169 135 ap2~;
#X obj 202 81 r \$0-f;
#X obj 248 80 r \$0-q;
#X connect 0 0 2 0;
#X connect 2 0 1 0;
#X connect 3 0 2 1;
#X connect 4 0 2 2;
#X restore -248 123 pd allp;
#N canvas 0 0 450 300 allp 0;
#X obj 152 78 inlet~;
#X obj 161 194 outlet~;
#X obj 169 135 ap2~;
#X obj 202 81 r \$0-f;
#X obj 248 80 r \$0-q;
#X connect 0 0 2 0;
#X connect 2 0 1 0;
#X connect 3 0 2 1;
#X connect 4 0 2 2;
#X restore -248 143 pd allp;
#N canvas 0 0 450 300 allp 0;
#X obj 152 78 inlet~;
#X obj 161 194 outlet~;
#X obj 169 135 ap2~;
#X obj 202 81 r \$0-f;
#X obj 248 80 r \$0-q;
#X connect 0 0 2 0;
#X connect 2 0 1 0;
#X connect 3 0 2 1;
#X connect 4 0 2 2;
#X restore -248 163 pd allp;
#N canvas 0 0 450 300 allp 0;
#X obj 152 78 inlet~;
#X obj 161 194 outlet~;
#X obj 169 135 ap2~;
#X obj 202 81 r \$0-f;
#X obj 248 80 r \$0-q;
#X connect 0 0 2 0;
#X connect 2 0 1 0;
#X connect 3 0 2 1;
#X connect 4 0 2 2;
#X restore -248 183 pd allp;
#N canvas 0 0 450 300 allp 0;
#X obj 152 78 inlet~;
#X obj 161 194 outlet~;
#X obj 169 135 ap2~;
#X obj 202 81 r \$0-f;
#X obj 248 80 r \$0-q;
#X connect 0 0 2 0;
#X connect 2 0 1 0;
#X connect 3 0 2 1;
#X connect 4 0 2 2;
#X restore -248 203 pd allp;
#N canvas 0 0 450 300 allp 0;
#X obj 152 78 inlet~;
#X obj 161 194 outlet~;
#X obj 169 135 ap2~;
#X obj 202 81 r \$0-f;
#X obj 248 80 r \$0-q;
#X connect 0 0 2 0;
#X connect 2 0 1 0;
#X connect 3 0 2 1;
#X connect 4 0 2 2;
#X restore -248 223 pd allp;
#N canvas 0 0 450 300 allp 0;
#X obj 152 78 inlet~;
#X obj 161 194 outlet~;
#X obj 169 135 ap2~;
#X obj 202 81 r \$0-f;
#X obj 248 80 r \$0-q;
#X connect 0 0 2 0;
#X connect 2 0 1 0;
#X connect 3 0 2 1;
#X connect 4 0 2 2;
#X restore -248 243 pd allp;
#N canvas 0 0 450 300 allp 0;
#X obj 152 78 inlet~;
#X obj 161 194 outlet~;
#X obj 169 135 ap2~;
#X obj 202 81 r \$0-f;
#X obj 248 80 r \$0-q;
#X connect 0 0 2 0;
#X connect 2 0 1 0;
#X connect 3 0 2 1;
#X connect 4 0 2 2;
#X restore -248 263 pd allp;
#N canvas 0 0 450 300 allp 0;
#X obj 152 78 inlet~;
#X obj 161 194 outlet~;
#X obj 169 135 ap2~;
#X obj 202 81 r \$0-f;
#X obj 248 80 r \$0-q;
#X connect 0 0 2 0;
#X connect 2 0 1 0;
#X connect 3 0 2 1;
#X connect 4 0 2 2;
#X restore -248 283 pd allp;
#N canvas 0 0 450 300 allp 0;
#X obj 152 78 inlet~;
#X obj 161 194 outlet~;
#X obj 169 135 ap2~;
#X obj 202 81 r \$0-f;
#X obj 248 80 r \$0-q;
#X connect 0 0 2 0;
#X connect 2 0 1 0;
#X connect 3 0 2 1;
#X connect 4 0 2 2;
#X restore -248 303 pd allp;
#X obj -320 55 r \$0_phaser_amt;
#N canvas 0 0 450 300 smooth 0;
#X obj 191 129 inlet;
#X obj 190 210 outlet~;
#X obj 191 179 line~;
#X msg 191 150 \$1 20;
#X connect 0 0 3 0;
#X connect 2 0 1 0;
#X connect 3 0 2 0;
#X restore -320 107 pd smooth;
#X obj -320 160 *~;
#X obj -335 31 catch~ phaser_l;
#X obj -333 365 outlet~;
#X connect 0 0 17 0;
#X connect 1 0 2 0;
#X connect 2 0 3 0;
#X connect 3 0 4 0;
#X connect 4 0 5 0;
#X connect 4 0 0 1;
#X connect 5 0 6 0;
#X connect 6 0 7 0;
#X connect 7 0 8 0;
#X connect 8 0 9 0;
#X connect 8 0 15 1;
#X connect 9 0 10 0;
#X connect 10 0 11 0;
#X connect 11 0 12 0;
#X connect 12 0 15 1;
#X connect 13 0 14 0;
#X connect 14 0 15 0;
#X connect 15 0 0 1;
#X connect 16 0 1 0;
#X connect 16 0 0 0;
#X restore 58 258 pd phaser_l;
#N canvas 0 148 1366 696 phaser_r 0;
#X obj -334 320 +~;
#N canvas 0 0 450 300 allp 0;
#X obj 152 78 inlet~;
#X obj 161 194 outlet~;
#X obj 248 80 r \$0-q;
#X obj 169 135 ap2~;
#X obj 202 81 r \$0-f_r;
#X connect 0 0 3 0;
#X connect 2 0 3 2;
#X connect 3 0 1 0;
#X connect 4 0 3 1;
#X restore -248 83 pd allp;
#N canvas 0 0 450 300 allp 0;
#X obj 152 78 inlet~;
#X obj 161 194 outlet~;
#X obj 169 135 ap2~;
#X obj 202 81 r \$0-f;
#X obj 248 80 r \$0-q;
#X connect 0 0 2 0;
#X connect 2 0 1 0;
#X connect 3 0 2 1;
#X connect 4 0 2 2;
#X restore -248 103 pd allp;
#N canvas 0 0 450 300 allp 0;
#X obj 152 78 inlet~;
#X obj 161 194 outlet~;
#X obj 169 135 ap2~;
#X obj 300 82 r \$0-q;
#X obj 202 81 r \$0-f_r;
#X connect 0 0 2 0;
#X connect 2 0 1 0;
#X connect 3 0 2 2;
#X connect 4 0 2 1;
#X restore -248 123 pd allp;
#N canvas 0 0 450 300 allp 0;
#X obj 152 78 inlet~;
#X obj 161 194 outlet~;
#X obj 169 135 ap2~;
#X obj 248 80 r \$0-q;
#X obj 202 81 r \$0-f_r;
#X connect 0 0 2 0;
#X connect 2 0 1 0;
#X connect 3 0 2 2;
#X connect 4 0 2 1;
#X restore -248 143 pd allp;
#N canvas 0 0 450 300 allp 0;
#X obj 152 78 inlet~;
#X obj 161 194 outlet~;
#X obj 169 135 ap2~;
#X obj 248 80 r \$0-q;
#X obj 202 81 r \$0-f_r;
#X connect 0 0 2 0;
#X connect 2 0 1 0;
#X connect 3 0 2 2;
#X connect 4 0 2 1;
#X restore -248 163 pd allp;
#N canvas 0 0 450 300 allp 0;
#X obj 152 78 inlet~;
#X obj 161 194 outlet~;
#X obj 169 135 ap2~;
#X obj 248 80 r \$0-q;
#X obj 202 81 r \$0-f_r;
#X connect 0 0 2 0;
#X connect 2 0 1 0;
#X connect 3 0 2 2;
#X connect 4 0 2 1;
#X restore -248 183 pd allp;
#N canvas 0 0 450 300 allp 0;
#X obj 152 78 inlet~;
#X obj 161 194 outlet~;
#X obj 169 135 ap2~;
#X obj 248 80 r \$0-q;
#X obj 202 81 r \$0-f_r;
#X connect 0 0 2 0;
#X connect 2 0 1 0;
#X connect 3 0 2 2;
#X connect 4 0 2 1;
#X restore -248 203 pd allp;
#N canvas 0 0 450 300 allp 0;
#X obj 152 78 inlet~;
#X obj 161 194 outlet~;
#X obj 169 135 ap2~;
#X obj 248 80 r \$0-q;
#X obj 202 81 r \$0-f_r;
#X connect 0 0 2 0;
#X connect 2 0 1 0;
#X connect 3 0 2 2;
#X connect 4 0 2 1;
#X restore -248 223 pd allp;
#N canvas 0 0 450 300 allp 0;
#X obj 152 78 inlet~;
#X obj 161 194 outlet~;
#X obj 169 135 ap2~;
#X obj 248 80 r \$0-q;
#X obj 202 81 r \$0-f_r;
#X connect 0 0 2 0;
#X connect 2 0 1 0;
#X connect 3 0 2 2;
#X connect 4 0 2 1;
#X restore -248 243 pd allp;
#N canvas 0 0 450 300 allp 0;
#X obj 152 78 inlet~;
#X obj 161 194 outlet~;
#X obj 169 135 ap2~;
#X obj 248 80 r \$0-q;
#X obj 202 81 r \$0-f_r;
#X connect 0 0 2 0;
#X connect 2 0 1 0;
#X connect 3 0 2 2;
#X connect 4 0 2 1;
#X restore -248 263 pd allp;
#N canvas 0 0 450 300 allp 0;
#X obj 152 78 inlet~;
#X obj 161 194 outlet~;
#X obj 169 135 ap2~;
#X obj 248 80 r \$0-q;
#X obj 202 81 r \$0-f_r;
#X connect 0 0 2 0;
#X connect 2 0 1 0;
#X connect 3 0 2 2;
#X connect 4 0 2 1;
#X restore -248 283 pd allp;
#N canvas 0 0 450 300 allp 0;
#X obj 152 78 inlet~;
#X obj 161 194 outlet~;
#X obj 169 135 ap2~;
#X obj 248 80 r \$0-q;
#X obj 202 81 r \$0-f_r;
#X connect 0 0 2 0;
#X connect 2 0 1 0;
#X connect 3 0 2 2;
#X connect 4 0 2 1;
#X restore -248 303 pd allp;
#X obj -320 55 r \$0_phaser_amt;
#N canvas 0 0 450 300 smooth 0;
#X obj 191 129 inlet;
#X obj 190 210 outlet~;
#X obj 191 179 line~;
#X msg 191 150 \$1 20;
#X connect 0 0 3 0;
#X connect 2 0 1 0;
#X connect 3 0 2 0;
#X restore -320 107 pd smooth;
#X obj -320 160 *~;
#X obj -333 365 outlet~;
#X obj -335 31 catch~ phaser_r;
#X connect 0 0 16 0;
#X connect 1 0 2 0;
#X connect 2 0 3 0;
#X connect 3 0 4 0;
#X connect 4 0 5 0;
#X connect 4 0 0 1;
#X connect 5 0 6 0;
#X connect 6 0 7 0;
#X connect 7 0 8 0;
#X connect 8 0 9 0;
#X connect 8 0 15 1;
#X connect 9 0 10 0;
#X connect 10 0 11 0;
#X connect 11 0 12 0;
#X connect 12 0 15 1;
#X connect 13 0 14 0;
#X connect 14 0 15 0;
#X connect 15 0 0 1;
#X connect 17 0 1 0;
#X connect 17 0 0 0;
#X restore 158 258 pd phaser_r;
#X obj 676 270 bang;
#X obj 653 318 mtof;
#X obj 692 265 *;
#X obj 703 243 t b f;
#X obj 653 357 s \$0-f_r;
#X obj 652 197 wrap~;
#X obj 653 170 +~;
#X obj 652 222 expr~ (abs($v1-0.5)*4)-1;
#X obj 653 244 stom 400;
#X obj 653 294 expr $f1*($f2)+$f3;
#X obj 875 163 r master_freq;
#X obj 883 242 r \$0_sync?;
#X obj 959 163 expr pow(2 \, $f1);
#X obj 959 128 int;
#X obj 875 219 *;
#X obj 868 319 mux;
#X obj 886 189 t b f;
#X obj 868 67 r \$0_phaser_freq;
#X obj 249 160 tgl 10 1 \$0_sync? \$0_sync?-r snc 0 -5 0 10 -258113
-262144 -262144 0 1;
#N canvas 0 0 588 317 freqdisp 0;
#X obj 112 179 pack f \$0;
#X obj 224 22 r \$0_sync?;
#X obj 112 150 spigot;
#X obj 145 119 == 0;
#X obj 304 177 pack f \$0;
#X obj 304 148 spigot;
#X msg 304 202 \; \$2_f_display label >\$1th<;
#X msg 112 204 \; \$2_f_display label >\$1_Hz<;
#X obj 224 55 t b f;
#X obj 304 94 inlet;
#X obj 112 96 r \$0_phaser_freq;
#X connect 0 0 7 0;
#X connect 1 0 8 0;
#X connect 2 0 0 0;
#X connect 3 0 2 1;
#X connect 4 0 6 0;
#X connect 5 0 4 0;
#X connect 8 0 2 0;
#X connect 8 0 5 0;
#X connect 8 1 3 0;
#X connect 8 1 5 1;
#X connect 9 0 5 0;
#X connect 10 0 2 0;
#X restore 959 214 pd freqdisp;
#X obj 107 187 cnv 12 80 12 empty \$0_f_display >0.145712_Hz< 0 5 0
10 -162280 -262144 0;
#X obj 883 273 t b f;
#X connect 0 0 1 0;
#X connect 0 0 37 0;
#X connect 1 0 23 0;
#X connect 3 0 4 0;
#X connect 4 0 5 0;
#X connect 5 0 2 0;
#X connect 6 0 0 0;
#X connect 7 0 37 1;
#X connect 8 0 3 0;
#X connect 8 0 4 2;
#X connect 8 0 22 0;
#X connect 8 0 31 0;
#X connect 8 0 40 2;
#X connect 9 0 3 0;
#X connect 9 0 20 0;
#X connect 9 0 33 0;
#X connect 9 0 31 0;
#X connect 18 0 25 0;
#X connect 19 0 10 0;
#X connect 20 0 4 1;
#X connect 21 0 20 0;
#X connect 21 1 20 1;
#X connect 22 0 21 0;
#X connect 22 0 34 0;
#X connect 23 0 4 0;
#X connect 24 0 28 0;
#X connect 25 0 26 0;
#X connect 28 0 27 0;
#X connect 29 0 26 0;
#X connect 30 0 27 0;
#X connect 31 0 40 0;
#X connect 32 0 35 0;
#X connect 33 0 40 1;
#X connect 34 0 33 0;
#X connect 34 1 33 1;
#X connect 36 0 38 0;
#X connect 37 0 36 0;
#X connect 38 0 39 0;
#X connect 39 0 40 0;
#X connect 40 0 32 0;
#X connect 41 0 45 0;
#X connect 42 0 52 0;
#X connect 43 0 47 0;
#X connect 43 0 50 0;
#X connect 44 0 43 0;
#X connect 45 0 46 1;
#X connect 46 0 6 0;
#X connect 47 0 45 0;
#X connect 47 1 45 1;
#X connect 48 0 46 0;
#X connect 48 0 44 0;
#X connect 52 0 12 0;
#X connect 52 1 46 2;
#X coords 0 -1 1 1 180 105 2 100 100;
#X restore 250 208 pd phaser~;
#N canvas 0 0 1024 728 phaser~ 0;
#X obj 343 144 switch~;
#X obj 100 100 cnv 15 120 105 empty empty Tremolo 5 12 0 14 -66577
-262144 0;
#X obj 153 134 vsl 10 60 0 15 0 1 \$0_tremolo_freq \$0_tremolo_freq-r
freq 0 -9 0 10 -162280 -262144 -262144 1800 1;
#X obj 120 134 vsl 10 60 0.5 3 0 1 \$0_tremolo_amt \$0_tremolo_amt-r
amt 0 -9 0 10 -162280 -262144 -262144 3800 1;
#X obj 187 134 vsl 10 60 0 0.5 0 1 \$0_tremolo_fb \$0_tremolo_fb-r
fb 0 -9 0 10 -162280 -262144 -262144 3400 1;
#X obj 531 416 r tremolo_throw;
#X obj 343 116 r \$0_tremolo_switch;
#X obj 681 416 r tremolo_throw;
#X msg 530 439 set \$1_l;
#X msg 680 439 set \$1_r;
#X obj 517 464 throw~ out_l;
#X obj 667 464 throw~ out_r;
#N canvas 0 0 619 622 trem_l 0;
#X obj 213 -11 r \$0_tremolo_amt;
#X obj 196 -107 r \$0_tremolo_freq;
#N canvas 0 0 450 300 smooth 0;
#X obj 191 129 inlet;
#X obj 190 210 outlet~;
#X obj 191 179 line~;
#X msg 191 150 \$1 20;
#X connect 0 0 3 0;
#X connect 2 0 1 0;
#X connect 3 0 2 0;
#X restore 213 13 pd smooth;
#N canvas 0 0 450 300 smooth 0;
#X obj 191 129 inlet;
#X obj 190 210 outlet~;
#X obj 191 179 line~;
#X msg 191 150 \$1 20;
#X connect 0 0 3 0;
#X connect 2 0 1 0;
#X connect 3 0 2 0;
#X restore 196 -82 pd smooth;
#X obj 196 -54 phasor~;
#X obj 211 124 *~;
#X obj 197 43 *~;
#X obj 196 -32 expr~ (abs($v1-0.5)*2)+0.5;
#X obj 197 171 +~;
#X obj 226 98 r \$0_tremolo_fb;
#X obj 254 123 catch~ tremolo_l;
#X obj 136 204 outlet~;
#X obj 196 75 vd~ \$0_tremolo_l;
#X obj 197 202 delwrite~ \$0_tremolo_l 100;
#X connect 0 0 2 0;
#X connect 1 0 3 0;
#X connect 2 0 6 1;
#X connect 3 0 4 0;
#X connect 4 0 7 0;
#X connect 5 0 8 1;
#X connect 6 0 12 0;
#X connect 7 0 6 0;
#X connect 8 0 13 0;
#X connect 9 0 5 1;
#X connect 10 0 8 0;
#X connect 12 0 5 0;
#X connect 12 0 11 0;
#X restore 516 332 pd trem_l;
#N canvas 0 0 619 622 trem_l 0;
#X obj 213 -11 r \$0_tremolo_amt;
#X obj 196 -107 r \$0_tremolo_freq;
#N canvas 0 0 450 300 smooth 0;
#X obj 191 129 inlet;
#X obj 190 210 outlet~;
#X obj 191 179 line~;
#X msg 191 150 \$1 20;
#X connect 0 0 3 0;
#X connect 2 0 1 0;
#X connect 3 0 2 0;
#X restore 213 13 pd smooth;
#N canvas 0 0 450 300 smooth 0;
#X obj 191 129 inlet;
#X obj 190 210 outlet~;
#X obj 191 179 line~;
#X msg 191 150 \$1 20;
#X connect 0 0 3 0;
#X connect 2 0 1 0;
#X connect 3 0 2 0;
#X restore 196 -82 pd smooth;
#X obj 196 -54 phasor~;
#X obj 211 124 *~;
#X obj 197 43 *~;
#X obj 196 -32 expr~ (abs($v1-0.5)*2)+0.5;
#X obj 197 171 +~;
#X obj 226 98 r \$0_tremolo_fb;
#X obj 136 204 outlet~;
#X obj 254 123 catch~ tremolo_r;
#X obj 197 202 delwrite~ \$0_tremolo_r 100;
#X obj 196 75 vd~ \$0_tremolo_r;
#X connect 0 0 2 0;
#X connect 1 0 3 0;
#X connect 2 0 6 1;
#X connect 3 0 4 0;
#X connect 4 0 7 0;
#X connect 5 0 8 1;
#X connect 6 0 13 0;
#X connect 7 0 6 0;
#X connect 8 0 12 0;
#X connect 9 0 5 1;
#X connect 11 0 8 0;
#X connect 13 0 5 0;
#X connect 13 0 10 0;
#X restore 666 332 pd trem_l;
#X connect 5 0 8 0;
#X connect 6 0 0 0;
#X connect 7 0 9 0;
#X connect 8 0 10 0;
#X connect 9 0 11 0;
#X connect 12 0 10 0;
#X connect 13 0 11 0;
#X coords 0 -1 1 1 120 105 2 100 100;
#X restore 624 101 pd phaser~;
#N canvas 99 76 452 624 delay 0;
#X obj 194 1 switch~;
#X obj 100 100 cnv 15 200 105 empty empty Delay 5 12 0 12 -66577 -262144
0;
#X obj 7 321 r delay_throw;
#X msg 330 134 0;
#X obj 108 134 vsl 10 60 0 1 0 1 \$0_del_mix \$0_del_mix-r mix 0 -9
0 10 -162280 -262144 -262144 3200 1;
#X obj 194 -24 r \$0_delay_switch;
#X obj 143 106 cnv 15 55 75 empty empty delay 3 5 0 10 -86277 -4032
0;
#X obj 171 135 vsl 10 40 0 1 0 1 \$0_delay_fb \$0_delay_fb-r fb 0 -9
0 10 -162280 -262144 -262144 3437 1;
#X obj 151 135 vsl 10 40 0 1000 0 1 \$0_delay_time \$0_delay_time-r
del 0 -9 0 10 -162280 -262144 -262144 2049 1;
#X obj 202 106 cnv 15 45 75 empty empty lowpass 3 5 0 10 -86277 -4032
0;
#X obj 209 135 vsl 10 40 60 120 0 1 \$0_delay_pcut \$0_delay_pcut cut
0 -9 0 10 -162280 -262144 -262144 2500 1;
#X obj 229 135 vsl 10 40 0 0.3 0 1 \$0_delay_res \$0_delay_res-r res
0 -9 0 10 -162280 -262144 -262144 2115 1;
#X obj 251 106 cnv 15 45 75 empty empty psycho 3 5 0 10 -86277 -4032
0;
#X obj 258 135 vsl 10 40 5 -5 0 1 \$0_ps \$0_ps-r pitch 0 -9 0 10 -162280
-262144 -262144 2611 1;
#X obj 275 164 bng 12 250 50 0 empty empty rst 0 -5 0 10 -162280 -262144
-262144;
#X obj -2 -24 catch~ delay_l;
#X obj 92 -23 catch~ delay_r;
#X obj -76 361 throw~ out_l;
#X msg 7 344 set \$1_l;
#X obj 146 325 r delay_throw;
#X obj 63 365 throw~ out_l;
#X msg 146 348 set \$1_r;
#N canvas 162 39 467 472 left 0;
#N canvas 0 0 450 300 smooth 0;
#X obj 191 129 inlet;
#X obj 190 210 outlet~;
#X obj 191 179 vline~;
#X msg 191 151 \$1 50;
#X connect 0 0 3 0;
#X connect 2 0 1 0;
#X connect 3 0 2 0;
#X restore -67 234 pd smooth;
#X obj -65 301 expr~ $v1*$f3+$v2*(1-$f3);
#X obj 82 270 r \$0_del_mix;
#N canvas 0 0 450 300 filter 0;
#X obj -276 191 svf~;
#X obj -267 123 r \$0_delay_pcut;
#X obj -267 144 mtof;
#N canvas 0 0 450 300 smooth 0;
#X obj 191 129 inlet;
#X obj 190 210 outlet~;
#X obj 191 179 vline~;
#X msg 191 150 \$1 10;
#X connect 0 0 3 0;
#X connect 2 0 1 0;
#X connect 3 0 2 0;
#X restore -267 164 pd smooth;
#N canvas 0 0 450 300 smooth 0;
#X obj 191 129 inlet;
#X obj 190 210 outlet~;
#X obj 191 179 vline~;
#X msg 191 151 \$1 10;
#X connect 0 0 3 0;
#X connect 2 0 1 0;
#X connect 3 0 2 0;
#X restore -165 164 pd smooth;
#X obj -165 120 r \$0_delay_res;
#X obj -275 80 inlet~;
#X obj -275 230 outlet~;
#X connect 0 0 7 0;
#X connect 1 0 2 0;
#X connect 2 0 3 0;
#X connect 3 0 0 1;
#X connect 4 0 0 2;
#X connect 5 0 4 0;
#X connect 6 0 0 0;
#X restore -147 75 pd filter;
#N canvas 0 0 450 300 grain 0;
#X obj -155 230 *~;
#X obj -140 197 r \$0_delay_fb;
#X obj -103 134 phasor~;
#X obj -102 114 sig~;
#N canvas 0 24 1022 658 cycle1 0;
#X obj 251 14 inlet~;
#X obj 251 265 outlet~;
#N canvas 0 0 450 396 hanning 0;
#X obj 257 192 inlet~;
#X obj 243 304 outlet~;
#X obj 258 220 cos~;
#X obj 243 246 -~;
#X obj 197 230 sig~ 1;
#X obj 243 274 *~ 0.5;
#X connect 0 0 2 0;
#X connect 2 0 3 1;
#X connect 3 0 5 0;
#X connect 4 0 3 0;
#X connect 5 0 1 0;
#X restore 266 64 pd hanning;
#X obj 250 114 *~ 30;
#X obj 251 226 *~;
#X obj 91 107 inlet~;
#X obj 91 167 delwrite~ \$0_cycle_1_l 30;
#X obj 250 166 vd~ \$0_cycle_1_l;
#X connect 0 0 3 0;
#X connect 0 0 2 0;
#X connect 2 0 4 1;
#X connect 3 0 7 0;
#X connect 4 0 1 0;
#X connect 5 0 6 0;
#X connect 7 0 4 0;
#X restore -155 168 pd cycle1;
#N canvas 0 24 1022 658 cycle2 0;
#X obj 251 -16 inlet~;
#X obj 251 265 outlet~;
#N canvas 0 0 450 396 hanning 0;
#X obj 257 192 inlet~;
#X obj 243 304 outlet~;
#X obj 258 220 cos~;
#X obj 243 246 -~;
#X obj 197 230 sig~ 1;
#X obj 243 274 *~ 0.5;
#X connect 0 0 2 0;
#X connect 2 0 3 1;
#X connect 3 0 5 0;
#X connect 4 0 3 0;
#X connect 5 0 1 0;
#X restore 266 64 pd hanning;
#X obj 250 114 *~ 30;
#X obj 251 226 *~;
#X obj 81 107 inlet~;
#X obj 251 19 +~ 0.5;
#X obj 251 38 wrap~;
#X obj 80 167 delwrite~ \$0_cycle_2_l 30;
#X obj 250 165 vd~ \$0_cycle_2_l;
#X connect 0 0 6 0;
#X connect 2 0 4 1;
#X connect 3 0 9 0;
#X connect 4 0 1 0;
#X connect 5 0 8 0;
#X connect 6 0 7 0;
#X connect 7 0 2 0;
#X connect 7 0 3 0;
#X connect 9 0 4 0;
#X restore -91 167 pd cycle2;
#X obj -102 93 r \$0_ps;
#X obj -154 78 inlet~;
#X obj -156 257 outlet~;
#X connect 0 0 8 0;
#X connect 1 0 0 1;
#X connect 2 0 4 1;
#X connect 2 0 5 1;
#X connect 3 0 2 0;
#X connect 4 0 0 0;
#X connect 5 0 0 0;
#X connect 6 0 3 0;
#X connect 7 0 4 0;
#X connect 7 0 5 0;
#X restore -147 102 pd grain;
#X obj -147 141 delwrite~ \$0_delay_l 2000;
#X obj -66 256 vd~ \$0_delay_l;
#X obj 9 31 inlet~;
#X obj -65 334 outlet~;
#X obj -148 304 s~ \$0_cycle_l;
#X obj -148 30 r~ \$0_cycle_l;
#X obj -37 94 delread~ \$0_pp_l;
#X obj -36 67 delwrite~ \$0_pp_l 2000;
#X obj 46 174 r \$0_del_elft;
#X connect 0 0 6 0;
#X connect 1 0 8 0;
#X connect 2 0 1 2;
#X connect 3 0 4 0;
#X connect 4 0 5 0;
#X connect 6 0 1 0;
#X connect 6 0 9 0;
#X connect 7 0 1 1;
#X connect 7 0 12 0;
#X connect 10 0 3 0;
#X connect 11 0 3 0;
#X connect 13 0 0 0;
#X restore -5 45 pd left;
#N canvas 501 25 641 510 right 0;
#X obj -56 269 r \$0_delay_time;
#N canvas 0 0 450 300 smooth 0;
#X obj 191 129 inlet;
#X obj 190 210 outlet~;
#X obj 191 179 vline~;
#X msg 191 151 \$1 50;
#X connect 0 0 3 0;
#X connect 2 0 1 0;
#X connect 3 0 2 0;
#X restore -67 434 pd smooth;
#X obj -65 501 expr~ $v1*$f3+$v2*(1-$f3);
#X obj 82 470 r \$0_del_mix;
#N canvas 0 0 450 300 filter 0;
#X obj -276 191 svf~;
#X obj -267 123 r \$0_delay_pcut;
#X obj -267 144 mtof;
#N canvas 0 0 450 300 smooth 0;
#X obj 191 129 inlet;
#X obj 190 210 outlet~;
#X obj 191 179 vline~;
#X msg 191 150 \$1 10;
#X connect 0 0 3 0;
#X connect 2 0 1 0;
#X connect 3 0 2 0;
#X restore -267 164 pd smooth;
#N canvas 0 0 450 300 smooth 0;
#X obj 191 129 inlet;
#X obj 190 210 outlet~;
#X obj 191 179 vline~;
#X msg 191 151 \$1 10;
#X connect 0 0 3 0;
#X connect 2 0 1 0;
#X connect 3 0 2 0;
#X restore -165 164 pd smooth;
#X obj -165 120 r \$0_delay_res;
#X obj -275 80 inlet~;
#X obj -275 230 outlet~;
#X connect 0 0 7 0;
#X connect 1 0 2 0;
#X connect 2 0 3 0;
#X connect 3 0 0 1;
#X connect 4 0 0 2;
#X connect 5 0 4 0;
#X connect 6 0 0 0;
#X restore -147 175 pd filter;
#N canvas 0 0 450 300 grain 0;
#X obj -155 230 *~;
#X obj -140 197 r \$0_delay_fb;
#X obj -103 134 phasor~;
#X obj -102 114 sig~;
#N canvas 0 24 1022 658 cycle1 0;
#X obj 251 14 inlet~;
#X obj 251 265 outlet~;
#N canvas 0 0 450 396 hanning 0;
#X obj 257 192 inlet~;
#X obj 243 304 outlet~;
#X obj 258 220 cos~;
#X obj 243 246 -~;
#X obj 197 230 sig~ 1;
#X obj 243 274 *~ 0.5;
#X connect 0 0 2 0;
#X connect 2 0 3 1;
#X connect 3 0 5 0;
#X connect 4 0 3 0;
#X connect 5 0 1 0;
#X restore 266 64 pd hanning;
#X obj 250 114 *~ 30;
#X obj 251 226 *~;
#X obj 91 107 inlet~;
#X obj 91 167 delwrite~ \$0_cycle_1_r 30;
#X obj 250 166 vd~ \$0_cycle_1_r;
#X connect 0 0 3 0;
#X connect 0 0 2 0;
#X connect 2 0 4 1;
#X connect 3 0 7 0;
#X connect 4 0 1 0;
#X connect 5 0 6 0;
#X connect 7 0 4 0;
#X restore -155 168 pd cycle1;
#N canvas 0 24 1022 658 cycle2 0;
#X obj 251 -16 inlet~;
#X obj 251 265 outlet~;
#N canvas 0 0 450 396 hanning 0;
#X obj 257 192 inlet~;
#X obj 243 304 outlet~;
#X obj 258 220 cos~;
#X obj 243 246 -~;
#X obj 197 230 sig~ 1;
#X obj 243 274 *~ 0.5;
#X connect 0 0 2 0;
#X connect 2 0 3 1;
#X connect 3 0 5 0;
#X connect 4 0 3 0;
#X connect 5 0 1 0;
#X restore 266 64 pd hanning;
#X obj 250 114 *~ 30;
#X obj 251 226 *~;
#X obj 81 107 inlet~;
#X obj 251 19 +~ 0.5;
#X obj 251 38 wrap~;
#X obj 80 167 delwrite~ \$0_cycle_2_r 30;
#X obj 250 165 vd~ \$0_cycle_2_r;
#X connect 0 0 6 0;
#X connect 2 0 4 1;
#X connect 3 0 9 0;
#X connect 4 0 1 0;
#X connect 5 0 8 0;
#X connect 6 0 7 0;
#X connect 7 0 2 0;
#X connect 7 0 3 0;
#X connect 9 0 4 0;
#X restore -91 167 pd cycle2;
#X obj -102 93 r \$0_ps;
#X obj -154 78 inlet~;
#X obj -156 257 outlet~;
#X connect 0 0 8 0;
#X connect 1 0 0 1;
#X connect 2 0 4 1;
#X connect 2 0 5 1;
#X connect 3 0 2 0;
#X connect 4 0 0 0;
#X connect 5 0 0 0;
#X connect 6 0 3 0;
#X connect 7 0 4 0;
#X connect 7 0 5 0;
#X restore -147 202 pd grain;
#X obj 9 11 inlet~;
#X obj -65 534 outlet~;
#X obj -148 130 r~ \$0_cycle_r;
#X obj -148 504 s~ \$0_cycle_r;
#X obj -68 458 vd~ \$0_delay_r;
#X obj -147 241 delwrite~ \$0_delay_r 2000;
#X obj 157 13 r \$0_del_pp;
#X obj 61 87 *;
#X obj 60 63 t b f;
#X obj -127 105 vd~ \$0_pp_r;
#X obj -126 78 delwrite~ \$0_pp_r 2000;
#X obj 74 232 r quater_note;
#X obj -56 393 mux;
#X obj 277 213 r \$0_del_snc;
#X obj -26 314 int;
#X obj 74 273 / 4;
#X obj -26 361 *;
#X obj 4 335 t b f;
#X obj -26 293 / 62.5;
#X obj -30 337 max 1;
#X obj 239 343 pack f \$0;
#X msg 298 427 \; \$2_deltime_display label <\$1/16th>;
#X obj -149 418 s \$0_del_elft;
#X obj 141 401 spigot;
#X obj 152 361 == 0;
#X obj 242 396 spigot;
#X msg 67 430 \; \$2_deltime_display label <\$1_ms>;
#X floatatom 185 384 5 0 0 0 - - -;
#X obj 42 379 pack f \$0;
#X connect 0 0 18 0;
#X connect 0 0 24 0;
#X connect 0 0 34 0;
#X connect 1 0 10 0;
#X connect 2 0 7 0;
#X connect 3 0 2 2;
#X connect 4 0 5 0;
#X connect 5 0 11 0;
#X connect 6 0 2 1;
#X connect 6 0 16 0;
#X connect 8 0 4 0;
#X connect 10 0 2 0;
#X connect 10 0 9 0;
#X connect 12 0 14 0;
#X connect 13 0 15 0;
#X connect 14 0 13 0;
#X connect 14 1 13 1;
#X connect 15 0 4 0;
#X connect 17 0 21 0;
#X connect 18 0 1 0;
#X connect 18 0 28 0;
#X connect 18 0 13 0;
#X connect 19 0 18 2;
#X connect 19 0 30 0;
#X connect 19 0 31 1;
#X connect 20 0 25 0;
#X connect 21 0 23 0;
#X connect 22 0 18 1;
#X connect 23 0 22 0;
#X connect 23 1 22 1;
#X connect 24 0 20 0;
#X connect 25 0 22 0;
#X connect 25 0 26 0;
#X connect 26 0 31 0;
#X connect 29 0 32 0;
#X connect 30 0 29 1;
#X connect 30 0 33 0;
#X connect 31 0 27 0;
#X connect 34 0 29 0;
#X restore 62 48 pd right;
#X obj 124 143 tgl 10 1 \$0_del_snc \$0_del_snc-r snc 0 -5 0 10 -258113
-262144 -262144 0 1;
#X obj 127 186 tgl 10 1 \$0_del_pp \$0_del_pp-r ping-pong 15 7 0 10
-162280 -262144 -262144 0 0.5;
#X obj 208 186 cnv 12 80 15 empty \$0_deltime_display <525.385_ms>
3 8 0 10 -162280 -66577 0;
#X obj 151 76 del 5;
#X connect 2 0 18 0;
#X connect 3 0 13 0;
#X connect 5 0 0 0;
#X connect 14 0 3 0;
#X connect 15 0 22 0;
#X connect 16 0 23 0;
#X connect 18 0 17 0;
#X connect 19 0 21 0;
#X connect 21 0 20 0;
#X connect 22 0 17 0;
#X connect 23 0 20 0;
#X connect 24 0 27 0;
#X connect 27 0 8 0;
#X coords 0 -1 1 1 200 105 2 100 100;
#X restore 250 101 pd delay;
#N canvas 24 40 1024 728 delay 0;
#X obj 344 144 switch~;
#X obj 100 100 cnv 15 110 105 empty empty Chorus 5 12 0 14 -66577 -262144
0;
#X obj 120 136 vsl 10 60 0 5 0 1 \$0_chorus_speed \$0_chorus_speed-r
speed 0 -9 0 10 -162280 -262144 -262144 2200 1;
#X obj 170 136 vsl 10 60 0 3 0 1 \$0_chorus_depth \$0_chorus_depth-r
depth 0 -9 0 10 -162280 -262144 -262144 2000 1;
#X obj 561 366 r chorus_throw;
#X obj 344 113 r \$0_chorus_switch;
#X obj 701 366 r chorus_throw;
#X msg 700 389 set \$1_r;
#X obj 647 413 throw~ out_r;
#X obj 507 413 throw~ out_r;
#X msg 560 389 set \$1_l;
#N canvas 0 0 450 300 chorus_l 0;
#X obj 265 134 +~;
#N canvas 307 9 450 300 line1 0;
#X obj -45 95 osc~;
#X obj -44 124 *~;
#X obj 82 78 r \$0_chorus_depth;
#X obj -44 212 outlet~;
#N canvas 0 0 450 300 smooth 0;
#X obj 191 129 inlet;
#X obj 190 210 outlet~;
#X obj 191 179 line~;
#X msg 191 150 \$1 20;
#X connect 0 0 3 0;
#X connect 2 0 1 0;
#X connect 3 0 2 0;
#X restore -45 63 pd smooth;
#N canvas 0 0 450 300 smooth 0;
#X obj 191 129 inlet;
#X obj 190 210 outlet~;
#X obj 191 179 line~;
#X msg 191 150 \$1 20;
#X connect 0 0 3 0;
#X connect 2 0 1 0;
#X connect 3 0 2 0;
#X restore -11 95 pd smooth;
#X obj -45 26 r \$0_chorus_speed;
#X obj -45 148 +~ 5;
#X obj -45 179 vd~ \$0_chorus_1_l;
#X connect 0 0 1 0;
#X connect 1 0 7 0;
#X connect 2 0 5 0;
#X connect 4 0 0 0;
#X connect 5 0 1 1;
#X connect 6 0 4 0;
#X connect 7 0 8 0;
#X connect 8 0 3 0;
#X restore 280 29 pd line1;
#N canvas 307 9 450 300 line2 0;
#X obj -45 95 osc~;
#X obj -44 124 *~;
#X obj 82 78 r \$0_chorus_depth;
#X obj -44 212 outlet~;
#N canvas 0 0 450 300 smooth 0;
#X obj 191 129 inlet;
#X obj 190 210 outlet~;
#X obj 191 179 line~;
#X msg 191 150 \$1 20;
#X connect 0 0 3 0;
#X connect 2 0 1 0;
#X connect 3 0 2 0;
#X restore -45 63 pd smooth;
#N canvas 0 0 450 300 smooth 0;
#X obj 191 129 inlet;
#X obj 190 210 outlet~;
#X obj 191 179 line~;
#X msg 191 150 \$1 20;
#X connect 0 0 3 0;
#X connect 2 0 1 0;
#X connect 3 0 2 0;
#X restore -11 95 pd smooth;
#X obj -45 12 r \$0_chorus_speed;
#X obj -45 41 * 0.4;
#X obj -45 149 +~ 5;
#X obj -45 180 vd~ \$0_chorus_1_l;
#X connect 0 0 1 0;
#X connect 1 0 8 0;
#X connect 2 0 5 0;
#X connect 4 0 0 0;
#X connect 5 0 1 1;
#X connect 6 0 7 0;
#X connect 7 0 4 0;
#X connect 8 0 9 0;
#X connect 9 0 3 0;
#X restore 279 54 pd line2;
#N canvas 307 9 450 300 line3 0;
#X obj -45 95 osc~;
#X obj -44 124 *~;
#X obj 82 78 r \$0_chorus_depth;
#X obj -44 212 outlet~;
#N canvas 0 0 450 300 smooth 0;
#X obj 191 129 inlet;
#X obj 190 210 outlet~;
#X obj 191 179 line~;
#X msg 191 150 \$1 20;
#X connect 0 0 3 0;
#X connect 2 0 1 0;
#X connect 3 0 2 0;
#X restore -45 63 pd smooth;
#N canvas 0 0 450 300 smooth 0;
#X obj 191 129 inlet;
#X obj 190 210 outlet~;
#X obj 191 179 line~;
#X msg 191 150 \$1 20;
#X connect 0 0 3 0;
#X connect 2 0 1 0;
#X connect 3 0 2 0;
#X restore -11 95 pd smooth;
#X obj -45 12 r \$0_chorus_speed;
#X obj -45 41 * 0.6;
#X obj -45 148 +~ 5;
#X obj -45 179 vd~ \$0_chorus_1_l;
#X connect 0 0 1 0;
#X connect 1 0 8 0;
#X connect 2 0 5 0;
#X connect 4 0 0 0;
#X connect 5 0 1 1;
#X connect 6 0 7 0;
#X connect 7 0 4 0;
#X connect 8 0 9 0;
#X connect 9 0 3 0;
#X restore 280 83 pd line3;
#N canvas 307 9 450 300 line4 0;
#X obj -45 95 osc~;
#X obj -44 124 *~;
#X obj 82 78 r \$0_chorus_depth;
#X obj -44 212 outlet~;
#N canvas 0 0 450 300 smooth 0;
#X obj 191 129 inlet;
#X obj 190 210 outlet~;
#X obj 191 179 line~;
#X msg 191 150 \$1 20;
#X connect 0 0 3 0;
#X connect 2 0 1 0;
#X connect 3 0 2 0;
#X restore -45 63 pd smooth;
#N canvas 0 0 450 300 smooth 0;
#X obj 191 129 inlet;
#X obj 190 210 outlet~;
#X obj 191 179 line~;
#X msg 191 150 \$1 20;
#X connect 0 0 3 0;
#X connect 2 0 1 0;
#X connect 3 0 2 0;
#X restore -11 95 pd smooth;
#X obj -45 12 r \$0_chorus_speed;
#X obj -45 41 * 0.8;
#X obj -45 148 +~ 5;
#X obj -45 179 vd~ \$0_chorus_1_l;
#X connect 0 0 1 0;
#X connect 1 0 8 0;
#X connect 2 0 5 0;
#X connect 4 0 0 0;
#X connect 5 0 1 1;
#X connect 6 0 7 0;
#X connect 7 0 4 0;
#X connect 8 0 9 0;
#X connect 9 0 3 0;
#X restore 281 109 pd line4;
#X obj 266 165 *~ 0.5;
#X obj 266 -57 catch~ chorus_l;
#X obj 280 -9 delwrite~ \$0_chorus_1_l 10;
#X obj 267 200 outlet~;
#X connect 0 0 5 0;
#X connect 1 0 0 1;
#X connect 2 0 0 1;
#X connect 3 0 0 1;
#X connect 4 0 0 1;
#X connect 5 0 8 0;
#X connect 6 0 0 0;
#X connect 6 0 7 0;
#X restore 506 329 pd chorus_l;
#N canvas 0 1 450 299 chorus_r 0;
#X obj 265 134 +~;
#N canvas 307 9 450 300 line1 0;
#X obj -45 95 osc~;
#X obj -44 124 *~;
#X obj 82 78 r \$0_chorus_depth;
#X obj -44 212 outlet~;
#N canvas 0 0 450 300 smooth 0;
#X obj 191 129 inlet;
#X obj 190 210 outlet~;
#X obj 191 179 line~;
#X msg 191 150 \$1 20;
#X connect 0 0 3 0;
#X connect 2 0 1 0;
#X connect 3 0 2 0;
#X restore -45 63 pd smooth;
#N canvas 0 0 450 300 smooth 0;
#X obj 191 129 inlet;
#X obj 190 210 outlet~;
#X obj 191 179 line~;
#X msg 191 150 \$1 20;
#X connect 0 0 3 0;
#X connect 2 0 1 0;
#X connect 3 0 2 0;
#X restore -11 95 pd smooth;
#X obj -45 26 r \$0_chorus_speed;
#X obj -45 148 +~ 5;
#X obj -45 179 vd~ \$0_chorus_1_r;
#X connect 0 0 1 0;
#X connect 1 0 7 0;
#X connect 2 0 5 0;
#X connect 4 0 0 0;
#X connect 5 0 1 1;
#X connect 6 0 4 0;
#X connect 7 0 8 0;
#X connect 8 0 3 0;
#X restore 280 29 pd line1;
#N canvas 307 9 450 300 line2 0;
#X obj -45 95 osc~;
#X obj -44 124 *~;
#X obj 82 78 r \$0_chorus_depth;
#X obj -44 212 outlet~;
#N canvas 0 0 450 300 smooth 0;
#X obj 191 129 inlet;
#X obj 190 210 outlet~;
#X obj 191 179 line~;
#X msg 191 150 \$1 20;
#X connect 0 0 3 0;
#X connect 2 0 1 0;
#X connect 3 0 2 0;
#X restore -45 63 pd smooth;
#N canvas 0 0 450 300 smooth 0;
#X obj 191 129 inlet;
#X obj 190 210 outlet~;
#X obj 191 179 line~;
#X msg 191 150 \$1 20;
#X connect 0 0 3 0;
#X connect 2 0 1 0;
#X connect 3 0 2 0;
#X restore -11 95 pd smooth;
#X obj -45 12 r \$0_chorus_speed;
#X obj -45 41 * 0.4;
#X obj -45 149 +~ 5;
#X obj -45 180 vd~ \$0_chorus_1_r;
#X connect 0 0 1 0;
#X connect 1 0 8 0;
#X connect 2 0 5 0;
#X connect 4 0 0 0;
#X connect 5 0 1 1;
#X connect 6 0 7 0;
#X connect 7 0 4 0;
#X connect 8 0 9 0;
#X connect 9 0 3 0;
#X restore 279 54 pd line2;
#N canvas 307 9 450 300 line3 0;
#X obj -45 95 osc~;
#X obj -44 124 *~;
#X obj 82 78 r \$0_chorus_depth;
#X obj -44 212 outlet~;
#N canvas 0 0 450 300 smooth 0;
#X obj 191 129 inlet;
#X obj 190 210 outlet~;
#X obj 191 179 line~;
#X msg 191 150 \$1 20;
#X connect 0 0 3 0;
#X connect 2 0 1 0;
#X connect 3 0 2 0;
#X restore -45 63 pd smooth;
#N canvas 0 0 450 300 smooth 0;
#X obj 191 129 inlet;
#X obj 190 210 outlet~;
#X obj 191 179 line~;
#X msg 191 150 \$1 20;
#X connect 0 0 3 0;
#X connect 2 0 1 0;
#X connect 3 0 2 0;
#X restore -11 95 pd smooth;
#X obj -45 12 r \$0_chorus_speed;
#X obj -45 41 * 0.6;
#X obj -45 148 +~ 5;
#X obj -45 179 vd~ \$0_chorus_1_r;
#X connect 0 0 1 0;
#X connect 1 0 8 0;
#X connect 2 0 5 0;
#X connect 4 0 0 0;
#X connect 5 0 1 1;
#X connect 6 0 7 0;
#X connect 7 0 4 0;
#X connect 8 0 9 0;
#X connect 9 0 3 0;
#X restore 280 83 pd line3;
#N canvas 307 9 450 300 line4 0;
#X obj -45 95 osc~;
#X obj -44 124 *~;
#X obj 82 78 r \$0_chorus_depth;
#X obj -44 212 outlet~;
#N canvas 0 0 450 300 smooth 0;
#X obj 191 129 inlet;
#X obj 190 210 outlet~;
#X obj 191 179 line~;
#X msg 191 150 \$1 20;
#X connect 0 0 3 0;
#X connect 2 0 1 0;
#X connect 3 0 2 0;
#X restore -45 63 pd smooth;
#N canvas 0 0 450 300 smooth 0;
#X obj 191 129 inlet;
#X obj 190 210 outlet~;
#X obj 191 179 line~;
#X msg 191 150 \$1 20;
#X connect 0 0 3 0;
#X connect 2 0 1 0;
#X connect 3 0 2 0;
#X restore -11 95 pd smooth;
#X obj -45 12 r \$0_chorus_speed;
#X obj -45 41 * 0.8;
#X obj -45 148 +~ 5;
#X obj -45 179 vd~ \$0_chorus_1_r;
#X connect 0 0 1 0;
#X connect 1 0 8 0;
#X connect 2 0 5 0;
#X connect 4 0 0 0;
#X connect 5 0 1 1;
#X connect 6 0 7 0;
#X connect 7 0 4 0;
#X connect 8 0 9 0;
#X connect 9 0 3 0;
#X restore 281 109 pd line4;
#X obj 266 165 *~ 0.5;
#X obj 267 200 outlet~;
#X obj 280 -9 delwrite~ \$0_chorus_1_r 10;
#X obj 266 -57 catch~ chorus_r;
#X connect 0 0 5 0;
#X connect 1 0 0 1;
#X connect 2 0 0 1;
#X connect 3 0 0 1;
#X connect 4 0 0 1;
#X connect 5 0 6 0;
#X connect 8 0 0 0;
#X connect 8 0 7 0;
#X restore 646 329 pd chorus_r;
#X connect 4 0 10 0;
#X connect 5 0 0 0;
#X connect 6 0 7 0;
#X connect 7 0 8 0;
#X connect 10 0 9 0;
#X connect 11 0 9 0;
#X connect 12 0 8 0;
#X coords 0 -1 1 1 110 105 2 100 100;
#X restore 746 101 pd delay;
#N canvas 0 72 1366 696 distortion 0;
#X obj 100 100 cnv 15 150 105 empty empty Drive 5 12 0 14 -66577 -262144
0;
#X obj 748 316 r \$0_drive_switch;
#X obj 748 346 switch~;
#X obj 150 134 vsl 10 60 100 5000 1 1 \$0_hicut \$0_hicut-r hicut 0
-9 0 10 -162280 -262144 -262144 3600 1;
#X obj 112 134 vsl 10 60 0 50 0 1 \$0_drive_amt \$0_drive_amt-r drive
0 -9 0 10 -162280 -262144 -262144 1800 1;
#X obj 189 134 vsl 10 60 50 5000 1 1 \$0_locut \$0_locut-r locut 0
-9 0 10 -162280 -262144 -262144 1600 1;
#X obj 227 134 vsl 10 60 0 1 0 1 \$0_drive_mix \$0_drive_mix-r out
0 -9 0 10 -162280 -262144 -262144 1600 1;
#X obj 359 402 r drive_throw;
#X obj 449 402 r drive_throw;
#X msg 358 425 set \$1_l;
#X msg 448 425 set \$1_r;
#X obj 419 469 throw~ out_r;
#X obj 329 469 throw~ out_l;
#N canvas 0 35 1366 696 drive_l 0;
#X obj 412 80 *~;
#X obj 425 182 *~;
#X obj 410 249 tanh~;
#X obj 626 65 / 10;
#X obj 411 228 +~;
#X obj 626 112 max 0;
#X obj 412 156 tanh~;
#X obj 449 157 expr~ ($v1-(int($v1)-$f2))*$f2;
#X obj 425 205 *~;
#X obj 453 188 * 0.1;
#X obj 626 88 - 0.5;
#X obj 427 54 +~ 1;
#X obj 449 126 hip~;
#X obj 450 103 lop~;
#X obj 512 7 r \$0_drive_amt;
#X obj 612 10 r \$0_hicut;
#X obj 683 9 r \$0_locut;
#X obj 787 12 r \$0_drive_mix;
#X obj 331 6 catch~ drive_l;
#X obj 409 338 outlet~;
#X obj 410 289 *~;
#X obj 460 253 sig~;
#X connect 0 0 13 0;
#X connect 1 0 8 0;
#X connect 2 0 20 0;
#X connect 3 0 10 0;
#X connect 4 0 2 0;
#X connect 5 0 7 1;
#X connect 5 0 9 0;
#X connect 6 0 4 0;
#X connect 6 0 1 0;
#X connect 7 0 1 1;
#X connect 8 0 4 1;
#X connect 9 0 8 1;
#X connect 10 0 5 0;
#X connect 11 0 0 1;
#X connect 12 0 7 0;
#X connect 12 0 6 0;
#X connect 13 0 12 0;
#X connect 14 0 3 0;
#X connect 14 0 11 0;
#X connect 15 0 13 1;
#X connect 16 0 12 1;
#X connect 17 0 21 0;
#X connect 18 0 0 0;
#X connect 20 0 19 0;
#X connect 21 0 20 1;
#X restore 329 355 pd drive_l;
#N canvas 0 0 957 581 drive_r 0;
#X obj 412 80 *~;
#X obj 425 182 *~;
#X obj 410 249 tanh~;
#X obj 626 65 / 10;
#X obj 411 228 +~;
#X obj 626 112 max 0;
#X obj 412 156 tanh~;
#X obj 449 157 expr~ ($v1-(int($v1)-$f2))*$f2;
#X obj 425 205 *~;
#X obj 453 188 * 0.1;
#X obj 626 88 - 0.5;
#X obj 427 54 +~ 1;
#X obj 449 126 hip~;
#X obj 450 103 lop~;
#X obj 512 7 r \$0_drive_amt;
#X obj 612 10 r \$0_hicut;
#X obj 683 9 r \$0_locut;
#X obj 787 12 r \$0_drive_mix;
#X obj 410 339 outlet~;
#X obj 331 6 catch~ drive_r;
#X obj 410 297 *~;
#X obj 486 265 sig~;
#X connect 0 0 13 0;
#X connect 1 0 8 0;
#X connect 2 0 20 0;
#X connect 3 0 10 0;
#X connect 4 0 2 0;
#X connect 5 0 7 1;
#X connect 5 0 9 0;
#X connect 6 0 4 0;
#X connect 6 0 1 0;
#X connect 7 0 1 1;
#X connect 8 0 4 1;
#X connect 9 0 8 1;
#X connect 10 0 5 0;
#X connect 11 0 0 1;
#X connect 12 0 7 0;
#X connect 12 0 6 0;
#X connect 13 0 12 0;
#X connect 14 0 3 0;
#X connect 14 0 11 0;
#X connect 15 0 13 1;
#X connect 16 0 12 1;
#X connect 17 0 21 0;
#X connect 19 0 0 0;
#X connect 20 0 18 0;
#X connect 21 0 20 1;
#X restore 419 355 pd drive_r;
#X connect 1 0 2 0;
#X connect 7 0 9 0;
#X connect 8 0 10 0;
#X connect 9 0 12 0;
#X connect 10 0 11 0;
#X connect 13 0 12 0;
#X connect 14 0 11 0;
#X coords 0 -1 1 1 150 105 2 100 100;
#X restore 432 208 pd distortion;
#N canvas 0 72 1366 696 distortion 0;
#X obj 100 100 cnv 15 120 105 empty empty Reverb 5 12 0 14 -66577 -262144
0;
#X obj 748 346 switch~;
#X obj 157 134 vsl 10 60 0 1 0 1 \$0_damp \$0_damp-r damp 0 -9 0 10
-162280 -262144 -262144 5900 1;
#X obj 122 134 vsl 10 60 0 1 0 1 \$0_room \$0_room-r room 0 -9 0 10
-162280 -262144 -262144 2800 1;
#X obj 192 134 vsl 10 60 0 1 0 1 \$0_rev_mix \$0_rev_mix-r mix 0 -9
0 10 -162280 -262144 -262144 4000 1;
#X obj 359 322 r reverb_throw;
#X obj 748 316 r \$0_reverb_switch;
#X obj 348 257 freeverb~;
#X msg 467 126 roomsize \$1;
#X msg 556 123 damping \$1;
#X msg 790 174 wet \$1;
#X msg 715 173 dry \$1;
#X obj 556 100 r \$0_damp;
#X obj 715 92 r \$0_rev_mix;
#X obj 715 120 expr (1-$f1) \; $f1 \;;
#X obj 467 97 r \$0_room;
#X obj 331 6 catch~ reverb_l;
#X obj 433 8 catch~ reverb_r;
#X obj 459 322 r reverb_throw;
#X msg 358 345 set \$1_l;
#X obj 329 369 throw~ out_l;
#X obj 429 369 throw~ out_r;
#X msg 458 345 set \$1_r;
#X obj 633 83 loadbang;
#X msg 633 123 width 0;
#X connect 5 0 19 0;
#X connect 6 0 1 0;
#X connect 7 0 20 0;
#X connect 7 1 21 0;
#X connect 8 0 7 0;
#X connect 9 0 7 0;
#X connect 10 0 7 0;
#X connect 11 0 7 0;
#X connect 12 0 9 0;
#X connect 13 0 14 0;
#X connect 14 0 11 0;
#X connect 14 1 10 0;
#X connect 15 0 8 0;
#X connect 16 0 7 0;
#X connect 17 0 7 1;
#X connect 18 0 22 0;
#X connect 19 0 20 0;
#X connect 22 0 21 0;
#X connect 23 0 24 0;
#X connect 24 0 7 0;
#X coords 0 -1 1 1 120 105 2 100 100;
#X restore 584 208 pd distortion;
#X obj 240 58 inlet~;
#X obj 242 326 outlet~;
#N canvas 0 72 1366 696 distortion 0;
#X obj 100 100 cnv 15 150 105 empty empty Bit 5 12 0 14 -66577 -262144
0;
#X obj 518 126 switch~;
#X msg 358 175 set \$1_l;
#X obj 329 199 throw~ out_l;
#X obj 429 199 throw~ out_r;
#X msg 458 175 set \$1_r;
#X obj 331 96 catch~ bit_l;
#X obj 431 96 catch~ bit_r;
#X obj 359 152 r bit_throw;
#X obj 459 152 r bit_throw;
#X obj 518 96 r \$0_bit_switch;
#X obj 115 162 nbx 5 14 1 16 0 1 \$0_bit_depth \$0_bit_depth-r bitdepth
0 -8 0 10 -162280 -262144 -262144 16 256;
#X obj 185 162 nbx 5 14 440 44099 1 1 \$0_samplerate \$0_samplerate-r
samplerate 0 -8 0 10 -162280 -262144 -262144 44099 256;
#N canvas 0 0 450 300 sub 0;
#X obj 122 119 /~;
#X obj 122 138 expr~ int($v1)*$f2;
#X obj 227 102 expr 1/pow(2 \, $f1);
#X obj 227 77 r \$0_bit_depth;
#X obj 172 207 phasor~;
#X obj 121 232 samphold~;
#X obj 172 184 r \$0_samplerate;
#X obj 122 79 inlet~;
#X obj 121 266 outlet~;
#X connect 0 0 1 0;
#X connect 1 0 5 0;
#X connect 2 0 0 1;
#X connect 2 0 1 1;
#X connect 3 0 2 0;
#X connect 4 0 5 1;
#X connect 5 0 8 0;
#X connect 6 0 4 0;
#X connect 7 0 0 0;
#X restore 330 126 pd sub;
#N canvas 0 0 450 300 sub 0;
#X obj 122 119 /~;
#X obj 122 138 expr~ int($v1)*$f2;
#X obj 227 102 expr 1/pow(2 \, $f1);
#X obj 227 77 r \$0_bit_depth;
#X obj 172 207 phasor~;
#X obj 121 232 samphold~;
#X obj 172 184 r \$0_samplerate;
#X obj 122 79 inlet~;
#X obj 121 266 outlet~;
#X connect 0 0 1 0;
#X connect 1 0 5 0;
#X connect 2 0 0 1;
#X connect 2 0 1 1;
#X connect 3 0 2 0;
#X connect 4 0 5 1;
#X connect 5 0 8 0;
#X connect 6 0 4 0;
#X connect 7 0 0 0;
#X restore 430 126 pd sub;
#X connect 2 0 3 0;
#X connect 5 0 4 0;
#X connect 6 0 13 0;
#X connect 7 0 14 0;
#X connect 8 0 2 0;
#X connect 9 0 5 0;
#X connect 10 0 1 0;
#X connect 13 0 3 0;
#X connect 14 0 4 0;
#X coords 0 -1 1 1 150 105 2 100 100;
#X restore 706 208 pd distortion;
#N canvas 0 401 1366 684 out_bus 0;
#X obj -4 9 r \$0_slot_6;
#X obj 76 9 r \$0_slot_5;
#X obj 156 9 r \$0_slot_4;
#X obj 236 9 r \$0_slot_3;
#X obj 316 9 r \$0_slot_2;
#X obj 396 9 r \$0_slot_1;
#X obj -164 9 r \$0_slot_8;
#X obj -84 9 r \$0_slot_7;
#X obj -53 314 outlet;
#X obj -3 30 r \$0_del_mix;
#X obj 75 30 r \$0_delay_time;
#X obj 172 30 r \$0_delay_fb;
#X obj 258 30 r \$0_delay_pcut;
#X obj 354 30 r \$0_delay_res;
#X obj 444 30 r \$0_ps;
#X obj 184 54 r \$0_amt;
#X obj 239 54 r \$0_smooth;
#X obj 311 54 r \$0_base;
#X obj 371 54 r \$0_reso;
#X obj 434 54 r \$0_dyn;
#X obj 144 76 r \$0_tremolo_amt;
#X obj 254 76 r \$0_tremolo_freq;
#X obj 364 76 r \$0_tremolo_fb;
#X obj 193 99 r \$0_chorus_speed;
#X obj 303 99 r \$0_chorus_depth;
#X obj -38 124 r \$0_phaser_phase;
#X obj 71 124 r \$0_phaser_range;
#X obj 182 124 r \$0_phaser_center;
#X obj 297 124 r \$0-q;
#X obj 342 124 r \$0_phaser_amt;
#X obj 440 124 r \$0_phaser_freq;
#X obj 214 147 r \$0_drive_amt;
#X obj 304 147 r \$0_hicut;
#X obj 374 147 r \$0_locut;
#X obj 444 147 r \$0_drive_mix;
#X obj 284 167 r \$0_room;
#X obj 344 168 r \$0_damp;
#X obj 404 168 r \$0_rev_mix;
#X obj 302 189 r \$0_bit_depth;
#X obj 392 189 r \$0_samplerate;
#X obj -53 260 t_pack f f f f f f f f f f f f f f f f f f f f f f f
f f f f f f f f f f f f f f f f f f f;
#X obj 274 210 r \$0_del_pp;
#X obj 358 210 r \$0_del_snc;
#X obj 449 209 r \$0_sync?;
#X connect 0 0 40 2;
#X connect 1 0 40 3;
#X connect 2 0 40 4;
#X connect 3 0 40 5;
#X connect 4 0 40 6;
#X connect 5 0 40 7;
#X connect 6 0 40 0;
#X connect 7 0 40 1;
#X connect 9 0 40 8;
#X connect 10 0 40 9;
#X connect 11 0 40 10;
#X connect 12 0 40 11;
#X connect 13 0 40 12;
#X connect 14 0 40 13;
#X connect 15 0 40 14;
#X connect 16 0 40 15;
#X connect 17 0 40 16;
#X connect 18 0 40 17;
#X connect 19 0 40 18;
#X connect 20 0 40 19;
#X connect 21 0 40 20;
#X connect 22 0 40 21;
#X connect 23 0 40 22;
#X connect 24 0 40 23;
#X connect 25 0 40 24;
#X connect 26 0 40 25;
#X connect 27 0 40 26;
#X connect 28 0 40 27;
#X connect 29 0 40 28;
#X connect 30 0 40 29;
#X connect 31 0 40 30;
#X connect 32 0 40 31;
#X connect 33 0 40 32;
#X connect 34 0 40 33;
#X connect 35 0 40 34;
#X connect 36 0 40 35;
#X connect 37 0 40 36;
#X connect 38 0 40 37;
#X connect 39 0 40 38;
#X connect 40 0 8 0;
#X connect 41 0 40 39;
#X connect 42 0 40 40;
#X connect 43 0 40 41;
#X restore 590 350 pd out_bus;
#X obj 590 397 outlet;
#X obj 682 351 inlet;
#N canvas 0 72 1366 696 in_bus 0;
#X obj 103 -70 inlet;
#X obj -138 299 s \$0_slot_8-r;
#X obj -54 299 s \$0_slot_7-r;
#X obj 30 299 s \$0_slot_6-r;
#X obj 116 299 s \$0_slot_5-r;
#X obj 206 299 s \$0_slot_4-r;
#X obj 291 299 s \$0_slot_3-r;
#X obj 376 299 s \$0_slot_2-r;
#X obj 466 299 s \$0_slot_1-r;
#X obj 37 320 s \$0_del_mix-r;
#X obj 125 320 s \$0_delay_time-r;
#X obj 233 320 s \$0_delay_fb-r;
#X obj 331 320 s \$0_delay_pcut-r;
#X obj 440 320 s \$0_delay_res-r;
#X obj 544 320 s \$0_ps-r;
#X obj 194 344 s \$0_amt-r;
#X obj 259 344 s \$0_smooth-r;
#X obj 341 344 s \$0_base-r;
#X obj 421 344 s \$0_reso-r;
#X obj 494 344 s \$0_dyn-r;
#X obj 194 366 s \$0_tremolo_amt-r;
#X obj 323 366 s \$0_tremolo_freq-r;
#X obj 464 366 s \$0_tremolo_fb-r;
#X obj 283 389 s \$0_chorus_speed-r;
#X obj 403 389 s \$0_chorus_depth-r;
#X obj 12 414 s \$0_phaser_phase-r;
#X obj 131 414 s \$0_phaser_range-r;
#X obj 252 414 s \$0_phaser_center-r;
#X obj 380 414 s \$0-q-r;
#X obj 436 414 s \$0_phaser_amt-r;
#X obj 545 414 s \$0_phaser_freq-r;
#X obj 264 437 s \$0_drive_amt-r;
#X obj 374 437 s \$0_hicut-r;
#X obj 454 437 s \$0_locut-r;
#X obj 544 437 s \$0_drive_mix-r;
#X obj 344 457 s \$0_room-r;
#X obj 414 458 s \$0_damp-r;
#X obj 504 458 s \$0_rev_mix-r;
#X obj 372 479 s \$0_bit_depth-r;
#X obj 492 479 s \$0_samplerate-r;
#X obj 103 40 unpack f f f f f f f f f f f f f f f f f f f f f f f
f f f f f f f f f f f f f f f f f f f;
#X obj 459 267 s \$0_del_pp-r;
#X obj 545 268 s \$0_del_snc-r;
#X obj 636 267 s \$0_sync?-r;
#X connect 0 0 40 0;
#X connect 40 0 1 0;
#X connect 40 1 2 0;
#X connect 40 2 3 0;
#X connect 40 3 4 0;
#X connect 40 4 5 0;
#X connect 40 5 6 0;
#X connect 40 6 7 0;
#X connect 40 7 8 0;
#X connect 40 8 9 0;
#X connect 40 9 10 0;
#X connect 40 10 11 0;
#X connect 40 11 12 0;
#X connect 40 12 13 0;
#X connect 40 13 14 0;
#X connect 40 14 15 0;
#X connect 40 15 16 0;
#X connect 40 16 17 0;
#X connect 40 17 18 0;
#X connect 40 18 19 0;
#X connect 40 19 20 0;
#X connect 40 20 21 0;
#X connect 40 21 22 0;
#X connect 40 22 23 0;
#X connect 40 23 24 0;
#X connect 40 24 25 0;
#X connect 40 25 26 0;
#X connect 40 26 27 0;
#X connect 40 27 28 0;
#X connect 40 28 29 0;
#X connect 40 29 30 0;
#X connect 40 30 31 0;
#X connect 40 31 32 0;
#X connect 40 32 33 0;
#X connect 40 33 34 0;
#X connect 40 34 35 0;
#X connect 40 35 36 0;
#X connect 40 36 37 0;
#X connect 40 37 38 0;
#X connect 40 38 39 0;
#X connect 40 39 41 0;
#X connect 40 40 42 0;
#X connect 40 41 43 0;
#X restore 680 397 pd in_bus;
#X connect 0 0 2 0;
#X connect 0 1 11 0;
#X connect 1 0 0 0;
#X connect 10 0 0 1;
#X connect 13 0 14 0;
#X connect 15 0 16 0;
#X coords 0 -1 1 1 757 213 2 100 100;
