#N canvas 298 22 523 593 10;
#N canvas 295 212 217 197 ARGO 0;
#X obj 110 105 cnv 10 20 10 empty empty WhiteNoise 1 5 1 14 -262144
-1 1.04858e+06;
#X obj 101 113 cnv 4 10 4 empty empty empty 20 12 0 14 -1 -66577 0
;
#X obj 87 153 outlet~;
#X obj 87 124 noise~;
#X connect 3 0 2 0;
#X coords 0 -1 1 1 95 18 2 100 100;
#X restore 15 -31 pd ARGO;
#N canvas 388 142 349 246 ARGO 0;
#X obj 101 101 cnv 20 104 34 empty ColorAmpli empty 20 12 0 14 -261299
-1 1.04858e+06;
#X obj 88 200 outlet~;
#X obj 134 104 cnv 10 20 10 empty ColorAmpli Ampli 1 5 1 14 -261299
-1 1.04858e+06;
#X obj 88 74 inlet~;
#X obj 185 74 inlet~;
#X obj 87 173 *~;
#X obj 195 101 cnv 4 10 4 empty empty empty 20 12 0 14 -258113 -66577
0;
#X obj 101 101 cnv 4 10 4 empty empty empty 20 12 0 14 -1 -66577 0
;
#X obj 101 131 cnv 4 10 4 empty empty empty 20 12 0 14 -1 -66577 0
;
#X obj 103 118 hsl 101 12 0 1.25 0 1 \$0-A ColorAmpli empty 0 7 1 9
-262144 -1 -1 5100 0;
#X obj 103 118 hsl 101 12 0 1.25 0 0 \$0-A ColorAmpli -29dB 0 7 1 9
-261299 -258049 -1 4710 0;
#X text 211 127 2 HSLIDER superposés;
#X text 210 116 <-- ATTENTION;
#X obj 217 197 cnv 15 41 30 empty empty empty 20 12 0 14 -24198 -66577
0;
#N canvas 363 389 381 103 ? 0;
#X obj 5 49 cnv 15 370 38 empty empty empty 20 12 0 14 -224896 -66577
0;
#X text 6 65 Voir/Look at: http://puredata.info/downloads;
#X obj 4 12 cnv 18 370 30 empty empty ARGOPdMiniModules 1 10 1 14 -4033
-1 1.04858e+06;
#X obj 7 31 cnv 10 10 10 empty empty Gerard 0 5 1 9 -4033 -1 1.04858e+06
;
#X obj 38 31 cnv 10 10 10 empty empty Paresys 0 5 1 9 -4033 -1 1.04858e+06
;
#X obj 175 20 cnv 10 10 10 empty empty http://pagesperso-orange.fr/Paresys/ARGOPd/
0 5 1 9 -4033 -1 1.04858e+06;
#X obj 175 31 cnv 10 10 10 empty empty http://gerard.paresys.free.fr/ARGOPd/
0 5 1 9 -4033 -1 1.04858e+06;
#X text 6 51 Construit sous / Build under Pd 0.41.4-extended;
#X restore 223 204 pd ?;
#X obj 215 154 cnv 15 60 30 empty empty empty 20 12 0 14 -24198 -66577
0;
#N canvas 346 353 425 238 Help 0;
#X text 11 19 Amplificateur à gain controlé logarithmiquement;
#X text 10 45 Sensibilitée de l'entrée de contrôle du gain:;
#X text 10 60 1 = +80 dB;
#X text 11 74 Cela signifie par exemple:;
#X text 189 86 1 = 0 dB;
#X text 171 98 0.75 = -20 dB;
#X text 171 111 0.5 = -40 dB;
#X text 171 124 0.25 = -60 dB;
#X text 171 74 1.25 = +20 dB (slider à droite);
#X text 189 137 0 = -80 dB (slider à gauche);
#X restore 222 160 pd Help;
#N canvas 342 358 466 292 Ampli-v1-log 0;
#X obj -53 31 loadbang;
#X msg 208 178 set \$1;
#X obj 86 71 +~;
#X obj 206 121 snapshot~;
#X obj 207 155 change;
#X obj 276 33 inlet;
#X obj 231 210 outlet;
#X obj 85 31 inlet~;
#X msg 275 177 label \$1;
#X obj -46 59 metro 200;
#X obj 6 31 r SendFluid;
#X text 228 223 Hslider;
#X text 271 5 Hslider;
#X text 236 235 Over;
#X text 276 16 Under;
#X obj 85 207 outlet~;
#X obj 85 158 /~ 10000;
#X text 19 107 0..1.25 ->;
#X text 8 138 1..100000 ->;
#X text -82 173 0.0001..10 = -80dB..20dB ->;
#X obj 276 154 tosymbol;
#X obj 276 60 * 80;
#X obj 276 82 - 80;
#X obj 276 119 sprintf %ddB;
#X text 285 136 -> -80dB..20dB;
#X text 282 100 -> -80 .. 20;
#X text 224 248 0 .. 1.25;
#X text 263 -7 0 .. 1.25;
#X text 15 -20 Fluidité de;
#X text 14 -9 l'affichage;
#X text 15 2 des sliders;
#X text -7 13 (200ms par défaut);
#X obj 85 123 cyclone/pow~ 10000;
#X text -57 123 compatibility 0.42.5 ->;
#X connect 0 0 9 0;
#X connect 1 0 6 0;
#X connect 2 0 3 0;
#X connect 2 0 32 0;
#X connect 3 0 4 0;
#X connect 4 0 1 0;
#X connect 5 0 2 1;
#X connect 5 0 21 0;
#X connect 7 0 2 0;
#X connect 8 0 6 0;
#X connect 9 0 3 0;
#X connect 10 0 9 1;
#X connect 16 0 15 0;
#X connect 20 0 8 0;
#X connect 21 0 22 0;
#X connect 22 0 23 0;
#X connect 23 0 20 0;
#X connect 32 0 16 0;
#X restore 102 149 pd Ampli-v1-log;
#X text 22 33 Logarithmic Gain Controlled Amplifier;
#X text 22 49 Amplificateur à gain controlé loogarithmiquement;
#X text 209 97 1 2 2010;
#X connect 3 0 5 0;
#X connect 4 0 17 0;
#X connect 5 0 1 0;
#X connect 9 0 17 1;
#X connect 17 0 5 1;
#X connect 17 1 10 0;
#X coords 0 -1 1 1 106 36 1 100 100;
#X restore 15 68 pd ARGO;
#N canvas 384 205 334 267 ARGO 0;
#X obj 113 104 cnv 10 20 10 empty empty SampleHold 1 5 1 14 -262144
-1 1.04858e+06;
#X obj 101 101 cnv 4 10 4 empty empty empty 20 12 0 14 -1 -66577 0
;
#X obj 101 112 cnv 4 10 4 empty empty empty 20 12 0 14 -1 -66577 0
;
#X obj 89 16 inlet~;
#X obj 195 106 tgl 10 0 \$0-A \$0-B empty 17 7 0 10 -262144 -1 -1 1
1;
#X msg 150 63 1;
#X msg 285 65 0;
#X obj 89 228 outlet~;
#X obj 149 16 inlet~;
#X obj 195 101 cnv 2 10 4 empty empty empty 20 12 0 14 -1 -66577 0
;
#X obj 88 194 samphold~;
#X obj 149 40 threshold~ 0.5 1 0.49 1;
#X obj 195 146 == 0;
#X obj 196 102 cnv 2 8 2 empty empty empty 20 12 0 14 -262144 -66577
0;
#X connect 3 0 10 0;
#X connect 4 0 12 0;
#X connect 5 0 4 0;
#X connect 6 0 4 0;
#X connect 8 0 11 0;
#X connect 10 0 7 0;
#X connect 11 0 5 0;
#X connect 11 1 6 0;
#X connect 12 0 10 1;
#X coords 0 -1 1 1 106 17 2 100 100;
#X restore 15 124 pd ARGO;
#N canvas 240 127 443 197 ARGO 0;
#X obj 101 101 cnv 12 92 15 empty ColorAmpli empty 20 12 0 14 -261299
-1 1.04858e+06;
#X obj 145 104 cnv 8 8 10 empty ColorAmpli Quanta 1 5 1 14 -261299
-1 1.04858e+06;
#X obj 101 101 cnv 4 10 4 empty empty empty 20 12 0 14 -1 -66577 0
;
#X obj 101 112 cnv 4 10 4 empty empty empty 20 12 0 14 -1 -66577 0
;
#X obj 84 66 inlet~;
#X obj 113 102 nbx 3 12 0 999 0 1 \$0-A ColorAmpli empty 0 0 1 9 -261299
-1 -1 120 256;
#X obj 83 168 outlet~;
#X text 202 60 Quanta;
#X text 256 61 Echelle;
#X text 313 61 Notes dans l'octave;
#X text 212 73 120;
#X text 212 85 180;
#X text 212 97 240;
#X text 212 109 360;
#X text 212 121 480;
#X text 256 85 2/3 ton;
#X text 256 97 1/2 ton;
#X text 256 109 1/3 ton;
#X text 256 121 1/4 ton;
#X text 270 73 1 ton;
#X text 370 73 6;
#X text 370 85 9;
#X text 363 97 12;
#X text 363 109 18;
#X text 363 121 24;
#X obj 83 135 quantize~ 16;
#X text 80 -1 - "quantize a signal with a variable step-number";
#X text 211 140 0 = Off;
#X text 80 16 - Avec 240 \, Quanta sort des 1/2 tons tempérés (pour
le contrôle de la fréquence d'un oscillateur ou d'un filtre par exemple):
;
#X text 210 166 quantize~ (library zexy);
#X connect 4 0 25 0;
#X connect 5 0 25 0;
#X connect 25 0 6 0;
#X coords 0 -1 1 1 94 17 1 100 100;
#X restore 15 168 pd ARGO;
#N canvas 284 45 384 322 ARGO 0;
#X obj 101 101 cnv 20 130 66 empty ColorForm empty 20 12 0 14 -188398
-1 1.04858e+06;
#X obj 162 104 cnv 10 40 10 empty ColorForm Freeverb 1 5 1 14 -188398
-1 1.04858e+06;
#X obj 101 163 cnv 4 10 4 empty empty empty 20 12 0 14 -1 -66577 0
;
#X obj 221 163 cnv 4 10 4 empty empty empty 0 0 0 9 -1 -66577 0;
#X obj 87 74 inlet~;
#X obj 211 74 inlet~;
#X obj 101 101 cnv 4 10 4 empty empty empty 20 12 0 14 -1 -66577 0
;
#X obj 89 296 outlet~;
#X obj 188 295 outlet~;
#X obj 221 101 cnv 4 10 4 empty empty empty 0 0 0 9 -1 -66577 0;
#X obj 103 126 hsl 127 12 0 1 0 1 \$0-A ColorForm Brill 0 7 1 9 -188398
-1 -1 8500 0;
#X obj 103 114 hsl 127 12 0 1 0 1 \$0-A ColorForm Size 0 7 1 9 -188398
-1 -1 10200 0;
#X obj 103 150 hsl 127 12 0 1 0 1 \$0-A ColorAmpli Dir 0 7 1 9 -261299
-1 -1 4400 0;
#X obj 103 138 hsl 127 12 0 1 0 1 \$0-A ColorAmpli Stereo 0 7 1 9 -261299
-1 -1 11100 0;
#X obj 89 264 freeverb~;
#X msg -120 188 roomsize \$1;
#X msg -41 188 damping \$1;
#X msg 31 188 width \$1;
#X msg 100 187 wet \$1;
#X msg 149 227 dry \$1;
#X obj 148 187 - 1;
#X obj 148 207 * -1;
#X obj -120 145 * 1.1;
#X obj -40 144 * -2.3;
#X obj -40 165 + 2.3;
#X msg 190 186 freeze \$1;
#X obj 117 102 tgl 12 1 \$0-A \$0-B Freeze 14 7 1 9 -262144 -1 -1 0
1;
#X obj -10 90 cnv 15 41 30 empty empty empty 20 12 0 14 -24198 -66577
0;
#N canvas 350 196 381 103 ? 0;
#X obj 5 49 cnv 15 370 38 empty empty empty 20 12 0 14 -224896 -66577
0;
#X text 6 65 Voir/Look at: http://puredata.info/downloads;
#X obj 4 12 cnv 18 370 30 empty empty ARGOPdMiniModules 1 10 1 14 -4033
-1 1.04858e+06;
#X obj 7 31 cnv 10 10 10 empty empty Gerard 0 5 1 9 -4033 -1 1.04858e+06
;
#X obj 38 31 cnv 10 10 10 empty empty Paresys 0 5 1 9 -4033 -1 1.04858e+06
;
#X obj 175 20 cnv 10 10 10 empty empty http://pagesperso-orange.fr/Paresys/ARGOPd/
0 5 1 9 -4033 -1 1.04858e+06;
#X obj 175 31 cnv 10 10 10 empty empty http://gerard.paresys.free.fr/ARGOPd/
0 5 1 9 -4033 -1 1.04858e+06;
#X text 6 51 Construit sous / Build under Pd 0.41.4-extended;
#X restore -3 96 pd ?;
#X obj -82 89 cnv 15 60 30 empty empty empty 20 12 0 14 -24198 -66577
0;
#N canvas 584 107 469 218 Help 0;
#X obj -164 -103 cnv 15 440 180 empty empty empty 20 12 0 14 -228856
-66577 0;
#X text -161 -103 Citation;
#X text -154 -13 "freeverb~ is a simple implementation of the standard
Schroeder/Moorer reverb model. It uses 8 comb filters in parallel on
both channels. It then feeds the result of the reverb through 4 allpass
filters in series on both channels. These "smooth" the sound. The filters
on the right channel are slightly detuned compared to the left channel
in order to create a stereo effect.";
#X text -155 -90 freeverb~ version 1.2 - reverb external for Pure Data
and Max/MSP written by Olaf Matthes <olaf.matthes@gmx.de> - based on
Freeverb \, the free \, studio-quality reverb SOURCE CODE in the public
domain. Written by Jezar at Dreampoint - http://www.dreampoint.co.uk
This software is published under GPL terms \, see file LICENSE.;
#X restore -75 96 pd Help;
#X text 138 83 11 1 2010;
#X connect 4 0 14 0;
#X connect 5 0 14 1;
#X connect 10 0 23 0;
#X connect 11 0 22 0;
#X connect 12 0 20 0;
#X connect 12 0 18 0;
#X connect 13 0 17 0;
#X connect 14 0 7 0;
#X connect 14 1 8 0;
#X connect 15 0 14 0;
#X connect 16 0 14 0;
#X connect 17 0 14 0;
#X connect 18 0 14 0;
#X connect 19 0 14 0;
#X connect 20 0 21 0;
#X connect 21 0 19 0;
#X connect 22 0 15 0;
#X connect 23 0 24 0;
#X connect 24 0 16 0;
#X connect 25 0 14 0;
#X connect 26 0 25 0;
#X coords 0 -1 1 1 132 68 1 100 100;
#X restore 216 371 pd ARGO;
#N canvas 540 328 458 273 ARGO 0;
#X obj 101 101 cnv 10 100 15 empty ColorForm empty 20 12 0 14 -188398
-1 1.04858e+06;
#X obj 101 112 cnv 4 10 4 empty empty empty 20 12 0 14 -1 -66577 0
;
#X obj 85 73 inlet~;
#X obj 114 102 nbx 4 12 0.01 1000 0 1 \$0-A ColorTime ms 40 7 1 9 -208064
-1 -1 1.2 256;
#X obj 101 101 cnv 4 10 4 empty empty empty 20 12 0 14 -1 -66577 0
;
#X obj 85 234 outlet~;
#X obj 85 203 lop~;
#X obj 115 125 t b f;
#X obj 128 175 /;
#X text 140 17 freq(Hz) = 1 / (2 x pi x Time constant(sec));
#X text 139 33 freq(Hz) = 1000 / (2 x pi x Time constant(ms));
#X obj 168 105 cnv 10 20 10 empty ColorForm Gliss 1 5 1 14 -188398
-1 1.04858e+06;
#X text 119 201 <- First order (one-pole) lowpass filter (-6dB/octave)
;
#X text 139 49 freq(Hz) = 159 / (Time constant(ms));
#X msg 115 151 159;
#X connect 2 0 6 0;
#X connect 3 0 7 0;
#X connect 6 0 5 0;
#X connect 7 0 14 0;
#X connect 7 1 8 1;
#X connect 8 0 6 1;
#X connect 14 0 8 0;
#X coords 0 -1 1 1 102 17 1 100 100;
#X restore 353 207 pd ARGO;
#N canvas 388 142 349 246 ARGO 0;
#X obj 101 101 cnv 20 104 34 empty ColorAmpli empty 20 12 0 14 -261299
-1 1.04858e+06;
#X obj 88 200 outlet~;
#X obj 134 104 cnv 10 20 10 empty ColorAmpli Ampli 1 5 1 14 -261299
-1 1.04858e+06;
#X obj 88 74 inlet~;
#X obj 185 74 inlet~;
#X obj 87 173 *~;
#X obj 195 101 cnv 4 10 4 empty empty empty 20 12 0 14 -258113 -66577
0;
#X obj 101 101 cnv 4 10 4 empty empty empty 20 12 0 14 -1 -66577 0
;
#X obj 101 131 cnv 4 10 4 empty empty empty 20 12 0 14 -1 -66577 0
;
#X obj 103 118 hsl 101 12 0 1.25 0 1 \$0-A ColorAmpli empty 0 7 1 9
-262144 -1 -1 0 0;
#X obj 103 118 hsl 101 12 0 1.25 0 0 \$0-A ColorAmpli -80dB 0 7 1 9
-261299 -258049 -1 0 0;
#X text 211 127 2 HSLIDER superposés;
#X text 210 116 <-- ATTENTION;
#X obj 217 197 cnv 15 41 30 empty empty empty 20 12 0 14 -24198 -66577
0;
#N canvas 363 389 381 103 ? 0;
#X obj 5 49 cnv 15 370 38 empty empty empty 20 12 0 14 -224896 -66577
0;
#X text 6 65 Voir/Look at: http://puredata.info/downloads;
#X obj 4 12 cnv 18 370 30 empty empty ARGOPdMiniModules 1 10 1 14 -4033
-1 1.04858e+06;
#X obj 7 31 cnv 10 10 10 empty empty Gerard 0 5 1 9 -4033 -1 1.04858e+06
;
#X obj 38 31 cnv 10 10 10 empty empty Paresys 0 5 1 9 -4033 -1 1.04858e+06
;
#X obj 175 20 cnv 10 10 10 empty empty http://pagesperso-orange.fr/Paresys/ARGOPd/
0 5 1 9 -4033 -1 1.04858e+06;
#X obj 175 31 cnv 10 10 10 empty empty http://gerard.paresys.free.fr/ARGOPd/
0 5 1 9 -4033 -1 1.04858e+06;
#X text 6 51 Construit sous / Build under Pd 0.41.4-extended;
#X restore 223 204 pd ?;
#X obj 215 154 cnv 15 60 30 empty empty empty 20 12 0 14 -24198 -66577
0;
#N canvas 346 353 425 238 Help 0;
#X text 11 19 Amplificateur à gain controlé logarithmiquement;
#X text 10 45 Sensibilitée de l'entrée de contrôle du gain:;
#X text 10 60 1 = +80 dB;
#X text 11 74 Cela signifie par exemple:;
#X text 189 86 1 = 0 dB;
#X text 171 98 0.75 = -20 dB;
#X text 171 111 0.5 = -40 dB;
#X text 171 124 0.25 = -60 dB;
#X text 171 74 1.25 = +20 dB (slider à droite);
#X text 189 137 0 = -80 dB (slider à gauche);
#X restore 222 160 pd Help;
#N canvas 342 358 466 292 Ampli-v1-log 0;
#X obj -53 31 loadbang;
#X msg 208 178 set \$1;
#X obj 86 71 +~;
#X obj 206 121 snapshot~;
#X obj 207 155 change;
#X obj 276 33 inlet;
#X obj 231 210 outlet;
#X obj 85 31 inlet~;
#X msg 275 177 label \$1;
#X obj -46 59 metro 200;
#X obj 6 31 r SendFluid;
#X text 228 223 Hslider;
#X text 271 5 Hslider;
#X text 236 235 Over;
#X text 276 16 Under;
#X obj 85 207 outlet~;
#X obj 85 158 /~ 10000;
#X text 19 107 0..1.25 ->;
#X text 8 138 1..100000 ->;
#X text -82 173 0.0001..10 = -80dB..20dB ->;
#X obj 276 154 tosymbol;
#X obj 276 60 * 80;
#X obj 276 82 - 80;
#X obj 276 119 sprintf %ddB;
#X text 285 136 -> -80dB..20dB;
#X text 282 100 -> -80 .. 20;
#X text 224 248 0 .. 1.25;
#X text 263 -7 0 .. 1.25;
#X text 15 -20 Fluidité de;
#X text 14 -9 l'affichage;
#X text 15 2 des sliders;
#X text -7 13 (200ms par défaut);
#X obj 85 123 cyclone/pow~ 10000;
#X text -57 123 compatibility 0.42.5 ->;
#X connect 0 0 9 0;
#X connect 1 0 6 0;
#X connect 2 0 3 0;
#X connect 2 0 32 0;
#X connect 3 0 4 0;
#X connect 4 0 1 0;
#X connect 5 0 2 1;
#X connect 5 0 21 0;
#X connect 7 0 2 0;
#X connect 8 0 6 0;
#X connect 9 0 3 0;
#X connect 10 0 9 1;
#X connect 16 0 15 0;
#X connect 20 0 8 0;
#X connect 21 0 22 0;
#X connect 22 0 23 0;
#X connect 23 0 20 0;
#X connect 32 0 16 0;
#X restore 102 149 pd Ampli-v1-log;
#X text 22 33 Logarithmic Gain Controlled Amplifier;
#X text 22 49 Amplificateur à gain controlé loogarithmiquement;
#X text 209 97 1 2 2010;
#X connect 3 0 5 0;
#X connect 4 0 17 0;
#X connect 5 0 1 0;
#X connect 9 0 17 1;
#X connect 17 0 5 1;
#X connect 17 1 10 0;
#X coords 0 -1 1 1 106 36 1 100 100;
#X restore 254 277 pd ARGO;
#X obj 255 503 dac~ 1 2;
#X obj 36 29 switch~;
#N canvas 608 166 228 173 ARGOnOff 0;
#X obj 100 100 tgl 18 1 \$0-SendOnOff \$0-ReceiveOnOff On/Off 20 11
1 14 -4033 -1 -1 1 1;
#X obj 99 10 loadbang;
#X msg 99 33 \; pd dsp 1;
#X obj 100 129 outlet;
#X text -50 99 Audio On/Off du patch ->;
#X text -22 45 Audio General On ->;
#X text 107 82 17 3 2010;
#X connect 0 0 3 0;
#X connect 1 0 2 0;
#X coords 0 -1 1 1 65 18 2 100 100;
#X restore 36 11 pd ARGOnOff;
#X text 132 131 Quanta;
#X text 177 132 Echelle;
#X text 142 144 120;
#X text 142 156 180;
#X text 142 168 240;
#X text 142 180 360;
#X text 142 192 480;
#X text 177 156 2/3 ton;
#X text 177 168 1/2 ton;
#X text 177 180 1/3 ton;
#X text 177 192 1/4 ton;
#X text 191 144 1 ton;
#X text 130 247 Onde triangulaire ->;
#X text 142 260 Triangular wave ->;
#X text 110 399 Reverberation ->;
#X text 319 114 <- Rampe descendante;
#X text 358 237 <- Envelope;
#X text 358 227 <- Enveloppe;
#X text 153 340 General level ->;
#X text 147 329 Niveau général ->;
#X text 326 130 <- Ramp-down wave;
#X text 363 298 <- Controlled amplifier;
#X text 363 285 <- Amplificateur contrôlé;
#N canvas 324 59 331 313 ARGO 0;
#X obj 101 101 cnv 20 104 34 empty ColorAmpli empty 20 12 0 14 -261299
-1 1.04858e+06;
#X obj 85 285 outlet~;
#X obj 134 104 cnv 10 20 10 empty ColorAmpli Ampli 1 5 1 14 -261299
-1 1.04858e+06;
#X obj 85 72 inlet~;
#X obj 85 260 *~;
#X obj 103 118 hsl 101 12 -80 20 0 1 \$0-A ColorAmpli -6dB 0 7 1 9
-261299 -1 -1 7400 0;
#X msg -24 161 label \$1;
#X obj -25 138 tosymbol;
#X obj -25 103 sprintf %ddB;
#X obj 101 101 cnv 4 10 4 empty empty empty 20 12 0 14 -1 -66577 0
;
#X obj 101 131 cnv 4 10 4 empty empty empty 20 12 0 14 -1 -66577 0
;
#X text -16 120 -> -80dB..20dB;
#X text 106 182 -> 0.0001..10 = -80dB..20dB;
#X text 209 97 5 5 2011;
#X obj 100 163 expr (pow(10 \, $f1 / 20));
#X text 107 140 -> -80..20;
#X obj 227 270 cnv 15 41 30 empty empty empty 20 12 0 14 -24198 -66577
0;
#N canvas 350 196 308 136 ?? 0;
#X obj -9 87 cnv 15 300 38 empty empty empty 20 12 0 14 -224896 -66577
0;
#X obj -9 10 cnv 18 300 70 empty empty ARGOPdMiniModules 1 10 1 14
-4033 -1 1.04858e+06;
#X obj 9 29 cnv 10 10 10 empty empty Gerard 0 5 1 9 -4033 -1 1.04858e+06
;
#X obj 40 29 cnv 10 10 10 empty empty Paresys 0 5 1 9 -4033 -1 1.04858e+06
;
#X text -8 89 Construit sous / Build under Pd 0.42.5-extended;
#X obj 39 105 pddplink http://puredata.info/downloads;
#X obj 3 42 pddplink http://pagesperso-orange.fr/Paresys/ARGOPd/;
#X obj 3 57 pddplink http://gerard.paresys.free.fr/ARGOPd/;
#X restore 231 277 pd ??;
#X obj 100 206 sel 0.0001;
#X msg 100 234 0;
#X connect 3 0 4 0;
#X connect 4 0 1 0;
#X connect 5 0 8 0;
#X connect 5 0 14 0;
#X connect 6 0 5 0;
#X connect 7 0 6 0;
#X connect 8 0 7 0;
#X connect 14 0 18 0;
#X connect 18 0 19 0;
#X connect 18 1 4 1;
#X connect 19 0 4 1;
#X connect 19 0 7 0;
#X coords 0 -1 1 1 106 36 1 100 100;
#X restore 254 319 pd ARGO;
#N canvas 324 59 331 313 ARGO 0;
#X obj 101 101 cnv 20 104 34 empty ColorAmpli empty 20 12 0 14 -261299
-1 1.04858e+06;
#X obj 85 285 outlet~;
#X obj 134 104 cnv 10 20 10 empty ColorAmpli Ampli 1 5 1 14 -261299
-1 1.04858e+06;
#X obj 85 72 inlet~;
#X obj 85 260 *~;
#X obj 103 118 hsl 101 12 -80 20 0 1 \$0-A ColorAmpli -19dB 0 7 1 9
-261299 -1 -1 6100 0;
#X msg -24 161 label \$1;
#X obj -25 138 tosymbol;
#X obj -25 103 sprintf %ddB;
#X obj 101 101 cnv 4 10 4 empty empty empty 20 12 0 14 -1 -66577 0
;
#X obj 101 131 cnv 4 10 4 empty empty empty 20 12 0 14 -1 -66577 0
;
#X text -16 120 -> -80dB..20dB;
#X text 106 182 -> 0.0001..10 = -80dB..20dB;
#X text 209 97 5 5 2011;
#X obj 100 163 expr (pow(10 \, $f1 / 20));
#X text 107 140 -> -80..20;
#X obj 227 270 cnv 15 41 30 empty empty empty 20 12 0 14 -24198 -66577
0;
#N canvas 350 196 308 136 ?? 0;
#X obj -9 87 cnv 15 300 38 empty empty empty 20 12 0 14 -224896 -66577
0;
#X obj -9 10 cnv 18 300 70 empty empty ARGOPdMiniModules 1 10 1 14
-4033 -1 1.04858e+06;
#X obj 9 29 cnv 10 10 10 empty empty Gerard 0 5 1 9 -4033 -1 1.04858e+06
;
#X obj 40 29 cnv 10 10 10 empty empty Paresys 0 5 1 9 -4033 -1 1.04858e+06
;
#X text -8 89 Construit sous / Build under Pd 0.42.5-extended;
#X obj 39 105 pddplink http://puredata.info/downloads;
#X obj 3 42 pddplink http://pagesperso-orange.fr/Paresys/ARGOPd/;
#X obj 3 57 pddplink http://gerard.paresys.free.fr/ARGOPd/;
#X restore 231 277 pd ??;
#X obj 100 206 sel 0.0001;
#X msg 100 234 0;
#X connect 3 0 4 0;
#X connect 4 0 1 0;
#X connect 5 0 8 0;
#X connect 5 0 14 0;
#X connect 6 0 5 0;
#X connect 7 0 6 0;
#X connect 8 0 7 0;
#X connect 14 0 18 0;
#X connect 18 0 19 0;
#X connect 18 1 4 1;
#X connect 19 0 4 1;
#X connect 19 0 7 0;
#X coords 0 -1 1 1 106 36 1 100 100;
#X restore 226 22 pd ARGO;
#N canvas 324 59 331 313 ARGO 0;
#X obj 101 101 cnv 20 104 34 empty ColorAmpli empty 20 12 0 14 -261299
-1 1.04858e+06;
#X obj 85 285 outlet~;
#X obj 134 104 cnv 10 20 10 empty ColorAmpli Ampli 1 5 1 14 -261299
-1 1.04858e+06;
#X obj 85 72 inlet~;
#X obj 85 260 *~;
#X obj 103 118 hsl 101 12 -80 20 0 1 \$0-A ColorAmpli -20dB 0 7 1 9
-261299 -1 -1 6000 0;
#X msg -24 161 label \$1;
#X obj -25 138 tosymbol;
#X obj -25 103 sprintf %ddB;
#X obj 101 101 cnv 4 10 4 empty empty empty 20 12 0 14 -1 -66577 0
;
#X obj 101 131 cnv 4 10 4 empty empty empty 20 12 0 14 -1 -66577 0
;
#X text -16 120 -> -80dB..20dB;
#X text 106 182 -> 0.0001..10 = -80dB..20dB;
#X text 209 97 5 5 2011;
#X obj 100 163 expr (pow(10 \, $f1 / 20));
#X text 107 140 -> -80..20;
#X obj 227 270 cnv 15 41 30 empty empty empty 20 12 0 14 -24198 -66577
0;
#N canvas 350 196 308 136 ?? 0;
#X obj -9 87 cnv 15 300 38 empty empty empty 20 12 0 14 -224896 -66577
0;
#X obj -9 10 cnv 18 300 70 empty empty ARGOPdMiniModules 1 10 1 14
-4033 -1 1.04858e+06;
#X obj 9 29 cnv 10 10 10 empty empty Gerard 0 5 1 9 -4033 -1 1.04858e+06
;
#X obj 40 29 cnv 10 10 10 empty empty Paresys 0 5 1 9 -4033 -1 1.04858e+06
;
#X text -8 89 Construit sous / Build under Pd 0.42.5-extended;
#X obj 39 105 pddplink http://puredata.info/downloads;
#X obj 3 42 pddplink http://pagesperso-orange.fr/Paresys/ARGOPd/;
#X obj 3 57 pddplink http://gerard.paresys.free.fr/ARGOPd/;
#X restore 231 277 pd ??;
#X obj 100 206 sel 0.0001;
#X msg 100 234 0;
#X connect 3 0 4 0;
#X connect 4 0 1 0;
#X connect 5 0 8 0;
#X connect 5 0 14 0;
#X connect 6 0 5 0;
#X connect 7 0 6 0;
#X connect 8 0 7 0;
#X connect 14 0 18 0;
#X connect 18 0 19 0;
#X connect 18 1 4 1;
#X connect 19 0 4 1;
#X connect 19 0 7 0;
#X coords 0 -1 1 1 106 36 1 100 100;
#X restore 114 22 pd ARGO;
#X obj 465 500 cnv 15 48 25 empty empty empty 20 12 0 14 -24198 -66577
0;
#N canvas 350 196 308 136 ??? 0;
#X obj -6 87 cnv 15 300 38 empty empty empty 20 12 0 14 -224896 -66577
0;
#X obj -6 10 cnv 18 300 70 empty empty ARGOPdMiniModules 3 10 1 14
-4033 -1 1.04858e+06;
#X obj 13 31 cnv 10 10 10 empty empty Gerard 0 5 1 11 -4033 -1 1.04858e+06
;
#X obj 55 30 cnv 10 10 10 empty empty Paresys 0 5 1 11 -4033 -1 1.04858e+06
;
#X text -1 89 Construit sous / Build under Pd 0.42.5-extended;
#X obj 6 43 pddp/pddplink http://pagesperso-orange.fr/Paresys/ARGOPd/
;
#X obj 6 58 pddp/pddplink http://gerard.paresys.free.fr/ARGOPd/;
#X obj 46 105 pddp/pddplink http://puredata.info/downloads;
#X restore 469 504 pd ???;
#N canvas 355 145 356 192 ARGO 0;
#X obj 92 143 osc~;
#X obj 101 101 cnv 20 244 34 empty ColorTime Oscill-Sinus 170 8 1 14
-208064 -1 1.04858e+06;
#X obj 92 168 outlet~;
#X obj 100 106 nbx 7 12 0 20000 0 1 \$0-A ColorTime Hz 60 7 1 9 -208064
-1 -1 0.135343 256;
#X obj 87 26 inlet~;
#X obj 101 131 cnv 4 10 4 empty empty empty 20 12 0 14 -1 -66577 0
;
#X obj 101 101 cnv 4 10 4 empty empty empty 20 12 0 14 -1728 -66577
0;
#X obj 103 118 hsl 241 12 0 1 0 0 \$0-A ColorTime empty 0 7 1 9 -262144
-1 -1 3700 0;
#X obj 103 118 hsl 241 12 0 1 0 0 \$0-A ColorTime Db-8 0 7 1 9 -208064
-1728 -1 3700 0;
#X text 155 147 2 HSLIDER superposés;
#X text 154 136 ATTENTION;
#X obj 197 52 cnv 15 60 30 empty empty empty 20 12 0 14 -24198 -66577
0;
#N canvas 161 113 425 238 Help 0;
#X obj 8 85 cnv 15 400 100 empty empty empty 20 12 0 14 -233017 -66577
0;
#X text 12 87 Citation;
#X text 10 45 Sensibilitée de l'entrée de contrôle de la fréquence:
;
#X text 10 57 1 = 240 1/2 ton = 20 octaves;
#X text 11 19 Oscillateur sinusoïdal;
#X text 22 106 The osc~ object outputs a cosine wave. If no argument
is supplied \, the input is taken to be an audio signal.;
#X restore 204 58 pd Help;
#X text 282 80 27 12 2010;
#N canvas 86 284 344 337 Freq-v8-sig- 0;
#X obj 226 11 ftom;
#X obj 279 170 mtof;
#X obj 141 95 +~;
#X obj 9 142 snapshot~;
#X obj 9 164 change;
#X msg 9 189 set \$1;
#X obj 142 198 clip~ 0 20000;
#X obj 142 175 mtof~;
#X obj 142 227 outlet~;
#X obj 280 -12 inlet;
#X obj 225 -13 inlet;
#X obj 38 227 outlet;
#X obj 279 227 outlet;
#X text 35 245 Hslider;
#X obj 141 -8 inlet~;
#X obj 8 -9 loadbang;
#X obj 229 227 outlet;
#X obj 279 109 * 240;
#X obj 279 132 - 108;
#X obj 141 123 *~ 240;
#X obj 141 145 -~ 108;
#X obj 226 34 + 108;
#X obj 226 56 / 240;
#X obj 9 40 metro 200;
#X obj 64 -9 r SendFluid;
#X text 44 256 Over;
#X text 281 245 Number;
#X text 222 -30 Number;
#X text 228 244 Hslider;
#X text 230 255 Under;
#X text 281 -42 Hslider;
#X text 286 -31 Under;
#X msg 229 197 set \$1;
#N canvas 220 243 583 317 pitchb-11-2010 0;
#X obj 70 111 mod 12;
#X obj 70 135 sel 0 1 2 3 4 5 6 7 8 9 10 11;
#X msg 246 170 A;
#X msg 300 170 B;
#X msg 192 170 G;
#X msg 3 170 C;
#X msg 57 170 D;
#X msg 111 170 E;
#X msg 138 170 F;
#X obj 204 1 inlet;
#X obj 329 115 div 12;
#X obj 204 79 t f f;
#X text 334 190 -> Numero de l'octave;
#X text 213 64 -> Numero MIDI de la note (69 = A3 = 440Hz);
#X msg 260 260 label \$1;
#X obj 260 283 outlet;
#X msg 30 170 Db;
#X msg 84 170 Eb;
#X msg 165 170 Gb;
#X msg 219 170 Ab;
#X msg 273 170 Bb;
#X text 369 78 (70 = A#3 = Bb3);
#X obj 260 238 symbol;
#X obj 260 213 sprintf %s%d;
#X text 11 231 Impossible d'afficher # dans un label;
#X text 11 243 donc j'affiche b;
#X obj 204 51 int;
#X text 255 23 -> pour corriger certaines erreurs de calcul;
#X obj 329 144 - 12;
#X text 255 35 et le pb du passage a zero de mod 12;
#X obj 204 25 + 120.5;
#X connect 0 0 1 0;
#X connect 1 0 5 0;
#X connect 1 1 16 0;
#X connect 1 2 6 0;
#X connect 1 3 17 0;
#X connect 1 4 7 0;
#X connect 1 5 8 0;
#X connect 1 6 18 0;
#X connect 1 7 4 0;
#X connect 1 8 19 0;
#X connect 1 9 2 0;
#X connect 1 10 20 0;
#X connect 1 11 3 0;
#X connect 2 0 23 0;
#X connect 3 0 23 0;
#X connect 4 0 23 0;
#X connect 5 0 23 0;
#X connect 6 0 23 0;
#X connect 7 0 23 0;
#X connect 8 0 23 0;
#X connect 9 0 30 0;
#X connect 10 0 28 0;
#X connect 11 0 0 0;
#X connect 11 1 10 0;
#X connect 14 0 15 0;
#X connect 16 0 23 0;
#X connect 17 0 23 0;
#X connect 18 0 23 0;
#X connect 19 0 23 0;
#X connect 20 0 23 0;
#X connect 22 0 14 0;
#X connect 23 0 22 0;
#X connect 26 0 11 0;
#X connect 28 0 23 1;
#X connect 30 0 26 0;
#X restore 85 60 pd pitchb-11-2010;
#X connect 0 0 21 0;
#X connect 0 0 33 0;
#X connect 1 0 12 0;
#X connect 2 0 3 0;
#X connect 2 0 19 0;
#X connect 3 0 4 0;
#X connect 4 0 5 0;
#X connect 5 0 11 0;
#X connect 6 0 8 0;
#X connect 7 0 6 0;
#X connect 9 0 17 0;
#X connect 10 0 0 0;
#X connect 14 0 2 0;
#X connect 15 0 23 0;
#X connect 17 0 18 0;
#X connect 18 0 1 0;
#X connect 19 0 20 0;
#X connect 20 0 7 0;
#X connect 21 0 22 0;
#X connect 22 0 2 1;
#X connect 22 0 32 0;
#X connect 23 0 3 0;
#X connect 24 0 23 1;
#X connect 32 0 16 0;
#X connect 33 0 11 0;
#X restore 62 63 pd Freq-v8-sig-;
#X obj 301 149 cnv 15 41 30 empty empty empty 20 12 0 14 -24198 -66577
0;
#N canvas 350 196 308 136 ?? 0;
#X obj -9 87 cnv 15 300 38 empty empty empty 20 12 0 14 -224896 -66577
0;
#X obj -9 10 cnv 18 300 70 empty empty ARGOPdMiniModules 1 10 1 14
-4033 -1 1.04858e+06;
#X obj 9 29 cnv 10 10 10 empty empty Gerard 0 5 1 9 -4033 -1 1.04858e+06
;
#X obj 40 29 cnv 10 10 10 empty empty Paresys 0 5 1 9 -4033 -1 1.04858e+06
;
#X text -8 89 Construit sous / Build under Pd 0.42.5-extended;
#X obj 39 105 pddplink http://puredata.info/downloads;
#X obj 3 42 pddplink http://pagesperso-orange.fr/Paresys/ARGOPd/;
#X obj 3 57 pddplink http://gerard.paresys.free.fr/ARGOPd/;
#X restore 305 156 pd ??;
#X connect 0 0 2 0;
#X connect 3 0 14 1;
#X connect 4 0 14 0;
#X connect 7 0 14 2;
#X connect 14 0 8 0;
#X connect 14 1 0 0;
#X connect 14 2 7 0;
#X connect 14 3 3 0;
#X coords 0 -1 1 1 246 36 1 100 100;
#X restore 226 -33 pd ARGO;
#N canvas 397 68 373 368 ARGO 0;
#X obj 101 101 cnv 20 244 34 empty ColorTime Oscill-TriRectangle 79
9 1 14 -208064 -1 1.04858e+06;
#X obj 110 341 outlet~;
#X obj 101 131 cnv 4 10 4 empty empty empty 20 12 0 14 -1 -66577 0
;
#X obj 101 101 cnv 4 10 4 empty empty empty 20 12 0 14 -1728 -66577
0;
#X obj 163 341 outlet~;
#X obj 335 131 cnv 4 10 4 empty empty empty 0 0 0 9 -1 -66577 0;
#X obj 92 154 phasor~;
#X obj 167 187 -~ 0.5;
#X obj 187 246 *~;
#X obj 268 292 +~ 0.125;
#X obj 217 341 outlet~;
#X obj 110 316 *~ 2;
#X obj 164 315 *~ -2;
#X obj 218 316 *~ 2;
#X obj 268 316 *~ 8;
#X obj 268 341 outlet~;
#X obj 256 131 cnv 4 10 4 empty empty empty 0 0 0 9 -1 -66577 0;
#X obj 177 131 cnv 4 10 4 empty empty empty 0 0 0 9 -1 -66577 0;
#X text 84 134 Ramp up;
#X text 155 135 Ramp down;
#X text 233 136 Rectangle;
#X text 313 136 Triangle;
#X obj 100 106 nbx 7 12 0 20000 0 1 \$0-A ColorTime Hz 60 7 1 9 -208064
-1 -1 1.36417 256;
#X obj 87 26 inlet~;
#X obj 103 118 hsl 241 12 0 1 0 0 \$0-A ColorTime empty 0 7 1 9 -262144
-1 -1 7700 0;
#X obj 103 118 hsl 241 12 0 1 0 0 \$0-A ColorTime F-5 0 7 1 9 -208064
-1728 -1 6388 0;
#X obj 70 193 cnv 15 60 30 empty empty empty 20 12 0 14 -24198 -66577
0;
#N canvas 371 90 425 238 Help 0;
#X obj 8 85 cnv 15 400 100 empty empty empty 20 12 0 14 -233017 -66577
0;
#X text 12 87 Citation;
#X text 10 45 Sensibilitée de l'entrée de contrôle de la fréquence:
;
#X text 10 57 1 = 240 1/2 ton = 20 octaves;
#X text 21 103 The phasor~ object outputs a sawtooth signal...;
#X text 11 6 Oscillateur en forme de Rampes Rectangle Triangle;
#X text 11 23 Rampe = Dent de scie = Sawtooth;
#X restore 77 199 pd Help;
#X text 196 62 2 HSLIDER superposés;
#X text 220 51 ATTENTION;
#N canvas 686 258 344 337 Freq-v7-sig- 0;
#X obj 226 11 ftom;
#X obj 279 170 mtof;
#X obj 141 95 +~;
#X obj 9 142 snapshot~;
#X obj 9 164 change;
#X msg 9 189 set \$1;
#X obj 142 198 clip~ 0 20000;
#X obj 142 175 mtof~;
#X obj 142 227 outlet~;
#X obj 280 -12 inlet;
#X obj 225 -13 inlet;
#X obj 38 227 outlet;
#X obj 279 227 outlet;
#X text 35 245 Hslider;
#X obj 141 -8 inlet~;
#X obj 8 -9 loadbang;
#X obj 229 227 outlet;
#X obj 279 109 * 240;
#X obj 279 132 - 108;
#X obj 141 123 *~ 240;
#X obj 141 145 -~ 108;
#X obj 226 34 + 108;
#X obj 226 56 / 240;
#X obj 9 40 metro 200;
#X obj 64 -9 r SendFluid;
#X text 44 256 Over;
#X text 281 245 Number;
#X text 222 -30 Number;
#X text 228 244 Hslider;
#X text 230 255 Under;
#X text 281 -42 Hslider;
#X text 286 -31 Under;
#X msg 229 197 set \$1;
#N canvas 618 373 489 317 pitchb 0;
#X obj 70 111 mod 12;
#X obj 70 135 sel 0 1 2 3 4 5 6 7 8 9 10 11;
#X msg 246 170 A;
#X msg 300 170 B;
#X msg 192 170 G;
#X msg 3 170 C;
#X msg 57 170 D;
#X msg 111 170 E;
#X msg 138 170 F;
#X obj 204 1 inlet;
#X obj 329 115 div 12;
#X obj 204 79 t f f;
#X text 334 190 -> Numero de l'octave;
#X text 213 64 -> Numero MIDI de la note (69 = A3 = 440Hz);
#X msg 260 260 label \$1;
#X obj 260 283 outlet;
#X msg 30 170 Db;
#X msg 84 170 Eb;
#X msg 165 170 Gb;
#X msg 219 170 Ab;
#X msg 273 170 Bb;
#X text 369 78 (70 = A#3 = Bb3);
#X obj 260 238 symbol;
#X obj 260 213 sprintf %s%d;
#X text 11 231 Impossible d'afficher # dans un label;
#X text 11 243 donc j'affiche b;
#X obj 204 51 int;
#X text 255 23 -> pour corriger certaines erreurs de calcul;
#X obj 204 25 + 120.1;
#X obj 329 144 - 12;
#X text 255 35 et le pb du passage a zero de mod 12;
#X connect 0 0 1 0;
#X connect 1 0 5 0;
#X connect 1 1 16 0;
#X connect 1 2 6 0;
#X connect 1 3 17 0;
#X connect 1 4 7 0;
#X connect 1 5 8 0;
#X connect 1 6 18 0;
#X connect 1 7 4 0;
#X connect 1 8 19 0;
#X connect 1 9 2 0;
#X connect 1 10 20 0;
#X connect 1 11 3 0;
#X connect 2 0 23 0;
#X connect 3 0 23 0;
#X connect 4 0 23 0;
#X connect 5 0 23 0;
#X connect 6 0 23 0;
#X connect 7 0 23 0;
#X connect 8 0 23 0;
#X connect 9 0 28 0;
#X connect 10 0 29 0;
#X connect 11 0 0 0;
#X connect 11 1 10 0;
#X connect 14 0 15 0;
#X connect 16 0 23 0;
#X connect 17 0 23 0;
#X connect 18 0 23 0;
#X connect 19 0 23 0;
#X connect 20 0 23 0;
#X connect 22 0 14 0;
#X connect 23 0 22 0;
#X connect 26 0 11 0;
#X connect 28 0 26 0;
#X connect 29 0 23 1;
#X restore 77 96 pd pitchb;
#X connect 0 0 21 0;
#X connect 0 0 33 0;
#X connect 1 0 12 0;
#X connect 2 0 3 0;
#X connect 2 0 19 0;
#X connect 3 0 4 0;
#X connect 4 0 5 0;
#X connect 5 0 11 0;
#X connect 6 0 8 0;
#X connect 7 0 6 0;
#X connect 9 0 17 0;
#X connect 10 0 0 0;
#X connect 14 0 2 0;
#X connect 15 0 23 0;
#X connect 17 0 18 0;
#X connect 18 0 1 0;
#X connect 19 0 20 0;
#X connect 20 0 7 0;
#X connect 21 0 22 0;
#X connect 22 0 2 1;
#X connect 22 0 32 0;
#X connect 23 0 3 0;
#X connect 24 0 23 1;
#X connect 32 0 16 0;
#X connect 33 0 11 0;
#X restore 62 63 pd Freq-v7-sig-;
#X text 280 81 17 5 2011;
#X obj 321 325 cnv 15 41 30 empty empty empty 20 12 0 14 -24198 -66577
0;
#N canvas 430 204 308 136 ?? 0;
#X obj -9 87 cnv 15 300 38 empty empty empty 20 12 0 14 -224896 -66577
0;
#X obj -9 10 cnv 18 300 70 empty empty ARGOPdMiniModules 1 10 1 14
-4033 -1 1.04858e+06;
#X obj 9 29 cnv 10 10 10 empty empty Gerard 0 5 1 9 -4033 -1 1.04858e+06
;
#X obj 40 29 cnv 10 10 10 empty empty Paresys 0 5 1 9 -4033 -1 1.04858e+06
;
#X text -8 89 Construit sous / Build under Pd 0.42.5-extended;
#X obj 39 105 pddplink http://puredata.info/downloads;
#X obj 3 42 pddplink http://pagesperso-orange.fr/Paresys/ARGOPd/;
#X obj 3 57 pddplink http://gerard.paresys.free.fr/ARGOPd/;
#X restore 325 332 pd ??;
#X obj 221 216 expr~ ($v1 < 0) - 0.5;
#X connect 6 0 7 0;
#X connect 7 0 11 0;
#X connect 7 0 12 0;
#X connect 7 0 8 0;
#X connect 7 0 34 0;
#X connect 8 0 9 0;
#X connect 9 0 14 0;
#X connect 11 0 1 0;
#X connect 12 0 4 0;
#X connect 13 0 10 0;
#X connect 14 0 15 0;
#X connect 22 0 30 1;
#X connect 23 0 30 0;
#X connect 24 0 30 2;
#X connect 30 0 25 0;
#X connect 30 1 6 0;
#X connect 30 2 24 0;
#X connect 30 3 22 0;
#X connect 34 0 8 1;
#X connect 34 0 13 0;
#X coords 0 -1 1 1 246 36 1 100 100;
#X restore 226 69 pd ARGO;
#N canvas 397 68 373 368 ARGO 0;
#X obj 101 101 cnv 20 244 34 empty ColorTime Oscill-TriRectangle 79
9 1 14 -208064 -1 1.04858e+06;
#X obj 110 341 outlet~;
#X obj 101 131 cnv 4 10 4 empty empty empty 20 12 0 14 -1 -66577 0
;
#X obj 101 101 cnv 4 10 4 empty empty empty 20 12 0 14 -1728 -66577
0;
#X obj 163 341 outlet~;
#X obj 335 131 cnv 4 10 4 empty empty empty 0 0 0 9 -1 -66577 0;
#X obj 92 154 phasor~;
#X obj 167 187 -~ 0.5;
#X obj 187 246 *~;
#X obj 268 292 +~ 0.125;
#X obj 217 341 outlet~;
#X obj 110 316 *~ 2;
#X obj 164 315 *~ -2;
#X obj 218 316 *~ 2;
#X obj 268 316 *~ 8;
#X obj 268 341 outlet~;
#X obj 256 131 cnv 4 10 4 empty empty empty 0 0 0 9 -1 -66577 0;
#X obj 177 131 cnv 4 10 4 empty empty empty 0 0 0 9 -1 -66577 0;
#X text 84 134 Ramp up;
#X text 155 135 Ramp down;
#X text 233 136 Rectangle;
#X text 313 136 Triangle;
#X obj 100 106 nbx 7 12 0 20000 0 1 \$0-A ColorTime Hz 60 7 1 9 -208064
-1 -1 2349.32 256;
#X obj 87 26 inlet~;
#X obj 103 118 hsl 241 12 0 1 0 0 \$0-A ColorTime empty 0 7 1 9 -262144
-1 -1 20600 0;
#X obj 103 118 hsl 241 12 0 1 0 0 \$0-A ColorTime D6 0 7 1 9 -208064
-1728 -1 20800 0;
#X obj 70 193 cnv 15 60 30 empty empty empty 20 12 0 14 -24198 -66577
0;
#N canvas 371 90 425 238 Help 0;
#X obj 8 85 cnv 15 400 100 empty empty empty 20 12 0 14 -233017 -66577
0;
#X text 12 87 Citation;
#X text 10 45 Sensibilitée de l'entrée de contrôle de la fréquence:
;
#X text 10 57 1 = 240 1/2 ton = 20 octaves;
#X text 21 103 The phasor~ object outputs a sawtooth signal...;
#X text 11 6 Oscillateur en forme de Rampes Rectangle Triangle;
#X text 11 23 Rampe = Dent de scie = Sawtooth;
#X restore 77 199 pd Help;
#X text 196 62 2 HSLIDER superposés;
#X text 220 51 ATTENTION;
#N canvas 686 258 344 337 Freq-v7-sig- 0;
#X obj 226 11 ftom;
#X obj 279 170 mtof;
#X obj 141 95 +~;
#X obj 9 142 snapshot~;
#X obj 9 164 change;
#X msg 9 189 set \$1;
#X obj 142 198 clip~ 0 20000;
#X obj 142 175 mtof~;
#X obj 142 227 outlet~;
#X obj 280 -12 inlet;
#X obj 225 -13 inlet;
#X obj 38 227 outlet;
#X obj 279 227 outlet;
#X text 35 245 Hslider;
#X obj 141 -8 inlet~;
#X obj 8 -9 loadbang;
#X obj 229 227 outlet;
#X obj 279 109 * 240;
#X obj 279 132 - 108;
#X obj 141 123 *~ 240;
#X obj 141 145 -~ 108;
#X obj 226 34 + 108;
#X obj 226 56 / 240;
#X obj 9 40 metro 200;
#X obj 64 -9 r SendFluid;
#X text 44 256 Over;
#X text 281 245 Number;
#X text 222 -30 Number;
#X text 228 244 Hslider;
#X text 230 255 Under;
#X text 281 -42 Hslider;
#X text 286 -31 Under;
#X msg 229 197 set \$1;
#N canvas 618 373 489 317 pitchb 0;
#X obj 70 111 mod 12;
#X obj 70 135 sel 0 1 2 3 4 5 6 7 8 9 10 11;
#X msg 246 170 A;
#X msg 300 170 B;
#X msg 192 170 G;
#X msg 3 170 C;
#X msg 57 170 D;
#X msg 111 170 E;
#X msg 138 170 F;
#X obj 204 1 inlet;
#X obj 329 115 div 12;
#X obj 204 79 t f f;
#X text 334 190 -> Numero de l'octave;
#X text 213 64 -> Numero MIDI de la note (69 = A3 = 440Hz);
#X msg 260 260 label \$1;
#X obj 260 283 outlet;
#X msg 30 170 Db;
#X msg 84 170 Eb;
#X msg 165 170 Gb;
#X msg 219 170 Ab;
#X msg 273 170 Bb;
#X text 369 78 (70 = A#3 = Bb3);
#X obj 260 238 symbol;
#X obj 260 213 sprintf %s%d;
#X text 11 231 Impossible d'afficher # dans un label;
#X text 11 243 donc j'affiche b;
#X obj 204 51 int;
#X text 255 23 -> pour corriger certaines erreurs de calcul;
#X obj 204 25 + 120.1;
#X obj 329 144 - 12;
#X text 255 35 et le pb du passage a zero de mod 12;
#X connect 0 0 1 0;
#X connect 1 0 5 0;
#X connect 1 1 16 0;
#X connect 1 2 6 0;
#X connect 1 3 17 0;
#X connect 1 4 7 0;
#X connect 1 5 8 0;
#X connect 1 6 18 0;
#X connect 1 7 4 0;
#X connect 1 8 19 0;
#X connect 1 9 2 0;
#X connect 1 10 20 0;
#X connect 1 11 3 0;
#X connect 2 0 23 0;
#X connect 3 0 23 0;
#X connect 4 0 23 0;
#X connect 5 0 23 0;
#X connect 6 0 23 0;
#X connect 7 0 23 0;
#X connect 8 0 23 0;
#X connect 9 0 28 0;
#X connect 10 0 29 0;
#X connect 11 0 0 0;
#X connect 11 1 10 0;
#X connect 14 0 15 0;
#X connect 16 0 23 0;
#X connect 17 0 23 0;
#X connect 18 0 23 0;
#X connect 19 0 23 0;
#X connect 20 0 23 0;
#X connect 22 0 14 0;
#X connect 23 0 22 0;
#X connect 26 0 11 0;
#X connect 28 0 26 0;
#X connect 29 0 23 1;
#X restore 77 96 pd pitchb;
#X connect 0 0 21 0;
#X connect 0 0 33 0;
#X connect 1 0 12 0;
#X connect 2 0 3 0;
#X connect 2 0 19 0;
#X connect 3 0 4 0;
#X connect 4 0 5 0;
#X connect 5 0 11 0;
#X connect 6 0 8 0;
#X connect 7 0 6 0;
#X connect 9 0 17 0;
#X connect 10 0 0 0;
#X connect 14 0 2 0;
#X connect 15 0 23 0;
#X connect 17 0 18 0;
#X connect 18 0 1 0;
#X connect 19 0 20 0;
#X connect 20 0 7 0;
#X connect 21 0 22 0;
#X connect 22 0 2 1;
#X connect 22 0 32 0;
#X connect 23 0 3 0;
#X connect 24 0 23 1;
#X connect 32 0 16 0;
#X connect 33 0 11 0;
#X restore 62 63 pd Freq-v7-sig-;
#X text 280 81 17 5 2011;
#X obj 321 325 cnv 15 41 30 empty empty empty 20 12 0 14 -24198 -66577
0;
#N canvas 430 204 308 136 ?? 0;
#X obj -9 87 cnv 15 300 38 empty empty empty 20 12 0 14 -224896 -66577
0;
#X obj -9 10 cnv 18 300 70 empty empty ARGOPdMiniModules 1 10 1 14
-4033 -1 1.04858e+06;
#X obj 9 29 cnv 10 10 10 empty empty Gerard 0 5 1 9 -4033 -1 1.04858e+06
;
#X obj 40 29 cnv 10 10 10 empty empty Paresys 0 5 1 9 -4033 -1 1.04858e+06
;
#X text -8 89 Construit sous / Build under Pd 0.42.5-extended;
#X obj 39 105 pddplink http://puredata.info/downloads;
#X obj 3 42 pddplink http://pagesperso-orange.fr/Paresys/ARGOPd/;
#X obj 3 57 pddplink http://gerard.paresys.free.fr/ARGOPd/;
#X restore 325 332 pd ??;
#X obj 221 216 expr~ ($v1 < 0) - 0.5;
#X connect 6 0 7 0;
#X connect 7 0 11 0;
#X connect 7 0 12 0;
#X connect 7 0 8 0;
#X connect 7 0 34 0;
#X connect 8 0 9 0;
#X connect 9 0 14 0;
#X connect 11 0 1 0;
#X connect 12 0 4 0;
#X connect 13 0 10 0;
#X connect 14 0 15 0;
#X connect 22 0 30 1;
#X connect 23 0 30 0;
#X connect 24 0 30 2;
#X connect 30 0 25 0;
#X connect 30 1 6 0;
#X connect 30 2 24 0;
#X connect 30 3 22 0;
#X connect 34 0 8 1;
#X connect 34 0 13 0;
#X coords 0 -1 1 1 246 36 1 100 100;
#X restore 15 210 pd ARGO;
#X text 10 288 Quanta quantifie la sortie de SampleHold;
#X text 10 303 Quanta quantize the output of SampleHold;
#X obj 6 -50 cnv 15 15 15 empty empty ExMM11g-SampleHold.pd 0 8 1 14
-262144 -66577 0;
#X connect 0 0 1 0;
#X connect 1 0 2 0;
#X connect 2 0 3 0;
#X connect 3 0 40 0;
#X connect 4 0 7 0;
#X connect 4 1 7 1;
#X connect 5 0 6 1;
#X connect 6 0 33 0;
#X connect 9 0 8 0;
#X connect 33 0 4 0;
#X connect 33 0 4 1;
#X connect 34 0 39 0;
#X connect 35 0 1 1;
#X connect 38 0 34 0;
#X connect 38 0 35 0;
#X connect 39 0 2 1;
#X connect 39 1 5 0;
#X connect 40 3 6 0;
