#N canvas 340 22 455 454 10;
#N canvas 404 201 221 198 ARGO 0;
#X obj 115 105 cnv 10 20 10 empty empty PinkNoise 1 5 1 14 -262144
-1 1.04858e+06;
#X obj 101 113 cnv 4 10 4 empty empty empty 20 12 0 14 -1 -66577 0
;
#X obj 90 155 outlet~;
#X obj 90 124 pink~;
#X text 16 55 pink noise with -3 dB per octave;
#X text 7 41 pink~ (iemlib);
#X connect 3 0 2 0;
#X coords 0 -1 1 1 95 18 2 100 100;
#X restore 91 -93 pd ARGO;
#X obj -25 -112 cnv 15 15 15 empty empty ExMM9d-Envelope.pd 0 8 1 14
-262144 -66577 0;
#X obj 216 80 *~ -1;
#N canvas 320 44 505 483 ARGO 0;
#X obj 101 101 cnv 20 130 34 empty ColorForm Flt-HP2 82 12 1 14 -188398
-1 1.04858e+06;
#X obj 101 131 cnv 4 10 4 empty empty empty 20 12 0 14 -1 -66577 0
;
#X obj 221 101 cnv 4 10 4 empty empty empty 20 12 0 14 -1728 -66577
0;
#X obj 221 131 cnv 4 10 4 empty empty empty 0 0 0 9 -1 -66577 0;
#X obj 81 50 inlet~;
#X obj 184 459 outlet~;
#X obj 241 459 outlet~;
#X obj 209 50 inlet~;
#X obj 101 101 cnv 4 10 4 empty empty empty 20 12 0 14 -1 -66577 0
;
#X obj 81 459 outlet~;
#X obj 132 459 outlet~;
#X obj 177 131 cnv 4 10 4 empty empty empty 0 0 0 9 -1 -66577 0;
#X obj 137 131 cnv 4 10 4 empty empty empty 0 0 0 9 -1 -66577 0;
#X text 85 136 1 Filter;
#X text 207 72 Cutoff;
#X text 197 81 frequency;
#X text 116 147 2 Filters;
#X text 158 136 3 Filters;
#X text 200 147 4 Filters;
#X obj 100 106 nbx 7 12 0 20000 0 1 \$0-A ColorTime Hz 60 7 1 9 -208064
-1 -1 7902.13 256;
#X obj 103 118 hsl 127 12 0 1 0 0 \$0-A ColorTime empty 0 7 1 9 -262144
-1 -1 11300 0;
#X obj 103 118 hsl 127 12 0 1 0 0 \$0-A ColorTime B7 0 7 1 9 -208064
-1728 -1 11300 0;
#X obj 295 51 cnv 15 60 30 empty empty empty 20 12 0 14 -24198 -66577
0;
#N canvas 368 67 416 243 Help 0;
#X obj 10 32 cnv 15 400 100 empty empty empty 20 12 0 14 -233017 -66577
0;
#X text 13 31 Citation;
#X text 26 6 Flt-HP = HighPass Filter = Filtre passe-haut;
#X text 26 52 from signal-rate [lop~] by Mathieu Bouchard 2010;
#X text 19 138 Utilise rpole~ au lieu de hip~. La fréquence du filtre
est ainsi controlée à la fréquence d'échantillonage et non pas seulement
100 fois par seconde comme dans la version précédente du MM Flt-HP.
;
#X text 18 201 ATTENTION: Au dela de 7040Hz = A7 le filtre coupe toutes
les fréquences (il filtre tout);
#X obj 25 100 pddplink http://www.mail-archive.com/pd-list@iem.at/msg38011.html
;
#X text 57 81 [PD] Introduction to elementary filter components in
Pd;
#X text 27 70 voir Pd-list@iem.at mailing list Subject:;
#X restore 302 57 pd Help;
#X text -31 117 2 HSLIDER superposés;
#X text -7 106 ATTENTION;
#X obj 421 437 cnv 15 41 30 empty empty empty 20 12 0 14 -24198 -66577
0;
#N canvas 350 196 308 136 ?? 0;
#X obj -9 87 cnv 15 300 38 empty empty empty 20 12 0 14 -224896 -66577
0;
#X obj -9 10 cnv 18 300 70 empty empty ARGOPdMiniModules 1 10 1 14
-4033 -1 1.04858e+06;
#X obj 9 29 cnv 10 10 10 empty empty Gerard 0 5 1 9 -4033 -1 1.04858e+06
;
#X obj 40 29 cnv 10 10 10 empty empty Paresys 0 5 1 9 -4033 -1 1.04858e+06
;
#X text -8 89 Construit sous / Build under Pd 0.42.5-extended;
#X obj 39 105 pddplink http://puredata.info/downloads;
#X obj 3 42 pddplink http://pagesperso-orange.fr/Paresys/ARGOPd/;
#X obj 3 57 pddplink http://gerard.paresys.free.fr/ARGOPd/;
#X restore 425 444 pd ??;
#X text 122 81 28 12 2010;
#X text 47 24 Signal-rate controlled high pass filter;
#X obj 401 84 samplerate~;
#X obj 401 54 loadbang;
#X obj 96 168 *~;
#X obj 96 191 rpole~;
#X obj 289 189 expr~ 1-$v1;
#X obj 81 214 -~;
#X obj 272 130 expr~ $v1*6.283186/$v2;
#X obj 147 240 *~;
#X obj 147 263 rpole~;
#X obj 132 286 -~;
#X obj 199 310 *~;
#X obj 199 333 rpole~;
#X obj 184 356 -~;
#X obj 256 386 *~;
#X obj 256 409 rpole~;
#X obj 241 432 -~;
#X obj 272 156 clip~ 0 1;
#N canvas 297 225 339 362 Freq-v8-sig-petit 0;
#X obj 226 11 ftom;
#X obj 280 170 mtof;
#X obj 142 95 +~;
#X obj 9 142 snapshot~;
#X obj 9 164 change;
#X msg 9 189 set \$1;
#X obj 280 -12 inlet;
#X obj 225 -13 inlet;
#X obj 34 226 outlet;
#X obj 280 228 outlet;
#X text 31 244 Hslider;
#X obj 142 -8 inlet~;
#X obj 8 -9 loadbang;
#X obj 226 227 outlet;
#X obj 9 40 metro 200;
#X obj 64 -9 r SendFluid;
#X text 40 255 Over;
#X text 282 246 Number;
#X text 222 -30 Number;
#X text 225 244 Hslider;
#X text 227 255 Under;
#X text 281 -42 Hslider;
#X text 286 -31 Under;
#X msg 226 197 set \$1;
#N canvas 220 243 583 317 pitchb-11-2010 0;
#X obj 70 111 mod 12;
#X obj 70 135 sel 0 1 2 3 4 5 6 7 8 9 10 11;
#X msg 246 170 A;
#X msg 300 170 B;
#X msg 192 170 G;
#X msg 3 170 C;
#X msg 57 170 D;
#X msg 111 170 E;
#X msg 138 170 F;
#X obj 204 1 inlet;
#X obj 329 115 div 12;
#X obj 204 79 t f f;
#X text 334 190 -> Numero de l'octave;
#X text 213 64 -> Numero MIDI de la note (69 = A3 = 440Hz);
#X msg 260 260 label \$1;
#X obj 260 283 outlet;
#X msg 30 170 Db;
#X msg 84 170 Eb;
#X msg 165 170 Gb;
#X msg 219 170 Ab;
#X msg 273 170 Bb;
#X text 369 78 (70 = A#3 = Bb3);
#X obj 260 238 symbol;
#X obj 260 213 sprintf %s%d;
#X text 11 231 Impossible d'afficher # dans un label;
#X text 11 243 donc j'affiche b;
#X obj 204 51 int;
#X text 255 23 -> pour corriger certaines erreurs de calcul;
#X obj 329 144 - 12;
#X text 255 35 et le pb du passage a zero de mod 12;
#X obj 204 25 + 120.5;
#X connect 0 0 1 0;
#X connect 1 0 5 0;
#X connect 1 1 16 0;
#X connect 1 2 6 0;
#X connect 1 3 17 0;
#X connect 1 4 7 0;
#X connect 1 5 8 0;
#X connect 1 6 18 0;
#X connect 1 7 4 0;
#X connect 1 8 19 0;
#X connect 1 9 2 0;
#X connect 1 10 20 0;
#X connect 1 11 3 0;
#X connect 2 0 23 0;
#X connect 3 0 23 0;
#X connect 4 0 23 0;
#X connect 5 0 23 0;
#X connect 6 0 23 0;
#X connect 7 0 23 0;
#X connect 8 0 23 0;
#X connect 9 0 30 0;
#X connect 10 0 28 0;
#X connect 11 0 0 0;
#X connect 11 1 10 0;
#X connect 14 0 15 0;
#X connect 16 0 23 0;
#X connect 17 0 23 0;
#X connect 18 0 23 0;
#X connect 19 0 23 0;
#X connect 20 0 23 0;
#X connect 22 0 14 0;
#X connect 23 0 22 0;
#X connect 26 0 11 0;
#X connect 28 0 23 1;
#X connect 30 0 26 0;
#X restore 30 95 pd pitchb-11-2010;
#X obj 142 21 *~ 1.90476;
#X obj 280 109 * 126;
#X obj 280 132 + 6;
#X obj 226 34 - 6;
#X obj 226 56 / 126;
#X obj 132 196 clip~ 0 20000;
#X obj 132 174 mtof~;
#X obj 132 149 +~ 6;
#X obj 132 127 *~ 126;
#X obj 133 223 outlet~;
#X connect 0 0 24 0;
#X connect 0 0 28 0;
#X connect 1 0 9 0;
#X connect 2 0 3 0;
#X connect 2 0 33 0;
#X connect 3 0 4 0;
#X connect 4 0 5 0;
#X connect 5 0 8 0;
#X connect 6 0 26 0;
#X connect 7 0 0 0;
#X connect 11 0 25 0;
#X connect 12 0 14 0;
#X connect 14 0 3 0;
#X connect 15 0 14 1;
#X connect 23 0 13 0;
#X connect 24 0 8 0;
#X connect 25 0 2 0;
#X connect 26 0 27 0;
#X connect 27 0 1 0;
#X connect 28 0 29 0;
#X connect 29 0 2 1;
#X connect 29 0 23 0;
#X connect 30 0 34 0;
#X connect 31 0 30 0;
#X connect 32 0 31 0;
#X connect 33 0 32 0;
#X restore 244 102 pd Freq-v8-sig-petit;
#X connect 4 0 32 0;
#X connect 4 0 35 0;
#X connect 7 0 47 0;
#X connect 19 0 47 1;
#X connect 20 0 47 2;
#X connect 30 0 36 1;
#X connect 31 0 30 0;
#X connect 32 0 33 0;
#X connect 33 0 35 1;
#X connect 34 0 33 1;
#X connect 34 0 38 1;
#X connect 34 0 41 1;
#X connect 34 0 44 1;
#X connect 35 0 9 0;
#X connect 35 0 37 0;
#X connect 35 0 39 0;
#X connect 36 0 46 0;
#X connect 37 0 38 0;
#X connect 38 0 39 1;
#X connect 39 0 10 0;
#X connect 39 0 40 0;
#X connect 39 0 42 0;
#X connect 40 0 41 0;
#X connect 41 0 42 1;
#X connect 42 0 5 0;
#X connect 42 0 45 0;
#X connect 42 0 43 0;
#X connect 43 0 44 0;
#X connect 44 0 45 1;
#X connect 45 0 6 0;
#X connect 46 0 34 0;
#X connect 46 0 32 1;
#X connect 46 0 37 1;
#X connect 46 0 40 1;
#X connect 46 0 43 1;
#X connect 47 0 21 0;
#X connect 47 1 36 0;
#X connect 47 2 20 0;
#X connect 47 3 19 0;
#X coords 0 -1 1 1 132 36 1 100 100;
#X restore 91 102 pd ARGO;
#X obj 155 312 dac~ 1 2;
#X obj 343 287 cnv 15 48 25 empty empty empty 20 12 0 14 -24198 -66577
0;
#N canvas 350 196 308 136 ??? 0;
#X obj -6 87 cnv 15 300 38 empty empty empty 20 12 0 14 -224896 -66577
0;
#X obj -6 10 cnv 18 300 70 empty empty ARGOPdMiniModules 3 10 1 14
-4033 -1 1.04858e+06;
#X obj 13 31 cnv 10 10 10 empty empty Gerard 0 5 1 11 -4033 -1 1.04858e+06
;
#X obj 55 30 cnv 10 10 10 empty empty Paresys 0 5 1 11 -4033 -1 1.04858e+06
;
#X text -1 89 Construit sous / Build under Pd 0.42.5-extended;
#X obj 6 43 pddp/pddplink http://pagesperso-orange.fr/Paresys/ARGOPd/
;
#X obj 6 58 pddp/pddplink http://gerard.paresys.free.fr/ARGOPd/;
#X obj 46 105 pddp/pddplink http://puredata.info/downloads;
#X restore 347 291 pd ???;
#N canvas 324 59 331 313 ARGO 0;
#X obj 101 101 cnv 20 104 34 empty ColorAmpli empty 20 12 0 14 -261299
-1 1.04858e+06;
#X obj 85 285 outlet~;
#X obj 134 104 cnv 10 20 10 empty ColorAmpli Ampli 1 5 1 14 -261299
-1 1.04858e+06;
#X obj 85 72 inlet~;
#X obj 85 260 *~;
#X obj 103 118 hsl 101 12 -80 20 0 1 \$0-A ColorAmpli 0dB 0 7 1 9 -261299
-1 -1 8000 0;
#X msg -24 161 label \$1;
#X obj -25 138 tosymbol;
#X obj -25 103 sprintf %ddB;
#X obj 101 101 cnv 4 10 4 empty empty empty 20 12 0 14 -1 -66577 0
;
#X obj 101 131 cnv 4 10 4 empty empty empty 20 12 0 14 -1 -66577 0
;
#X text -16 120 -> -80dB..20dB;
#X text 106 182 -> 0.0001..10 = -80dB..20dB;
#X text 209 97 5 5 2011;
#X obj 100 163 expr (pow(10 \, $f1 / 20));
#X text 107 140 -> -80..20;
#X obj 227 270 cnv 15 41 30 empty empty empty 20 12 0 14 -24198 -66577
0;
#N canvas 350 196 308 136 ?? 0;
#X obj -9 87 cnv 15 300 38 empty empty empty 20 12 0 14 -224896 -66577
0;
#X obj -9 10 cnv 18 300 70 empty empty ARGOPdMiniModules 1 10 1 14
-4033 -1 1.04858e+06;
#X obj 9 29 cnv 10 10 10 empty empty Gerard 0 5 1 9 -4033 -1 1.04858e+06
;
#X obj 40 29 cnv 10 10 10 empty empty Paresys 0 5 1 9 -4033 -1 1.04858e+06
;
#X text -8 89 Construit sous / Build under Pd 0.42.5-extended;
#X obj 39 105 pddplink http://puredata.info/downloads;
#X obj 3 42 pddplink http://pagesperso-orange.fr/Paresys/ARGOPd/;
#X obj 3 57 pddplink http://gerard.paresys.free.fr/ARGOPd/;
#X restore 231 277 pd ??;
#X obj 100 206 sel 0.0001;
#X msg 100 234 0;
#X connect 3 0 4 0;
#X connect 4 0 1 0;
#X connect 5 0 8 0;
#X connect 5 0 14 0;
#X connect 6 0 5 0;
#X connect 7 0 6 0;
#X connect 8 0 7 0;
#X connect 14 0 18 0;
#X connect 18 0 19 0;
#X connect 18 1 4 1;
#X connect 19 0 4 1;
#X connect 19 0 7 0;
#X coords 0 -1 1 1 106 36 1 100 100;
#X restore 174 152 pd ARGO;
#N canvas 432 42 314 359 ARGO 0;
#X obj 101 101 cnv 30 37 130 empty ColorAmpli empty 20 12 0 14 -1 -258113
0;
#X obj 101 101 cnv 4 10 4 empty empty empty 20 12 0 14 -1 -66577 0
;
#X obj 102 108 vu 8 120 \$0-B empty 0 0 1 11 -1 -4034 1 0;
#X obj 42 -112 inlet~;
#X obj 35 -87 *~;
#X obj 35 3 snapshot~;
#X obj 35 26 sqrt;
#X obj 35 -24 lop~ 10;
#X obj 35 50 rmstodb;
#X obj 98 -111 loadbang;
#X obj 35 73 - 100;
#X obj 171 26 sqrt;
#X obj 172 50 rmstodb;
#X obj 172 73 - 100;
#X obj 97 -23 metro 200;
#X obj 236 -97 cnv 15 60 30 empty empty empty 20 12 0 14 -24198 -66577
0;
#N canvas 300 65 442 264 Help 0;
#X obj 12 48 cnv 15 400 150 empty empty empty 20 12 0 14 -233017 -66577
0;
#X text 16 50 Citation;
#X text 28 67 peakamp~ tracks and outputs the absolute value of the
peak amplitude of the incoming signal. It outputs when banged or using
its own internal clock. The peak value is reset each time peakamp~
outputs a value.;
#X text 17 214 par rapport à la version précédente du MM-Vumetre env~
est remplacé par square~ + lop~ + snapshot~ + sqrt + rmstodb car env~
consomme beaucoup CPU.;
#X text 29 123 cyclone library;
#X text 28 135 http://suita.chopin.edu.pl/~czaja/miXed/externs/cyclone.html
;
#X text 29 155 Voir doc Max/MSP MSP46ReferenceManual.pdf;
#X text 18 14 MM-Vumetre;
#X restore 243 -91 pd Help;
#X obj 261 199 cnv 15 41 30 empty empty empty 20 12 0 14 -24198 -66577
0;
#N canvas 350 196 308 136 ?? 0;
#X obj -9 87 cnv 15 300 38 empty empty empty 20 12 0 14 -224896 -66577
0;
#X obj -9 10 cnv 18 300 70 empty empty ARGOPdMiniModules 1 10 1 14
-4033 -1 1.04858e+06;
#X obj 9 29 cnv 10 10 10 empty empty Gerard 0 5 1 9 -4033 -1 1.04858e+06
;
#X obj 40 29 cnv 10 10 10 empty empty Paresys 0 5 1 9 -4033 -1 1.04858e+06
;
#X text -8 89 Construit sous / Build under Pd 0.42.5-extended;
#X obj 39 105 pddplink http://puredata.info/downloads;
#X obj 3 42 pddplink http://pagesperso-orange.fr/Paresys/ARGOPd/;
#X obj 3 57 pddplink http://gerard.paresys.free.fr/ARGOPd/;
#X restore 265 206 pd ??;
#X obj 158 -111 r SendFluid;
#X obj 171 -50 cyclone/peakamp~ 1000;
#X text 145 106 13 2 2011;
#X connect 3 0 4 0;
#X connect 3 0 4 1;
#X connect 4 0 7 0;
#X connect 4 0 20 0;
#X connect 5 0 6 0;
#X connect 6 0 8 0;
#X connect 7 0 5 0;
#X connect 8 0 10 0;
#X connect 9 0 14 0;
#X connect 10 0 2 0;
#X connect 11 0 12 0;
#X connect 12 0 13 0;
#X connect 13 0 2 1;
#X connect 14 0 5 0;
#X connect 19 0 14 1;
#X connect 20 0 11 0;
#X coords 0 -1 1 1 39 132 2 100 100;
#X restore 213 197 pd ARGO;
#X text 67 162 Niveau general ->;
#X text 73 173 General level ->;
#X obj 0 37 switch~;
#N canvas 608 166 228 173 ARGOnOff 0;
#X obj 100 100 tgl 18 1 \$0-SendOnOff \$0-ReceiveOnOff On/Off 20 11
1 14 -4033 -1 -1 1 1;
#X obj 99 10 loadbang;
#X msg 99 33 \; pd dsp 1;
#X obj 100 129 outlet;
#X text -50 99 Audio On/Off du patch ->;
#X text -22 45 Audio General On ->;
#X text 107 82 17 3 2010;
#X connect 0 0 3 0;
#X connect 1 0 2 0;
#X coords 0 -1 1 1 65 18 2 100 100;
#X restore 0 19 pd ARGOnOff;
#X text 5 3 V;
#X text 5 -4 |;
#X text -7 -15 On/Off Patch;
#X text 23 -3 (Audio);
#X obj 110 -64 cnv 15 105 25 empty empty empty 20 12 0 14 -24198 -66577
0;
#X text 113 -55 Déclenchement ->;
#X text 149 -65 Trigger ->;
#N canvas 245 75 521 352 ARGO 0;
#X obj 100 27 inlet~;
#X obj 235 104 cnv 10 44 10 empty empty Envelope 1 5 1 14 -262144 -1
1.04858e+06;
#X obj 171 105 nbx 4 12 10 10000 0 1 \$0-A ColorTime ms 40 7 1 9 -208064
-1 -1 6000 256;
#X obj 78 296 outlet~;
#X obj 78 269 line~;
#X text 304 166 (ggee library);
#X text 123 230 arguments;
#X text 153 239 xsize ysize xmax ymax send_symbol receive_symbol ...
;
#X msg -1 77 duration \$1;
#X text 305 180 Guenter Geiger;
#X obj 286 119 vsl 10 101 0 1 0 0 \$0-A \$0-B empty 0 -9 0 10 -261299
-1 -1 0 1;
#X obj 100 100 bng 12 250 50 0 \$0-A \$0-B empty 17 7 0 10 -262144
-1 -1;
#X text 152 251 Menu Put -> 0bject -> Taper envgen 180 100 1 0;
#X obj 321 96 unpack 1 2;
#X obj 100 60 threshold~ 0.5 5 0.49 5;
#X msg 20 124 dump;
#X obj 181 -22 list prepend set;
#X obj 181 -1 list trim;
#X msg 153 27 0 3061.6 0.54 2938.4 0;
#X obj 118 -22 loadbang;
#X msg 320 139 set \$1;
#X obj 101 223 cnv 4 10 4 empty empty empty 20 12 0 14 -1 -66577 0
;
#X obj 102 119 envgen 180 100 1 0  ;
#X obj 101 100 cnv 2 10 4 empty empty empty 20 12 0 14 -1 -66577 0
;
#X obj 102 101 cnv 2 8 2 empty empty empty 20 12 0 14 -262144 -66577
0;
#X text 75 82 Trig Decl;
#X text 243 78 15 4 2009;
#X obj 27 6 cnv 15 41 30 empty empty empty 20 12 0 14 -24198 -66577
0;
#N canvas 350 196 381 103 ? 0;
#X obj 5 49 cnv 15 370 38 empty empty empty 20 12 0 14 -224896 -66577
0;
#X text 6 65 Voir/Look at: http://puredata.info/downloads;
#X obj 4 12 cnv 18 370 30 empty empty ARGOPdMiniModules 1 10 1 14 -4033
-1 1.04858e+06;
#X obj 7 31 cnv 10 10 10 empty empty Gerard 0 5 1 9 -4033 -1 1.04858e+06
;
#X obj 38 31 cnv 10 10 10 empty empty Paresys 0 5 1 9 -4033 -1 1.04858e+06
;
#X obj 175 20 cnv 10 10 10 empty empty http://pagesperso-orange.fr/Paresys/ARGOPd/
0 5 1 9 -4033 -1 1.04858e+06;
#X text 6 51 Construit sous / Build under Pd 0.40.3-extended;
#X obj 175 31 cnv 10 10 10 empty empty http://gerard.paresys.free.fr/ARGOPd/
0 5 1 9 -4033 -1 1.04858e+06;
#X restore 33 13 pd ?;
#X connect 0 0 14 0;
#X connect 2 0 8 0;
#X connect 4 0 3 0;
#X connect 8 0 22 0;
#X connect 10 0 4 0;
#X connect 11 0 15 0;
#X connect 11 0 22 0;
#X connect 13 0 20 0;
#X connect 14 0 11 0;
#X connect 15 0 22 0;
#X connect 16 0 17 0;
#X connect 17 0 18 0;
#X connect 18 0 22 0;
#X connect 19 0 18 0;
#X connect 20 0 10 0;
#X connect 22 0 4 0;
#X connect 22 0 13 0;
#X connect 22 1 16 0;
#X coords 0 -1 1 1 196 128 2 100 100;
#X restore 216 -56 pd ARGO;
#X connect 0 0 3 0;
#X connect 2 0 3 1;
#X connect 3 2 7 0;
#X connect 7 0 8 0;
#X connect 7 0 4 0;
#X connect 7 0 4 1;
#X connect 12 0 11 0;
#X connect 20 0 2 0;
