#N canvas 0 72 1366 696 10;
#X obj 298 404 vline~;
#X obj 79 211 /;
#X obj 52 188 > 0;
#X msg 247 223 \$1 \$2;
#X obj 247 202 pack;
#X obj 247 178 t b f;
#X obj 247 245 *;
#X obj 247 268 t b f;
#X msg 247 338 0 \, 0 1221.68 \, 0 2015.34 1221.68;
#X obj 145 176 t b f;
#X obj 196 180 t b f;
#X msg 79 188 \$1 127;
#X obj 52 165 t f f;
#X obj 52 234 sel 1 0;
#X msg 298 382 0 3324.6;
#X obj 52 133 inlet velocity;
#X obj 247 133 inlet s;
#X obj 247 156 \$3;
#X obj 145 133 inlet a;
#X obj 145 155 \$1;
#X obj 196 133 inlet d;
#X obj 196 155 \$2;
#X obj 298 133 inlet r;
#X obj 298 157 \$4;
#X obj 298 429 outlet~;
#X obj 145 72 loadbang;
#X msg 298 360 set 0 \$1;
#X obj 247 292 pack f f f f;
#X msg 247 315 set 0 \, addcomma \, add2 \$1 \$2 \, addcomma \, add2
\$3 \$4 \$2;
#X connect 0 0 24 0;
#X connect 1 0 4 0;
#X connect 1 0 27 0;
#X connect 2 0 13 0;
#X connect 3 0 6 0;
#X connect 4 0 3 0;
#X connect 5 0 4 0;
#X connect 5 1 4 1;
#X connect 6 0 7 0;
#X connect 7 0 27 0;
#X connect 7 1 27 2;
#X connect 8 0 0 0;
#X connect 9 0 27 0;
#X connect 9 1 27 1;
#X connect 10 0 27 0;
#X connect 10 1 27 3;
#X connect 11 0 1 0;
#X connect 12 0 2 0;
#X connect 12 1 11 0;
#X connect 13 0 8 0;
#X connect 13 1 14 0;
#X connect 14 0 0 0;
#X connect 15 0 12 0;
#X connect 16 0 17 0;
#X connect 17 0 5 0;
#X connect 18 0 19 0;
#X connect 19 0 9 0;
#X connect 20 0 21 0;
#X connect 21 0 10 0;
#X connect 22 0 23 0;
#X connect 23 0 26 0;
#X connect 25 0 19 0;
#X connect 25 0 21 0;
#X connect 25 0 17 0;
#X connect 25 0 23 0;
#X connect 26 0 14 0;
#X connect 27 0 28 0;
#X connect 28 0 8 0;
