#N canvas 47 97 1239 669 12;
#X obj -277 -243 r~ \$1-pre-fxall-l;
#X obj -233 -213 r~ \$1-pre-fxall-r;
#X obj -275 325 throw~ \$1-post-fxall-l;
#X obj -235 301 throw~ \$1-post-fxall-r;
#X obj -195 278 switch~;
#X obj -27 -129 r \$0-y-to-fx;
#X msg -51 -213 0 \$1;
#X obj -51 -238 lin-eq-conv 0 127 0 1;
#X obj -51 -264 r \$0-x-to-fx;
#X obj -276 250 fx_switch \$0;
#X obj -277 -21 diy2/st-vcf;
#X obj -27 -103 lin-eq-conv 0 127 1 0.5;
#X msg -27 -78 0 \$1;
#X msg 18 -52 1 \$1;
#X obj 2 2 fx_panel \$0 \$1 \$2 \$3 \$4;
#X obj -277 -148 diy2/st-lowpass;
#X msg -1 -188 2 \$1;
#X obj -307 -245 bng 15 250 50 0 empty empty empty 17 7 0 10 -262144
-1 -1;
#X obj 18 -78 lin-eq-conv 0 127 0 0.6;
#X obj -104 205 *~;
#X obj -238 56 loadbang;
#X msg -206 96 LIMIT;
#X obj -238 76 t b b;
#X obj -277 205 *~;
#X obj -238 146 zexy/limiter~ 0 0;
#X msg -238 116 set 100 1 1;
#X obj 0 -209 lin-eq-conv 0 127 0.8 0.5;
#X connect 0 0 15 0;
#X connect 1 0 15 1;
#X connect 5 0 11 0;
#X connect 5 0 18 0;
#X connect 6 0 15 2;
#X connect 7 0 6 0;
#X connect 8 0 7 0;
#X connect 8 0 26 0;
#X connect 9 0 2 0;
#X connect 9 1 3 0;
#X connect 9 2 4 0;
#X connect 10 0 23 0;
#X connect 10 0 24 0;
#X connect 10 1 19 0;
#X connect 10 1 24 1;
#X connect 11 0 12 0;
#X connect 12 0 10 2;
#X connect 13 0 10 2;
#X connect 15 0 10 0;
#X connect 15 1 10 1;
#X connect 16 0 15 2;
#X connect 18 0 13 0;
#X connect 19 0 9 1;
#X connect 20 0 22 0;
#X connect 21 0 24 0;
#X connect 22 0 25 0;
#X connect 22 1 21 0;
#X connect 23 0 9 0;
#X connect 24 0 19 1;
#X connect 24 0 23 1;
#X connect 25 0 24 0;
#X connect 26 0 16 0;
#X coords 0 -1 1 1 240 70 1 0 0;
