#N canvas 1 97 669 669 12;
#X obj -287 -193 r~ \$1-pre-fxall-l;
#X obj -192 -167 r~ \$1-pre-fxall-r;
#X obj -287 435 throw~ \$1-post-fxall-l;
#X obj -246 411 throw~ \$1-post-fxall-r;
#X obj -205 358 switch~;
#X obj -159 -100 r \$0-x-to-fx;
#X obj 2 2 fx_panel \$0 \$1 \$2 \$3 \$4;
#X obj -286 330 fx_switch \$0;
#X obj -31 119 r \$0-y-to-fx;
#X obj -287 239 diy2/st-vcf;
#X obj -31 145 lin-eq-conv 0 127 1 0.5;
#X msg -31 170 0 \$1;
#X obj -363 -191 bng 15 250 50 0 empty empty empty 17 7 0 10 -262144
-1 -1;
#X msg 11 199 1 \$1;
#X obj -287 -43 st-bp.meh;
#X obj -159 -73 lin-eq-conv 0 127 0 1;
#X obj 11 173 lin-eq-conv 0 127 0 0.6;
#X connect 0 0 14 0;
#X connect 1 0 14 1;
#X connect 5 0 15 0;
#X connect 7 0 2 0;
#X connect 7 1 3 0;
#X connect 7 2 4 0;
#X connect 8 0 10 0;
#X connect 8 0 16 0;
#X connect 9 0 7 0;
#X connect 9 1 7 1;
#X connect 10 0 11 0;
#X connect 11 0 9 2;
#X connect 13 0 9 2;
#X connect 14 0 9 0;
#X connect 14 1 9 1;
#X connect 15 0 14 2;
#X connect 16 0 13 0;
#X coords 0 -1 1 1 240 70 1 0 0;
