#N canvas 261 85 961 681 12;
#X obj -417 -382 r~ \$1-pre-fxall-l;
#X obj -359 -352 r~ \$1-pre-fxall-r;
#X obj -417 606 throw~ \$1-post-fxall-l;
#X obj -335 559 switch~;
#X obj -416 530 fx_switch \$0;
#X obj -416 -316 fx_release-pre \$0;
#X obj -376 582 throw~ \$1-post-fxall-r;
#X obj -415 485 fx_release-post \$0 \$1;
#X obj 2 2 fx_panel8 \$0 \$1 \$2 \$3 \$4;
#X obj -456 -378 bng 15 250 50 0 empty empty empty 17 7 0 10 -262144
-1 -1;
#X obj -158 -428 r \$0-y-to-fx;
#X obj -120 -373 r \$0-x-to-fx;
#X obj -81 -348 r \$0-main-bpm-ms;
#X obj -158 -402 lin-eq-conv 0 127 0 1;
#X obj -24 -318 loadbang;
#X msg -24 -293 0.666;
#X obj -234 212 diy2/st-pureverb;
#X obj -303 110 loadbang;
#X msg -82 165 3 \$1;
#X msg -342 149 0 0.9;
#X text 12 -238 st-del-fb-st.meh \; ---------------------- \; \$1-
ms line para pasar de una a otro (default: 20ms) \; \$2- paneo (0:
total \, 1: mono) \; \$3- desfasaje del canal derecho (0: paneo \,
OTRO: desfasa \, pero no-panea) \; \; inlet-1 inlet-2: signals \; inlet-3:
gain y volumen \; inlet-4: 0-15 - delay-time (predefinidos) \; inlet-5:
main-bpm-ms \; inlet-6: feedback \;;
#X obj -235 -273 st-del-fb-st.meh 20;
#X obj -415 350 diy2/st-pureverb;
#X msg -284 146 1 0.2;
#X msg -226 145 2 0;
#X msg -320 322 2 1;
#X obj -62 439 *~ 4;
#X obj -235 438 *~ 4;
#X msg -284 321 1 0.333;
#X connect 0 0 5 0;
#X connect 1 0 5 1;
#X connect 4 0 2 0;
#X connect 4 1 6 0;
#X connect 4 2 3 0;
#X connect 5 0 21 0;
#X connect 5 0 22 0;
#X connect 5 1 21 1;
#X connect 5 1 22 1;
#X connect 7 0 4 0;
#X connect 7 1 4 1;
#X connect 10 0 13 0;
#X connect 11 0 21 3;
#X connect 12 0 21 4;
#X connect 13 0 21 2;
#X connect 13 0 18 0;
#X connect 14 0 15 0;
#X connect 15 0 21 5;
#X connect 16 0 27 0;
#X connect 16 1 26 0;
#X connect 17 0 23 0;
#X connect 17 0 19 0;
#X connect 17 0 24 0;
#X connect 17 0 25 0;
#X connect 17 0 28 0;
#X connect 18 0 16 2;
#X connect 18 0 22 2;
#X connect 19 0 16 2;
#X connect 19 0 22 2;
#X connect 21 0 16 0;
#X connect 21 1 16 1;
#X connect 22 0 7 0;
#X connect 22 1 7 1;
#X connect 23 0 16 2;
#X connect 24 0 16 2;
#X connect 25 0 22 2;
#X connect 26 0 7 1;
#X connect 27 0 7 0;
#X connect 28 0 22 2;
#X coords 0 -1 1 1 240 70 1 0 0;
