#N canvas 87 56 961 710 12;
#X obj -477 -422 r~ \$1-pre-fxall-l;
#X obj -419 -392 r~ \$1-pre-fxall-r;
#X obj -477 476 throw~ \$1-post-fxall-l;
#X obj -395 429 switch~;
#X obj -168 -168 r \$0-y-to-fx;
#X obj -476 400 fx_switch \$0;
#X obj -476 -356 fx_release-pre \$0;
#X obj -436 452 throw~ \$1-post-fxall-r;
#X obj -384 365 fx_release-post \$0 \$1;
#X obj -169 -58 r \$0-main-bpm-ms;
#X obj -536 -408 bng 15 250 50 0 empty empty empty 17 7 0 10 -262144
-1 -1;
#X obj -168 -142 lin-eq-conv 0 127 0 1;
#X text 10 -206 st-feedback-stereo.meh \; ---------------------- \;
\$1- ms line para pasar de una a otro (default: 20ms) \; \$2- paneo
(0: total \, 1: mono) \; \$3- desfasaje del canal derecho (0: paneo
\, OTRO: desfasa \, pero no-panea) \;;
#X obj -385 -13 st-del-fb-st.meh 20 1 1;
#X msg -168 -83 7;
#X obj -168 -108 loadbang;
#X text -132 -85 1000ms;
#X obj 2 2 fx_panel \$0 \$1 \$2 \$3 \$4;
#X obj -386 -316 st-bp.meh;
#X obj -258 -380 r \$0-x-to-fx;
#X obj -258 -353 lin-eq-conv 0 127 0 1;
#X obj -151 -33 lin-eq-conv 0 127 0 1;
#X connect 0 0 6 0;
#X connect 1 0 6 1;
#X connect 4 0 11 0;
#X connect 4 0 21 0;
#X connect 5 0 2 0;
#X connect 5 1 7 0;
#X connect 5 2 3 0;
#X connect 6 0 5 0;
#X connect 6 0 18 0;
#X connect 6 1 5 1;
#X connect 6 1 18 1;
#X connect 8 0 5 0;
#X connect 8 1 5 1;
#X connect 9 0 13 4;
#X connect 11 0 13 2;
#X connect 13 0 8 0;
#X connect 13 1 8 1;
#X connect 14 0 13 3;
#X connect 15 0 14 0;
#X connect 18 0 13 0;
#X connect 18 1 13 1;
#X connect 19 0 20 0;
#X connect 20 0 18 2;
#X connect 21 0 13 5;
#X coords 0 -1 1 1 240 70 1 0 0;
