#N canvas 271 85 961 681 12;
#X obj -347 -472 r~ \$1-pre-fxall-l;
#X obj -289 -442 r~ \$1-pre-fxall-r;
#X obj -347 196 throw~ \$1-post-fxall-l;
#X obj -265 149 switch~;
#X obj -124 -486 r \$0-y-to-fx;
#X obj -346 120 fx_switch \$0;
#X obj -346 -406 fx_release-pre \$0;
#X obj -306 172 throw~ \$1-post-fxall-r;
#X obj -345 75 fx_release-post \$0 \$1;
#X obj 2 2 fx_panel8 \$0 \$1 \$2 \$3 \$4;
#X obj -84 -435 r \$0-x-to-fx;
#X obj -44 -409 r \$0-main-bpm-ms;
#X obj -345 -10 diy2/st-pureverb;
#X obj -103 -99 loadbang;
#X obj -386 -468 bng 15 250 50 0 empty empty empty 17 7 0 10 -262144
-1 -1;
#X obj -124 -460 lin-eq-conv 0 127 0 1;
#X obj 18 -373 loadbang;
#X obj -274 -328 st-del-del-fb-mono.meh 20;
#X obj -65 -78 lin-eq-conv 0 127 0 0.8;
#X msg -65 -53 3 \$1;
#X msg -179 -61 0 0.9;
#X msg -121 -57 1 0.9;
#X msg 18 -348 0.5;
#X connect 0 0 6 0;
#X connect 1 0 6 1;
#X connect 4 0 15 0;
#X connect 4 0 18 0;
#X connect 5 0 2 0;
#X connect 5 1 7 0;
#X connect 5 2 3 0;
#X connect 6 0 12 0;
#X connect 6 0 17 0;
#X connect 6 1 12 1;
#X connect 6 1 17 1;
#X connect 8 0 5 0;
#X connect 8 1 5 1;
#X connect 10 0 17 3;
#X connect 11 0 17 4;
#X connect 12 0 8 0;
#X connect 12 1 8 1;
#X connect 13 0 21 0;
#X connect 13 0 20 0;
#X connect 15 0 17 2;
#X connect 16 0 22 0;
#X connect 17 0 12 0;
#X connect 17 1 12 1;
#X connect 18 0 19 0;
#X connect 19 0 12 2;
#X connect 20 0 12 2;
#X connect 21 0 12 2;
#X connect 22 0 17 5;
#X coords 0 -1 1 1 240 70 1 0 0;
