#N canvas 101 56 961 710 12;
#X obj -367 -318 r~ \$1-pre-fxall-l;
#X obj -309 -288 r~ \$1-pre-fxall-r;
#X obj -367 383 throw~ \$1-post-fxall-l;
#X obj -285 336 switch~;
#X obj -178 -319 r \$0-y-to-fx;
#X obj -366 307 fx_switch \$0;
#X obj -366 -252 fx_release-pre \$0;
#X obj -326 359 throw~ \$1-post-fxall-r;
#X obj 2 2 fx_panel8 \$0 \$1 \$2 \$3 \$4;
#X obj -140 -264 r \$0-x-to-fx;
#X obj -101 -239 r \$0-main-bpm-ms;
#X obj -406 -254 bng 15 250 50 0 empty empty empty 17 7 0 10 -262144
-1 -1;
#X obj -178 -293 lin-eq-conv 0 127 0 1;
#X obj 36 -258 loadbang;
#X obj -256 272 fx_release-post \$0 \$1;
#X obj 23 88 r \$0-y-to-fx;
#X obj -255 196 diy2/st-vcf;
#X msg 23 139 0 \$1;
#X msg 66 163 1 \$1;
#X msg 36 -233 0.8;
#X obj 23 112 lin-eq-conv 0 127 1 0.8;
#X obj -255 -28 st-bp.meh;
#X msg -37 -58 63;
#X msg 30 -56 0.6;
#X obj -255 -213 st-del-fb-mono.meh 200;
#X obj 66 137 lin-eq-conv 0 127 0 0.6;
#X connect 0 0 6 0;
#X connect 1 0 6 1;
#X connect 4 0 12 0;
#X connect 5 0 2 0;
#X connect 5 1 7 0;
#X connect 5 2 3 0;
#X connect 6 0 5 0;
#X connect 6 0 24 0;
#X connect 6 1 5 1;
#X connect 6 1 24 1;
#X connect 9 0 24 3;
#X connect 10 0 24 4;
#X connect 12 0 24 2;
#X connect 13 0 19 0;
#X connect 13 0 22 0;
#X connect 13 0 23 0;
#X connect 14 0 5 0;
#X connect 14 1 5 1;
#X connect 15 0 20 0;
#X connect 15 0 25 0;
#X connect 16 0 14 0;
#X connect 16 1 14 1;
#X connect 17 0 16 2;
#X connect 18 0 16 2;
#X connect 19 0 24 5;
#X connect 20 0 17 0;
#X connect 21 0 16 0;
#X connect 21 1 16 1;
#X connect 22 0 21 2;
#X connect 23 0 21 3;
#X connect 24 0 21 0;
#X connect 24 1 21 1;
#X connect 25 0 18 0;
#X coords 0 -1 1 1 240 70 1 0 0;
