#N canvas 1 87 1351 648 12;
#X obj 102 102 cnv 15 66 146 empty empty fxeq5st 2 6 0 12 -232576 -66577
0;
#X obj -162 356 *~;
#X floatatom -127 337 5 0 1 0 - - -;
#X obj 78 550 outlet~;
#X obj -208 25 inlet~;
#X obj -162 495 lop~ 150;
#X obj -117 396 loadbang;
#X obj -72 381 bng 15 250 50 0 empty empty empty 17 7 0 10 -262144
-1 -1;
#X msg -127 366 set \$1;
#X msg -127 426 1;
#X msg 131 37 1;
#X obj 115 121 vsl 10 100 0 2 0 0 empty empty empty 0 -9 0 10 -262144
-1 -1 4950 0;
#X obj 151 231 bng 15 250 50 0 eq5_reset empty empty 17 7 0 10 -262144
-1 -1;
#X obj 105 121 vsl 10 100 0 2 0 0 empty empty empty 0 -9 0 10 -232576
-1 -1 4950 0;
#X text 102 228 pre;
#X floatatom -116 144 5 0 1 0 - - -;
#X obj -106 203 loadbang;
#X obj -61 188 bng 15 250 50 0 empty empty empty 17 7 0 10 -262144
-1 -1;
#X msg -116 173 set \$1;
#X msg -116 233 1;
#X obj -162 263 *~;
#X text -115 122 Pre-AMP;
#X obj -43 356 *~;
#X floatatom -8 337 5 0 1 0 - - -;
#X obj 2 396 loadbang;
#X obj 47 381 bng 15 250 50 0 empty empty empty 17 7 0 10 -262144 -1
-1;
#X msg -8 366 set \$1;
#X msg -8 426 1;
#X obj 125 121 vsl 10 100 0 2 0 0 empty empty empty 0 -9 0 10 -262144
-1 -1 4950 0;
#X obj 135 121 vsl 10 100 0 2 0 0 empty empty empty 0 -9 0 10 -262144
-1 -1 4950 0;
#X obj 145 121 vsl 10 100 0 2 0 0 empty empty empty 0 -9 0 10 -262144
-1 -1 4950 0;
#X obj 155 121 vsl 10 100 0 2 0 0 empty empty empty 0 -9 0 10 -262144
-1 -1 4950 0;
#X obj -43 493 lop~ 625;
#X obj -42 461 hip~ 150;
#X obj 77 356 *~;
#X floatatom 112 337 5 0 1 0 - - -;
#X obj 122 396 loadbang;
#X obj 167 381 bng 15 250 50 0 empty empty empty 17 7 0 10 -262144
-1 -1;
#X msg 112 366 set \$1;
#X msg 112 426 1;
#X obj 78 461 hip~ 625;
#X obj 77 493 lop~ 2500;
#X obj 197 356 *~;
#X floatatom 232 337 5 0 1 0 - - -;
#X obj 242 396 loadbang;
#X obj 287 381 bng 15 250 50 0 empty empty empty 17 7 0 10 -262144
-1 -1;
#X msg 232 366 set \$1;
#X msg 232 426 1;
#X obj 198 461 hip~ 2500;
#X obj 197 493 lop~ 10000;
#X obj 317 356 *~;
#X floatatom 352 337 5 0 1 0 - - -;
#X obj 362 396 loadbang;
#X obj 407 381 bng 15 250 50 0 empty empty empty 17 7 0 10 -262144
-1 -1;
#X msg 352 366 set \$1;
#X msg 352 426 1;
#X obj 318 493 hip~ 10000;
#X obj 458 356 *~;
#X floatatom 493 337 5 0 1 0 - - -;
#X obj 698 550 outlet~;
#X obj 414 25 inlet~;
#X obj 458 495 lop~ 150;
#X obj 458 263 *~;
#X obj 577 356 *~;
#X floatatom 612 337 5 0 1 0 - - -;
#X obj 577 493 lop~ 625;
#X obj 578 461 hip~ 150;
#X obj 697 356 *~;
#X floatatom 732 337 5 0 1 0 - - -;
#X obj 698 461 hip~ 625;
#X obj 697 493 lop~ 2500;
#X obj 817 356 *~;
#X floatatom 852 337 5 0 1 0 - - -;
#X obj 818 461 hip~ 2500;
#X obj 817 493 lop~ 10000;
#X obj 937 356 *~;
#X floatatom 972 337 5 0 1 0 - - -;
#X obj 938 493 hip~ 10000;
#X floatatom 504 144 5 0 1 0 - - -;
#X text 124 18 reset;
#X obj 160 100 tgl 10 0 empty empty empty 17 7 0 10 -262144 -1 -1 0
1;
#X obj -208 61 spigot~;
#X obj 202 37 inlet;
#X obj 413 61 spigot~;
#X text 505 122 Pre-AMP;
#X connect 1 0 5 0;
#X connect 2 0 1 1;
#X connect 2 0 8 0;
#X connect 4 0 81 0;
#X connect 5 0 3 0;
#X connect 6 0 9 0;
#X connect 7 0 6 0;
#X connect 8 0 9 0;
#X connect 9 0 11 0;
#X connect 10 0 13 0;
#X connect 10 0 11 0;
#X connect 10 0 28 0;
#X connect 10 0 29 0;
#X connect 10 0 30 0;
#X connect 10 0 31 0;
#X connect 11 0 2 0;
#X connect 11 0 58 0;
#X connect 12 0 10 0;
#X connect 13 0 15 0;
#X connect 13 0 78 0;
#X connect 15 0 18 0;
#X connect 15 0 20 1;
#X connect 16 0 19 0;
#X connect 17 0 16 0;
#X connect 18 0 19 0;
#X connect 19 0 13 0;
#X connect 20 0 1 0;
#X connect 20 0 22 0;
#X connect 20 0 34 0;
#X connect 20 0 42 0;
#X connect 20 0 50 0;
#X connect 22 0 33 0;
#X connect 23 0 22 1;
#X connect 23 0 26 0;
#X connect 24 0 27 0;
#X connect 25 0 24 0;
#X connect 26 0 27 0;
#X connect 27 0 28 0;
#X connect 28 0 23 0;
#X connect 28 0 64 0;
#X connect 29 0 35 0;
#X connect 29 0 68 0;
#X connect 30 0 43 0;
#X connect 30 0 72 0;
#X connect 31 0 51 0;
#X connect 31 0 76 0;
#X connect 32 0 3 0;
#X connect 33 0 32 0;
#X connect 34 0 40 0;
#X connect 35 0 34 1;
#X connect 35 0 38 0;
#X connect 36 0 39 0;
#X connect 37 0 36 0;
#X connect 38 0 39 0;
#X connect 39 0 29 0;
#X connect 40 0 41 0;
#X connect 41 0 3 0;
#X connect 42 0 48 0;
#X connect 43 0 42 1;
#X connect 43 0 46 0;
#X connect 44 0 47 0;
#X connect 45 0 44 0;
#X connect 46 0 47 0;
#X connect 47 0 30 0;
#X connect 48 0 49 0;
#X connect 49 0 3 0;
#X connect 50 0 56 0;
#X connect 51 0 50 1;
#X connect 51 0 54 0;
#X connect 52 0 55 0;
#X connect 53 0 52 0;
#X connect 54 0 55 0;
#X connect 55 0 31 0;
#X connect 56 0 3 0;
#X connect 57 0 61 0;
#X connect 58 0 57 1;
#X connect 60 0 83 0;
#X connect 61 0 59 0;
#X connect 62 0 57 0;
#X connect 62 0 63 0;
#X connect 62 0 67 0;
#X connect 62 0 71 0;
#X connect 62 0 75 0;
#X connect 63 0 66 0;
#X connect 64 0 63 1;
#X connect 65 0 59 0;
#X connect 66 0 65 0;
#X connect 67 0 69 0;
#X connect 68 0 67 1;
#X connect 69 0 70 0;
#X connect 70 0 59 0;
#X connect 71 0 73 0;
#X connect 72 0 71 1;
#X connect 73 0 74 0;
#X connect 74 0 59 0;
#X connect 75 0 77 0;
#X connect 76 0 75 1;
#X connect 77 0 59 0;
#X connect 78 0 62 1;
#X connect 80 0 81 1;
#X connect 80 0 83 1;
#X connect 81 0 3 0;
#X connect 81 1 20 0;
#X connect 82 0 80 0;
#X connect 83 0 59 0;
#X connect 83 1 62 0;
#X coords 0 -1 1 1 70 150 2 100 100;
