#N canvas 1 56 1351 710 12;
#X obj -576 -303 r~ \$1-pre-fxall-l;
#X obj -539 -279 r~ \$1-pre-fxall-r;
#X obj -575 345 throw~ \$1-post-fxall-l;
#X obj -535 321 throw~ \$1-post-fxall-r;
#X obj -495 292 switch~;
#X obj 2 2 fx_panel \$0 \$1 \$2 \$3 \$4;
#X obj -576 264 fx_switch \$0;
#X obj -611 -333 bng 15 250 50 0 empty empty empty 17 7 0 10 -262144
-1 -1;
#X obj -196 -118 r \$0-y-to-fx;
#X obj -196 204 lin-eq-conv 0 127 0 1;
#X obj -295 -256 r \$0-x-to-fx;
#X obj -482 40 st-fuzz4life.racko;
#X obj -289 -19 loadbang;
#X msg -289 6 0.8;
#X obj -182 -84 lin-eq-conv 0 127 0 0.3;
#X obj -465 -152 diy2/st-lowpass;
#X obj -379 -240 loadbang;
#X msg -379 -215 0 0.5;
#X msg -295 -204 2 \$1;
#X obj -295 -229 lin-eq-conv 0 127 0.666 0;
#X obj -482 6 +~;
#X obj -418 6 +~;
#X obj -576 224 spigot2st~ -------------;
#X connect 0 0 15 0;
#X connect 0 0 20 0;
#X connect 0 0 22 0;
#X connect 1 0 15 1;
#X connect 1 0 21 0;
#X connect 1 0 22 1;
#X connect 6 0 2 0;
#X connect 6 1 3 0;
#X connect 6 2 4 0;
#X connect 8 0 9 0;
#X connect 8 0 14 0;
#X connect 9 0 22 4;
#X connect 10 0 19 0;
#X connect 11 0 22 2;
#X connect 11 1 22 3;
#X connect 12 0 13 0;
#X connect 13 0 11 3;
#X connect 14 0 11 2;
#X connect 15 0 20 1;
#X connect 15 1 21 1;
#X connect 16 0 17 0;
#X connect 17 0 15 2;
#X connect 18 0 15 2;
#X connect 19 0 18 0;
#X connect 20 0 11 0;
#X connect 21 0 11 1;
#X connect 22 0 6 0;
#X connect 22 1 6 1;
#X coords 0 -1 1 1 240 70 1 0 0;
