#N canvas 1 97 1055 669 12;
#X obj -465 -173 r~ \$1-pre-fxall-l;
#X obj -385 -143 r~ \$1-pre-fxall-r;
#X obj -465 425 throw~ \$1-post-fxall-l;
#X obj -424 401 throw~ \$1-post-fxall-r;
#X obj -384 370 switch~;
#X obj -465 341 fx_switch \$0;
#X msg -68 -106 subsync \$1;
#X msg -68 -136 mainsync \$1;
#X msg -69 -54 subval \$1;
#X msg 40 -51 mainval \$1;
#X obj -343 -32 diy2/st-buffery;
#X obj -134 -216 r \$1-main-bpm;
#X obj -88 -188 loadbang;
#X msg -68 -162 1;
#X obj 40 -99 r \$0-x-to-fx;
#X obj 40 -76 lin-eq-conv 0 127 0 1;
#X obj 2 2 fx_panel \$0 \$1 \$2 \$3 \$4;
#X msg -98 132 0 \$1;
#X obj -344 264 diy2/st-vcf;
#X obj -143 197 loadbang;
#X msg -59 217 0 \$1;
#X obj -98 81 r \$0-y-to-fx;
#X obj -343 175 diy2/st-highpass;
#X obj -97 106 lin-eq-conv 0 127 0 0.75;
#X obj -59 192 lin-eq-conv 0 127 1 0.8;
#X msg 5 244 1 \$1;
#X msg -143 221 2 0.5;
#X obj -59 142 r \$0-y-to-fx;
#X obj -59 166 t f f;
#X msg -69 -79 0.6;
#X msg -133 -179 120;
#X obj 5 218 lin-eq-conv 0 127 0 0.6;
#X connect 0 0 10 0;
#X connect 0 0 5 0;
#X connect 1 0 10 1;
#X connect 1 0 5 1;
#X connect 5 0 2 0;
#X connect 5 1 3 0;
#X connect 5 2 4 0;
#X connect 6 0 10 4;
#X connect 7 0 10 4;
#X connect 8 0 10 4;
#X connect 9 0 10 4;
#X connect 10 0 22 0;
#X connect 10 1 22 1;
#X connect 11 0 10 3;
#X connect 12 0 13 0;
#X connect 12 0 29 0;
#X connect 12 0 30 0;
#X connect 13 0 7 0;
#X connect 13 0 6 0;
#X connect 14 0 15 0;
#X connect 15 0 9 0;
#X connect 17 0 22 2;
#X connect 18 0 5 0;
#X connect 18 1 5 1;
#X connect 19 0 26 0;
#X connect 20 0 18 2;
#X connect 21 0 23 0;
#X connect 22 0 18 0;
#X connect 22 1 18 1;
#X connect 23 0 17 0;
#X connect 24 0 20 0;
#X connect 25 0 18 2;
#X connect 26 0 18 2;
#X connect 27 0 28 0;
#X connect 28 0 24 0;
#X connect 28 1 31 0;
#X connect 29 0 8 0;
#X connect 30 0 10 3;
#X connect 31 0 25 0;
#X coords 0 -1 1 1 240 70 1 0 0;
