#N canvas 1 97 1055 669 12;
#X obj -345 -493 r~ \$1-pre-fxall-l;
#X obj -263 -463 r~ \$1-pre-fxall-r;
#X obj -345 105 throw~ \$1-post-fxall-l;
#X obj -304 81 throw~ \$1-post-fxall-r;
#X obj -264 28 switch~;
#X obj 219 -295 r \$0-y-to-fx;
#X obj -345 -1 fx_switch \$0;
#X msg 62 -159 subsync \$1;
#X msg 62 -189 mainsync \$1;
#X msg 219 -247 subval \$1;
#X msg 214 -165 mainval \$1;
#X obj -235 -142 diy2/st-buffery;
#X obj 63 -275 r \$1-main-bpm;
#X obj 62 -241 loadbang;
#X msg 62 -215 1;
#X obj 214 -213 r \$0-x-to-fx;
#X obj 214 -190 lin-eq-conv 0 127 0 1;
#X obj 2 2 fx_panel \$0 \$1 \$2 \$3 \$4;
#X obj -107 -454 loadbang;
#X msg 9 -215 120;
#X obj 219 -271 lin-eq-conv 0 127 0.6 0.4;
#X msg -13 -415 0.5;
#X obj -235 -387 st-bp.meh;
#X msg -107 -425 0.666;
#X connect 0 0 6 0;
#X connect 0 0 22 0;
#X connect 1 0 6 1;
#X connect 1 0 22 1;
#X connect 5 0 20 0;
#X connect 6 0 2 0;
#X connect 6 1 3 0;
#X connect 6 2 4 0;
#X connect 7 0 11 4;
#X connect 8 0 11 4;
#X connect 9 0 11 4;
#X connect 10 0 11 4;
#X connect 11 0 6 0;
#X connect 11 1 6 1;
#X connect 12 0 11 3;
#X connect 13 0 14 0;
#X connect 13 0 19 0;
#X connect 14 0 8 0;
#X connect 14 0 7 0;
#X connect 15 0 16 0;
#X connect 16 0 10 0;
#X connect 18 0 23 0;
#X connect 19 0 11 3;
#X connect 20 0 9 0;
#X connect 21 0 22 3;
#X connect 22 0 11 0;
#X connect 22 1 11 1;
#X connect 23 0 22 2;
#X coords 0 -1 1 1 240 70 1 0 0;
