#N canvas 237 81 1058 669 12;
#X obj -497 -613 r~ \$1-pre-fxall-l;
#X obj -455 -583 r~ \$1-pre-fxall-r;
#X obj -495 365 throw~ \$1-post-fxall-l;
#X obj -455 341 throw~ \$1-post-fxall-r;
#X obj -415 312 switch~;
#X obj 2 2 fx_panel \$0 \$1 \$2 \$3 \$4;
#X obj -496 284 fx_switch \$0;
#X obj -531 -563 bng 15 250 50 0 empty empty empty 17 7 0 10 -262144
-1 -1;
#X obj -497 -537 fx_release-pre \$0;
#X obj -497 242 fx_release-post \$0 \$1;
#X obj -496 -253 spigot2~;
#X obj -408 -243 spigot2~;
#X obj -173 -299 r \$0-y-to-fx;
#X obj -173 -274 lin-eq-conv 0 127 0 1;
#X obj -220 -239 r \$0-y-to-fx;
#X obj -123 -165 r \$0-main-bpm-ms;
#X msg -172 -165 7;
#X obj -172 -190 loadbang;
#X text -106 -191 1000ms;
#X obj -220 -215 lin-eq-conv 0 127 0 1;
#X obj -316 -139 st-del-fb-st.meh;
#X obj -410 -485 st-bp.meh;
#X obj -275 -545 r \$0-x-to-fx;
#X obj -275 -518 lin-eq-conv 0 127 0 1;
#X connect 0 0 8 0;
#X connect 1 0 8 1;
#X connect 6 0 2 0;
#X connect 6 1 3 0;
#X connect 6 2 4 0;
#X connect 8 0 10 0;
#X connect 8 0 21 0;
#X connect 8 1 11 0;
#X connect 8 1 21 1;
#X connect 9 0 6 0;
#X connect 9 1 6 1;
#X connect 10 0 9 0;
#X connect 10 0 20 0;
#X connect 11 0 9 1;
#X connect 11 0 20 1;
#X connect 12 0 13 0;
#X connect 13 0 11 2;
#X connect 13 0 10 2;
#X connect 14 0 19 0;
#X connect 15 0 20 4;
#X connect 16 0 20 3;
#X connect 17 0 16 0;
#X connect 19 0 20 2;
#X connect 20 0 9 0;
#X connect 20 1 9 1;
#X connect 21 0 10 1;
#X connect 21 1 11 1;
#X connect 22 0 23 0;
#X connect 23 0 21 2;
#X coords 0 -1 1 1 240 70 1 0 0;
