#N canvas 357 97 811 669 12;
#X obj -380 -343 r~ \$1-pre-fxall-l;
#X obj -295 -313 r~ \$1-pre-fxall-r;
#X obj -382 255 throw~ \$1-post-fxall-l;
#X obj -341 223 throw~ \$1-post-fxall-r;
#X obj -300 178 switch~;
#X obj -251 -280 r \$0-x-to-fx;
#X obj 2 2 fx_panel8 \$0 \$1 \$2 \$3 \$4;
#X obj -251 -255 lin-eq-conv 0 7 7 0;
#X obj -381 150 fx_switch \$0;
#X obj -208 -193 r \$0-y-to-fx;
#X obj -418 -342 bng 15 250 50 0 empty empty empty 17 7 0 10 -262144
-1 -1;
#X obj -381 -69 st-looper.meh \$0 \$1;
#X obj -155 -140 lin-eq-conv 84 127 0 1;
#X obj -208 -107 lin-eq-conv 0 84 -8 0;
#X obj -208 -167 moses 84;
#X connect 0 0 11 0;
#X connect 1 0 11 1;
#X connect 5 0 7 0;
#X connect 7 0 11 2;
#X connect 8 0 2 0;
#X connect 8 1 3 0;
#X connect 8 2 4 0;
#X connect 9 0 14 0;
#X connect 11 0 8 0;
#X connect 11 1 8 1;
#X connect 12 0 11 3;
#X connect 13 0 11 3;
#X connect 14 0 13 0;
#X connect 14 1 12 0;
#X coords 0 -1 1 1 240 70 1 0 0;
