#N canvas 589 97 579 669 12;
#X obj -260 -133 r~ \$1-pre-fxall-l;
#X obj -175 -103 r~ \$1-pre-fxall-r;
#X obj -262 465 throw~ \$1-post-fxall-l;
#X obj -221 433 throw~ \$1-post-fxall-r;
#X obj -180 388 switch~;
#X obj -131 -70 r \$0-x-to-fx;
#X obj 2 2 fx_panel8 \$0 \$1 \$2 \$3 \$4;
#X obj -131 -45 lin-eq-conv 0 7 7 0;
#X obj -261 360 fx_switch \$0;
#X obj -261 -9 st-looper.meh \$0 \$1;
#X obj -260 216 diy2/st-pitchshifter;
#X msg -42 183 0 \$1;
#X obj -42 154 lin-eq-conv 0 127 0.437 0.562;
#X obj -114 143 loadbang;
#X msg -114 167 1 0.5;
#X obj -42 128 r \$0-y-to-fx;
#X connect 0 0 9 0;
#X connect 1 0 9 1;
#X connect 5 0 7 0;
#X connect 7 0 9 2;
#X connect 8 0 2 0;
#X connect 8 1 3 0;
#X connect 8 2 4 0;
#X connect 9 0 10 0;
#X connect 9 1 10 1;
#X connect 10 0 8 0;
#X connect 10 1 8 1;
#X connect 11 0 10 2;
#X connect 12 0 11 0;
#X connect 13 0 14 0;
#X connect 14 0 10 2;
#X connect 15 0 12 0;
#X coords 0 -1 1 1 240 70 1 0 0;
