#N canvas 597 97 579 669 12;
#X obj -260 -133 r~ \$1-pre-fxall-l;
#X obj -175 -103 r~ \$1-pre-fxall-r;
#X obj -262 465 throw~ \$1-post-fxall-l;
#X obj -221 433 throw~ \$1-post-fxall-r;
#X obj -180 388 switch~;
#X obj -131 -70 r \$0-x-to-fx;
#X obj 2 2 fx_panel8 \$0 \$1 \$2 \$3 \$4;
#X obj -261 360 fx_switch \$0;
#X obj -261 -9 st-looper.meh \$0 \$1;
#X msg -16 151 0 \$1;
#X obj -262 283 diy2/st-vcf;
#X obj -61 216 loadbang;
#X msg 23 236 0 \$1;
#X obj -16 100 r \$0-y-to-fx;
#X obj -261 194 diy2/st-highpass;
#X msg 87 263 1 \$1;
#X msg -61 240 2 0.5;
#X obj 23 161 r \$0-y-to-fx;
#X obj 23 185 t f f;
#X obj -131 -45 lin-eq-conv 0 7 7 0;
#X obj -15 125 lin-eq-conv 0 127 0 0.75;
#X obj 23 211 lin-eq-conv 0 127 1 0.8;
#X obj 87 237 lin-eq-conv 0 127 0 0.6;
#X connect 0 0 8 0;
#X connect 1 0 8 1;
#X connect 5 0 19 0;
#X connect 7 0 2 0;
#X connect 7 1 3 0;
#X connect 7 2 4 0;
#X connect 8 0 14 0;
#X connect 8 1 14 1;
#X connect 9 0 14 2;
#X connect 10 0 7 0;
#X connect 10 1 7 1;
#X connect 11 0 16 0;
#X connect 12 0 10 2;
#X connect 13 0 20 0;
#X connect 14 0 10 0;
#X connect 14 1 10 1;
#X connect 15 0 10 2;
#X connect 16 0 10 2;
#X connect 17 0 18 0;
#X connect 18 0 21 0;
#X connect 18 1 22 0;
#X connect 19 0 8 2;
#X connect 20 0 9 0;
#X connect 21 0 12 0;
#X connect 22 0 15 0;
#X coords 0 -1 1 1 240 70 1 0 0;
