#N canvas 324 78 980 669 12;
#X obj -487 -183 r~ \$1-pre-fxall-l;
#X obj -405 -153 r~ \$1-pre-fxall-r;
#X obj -487 612 throw~ \$1-post-fxall-l;
#X obj -447 588 throw~ \$1-post-fxall-r;
#X obj -406 558 switch~;
#X obj 2 2 fx_panel8 \$0 \$1 \$2 \$3 \$4;
#X obj -487 529 fx_switch \$0;
#X obj -98 -71 r \$0-main-bpm-ms;
#X msg -291 101 0 \$1;
#X obj -418 -181 bng 15 250 50 0 empty empty empty 17 7 0 10 -262144
-1 -1;
#X msg -145 144 0 \$1;
#X obj -145 119 lin-eq-conv 0 127 0 1;
#X obj -377 191 diy2/st-highpass;
#X obj -145 90 r \$0-x-to-fx;
#X obj 11 148 r \$0-y-to-fx;
#X obj 49 203 r \$0-x-to-fx;
#X obj 88 228 r \$0-main-bpm-ms;
#X obj 11 174 lin-eq-conv 0 127 0 1;
#X obj 145 258 loadbang;
#X msg 145 283 0.666;
#X obj -376 303 st-del-del-fb-mono.meh 20;
#X msg -291 -70 1;
#X obj -291 -97 loadbang;
#X msg -260 141 2 0.3;
#X obj -291 -44 st-lfo.meh \$0 0;
#X connect 0 0 12 0;
#X connect 0 0 6 0;
#X connect 1 0 12 1;
#X connect 1 0 6 1;
#X connect 6 0 2 0;
#X connect 6 1 3 0;
#X connect 6 2 4 0;
#X connect 7 0 24 2;
#X connect 8 0 12 2;
#X connect 10 0 12 2;
#X connect 11 0 10 0;
#X connect 12 0 20 0;
#X connect 12 1 20 1;
#X connect 13 0 11 0;
#X connect 14 0 17 0;
#X connect 15 0 20 3;
#X connect 16 0 20 4;
#X connect 17 0 20 2;
#X connect 18 0 19 0;
#X connect 19 0 20 5;
#X connect 20 0 6 0;
#X connect 20 1 6 1;
#X connect 21 0 24 0;
#X connect 22 0 21 0;
#X connect 23 0 12 2;
#X connect 24 0 8 0;
#X coords 0 -1 1 1 240 70 1 0 0;
