#N canvas 232 97 830 669 12;
#X obj -517 -183 r~ \$1-pre-fxall-l;
#X obj -435 -153 r~ \$1-pre-fxall-r;
#X obj -517 613 throw~ \$1-post-fxall-l;
#X obj -477 589 throw~ \$1-post-fxall-r;
#X obj -436 559 switch~;
#X obj 2 2 fx_panel8 \$0 \$1 \$2 \$3 \$4;
#X obj -517 530 fx_switch \$0;
#X obj -277 -75 r \$0-x-to-fx;
#X obj -84 -75 r \$0-main-bpm-ms;
#X obj -558 -181 bng 15 250 50 0 empty empty empty 17 7 0 10 -262144
-1 -1;
#X obj -405 88 st-bp.meh;
#X obj -404 398 diy2/st-vcf;
#X obj -194 243 r \$0-y-to-fx;
#X msg -194 294 0 \$1;
#X msg -130 318 1 \$1;
#X obj -194 269 lin-eq-conv 0 127 1 0.6;
#X obj -130 293 lin-eq-conv 0 127 0 0.6;
#X obj -277 -44 st-lfo.meh \$0 0;
#X obj -361 320 loadbang;
#X msg -361 344 2 1;
#X connect 0 0 10 0;
#X connect 0 0 6 0;
#X connect 1 0 10 1;
#X connect 1 0 6 1;
#X connect 6 0 2 0;
#X connect 6 1 3 0;
#X connect 6 2 4 0;
#X connect 7 0 17 0;
#X connect 8 0 17 2;
#X connect 10 0 11 0;
#X connect 10 1 11 1;
#X connect 11 0 6 0;
#X connect 11 1 6 1;
#X connect 12 0 15 0;
#X connect 12 0 16 0;
#X connect 13 0 11 2;
#X connect 14 0 11 2;
#X connect 15 0 13 0;
#X connect 16 0 14 0;
#X connect 17 0 10 2;
#X connect 18 0 19 0;
#X connect 19 0 11 2;
#X coords 0 -1 1 1 240 70 1 0 0;
