#N canvas 90 97 926 669 12;
#X obj -577 -393 r~ \$1-pre-fxall-l;
#X obj -533 -363 r~ \$1-pre-fxall-r;
#X obj -575 375 throw~ \$1-post-fxall-l;
#X obj -535 351 throw~ \$1-post-fxall-r;
#X obj -495 322 switch~;
#X obj -576 -230 diy2/st-lowpass;
#X msg -381 -272 0 \$1;
#X obj -381 -374 r \$0-x-to-fx;
#X obj 2 2 fx_panel \$0 \$1 \$2 \$3 \$4;
#X obj -576 294 fx_switch \$0;
#X obj -577 220 diy2/st-vcf;
#X obj -577 -75 diy2/st-highpass;
#X obj -611 -393 bng 15 250 50 0 empty empty empty 17 7 0 10 -262144
-1 -1;
#X msg -356 -110 0 \$1;
#X obj -356 -210 r \$0-x-to-fx;
#X obj -177 -342 r \$0-y-to-fx;
#X obj -133 -181 r \$0-y-to-fx;
#X floatatom -177 -290 5 0 0 0 - - -;
#X floatatom -133 -130 5 0 0 0 - - -;
#X floatatom -184 -116 5 0 0 0 - - -;
#X floatatom -344 -163 5 0 0 0 - - -;
#X obj -381 -296 +;
#X obj -177 -316 lin-eq-conv 0 127 0 1;
#X floatatom -368 -329 5 0 0 0 - - -;
#X floatatom -325 -276 5 0 0 0 - - -;
#X obj -133 -156 lin-eq-conv 0 127 1 0;
#X obj -356 -136 -;
#X obj -325 0 expr $f1 * -1 + 1;
#X obj -380 -350 lin-eq-conv 0 63 0 1;
#X obj -356 -183 lin-eq-conv 64 127 0 1;
#X obj -184 29 t b f;
#X obj -325 29 t f b;
#X obj -152 66 f;
#X floatatom -94 115 5 0 0 0 - - -;
#X obj -325 66 f;
#X obj -325 92 expr if ($f1 > $f2 \, $f1 \, $f2);
#X obj -325 -26 clip 0 1;
#X obj -184 -28 clip 0 1;
#X msg -325 143 0 \$1;
#X obj -325 119 lin-eq-conv 0 1 1 0.5;
#X text 82 -280 Diag!;
#X text 118 -293 /;
#X text 124 -305 /;
#X text 130 -317 /;
#X text 137 -329 >;
#X text 58 -239 /;
#X text 64 -251 /;
#X text 70 -263 /;
#X text 50 -227 <;
#X msg -275 175 1 \$1;
#X obj -275 149 lin-eq-conv 0 127 0 0.6;
#X connect 0 0 5 0;
#X connect 1 0 5 1;
#X connect 5 0 11 0;
#X connect 5 1 11 1;
#X connect 6 0 5 2;
#X connect 7 0 28 0;
#X connect 9 0 2 0;
#X connect 9 1 3 0;
#X connect 9 2 4 0;
#X connect 10 0 9 0;
#X connect 10 1 9 1;
#X connect 11 0 10 0;
#X connect 11 1 10 1;
#X connect 13 0 11 2;
#X connect 14 0 29 0;
#X connect 15 0 22 0;
#X connect 16 0 25 0;
#X connect 19 0 37 0;
#X connect 21 0 6 0;
#X connect 21 0 24 0;
#X connect 22 0 17 0;
#X connect 22 0 21 1;
#X connect 24 0 36 0;
#X connect 25 0 18 0;
#X connect 25 0 26 1;
#X connect 26 0 19 0;
#X connect 26 0 13 0;
#X connect 27 0 31 0;
#X connect 28 0 21 0;
#X connect 28 0 23 0;
#X connect 29 0 20 0;
#X connect 29 0 26 0;
#X connect 30 0 34 0;
#X connect 30 1 32 0;
#X connect 31 0 34 0;
#X connect 31 1 32 0;
#X connect 32 0 35 1;
#X connect 34 0 35 0;
#X connect 35 0 33 0;
#X connect 35 0 39 0;
#X connect 35 0 50 0;
#X connect 36 0 27 0;
#X connect 37 0 30 0;
#X connect 38 0 10 2;
#X connect 39 0 38 0;
#X connect 49 0 10 2;
#X connect 50 0 49 0;
#X coords 0 -1 1 1 240 70 1 0 0;
