#N canvas 1 97 1055 669 12;
#X obj -407 -453 r~ \$1-pre-fxall-l;
#X obj -363 -423 r~ \$1-pre-fxall-r;
#X obj -405 325 throw~ \$1-post-fxall-l;
#X obj -364 301 throw~ \$1-post-fxall-r;
#X obj -324 248 switch~;
#X msg -231 -343 0 \$1;
#X obj -169 -423 r \$0-y-to-fx;
#X obj -231 -368 lin-eq-conv 0 127 0 1;
#X obj 2 2 fx_panel \$0 \$1 \$2 \$3 \$4;
#X obj -405 219 fx_switch \$0;
#X text 171 -119 \$0 FX \; \$1 MEH_CONSOLE \; \; \$2 NOMBRE \; \$3
GRUPO \; \$4 NUMERO;
#X obj -401 156 spigot2~;
#X obj -297 161 spigot2~;
#X obj -204 94 tgl 15 0 empty empty empty 17 7 0 10 -262144 -1 -1 0
1;
#X obj -154 -182 r \$0-x-to-fx;
#X msg -319 -129 1 0.666;
#X msg -287 -95 2 0.7;
#X obj -403 -5 st-phaser.meh;
#X msg -160 -58 0 \$1;
#X obj -159 -155 lin-eq-conv 0 127 0 0.4;
#X obj -161 -91 line 0 1;
#X msg -163 -121 \$1 100;
#X obj -142 -211 hsl 128 15 0 127 0 0 empty empty empty -2 -8 0 10
-262144 -1 -1 0 1;
#X obj -205 10 hsl 128 15 0 1 0 0 empty empty empty -2 -8 0 10 -262144
-1 -1 0 1;
#X obj -625 -151 diy2/st-flanger;
#X obj 172 21 cnv 15 35 40 empty empty * 0 30 0 60 -262144 -258113
0;
#X obj -206 -278 st-man-flanger.meh;
#X connect 0 0 17 0;
#X connect 0 0 24 0;
#X connect 1 0 17 1;
#X connect 1 0 24 1;
#X connect 6 0 7 0;
#X connect 7 0 5 0;
#X connect 9 0 2 0;
#X connect 9 1 3 0;
#X connect 9 2 4 0;
#X connect 11 0 9 0;
#X connect 12 0 9 1;
#X connect 13 0 12 2;
#X connect 13 0 11 2;
#X connect 14 0 19 0;
#X connect 15 0 17 2;
#X connect 16 0 17 2;
#X connect 17 0 11 0;
#X connect 17 1 12 0;
#X connect 18 0 17 2;
#X connect 19 0 21 0;
#X connect 20 0 18 0;
#X connect 21 0 20 0;
#X connect 22 0 19 0;
#X connect 23 0 21 0;
#X connect 24 0 11 1;
#X connect 24 1 12 1;
#X coords 0 -1 1 1 240 70 1 0 0;
