#N canvas 263 85 961 681 12;
#X obj -347 -212 r~ \$1-pre-fxall-l;
#X obj -289 -182 r~ \$1-pre-fxall-r;
#X obj -347 526 throw~ \$1-post-fxall-l;
#X obj -265 469 switch~;
#X obj -124 -226 r \$0-y-to-fx;
#X obj -346 440 fx_switch \$0;
#X obj -346 -146 fx_release-pre \$0;
#X obj -306 492 throw~ \$1-post-fxall-r;
#X obj -345 395 fx_release-post \$0 \$1;
#X obj -44 -149 r \$0-main-bpm-ms;
#X obj -86 240 loadbang;
#X obj -386 -208 bng 15 250 50 0 empty empty empty 17 7 0 10 -262144
-1 -1;
#X obj -22 -113 loadbang;
#X msg 42 294 3 \$1;
#X obj -345 320 diy2/st-pureverb;
#X obj 2 2 fx_panel \$0 \$1 \$2 \$3 \$4;
#X obj -136 -146 loadbang;
#X msg -136 -123 0;
#X obj -124 -200 lin-eq-conv 0 127 0 0.8;
#X msg -149 273 0 0.666;
#X obj 1 216 r \$0-x-to-fx;
#X msg 1 269 1 \$1;
#X obj -274 171 diy2/st-highpass;
#X obj -274 -68 st-del-del-fb-mono.meh 20;
#X msg -22 127 0 0.5;
#X obj 1 244 lin-eq-conv 0 127 0.2 1;
#X obj 42 269 lin-eq-conv 0 127 0 1;
#X msg -22 -88 0.9;
#X text 101 -165 st-del-del-fb-mono.meh \; ---------------------- \;
\$1- ms line para pasar de una a otro (default: 20ms) \; \; inlet-1
inlet-2: signals \; inlet-3: gain y volumen \; inlet-4: 0-15 - delay-time
(predefinidos) \; inlet-5: main-bpm-ms \; inlet-6: feedback \;;
#X connect 0 0 6 0;
#X connect 1 0 6 1;
#X connect 4 0 18 0;
#X connect 4 0 26 0;
#X connect 5 0 2 0;
#X connect 5 1 7 0;
#X connect 5 2 3 0;
#X connect 6 0 23 0;
#X connect 6 0 14 0;
#X connect 6 1 23 1;
#X connect 6 1 14 1;
#X connect 8 0 5 0;
#X connect 8 1 5 1;
#X connect 9 0 23 4;
#X connect 10 0 19 0;
#X connect 12 0 27 0;
#X connect 12 0 24 0;
#X connect 13 0 14 2;
#X connect 14 0 8 0;
#X connect 14 1 8 1;
#X connect 16 0 17 0;
#X connect 17 0 23 3;
#X connect 18 0 23 2;
#X connect 19 0 14 2;
#X connect 20 0 25 0;
#X connect 21 0 14 2;
#X connect 22 0 14 0;
#X connect 22 1 14 1;
#X connect 23 0 22 0;
#X connect 23 1 22 1;
#X connect 24 0 22 2;
#X connect 25 0 21 0;
#X connect 26 0 13 0;
#X connect 27 0 23 5;
#X coords 0 -1 1 1 240 70 1 0 0;
