#N canvas 1 97 874 669 12;
#X obj -387 -263 r~ \$1-pre-fxall-l;
#X obj -327 -233 r~ \$1-pre-fxall-r;
#X obj -388 433 throw~ \$1-post-fxall-l;
#X obj -347 409 throw~ \$1-post-fxall-r;
#X obj -307 378 switch~;
#X obj -388 349 fx_switch \$0;
#X obj -386 -191 fx_release-pre \$0;
#X obj -387 321 fx_release-post \$0 \$1;
#X obj -429 -262 bng 15 250 50 0 empty empty empty 17 7 0 10 -262144
-1 -1;
#X obj -5 -178 lin-eq-conv 0 127 0 1;
#X msg -5 -153 4 \$1;
#X obj -169 -173 loadbang;
#X msg -169 -113 3 1;
#X obj -5 -207 r \$0-x-to-fx;
#X obj 179 -166 lin-eq-conv 0 127 0 1;
#X msg -17 -53 3 \$1;
#X obj 179 -195 r \$0-y-to-fx;
#X obj 71 -79 *;
#X obj 37 -130 lin-eq-conv 0 127 0.4 1;
#X obj 167 27 cnv 15 20 20 empty empty * 0 12 0 30 -262144 -258113
0;
#X obj 2 2 fx_panel \$0 \$1 \$2 \$3 \$4;
#X obj -244 187 mono-noise-gate2.meh;
#X msg -137 127 135;
#X msg -127 137 50;
#X msg -117 147 500;
#X msg -107 157 500;
#X obj -137 96 t b b b b;
#X obj -169 -143 t b b;
#X obj -244 -25 mono-pureverb-rvs.meh;
#X connect 0 0 6 0;
#X connect 1 0 6 1;
#X connect 5 0 2 0;
#X connect 5 1 3 0;
#X connect 5 2 4 0;
#X connect 6 0 7 0;
#X connect 6 0 21 1;
#X connect 6 0 28 0;
#X connect 6 1 7 1;
#X connect 6 1 21 1;
#X connect 6 1 28 0;
#X connect 7 0 5 0;
#X connect 7 1 5 1;
#X connect 9 0 10 0;
#X connect 10 0 28 1;
#X connect 11 0 27 0;
#X connect 12 0 28 1;
#X connect 13 0 9 0;
#X connect 13 0 18 0;
#X connect 14 0 17 0;
#X connect 15 0 28 1;
#X connect 16 0 14 0;
#X connect 17 0 15 0;
#X connect 18 0 17 1;
#X connect 21 0 7 0;
#X connect 21 0 7 1;
#X connect 22 0 21 2;
#X connect 23 0 21 3;
#X connect 24 0 21 4;
#X connect 25 0 21 5;
#X connect 26 0 22 0;
#X connect 26 1 23 0;
#X connect 26 2 24 0;
#X connect 26 3 25 0;
#X connect 27 0 12 0;
#X connect 27 1 26 0;
#X connect 28 0 21 0;
#X coords 0 -1 1 1 240 70 1 0 0;
