#N canvas 164 78 971 669 12;
#X obj -260 -443 r~ \$1-pre-fxall-l;
#X obj -218 -413 r~ \$1-pre-fxall-r;
#X obj -262 131 throw~ \$1-post-fxall-l;
#X obj -221 111 throw~ \$1-post-fxall-r;
#X obj -180 91 switch~;
#X obj -261 71 fx_switch \$0;
#X obj -288 -440 bng 15 250 50 0 empty empty empty 17 7 0 10 -262144
-1 -1;
#X obj 2 2 fx_panel \$0 \$1 \$2 \$3 \$4;
#X obj -260 -294 diy2/st-pitchshifter;
#X msg -42 -317 0 \$1;
#X obj -114 -367 loadbang;
#X msg -114 -343 1 0.5;
#X msg -15 -188 0 \$1;
#X obj -261 -26 diy2/st-vcf;
#X obj -60 -93 loadbang;
#X msg 24 -73 0 \$1;
#X obj -15 -239 r \$0-y-to-fx;
#X obj -260 -145 diy2/st-highpass;
#X msg 88 -46 1 \$1;
#X msg -60 -69 2 0.5;
#X obj 24 -148 r \$0-y-to-fx;
#X obj 24 -124 t f f;
#X obj -42 -382 r \$0-x-to-fx;
#X text 250 -22 lin-eq-conv 0 127 0.437 0.562;
#X obj 186 -397 r \$0-x-to-fx;
#X obj 186 -350 st-change-velocity \$0 \$1;
#X obj -15 -214 lin-eq-conv 0 127 0 0.75;
#X obj 24 -98 lin-eq-conv 0 127 1 0.8;
#X obj -42 -348 lin-eq-conv 0 127 0.573 0.425;
#X obj 186 -377 lin-eq-conv 0 127 0.5 2;
#X obj 88 -72 lin-eq-conv 0 127 0 0.6;
#X connect 0 0 8 0;
#X connect 1 0 8 1;
#X connect 5 0 2 0;
#X connect 5 1 3 0;
#X connect 5 2 4 0;
#X connect 8 0 17 0;
#X connect 8 1 17 1;
#X connect 9 0 8 2;
#X connect 10 0 11 0;
#X connect 11 0 8 2;
#X connect 12 0 17 2;
#X connect 13 0 5 0;
#X connect 13 1 5 1;
#X connect 14 0 19 0;
#X connect 15 0 13 2;
#X connect 16 0 26 0;
#X connect 17 0 13 0;
#X connect 17 1 13 1;
#X connect 18 0 13 2;
#X connect 19 0 13 2;
#X connect 20 0 21 0;
#X connect 21 0 27 0;
#X connect 21 1 30 0;
#X connect 22 0 28 0;
#X connect 24 0 29 0;
#X connect 26 0 12 0;
#X connect 27 0 15 0;
#X connect 28 0 9 0;
#X connect 29 0 25 0;
#X connect 30 0 18 0;
#X coords 0 -1 1 1 240 70 1 0 0;
