#N canvas 160 82 971 669 12;
#X obj -435 -583 r~ \$1-pre-fxall-l;
#X obj -375 -553 r~ \$1-pre-fxall-r;
#X obj -437 185 throw~ \$1-post-fxall-l;
#X obj -396 153 throw~ \$1-post-fxall-r;
#X obj -355 108 switch~;
#X obj -436 80 fx_switch \$0;
#X obj -462 -583 bng 15 250 50 0 empty empty empty 17 7 0 10 -262144
-1 -1;
#X obj 2 2 fx_panel \$0 \$1 \$2 \$3 \$4;
#X obj -195 -518 r \$0-y-to-fx;
#X obj -434 -456 fx_release-pre \$0;
#X obj -436 45 fx_release-post \$0 \$1;
#X obj -118 -445 r \$0-main-bpm-ms;
#X obj -195 -492 lin-eq-conv 0 127 0 1;
#X obj -61 -415 loadbang;
#X msg -61 -385 0.666;
#X obj -272 -365 st-del-fb-st.meh 20;
#X msg -157 -395 4;
#X obj 44 -351 r \$0-x-to-fx;
#X obj 44 -331 lin-eq-conv 0 127 -1 1;
#X obj 44 -301 st-change-velocity \$0 \$1;
#X connect 0 0 9 0;
#X connect 1 0 9 1;
#X connect 5 0 2 0;
#X connect 5 1 3 0;
#X connect 5 2 4 0;
#X connect 8 0 12 0;
#X connect 9 0 15 0;
#X connect 9 0 10 0;
#X connect 9 1 15 1;
#X connect 9 1 10 1;
#X connect 10 0 5 0;
#X connect 10 1 5 1;
#X connect 11 0 15 4;
#X connect 12 0 15 2;
#X connect 13 0 14 0;
#X connect 13 0 16 0;
#X connect 14 0 15 5;
#X connect 15 0 10 0;
#X connect 15 1 10 1;
#X connect 16 0 15 3;
#X connect 17 0 18 0;
#X connect 18 0 19 0;
#X coords 0 -1 1 1 240 70 1 0 0;
