#N canvas 311 56 842 710 12;
#X msg -182 -264 0 \$1;
#X obj -386 -216 diy2/st-material;
#X obj -181 -287 lin-eq-conv 0 127 0 1;
#X obj -178 -309 hsl 128 15 0 127 0 0 empty empty empty -2 -8 0 10
-262144 -1 -1 400 1;
#X obj -300 -292 loadbang;
#X msg -300 -263 0 0.5;
#X obj 2 2 fx_panel \$0 \$1 \$2 \$3 \$4;
#X obj -508 -343 r~ \$1-pre-fxall-l;
#X obj -450 -313 r~ \$1-pre-fxall-r;
#X obj -507 425 throw~ \$1-post-fxall-l;
#X obj -425 378 switch~;
#X obj -506 349 fx_switch \$0;
#X obj -507 -277 fx_release-pre \$0;
#X obj -466 401 throw~ \$1-post-fxall-r;
#X obj -385 304 fx_release-post \$0 \$1;
#X text 60 -363 Este FX es un agregado al BYPASS;
#X obj -158 -221 r \$0-y-to-fx;
#X obj -540 -360 bng 15 250 50 0 empty empty empty 17 7 0 10 -262144
-1 -1;
#X obj -148 -85 r \$0-main-bpm-ms;
#X obj -158 -197 lin-eq-conv 0 127 0 0.8;
#X obj -206 -129 loadbang;
#X text 56 -154 st-feedback-stereo.meh \; ---------------------- \;
\$1- ms line para pasar de una a otro \; \$2- paneo (0: total \, 1:-mono)
\; \$3- delay adicional del canal derecho;
#X obj -386 -65 st-del-fb-st.meh;
#X msg -206 -104 1;
#X text -176 -106 125ms;
#X msg -247 -263 1 0.6;
#X connect 0 0 1 2;
#X connect 1 0 22 0;
#X connect 1 1 22 1;
#X connect 2 0 0 0;
#X connect 3 0 2 0;
#X connect 4 0 5 0;
#X connect 4 0 25 0;
#X connect 5 0 1 2;
#X connect 7 0 12 0;
#X connect 8 0 12 1;
#X connect 11 0 9 0;
#X connect 11 1 13 0;
#X connect 11 2 10 0;
#X connect 12 0 1 0;
#X connect 12 0 11 0;
#X connect 12 1 1 1;
#X connect 12 1 11 1;
#X connect 14 0 11 0;
#X connect 14 1 11 1;
#X connect 16 0 19 0;
#X connect 18 0 22 4;
#X connect 19 0 22 2;
#X connect 20 0 23 0;
#X connect 22 0 14 0;
#X connect 22 1 14 1;
#X connect 23 0 22 3;
#X connect 25 0 1 2;
#X coords 0 -1 1 1 240 70 1 0 0;
