#N canvas 1 62 760 618 12;
#X text 219 -318 multiply modulation;
#X obj 83 -44 t b f;
#X obj 46 -12 *;
#X floatatom 106 34 0 0 0 0 - - -;
#X obj 46 -65 f;
#X floatatom 136 -24 0 0 0 0 - - -;
#X obj 83 -71 r \$0-main-bpm-ms;
#X obj 46 14 / 500;
#X text 128 -48 corrector BPM;
#X obj 46 -95 line 0 1;
#X obj 99 -156 spigot 1;
#X obj 46 -179 t f f;
#X msg 180 -156 0;
#X text 215 -158 primera vez;
#X msg 46 -125 \$1 20;
#X obj 223 -71 r \$1-main-bpm;
#X floatatom 223 -24 0 0 0 0 - - -;
#X obj 46 -314 route 0 1 2 3 4 5 6 7;
#X msg 366 -264 2;
#X msg 326 -264 1.5;
#X msg 286 -264 1;
#X msg 246 -264 0.75;
#X msg 176 -264 0.666667;
#X msg 136 -264 0.5;
#X msg 86 -264 0.25;
#X msg 46 -264 0.125;
#X obj 106 63 * 1000;
#X floatatom 106 134 0 0 0 0 - - -;
#X text 404 -264 value * beat;
#X text 79 -205 120bpm - default;
#X text 219 129 ms finales de delay;
#X obj 46 -367 inlet;
#X obj 46 93 outlet;
#X text 159 135 max;
#X obj 46 -204 / 2;
#X text 149 122 1000ms;
#X connect 1 0 4 0;
#X connect 1 1 2 1;
#X connect 1 1 5 0;
#X connect 2 0 7 0;
#X connect 3 0 26 0;
#X connect 4 0 2 0;
#X connect 6 0 1 0;
#X connect 7 0 3 0;
#X connect 7 0 32 0;
#X connect 9 0 4 0;
#X connect 10 0 9 0;
#X connect 10 0 12 0;
#X connect 11 0 14 0;
#X connect 11 1 10 0;
#X connect 12 0 10 1;
#X connect 14 0 9 0;
#X connect 15 0 16 0;
#X connect 17 0 25 0;
#X connect 17 1 24 0;
#X connect 17 2 23 0;
#X connect 17 3 22 0;
#X connect 17 4 21 0;
#X connect 17 5 20 0;
#X connect 17 6 19 0;
#X connect 17 7 18 0;
#X connect 18 0 34 0;
#X connect 19 0 34 0;
#X connect 20 0 34 0;
#X connect 21 0 34 0;
#X connect 22 0 34 0;
#X connect 23 0 34 0;
#X connect 24 0 34 0;
#X connect 25 0 34 0;
#X connect 26 0 27 0;
#X connect 31 0 17 0;
#X connect 34 0 11 0;
#X coords 0 -1 1 1 100 60 1 100 100;
