#N canvas 1 97 1012 669 12;
#N canvas 253 275 450 300 switch 0;
#X obj -127 148 pipe 8;
#X obj -212 116 t f f;
#X obj -212 177 line~;
#X obj -230 211 *~;
#X msg -212 141 \$1 5;
#X obj -212 40 r \$0-onoff;
#X text -128 95 SWITCH;
#X text -72 64 ONOFF: usa Switch \; ACTIVADO: suena o no;
#X text -128 107 SWITCH;
#X text -128 119 SWITCH;
#X obj -198 72 tgl 15 0 empty empty empty 17 7 0 10 -262144 -1 -1 0
1;
#X obj -310 211 *~;
#X obj -309 10 inlet~ l;
#X obj -229 10 inlet~ r;
#X obj -310 263 outlet~ l;
#X obj -230 263 outlet~ r;
#X obj -127 263 outlet switch;
#X connect 0 0 16 0;
#X connect 1 0 4 0;
#X connect 1 1 0 0;
#X connect 2 0 3 1;
#X connect 2 0 11 1;
#X connect 3 0 15 0;
#X connect 4 0 2 0;
#X connect 5 0 1 0;
#X connect 5 0 10 0;
#X connect 11 0 14 0;
#X connect 12 0 11 0;
#X connect 13 0 3 0;
#X restore -585 159 pd switch;
#X text -650 -181 X X X X;
#X text -650 -161 X X X X;
#X text -650 -141 X X X X;
#X text -650 -121 X X X X;
#X text -655 56 Y Y Y Y;
#X text -655 76 Y Y Y Y;
#X text -655 96 Y Y Y Y;
#X text -655 116 Y Y Y Y;
#N canvas 776 206 450 479 post-loadbang__ 0;
#X obj -318 113 s \$0-fx-name;
#X obj -45 -162 s \$0-fx-num;
#X obj -318 -241 inlet;
#X obj -45 -241 inlet;
#X obj -318 -142 symbol;
#X obj -180 -122 r \$1-fxgroup&fx-select;
#X obj -180 0 route;
#X obj -148 -26 r \$0-fx-num;
#X obj -180 55 symbol;
#X msg -180 31 bang;
#X obj -180 113 s \$1-main-fx-name;
#X obj -175 -241 inlet;
#X obj -175 -161 s \$0-fx-group;
#X obj -220 -241 inlet;
#X obj -265 -241 inlet;
#X obj -180 -60 route;
#X obj -148 -86 r \$0-fx-group;
#X obj -134 75 bng 15 250 50 0 empty empty empty 17 7 0 10 -262144
-1 -1;
#X connect 2 0 4 0;
#X connect 3 0 1 0;
#X connect 4 0 0 0;
#X connect 4 0 8 1;
#X connect 5 0 15 0;
#X connect 6 0 9 0;
#X connect 7 0 6 1;
#X connect 8 0 10 0;
#X connect 8 0 17 0;
#X connect 9 0 8 0;
#X connect 11 0 12 0;
#X connect 15 0 6 0;
#X connect 16 0 15 1;
#X restore 29 -161 pd post-loadbang__;
#N canvas 713 371 450 300 pre-loadbang___ 0;
#X obj -280 -303 loadbang;
#X obj -280 -283 t b b b;
#X obj -280 -211 outlet;
#X obj -86 -217 outlet;
#X obj -27 -220 outlet;
#X obj -204 -211 outlet;
#X obj -149 -216 outlet;
#X connect 0 0 1 0;
#X connect 1 0 2 0;
#X connect 1 1 3 0;
#X connect 1 2 4 0;
#X restore 29 -232 pd pre-loadbang___;
#X obj -587 -313 r~ \$1-pre-fxall-l;
#X obj -543 -283 r~ \$1-pre-fxall-r;
#X obj -585 265 throw~ \$1-post-fxall-l;
#X obj -554 241 throw~ \$1-post-fxall-r;
#X obj -525 188 switch~;
#X text -467 186 frena todo los \; subpatches y abstracts;
#X floatatom 3 28 5 0 0 0 - - -;
#X symbolatom 3 48 15 0 0 0 - - -;
#X obj -102 28 r \$0-fx-name;
#X obj 144 -95 r \$1-fxall-x;
#X obj 147 54 hsl 80 10 0 127 0 0 empty empty empty -2 -8 0 10 -262144
-1 -1 5039 1;
#X text 124 33 X;
#X text 125 49 Y;
#X obj 144 -65 r \$1-fxall-y;
#X obj 144 116 s \$0-x-to-fx;
#X obj 144 145 s \$0-y-to-fx;
#X obj 147 42 hsl 80 10 0 127 0 0 empty empty empty -2 -8 0 10 -262144
-1 -1 62 1;
#X obj -377 -92 r \$0-y-to-fx;
#X msg -377 -38 0 \$1;
#X obj -586 -160 diy2/st-lowpass;
#X msg -411 -203 0 \$1;
#X obj -411 -228 lin-eq-conv 0 127 0 1;
#X obj -349 -283 r \$0-x-to-fx;
#X obj -448 19 diy2/st-vcf2pole;
#X obj -377 -63 lin-eq-conv 0 127 1 0.4;
#X floatatom 73 28 5 0 0 0 - - -;
#X obj 73 -22 r \$0-fx-num;
#X obj -102 8 r \$0-fx-group;
#X obj 121 -197 \$3;
#X obj 152 -197 \$4;
#X obj 29 -197 symbol \$2;
#X text 207 -226 \$1 PADRE \; \$2 NOMBRE \; \$3 GRUPO \; \$4 NUMERO
;
#X obj 230 1 tgl 10 0 empty empty empty 17 7 0 10 -262144 -1 -262144
0 1;
#X obj 220 1 tgl 10 0 empty empty empty 17 7 0 10 -262144 -1 -262144
0 1;
#N canvas 786 97 466 592 blinks 1;
#X obj 128 212 s \$0-onoff;
#X obj 57 238 s \$0-activado;
#X obj 14 -76 route;
#X msg 14 -19 1;
#X msg 59 -19 0;
#X obj 46 -102 r \$0-fx-num;
#X obj -49 -251 r \$1-fxall-activado;
#X msg 124 59 color \$1;
#X msg 170 28 13;
#X msg 124 28 16;
#X obj 124 1 route 0;
#X obj 96 184 t f f;
#X obj 57 212 spigot;
#X text 76 267 si no esta ON \; no se puede activar;
#X obj -38 105 inlet;
#X obj 27 100 inlet;
#X obj -49 48 outlet;
#X obj 12 46 outlet;
#X obj -49 19 spigot;
#X obj 14 -135 route;
#X obj 46 -161 r \$0-fx-group;
#X obj 14 -198 r \$1-fxgroup&fx-select;
#X obj 59 -46 r \$1-fx-none;
#X obj 186 -166 l2s;
#X symbolatom 186 -136 0 0 0 0 - - -;
#X connect 2 0 3 0;
#X connect 3 0 9 0;
#X connect 3 0 17 0;
#X connect 3 0 18 1;
#X connect 4 0 7 0;
#X connect 4 0 17 0;
#X connect 4 0 18 1;
#X connect 5 0 2 1;
#X connect 6 0 18 0;
#X connect 7 0 16 0;
#X connect 8 0 7 0;
#X connect 9 0 7 0;
#X connect 10 0 9 0;
#X connect 10 1 8 0;
#X connect 11 0 12 1;
#X connect 11 1 0 0;
#X connect 12 0 1 0;
#X connect 14 0 12 0;
#X connect 14 0 10 0;
#X connect 15 0 11 0;
#X connect 18 0 16 0;
#X connect 19 0 2 0;
#X connect 20 0 19 1;
#X connect 21 0 19 0;
#X connect 21 0 23 0;
#X connect 22 0 4 0;
#X connect 23 0 24 0;
#X restore 195 -33 pd blinks;
#X connect 0 0 13 0;
#X connect 0 1 14 0;
#X connect 0 2 15 0;
#X connect 10 0 41 0;
#X connect 10 3 39 0;
#X connect 10 4 40 0;
#X connect 11 0 30 0;
#X connect 12 0 30 1;
#X connect 19 0 18 0;
#X connect 20 0 27 0;
#X connect 21 0 26 0;
#X connect 24 0 21 0;
#X connect 27 0 25 0;
#X connect 28 0 35 0;
#X connect 29 0 34 2;
#X connect 30 0 0 0;
#X connect 30 1 0 1;
#X connect 31 0 30 2;
#X connect 32 0 31 0;
#X connect 33 0 32 0;
#X connect 35 0 29 0;
#X connect 37 0 36 0;
#X connect 38 0 17 0;
#X connect 39 0 9 3;
#X connect 40 0 9 4;
#X connect 41 0 9 0;
#X connect 43 0 45 1;
#X connect 44 0 45 0;
#X connect 45 0 44 0;
#X connect 45 1 43 0;
#X coords 0 -1 1 1 240 70 1 0 0;
