#N canvas 493 37 698 598 12;
#X msg 203 430 stop;
#X obj 187 520 t b b;
#X obj 97 586 + 1;
#X obj 126 554 route 8;
#X msg 144 494 0;
#X obj 126 524 0;
#X obj 126 410 t b b b;
#X obj 172 596 t f f f;
#X obj 126 467 metro 25;
#X floatatom 194 650 5 0 0 0 - - -;
#X obj 180 388 bng 15 250 50 0 empty empty empty 17 7 0 10 -262144
-1 -1;
#X obj 218 702 outlet;
#X obj 126 354 inlet;
#X floatatom 314 320 5 0 0 0 - - -;
#X floatatom 383 320 5 0 0 0 - - -;
#X floatatom 452 320 5 0 0 0 - - -;
#X obj 314 295 \$1;
#X obj 383 295 \$2;
#X obj 452 295 \$3;
#X obj 314 142 loadbang;
#X obj 314 227 t b b b b;
#X obj 383 346 t f f;
#X obj 452 346 t f f;
#X msg 315 379 set \$1;
#X obj 314 349 t b f;
#X text 345 295 de;
#X text 417 295 a;
#X text 479 294 metro;
#X obj 514 225 unpack f f f;
#X obj 445 131 lin-eq-conv;
#X obj 394 86 inlet;
#X obj 394 205 t b b b b a;
#X obj 367 445 + 1;
#X connect 0 0 8 0;
#X connect 1 0 4 0;
#X connect 1 1 0 0;
#X connect 2 0 5 1;
#X connect 3 0 1 0;
#X connect 3 1 7 0;
#X connect 4 0 5 1;
#X connect 5 0 3 0;
#X connect 6 0 8 0;
#X connect 6 1 4 0;
#X connect 6 2 0 0;
#X connect 7 0 2 0;
#X connect 7 1 9 0;
#X connect 7 2 11 0;
#X connect 8 0 5 0;
#X connect 10 0 6 0;
#X connect 12 0 6 0;
#X connect 13 0 24 0;
#X connect 14 0 21 0;
#X connect 15 0 22 0;
#X connect 16 0 13 0;
#X connect 17 0 14 0;
#X connect 18 0 15 0;
#X connect 19 0 20 0;
#X connect 20 0 16 0;
#X connect 20 1 17 0;
#X connect 20 2 18 0;
#X connect 21 1 32 0;
#X connect 22 1 8 1;
#X connect 23 0 4 0;
#X connect 24 0 4 0;
#X connect 24 1 23 0;
#X connect 28 0 16 1;
#X connect 28 1 17 1;
#X connect 28 2 18 1;
#X connect 30 0 31 0;
#X connect 31 1 16 0;
#X connect 31 2 17 0;
#X connect 31 3 18 0;
#X connect 31 4 28 0;
#X connect 32 0 3 1;
