#N canvas 857 111 457 614 12;
#X obj 59 284 bng 15 250 50 0 empty empty empty 17 7 0 10 -262144 -1
-1;
#X obj 49 666 outlet;
#X obj 49 253 inlet;
#X floatatom 144 200 5 0 0 0 - - -;
#X floatatom 213 200 5 0 0 0 - - -;
#X floatatom 305 200 5 0 0 0 - - -;
#X obj 144 175 \$1;
#X obj 213 175 \$2;
#X obj 305 175 \$3;
#X obj 144 22 loadbang;
#X obj 144 107 t b b b b;
#X obj 213 226 t f f;
#X obj 305 286 t f f;
#X msg 144 319 set \$1;
#X text 175 175 de;
#X text 247 175 a;
#X text 332 174 metro;
#X obj 344 105 unpack f f f;
#X obj 224 20 inlet;
#X obj 224 85 t b b b b a;
#X obj 287 316 *;
#X msg 213 376 set \$1 \$2;
#X msg 49 396 10 1000;
#X obj 49 426 line 0 100;
#X obj 337 406 t f;
#X obj 49 309 t b b;
#X obj 69 696 outlet;
#X obj 89 726 outlet;
#X obj 167 79 bng 15 250 50 0 empty empty empty 17 7 0 10 -262144 -1
-1;
#X obj 213 346 list append;
#X obj 49 636 t f f f f;
#X obj 109 756 outlet;
#X obj 227 266 f;
#X obj 227 296 -;
#X floatatom 227 325 5 0 0 0 - - -;
#X obj 144 226 t f b b f;
#X obj 189 286 f;
#X msg 81 339 0;
#X msg 81 576 set \$1;
#X obj 49 456 t f f;
#X obj 81 516 + 1;
#X obj 81 546 t f b;
#X obj 81 486 spigot 1;
#X msg 136 546 0;
#X obj 49 606 change;
#X connect 0 0 25 0;
#X connect 2 0 25 0;
#X connect 3 0 35 0;
#X connect 4 0 11 0;
#X connect 5 0 12 0;
#X connect 6 0 3 0;
#X connect 7 0 4 0;
#X connect 8 0 5 0;
#X connect 9 0 10 0;
#X connect 10 0 6 0;
#X connect 10 1 7 0;
#X connect 10 2 8 0;
#X connect 11 0 36 1;
#X connect 11 1 32 1;
#X connect 12 0 20 1;
#X connect 12 1 24 0;
#X connect 13 0 37 0;
#X connect 17 0 6 1;
#X connect 17 1 7 1;
#X connect 17 2 8 1;
#X connect 18 0 19 0;
#X connect 19 1 6 0;
#X connect 19 2 7 0;
#X connect 19 3 8 0;
#X connect 19 4 17 0;
#X connect 20 0 29 1;
#X connect 21 0 22 0;
#X connect 22 0 23 0;
#X connect 23 0 39 0;
#X connect 24 0 23 2;
#X connect 25 0 22 0;
#X connect 25 1 37 0;
#X connect 28 0 10 0;
#X connect 29 0 21 0;
#X connect 30 0 1 0;
#X connect 30 1 26 0;
#X connect 30 2 27 0;
#X connect 30 3 31 0;
#X connect 32 0 33 0;
#X connect 33 0 20 0;
#X connect 33 0 34 0;
#X connect 35 0 13 0;
#X connect 35 1 36 0;
#X connect 35 2 32 0;
#X connect 35 3 33 1;
#X connect 36 0 29 0;
#X connect 37 0 23 0;
#X connect 38 0 44 0;
#X connect 39 0 44 0;
#X connect 39 1 42 0;
#X connect 40 0 41 0;
#X connect 41 0 38 0;
#X connect 41 1 43 0;
#X connect 42 0 40 0;
#X connect 43 0 42 1;
#X connect 44 0 30 0;
