#N canvas 149 107 898 628 12;
#X obj 457 467 cnv 15 180 30 empty empty empty 20 12 0 14 -228856 -66577
0;
#X obj 418 468 cnv 15 120 30 empty empty empty 20 12 0 14 -204800 -66577
0;
#X obj 421 430 cnv 15 90 30 empty empty empty 20 12 0 14 -159808 -66577
0;
#X obj 329 496 cnv 15 180 30 empty empty empty 20 12 0 14 -257985 -66577
0;
#X obj 474 364 cnv 15 80 30 empty empty empty 20 12 0 14 -204786 -66577
0;
#X floatatom 734 12 10 0 0 0 - - -;
#X obj 583 12 hsl 128 15 0 32000 0 0 empty empty empty -2 -8 0 10 -262144
-1 -1 0 1;
#X obj 580 92 hsl 128 15 0 32000 0 0 empty empty empty -2 -8 0 10 -262144
-1 -1 596 1;
#X floatatom 731 92 10 0 0 0 - - -;
#X obj 583 27 hsl 128 15 0 4000 0 0 empty empty empty -2 -8 0 10 -262144
-1 -1 0 1;
#X obj 580 107 hsl 128 15 0 4000 0 0 empty empty empty -2 -8 0 10 -262144
-1 -1 4772 1;
#X obj 51 23 vu 10 80 \$0-vu-out empty -1 -8 0 10 -45076 -262144 1
0;
#X obj 4 22 tgl 40 0 empty \$0-toggle empty 17 7 0 10 -24198 -1 -262144
1 1;
#X obj 62 23 vsl 15 80 0 6 0 1 empty empty empty 0 -9 0 10 -262144
-1 -1 1317 1;
#X obj 150 106 s \$0-vol;
#X text 8 60 BANK;
#X obj 722 388 r \$0-this-modo;
#X floatatom 722 408 5 0 0 0 - - -;
#X text 585 -104 PISTAS (stereo);
#X obj 580 -8 r \$0-bank-array-pos;
#X obj 220 -11 r \$1-osc-banks;
#X obj 711 180 r \$1-main-modo;
#X floatatom 711 200 5 0 0 0 - - -;
#X text 218 -33 desde la Tablet;
#X text 8 -107 toggle-set solo Pd;
#N canvas 3 84 1342 636 toggle-colors-seteos 0;
#X obj -209 -114 inlet;
#X msg 170 -219 1;
#X msg -150 -218 2;
#X msg -110 -218 3;
#X msg 32 -129 14;
#X msg 276 -134 16;
#X msg 230 -134 10;
#X msg 331 -134 13;
#X msg -7 -129 15;
#X obj 677 -306 loadbang;
#X msg -190 -218 1;
#X obj 230 -194 f;
#X msg 128 -219 0;
#X obj 230 -166 route 0;
#X floatatom -14 -282 5 0 0 0 - - -;
#X floatatom 272 -284 5 0 0 0 - - -;
#X obj -101 626 s \$0-toggle-set;
#X text -216 -153 ENTRADA \; TOGGLE;
#X text 369 -135 <- colores Pd;
#X obj 717 -172 s \$0-this-modo;
#X msg 717 -199 0;
#X text 331 310 THIS-FILLED \; 0-sin-sample \; 1-con-sample \;;
#X msg 737 -250 0;
#X obj 737 -223 s \$0-this-filled;
#X text 773 -248 inicializa en modo gris;
#X obj -110 481 r \$0-this-filled;
#X text 24 625 A setearlo;
#X text -117 521 Si tiene algo grabado \, anda;
#X obj 332 -306 r \$0-this-modo;
#X floatatom 434 -286 5 0 0 0 - - -;
#X msg 464 -220 6;
#X obj 140 -304 r \$0-this-filled;
#X obj 140 -253 route 0 1;
#X msg 10 -218 6;
#X text 835 390 Envia estado de bank;
#X obj 714 520 s \$1-envio-mensajes;
#X text 869 372 TABLET;
#X obj 697 66 r \$0-toggle-set;
#X msg 714 490 send /1/bank\$1\$2/toggle \$3;
#X obj 825 86 tgl 15 0 empty empty empty 17 7 0 10 -262144 -1 -1 1
1;
#X text 616 -309 PD;
#X obj 616 -288 tgl 40 0 empty \$0-toggle empty 17 7 0 10 -241291 -1
-262144 0 1;
#X msg 767 119 set \$1;
#X obj -101 545 t f f f;
#X obj -55 576 s \$0-this-modo;
#X msg -70 -218 4;
#X msg -30 -218 5;
#X msg 69 -130 17;
#X msg 109 -130 29;
#X floatatom 732 283 5 0 0 0 - - -;
#X obj 732 307 change;
#X obj -20 155 r \$0-this-modo;
#X obj -191 525 route 0 1;
#X msg -191 606 0;
#X obj -116 -302 r \$1-main-modo;
#X obj 732 333 s \$1-main-banks-playing;
#X obj -101 175 list prepend;
#X obj -191 501 list prepend;
#X obj -209 -62 list prepend;
#X obj -27 364 r \$0-this-modo;
#X obj -119 384 list prepend;
#X obj -119 404 route 1;
#X text -22 388 Si esta playing;
#X text -135 445 Start overdub;
#X obj -178 -186 bng 15 250 50 0 empty empty empty 17 7 0 10 -262144
-1 -1;
#X obj -138 -186 bng 15 250 50 0 empty empty empty 17 7 0 10 -262144
-1 -1;
#X obj -98 -186 bng 15 250 50 0 empty empty empty 17 7 0 10 -262144
-1 -1;
#X obj -58 -186 bng 15 250 50 0 empty empty empty 17 7 0 10 -262144
-1 -1;
#X obj -18 -186 bng 15 250 50 0 empty empty empty 17 7 0 10 -262144
-1 -1;
#X obj 22 -186 bng 15 250 50 0 empty empty empty 17 7 0 10 -262144
-1 -1;
#X obj 142 -186 bng 15 250 50 0 empty empty empty 17 7 0 10 -262144
-1 -1;
#X obj 182 -186 bng 15 250 50 0 empty empty empty 17 7 0 10 -262144
-1 -1;
#X obj 484 -186 bng 15 250 50 0 empty empty empty 17 7 0 10 -262144
-1 -1;
#X obj 332 -255 route 0 1 2 3 4 5 6;
#X msg 424 -220 5;
#X msg 384 -220 4;
#X obj 298 11 r \$0-this-modo;
#X obj 217 31 list prepend;
#X obj 217 51 route 4;
#X obj 217 -19 r \$1-looping-to-overdub;
#X obj 217 78 t b b b;
#X msg 272 174 5;
#X text 311 177 Modo overdub;
#X obj 272 194 s \$1-main-modo;
#X text 453 287 THIS-MODO \; 0-not playing \; 1-playing \; 2-para grabar
!!! NO SE USA MAS \; 3 \; 4-looping \; 5-overdubing \; 6-recording
\;;
#X obj 737 -67 s \$0-switch-sampler;
#X obj 717 -37 s \$0-switch-looping;
#X obj 697 -7 s \$0-switch-overdub;
#X obj 757 -97 s \$0-switch-play;
#X obj 677 -280 t b b b b;
#X msg 697 -146 0;
#X obj 697 -122 t f f f f;
#X obj -78 601 s \$0-play-mute;
#X floatatom 53 565 5 0 0 0 - - -;
#N canvas 241 420 641 302 after-resample 0;
#X obj 44 29 r \$1-all-after-resample;
#X obj 129 77 r \$0-this-after-resample;
#X msg 129 107 0;
#X obj 44 59 t b b;
#X msg 86 107 1;
#X obj 76 157 spigot 1;
#X msg 76 187 0;
#X obj 76 217 outlet;
#X text 198 145 Si el bank resampleó \, recibe primero el 0 para el
spigot. Después \, t.o.d.o.s reciben el 0 para mutear. El que resampleó
\, no lo deja pasar y libera el spigot.;
#X connect 0 0 3 0;
#X connect 1 0 2 0;
#X connect 2 0 5 1;
#X connect 3 0 4 0;
#X connect 3 1 5 0;
#X connect 4 0 5 1;
#X connect 5 0 6 0;
#X connect 6 0 7 0;
#X restore -262 -272 pd after-resample;
#X obj 641 38 cnv 15 30 20 empty empty TABLET:_Envía_estado_del_Bank
0 10 0 20 -262144 -66577 0;
#X obj 771 -292 cnv 15 30 20 empty empty LOADBANG 0 10 0 20 -262144
-66577 0;
#X obj -101 195 route 4 5 6;
#X obj -52 314 s \$0-toggle-pd-set;
#X msg -52 288 set \$1;
#X text 2 278 Si esta grabando \; el toggle no funca.;
#X msg 50 -218 7;
#X obj 328 496 bng 15 250 50 0 empty empty empty 17 7 0 10 -262144
-1 -1;
#X floatatom 334 52 5 0 0 0 - - -;
#X obj 224 8 bng 15 250 50 0 empty empty empty 17 7 0 10 -262144 -1
-1;
#X text 393 -18 Para overdub directo del looping;
#X obj 240 138 t b b;
#X obj 240 108 delay 6;
#X text 300 98 termina fade out de looping \; (looping termina con
un fade de 5ms);
#X msg 149 -130 23;
#X obj 24 -93 cnv 15 160 50 empty empty empty 20 12 0 14 -204800 -66577
0;
#X obj 219 -93 cnv 15 180 50 empty empty empty 20 12 0 14 -204800 -66577
0;
#N canvas 774 379 487 300 toggle-pd-color 0;
#X obj 31 32 inlet;
#X obj 293 101 \$0;
#X obj 293 131 list;
#X obj 293 71 t b f;
#X floatatom 293 38 5 0 0 0 - - -;
#X obj 369 58 tgl 50 0 empty \$0-toggle-test empty 17 7 0 10 -143491
-1 -262144 0 1;
#X msg 293 169 \; \$1-toggle-test color \$2;
#X text 351 132 TEST-COLORES;
#X obj 31 62 list prepend \$3;
#X obj 31 92 list prepend \$2;
#X obj 31 118 list prepend \$1;
#X obj 31 148 list prepend \$0;
#X msg 31 178 \; \$1-toggle-pd-set color \$5 \; \$2-toggle-pd-set-\$3\$4
color \$5;
#X connect 0 0 8 0;
#X connect 1 0 2 0;
#X connect 2 0 6 0;
#X connect 3 0 1 0;
#X connect 3 1 2 1;
#X connect 4 0 3 0;
#X connect 8 0 9 0;
#X connect 9 0 10 0;
#X connect 10 0 11 0;
#X connect 11 0 12 0;
#X restore 39 -78 pd toggle-pd-color;
#N canvas 505 142 571 624 toggle-tablet-color 0;
#X msg 72 54 symbol gray;
#X msg 111 86 symbol green;
#X msg 166 52 symbol orange;
#X msg 166 116 symbol yellow;
#X msg 210 85 symbol red;
#X msg 47 346 send /1/\$1/bank\$2/color \$3;
#X text 124 -57 Envia color de bank;
#X obj 47 377 s \$1-envio-mensajes;
#X text 171 -76 TABLET;
#X obj 47 -118 inlet;
#X msg 305 85 symbol blue;
#X msg 293 52 symbol purple;
#X obj 72 171 prepend \$3;
#X obj 47 -57 t b f b;
#X obj 47 210 symbol \$2;
#X obj 47 254 list;
#X msg 69 -86 10;
#X obj 72 13 select 10 16 14 15 13 17 29 23;
#X msg 276 116 symbol brown;
#X obj 47 284 t l l;
#X msg 79 316 send /3/\$1/bank\$2/color \$3;
#X connect 0 0 12 0;
#X connect 1 0 12 0;
#X connect 2 0 12 0;
#X connect 3 0 12 0;
#X connect 4 0 12 0;
#X connect 5 0 7 0;
#X connect 9 0 13 0;
#X connect 10 0 12 0;
#X connect 11 0 12 0;
#X connect 12 0 15 1;
#X connect 13 0 14 0;
#X connect 13 1 17 0;
#X connect 14 0 15 0;
#X connect 15 0 19 0;
#X connect 16 0 13 0;
#X connect 17 0 0 0;
#X connect 17 1 1 0;
#X connect 17 2 2 0;
#X connect 17 3 3 0;
#X connect 17 4 4 0;
#X connect 17 5 10 0;
#X connect 17 6 11 0;
#X connect 17 7 18 0;
#X connect 18 0 12 0;
#X connect 19 0 5 0;
#X connect 19 1 20 0;
#X connect 20 0 7 0;
#X restore 229 -79 pd toggle-tablet-color;
#X text 510 -161 15 amar \; 14 naranja \; 17 celeste \; 29 violeta
\; 10 gris \; 16 verde \; 13 rojo;
#X obj 799 222 s;
#X obj 856 202 symbol;
#X msg 856 182 \$1-toggle-pd-set-\$2\$3;
#X obj 856 152 list append \$3;
#X obj 856 132 list append \$2;
#X obj 767 244 s \$0-toggle-pd-set;
#X obj 767 149 t a a;
#X obj 856 112 \$1;
#X obj 871 75 bng 15 250 50 0 empty empty empty 17 7 0 10 -262144 -1
-1;
#X obj 714 380 list prepend \$3;
#X obj 714 400 list prepend \$2;
#X obj 697 92 t f f f f f b;
#X obj -101 227 s \$0-looping-stop;
#X obj -139 55 s \$0-looping-start;
#X obj -174 25 s \$0-sample-start;
#X obj -9 256 s \$0-overdub-stop;
#X obj -119 424 s \$0-overdub-start;
#X obj -83 90 s \$0-save-banks;
#X text 169 291 MODOS \; 0- \; 1-play-ready \; 2-sample-ready \; 3-resample-ready
\; 4-looping-ready \; 5-overdub-ready \; 6-recording \; 7-save-banks
\;;
#X obj -116 -255 route 0 1 2 3 4 5 6 7 8;
#X text 177 4 pd;
#X text 29 89 pd;
#X obj -209 -22 route 0 1 2 3 4 5 6 7;
#X text -13 -15 auto-guarda banks a1 y a2;
#X obj 24 8 s \$0-save-banks-1a-2a;
#X obj 714 430 t l l;
#X msg 746 460 send /3/bank\$1\$2/toggle \$3;
#X connect 0 0 58 0;
#X connect 1 0 11 1;
#X connect 1 0 58 1;
#X connect 1 0 71 0;
#X connect 2 0 58 1;
#X connect 2 0 65 0;
#X connect 3 0 58 1;
#X connect 3 0 66 0;
#X connect 4 0 113 0;
#X connect 4 0 112 0;
#X connect 5 0 113 0;
#X connect 5 0 112 0;
#X connect 6 0 113 0;
#X connect 6 0 112 0;
#X connect 7 0 113 0;
#X connect 7 0 112 0;
#X connect 8 0 113 0;
#X connect 8 0 112 0;
#X connect 9 0 89 0;
#X connect 10 0 58 1;
#X connect 10 0 64 0;
#X connect 11 0 13 0;
#X connect 12 0 11 1;
#X connect 12 0 58 1;
#X connect 12 0 70 0;
#X connect 13 0 6 0;
#X connect 13 1 5 0;
#X connect 20 0 19 0;
#X connect 22 0 23 0;
#X connect 25 0 57 1;
#X connect 28 0 29 0;
#X connect 28 0 73 0;
#X connect 30 0 7 0;
#X connect 30 0 72 0;
#X connect 31 0 15 0;
#X connect 31 0 32 0;
#X connect 32 0 12 0;
#X connect 32 1 1 0;
#X connect 33 0 58 1;
#X connect 33 0 69 0;
#X connect 37 0 39 0;
#X connect 37 0 126 0;
#X connect 38 0 35 0;
#X connect 42 0 121 0;
#X connect 43 0 16 0;
#X connect 43 1 92 0;
#X connect 43 2 44 0;
#X connect 43 2 93 0;
#X connect 45 0 47 0;
#X connect 45 0 58 1;
#X connect 45 0 67 0;
#X connect 46 0 48 0;
#X connect 46 0 58 1;
#X connect 46 0 68 0;
#X connect 47 0 113 0;
#X connect 47 0 112 0;
#X connect 48 0 113 0;
#X connect 48 0 112 0;
#X connect 49 0 50 0;
#X connect 50 0 55 0;
#X connect 51 0 56 1;
#X connect 52 0 53 0;
#X connect 52 1 43 0;
#X connect 53 0 16 0;
#X connect 54 0 14 0;
#X connect 54 0 134 0;
#X connect 56 0 97 0;
#X connect 57 0 52 0;
#X connect 58 0 137 0;
#X connect 59 0 60 1;
#X connect 60 0 61 0;
#X connect 61 0 131 0;
#X connect 73 4 75 0;
#X connect 73 5 74 0;
#X connect 73 6 30 0;
#X connect 74 0 7 0;
#X connect 75 0 7 0;
#X connect 76 0 77 1;
#X connect 76 0 103 0;
#X connect 77 0 78 0;
#X connect 78 0 80 0;
#X connect 79 0 77 0;
#X connect 79 0 104 0;
#X connect 80 1 107 0;
#X connect 80 2 127 0;
#X connect 81 0 83 0;
#X connect 89 1 90 0;
#X connect 89 2 20 0;
#X connect 89 3 22 0;
#X connect 90 0 91 0;
#X connect 91 0 87 0;
#X connect 91 1 86 0;
#X connect 91 2 85 0;
#X connect 94 0 58 0;
#X connect 97 0 127 0;
#X connect 97 1 130 0;
#X connect 97 2 99 0;
#X connect 99 0 98 0;
#X connect 101 0 109 0;
#X connect 101 0 58 1;
#X connect 106 0 131 0;
#X connect 106 1 81 0;
#X connect 107 0 106 0;
#X connect 109 0 113 0;
#X connect 109 0 112 0;
#X connect 116 0 115 1;
#X connect 117 0 116 0;
#X connect 118 0 117 0;
#X connect 119 0 118 0;
#X connect 121 0 120 0;
#X connect 121 1 115 0;
#X connect 122 0 119 0;
#X connect 123 0 122 0;
#X connect 124 0 125 0;
#X connect 125 0 140 0;
#X connect 126 1 124 0;
#X connect 126 2 49 0;
#X connect 126 4 42 0;
#X connect 126 5 122 0;
#X connect 134 1 10 0;
#X connect 134 1 11 0;
#X connect 134 2 2 0;
#X connect 134 2 8 0;
#X connect 134 3 3 0;
#X connect 134 3 4 0;
#X connect 134 4 45 0;
#X connect 134 5 46 0;
#X connect 134 6 33 0;
#X connect 134 7 101 0;
#X connect 134 8 139 0;
#X connect 137 1 57 0;
#X connect 137 2 129 0;
#X connect 137 3 129 0;
#X connect 137 4 128 0;
#X connect 137 5 60 0;
#X connect 137 6 56 0;
#X connect 137 7 132 0;
#X connect 140 0 38 0;
#X connect 140 1 141 0;
#X connect 141 0 35 0;
#X restore 4 139 pd toggle-colors-seteos;
#X floatatom 220 73 5 0 0 0 - - -;
#X obj 223 58 bng 15 250 50 0 empty empty empty 17 7 0 10 -262144 -1
-1;
#X text 289 32 rutea si este es el bank;
#X text 578 295 THIS-FILLED \; 0-sin-sample \; 1-con-sample \;;
#X floatatom 719 320 5 0 0 0 - - -;
#X obj 719 300 r \$0-this-filled;
#X text 579 369 THIS-MODO \; 0-not playing \; 1-playing \; 2-para grabar
\; 3 \; 4-recording-looping \; 5 \; 6-recording \;;
#X obj 220 9 route \$2;
#X obj 220 29 route \$3;
#N canvas 171 85 816 681 overdub 0;
#X text 628 -52 MODOS \; 0- \; 1-play-ready \; 2-sample-ready \; 3-resample-ready
\; 4-looping \; 5-overdub \; 6-recording \;;
#X obj 225 83 s \$0-toggle-set;
#X msg 225 63 1;
#X obj 148 142 s \$0-this-modo;
#X obj 187 113 s \$1-main-modo;
#X text 628 121 THIS-MODO \; 0-not playing \; 1-playing \; 2-para grabar
\; 3 \; 4-looping \; 5-overdubing \; 6-recording \;;
#X msg 187 93 6;
#X msg 148 122 5;
#X msg 130 -50 1;
#X msg 350 -51 0;
#X obj 130 186 t f;
#X obj 218 -59 bng 15 250 50 0 empty empty empty 17 7 0 10 -262144
-1 -1;
#X obj 440 -59 bng 15 250 50 0 empty empty empty 17 7 0 10 -262144
-1 -1;
#X obj 350 166 t f;
#X obj -21 87 loadbang;
#X obj 130 312 line~;
#X obj 411 377 *~;
#X obj 112 377 *~;
#X obj 155 206 tgl 15 0 empty empty empty 17 7 0 10 -262144 -1 -1 0
1;
#X msg 25 166 0;
#X obj 130 235 route 0 1;
#X text 190 263 little fade;
#X text 219 321 mic-r;
#X text 519 321 mic-l;
#X obj 445 83 s \$0-toggle-set;
#X msg 445 63 1;
#X obj 368 142 s \$0-this-modo;
#X obj 407 113 s \$1-main-modo;
#X msg 368 122 1;
#X msg 407 93 1;
#X text 170 -48 START;
#X msg 2 200 mute 1;
#X obj -21 253 s \$0-ipoke-options;
#X obj 264 53 s \$0-ipoke-options;
#X obj 130 -22 t f b b b b;
#X obj 484 53 s \$0-ipoke-options;
#X obj 350 -22 t f b b b b;
#X msg 264 33 mute 0;
#X msg 484 33 mute 1;
#X msg -21 225 overdub 1;
#X obj -21 126 t b b b;
#X obj 484 13 delay 100;
#X text 451 -20 por el delay line;
#X obj 264 13 delay 100;
#X text 221 -19 por el delay line;
#X text 457 244 phasor~ del play;
#X obj 441 266 r~ \$0-phasor-play;
#X obj 317 -104 r \$0-cancel-sample;
#X text 170 -58 START;
#X obj -21 -12 r \$0-switch-overdub;
#X obj -21 43 switch~;
#X obj 635 363 vu-out~ \$0;
#X obj -21 18 tgl 15 0 empty empty empty 17 7 0 10 -262144 -1 -1 0
1;
#X obj -37 -104 bng 15 250 50 0 empty empty empty 17 7 0 10 -262144
-1 -1;
#X obj 202 206 s \$0-switch-overdub;
#X obj 472 -102 cnv 15 30 20 empty empty STOP_(cancel) 0 10 0 20 -262144
-258113 0;
#X obj 8 -65 cnv 15 30 20 empty empty OVERDUB 0 10 0 20 -262144 -258113
0;
#X obj 112 406 delwrite~ \$0-dl-signal-r 100;
#X obj 410 406 delwrite~ \$0-dl-signal-l 100;
#X obj 441 294 delwrite~ \$0-dl-value 100;
#X msg 130 260 0 5;
#X msg 160 285 1 5;
#X obj 145 488 r \$0-ipoke-options;
#X obj 222 514 delread~ \$0-dl-value 100;
#X obj 112 461 delread~ \$0-dl-signal-r 100;
#X obj 443 488 r \$0-ipoke-options;
#X obj 520 514 delread~ \$0-dl-value 100;
#X obj 410 461 delread~ \$0-dl-signal-l 100;
#X text 172 432 DELAY LINE;
#X text 472 432 DELAY LINE;
#X obj 112 541 ipoke2~ \$0-bank-array-r;
#X obj 410 541 ipoke2~ \$0-bank-array-l;
#X obj 111 344 inlet~;
#X obj 410 344 inlet~;
#X obj 130 -79 r \$0-overdub-start;
#X obj 350 -79 r \$0-overdub-stop;
#X connect 2 0 1 0;
#X connect 6 0 4 0;
#X connect 7 0 3 0;
#X connect 8 0 34 0;
#X connect 9 0 36 0;
#X connect 10 0 18 0;
#X connect 10 0 20 0;
#X connect 10 0 54 0;
#X connect 13 0 10 0;
#X connect 14 0 40 0;
#X connect 15 0 16 1;
#X connect 15 0 17 1;
#X connect 16 0 58 0;
#X connect 17 0 57 0;
#X connect 19 0 10 0;
#X connect 20 0 60 0;
#X connect 20 1 61 0;
#X connect 25 0 24 0;
#X connect 28 0 26 0;
#X connect 29 0 27 0;
#X connect 31 0 32 0;
#X connect 34 0 10 0;
#X connect 34 1 7 0;
#X connect 34 2 6 0;
#X connect 34 3 2 0;
#X connect 34 4 43 0;
#X connect 36 0 13 0;
#X connect 36 1 28 0;
#X connect 36 2 29 0;
#X connect 36 3 25 0;
#X connect 36 4 41 0;
#X connect 37 0 33 0;
#X connect 38 0 35 0;
#X connect 39 0 32 0;
#X connect 40 0 39 0;
#X connect 40 1 31 0;
#X connect 40 2 19 0;
#X connect 41 0 38 0;
#X connect 43 0 37 0;
#X connect 46 0 59 0;
#X connect 47 0 9 0;
#X connect 49 0 52 0;
#X connect 52 0 50 0;
#X connect 60 0 15 0;
#X connect 61 0 15 0;
#X connect 62 0 70 0;
#X connect 63 0 70 1;
#X connect 64 0 70 0;
#X connect 65 0 71 0;
#X connect 66 0 71 1;
#X connect 67 0 71 0;
#X connect 72 0 17 0;
#X connect 72 0 51 0;
#X connect 73 0 16 0;
#X connect 73 0 51 0;
#X connect 74 0 8 0;
#X connect 74 0 11 0;
#X connect 75 0 9 0;
#X connect 75 0 12 0;
#X restore 163 238 pd overdub;
#N canvas 279 91 1080 675 play 0;
#X obj 131 84 bng 15 250 50 0 empty empty empty 17 7 0 10 -262144 -1
-1;
#X obj 240 682 +~ 1;
#X msg 258 178 1000 \$1;
#X obj 258 206 /;
#X floatatom 289 226 0 0 0 0 - - -;
#X obj 154 81 f;
#X obj 154 383 t b b;
#X msg 154 567 1;
#X msg 337 597 0;
#X floatatom 311 567 0 0 0 0 - - -;
#X text 312 543 size;
#X obj 240 450 phasor~;
#X obj 644 47 / 120;
#X floatatom 689 67 0 0 0 0 - - -;
#X msg 240 238 1;
#X obj 692 101 loadbang;
#X msg 692 121 1;
#X floatatom 789 173 5 0 0 0 - - -;
#X obj 662 153 f;
#X obj 644 207 /;
#X floatatom 680 227 5 0 0 0 - - -;
#X floatatom 272 313 0 0 0 0 - - -;
#X obj 644 78 t f f;
#X obj 590 133 t b b;
#X obj 154 113 t b f f b b f;
#X text 832 175 <- ultimo bpm multiply;
#X text 742 224 <- bpm multiply actual;
#X text 722 65 <- bpm multiply;
#X obj 240 293 *;
#X obj 650 232 bng 15 250 50 0 empty empty empty 17 7 0 10 -262144
-1 -1;
#X obj 701 173 * 120;
#X floatatom 748 193 5 0 0 0 - - -;
#X text 796 198 <- bpm usado para grabar;
#X msg 349 71 1;
#X obj 372 171 s \$0-this-modo;
#X text 572 16 \; \; \; \; \; \; \; \; \; \; \; \; \; \; \; \; \; \;
\; \; \; \; \; \; \; \; \; \; \; \; \; \; \;;
#X obj 644 8 r \$1-main-bpm;
#X obj 240 728 tabread4~ \$0-bank-array-r;
#X obj 50 728 tabread4~ \$0-bank-array-l;
#X obj 51 787 outlet~ l;
#X obj 241 787 outlet~ r;
#X obj 122 51 t b b b;
#X obj 385 518 r \$0-stop-play;
#X text 287 245 freq;
#X text 255 332 freq final;
#X text 266 290 CORRECTOR;
#X obj 395 141 s \$0-this-filled;
#X text 773 416 MODOS \; 0- \; 1-play-ready \; 2-sample-ready \; 3-resample-ready
\; 4-looping \; 5-overdub \; 6-recording \;;
#X obj 192 42 r \$0-ms-recorded;
#X obj 122 14 r \$0-start-playing;
#X obj 349 201 s \$1-main-modo;
#X obj 255 756 s~ \$0-play-overdub-r;
#X obj 65 756 s~ \$0-play-overdub-l;
#X obj 342 670 s~ \$0-phasor-play;
#X msg 346 426 0;
#X obj 346 396 r \$0-stop-phasor-play;
#X text 376 375 de looping;
#X obj 349 91 t f f f;
#X obj 420 747 vu-out~;
#X obj 365 347 t b f;
#X obj 240 367 f;
#X obj 240 397 * 1;
#X obj 365 317 r \$1-play-velocity;
#X text 385 295 de FX Sample;
#X floatatom 404 347 5 0 0 0 - - -;
#X obj 365 487 t b f;
#X floatatom 404 487 5 0 0 0 - - -;
#X obj 240 617 *~ 1;
#X obj 240 567 *~ 0;
#X obj 265 507 f;
#X obj 265 527 * 1;
#X text 402 436 de FX Sample;
#X obj 365 457 r \$1-end-point-mul;
#X obj 297 487 bng 15 250 50 0 empty empty empty 17 7 0 10 -262144
-1 -1;
#X obj 31 390 r \$1-start-again;
#X text 47 369 de FX Sample;
#X obj 265 547 * 48;
#X obj 398 32 cnv 15 30 20 empty empty REPRODUCCIÓN 0 10 0 20 -262144
-258113 0;
#X obj 764 24 cnv 15 30 20 empty empty CORRECTOR_DE_BPM 0 10 0 20 -262144
-258113 0;
#X obj 431 586 snapshot~;
#X obj 385 606 +;
#X obj 385 548 t b b b;
#X obj 385 636 + 1;
#X obj 154 597 t f f;
#X text 514 522 Snapshotea la posición \; actual \, multiplica por
0 \; y le suma la posición \; De esta forma \, el phasor~ \; no viaja
a la posición 0 \; (igualmente \, se mutea);
#X text 65 649 Multiplica por 1 \; y le deja +1 al \; tabread4~ (lo
necesita);
#N canvas 1 137 390 300 loop-pos 0;
#X obj 72 76 inlet~;
#X obj 71 145 snapshot~;
#X obj 81 115 r met50;
#X obj 71 172 / 48;
#X obj 71 197 s \$0-loop-pos;
#X connect 0 0 1 0;
#X connect 1 0 3 0;
#X connect 2 0 1 0;
#X connect 3 0 4 0;
#X restore 302 701 pd loop-pos;
#X obj 171 274 t b f;
#X obj 185 334 /;
#X floatatom 186 458 5 0 0 0 - - -;
#X floatatom 226 82 5 0 0 0 - - -;
#X obj 85 87 bng 15 250 50 0 empty empty empty 17 7 0 10 -262144 -1
-1;
#X obj 186 410 0;
#X text 113 273 --->;
#X text 113 283 --->;
#X text 113 293 --->;
#X text 55 277 SYNCH \; latency!;
#X obj 53 198 inlet;
#X obj 171 304 14;
#X text 20 311 128frames: 14ms \;;
#X connect 1 0 86 0;
#X connect 1 0 38 0;
#X connect 1 0 37 0;
#X connect 2 0 3 0;
#X connect 3 0 4 0;
#X connect 3 0 28 1;
#X connect 5 0 24 0;
#X connect 5 0 90 0;
#X connect 6 0 7 0;
#X connect 6 1 92 0;
#X connect 7 0 83 0;
#X connect 8 0 67 1;
#X connect 11 0 68 0;
#X connect 12 0 13 0;
#X connect 12 0 22 0;
#X connect 14 0 28 0;
#X connect 15 0 16 0;
#X connect 16 0 18 1;
#X connect 18 0 17 0;
#X connect 18 0 19 1;
#X connect 18 0 30 0;
#X connect 19 0 20 0;
#X connect 19 0 28 0;
#X connect 19 0 29 0;
#X connect 22 0 19 0;
#X connect 22 1 18 1;
#X connect 23 0 19 0;
#X connect 23 1 18 0;
#X connect 24 0 6 0;
#X connect 24 1 87 0;
#X connect 24 2 69 0;
#X connect 24 3 14 0;
#X connect 24 4 23 0;
#X connect 24 5 2 0;
#X connect 28 0 21 0;
#X connect 28 0 60 0;
#X connect 30 0 31 0;
#X connect 33 0 57 0;
#X connect 36 0 12 0;
#X connect 37 0 40 0;
#X connect 37 0 51 0;
#X connect 37 0 58 0;
#X connect 38 0 39 0;
#X connect 38 0 52 0;
#X connect 38 0 58 0;
#X connect 41 0 0 0;
#X connect 41 1 5 0;
#X connect 41 2 33 0;
#X connect 42 0 81 0;
#X connect 48 0 5 1;
#X connect 49 0 41 0;
#X connect 54 0 11 0;
#X connect 55 0 54 0;
#X connect 57 0 50 0;
#X connect 57 1 34 0;
#X connect 57 2 46 0;
#X connect 59 0 60 0;
#X connect 59 1 61 1;
#X connect 60 0 61 0;
#X connect 61 0 11 0;
#X connect 62 0 59 0;
#X connect 62 0 64 0;
#X connect 65 0 69 0;
#X connect 65 1 70 1;
#X connect 67 0 1 0;
#X connect 67 0 53 0;
#X connect 68 0 67 0;
#X connect 68 0 79 0;
#X connect 69 0 70 0;
#X connect 70 0 76 0;
#X connect 72 0 65 0;
#X connect 72 0 66 0;
#X connect 73 0 69 0;
#X connect 74 0 92 0;
#X connect 76 0 9 0;
#X connect 76 0 68 1;
#X connect 79 0 80 1;
#X connect 80 0 82 0;
#X connect 81 0 80 0;
#X connect 81 1 8 0;
#X connect 81 2 79 0;
#X connect 82 0 1 1;
#X connect 83 0 1 1;
#X connect 83 1 67 1;
#X connect 87 0 98 0;
#X connect 87 1 88 1;
#X connect 88 0 92 1;
#X connect 91 0 5 0;
#X connect 92 0 11 1;
#X connect 92 0 89 0;
#X connect 97 0 98 1;
#X connect 98 0 88 0;
#X restore 51 268 pd play;
#N canvas 59 57 1160 709 rec-looping 0;
#X obj -45 403 vline~;
#X obj -45 280 list;
#X msg -45 306 0 \, \$1 \$2;
#X obj 50 191 s \$0-toggle-set;
#X msg 50 171 1;
#X text -48 458 SOLO PARA \; POSICION PISTA 1;
#X obj 68 147 s \$0-this-modo;
#N canvas 1 117 450 300 bank-array-pos 0;
#X obj 111 123 snapshot~;
#X obj 112 36 inlet~;
#X obj 124 90 r met50;
#X obj 111 204 s \$0-bank-array-pos;
#X obj 111 152 / 48;
#X connect 0 0 4 0;
#X connect 1 0 0 0;
#X connect 2 0 0 0;
#X connect 4 0 3 0;
#X restore -44 436 pd bank-array-pos;
#X obj 806 194 s \$0-stop-rec;
#X obj -31 340 r \$0-stop-rec;
#X msg -31 369 stop;
#X msg 87 82 6;
#X obj 786 238 s \$0-toggle-set;
#X msg 786 218 0;
#X msg 766 262 0;
#X text 903 238 lo desactiva;
#X text 903 191 deja de grabar;
#X text 892 289 lo pone en gris;
#X obj 746 89 f;
#X obj 764 63 r \$0-this-modo;
#X text 780 87 solo si esta recording;
#X obj 766 282 s \$0-this-filled;
#X text 928 224 TODO;
#X text 787 385 MODOS \; 0- \; 1-play-ready \; 2-sample-ready \; 3-resample-ready
\; 4-looping \; 5-overdub \; 6-recording \;;
#X msg 68 127 4;
#X obj -45 151 32000;
#X obj -45 226 t f f;
#X text -37 115 32 segundos \; total lenght;
#X obj 425 422 snapshot~;
#X obj 425 601 t b f;
#X floatatom 492 442 0 0 0 0 - - -;
#X obj 498 501 /;
#X obj 498 546 expr 60000/$f1;
#X text 609 544 ms -> bpm;
#X floatatom 523 521 0 0 0 0 - - -;
#X floatatom 600 566 0 0 0 0 - - -;
#X obj 405 240 s \$0-stop-rec;
#X obj 148 653 r \$0-table-stop-rec;
#X obj 457 627 s \$0-ms-recorded;
#X obj 425 664 s \$0-start-playing;
#X text 596 587 Setea main-bpm;
#X text 601 624 ms grabados para play-system;
#X text 561 664 Comienza a reproducir;
#X obj -68 -37 t b b b;
#X obj 87 102 s \$1-main-modo;
#X obj 516 475 r \$1-beats-for-looping;
#X obj 746 32 r \$1-cancel-recording;
#X obj 498 588 s \$1-bpm-set;
#X obj 445 215 s \$0-toggle-set;
#X msg 445 195 1;
#X msg 417 317 stop;
#X obj 385 266 delay 200;
#X obj 417 337 s \$0-table-stop-rec;
#X obj 385 169 t b b b b;
#X text 710 75 \; \; \; \; \; \; \; \; \; \; \; \; \; \; \; \; \; \;
\; \; \; \; \; \; \;;
#X obj 425 481 t f f f;
#X floatatom 448 530 0 0 0 0 - - -;
#X obj 105 58 s \$0-stop-phasor-play;
#X text 257 60 lo pone en 0;
#X obj 746 116 route 4;
#X obj 790 573 switch~;
#X obj 790 548 tgl 15 0 empty empty empty 17 7 0 10 -262144 -1 -1 0
1;
#X obj 790 518 r \$0-switch-looping;
#X obj 50 -17 t b b b b b;
#X msg 124 10 1;
#X obj 124 30 s \$0-switch-looping;
#X obj 385 382 s \$0-switch-looping;
#X obj 385 291 t b b;
#X obj 746 145 t b b b b;
#X msg 385 362 0;
#X obj 746 326 s \$0-switch-looping;
#X msg 746 306 0;
#X obj 323 553 vu-out~ \$0;
#X obj -45 253 * 48;
#X obj 425 456 / 48;
#X obj 851 141 cnv 15 30 20 empty empty BOTON_CANCEL 0 10 0 20 -262144
-258113 0;
#X obj 412 44 cnv 15 30 20 empty empty STOP_(manual) 0 10 0 20 -262144
-258113 0;
#X obj 92 -65 cnv 15 30 20 empty empty GRABACIÓN_(looping) 0 10 0
20 -262144 -258113 0;
#X obj 398 775 bng 15 250 50 0 empty empty empty 17 7 0 10 -262144
-1 -1;
#X obj -40 623 *~;
#X obj -22 593 line~;
#X obj 134 623 *~;
#X obj 153 593 line~;
#X msg -22 563 1 5;
#X msg 153 563 0 5;
#X obj -68 500 t b b b;
#X obj 385 98 t b b;
#X obj 385 138 delay 5;
#X text -7 614 fade in;
#X text 173 614 fade out;
#X text 445 137 termina fade out;
#X text 477 191 toggle en 1;
#X text 507 242 deja de grabar;
#X text 471 316 deja de escribir en array;
#X text 430 361 switch a este subpatch;
#X text 500 421 detecta donde termina;
#X text 556 498 Asigna nuevo BPM segun \; cantidad de BEATS;
#X text 202 101 modo grabacion;
#X text 182 148 modo looping-grabando;
#X text 164 191 toggle en 1;
#X text 4 400 genera datos de lenght y posicion;
#X obj -68 688 tabwrite~ \$0-bank-array-l;
#X obj 133 688 tabwrite~ \$0-bank-array-r;
#X obj -40 534 inlet~;
#X obj 135 534 inlet~;
#X obj 385 68 r \$0-looping-stop;
#X obj -68 -72 r \$0-looping-start;
#X connect 0 0 7 0;
#X connect 0 0 28 0;
#X connect 1 0 2 0;
#X connect 2 0 0 0;
#X connect 4 0 3 0;
#X connect 9 0 10 0;
#X connect 10 0 0 0;
#X connect 11 0 44 0;
#X connect 13 0 12 0;
#X connect 14 0 21 0;
#X connect 18 0 59 0;
#X connect 19 0 18 1;
#X connect 24 0 6 0;
#X connect 25 0 26 0;
#X connect 26 0 73 0;
#X connect 26 1 1 1;
#X connect 28 0 30 0;
#X connect 28 0 74 0;
#X connect 29 0 39 0;
#X connect 29 1 38 0;
#X connect 31 0 32 0;
#X connect 31 0 34 0;
#X connect 32 0 35 0;
#X connect 32 0 47 0;
#X connect 37 0 102 0;
#X connect 37 0 101 0;
#X connect 43 0 85 0;
#X connect 43 1 25 0;
#X connect 43 2 63 0;
#X connect 45 0 31 1;
#X connect 46 0 18 0;
#X connect 49 0 48 0;
#X connect 50 0 52 0;
#X connect 51 0 67 0;
#X connect 53 0 51 0;
#X connect 53 1 36 0;
#X connect 53 2 28 0;
#X connect 53 3 49 0;
#X connect 55 0 29 0;
#X connect 55 1 56 0;
#X connect 55 2 31 0;
#X connect 59 0 68 0;
#X connect 61 0 60 0;
#X connect 62 0 61 0;
#X connect 63 0 4 0;
#X connect 63 1 24 0;
#X connect 63 2 11 0;
#X connect 63 3 57 0;
#X connect 63 4 64 0;
#X connect 64 0 65 0;
#X connect 67 0 69 0;
#X connect 67 1 50 0;
#X connect 68 0 71 0;
#X connect 68 1 14 0;
#X connect 68 2 13 0;
#X connect 68 3 8 0;
#X connect 69 0 66 0;
#X connect 71 0 70 0;
#X connect 73 0 1 0;
#X connect 74 0 55 0;
#X connect 79 0 101 0;
#X connect 80 0 79 1;
#X connect 81 0 102 0;
#X connect 82 0 81 1;
#X connect 83 0 80 0;
#X connect 83 0 82 0;
#X connect 84 0 82 0;
#X connect 84 0 80 0;
#X connect 85 0 101 0;
#X connect 85 1 102 0;
#X connect 85 2 83 0;
#X connect 86 0 87 0;
#X connect 86 1 84 0;
#X connect 87 0 53 0;
#X connect 103 0 72 0;
#X connect 103 0 79 0;
#X connect 104 0 72 0;
#X connect 104 0 81 0;
#X connect 105 0 86 0;
#X connect 106 0 43 0;
#X restore 51 238 pd rec-looping;
#X obj 62 -58 loadbang;
#X msg 62 -30 1;
#X text 289 9 rutea si este es A o B;
#X obj 96 86 bng 10 250 50 0 empty empty empty 17 7 0 10 -262144 -1
-1;
#X text 502 188 <---;
#X obj 552 -77 table \$0-bank-array-l 1.536e+06;
#X obj 552 -47 table \$0-bank-array-r 1.536e+06;
#X text 786 -73 48000 * 32 \; 1.536e+06 + 3;
#X obj 150 -101 r \$1-osc-bank-vol;
#X obj 150 -81 route \$2;
#X obj 150 -61 route \$3;
#X obj 577 72 r \$0-loop-pos;
#X text 77 79 x1;
#X text 77 15 x6;
#X obj 477 412 cnv 15 80 30 empty empty empty 20 12 0 14 -261234 -66577
0;
#X obj 129 423 throw~ \$1-banks-out-r;
#X obj 51 453 throw~ \$1-banks-out-l;
#N canvas 591 91 527 639 volu 0;
#X obj 109 -162 r \$0-vol;
#X obj 154 -132 r \$0-this-modo;
#X text 221 51 Volumen de A y B;
#X msg 230 -42 0;
#X msg 186 -42 1;
#X obj 109 -22 * 1;
#X obj 109 78 * 1;
#X obj 186 -72 route 1 0 4 6;
#X text 306 -92 Play: full-vol \; Para play-off \; sample-resample
\; y looping: mute \;;
#X msg 109 275 \$1 10;
#X obj 109 327 line~;
#X obj 46 -102 loadbang;
#X floatatom 109 108 5 0 0 0 - - -;
#X obj 154 -102 t b f;
#X obj 172 48 t b f;
#X obj 109 -72 1;
#X obj 275 -154 cnv 15 30 20 empty empty VOLUMEN 0 10 0 20 -262144
-258113 0;
#X text 171 -162 del bank;
#X obj 172 18 route \$2;
#X obj -17 534 outlet~;
#X obj -16 260 inlet~;
#X obj 274 260 inlet~;
#X obj 273 534 outlet~;
#X obj 274 347 *~;
#X obj -16 347 *~;
#X obj 172 -12 r \$1-osc-banks-level;
#X text 152 127 Vol;
#X obj 46 386 cnv 15 200 140 empty empty empty 20 12 0 14 -203904 -66577
0;
#X obj 273 504 *~;
#X obj 92 395 loadbang;
#X msg 124 435 LIMIT;
#X msg 92 455 set 98 1 1;
#X obj 92 415 t b b;
#X obj 92 485 zexy/limiter~ 0 0;
#X obj -17 504 *~;
#X text 122 140 limiter~;
#X obj 41 227 line-log;
#X floatatom 200 247 0 0 0 0 - - -;
#X obj 109 179 moses 1;
#X floatatom 200 199 0 0 0 0 - - -;
#X connect 0 0 15 0;
#X connect 1 0 13 0;
#X connect 3 0 5 1;
#X connect 4 0 5 1;
#X connect 5 0 6 0;
#X connect 6 0 12 0;
#X connect 7 0 4 0;
#X connect 7 1 3 0;
#X connect 7 2 3 0;
#X connect 7 3 3 0;
#X connect 9 0 10 0;
#X connect 10 0 24 1;
#X connect 10 0 23 1;
#X connect 11 0 15 0;
#X connect 12 0 38 0;
#X connect 13 0 15 0;
#X connect 13 1 7 0;
#X connect 14 0 15 0;
#X connect 14 1 6 1;
#X connect 15 0 5 0;
#X connect 18 0 14 0;
#X connect 20 0 24 0;
#X connect 21 0 23 0;
#X connect 23 0 28 0;
#X connect 23 0 33 1;
#X connect 24 0 34 0;
#X connect 24 0 33 0;
#X connect 25 0 18 0;
#X connect 28 0 22 0;
#X connect 29 0 32 0;
#X connect 30 0 33 0;
#X connect 31 0 33 0;
#X connect 32 0 31 0;
#X connect 32 1 30 0;
#X connect 33 0 28 1;
#X connect 33 0 34 1;
#X connect 34 0 19 0;
#X connect 36 0 9 0;
#X connect 36 0 37 0;
#X connect 38 0 36 0;
#X connect 38 1 9 0;
#X connect 38 1 39 0;
#X coords 0 -1 1 1 85 60 2 100 100;
#X restore 51 323 pd volu;
#X obj 61 393 outlet~;
#X text 144 265 <--- Play;
#X text 144 335 <--- Volumen;
#X obj 4 -82 r \$0-toggle-pd-set;
#X obj 260 -70 print2;
#X obj 51 188 inlet~;
#X obj 131 188 inlet~;
#X obj 406 188 inlet~;
#X obj 485 188 inlet~;
#X text 46 169 sample-l;
#X text 130 169 sample-r;
#X text 480 169 resample-r;
#X text 399 169 resample-l;
#N canvas 6 56 1254 710 rec-sample-resample------------- 0;
#X obj -75 346 vline~;
#X obj -145 199 f;
#X obj 262 285 delay;
#X floatatom -47 219 0 0 0 0 - - -;
#X obj -145 292 list;
#X msg -145 326 0 \, \$1 \$2;
#X obj -101 -15 bng 15 250 50 0 empty empty empty 17 7 0 10 -262144
-1 -1;
#X floatatom -101 188 0 0 0 0 - - -;
#X text -64 366 SOLO PARA \; POSICION PISTA 1;
#N canvas 1 117 450 300 bank-array-pos 0;
#X obj 111 123 snapshot~;
#X obj 112 36 inlet~;
#X obj 124 90 r met50;
#X obj 111 204 s \$0-bank-array-pos;
#X obj 111 152 / 48;
#X connect 0 0 4 0;
#X connect 1 0 0 0;
#X connect 2 0 0 0;
#X connect 4 0 3 0;
#X restore -74 409 pd bank-array-pos;
#X obj 610 276 s \$0-stop-rec;
#X obj -61 283 r \$0-stop-rec;
#X msg -61 312 stop;
#X obj 262 199 r \$0-stop-rec;
#X msg 262 227 stop;
#X text 250 173 el delay mientras graba;
#X obj 590 321 s \$0-toggle-set;
#X msg 590 301 0;
#X msg 570 344 0;
#X text 708 323 lo desactiva;
#X text 713 275 deja de grabar;
#X text 692 362 lo pone en gris;
#X obj 550 193 f;
#X obj 568 167 r \$0-this-modo;
#X obj 550 220 route 6;
#X text 584 191 solo si esta recording;
#X obj 570 364 s \$0-this-filled;
#X text 735 308 TODO;
#X text 554 -11 MODOS \; 0- \; 1-play-ready \; 2-sample-ready \; 3-resample-ready
\; 4-looping \; 5-overdub \; 6-recording \;;
#X obj 308 333 s \$0-start-playing;
#X obj 44 860 r \$0-table-stop-rec;
#X obj 550 136 r \$1-cancel-recording;
#X msg 294 580 stop;
#X obj 262 533 delay 200;
#X obj 294 600 s \$0-table-stop-rec;
#X text 232 130 \; \; \; \; \; \; \; \; \; \; \; \; \; \; \; \; \;
\; \; \; \; \; \; \; \;;
#X text 511 141 \; \; \; \; \; \; \; \; \; \; \; \; \; \; \; \; \;
\; \; \; \; \; \; \; \;;
#X obj -12 92 s \$0-toggle-set;
#X msg -12 72 1;
#X obj -92 132 s \$0-this-modo;
#X msg -92 112 6;
#X msg -52 92 6;
#X obj -52 112 s \$1-main-modo;
#X obj 23 72 s \$0-stop-play;
#X obj -168 -8 t b b b;
#X obj -127 162 r \$1-sample-ms-to-rec;
#X obj 396 21 switch~;
#X obj 396 -34 r \$0-switch-sampler;
#X obj 396 -4 tgl 15 0 empty empty empty 17 7 0 10 -262144 -1 -1 0
1;
#X obj 42 52 s \$0-switch-sampler;
#X msg 42 32 1;
#X obj 262 644 s \$0-switch-sampler;
#X msg 262 624 0;
#X obj 262 553 t b b;
#X obj 550 249 t b b b b;
#X obj 550 408 s \$0-switch-sampler;
#X msg 550 388 0;
#X obj 126 460 vu-out~ \$0;
#X obj -145 263 * 48;
#X obj 317 483 s \$0-this-after-resample;
#X obj 285 503 s \$1-all-after-resample;
#X text 333 298 After-resample \; mutea los demás canales;
#X obj 262 309 t b b b;
#X obj 324 363 r \$1-main-modo;
#X obj 324 383 route 3 1;
#X floatatom 435 383 5 0 0 0 - - -;
#X msg 324 403 1;
#X obj 285 443 spigot;
#X msg 354 423 0;
#X obj 354 403 delay 200;
#X text 505 522 Si estaba Resampleando \, abre el spigot para stoppear
los demás banks. Cuando termina \, automaticamente se pone en main-modo
play. Después de 200ms cierra el spigot para que deje de funcionar.
;
#X obj 285 463 t b b;
#X obj 346 274 s \$0-ms-recorded;
#X obj -92 12 t b b b b b b;
#X text -72 235 delay para auto-stop;
#X obj 652 234 cnv 15 30 20 empty empty BOTON_CANCEL 0 10 0 20 -262144
-258113 0;
#X obj 315 132 cnv 15 30 20 empty empty STOP_(auto) 0 10 0 20 -262144
-258113 0;
#X obj -18 -21 cnv 15 30 20 empty empty GRABACIÓN 0 10 0 20 -262144
-258113 0;
#X obj -74 835 *~;
#X obj -56 805 line~;
#X obj 21 835 *~;
#X obj 39 805 line~;
#X obj -168 700 t b b b;
#X msg -56 756 1 5;
#X msg 39 756 0 5;
#X obj 141 274 - 5;
#X obj 141 304 delay;
#X obj 271 254 t f f f;
#X obj -145 234 t f f f;
#X text 82 768 fade in 5ms start \; fade out 5ms stop \;;
#X obj -168 936 tabwrite~ \$0-bank-array-l;
#X obj 20 906 tabwrite~ \$0-bank-array-r;
#X msg -26 566 1;
#X msg 36 566 0;
#X msg 6 566 0;
#X msg 66 566 1;
#X obj 34 524 t b b;
#X obj -26 524 t b b;
#X obj 36 596 tgl 15 0 empty empty empty 17 7 0 10 -262144 -1 -1 0
1;
#X obj -26 596 tgl 15 0 empty empty empty 17 7 0 10 -262144 -1 -1 1
1;
#X obj -63 467 r \$1-main-modo;
#X obj -63 494 route 0 1 2 3 4 5 6;
#X obj -139 611 *~ 0;
#X obj -89 611 *~ 0;
#X obj 108 611 *~ 0;
#X obj 158 611 *~ 0;
#X obj -139 572 inlet~;
#X obj -89 572 inlet~;
#X obj 107 572 inlet~;
#X obj 157 572 inlet~;
#X obj 21 693 +~;
#X obj -74 693 +~;
#X obj -168 -35 r \$0-sample-start;
#X connect 0 0 9 0;
#X connect 1 0 3 0;
#X connect 1 0 88 0;
#X connect 2 0 62 0;
#X connect 4 0 5 0;
#X connect 5 0 0 0;
#X connect 11 0 12 0;
#X connect 12 0 0 0;
#X connect 13 0 14 0;
#X connect 14 0 2 0;
#X connect 17 0 16 0;
#X connect 18 0 26 0;
#X connect 22 0 24 0;
#X connect 23 0 22 1;
#X connect 24 0 54 0;
#X connect 30 0 91 0;
#X connect 30 0 90 0;
#X connect 31 0 22 0;
#X connect 32 0 34 0;
#X connect 33 0 53 0;
#X connect 38 0 37 0;
#X connect 40 0 39 0;
#X connect 41 0 42 0;
#X connect 44 0 82 0;
#X connect 44 1 1 0;
#X connect 44 2 73 0;
#X connect 45 0 1 1;
#X connect 45 0 7 0;
#X connect 47 0 48 0;
#X connect 48 0 46 0;
#X connect 50 0 49 0;
#X connect 52 0 51 0;
#X connect 53 0 52 0;
#X connect 53 1 32 0;
#X connect 54 0 56 0;
#X connect 54 1 18 0;
#X connect 54 2 17 0;
#X connect 54 3 10 0;
#X connect 56 0 55 0;
#X connect 58 0 4 0;
#X connect 62 0 33 0;
#X connect 62 1 67 0;
#X connect 62 2 29 0;
#X connect 63 0 64 0;
#X connect 63 0 65 0;
#X connect 64 0 66 0;
#X connect 64 1 69 0;
#X connect 66 0 67 1;
#X connect 67 0 71 0;
#X connect 68 0 67 1;
#X connect 69 0 68 0;
#X connect 71 0 60 0;
#X connect 71 1 59 0;
#X connect 73 0 40 0;
#X connect 73 1 41 0;
#X connect 73 2 38 0;
#X connect 73 3 43 0;
#X connect 73 4 50 0;
#X connect 78 0 90 0;
#X connect 79 0 78 1;
#X connect 80 0 91 0;
#X connect 81 0 80 1;
#X connect 82 0 90 0;
#X connect 82 1 91 0;
#X connect 82 2 83 0;
#X connect 83 0 79 0;
#X connect 83 0 81 0;
#X connect 84 0 81 0;
#X connect 84 0 79 0;
#X connect 85 0 86 0;
#X connect 86 0 84 0;
#X connect 87 0 85 0;
#X connect 87 1 2 0;
#X connect 87 2 72 0;
#X connect 88 0 58 0;
#X connect 88 1 4 1;
#X connect 88 2 87 0;
#X connect 92 0 99 0;
#X connect 93 0 98 0;
#X connect 94 0 99 0;
#X connect 95 0 98 0;
#X connect 96 0 94 0;
#X connect 96 1 95 0;
#X connect 97 0 92 0;
#X connect 97 1 93 0;
#X connect 98 0 104 1;
#X connect 98 0 105 1;
#X connect 99 0 102 1;
#X connect 99 0 103 1;
#X connect 100 0 101 0;
#X connect 101 2 97 0;
#X connect 101 3 96 0;
#X connect 102 0 111 0;
#X connect 103 0 110 0;
#X connect 104 0 111 0;
#X connect 105 0 110 0;
#X connect 106 0 102 0;
#X connect 107 0 103 0;
#X connect 108 0 104 0;
#X connect 109 0 105 0;
#X connect 110 0 80 0;
#X connect 111 0 78 0;
#X connect 112 0 6 0;
#X connect 112 0 44 0;
#X restore 244 238 pd rec-sample-resample-------------;
#X text 570 138 MODOS \; 0- \; 1-play-ready \; 2-sample-ready \; 3-resample-ready
\; 4-looping-ready \; 5-overdub-ready \; 6-recording \; 7-save-banks
\;;
#N canvas 598 142 650 624 save-a1-a2 0;
#X obj 177 316 soundfiler;
#X obj 97 87 list append;
#X obj 97 177 list append \$2;
#X obj 97 207 list append \$3;
#X obj 88 57 date __;
#X obj 97 237 list prepend \$0;
#X obj 218 -76 cnv 15 30 20 empty empty Grabacion_de_banks_1_y_2_del_A
0 10 0 20 -262144 -258113 0;
#X text 238 87 mes \, fecha...;
#X text 238 167 a-b...;
#X text 238 197 1-2-3-4...;
#X text 238 227 este bank \, para el array...;
#X obj 171 117 time;
#X obj 97 147 list append;
#X text 238 117 hora...;
#X obj 72 27 t b b b b b b b b;
#X text 46 -121 de toggle-colors-seteos;
#X obj 72 -23 route a;
#X obj 72 -3 route 1 2;
#X obj 72 -63 prepend \$3;
#X obj 72 -43 prepend \$2;
#X text 158 -37 Selecciona 1 y 2 del A;
#X obj 72 -98 r \$0-save-banks-1a-2a;
#X msg 72 465 1;
#X obj 72 495 s \$1-main-modo;
#X msg 97 270 write -wave -normalize ./saved-banks/\$2-\$3--\$4hs-bank-\$5\$6
\$1-bank-array-l;
#X obj 72 345 t b b;
#X obj 104 435 s \$1-terminal-label;
#X msg 104 375 A1 y A2 GUARDADOS;
#X obj 104 405 l2s;
#X obj 278 366 print2;
#X connect 0 0 28 0;
#X connect 0 0 29 0;
#X connect 1 0 12 0;
#X connect 2 0 3 0;
#X connect 3 0 5 0;
#X connect 4 1 1 0;
#X connect 4 2 1 1;
#X connect 5 0 24 0;
#X connect 11 0 12 1;
#X connect 12 0 2 0;
#X connect 14 0 25 0;
#X connect 14 1 4 0;
#X connect 14 6 11 0;
#X connect 16 0 17 0;
#X connect 17 0 14 0;
#X connect 17 1 14 0;
#X connect 18 0 19 0;
#X connect 19 0 16 0;
#X connect 21 0 18 0;
#X connect 22 0 23 0;
#X connect 24 0 0 0;
#X connect 25 0 22 0;
#X connect 25 1 27 0;
#X connect 28 0 26 0;
#X restore 255 333 pd save-a1-a2;
#X text 353 330 <--- Guarda Banks a1 y a2;
#X text 415 344 (CIRCO 3D);
#N canvas 438 283 708 502 load-bank 0;
#X obj 4 45 inlet;
#X obj 185 320 soundfiler;
#X obj 4 19 bng 15 250 50 0 empty empty empty 17 7 0 10 -262144 -1
-1;
#X obj 4 75 t b b b b b b b b b b;
#X obj 148 148 \$0;
#X obj 148 184 t f f f;
#X msg 194 240 read beatbox-orig.wav \$1-bank-array-l;
#X msg 155 270 read beatbox-orig.wav \$1-bank-array-r;
#X msg 106 329 1;
#X obj 116 382 s \$0-this-filled;
#X connect 0 0 3 0;
#X connect 2 0 3 0;
#X connect 3 8 8 0;
#X connect 3 9 4 0;
#X connect 4 0 5 0;
#X connect 5 1 7 0;
#X connect 5 2 6 0;
#X connect 6 0 1 0;
#X connect 7 0 1 0;
#X connect 8 0 9 0;
#X restore 254 272 pd load-bank;
#N canvas 614 140 650 554 save-bank 0;
#X obj 81 432 soundfiler;
#X obj 81 137 list append;
#X obj 81 307 t l l;
#X obj 81 217 list append \$2;
#X obj 81 247 list append \$3;
#X obj 72 107 date __;
#X obj 81 277 list prepend \$0;
#X obj 204 -81 cnv 15 30 20 empty empty Grabacion_de_banks_a_disco
0 10 0 20 -262144 -258113 0;
#X text 238 137 mes \, fecha...;
#X text 238 217 a-b...;
#X text 238 247 1-2-3-4...;
#X text 238 277 este bank \, para el array...;
#X obj 171 167 time;
#X obj 81 187 list append;
#X text 238 167 hora...;
#X obj 72 -53 t b b b b b b b b;
#X obj 349 185 s \$0-toggle-set;
#X msg 349 165 1;
#X obj 386 136 s \$1-main-modo;
#X obj 349 -33 t b b b b b;
#X msg 386 116 1;
#X text 398 164 toggle en 1;
#X msg 81 340 write -wave -normalize ./saved-banks/\$2-\$3--\$4hs-bank-\$5\$6-l
\$1-bank-array-l;
#X msg 113 386 write -wave -normalize ./saved-banks/\$2-\$3--\$4hs-bank-\$5\$6-r
\$1-bank-array-r;
#X obj 72 -80 r \$0-save-banks;
#X text 56 -104 de toggle-colors-seteos;
#X connect 1 0 13 0;
#X connect 2 0 22 0;
#X connect 2 1 23 0;
#X connect 3 0 4 0;
#X connect 4 0 6 0;
#X connect 5 1 1 0;
#X connect 5 2 1 1;
#X connect 6 0 2 0;
#X connect 12 0 13 1;
#X connect 13 0 3 0;
#X connect 15 0 5 0;
#X connect 15 6 12 0;
#X connect 15 7 19 0;
#X connect 17 0 16 0;
#X connect 19 2 20 0;
#X connect 20 0 18 0;
#X connect 22 0 0 0;
#X connect 23 0 0 0;
#X connect 24 0 15 0;
#X restore 254 302 pd save-bank;
#X obj 139 393 outlet~;
#X text 353 300 <--- Guarda Bank;
#X text 353 272 <--- Carga Banks (TODO);
#X text 172 349 limiter~;
#X obj 312 422 s \$0-vu-out;
#X obj 312 402 - 100;
#X obj 312 382 env~;
#X connect 12 0 25 0;
#X connect 13 0 14 0;
#X connect 16 0 17 0;
#X connect 19 0 6 0;
#X connect 19 0 5 0;
#X connect 19 0 9 0;
#X connect 20 0 33 0;
#X connect 21 0 22 0;
#X connect 31 0 30 0;
#X connect 33 0 34 0;
#X connect 34 0 25 0;
#X connect 34 0 27 0;
#X connect 34 0 26 0;
#X connect 36 0 55 0;
#X connect 36 1 55 1;
#X connect 38 0 39 0;
#X connect 39 0 13 0;
#X connect 41 0 39 0;
#X connect 46 0 47 0;
#X connect 46 0 60 0;
#X connect 47 0 48 0;
#X connect 48 0 14 0;
#X connect 49 0 7 0;
#X connect 49 0 8 0;
#X connect 49 0 10 0;
#X connect 55 0 54 0;
#X connect 55 0 56 0;
#X connect 55 0 82 0;
#X connect 55 1 53 0;
#X connect 55 1 76 0;
#X connect 59 0 12 0;
#X connect 61 0 69 0;
#X connect 61 0 37 0;
#X connect 61 0 35 0;
#X connect 62 0 69 1;
#X connect 62 0 37 1;
#X connect 62 0 35 1;
#X connect 63 0 69 2;
#X connect 64 0 69 3;
#X connect 81 0 80 0;
#X connect 82 0 81 0;
#X coords 0 628 1 627 110 110 0;
