#N canvas 194 58 540 708 12;
#X obj -5 184 rmstodb;
#X floatatom 176 137 5 0 0 0 threshold - -;
#X obj -78 410 *~;
#X obj -5 214 >;
#X obj -5 244 pack f f;
#X msg -5 313 \$1 \$2;
#X floatatom 176 156 5 0 0 0 attack - -;
#X obj -5 274 t a b;
#X msg 47 354 0 \$1;
#X obj 47 324 int;
#X obj 47 294 delay;
#X floatatom 177 194 5 0 0 0 decay - -;
#X floatatom 176 175 5 0 0 0 hold - -;
#X obj -78 61 inlet~;
#X obj -78 452 outlet~;
#X obj -5 391 line~;
#X floatatom -53 174 5 0 0 0 - - -;
#X floatatom -52 204 5 0 0 0 - - -;
#X obj -6 61 inlet~;
#X obj 239 78 inlet;
#X obj 249 88 inlet;
#X obj 259 98 inlet;
#X obj 269 108 inlet;
#X obj 222 317 - 100;
#X obj 241 361 vu 15 120 empty empty -1 -8 0 10 -66577 -1 1 0;
#X obj 17 590 hsl 128 15 130 140 0 0 empty empty empty -2 -8 0 10 -262144
-1 -1 10756 1;
#X obj -5 156 env~ 16384;
#X connect 0 0 3 0;
#X connect 0 0 17 0;
#X connect 0 0 25 0;
#X connect 1 0 3 1;
#X connect 2 0 14 0;
#X connect 3 0 4 0;
#X connect 4 0 7 0;
#X connect 5 0 15 0;
#X connect 6 0 4 1;
#X connect 7 0 5 0;
#X connect 7 1 10 0;
#X connect 8 0 15 0;
#X connect 9 0 8 0;
#X connect 10 0 9 0;
#X connect 11 0 9 1;
#X connect 12 0 10 1;
#X connect 13 0 2 0;
#X connect 15 0 2 1;
#X connect 18 0 26 0;
#X connect 19 0 1 0;
#X connect 20 0 6 0;
#X connect 21 0 12 0;
#X connect 22 0 11 0;
#X connect 23 0 24 0;
#X connect 26 0 0 0;
#X connect 26 0 16 0;
#X connect 26 0 23 0;
#X coords 0 -1 1 1 120 120 1 100 100;
