#N canvas 220 79 461 497 12;
#X obj 107 390 outlet~;
#X obj 176 390 outlet~;
#X obj 244 390 outlet~;
#X obj 312 390 outlet~;
#N canvas 169 94 919 805 doit 0;
#X obj 218 386 *~;
#X obj 341 396 *~;
#X obj 267 389 *~;
#X obj 305 392 *~;
#X obj 16 319 +~;
#X obj 67 318 +~;
#X obj 116 322 +~;
#X obj 168 326 +~;
#X obj 15 372 *~;
#X obj 169 383 *~;
#X obj 67 376 *~;
#X obj 115 380 *~;
#X obj 17 14 delread~ \$0-del1 10;
#X obj 117 56 delread~ \$0-del3 13.4567;
#X obj 68 35 delread~ \$0-del2 11.6356;
#X obj 171 77 delread~ \$0-del4 16.7345;
#X obj 524 407 *~;
#X obj 631 409 *~;
#X obj 560 408 *~;
#X obj 595 409 *~;
#X obj 377 399 *~;
#X obj 488 406 *~;
#X obj 414 402 *~;
#X obj 451 405 *~;
#X obj 218 100 delread~ \$0-del5 20.1862;
#X obj 267 121 delread~ \$0-del6 25.7417;
#X obj 304 142 delread~ \$0-del7 31.4693;
#X obj 341 163 delread~ \$0-del8 38.2944;
#X obj 376 184 delread~ \$0-del9 46.6838;
#X obj 414 205 delread~ \$0-del10 55.4567;
#X obj 488 247 delread~ \$0-del12 76.8243;
#X obj 524 268 delread~ \$0-del13 88.5623;
#X obj 561 289 delread~ \$0-del14 101.278;
#X obj 595 310 delread~ \$0-del15 115.397;
#X obj 632 331 delread~ \$0-del16 130.502;
#X obj 25 346 inlet~;
#X obj 87 346 inlet~;
#X obj 69 440 +~;
#X obj 105 440 -~;
#X obj 141 440 +~;
#X obj 177 440 -~;
#X obj 214 440 +~;
#X obj 250 440 -~;
#X obj 286 440 +~;
#X obj 322 440 -~;
#X obj 359 440 +~;
#X obj 395 440 -~;
#X obj 431 440 +~;
#X obj 467 440 -~;
#X obj 504 440 +~;
#X obj 540 440 -~;
#X obj 576 440 +~;
#X obj 612 440 -~;
#X obj 69 474 +~;
#X obj 177 474 -~;
#X obj 105 474 +~;
#X obj 141 474 -~;
#X obj 214 474 +~;
#X obj 322 474 -~;
#X obj 250 474 +~;
#X obj 286 474 -~;
#X obj 359 474 +~;
#X obj 467 474 -~;
#X obj 395 474 +~;
#X obj 431 474 -~;
#X obj 504 474 +~;
#X obj 612 474 -~;
#X obj 540 474 +~;
#X obj 576 474 -~;
#X obj 69 518 +~;
#X obj 105 518 +~;
#X obj 322 518 -~;
#X obj 286 518 -~;
#X obj 141 518 +~;
#X obj 177 518 +~;
#X obj 214 518 -~;
#X obj 250 518 -~;
#X obj 360 518 +~;
#X obj 396 518 +~;
#X obj 613 518 -~;
#X obj 577 518 -~;
#X obj 432 518 +~;
#X obj 468 518 +~;
#X obj 505 518 -~;
#X obj 541 518 -~;
#X obj 70 575 +~;
#X obj 106 575 +~;
#X obj 469 575 -~;
#X obj 433 575 -~;
#X obj 142 575 +~;
#X obj 178 575 +~;
#X obj 361 575 -~;
#X obj 397 575 -~;
#X obj 215 575 +~;
#X obj 251 575 +~;
#X obj 287 575 +~;
#X obj 323 575 +~;
#X obj 614 575 -~;
#X obj 578 575 -~;
#X obj 506 575 -~;
#X obj 542 575 -~;
#X obj 628 606 outlet~;
#X obj 698 606 outlet~;
#X obj 768 607 outlet~;
#X obj 838 607 outlet~;
#X obj 451 226 delread~ \$0-del11 65.1755;
#X obj 614 629 delwrite~ \$0-del16 130.502;
#X obj 361 776 delwrite~ \$0-del9 46.6838;
#X obj 398 755 delwrite~ \$0-del10 55.4567;
#X obj 434 734 delwrite~ \$0-del11 65.1755;
#X obj 470 713 delwrite~ \$0-del12 76.8243;
#X obj 506 692 delwrite~ \$0-del13 88.5623;
#X obj 542 671 delwrite~ \$0-del14 101.278;
#X obj 579 650 delwrite~ \$0-del15 115.397;
#X obj 323 606 delwrite~ \$0-del8 38.2944;
#X obj 287 628 delwrite~ \$0-del7 31.4693;
#X obj 252 650 delwrite~ \$0-del6 25.7417;
#X obj 215 672 delwrite~ \$0-del5 20.1862;
#X obj 71 761 delwrite~ \$0-del1 10;
#X obj 106 737 delwrite~ \$0-del2 11.6356;
#X obj 141 715 delwrite~ \$0-del3 13.4567;
#X obj 179 693 delwrite~ \$0-del4 16.7345;
#X obj 654 354 inlet~;
#X connect 0 0 41 0;
#X connect 0 0 42 0;
#X connect 1 0 43 1;
#X connect 1 0 44 1;
#X connect 2 0 41 1;
#X connect 2 0 42 1;
#X connect 3 0 43 0;
#X connect 3 0 44 0;
#X connect 4 0 8 0;
#X connect 5 0 10 0;
#X connect 6 0 11 0;
#X connect 7 0 9 0;
#X connect 8 0 37 0;
#X connect 8 0 38 0;
#X connect 9 0 39 1;
#X connect 9 0 40 1;
#X connect 10 0 38 1;
#X connect 10 0 37 1;
#X connect 11 0 39 0;
#X connect 11 0 40 0;
#X connect 12 0 4 0;
#X connect 13 0 6 0;
#X connect 14 0 5 0;
#X connect 15 0 7 0;
#X connect 16 0 49 0;
#X connect 16 0 50 0;
#X connect 17 0 51 1;
#X connect 17 0 52 1;
#X connect 18 0 49 1;
#X connect 18 0 50 1;
#X connect 19 0 51 0;
#X connect 19 0 52 0;
#X connect 20 0 45 0;
#X connect 20 0 46 0;
#X connect 21 0 47 1;
#X connect 21 0 48 1;
#X connect 22 0 45 1;
#X connect 22 0 46 1;
#X connect 23 0 47 0;
#X connect 23 0 48 0;
#X connect 24 0 0 0;
#X connect 25 0 2 0;
#X connect 26 0 3 0;
#X connect 27 0 1 0;
#X connect 28 0 20 0;
#X connect 29 0 22 0;
#X connect 30 0 21 0;
#X connect 31 0 16 0;
#X connect 32 0 18 0;
#X connect 33 0 19 0;
#X connect 34 0 17 0;
#X connect 35 0 8 0;
#X connect 36 0 10 0;
#X connect 37 0 53 0;
#X connect 37 0 56 0;
#X connect 38 0 55 0;
#X connect 38 0 54 0;
#X connect 39 0 53 1;
#X connect 39 0 56 1;
#X connect 40 0 55 1;
#X connect 40 0 54 1;
#X connect 41 0 57 0;
#X connect 41 0 60 0;
#X connect 42 0 59 0;
#X connect 42 0 58 0;
#X connect 43 0 57 1;
#X connect 43 0 60 1;
#X connect 44 0 59 1;
#X connect 44 0 58 1;
#X connect 45 0 61 0;
#X connect 45 0 64 0;
#X connect 46 0 63 0;
#X connect 46 0 62 0;
#X connect 47 0 61 1;
#X connect 47 0 64 1;
#X connect 48 0 63 1;
#X connect 48 0 62 1;
#X connect 49 0 65 0;
#X connect 49 0 68 0;
#X connect 50 0 67 0;
#X connect 50 0 66 0;
#X connect 51 0 65 1;
#X connect 51 0 68 1;
#X connect 52 0 67 1;
#X connect 52 0 66 1;
#X connect 53 0 69 0;
#X connect 53 0 75 0;
#X connect 54 0 74 0;
#X connect 54 0 71 0;
#X connect 55 0 70 0;
#X connect 55 0 76 0;
#X connect 56 0 73 0;
#X connect 56 0 72 0;
#X connect 57 0 69 1;
#X connect 57 0 75 1;
#X connect 58 0 74 1;
#X connect 58 0 71 1;
#X connect 59 0 70 1;
#X connect 59 0 76 1;
#X connect 60 0 73 1;
#X connect 60 0 72 1;
#X connect 61 0 77 0;
#X connect 61 0 83 0;
#X connect 62 0 82 0;
#X connect 62 0 79 0;
#X connect 63 0 78 0;
#X connect 63 0 84 0;
#X connect 64 0 81 0;
#X connect 64 0 80 0;
#X connect 65 0 77 1;
#X connect 65 0 83 1;
#X connect 66 0 82 1;
#X connect 66 0 79 1;
#X connect 67 0 78 1;
#X connect 67 0 84 1;
#X connect 68 0 81 1;
#X connect 68 0 80 1;
#X connect 69 0 85 0;
#X connect 69 0 91 0;
#X connect 70 0 86 0;
#X connect 70 0 92 0;
#X connect 71 0 96 0;
#X connect 71 0 97 0;
#X connect 72 0 95 0;
#X connect 72 0 98 0;
#X connect 73 0 89 0;
#X connect 73 0 88 0;
#X connect 74 0 90 0;
#X connect 74 0 87 0;
#X connect 75 0 93 0;
#X connect 75 0 99 0;
#X connect 76 0 94 0;
#X connect 76 0 100 0;
#X connect 77 0 91 1;
#X connect 77 0 85 1;
#X connect 78 0 92 1;
#X connect 78 0 86 1;
#X connect 79 0 97 1;
#X connect 79 0 96 1;
#X connect 80 0 98 1;
#X connect 80 0 95 1;
#X connect 81 0 88 1;
#X connect 81 0 89 1;
#X connect 82 0 87 1;
#X connect 82 0 90 1;
#X connect 83 0 99 1;
#X connect 83 0 93 1;
#X connect 84 0 100 1;
#X connect 84 0 94 1;
#X connect 85 0 118 0;
#X connect 86 0 119 0;
#X connect 87 0 110 0;
#X connect 88 0 109 0;
#X connect 89 0 120 0;
#X connect 90 0 121 0;
#X connect 91 0 107 0;
#X connect 92 0 108 0;
#X connect 93 0 117 0;
#X connect 94 0 116 0;
#X connect 95 0 115 0;
#X connect 96 0 114 0;
#X connect 97 0 104 0;
#X connect 97 0 106 0;
#X connect 98 0 103 0;
#X connect 98 0 113 0;
#X connect 99 0 101 0;
#X connect 99 0 111 0;
#X connect 100 0 102 0;
#X connect 100 0 112 0;
#X connect 105 0 23 0;
#X connect 122 0 2 1;
#X connect 122 0 0 1;
#X connect 122 0 3 1;
#X connect 122 0 1 1;
#X connect 122 0 9 1;
#X connect 122 0 11 1;
#X connect 122 0 10 1;
#X connect 122 0 8 1;
#X connect 122 0 20 1;
#X connect 122 0 23 1;
#X connect 122 0 21 1;
#X connect 122 0 16 1;
#X connect 122 0 18 1;
#X connect 122 0 19 1;
#X connect 122 0 17 1;
#X connect 122 0 22 1;
#X restore 164 317 pd doit;
#X obj 153 91 inlet~;
#X obj 210 91 inlet~;
#X obj 283 185 *~;
#X obj 266 259 -~;
#X obj 313 183 *~;
#X obj 266 283 max~ 0;
#X obj 265 307 *~ 0.26;
#X obj 216 234 sig~ 1.01;
#X obj 265 329 +~ 0.01;
#X obj 283 209 lop~ 50;
#X text 125 43 based on rev3~.pd;
#X connect 4 0 0 0;
#X connect 4 1 1 0;
#X connect 4 2 2 0;
#X connect 4 3 3 0;
#X connect 5 0 4 0;
#X connect 5 0 7 0;
#X connect 5 0 7 1;
#X connect 6 0 4 1;
#X connect 6 0 9 0;
#X connect 6 0 9 1;
#X connect 7 0 14 0;
#X connect 8 0 10 0;
#X connect 9 0 14 0;
#X connect 10 0 11 0;
#X connect 11 0 13 0;
#X connect 12 0 8 0;
#X connect 13 0 4 2;
#X connect 14 0 8 1;
