#N canvas 577 250 744 470 12;
#X obj 132 156 inlet~;
#X obj 192 156 inlet~;
#X obj 2 309 +~;
#X obj 142 309 +~;
#X obj 2 339 outlet~;
#X obj 142 339 outlet~;
#X floatatom 280 119 0 0 0 0 - - -;
#X floatatom -89 119 0 0 0 0 - - -;
#X obj 3 157 inlet~;
#X obj 61 157 inlet~;
#X obj 84 -20 hsl 128 15 0 1 0 0 empty empty empty -2 -8 0 10 -262144
-1 -1 0 1;
#X obj 81 3 clip 0 1;
#X obj 347 -17 inlet;
#X msg -99 183 \$1 20;
#X msg 270 183 \$1 20;
#X obj -99 206 line~ 1 10;
#X obj 270 207 line~ 0 10;
#X obj 2 269 *~;
#X obj 52 269 *~;
#X obj 142 269 *~;
#X obj 192 269 *~;
#X obj 387 291 outlet;
#N canvas 241 353 584 351 line-log-inv 0;
#X obj 40 235 exp;
#X obj 40 187 *;
#X obj 40 210 +;
#X obj 118 167 log;
#X obj 214 164 log;
#X obj 143 203 t b f;
#X obj 143 225 -;
#X obj 40 293 outlet;
#X obj 40 133 inlet;
#X obj 118 113 loadbang;
#X obj 40 262 - 0.1;
#X text 265 111 Convierte 0 a 1 de lineal a logaritmico.;
#X text 265 141 SOLO LA ESCALA 0-1.;
#X obj 40 160 clip 0 1;
#X msg 118 140 1.1;
#X msg 214 140 0.1;
#X text 318 67 INVERTIDO!!!;
#X connect 0 0 10 0;
#X connect 1 0 2 0;
#X connect 2 0 0 0;
#X connect 3 0 2 1;
#X connect 3 0 5 0;
#X connect 4 0 6 0;
#X connect 5 0 6 0;
#X connect 5 1 6 1;
#X connect 6 0 1 1;
#X connect 8 0 13 0;
#X connect 9 0 14 0;
#X connect 9 0 15 0;
#X connect 10 0 7 0;
#X connect 13 0 1 0;
#X connect 14 0 3 0;
#X connect 15 0 4 0;
#X restore 270 89 pd line-log-inv;
#N canvas 530 357 568 354 line-log 0;
#X obj 40 235 exp;
#X obj 40 187 *;
#X obj 40 210 +;
#X obj 118 167 log;
#X obj 214 164 log;
#X obj 143 203 t b f;
#X obj 143 225 -;
#X obj 40 293 outlet;
#X obj 40 133 inlet;
#X obj 118 113 loadbang;
#X obj 40 262 - 0.1;
#X text 265 111 Convierte 0 a 1 de lineal a logaritmico.;
#X text 265 141 SOLO LA ESCALA 0-1.;
#X obj 40 160 clip 0 1;
#X msg 123 139 0.1;
#X msg 214 140 1.1;
#X connect 0 0 10 0;
#X connect 1 0 2 0;
#X connect 2 0 0 0;
#X connect 3 0 2 1;
#X connect 3 0 5 0;
#X connect 4 0 6 0;
#X connect 5 0 6 0;
#X connect 5 1 6 1;
#X connect 6 0 1 1;
#X connect 8 0 13 0;
#X connect 9 0 14 0;
#X connect 9 0 15 0;
#X connect 10 0 7 0;
#X connect 13 0 1 0;
#X connect 14 0 3 0;
#X connect 15 0 4 0;
#X restore -99 89 pd line-log;
#X connect 0 0 18 0;
#X connect 1 0 20 0;
#X connect 2 0 4 0;
#X connect 3 0 5 0;
#X connect 8 0 17 0;
#X connect 9 0 19 0;
#X connect 10 0 11 0;
#X connect 11 0 22 0;
#X connect 11 0 23 0;
#X connect 12 0 11 0;
#X connect 13 0 15 0;
#X connect 14 0 16 0;
#X connect 15 0 17 1;
#X connect 15 0 19 1;
#X connect 16 0 20 1;
#X connect 16 0 18 1;
#X connect 17 0 2 0;
#X connect 18 0 2 1;
#X connect 19 0 3 0;
#X connect 20 0 3 1;
#X connect 22 0 6 0;
#X connect 22 0 14 0;
#X connect 23 0 7 0;
#X connect 23 0 13 0;
