#N canvas 389 179 639 368 12;
#X obj -25 -117 inlet~;
#X obj -24 177 outlet~;
#X obj 240 9 t f f;
#X obj 177 -117 inlet~;
#X text 278 209 Mario Mey;
#X obj 320 -61 inlet;
#X obj 240 -99 loadbang;
#X obj 240 -74 \$1;
#X obj 240 -20 clip 0 1;
#X msg 30 70 \$1 20;
#X msg 272 70 \$1 20;
#X obj 30 93 line~ 1 10;
#X obj -25 113 *~;
#X obj 177 113 *~;
#X obj 272 94 line~ 0 10;
#N canvas 241 353 584 351 line-log-inv 0;
#X obj 40 235 exp;
#X obj 40 187 *;
#X obj 40 210 +;
#X obj 118 167 log;
#X obj 214 164 log;
#X obj 143 203 t b f;
#X obj 143 225 -;
#X obj 40 293 outlet;
#X obj 40 133 inlet;
#X obj 118 113 loadbang;
#X obj 40 262 - 0.1;
#X text 265 111 Convierte 0 a 1 de lineal a logaritmico.;
#X text 265 141 SOLO LA ESCALA 0-1.;
#X obj 40 160 clip 0 1;
#X msg 118 140 1.1;
#X msg 214 140 0.1;
#X text 318 67 INVERTIDO!!!;
#X connect 0 0 10 0;
#X connect 1 0 2 0;
#X connect 2 0 0 0;
#X connect 3 0 2 1;
#X connect 3 0 5 0;
#X connect 4 0 6 0;
#X connect 5 0 6 0;
#X connect 5 1 6 1;
#X connect 6 0 1 1;
#X connect 8 0 13 0;
#X connect 9 0 14 0;
#X connect 9 0 15 0;
#X connect 10 0 7 0;
#X connect 13 0 1 0;
#X connect 14 0 3 0;
#X connect 15 0 4 0;
#X restore 30 29 pd line-log-inv;
#N canvas 530 357 568 354 line-log 0;
#X obj 40 235 exp;
#X obj 40 187 *;
#X obj 40 210 +;
#X obj 118 167 log;
#X obj 214 164 log;
#X obj 143 203 t b f;
#X obj 143 225 -;
#X obj 40 293 outlet;
#X obj 40 133 inlet;
#X obj 118 113 loadbang;
#X obj 40 262 - 0.1;
#X text 265 111 Convierte 0 a 1 de lineal a logaritmico.;
#X text 265 141 SOLO LA ESCALA 0-1.;
#X obj 40 160 clip 0 1;
#X msg 123 139 0.1;
#X msg 214 140 1.1;
#X connect 0 0 10 0;
#X connect 1 0 2 0;
#X connect 2 0 0 0;
#X connect 3 0 2 1;
#X connect 3 0 5 0;
#X connect 4 0 6 0;
#X connect 5 0 6 0;
#X connect 5 1 6 1;
#X connect 6 0 1 1;
#X connect 8 0 13 0;
#X connect 9 0 14 0;
#X connect 9 0 15 0;
#X connect 10 0 7 0;
#X connect 13 0 1 0;
#X connect 14 0 3 0;
#X connect 15 0 4 0;
#X restore 272 40 pd line-log;
#X text 424 79 CON ESCALA LOGARITMICA;
#X connect 0 0 12 0;
#X connect 2 0 15 0;
#X connect 2 1 16 0;
#X connect 3 0 13 0;
#X connect 5 0 8 0;
#X connect 6 0 7 0;
#X connect 7 0 8 0;
#X connect 8 0 2 0;
#X connect 9 0 11 0;
#X connect 10 0 14 0;
#X connect 11 0 12 1;
#X connect 12 0 1 0;
#X connect 13 0 1 0;
#X connect 14 0 13 1;
#X connect 15 0 9 0;
#X connect 16 0 10 0;
