#N canvas 1 62 749 576 12;
#X msg 131 75 0;
#X msg 104 75 1;
#X obj 294 86 f;
#X floatatom 104 136 5 0 0 0 - - -;
#X obj 104 -25 delay 10;
#X obj 264 -54 route 0 1;
#X obj 294 -16 t b;
#X obj 158 35 delay 10;
#X obj 379 -4 list prepend;
#X obj 379 26 route 0 1;
#X floatatom 504 -14 5 0 0 0 - - -;
#X obj 379 -54 t f b;
#X obj 379 -84 inlet;
#X obj 131 5 delay 10;
#X obj 104 -55 route -1 0 1;
#X obj 104 -85 r \$1-onoff;
#X obj 460 -34 value \$2-hold-value;
#X obj 104 176 s \$2-play-velocity;
#X obj 264 -84 r \$1-fx-press;
#X connect 0 0 3 0;
#X connect 1 0 3 0;
#X connect 2 0 3 0;
#X connect 3 0 17 0;
#X connect 4 0 1 0;
#X connect 5 0 0 0;
#X connect 5 1 6 0;
#X connect 6 0 2 0;
#X connect 7 0 2 0;
#X connect 8 0 9 0;
#X connect 9 0 2 1;
#X connect 9 1 2 0;
#X connect 11 0 8 0;
#X connect 11 1 16 0;
#X connect 12 0 11 0;
#X connect 13 0 0 0;
#X connect 14 0 4 0;
#X connect 14 1 13 0;
#X connect 14 2 7 0;
#X connect 15 0 14 0;
#X connect 16 0 8 1;
#X connect 16 0 10 0;
#X connect 18 0 5 0;
#X coords 0 -1 1 1 120 60 1 100 100;
