#N canvas 553 252 554 514 12;
#X obj 12 48 inlet~;
#X obj 72 48 inlet~;
#X floatatom 166 135 0 0 40 0 - - -;
#X obj 166 50 inlet;
#X obj 246 50 inlet;
#X obj 11 271 outlet~;
#X obj 74 271 outlet~;
#X obj 11 230 expr~ tanh($f2 * $v1) * $f3;
#X text 163 115 gain;
#X floatatom 246 135 0 0 1 0 - - -;
#X text 241 115 aten;
#X obj 246 74 clip 0 1;
#X obj 166 74 clip 1 40;
#X obj 73 198 expr~ tanh($f2 * $v1) * $f3;
#X connect 0 0 7 0;
#X connect 1 0 13 0;
#X connect 2 0 7 1;
#X connect 2 0 13 1;
#X connect 3 0 12 0;
#X connect 4 0 11 0;
#X connect 7 0 5 0;
#X connect 9 0 7 2;
#X connect 9 0 13 2;
#X connect 11 0 9 0;
#X connect 12 0 2 0;
#X connect 13 0 6 0;
#X coords 0 -1 1 1 180 60 1 100 100;
