#N canvas 121 151 1058 573 12;
#X msg 527 155 0 \$1;
#X msg 431 81 2 \$1;
#X obj 110 371 outlet~;
#X obj 284 371 outlet~;
#X obj 84 35 inlet~;
#X obj 135 35 inlet~;
#X obj 560 -34 inlet;
#X obj 717 238 *;
#X floatatom 784 284 0 0 0 0 - - -;
#X obj 717 264 / 500;
#X text 788 242 corrector BPM;
#X obj 717 290 * 1000;
#X floatatom 111 272 0 0 0 0 - - -;
#X obj 717 6 inlet;
#X obj 882 50 inlet;
#X text 842 30 r \$1-main-bpm-ms;
#X text 714 -14 0 - 16;
#X text 168 275 ms de delay;
#X obj 481 327 t f f;
#X obj 481 34 t f f;
#X obj 812 -93 \$1;
#X obj 812 -69 route 0;
#X msg 717 178 \$1 \$2;
#X text 781 -154 tiempo para cambiar \; de time-delay (20ms default)
;
#X obj 486 -156 loadbang;
#X floatatom 932 136 0 0 0 0 - - -;
#X msg 228 17 0 1;
#X text 437 101 gain;
#X text 244 34 delay;
#X obj 882 116 f 500;
#X obj 882 152 t b f;
#X obj 717 210 line 1 1;
#X obj 481 9 f 1;
#X obj 717 40 f 7;
#X obj 812 -3 f 20;
#N canvas 246 192 547 416 delay-lenghts 0;
#X obj 27 237 route 0 1 2 3 4 5 6 7;
#X msg 347 287 2;
#X msg 307 287 1.5;
#X msg 267 287 1;
#X msg 227 287 0.75;
#X msg 157 287 0.666667;
#X msg 117 287 0.5;
#X msg 67 287 0.25;
#X msg 27 287 0.125;
#X text 385 287 value * beat;
#X obj 27 48 moses 8;
#X obj 73 76 - 8;
#X obj 73 100 route 0 1 2 3 4 5 6 7;
#X msg 393 150 2;
#X msg 353 150 1.5;
#X msg 313 150 1;
#X msg 273 150 0.75;
#X msg 203 150 0.666667;
#X msg 163 150 0.5;
#X msg 113 150 0.25;
#X msg 73 150 0.125;
#X obj 27 347 / 2;
#X obj 73 210 t f;
#X obj 27 15 inlet;
#X obj 27 385 outlet;
#X connect 0 0 8 0;
#X connect 0 1 7 0;
#X connect 0 2 6 0;
#X connect 0 3 5 0;
#X connect 0 4 4 0;
#X connect 0 5 3 0;
#X connect 0 6 2 0;
#X connect 0 7 1 0;
#X connect 1 0 21 0;
#X connect 2 0 21 0;
#X connect 3 0 21 0;
#X connect 4 0 21 0;
#X connect 5 0 21 0;
#X connect 6 0 21 0;
#X connect 7 0 21 0;
#X connect 8 0 21 0;
#X connect 10 0 0 0;
#X connect 10 1 11 0;
#X connect 11 0 12 0;
#X connect 12 0 20 0;
#X connect 12 1 19 0;
#X connect 12 2 18 0;
#X connect 12 3 17 0;
#X connect 12 4 16 0;
#X connect 12 5 15 0;
#X connect 12 6 14 0;
#X connect 12 7 13 0;
#X connect 13 0 22 0;
#X connect 14 0 22 0;
#X connect 15 0 22 0;
#X connect 16 0 22 0;
#X connect 17 0 22 0;
#X connect 18 0 22 0;
#X connect 19 0 22 0;
#X connect 20 0 22 0;
#X connect 21 0 24 0;
#X connect 22 0 24 0;
#X connect 23 0 10 0;
#X restore 717 83 pd delay-lenghts;
#X obj 717 322 s \$0-delay-ms;
#X obj 1 252 r \$0-delay-ms;
#X floatatom 762 26 5 0 0 0 - - -;
#X text 563 -57 VVVV;
#X text 563 -67 VVVV;
#X text 718 -31 VVVV;
#X text 718 -41 VVVV;
#X text 883 14 VVVV;
#X text 883 4 VVVV;
#X text 883 -6 VVVV;
#X text 718 -51 VVVV;
#X text 563 -77 VVVV;
#X text 90 12 VVVV;
#X text 90 2 VVVV;
#X text 90 -8 VVVV;
#X text 141 12 VVVV;
#X text 141 2 VVVV;
#X text 141 -8 VVVV;
#X text 512 184 delay MUL;
#X text 927 163 default \; 120bpm - 500ms;
#X obj 717 120 f 1;
#X floatatom 752 103 0 0 0 0 - - -;
#X obj 812 -46 t b;
#X obj 717 150 list append 20;
#X obj 513 61 lin-eq-conv 0 1 0 0.5;
#X floatatom 513 87 5 0 0 0 - - -;
#X floatatom 513 354 5 0 0 0 - - -;
#X obj 111 347 *~ 1;
#X obj 284 347 *~ 1;
#X obj 111 122 st-delay-reverse.meh;
#X text 344 219 ¡¡¡REVERSE!!!;
#X text 344 234 ¡¡¡REVERSE!!!;
#X text 344 249 ¡¡¡REVERSE!!!;
#X text 344 264 ¡¡¡REVERSE!!!;
#X text 344 279 ¡¡¡REVERSE!!!;
#X obj 642 -113 t b b b;
#X obj 486 -133 t b b b;
#X obj 111 197 st-delayfb2.meh;
#X obj 952 -23 inlet;
#X obj 952 2 s \$0-feedback;
#X obj 333 -59 r \$0-feedback;
#X msg 342 -10 0.5;
#X msg 333 19 1 \$1;
#X text 950 -45 VVVV;
#X text 950 -55 VVVV;
#X text 950 -65 VVVV;
#X obj 449 -63 t b b b;
#X text 24 -169 st-del-rvs-fb.meh \; ---------------------- \; \$1-
ms line para pasar de una a otro (default: 20ms) \; \; inlet-1 inlet-2:
signals \; inlet-3: 0-1 gain y volumen \; inlet-4: 0-15 - delay-time
(predefinidos) \; inlet-5: main-bpm-ms \; inlet-6: feedback;
#X connect 0 0 65 4;
#X connect 0 0 73 4;
#X connect 1 0 65 2;
#X connect 1 0 73 2;
#X connect 4 0 65 0;
#X connect 5 0 65 1;
#X connect 6 0 32 0;
#X connect 7 0 9 0;
#X connect 9 0 8 0;
#X connect 9 0 11 0;
#X connect 9 0 0 0;
#X connect 11 0 36 0;
#X connect 13 0 33 0;
#X connect 13 0 38 0;
#X connect 14 0 29 0;
#X connect 18 0 63 1;
#X connect 18 1 62 0;
#X connect 18 1 64 1;
#X connect 19 0 18 0;
#X connect 19 1 60 0;
#X connect 20 0 21 0;
#X connect 21 0 58 0;
#X connect 21 1 34 0;
#X connect 22 0 31 0;
#X connect 24 0 72 0;
#X connect 26 0 65 2;
#X connect 26 0 73 2;
#X connect 29 0 30 0;
#X connect 29 0 25 0;
#X connect 30 0 56 0;
#X connect 30 1 7 1;
#X connect 31 0 7 0;
#X connect 32 0 19 0;
#X connect 33 0 35 0;
#X connect 34 0 59 1;
#X connect 35 0 56 0;
#X connect 35 0 57 0;
#X connect 37 0 12 0;
#X connect 56 0 59 0;
#X connect 58 0 34 0;
#X connect 59 0 22 0;
#X connect 60 0 1 0;
#X connect 60 0 61 0;
#X connect 63 0 2 0;
#X connect 64 0 3 0;
#X connect 65 0 73 0;
#X connect 65 1 73 1;
#X connect 71 1 29 0;
#X connect 71 2 20 0;
#X connect 72 0 33 0;
#X connect 72 1 82 0;
#X connect 72 2 71 0;
#X connect 73 0 63 0;
#X connect 73 1 64 0;
#X connect 74 0 75 0;
#X connect 76 0 78 0;
#X connect 77 0 78 0;
#X connect 78 0 73 2;
#X connect 82 0 26 0;
#X connect 82 1 77 0;
#X connect 82 2 32 0;
#X coords 0 -1 1 1 220 200 1 100 100;
