#N canvas 1 61 1290 705 12;
#X obj 53 639 spigot~;
#X obj 334 639 spigot~;
#X msg 503 230 0 \$1;
#X msg 341 81 2 \$1;
#X obj 99 663 outlet~;
#X obj 381 663 outlet~;
#X obj -56 35 inlet~;
#X obj -5 35 inlet~;
#X obj 421 -45 inlet;
#X text -28 201 st-delayfb.meh;
#X text -28 217 Lineal (no-log);
#X obj 717 391 *;
#X floatatom 784 437 0 0 0 0 - - -;
#X obj 717 417 / 500;
#X text 788 395 corrector BPM;
#X obj 717 443 * 1000;
#X floatatom 111 575 0 0 0 0 - - -;
#X obj 717 159 inlet;
#X obj 882 203 inlet;
#X text 842 183 r \$1-main-bpm-ms;
#X text 714 139 0 - 16;
#X text 168 578 ms de delay;
#X obj 422 619 t f f;
#X obj 421 34 t f f;
#X obj 812 0 \$1;
#X obj 812 24 route 0;
#X msg 717 331 \$1 \$2;
#X text 781 -61 tiempo para cambiar \; de time-delay (20ms default)
;
#X obj 545 -136 loadbang;
#X floatatom 932 289 0 0 0 0 - - -;
#X text -46 130 LEFT;
#X text -46 140 LEFT;
#X text -46 150 LEFT;
#X msg 139 34 0 \$1;
#X obj 545 -113 t b b b b b b b;
#X text 347 101 gain;
#X text 70 -13 delay;
#X obj 882 269 f 500;
#X obj 882 305 t b f;
#X obj 717 363 line 1 1;
#X obj 503 204 t f f;
#X obj 421 9 f 1;
#X obj 717 193 f 7;
#X obj 812 90 f 20;
#N canvas 246 192 547 416 delay-lenghts 0;
#X obj 27 237 route 0 1 2 3 4 5 6 7;
#X msg 347 287 2;
#X msg 307 287 1.5;
#X msg 267 287 1;
#X msg 227 287 0.75;
#X msg 157 287 0.666667;
#X msg 117 287 0.5;
#X msg 67 287 0.25;
#X msg 27 287 0.125;
#X text 385 287 value * beat;
#X obj 27 48 moses 8;
#X obj 73 76 - 8;
#X obj 73 100 route 0 1 2 3 4 5 6 7;
#X msg 393 150 2;
#X msg 353 150 1.5;
#X msg 313 150 1;
#X msg 273 150 0.75;
#X msg 203 150 0.666667;
#X msg 163 150 0.5;
#X msg 113 150 0.25;
#X msg 73 150 0.125;
#X obj 27 347 / 2;
#X obj 73 210 t f;
#X obj 27 15 inlet;
#X obj 27 385 outlet;
#X connect 0 0 8 0;
#X connect 0 1 7 0;
#X connect 0 2 6 0;
#X connect 0 3 5 0;
#X connect 0 4 4 0;
#X connect 0 5 3 0;
#X connect 0 6 2 0;
#X connect 0 7 1 0;
#X connect 1 0 21 0;
#X connect 2 0 21 0;
#X connect 3 0 21 0;
#X connect 4 0 21 0;
#X connect 5 0 21 0;
#X connect 6 0 21 0;
#X connect 7 0 21 0;
#X connect 8 0 21 0;
#X connect 10 0 0 0;
#X connect 10 1 11 0;
#X connect 11 0 12 0;
#X connect 12 0 20 0;
#X connect 12 1 19 0;
#X connect 12 2 18 0;
#X connect 12 3 17 0;
#X connect 12 4 16 0;
#X connect 12 5 15 0;
#X connect 12 6 14 0;
#X connect 12 7 13 0;
#X connect 13 0 22 0;
#X connect 14 0 22 0;
#X connect 15 0 22 0;
#X connect 16 0 22 0;
#X connect 17 0 22 0;
#X connect 18 0 22 0;
#X connect 19 0 22 0;
#X connect 20 0 22 0;
#X connect 21 0 24 0;
#X connect 22 0 24 0;
#X connect 23 0 10 0;
#X restore 717 236 pd delay-lenghts;
#X obj 717 475 s \$0-delay-ms;
#X obj -8 415 r \$0-delay-ms;
#X floatatom 762 179 5 0 0 0 - - -;
#X obj 53 615 *~ 1;
#X obj 334 615 *~ 1;
#X text 424 -68 VVVV;
#X text 424 -78 VVVV;
#X text 718 122 VVVV;
#X text 718 112 VVVV;
#X text 883 167 VVVV;
#X text 883 157 VVVV;
#X text 883 147 VVVV;
#X text 718 102 VVVV;
#X text 424 -88 VVVV;
#X text -50 12 VVVV;
#X text -50 2 VVVV;
#X text -50 -8 VVVV;
#X text 1 12 VVVV;
#X text 1 2 VVVV;
#X text 1 -8 VVVV;
#X text 322 39 feedback;
#X text 463 249 delay MUL;
#X text 154 53 delay ADD;
#X text 927 316 default \; 120bpm - 500ms;
#X obj -44 680 bng 15 250 50 0 empty empty empty 17 7 0 10 -262144
-1 -1;
#X obj 717 273 f 1;
#X floatatom 752 256 0 0 0 0 - - -;
#X obj 812 47 t b;
#X obj 717 303 list append 20;
#X obj 111 194 st-delayfb3.meh;
#X obj 220 -80 t b b b b;
#X msg 252 24 2 0.5;
#X text 258 42 gain;
#X obj 453 61 lin-eq-conv 0 1 0 0.5;
#X floatatom 453 87 5 0 0 0 - - -;
#X obj 112 349 st-delayfb3.meh;
#X floatatom 453 224 5 0 0 0 - - -;
#X floatatom 454 646 5 0 0 0 - - -;
#X obj 1082 17 inlet;
#X obj 1082 42 s \$0-feedback;
#X msg 323 -24 0.5;
#X msg 323 19 1 \$1;
#X obj 112 503 st-delayfb3.meh;
#X obj 139 -26 t b b b;
#X msg 189 34 0 \$1;
#X msg 490 359 2 \$1;
#X text 485 379 gain MUL;
#X obj 189 8 f 2;
#X text -55 -163 st-feedback-stereo.meh \; ---------------------- \;
\$1- ms line para pasar de una a otro (default: 20ms) \;;
#X text -40 499 RIGHT;
#X text -40 509 RIGHT;
#X text -40 519 RIGHT;
#X msg 62 -29 0 1;
#X obj 139 8 f 1;
#X msg 552 444 2 \$1;
#X text 547 464 gain MUL;
#X obj 490 303 t b b;
#X msg 490 330 0.95;
#X msg 553 417 0.9;
#X obj 53 567 *~ 0.5;
#X obj 334 567 *~ 0.5;
#X obj 111 272 st-delay.meh;
#X obj 111 122 st-delay.meh;
#X obj 111 426 st-delay.meh;
#X obj 350 -134 r \$0-feedback;
#X connect 0 1 4 0;
#X connect 1 1 5 0;
#X connect 2 0 74 4;
#X connect 2 0 80 4;
#X connect 2 0 87 4;
#X connect 2 0 106 4;
#X connect 2 0 107 4;
#X connect 2 0 108 4;
#X connect 3 0 74 2;
#X connect 3 0 80 2;
#X connect 3 0 87 2;
#X connect 6 0 107 0;
#X connect 6 0 108 0;
#X connect 7 0 106 1;
#X connect 7 0 108 1;
#X connect 8 0 41 0;
#X connect 11 0 13 0;
#X connect 13 0 12 0;
#X connect 13 0 15 0;
#X connect 13 0 40 0;
#X connect 15 0 45 0;
#X connect 17 0 42 0;
#X connect 17 0 47 0;
#X connect 18 0 37 0;
#X connect 22 0 0 1;
#X connect 22 1 1 1;
#X connect 22 1 82 0;
#X connect 23 0 22 0;
#X connect 23 1 78 0;
#X connect 24 0 25 0;
#X connect 25 0 72 0;
#X connect 25 1 43 0;
#X connect 26 0 39 0;
#X connect 28 0 34 0;
#X connect 33 0 106 3;
#X connect 34 1 42 0;
#X connect 34 2 41 0;
#X connect 34 3 75 0;
#X connect 34 4 37 0;
#X connect 34 5 101 0;
#X connect 34 6 24 0;
#X connect 37 0 38 0;
#X connect 37 0 29 0;
#X connect 38 0 70 0;
#X connect 38 1 11 1;
#X connect 39 0 11 0;
#X connect 40 0 2 0;
#X connect 40 0 81 0;
#X connect 41 0 23 0;
#X connect 42 0 44 0;
#X connect 43 0 73 1;
#X connect 44 0 70 0;
#X connect 44 0 71 0;
#X connect 46 0 16 0;
#X connect 48 0 0 0;
#X connect 49 0 1 0;
#X connect 70 0 73 0;
#X connect 72 0 43 0;
#X connect 73 0 26 0;
#X connect 74 0 48 0;
#X connect 75 0 97 0;
#X connect 75 1 88 0;
#X connect 75 2 76 0;
#X connect 75 3 85 0;
#X connect 76 0 106 2;
#X connect 76 0 107 2;
#X connect 78 0 3 0;
#X connect 78 0 79 0;
#X connect 80 1 49 0;
#X connect 83 0 84 0;
#X connect 85 0 86 0;
#X connect 86 0 74 2;
#X connect 86 0 80 2;
#X connect 86 0 87 2;
#X connect 87 0 104 0;
#X connect 87 1 105 0;
#X connect 88 0 98 0;
#X connect 88 1 92 0;
#X connect 89 0 74 3;
#X connect 89 0 80 3;
#X connect 89 0 87 3;
#X connect 89 0 108 3;
#X connect 90 0 80 4;
#X connect 90 0 106 4;
#X connect 92 0 89 0;
#X connect 97 0 74 2;
#X connect 97 0 80 2;
#X connect 97 0 87 2;
#X connect 97 0 106 2;
#X connect 97 0 107 2;
#X connect 97 0 108 2;
#X connect 98 0 33 0;
#X connect 99 0 87 4;
#X connect 99 0 108 4;
#X connect 101 0 102 0;
#X connect 101 1 103 0;
#X connect 102 0 90 0;
#X connect 103 0 99 0;
#X connect 104 0 48 0;
#X connect 105 0 49 0;
#X connect 106 1 80 1;
#X connect 107 0 74 0;
#X connect 108 0 87 0;
#X connect 108 1 87 1;
#X connect 109 0 86 0;
#X coords 0 -1 1 1 200 500 1 100 100;
