#N canvas 81 61 1236 705 12;
#X obj 43 526 spigot~;
#X obj 284 526 spigot~;
#X msg 473 230 0 \$1;
#X msg 341 90 2 \$1;
#X msg 321 -12 1 0.333;
#X obj 111 272 st-delay.meh;
#X obj 89 550 outlet~;
#X obj 331 550 outlet~;
#X obj -56 35 inlet~;
#X obj -5 35 inlet~;
#X obj 391 -45 inlet;
#X text -41 220 st-delayfb.meh;
#X text -41 236 Lineal (no-log);
#X obj 717 391 *;
#X floatatom 784 437 0 0 0 0 - - -;
#X obj 717 417 / 500;
#X text 788 395 corrector BPM;
#X obj 717 443 * 1000;
#X floatatom 111 432 0 0 0 0 - - -;
#X obj 717 159 inlet;
#X obj 882 203 inlet;
#X text 842 183 r \$1-main-bpm-ms;
#X text 714 139 0 - 16;
#X text 168 435 ms de delay;
#X obj 423 61 lin-eq-conv 0 1 0 0.5;
#X obj 391 506 t f f;
#X obj 391 34 t f f;
#X obj 12 426 *~ 0;
#X obj 318 453 *~ 0;
#X obj 373 386 loadbang;
#X obj 373 410 \$2;
#X obj 916 30 \$1;
#X obj 916 54 route 0;
#X msg 717 331 \$1 \$2;
#X obj 717 303 list append;
#X text 915 -21 tiempo para cambiar \; de time-delay (20ms default)
;
#X obj 505 266 * 1;
#X obj 545 -136 loadbang;
#X obj 523 184 route 0;
#X obj 523 160 \$3;
#X floatatom 373 434 5 0 0 0 - - -;
#X obj 37 331 loadbang;
#X obj 37 355 \$2;
#X floatatom 37 379 5 0 0 0 - - -;
#X floatatom 932 289 0 0 0 0 - - -;
#X msg 505 291 0 \$1;
#X floatatom 568 286 5 0 0 0 - - -;
#X text 415 423 0: TOTAL;
#X text 415 410 PANEO;
#X text 415 436 1: MONO;
#X text 504 110 DELAY ADICIONAL \; CANAL DERECHO;
#X text -46 130 LEFT;
#X text -46 140 LEFT;
#X text -46 150 LEFT;
#X text -40 356 RIGHT;
#X text -40 366 RIGHT;
#X text -40 376 RIGHT;
#X msg 112 1 0 1;
#X msg 179 54 0 \$1;
#X msg 197 -8 0;
#X obj 545 -113 t b b b b b b b;
#X text 347 110 gain;
#X text 120 17 delay;
#X obj 717 273 1;
#X obj 882 269 f 500;
#X text 930 267 120bpm - 500ms default;
#X obj 882 305 t b f;
#X obj 717 363 line 1 1;
#X obj 473 204 t f f;
#X floatatom 569 237 5 0 0 0 - - -;
#X obj 179 28 f 1;
#X obj 275 -59 t b b b;
#X obj 391 9 f 1;
#X obj 717 193 f 7;
#X obj 916 78 f 20;
#N canvas 246 192 547 416 delay-lenghts 0;
#X obj 27 237 route 0 1 2 3 4 5 6 7;
#X msg 347 287 2;
#X msg 307 287 1.5;
#X msg 267 287 1;
#X msg 227 287 0.75;
#X msg 157 287 0.666667;
#X msg 117 287 0.5;
#X msg 67 287 0.25;
#X msg 27 287 0.125;
#X text 385 287 value * beat;
#X obj 27 48 moses 8;
#X obj 73 76 - 8;
#X obj 73 100 route 0 1 2 3 4 5 6 7;
#X msg 393 150 2;
#X msg 353 150 1.5;
#X msg 313 150 1;
#X msg 273 150 0.75;
#X msg 203 150 0.666667;
#X msg 163 150 0.5;
#X msg 113 150 0.25;
#X msg 73 150 0.125;
#X obj 27 347 / 2;
#X obj 73 210 t f;
#X obj 27 15 inlet;
#X obj 27 385 outlet;
#X connect 0 0 8 0;
#X connect 0 1 7 0;
#X connect 0 2 6 0;
#X connect 0 3 5 0;
#X connect 0 4 4 0;
#X connect 0 5 3 0;
#X connect 0 6 2 0;
#X connect 0 7 1 0;
#X connect 1 0 21 0;
#X connect 2 0 21 0;
#X connect 3 0 21 0;
#X connect 4 0 21 0;
#X connect 5 0 21 0;
#X connect 6 0 21 0;
#X connect 7 0 21 0;
#X connect 8 0 21 0;
#X connect 10 0 0 0;
#X connect 10 1 11 0;
#X connect 11 0 12 0;
#X connect 12 0 20 0;
#X connect 12 1 19 0;
#X connect 12 2 18 0;
#X connect 12 3 17 0;
#X connect 12 4 16 0;
#X connect 12 5 15 0;
#X connect 12 6 14 0;
#X connect 12 7 13 0;
#X connect 13 0 22 0;
#X connect 14 0 22 0;
#X connect 15 0 22 0;
#X connect 16 0 22 0;
#X connect 17 0 22 0;
#X connect 18 0 22 0;
#X connect 19 0 22 0;
#X connect 20 0 22 0;
#X connect 21 0 24 0;
#X connect 22 0 24 0;
#X connect 23 0 10 0;
#X restore 717 236 pd delay-lenghts;
#X obj 717 475 s \$0-delay-ms;
#X obj 361 346 r \$0-delay-ms;
#X floatatom 762 179 5 0 0 0 - - -;
#X msg 401 128 2 \$1;
#X obj 401 103 * 1;
#X text 407 146 gain;
#X msg 452 98 0.9;
#X obj 43 502 *~ 1;
#X obj 284 502 *~ 1;
#X obj 569 211 t f b b;
#X msg 615 482 0.5;
#X text 504 503 En caso de no-paneo \; los dos canales suman 1;
#X text 394 -68 VVVV;
#X text 394 -78 VVVV;
#X text 718 122 VVVV;
#X text 718 112 VVVV;
#X text 883 167 VVVV;
#X text 883 157 VVVV;
#X text 883 147 VVVV;
#X text 718 102 VVVV;
#X text 394 -88 VVVV;
#X text -50 12 VVVV;
#X text -50 2 VVVV;
#X text -50 -8 VVVV;
#X text 1 12 VVVV;
#X text 1 2 VVVV;
#X text 1 -8 VVVV;
#X obj 111 194 st-delayfb2.meh;
#X obj 110 349 st-delayfb2.meh;
#X text 190 74 delay ADD;
#X text 439 249 delay MUL;
#X text 497 311 delay MUL;
#X text 326 8 feedback;
#X text -55 -142 st-feedback-stereo.meh \; ---------------------- \;
\$1- ms line para pasar de una a otro \; \$2- paneo (0: total \, 1:-mono)
\; \$3- delay adicional del canal derecho \; (0: panea \, otro:no-panea)
\; (no panea \, solo agrega un pequeño delay) \;;
#X connect 0 1 6 0;
#X connect 1 1 7 0;
#X connect 2 0 103 4;
#X connect 3 0 103 2;
#X connect 4 0 103 2;
#X connect 4 0 104 2;
#X connect 5 0 104 0;
#X connect 5 1 104 1;
#X connect 8 0 5 0;
#X connect 8 0 103 0;
#X connect 9 0 5 1;
#X connect 9 0 103 1;
#X connect 10 0 72 0;
#X connect 13 0 15 0;
#X connect 15 0 14 0;
#X connect 15 0 17 0;
#X connect 15 0 68 0;
#X connect 17 0 76 0;
#X connect 19 0 73 0;
#X connect 19 0 78 0;
#X connect 20 0 64 0;
#X connect 24 0 3 0;
#X connect 24 0 80 0;
#X connect 25 0 0 1;
#X connect 25 1 1 1;
#X connect 26 0 25 0;
#X connect 26 1 24 0;
#X connect 27 0 83 0;
#X connect 28 0 84 0;
#X connect 29 0 30 0;
#X connect 30 0 40 0;
#X connect 31 0 32 0;
#X connect 32 0 74 0;
#X connect 32 1 74 0;
#X connect 33 0 67 0;
#X connect 34 0 33 0;
#X connect 36 0 45 0;
#X connect 36 0 46 0;
#X connect 37 0 60 0;
#X connect 38 0 82 0;
#X connect 38 1 85 0;
#X connect 39 0 38 0;
#X connect 40 0 28 1;
#X connect 41 0 42 0;
#X connect 42 0 43 0;
#X connect 43 0 27 1;
#X connect 45 0 5 4;
#X connect 45 0 104 4;
#X connect 57 0 5 2;
#X connect 57 0 103 2;
#X connect 57 0 104 2;
#X connect 58 0 5 3;
#X connect 58 0 103 3;
#X connect 58 0 104 3;
#X connect 59 0 70 1;
#X connect 60 1 73 0;
#X connect 60 2 72 0;
#X connect 60 3 71 0;
#X connect 60 4 64 0;
#X connect 60 5 39 0;
#X connect 60 6 31 0;
#X connect 63 0 34 0;
#X connect 64 0 66 0;
#X connect 64 0 44 0;
#X connect 66 0 63 0;
#X connect 66 1 13 1;
#X connect 67 0 13 0;
#X connect 68 0 2 0;
#X connect 68 1 36 0;
#X connect 70 0 58 0;
#X connect 71 0 57 0;
#X connect 71 1 70 0;
#X connect 71 2 4 0;
#X connect 72 0 26 0;
#X connect 73 0 75 0;
#X connect 74 0 34 1;
#X connect 75 0 63 0;
#X connect 77 0 18 0;
#X connect 79 0 5 2;
#X connect 79 0 104 2;
#X connect 80 0 79 0;
#X connect 82 0 80 1;
#X connect 83 0 0 0;
#X connect 84 0 1 0;
#X connect 85 0 69 0;
#X connect 85 0 36 1;
#X connect 85 1 59 0;
#X connect 85 2 86 0;
#X connect 86 0 84 1;
#X connect 86 0 83 1;
#X connect 103 0 83 0;
#X connect 103 1 28 0;
#X connect 104 0 27 0;
#X connect 104 1 84 0;
#X coords 0 -1 1 1 200 360 1 100 100;
