#N canvas 161 56 952 708 10;
#X obj 360 54 inlet~ carrier(synth);
#X obj 562 40 inlet~ modulator(voice);
#X obj 487 645 outlet~;
#X obj 179 135 hsl 70 12 0 1 0 1 \$0-slur \$0-slur-r slur -35 7 0 10
-262144 -1 -1 300 0;
#X obj 179 150 hsl 70 12 0 1 0 1 \$0-noise \$0-noise-r noise -40 7
0 10 -262144 -1 -1 2700 0;
#X obj 796 112 r \$0-slur;
#X obj 682 161 s \$0-slur-r;
#X obj 800 182 r \$0-noise;
#X obj 686 231 s \$0-noise-r;
#N canvas 0 22 450 300 tanh 0;
#X obj 35 134 *~;
#X obj 35 155 +~ 27;
#X obj 95 122 *~;
#X obj 95 143 *~ 9;
#X obj 17 177 *~;
#X obj 17 212 /~;
#X obj 96 166 +~ 27;
#X obj 17 235 outlet~;
#X obj 17 62 clip~ -3 3;
#X obj 17 39 inlet~;
#X text 18 10 tanh(x) ~= x*(27+x*x) / (27+9*x*x);
#X connect 0 0 1 0;
#X connect 1 0 4 1;
#X connect 2 0 3 0;
#X connect 3 0 6 0;
#X connect 4 0 5 0;
#X connect 5 0 7 0;
#X connect 6 0 5 1;
#X connect 8 0 4 0;
#X connect 8 0 0 0;
#X connect 8 0 0 1;
#X connect 8 0 2 0;
#X connect 8 0 2 1;
#X connect 9 0 8 0;
#X restore 484 624 pd tanh;
#X obj 485 605 *~ 10;
#X obj 179 165 hsl 70 12 0 1 0 1 \$0-volume \$0-volume-r volume -47
7 0 10 -262144 -1 -1 4000 0;
#X obj 753 553 r \$0-volume;
#X obj 803 264 r \$0-volume;
#X obj 689 313 s \$0-volume-r;
#X obj 270 129 nbx 5 14 10 99 0 1 \$0-bandwidth empty bandwidth 0 -8
0 10 -262144 -1 -1 28 256;
#X obj 681 139 808_state \$1/slur \$2 \$3;
#X obj 685 209 808_state \$1/noise \$2 \$3;
#X obj 689 291 808_state \$1/volume \$2 \$3;
#X obj 413 102 vocovoice 100 15 \$0;
#X obj 237 531 noise~;
#X obj 302 459 r \$0-noise;
#X obj 313 571 line~;
#X msg 315 550 \$1 15;
#X obj 296 612 *~;
#X obj 179 121 hsl 70 12 0 1 0 1 \$0-sensitivity \$0-0-sensitivity-r
sensitivity -72 7 0 10 -262144 -1 -1 4000 0;
#X obj 699 361 808_state \$1/sensitivity \$2 \$3;
#X obj 813 334 r \$0-sensitivity;
#X obj 699 383 s \$0-sensitivity-r;
#X obj 615 73 r \$0-sensitivity;
#X obj 615 202 line~;
#X msg 617 181 \$1 15;
#X obj 560 68 *~;
#X obj 237 553 hip~ 1000;
#X obj 237 573 hip~ 1000;
#X obj 754 599 * 100;
#X obj 754 577 pow 3;
#X obj 614 103 + 0.25;
#X obj 616 131 pow 4;
#X obj 618 155 * 0.25;
#X obj 414 543 vocovoice2 8000 15 \$0;
#X obj 414 566 vocovoice2 10000 15 \$0;
#X obj 301 493 * 0.75;
#X obj 304 522 pow 6;
#X obj 103 188 vsl 10 60 0 1 0 0 \$0-band-0 \$0-band-0-r empty 0 -9
0 10 -176129 -262144 -1 2950 0;
#X obj 115 188 vsl 10 60 0 1 0 0 \$0-band-1 \$0-band-1-r empty 0 -9
0 10 -176129 -262144 -1 2950 0;
#X obj 127 188 vsl 10 60 0 1 0 0 \$0-band-2 \$0-band-2-r empty 0 -9
0 10 -176129 -262144 -1 2950 0;
#X obj 139 188 vsl 10 60 0 1 0 0 \$0-band-3 \$0-band-3-r empty 0 -9
0 10 -176129 -262144 -1 2950 0;
#X obj 151 188 vsl 10 60 0 1 0 0 \$0-band-4 \$0-band-4-r empty 0 -9
0 10 -176129 -262144 -1 2950 0;
#X obj 163 188 vsl 10 60 0 1 0 0 \$0-band-5 \$0-band-5-r empty 0 -9
0 10 -176129 -262144 -1 2950 0;
#X obj 175 188 vsl 10 60 0 1 0 0 \$0-band-6 \$0-band-6-r empty 0 -9
0 10 -176129 -262144 -1 2950 0;
#X obj 187 188 vsl 10 60 0 1 0 0 \$0-band-7 \$0-band-7-r empty 0 -9
0 10 -176129 -262144 -1 2950 0;
#X obj 199 188 vsl 10 60 0 1 0 0 \$0-band-8 \$0-band-8-r empty 0 -9
0 10 -176129 -262144 -1 2950 0;
#X obj 211 188 vsl 10 60 0 1 0 0 \$0-band-9 \$0-band-9-r empty 0 -9
0 10 -176129 -262144 -1 2950 0;
#X obj 223 188 vsl 10 60 0 1 0 0 \$0-band-10 \$0-band-10-r empty 0
-9 0 10 -176129 -262144 -1 2950 0;
#X obj 235 188 vsl 10 60 0 1 0 0 \$0-band-11 \$0-band-11-r empty 0
-9 0 10 -176129 -262144 -1 2950 0;
#X obj 247 188 vsl 10 60 0 1 0 0 \$0-band-12 \$0-band-12-r empty 0
-9 0 10 -176129 -262144 -1 2950 0;
#X obj 259 188 vsl 10 60 0 1 0 0 \$0-band-13 \$0-band-13-r empty 0
-9 0 10 -176129 -262144 -1 2950 0;
#X obj 271 188 vsl 10 60 0 1 0 0 \$0-band-14 \$0-band-14-r empty 0
-9 0 10 -176129 -262144 -1 2950 0;
#X obj 283 188 vsl 10 60 0 1 0 0 \$0-band-15 \$0-band-15-r empty 0
-9 0 10 -176129 -262144 -1 2950 0;
#X obj 295 188 vsl 10 60 0 1 0 0 \$0-band-16 \$0-band-16-r empty 0
-9 0 10 -176129 -262144 -1 2950 0;
#X obj 307 188 vsl 10 60 0 1 0 0 \$0-band-17 \$0-band-17-r empty 0
-9 0 10 -176129 -262144 -1 2950 0;
#X obj 319 188 vsl 10 60 0 1 0 0 \$0-band-18 \$0-band-18-r empty 0
-9 0 10 -176129 -262144 -1 2950 0;
#X obj 331 188 vsl 10 60 0 1 0 0 \$0-band-19 \$0-band-19-r empty 0
-9 0 10 -176129 -262144 -1 2950 0;
#X obj 411 146 vocovoice 230 15 \$0;
#X obj 415 412 vocovoice 2350 15 \$0;
#X obj 412 124 vocovoice 150 15 \$0;
#X obj 412 170 vocovoice 300 15 \$0;
#X obj 413 194 vocovoice 400 15 \$0;
#X obj 412 214 vocovoice 500 15 \$0;
#X obj 412 234 vocovoice 650 15 \$0;
#X obj 409 257 vocovoice 750 15 \$0;
#X obj 412 280 vocovoice 900 15 \$0;
#X obj 411 301 vocovoice 1050 15 \$0;
#X obj 411 324 vocovoice 1250 15 \$0;
#X obj 412 345 vocovoice 1450 15 \$0;
#X obj 415 366 vocovoice 1700 15 \$0;
#X obj 414 388 vocovoice 2000 15 \$0;
#X obj 416 432 vocovoice 2650 15 \$0;
#X obj 415 456 vocovoice 3200 15 \$0;
#X obj 415 476 vocovoice 4000 15 \$0;
#X obj 415 500 vocovoice 5000 15 \$0;
#X obj 415 520 vocovoice 6500 15 \$0;
#X msg 23 235 0;
#X obj 256 150 bng 15 250 50 0 empty empty zero 17 7 0 10 -262144 -1
-1;
#X obj 309 150 bng 15 250 50 0 empty empty one 17 7 0 10 -262144 -1
-1;
#X msg 64 254 1;
#X obj 43 287 t f;
#N canvas 0 22 754 456 band-states 0;
#X obj 83 58 808_state \$1/band-0 \$2 \$3;
#X obj 198 31 r \$0-band-0;
#X obj 84 80 s \$0-band-0-r;
#X obj 201 77 r \$0-band-1;
#X obj 199 125 r \$0-band-2;
#X obj 202 171 r \$0-band-3;
#X obj 202 223 r \$0-band-4;
#X obj 205 268 r \$0-band-5;
#X obj 203 316 r \$0-band-6;
#X obj 206 362 r \$0-band-7;
#X obj 392 23 r \$0-band-8;
#X obj 395 69 r \$0-band-9;
#X obj 393 117 r \$0-band-10;
#X obj 396 163 r \$0-band-11;
#X obj 397 211 r \$0-band-12;
#X obj 400 257 r \$0-band-13;
#X obj 398 305 r \$0-band-14;
#X obj 401 351 r \$0-band-15;
#X obj 584 19 r \$0-band-16;
#X obj 587 65 r \$0-band-17;
#X obj 585 113 r \$0-band-18;
#X obj 588 159 r \$0-band-19;
#X obj 86 104 808_state \$1/band-1 \$2 \$3;
#X obj 84 152 808_state \$1/band-2 \$2 \$3;
#X obj 87 198 808_state \$1/band-3 \$2 \$3;
#X obj 87 249 808_state \$1/band-4 \$2 \$3;
#X obj 90 295 808_state \$1/band-5 \$2 \$3;
#X obj 88 343 808_state \$1/band-6 \$2 \$3;
#X obj 91 389 808_state \$1/band-7 \$2 \$3;
#X obj 277 50 808_state \$1/band-8 \$2 \$3;
#X obj 280 96 808_state \$1/band-9 \$2 \$3;
#X obj 278 144 808_state \$1/band-10 \$2 \$3;
#X obj 281 190 808_state \$1/band-11 \$2 \$3;
#X obj 282 238 808_state \$1/band-12 \$2 \$3;
#X obj 285 284 808_state \$1/band-13 \$2 \$3;
#X obj 283 332 808_state \$1/band-14 \$2 \$3;
#X obj 286 378 808_state \$1/band-15 \$2 \$3;
#X obj 469 46 808_state \$1/band-16 \$2 \$3;
#X obj 472 92 808_state \$1/band-17 \$2 \$3;
#X obj 470 140 808_state \$1/band-18 \$2 \$3;
#X obj 473 186 808_state \$1/band-19 \$2 \$3;
#X obj 87 126 s \$0-band-1-r;
#X obj 85 174 s \$0-band-2-r;
#X obj 88 220 s \$0-band-3-r;
#X obj 88 271 s \$0-band-4-r;
#X obj 91 317 s \$0-band-5-r;
#X obj 89 365 s \$0-band-6-r;
#X obj 92 411 s \$0-band-7-r;
#X obj 278 72 s \$0-band-8-r;
#X obj 281 118 s \$0-band-9-r;
#X obj 279 166 s \$0-band-10-r;
#X obj 282 212 s \$0-band-11-r;
#X obj 283 260 s \$0-band-12-r;
#X obj 286 306 s \$0-band-13-r;
#X obj 284 354 s \$0-band-14-r;
#X obj 287 400 s \$0-band-15-r;
#X obj 470 68 s \$0-band-16-r;
#X obj 473 114 s \$0-band-17-r;
#X obj 471 162 s \$0-band-18-r;
#X obj 474 208 s \$0-band-19-r;
#X connect 0 0 2 0;
#X connect 1 0 0 1;
#X connect 3 0 22 1;
#X connect 4 0 23 1;
#X connect 5 0 24 1;
#X connect 6 0 25 1;
#X connect 7 0 26 1;
#X connect 8 0 27 1;
#X connect 9 0 28 1;
#X connect 10 0 29 1;
#X connect 11 0 30 1;
#X connect 12 0 31 1;
#X connect 13 0 32 1;
#X connect 14 0 33 1;
#X connect 15 0 34 1;
#X connect 16 0 35 1;
#X connect 17 0 36 1;
#X connect 18 0 37 1;
#X connect 19 0 38 1;
#X connect 20 0 39 1;
#X connect 21 0 40 1;
#X connect 22 0 41 0;
#X connect 23 0 42 0;
#X connect 24 0 43 0;
#X connect 25 0 44 0;
#X connect 26 0 45 0;
#X connect 27 0 46 0;
#X connect 28 0 47 0;
#X connect 29 0 48 0;
#X connect 30 0 49 0;
#X connect 31 0 50 0;
#X connect 32 0 51 0;
#X connect 33 0 52 0;
#X connect 34 0 53 0;
#X connect 35 0 54 0;
#X connect 36 0 55 0;
#X connect 37 0 56 0;
#X connect 38 0 57 0;
#X connect 39 0 58 0;
#X connect 40 0 59 0;
#X restore 176 340 pd band-states;
#X obj 281 167 bng 15 250 50 0 empty empty 1/2 17 7 0 10 -262144 -1
-1;
#X msg 115 327 0.5;
#N canvas 0 22 450 300 creationbang 0;
#X obj 93 13 r creationbang;
#X obj 120 121 spigot 1;
#X obj 93 57 t b b;
#X msg 165 93 0;
#X obj 120 158 outlet;
#X obj 205 12 loadbang;
#X connect 0 0 2 0;
#X connect 1 0 4 0;
#X connect 2 0 3 0;
#X connect 2 1 1 0;
#X connect 3 0 1 1;
#X connect 5 0 2 0;
#X restore 254 25 pd creationbang;
#X obj 698 450 808_state \$1/bandwidth \$2 \$3;
#X obj 812 423 r \$0-bandwidth;
#X obj 698 472 s \$0-bandwidth-r;
#X obj 773 40 inlet;
#X connect 0 0 19 0;
#X connect 1 0 32 0;
#X connect 5 0 16 1;
#X connect 7 0 17 1;
#X connect 9 0 2 0;
#X connect 10 0 9 0;
#X connect 12 0 36 0;
#X connect 13 0 18 1;
#X connect 16 0 6 0;
#X connect 17 0 8 0;
#X connect 18 0 14 0;
#X connect 19 0 66 0;
#X connect 19 1 66 1;
#X connect 19 2 66 2;
#X connect 20 0 33 0;
#X connect 21 0 42 0;
#X connect 22 0 24 1;
#X connect 23 0 22 0;
#X connect 24 0 40 0;
#X connect 26 0 28 0;
#X connect 27 0 26 1;
#X connect 29 0 37 0;
#X connect 30 0 32 1;
#X connect 31 0 30 0;
#X connect 32 0 19 2;
#X connect 33 0 34 0;
#X connect 34 0 24 0;
#X connect 35 0 10 1;
#X connect 36 0 35 0;
#X connect 37 0 38 0;
#X connect 38 0 39 0;
#X connect 39 0 31 0;
#X connect 40 0 41 0;
#X connect 40 1 41 1;
#X connect 40 2 41 2;
#X connect 41 1 10 0;
#X connect 42 0 43 0;
#X connect 43 0 23 0;
#X connect 44 0 19 3;
#X connect 45 0 66 3;
#X connect 46 0 64 3;
#X connect 47 0 67 3;
#X connect 48 0 68 3;
#X connect 49 0 69 3;
#X connect 50 0 70 3;
#X connect 51 0 71 3;
#X connect 52 0 72 3;
#X connect 53 0 73 3;
#X connect 54 0 74 3;
#X connect 55 0 75 3;
#X connect 56 0 76 3;
#X connect 57 0 77 3;
#X connect 58 0 65 3;
#X connect 59 0 78 3;
#X connect 60 0 79 3;
#X connect 61 0 80 3;
#X connect 62 0 81 3;
#X connect 63 0 82 3;
#X connect 64 0 67 0;
#X connect 64 1 67 1;
#X connect 64 2 67 2;
#X connect 65 0 78 0;
#X connect 65 1 78 1;
#X connect 65 2 78 2;
#X connect 66 0 64 0;
#X connect 66 1 64 1;
#X connect 66 2 64 2;
#X connect 67 0 68 0;
#X connect 67 1 68 1;
#X connect 67 2 68 2;
#X connect 68 0 69 0;
#X connect 68 1 69 1;
#X connect 68 2 69 2;
#X connect 69 0 70 0;
#X connect 69 1 70 1;
#X connect 69 2 70 2;
#X connect 70 0 71 0;
#X connect 70 1 71 1;
#X connect 70 2 71 2;
#X connect 71 0 72 0;
#X connect 71 1 72 1;
#X connect 71 2 72 2;
#X connect 72 0 73 0;
#X connect 72 1 73 1;
#X connect 72 2 73 2;
#X connect 73 0 74 0;
#X connect 73 1 74 1;
#X connect 73 2 74 2;
#X connect 74 0 75 0;
#X connect 74 1 75 1;
#X connect 74 2 75 2;
#X connect 75 0 76 0;
#X connect 75 1 76 1;
#X connect 75 2 76 2;
#X connect 76 0 77 0;
#X connect 76 1 77 1;
#X connect 76 2 77 2;
#X connect 77 0 65 0;
#X connect 77 1 65 1;
#X connect 77 2 65 2;
#X connect 78 0 79 0;
#X connect 78 1 79 1;
#X connect 78 2 79 2;
#X connect 79 0 80 0;
#X connect 79 1 80 1;
#X connect 79 2 80 2;
#X connect 80 0 81 0;
#X connect 80 1 81 1;
#X connect 80 2 81 2;
#X connect 81 0 82 0;
#X connect 81 1 82 1;
#X connect 81 2 82 2;
#X connect 82 1 40 1;
#X connect 82 2 40 2;
#X connect 83 0 87 0;
#X connect 84 0 83 0;
#X connect 85 0 86 0;
#X connect 86 0 87 0;
#X connect 87 0 44 0;
#X connect 87 0 45 0;
#X connect 87 0 46 0;
#X connect 87 0 47 0;
#X connect 87 0 48 0;
#X connect 87 0 49 0;
#X connect 87 0 50 0;
#X connect 87 0 51 0;
#X connect 87 0 52 0;
#X connect 87 0 53 0;
#X connect 87 0 54 0;
#X connect 87 0 55 0;
#X connect 87 0 56 0;
#X connect 87 0 57 0;
#X connect 87 0 58 0;
#X connect 87 0 59 0;
#X connect 87 0 60 0;
#X connect 87 0 61 0;
#X connect 87 0 62 0;
#X connect 87 0 63 0;
#X connect 89 0 90 0;
#X connect 90 0 87 0;
#X connect 91 0 89 0;
#X connect 92 0 94 0;
#X connect 93 0 92 1;
#X connect 95 0 15 0;
#X coords 0 -1 1 1 250 160 1 100 100;
