#N canvas 96 175 1165 587 12;
#X msg 505 184 0 \$1;
#X obj 110 300 outlet~;
#X obj 284 300 outlet~;
#X obj 84 35 inlet~;
#X obj 135 35 inlet~;
#X obj 391 -45 inlet;
#X obj 717 238 *;
#X floatatom 784 284 0 0 0 0 - - -;
#X obj 717 264 / 500;
#X text 788 242 corrector BPM;
#X floatatom 111 216 0 0 0 0 - - -;
#X obj 717 6 inlet;
#X obj 882 50 inlet;
#X text 842 30 r \$1-main-bpm-ms;
#X text 168 219 ms de delay;
#X obj 812 -69 route 0;
#X msg 717 178 \$1 \$2;
#X text 781 -154 tiempo para cambiar \; de time-delay (20ms default)
;
#X obj 545 -144 loadbang;
#X floatatom 932 136 0 0 0 0 - - -;
#X msg 187 -42 0 1;
#X obj 545 -121 t b b b b b b b;
#X text 347 101 gain;
#X text 203 -25 delay;
#X obj 882 116 f 500;
#X obj 882 152 t b f;
#X obj 717 210 line 1 1;
#X obj 391 9 f 1;
#X obj 717 40 f 7;
#X obj 812 -3 f 20;
#X floatatom 762 26 5 0 0 0 - - -;
#X text 394 -68 VVVV;
#X text 394 -78 VVVV;
#X text 718 -31 VVVV;
#X text 718 -41 VVVV;
#X text 883 14 VVVV;
#X text 883 4 VVVV;
#X text 883 -6 VVVV;
#X text 718 -51 VVVV;
#X text 394 -88 VVVV;
#X text 90 12 VVVV;
#X text 90 2 VVVV;
#X text 90 -8 VVVV;
#X text 141 12 VVVV;
#X text 141 2 VVVV;
#X text 141 -8 VVVV;
#X text 490 208 delay MUL;
#X text 927 163 default \; 120bpm - 500ms;
#X obj 717 120 f 1;
#X floatatom 752 103 0 0 0 0 - - -;
#X obj 812 -46 t b;
#X obj 717 150 list append 20;
#X obj 187 -101 t b b b b;
#X obj 391 41 lin-eq-conv 0 1 0 0.5;
#X text 714 -14 0 - 15;
#X msg 252 29 1 0.5;
#X msg 312 29 2 0.8;
#N canvas 653 185 408 241 lfo-lenghts 0;
#X obj -3 67 route 0 1 2 3 4 5 6 7;
#X obj -3 35 inlet;
#X obj -3 217 outlet;
#X msg -3 119 0.03125;
#X msg 329 117 4;
#X msg 286 116 2;
#X msg 247 117 1;
#X msg 209 117 0.5;
#X msg 169 117 0.25;
#X msg 117 117 0.125;
#X msg 61 117 0.0625;
#X connect 0 0 3 0;
#X connect 0 1 10 0;
#X connect 0 2 9 0;
#X connect 0 3 8 0;
#X connect 0 4 7 0;
#X connect 0 5 6 0;
#X connect 0 6 5 0;
#X connect 0 7 4 0;
#X connect 1 0 0 0;
#X connect 3 0 2 0;
#X connect 4 0 2 0;
#X connect 5 0 2 0;
#X connect 6 0 2 0;
#X connect 7 0 2 0;
#X connect 8 0 2 0;
#X connect 9 0 2 0;
#X connect 10 0 2 0;
#X restore 717 73 pd lfo-lenghts;
#X text 615 77 ---->>>;
#X text 615 87 ---->>>;
#X text 615 97 ---->>>;
#X obj 520 2 hradio 15 1 0 8 empty empty empty 0 -8 0 10 -262144 -1
-1 0;
#X obj 111 121 st-flanger.meh;
#X obj 717 340 s \$0-flanger-ms;
#X obj -8 140 r \$0-flanger-ms;
#X obj 717 312 expr 1000 / $f1;
#X msg 341 81 3 \$1;
#X obj 261 -57 route 0;
#X msg 349 -22 2 \$1;
#X msg 308 -22 1 \$1;
#X obj 812 -101 \$2;
#X obj 349 -142 t b;
#X obj 261 -81 \$3;
#X obj 349 -168 r \$1-fx-press;
#X text -24 -251 st-flanger-patch.meh \; ---------------------- \;
\$1- FX \; \$2- ms line para pasar de una a otro (default: 20ms) \;
\$3- width y feedback \; \; inlet-1 inlet-2: signals \; inlet-3: 0-1
wet \; inlet-4: 0-15 - delay-time (predefinidos) \; inlet-5: main-bpm-ms
;
#X connect 0 0 62 4;
#X connect 3 0 62 0;
#X connect 4 0 62 1;
#X connect 5 0 27 0;
#X connect 6 0 8 0;
#X connect 8 0 7 0;
#X connect 8 0 0 0;
#X connect 8 0 65 0;
#X connect 11 0 28 0;
#X connect 11 0 30 0;
#X connect 12 0 24 0;
#X connect 15 0 50 0;
#X connect 15 1 29 0;
#X connect 16 0 26 0;
#X connect 18 0 21 0;
#X connect 20 0 62 2;
#X connect 21 1 28 0;
#X connect 21 2 27 0;
#X connect 21 3 52 0;
#X connect 21 4 24 0;
#X connect 21 6 70 0;
#X connect 24 0 25 0;
#X connect 24 0 19 0;
#X connect 25 0 48 0;
#X connect 25 1 6 1;
#X connect 26 0 6 0;
#X connect 27 0 53 0;
#X connect 28 0 57 0;
#X connect 29 0 51 1;
#X connect 48 0 51 0;
#X connect 50 0 29 0;
#X connect 51 0 16 0;
#X connect 52 0 20 0;
#X connect 52 3 72 0;
#X connect 53 0 66 0;
#X connect 55 0 62 2;
#X connect 56 0 62 2;
#X connect 57 0 48 0;
#X connect 61 0 28 0;
#X connect 62 0 1 0;
#X connect 62 1 2 0;
#X connect 64 0 10 0;
#X connect 65 0 63 0;
#X connect 66 0 62 2;
#X connect 67 0 56 0;
#X connect 67 0 55 0;
#X connect 67 1 69 0;
#X connect 67 1 68 0;
#X connect 68 0 62 2;
#X connect 69 0 62 2;
#X connect 70 0 15 0;
#X connect 71 0 62 5;
#X connect 72 0 67 0;
#X connect 73 0 71 0;
#X coords 0 -1 1 1 200 140 1 100 100;
