#N canvas 607 213 642 455 12;
#N canvas 274 199 914 532 tabread_out 0;
#X obj 403 -122 snapshot~;
#X obj -184 268 outlet~;
#X obj -185 -55 *~;
#X obj 136 -54 *~;
#X text -240 -140 ---->>;
#X obj 154 -80 tgl 15 0 empty empty empty 17 7 0 10 -262144 -1 -1 1
1;
#X obj -167 -79 tgl 15 0 empty empty empty 17 7 0 10 -262144 -1 -1
0 1;
#X msg 65 130 1;
#X msg 65 182 0;
#X obj -185 225 *~;
#X obj -167 202 tgl 15 0 empty empty empty 17 7 0 10 -262144 -1 -1
1 1;
#X obj -167 -109 r \$0-elije_tableA;
#X obj 154 -110 r \$0-elije_tableB;
#X obj 403 -70 s \$0-donde_esta;
#X obj 65 105 r \$0-is_lupeando;
#X obj 66 156 r \$0-stop;
#X obj 421 82 hsl 128 15 0 8000 0 0 empty \$0-donde_esta empty -2 -8
0 10 -204786 -1 -1 12225 1;
#X floatatom 553 78 10 0 0 0 - #0_donde_esta -;
#X obj -186 36 tabread4~ \$0-tableA-l;
#X obj 136 35 tabread4~ \$0-tableB-l;
#X obj 356 -5 tabread4~ \$0-tableB-r;
#X obj -26 -4 tabread4~ \$0-tableA-r;
#X obj 355 225 *~;
#X obj 373 202 tgl 15 0 empty empty empty 17 7 0 10 -262144 -1 -1 1
1;
#X obj 356 268 outlet~;
#X obj -185 -141 catch~ \$0-phasor;
#X obj 403 -152 r met50;
#X obj 403 -95 / 48;
#X connect 0 0 27 0;
#X connect 2 0 18 0;
#X connect 2 0 21 0;
#X connect 3 0 19 0;
#X connect 3 0 20 0;
#X connect 5 0 3 1;
#X connect 6 0 2 1;
#X connect 7 0 10 0;
#X connect 7 0 23 0;
#X connect 8 0 10 0;
#X connect 8 0 23 0;
#X connect 9 0 1 0;
#X connect 10 0 9 1;
#X connect 11 0 6 0;
#X connect 12 0 5 0;
#X connect 14 0 7 0;
#X connect 15 0 8 0;
#X connect 18 0 9 0;
#X connect 19 0 9 0;
#X connect 20 0 22 0;
#X connect 21 0 22 0;
#X connect 22 0 24 0;
#X connect 23 0 22 1;
#X connect 25 0 0 0;
#X connect 25 0 2 0;
#X connect 25 0 3 0;
#X connect 26 0 0 0;
#X connect 27 0 13 0;
#X coords 0 532 1 531 220 80 0;
#X restore -98 77 pd tabread_out;
#X floatatom 167 -40 10 0 0 0 - #0_tableA_pos -;
#X obj 109 -21 hsl 128 15 0 8000 0 0 empty \$0-tableA_pos empty -2
-8 0 10 -203904 -1 -1 5891 1;
#X floatatom 167 2 10 0 0 0 - #0_tableB_pos -;
#X obj 109 21 hsl 128 15 0 8000 0 0 empty \$0-tableB_pos empty -2 -8
0 10 -261234 -1 -1 0 1;
#X text 103 -42 Pista 1;
#X obj 109 144 hsl 128 15 0 8000 0 0 empty \$0-donde_esta empty -2
-8 0 10 -204786 -1 -1 12225 1;
#X floatatom 167 125 10 0 0 0 - #0_donde_esta -;
#N canvas 1 118 1349 648 tabwrite_in 0;
#X obj -294 91 spigot;
#X obj -220 96 route 0;
#X obj -220 66 tgl 15 0 empty empty empty 17 7 0 10 -203904 -1 -1 0
1;
#X obj -132 116 bng 15 250 50 0 empty empty empty 17 7 0 10 -203904
-1 -1;
#X obj -71 372 vline~;
#X obj -168 242 bng 15 250 50 0 empty empty empty 17 7 0 10 -203904
-1 -1;
#X obj 541 159 delay 4000;
#X obj 541 222 metro 8000;
#X obj -132 222 metro 8000;
#X obj 642 385 vline~;
#X obj -364 291 inlet~;
#X obj 515 242 bng 15 250 50 0 empty empty empty 17 7 0 10 -203904
-1 -1;
#X msg 202 397 1;
#X msg 162 397 0;
#X msg 358 397 1;
#X msg 318 397 0;
#X text -366 265 ENTRADA MIC;
#X obj 170 338 spigot;
#X msg 169 293 1;
#X obj 209 319 tgl 15 0 empty empty empty 17 7 0 10 -203904 -1 -1 1
1;
#X msg 209 293 0;
#X obj 170 369 t b b;
#X obj -132 139 t b b b b;
#X obj 318 196 t b b;
#X obj 144 507 *~;
#X obj 300 509 *~;
#X msg -270 169 stop;
#X text -269 448 PISTAS;
#X obj 318 437 tgl 15 0 empty empty empty 17 7 0 10 -203904 -1 -1 1
1;
#X obj 162 438 tgl 15 0 empty empty empty 17 7 0 10 -203904 -1 -1 0
1;
#X obj -296 123 bng 15 250 50 0 empty empty empty 17 7 0 10 -203904
-1 -1;
#X obj -328 -13 r \$0-stop;
#X obj -270 195 s \$0-stop_rec;
#X obj -122 190 r \$0-stop_rec;
#X obj 669 130 r \$0-stop_rec;
#X text 644 493 POSICION TABLE B;
#X obj -294 13 r \$0-sigue_recording;
#X obj 171 462 s \$0-elije_tableA;
#X obj 326 461 s \$0-elije_tableB;
#X obj 219 567 s~ \$0-saca_end_ms;
#X floatatom 241 75 10 0 0 0 - #0_tableA_pos -;
#X obj 109 79 hsl 128 15 0 8000 0 0 empty \$0-tableA_pos empty -2 -8
0 10 -203904 -1 -1 5891 1;
#X floatatom 241 97 10 0 0 0 - #0_tableB_pos -;
#X obj 109 101 hsl 128 15 0 8000 0 0 empty \$0-tableB_pos empty -2
-8 0 10 -261234 -1 -1 0 1;
#X text 41 74 Pista 1;
#X text 41 98 Pista 2;
#X obj -254 291 inlet~;
#X obj -365 320 s~ \$0-mic_in-l;
#X obj -255 320 s~ \$0-mic_in-r;
#X obj -131 659 tabwrite~ \$0-tableA-l;
#X obj -99 624 r~ \$0-mic_in-l;
#X obj -65 556 r~ \$0-mic_in-r;
#X obj -75 583 tabwrite~ \$0-tableA-r;
#X obj 600 553 r~ \$0-mic_in-r;
#X obj 590 579 tabwrite~ \$0-tableB-r;
#X obj 571 613 r~ \$0-mic_in-l;
#X obj 541 649 tabwrite~ \$0-tableB-l;
#X obj 33 -51 r \$1-onoff;
#X obj -75 522 r \$0-stop_rec;
#X obj -61 342 r \$0-stop_rec;
#X obj -131 251 t b b b b;
#X obj -131 546 t b b;
#X obj 652 355 r \$0-stop_rec;
#X obj 590 522 r \$0-stop_rec;
#X obj 541 257 t b b b b;
#X obj 541 541 t b b;
#X obj -158 -74 r \$1-fx-press;
#X floatatom -152 -49 5 0 0 0 - - -;
#X obj 41 -20 route -1 0 1;
#X msg 16 14 0;
#X msg 72 19 1;
#X obj 48 376 bng 15 250 50 0 empty empty empty 17 7 0 10 -262144 -1
-1;
#X obj -84 -13 expr 1 - $f1;
#X obj -336 224 s \$0-stop2;
#X obj 410 32 bng 30 250 50 0 empty empty empty 17 7 0 10 -203904 -1
-1;
#X text 448 36 stop;
#X obj 410 72 s \$0-stop;
#X obj 410 2 route 0;
#X obj 410 -18 r \$0-fx-press;
#X msg -71 311 0 \, 384000 8000;
#X msg 642 320 0 \, 384000 8000;
#X obj -332 475 table \$0-tableA-l 384003;
#X obj -332 495 table \$0-tableA-r 384003;
#X obj -332 529 table \$0-tableB-l 384003;
#X obj -332 549 table \$0-tableB-r 384003;
#X obj -71 422 snapshot~;
#X obj -71 462 s \$0-tableA_pos;
#X obj -71 442 / 48;
#X obj -58 402 r met50;
#X obj 642 435 snapshot~;
#X obj 642 475 s \$0-tableA_pos;
#X obj 642 455 / 48;
#X obj 655 415 r met50;
#X text -70 480 POSICION TABLE A;
#X connect 0 0 22 0;
#X connect 0 0 30 0;
#X connect 1 0 26 0;
#X connect 1 1 3 0;
#X connect 2 0 0 1;
#X connect 2 0 1 0;
#X connect 3 0 22 0;
#X connect 4 0 24 0;
#X connect 4 0 85 0;
#X connect 6 0 7 0;
#X connect 7 0 11 0;
#X connect 7 0 64 0;
#X connect 8 0 5 0;
#X connect 8 0 60 0;
#X connect 9 0 25 0;
#X connect 9 0 89 0;
#X connect 10 0 47 0;
#X connect 12 0 28 0;
#X connect 13 0 29 0;
#X connect 14 0 29 0;
#X connect 15 0 28 0;
#X connect 17 0 21 0;
#X connect 18 0 19 0;
#X connect 19 0 17 1;
#X connect 20 0 19 0;
#X connect 21 0 13 0;
#X connect 21 1 12 0;
#X connect 22 0 8 0;
#X connect 22 1 6 0;
#X connect 22 2 20 0;
#X connect 22 3 23 0;
#X connect 23 0 15 0;
#X connect 23 1 14 0;
#X connect 24 0 39 0;
#X connect 25 0 39 0;
#X connect 26 0 32 0;
#X connect 28 0 25 1;
#X connect 28 0 38 0;
#X connect 29 0 24 1;
#X connect 29 0 37 0;
#X connect 31 0 0 0;
#X connect 33 0 8 0;
#X connect 34 0 7 0;
#X connect 34 0 6 0;
#X connect 36 0 0 0;
#X connect 46 0 48 0;
#X connect 50 0 49 0;
#X connect 51 0 52 0;
#X connect 53 0 54 0;
#X connect 55 0 56 0;
#X connect 57 0 68 0;
#X connect 58 0 52 0;
#X connect 58 0 49 0;
#X connect 59 0 4 0;
#X connect 59 0 71 0;
#X connect 60 0 61 0;
#X connect 60 1 18 0;
#X connect 60 2 17 0;
#X connect 60 3 79 0;
#X connect 61 0 49 0;
#X connect 61 1 52 0;
#X connect 62 0 9 0;
#X connect 63 0 54 0;
#X connect 63 0 56 0;
#X connect 64 0 65 0;
#X connect 64 1 14 0;
#X connect 64 2 15 0;
#X connect 64 3 80 0;
#X connect 65 0 56 0;
#X connect 65 1 54 0;
#X connect 66 0 67 0;
#X connect 66 0 72 0;
#X connect 68 0 69 0;
#X connect 68 1 70 0;
#X connect 68 2 70 0;
#X connect 69 0 2 0;
#X connect 70 0 2 0;
#X connect 72 0 2 0;
#X connect 74 0 76 0;
#X connect 77 0 74 0;
#X connect 78 0 77 0;
#X connect 79 0 4 0;
#X connect 80 0 9 0;
#X connect 85 0 87 0;
#X connect 87 0 86 0;
#X connect 88 0 85 0;
#X connect 89 0 91 0;
#X connect 91 0 90 0;
#X connect 92 0 89 0;
#X coords 0 648 1 647 220 80 0;
#X restore -98 32 pd tabwrite_in;
#N canvas 626 308 503 142 8_loops 0;
#X obj -245 -959 st-looper.meh-fraccion \$0 \$1 0.25;
#X obj 5 -869 st-looper.meh-fraccion \$0 \$1 32;
#X obj 5 -900 st-looper.meh-fraccion \$0 \$1 8;
#X obj 5 -959 st-looper.meh-fraccion \$0 \$1 0.5;
#X obj -245 -929 st-looper.meh-fraccion \$0 \$1 1;
#X obj 5 -929 st-looper.meh-fraccion \$0 \$1 2;
#X obj -245 -899 st-looper.meh-fraccion \$0 \$1 4;
#X obj -245 -869 st-looper.meh-fraccion \$0 \$1 16;
#X coords 0 142 1 141 150 80 0;
#X restore -98 54 pd 8_loops;
#X text 103 0 Pista 2;
#X text 103 123 Sample;
#N canvas 537 98 816 613 comienza_loop 0;
#X obj 200 285 snapshot~;
#X msg 220 195 stop;
#X obj 180 135 t b b b b;
#X floatatom 239 65 0 0 0 0 - - -;
#X obj 144 -381 inlet;
#X floatatom 144 -354 5 0 0 0 - - -;
#X msg 180 -287 1;
#X msg 140 -287 0.5;
#X msg 100 -287 0.25;
#X msg 220 -287 2;
#X msg 260 -287 4;
#X msg 300 -287 8;
#X msg 340 -287 16;
#X obj 144 -325 route 0 1 2 3 4 5 6 7;
#X obj 100 -267 bng 15 250 50 0 empty empty empty 17 7 0 10 -203904
-1 -1;
#X obj 140 -267 bng 15 250 50 0 empty empty empty 17 7 0 10 -203904
-1 -1;
#X obj 180 -267 bng 15 250 50 0 empty empty empty 17 7 0 10 -203904
-1 -1;
#X obj 220 -267 bng 15 250 50 0 empty empty empty 17 7 0 10 -203904
-1 -1;
#X obj 260 -267 bng 15 250 50 0 empty empty empty 17 7 0 10 -203904
-1 -1;
#X obj 300 -267 bng 15 250 50 0 empty empty empty 17 7 0 10 -203904
-1 -1;
#X obj 340 -267 bng 15 250 50 0 empty empty empty 17 7 0 10 -203904
-1 -1;
#X obj 152 -186 t b b f;
#X text 358 353 A cada Loop (los 8);
#X floatatom 291 325 0 0 0 0 - - -;
#X obj 380 -267 bng 15 250 50 0 empty empty empty 17 7 0 10 -203904
-1 -1;
#X msg 380 -287 32;
#X obj 220 225 s \$0-stop_rec;
#X obj 226 9 s \$0-fraccion_loop;
#X obj 240 165 s \$0-is_lupeando;
#X obj 213 255 r~ \$0-saca_end_ms;
#X obj 200 325 s \$0-end_ms;
#X obj 180 355 s \$0-loops_comienzo;
#X text 369 11 Dice que fraccion;
#X text 304 105 Dice que BMP actual;
#X text 373 164 Comienza el loopeo;
#X obj 180 -21 t b b f;
#X obj 180 -142 f;
#X obj 180 -50 f 1;
#X obj 253 -30 bng 15 250 50 0 empty empty empty 17 7 0 10 -262144
-1 -1;
#X obj 281 -190 bng 15 250 50 0 empty empty empty 17 7 0 10 -262144
-1 -1;
#X obj 250 -162 t f f;
#X text 102 -144 ACTIVACION;
#X text 210 -53 MULTIPLY;
#X floatatom 356 -195 5 0 0 0 - - -;
#X floatatom 87 5 5 0 0 0 - - -;
#X msg 282 -85 bang;
#X msg 180 -85 bang;
#X text 424 -288 -llega el valor \; -llena float \; -se fija ACTIVACION
\; -si si \, bang al MULTIPLY \;;
#X text 408 -181 Activado por HOLD \; \; -bang al MULTIPLY (comienza)
\; -llena ACTIVACION (si o no) \;;
#X text 275 302 SACA END_MS PRINCIPAL;
#X obj 203 105 s \$0-this-bpm;
#X floatatom 205 -166 5 0 0 0 - - -;
#X obj 134 -36 bng 15 250 50 0 empty empty empty 17 7 0 10 -262144
-1 -1;
#X text 346 41 Recibe BPM;
#X obj 250 -215 r \$1-fx-press;
#X obj 282 -115 route 1;
#X obj 180 -115 route 1;
#X floatatom 301 -30 5 0 0 0 - - -;
#X obj 203 75 f;
#X obj 221 45 r \$1-main-bpm;
#X obj 200 305 / 48;
#X connect 0 0 60 0;
#X connect 1 0 26 0;
#X connect 2 0 31 0;
#X connect 2 1 0 0;
#X connect 2 2 1 0;
#X connect 2 3 28 0;
#X connect 4 0 5 0;
#X connect 5 0 13 0;
#X connect 6 0 16 0;
#X connect 6 0 21 0;
#X connect 7 0 15 0;
#X connect 7 0 21 0;
#X connect 8 0 14 0;
#X connect 8 0 21 0;
#X connect 9 0 17 0;
#X connect 9 0 21 0;
#X connect 10 0 18 0;
#X connect 10 0 21 0;
#X connect 11 0 19 0;
#X connect 11 0 21 0;
#X connect 12 0 20 0;
#X connect 12 0 21 0;
#X connect 13 0 8 0;
#X connect 13 1 7 0;
#X connect 13 2 6 0;
#X connect 13 3 9 0;
#X connect 13 4 10 0;
#X connect 13 5 11 0;
#X connect 13 6 12 0;
#X connect 13 7 25 0;
#X connect 21 1 36 0;
#X connect 21 2 37 1;
#X connect 21 2 51 0;
#X connect 25 0 24 0;
#X connect 25 0 21 0;
#X connect 29 0 0 0;
#X connect 35 0 2 0;
#X connect 35 1 58 0;
#X connect 35 2 27 0;
#X connect 36 0 56 0;
#X connect 37 0 35 0;
#X connect 37 0 38 0;
#X connect 37 0 44 0;
#X connect 37 0 57 0;
#X connect 40 0 36 1;
#X connect 40 1 55 0;
#X connect 45 0 37 0;
#X connect 46 0 37 0;
#X connect 46 0 52 0;
#X connect 54 0 39 0;
#X connect 54 0 43 0;
#X connect 54 0 40 0;
#X connect 55 0 45 0;
#X connect 56 0 46 0;
#X connect 58 0 50 0;
#X connect 59 0 3 0;
#X connect 59 0 58 1;
#X connect 60 0 23 0;
#X connect 60 0 30 0;
#X restore 117 -150 pd comienza_loop;
#X obj -99 -74 inlet~ l;
#X obj -98 157 outlet~ l;
#X obj -3 -74 inlet~ r;
#X obj -3 157 outlet~ r;
#X obj 117 -180 inlet;
#X obj 381 151 s \$0-main-bpm;
#X obj 326 -73 loadbang;
#X obj 326 -33 s \$0-init_loops;
#X obj 310 -92 bng 15 250 50 0 empty empty empty 17 7 0 10 -262144
-1 -1;
#X obj 381 221 s \$0-main-bpm-ms;
#X obj 296 -183 inlet;
#X obj 296 -155 s \$0-velocity;
#X obj 381 114 r \$1-main-bpm;
#X obj 381 184 r \$1-main-bpm-ms;
#X obj 167 63 r \$0-fraccion_loop;
#X floatatom 167 169 5 0 0 0 - - -;
#X text 105 169 Fraccion;
#X obj -98 117 hip~ 5;
#X obj -3 117 hip~ 5;
#X connect 0 0 30 0;
#X connect 0 1 31 0;
#X connect 13 0 8 0;
#X connect 15 0 8 1;
#X connect 17 0 12 0;
#X connect 19 0 20 0;
#X connect 21 0 20 0;
#X connect 23 0 24 0;
#X connect 25 0 18 0;
#X connect 26 0 22 0;
#X connect 27 0 28 0;
#X connect 30 0 14 0;
#X connect 31 0 16 0;
#X coords 0 -1 1 1 180 100 1 100 100;
