#N canvas 766 58 540 708 12;
#X obj -5 184 rmstodb;
#X floatatom 176 137 5 0 0 0 threshold - -;
#X obj -78 410 *~;
#X obj -5 214 >;
#X obj -5 244 pack f f;
#X msg -5 313 \$1 \$2;
#X floatatom 176 156 5 0 0 0 attack - -;
#X obj -5 274 t a b;
#X msg 47 354 0 \$1;
#X obj 47 324 int;
#X obj 47 294 delay;
#X floatatom 177 194 5 0 0 0 decay - -;
#X floatatom 176 175 5 0 0 0 hold - -;
#X obj -78 61 inlet~;
#X obj -78 452 outlet~;
#X obj -5 391 line~;
#X floatatom -53 174 5 0 0 0 - - -;
#X floatatom -52 204 5 0 0 0 - - -;
#X obj -5 154 env~;
#X obj -6 61 inlet~;
#X obj 305 184 rmstodb;
#X obj 232 410 *~;
#X obj 305 214 >;
#X obj 305 244 pack f f;
#X msg 305 313 \$1 \$2;
#X obj 305 274 t a b;
#X msg 357 354 0 \$1;
#X obj 357 324 int;
#X obj 357 294 delay;
#X obj 232 61 inlet~;
#X obj 232 452 outlet~;
#X obj 305 391 line~;
#X floatatom 377 174 5 0 0 0 - - -;
#X floatatom 378 204 5 0 0 0 - - -;
#X obj 305 154 env~;
#X obj 304 61 inlet~;
#X connect 0 0 3 0;
#X connect 0 0 17 0;
#X connect 1 0 3 1;
#X connect 1 0 22 1;
#X connect 2 0 14 0;
#X connect 3 0 4 0;
#X connect 4 0 7 0;
#X connect 5 0 15 0;
#X connect 6 0 4 1;
#X connect 6 0 23 1;
#X connect 7 0 5 0;
#X connect 7 1 10 0;
#X connect 8 0 15 0;
#X connect 9 0 8 0;
#X connect 10 0 9 0;
#X connect 11 0 9 1;
#X connect 11 0 27 1;
#X connect 12 0 10 1;
#X connect 12 0 28 1;
#X connect 13 0 2 0;
#X connect 15 0 2 1;
#X connect 18 0 0 0;
#X connect 18 0 16 0;
#X connect 19 0 18 0;
#X connect 20 0 22 0;
#X connect 20 0 33 0;
#X connect 21 0 30 0;
#X connect 22 0 23 0;
#X connect 23 0 25 0;
#X connect 24 0 31 0;
#X connect 25 0 24 0;
#X connect 25 1 28 0;
#X connect 26 0 31 0;
#X connect 27 0 26 0;
#X connect 28 0 27 0;
#X connect 29 0 21 0;
#X connect 31 0 21 1;
#X connect 34 0 20 0;
#X connect 34 0 32 0;
#X connect 35 0 34 0;
#X coords 0 -1 1 1 120 120 1 100 100;
