#N canvas 119 317 887 344 12;
#X obj -547 17 samphold~;
#X obj -347 -44 phasor~;
#X obj -458 17 samphold~;
#X obj -548 -195 inlet~;
#X obj -457 -197 inlet~;
#X obj -547 45 outlet~;
#X obj -459 45 outlet~;
#X obj -347 -197 inlet;
#X obj -90 32 outlet;
#X floatatom -11 -178 5 0 0 0 - - -;
#X msg 89 -165 256;
#X obj -47 -129 clip 1 512;
#X obj -101 -39 expr~ floor($v1 * $f2 + 0.5 \, 0) / $f2;
#X msg 57 -208 128;
#X text 9 -68 bit depth;
#X connect 0 0 5 0;
#X connect 1 0 0 1;
#X connect 1 0 2 1;
#X connect 2 0 6 0;
#X connect 3 0 0 0;
#X connect 4 0 2 0;
#X connect 7 0 1 0;
#X connect 9 0 11 0;
#X connect 10 0 11 0;
#X connect 11 0 12 1;
#X connect 13 0 11 0;
