#N canvas 73 60 840 598 12;
#X obj -78 -34 inlet~ l;
#X obj -78 436 outlet~ l;
#X obj 42 -34 inlet~ r;
#X obj 42 436 outlet~ r;
#X obj 323 -28 route 0 1 2 3 4 5 6 7;
#X obj 335 -51 hradio 11 1 0 8 empty empty empty 0 -8 0 10 -262144
-1 -1 2;
#X obj 103 181 metro 500;
#X obj 103 236 + 1;
#X floatatom 198 256 5 0 0 0 - - -;
#X obj 103 207 -1;
#X msg 165 207 -1;
#X obj 103 265 route 0 1;
#X obj 337 161 /;
#X floatatom 337 191 0 0 0 0 - - -;
#X obj 103 73 loadbang;
#X msg 323 22 2;
#X msg 413 22 4;
#X msg 453 22 6;
#X msg 493 22 8;
#X msg 533 22 12;
#X msg 573 22 16;
#X msg 613 22 32;
#X msg 363 22 2.666;
#X text 648 20 divisores;
#X text 174 229 solo 1 y 0;
#X obj -59 256 route 0 1;
#X obj -59 333 line~;
#X msg -59 283 1 \, 0 5;
#X msg -29 308 0 \, 1 2.5;
#X obj 43 376 *~;
#X obj -77 376 *~;
#X obj 323 -81 inlet;
#X text 413 81 BPM en MS;
#X floatatom 421 141 5 0 0 0 - - -;
#X obj 421 104 inlet;
#X obj 323 82 t b f f;
#X floatatom 157 135 0 0 0 0 - - -;
#X obj 323 124 f 500;
#X connect 0 0 30 0;
#X connect 2 0 29 0;
#X connect 4 0 15 0;
#X connect 4 1 22 0;
#X connect 4 2 16 0;
#X connect 4 3 17 0;
#X connect 4 4 18 0;
#X connect 4 5 19 0;
#X connect 4 6 20 0;
#X connect 4 7 21 0;
#X connect 5 0 4 0;
#X connect 6 0 9 0;
#X connect 7 0 8 0;
#X connect 7 0 9 1;
#X connect 7 0 11 0;
#X connect 7 0 25 0;
#X connect 9 0 7 0;
#X connect 10 0 9 1;
#X connect 11 1 10 0;
#X connect 12 0 6 1;
#X connect 12 0 13 0;
#X connect 14 0 6 0;
#X connect 15 0 35 0;
#X connect 16 0 35 0;
#X connect 17 0 35 0;
#X connect 18 0 35 0;
#X connect 19 0 35 0;
#X connect 20 0 35 0;
#X connect 21 0 35 0;
#X connect 22 0 35 0;
#X connect 25 0 27 0;
#X connect 25 1 28 0;
#X connect 26 0 30 1;
#X connect 26 0 29 1;
#X connect 27 0 26 0;
#X connect 28 0 26 0;
#X connect 29 0 3 0;
#X connect 30 0 1 0;
#X connect 31 0 4 0;
#X connect 34 0 33 0;
#X connect 34 0 37 0;
#X connect 35 0 37 0;
#X connect 35 1 12 1;
#X connect 35 2 36 0;
#X connect 37 0 12 0;
#X coords 0 -1 1 1 120 60 1 100 100;
