#N canvas 23 87 950 648 10;
#N canvas 1 70 450 300 (subpatch) 0;
#X array \$0-test 96000 float 0;
#X coords 0 1 95999 -1 800 300 1 0 0;
#X restore 0 40 graph;
#X obj -16 -174 inlet~;
#X obj -15 -94 tabwrite~ \$0-test;
#X obj 142 -139 bng 15 250 50 0 empty empty empty 17 7 0 10 -262144
-1 -1;
#X obj 139 -191 inlet;
#X obj 425 -198 inlet;
#X obj 258 -187 loadbang;
#X obj 278 -140 \$1;
#X obj 193 -75 metro 10;
#X obj 412 -2 soundfiler;
#X obj 404 -218 bng 15 250 50 0 empty empty empty 17 7 0 10 -262144
-1 -1;
#X obj 373 -146 \$0;
#X obj 372 -118 list append \$2;
#X msg 380 -59 write -wave -bytes 4 \$2.wav \$1-test;
#X obj 778 8 bng 15 250 50 0 empty empty empty 17 7 0 10 -262144 -1
-1;
#X msg 69 -161;
#X obj -14 -140 *~ 4;
#X connect 1 0 16 0;
#X connect 3 0 2 0;
#X connect 4 0 8 0;
#X connect 5 0 11 0;
#X connect 6 0 7 0;
#X connect 6 0 8 0;
#X connect 7 0 8 1;
#X connect 8 0 3 0;
#X connect 10 0 11 0;
#X connect 11 0 12 0;
#X connect 12 0 13 0;
#X connect 13 0 9 0;
#X connect 14 0 11 0;
#X connect 16 0 2 0;
#X coords 0 -1 1 1 800 380 1 0 0;
