#N canvas 602 268 454 304 10;
#X obj 171 231 sin;
#X obj 171 157 f 0;
#X obj 127 96 metro 10;
#X obj 171 211 / 50;
#X obj 218 46 inlet;
#X obj 259 46 inlet;
#X obj 203 157 + 1;
#X obj 171 190 * 3.14159;
#X obj 259 67 * 100;
#X obj 112 64 loadbang;
#X obj 171 253 outlet;
#X obj 172 46 inlet;
#X connect 0 0 10 0;
#X connect 1 0 6 0;
#X connect 1 0 7 0;
#X connect 2 0 1 0;
#X connect 3 0 0 0;
#X connect 4 0 6 1;
#X connect 5 0 8 0;
#X connect 6 0 1 1;
#X connect 7 0 3 0;
#X connect 8 0 1 1;
#X connect 9 0 2 0;
#X connect 11 0 2 1;
