#N canvas 456 162 699 534 10;
#X obj 132 139 inlet~;
#X obj 290 445 outlet~;
#X obj 160 328 *~;
#X obj 435 346 line~;
#X obj 436 322 pack 0 50;
#X obj 508 192 * 200;
#X obj 395 96 inlet~;
#X obj 412 126 bp~ \$1 \$2;
#X obj 156 279 bp~ \$1 \$2;
#X obj 506 149 r \$3-slur;
#X obj 70 314 outlet~;
#X obj 306 272 inlet~;
#X obj 415 383 outlet~;
#X obj 156 302 bp~ \$1 \$2;
#X obj 413 145 bp~ \$1 \$2;
#X obj 289 422 hip~ 10;
#X obj 423 180 env~;
#X obj 431 210 / 50;
#X obj 432 232 pow 8;
#X obj 193 18 r \$3-bandwidth;
#X obj 249 85 *;
#X obj 343 52 / 10000;
#X obj 342 75 pow 0.25;
#X obj 343 27 f \$1;
#X obj 236 50 t f b;
#X obj 628 245 / 10000;
#X obj 627 268 pow 0.25;
#X obj 628 220 f \$1;
#X obj 521 243 t f b;
#X obj 534 278 /;
#X msg 240 309 \$1 10;
#X obj 240 334 line~;
#X obj 239 224 / 200;
#X obj 185 380 *~;
#X obj 504 171 pow 4;
#X obj 505 37 inlet;
#X obj 281 225 t b f;
#X obj 239 262 * 1;
#X obj 503 67 pow 2;
#X obj 432 264 tanh;
#X floatatom 526 369 0 0 0 0 - - -;
#X connect 0 0 10 0;
#X connect 0 0 8 0;
#X connect 2 0 33 0;
#X connect 3 0 2 1;
#X connect 4 0 3 0;
#X connect 5 0 28 0;
#X connect 6 0 7 0;
#X connect 6 0 12 0;
#X connect 7 0 14 0;
#X connect 8 0 13 0;
#X connect 9 0 34 0;
#X connect 11 0 15 0;
#X connect 13 0 2 0;
#X connect 14 0 16 0;
#X connect 15 0 1 0;
#X connect 16 0 17 0;
#X connect 17 0 18 0;
#X connect 18 0 39 0;
#X connect 18 0 40 0;
#X connect 19 0 24 0;
#X connect 19 0 32 0;
#X connect 20 0 8 2;
#X connect 20 0 13 2;
#X connect 20 0 7 2;
#X connect 20 0 14 2;
#X connect 21 0 22 0;
#X connect 22 0 20 1;
#X connect 23 0 21 0;
#X connect 24 0 20 0;
#X connect 24 1 23 0;
#X connect 25 0 26 0;
#X connect 26 0 29 1;
#X connect 27 0 25 0;
#X connect 28 0 29 0;
#X connect 28 1 27 0;
#X connect 29 0 4 1;
#X connect 30 0 31 0;
#X connect 31 0 33 1;
#X connect 32 0 37 0;
#X connect 33 0 15 0;
#X connect 34 0 5 0;
#X connect 35 0 38 0;
#X connect 36 0 37 0;
#X connect 36 1 37 1;
#X connect 37 0 30 0;
#X connect 38 0 36 0;
#X connect 39 0 4 0;
