#N canvas 333 22 513 322 10;
#N canvas 299 103 483 243 ARGO 0;
#X obj 101 101 cnv 20 244 34 empty ColorTime empty 20 12 0 14 -208064
-1 1.04858e+06;
#X obj 92 212 outlet~;
#X obj 100 106 nbx 7 12 0 20000 0 1 \$0-A ColorTime Hz 60 7 1 9 -208064
-1 -1 73.4162 256;
#X obj 179 105 cnv 10 65 10 empty ColorTime Oscill-Pulse 1 5 1 14 -208064
-1 1.04858e+06;
#X obj 87 26 inlet~;
#X obj 101 131 cnv 4 10 4 empty empty empty 20 12 0 14 -1 -66577 0
;
#X obj 101 101 cnv 4 10 4 empty empty empty 20 12 0 14 -1728 -66577
0;
#X obj 103 118 hsl 241 12 0 1 0 0 \$0-A ColorTime empty 0 7 1 9 -262144
-1 -1 14600 0;
#X obj 103 118 hsl 241 12 0 1 0 0 \$0-A ColorTime D1 0 7 1 9 -208064
-1728 -1 14600 0;
#X text 350 121 2 HSLIDER superposés;
#X text 349 110 ATTENTION;
#X obj 249 27 cnv 15 41 30 empty empty empty 20 12 0 14 -24198 -66577
0;
#N canvas 350 196 381 103 ? 0;
#X obj 5 49 cnv 15 370 38 empty empty empty 20 12 0 14 -224896 -66577
0;
#X text 6 65 Voir/Look at: http://puredata.info/downloads;
#X obj 4 12 cnv 18 370 30 empty empty ARGOPdMiniModules 1 10 1 14 -4033
-1 1.04858e+06;
#X obj 7 31 cnv 10 10 10 empty empty Gerard 0 5 1 9 -4033 -1 1.04858e+06
;
#X obj 38 31 cnv 10 10 10 empty empty Paresys 0 5 1 9 -4033 -1 1.04858e+06
;
#X obj 175 20 cnv 10 10 10 empty empty http://pagesperso-orange.fr/Paresys/ARGOPd/
0 5 1 9 -4033 -1 1.04858e+06;
#X obj 175 31 cnv 10 10 10 empty empty http://gerard.paresys.free.fr/ARGOPd/
0 5 1 9 -4033 -1 1.04858e+06;
#X text 6 51 Construit sous / Build under Pd 0.41.4-extended;
#X restore 255 34 pd ?;
#X obj 176 26 cnv 15 60 30 empty empty empty 20 12 0 14 -24198 -66577
0;
#N canvas 357 140 425 238 Help 0;
#X obj 9 114 cnv 15 400 100 empty empty empty 20 12 0 14 -233017 -66577
0;
#X text 13 116 Citation;
#X text 10 45 Sensibilitée de l'entrée de contrôle de la fréquence:
;
#X text 10 57 1 = 240 1/2 ton = 20 octaves;
#X text 11 19 Générateur d'impulsions controlées en largeur;
#X text 25 185 http://en.wikipedia.org/wiki/Pulse-width_modulation
;
#X text 24 172 for more info:;
#X text 11 93 Voir Browser... -> 5.reference/hcs/pwm~help.pd;
#X text 22 152 "after an idea from Roman Haefeli and Martin Peach"
;
#X text 24 132 pulse width modulation at audio rate;
#X restore 183 32 pd Help;
#N canvas 658 231 344 337 Freq-v7-sig- 0;
#X obj 226 11 ftom;
#X obj 279 170 mtof;
#X obj 141 95 +~;
#X obj 9 142 snapshot~;
#X obj 9 164 change;
#X msg 9 189 set \$1;
#X obj 142 198 clip~ 0 20000;
#X obj 142 175 mtof~;
#X obj 142 227 outlet~;
#X obj 280 -12 inlet;
#X obj 225 -13 inlet;
#X obj 38 227 outlet;
#X obj 279 227 outlet;
#X text 35 245 Hslider;
#X obj 141 -8 inlet~;
#X obj 8 -9 loadbang;
#X obj 229 227 outlet;
#X obj 279 109 * 240;
#X obj 279 132 - 108;
#X obj 141 123 *~ 240;
#X obj 141 145 -~ 108;
#X obj 226 34 + 108;
#X obj 226 56 / 240;
#X obj 9 40 metro 200;
#X obj 64 -9 r SendFluid;
#N canvas 618 373 489 317 pitchb 0;
#X obj 70 111 mod 12;
#X obj 70 135 sel 0 1 2 3 4 5 6 7 8 9 10 11;
#X msg 246 170 A;
#X msg 300 170 B;
#X msg 192 170 G;
#X msg 3 170 C;
#X msg 57 170 D;
#X msg 111 170 E;
#X msg 138 170 F;
#X obj 204 1 inlet;
#X obj 329 115 div 12;
#X obj 204 79 t f f;
#X text 334 190 -> Numero de l'octave;
#X text 213 64 -> Numero MIDI de la note (69 = A3 = 440Hz);
#X msg 260 260 label \$1;
#X obj 260 283 outlet;
#X msg 30 170 Db;
#X msg 84 170 Eb;
#X msg 165 170 Gb;
#X msg 219 170 Ab;
#X msg 273 170 Bb;
#X text 369 78 (70 = A#3 = Bb3);
#X obj 260 238 symbol;
#X obj 260 213 sprintf %s%d;
#X text 11 231 Impossible d'afficher # dans un label;
#X text 11 243 donc j'affiche b;
#X obj 204 51 int;
#X text 255 23 -> pour corriger certaines erreurs de calcul;
#X obj 204 25 + 120.1;
#X obj 329 144 - 12;
#X text 255 35 et le pb du passage a zero de mod 12;
#X connect 0 0 1 0;
#X connect 1 0 5 0;
#X connect 1 1 16 0;
#X connect 1 2 6 0;
#X connect 1 3 17 0;
#X connect 1 4 7 0;
#X connect 1 5 8 0;
#X connect 1 6 18 0;
#X connect 1 7 4 0;
#X connect 1 8 19 0;
#X connect 1 9 2 0;
#X connect 1 10 20 0;
#X connect 1 11 3 0;
#X connect 2 0 23 0;
#X connect 3 0 23 0;
#X connect 4 0 23 0;
#X connect 5 0 23 0;
#X connect 6 0 23 0;
#X connect 7 0 23 0;
#X connect 8 0 23 0;
#X connect 9 0 28 0;
#X connect 10 0 29 0;
#X connect 11 0 0 0;
#X connect 11 1 10 0;
#X connect 14 0 15 0;
#X connect 16 0 23 0;
#X connect 17 0 23 0;
#X connect 18 0 23 0;
#X connect 19 0 23 0;
#X connect 20 0 23 0;
#X connect 22 0 14 0;
#X connect 23 0 22 0;
#X connect 26 0 11 0;
#X connect 28 0 26 0;
#X connect 29 0 23 1;
#X restore 40 86 pd pitchb;
#X text 44 256 Over;
#X text 281 245 Number;
#X text 222 -30 Number;
#X text 228 244 Hslider;
#X text 230 255 Under;
#X text 281 -42 Hslider;
#X text 286 -31 Under;
#X msg 229 197 set \$1;
#X connect 0 0 21 0;
#X connect 0 0 25 0;
#X connect 1 0 12 0;
#X connect 2 0 3 0;
#X connect 2 0 19 0;
#X connect 3 0 4 0;
#X connect 4 0 5 0;
#X connect 5 0 11 0;
#X connect 6 0 8 0;
#X connect 7 0 6 0;
#X connect 9 0 17 0;
#X connect 10 0 0 0;
#X connect 14 0 2 0;
#X connect 15 0 23 0;
#X connect 17 0 18 0;
#X connect 18 0 1 0;
#X connect 19 0 20 0;
#X connect 20 0 7 0;
#X connect 21 0 22 0;
#X connect 22 0 2 1;
#X connect 22 0 33 0;
#X connect 23 0 3 0;
#X connect 24 0 23 1;
#X connect 25 0 11 0;
#X connect 33 0 16 0;
#X restore 62 63 pd Freq-v7-sig-;
#X text 224 81 7 2 2010;
#X obj 92 155 phasor~;
#X obj 335 101 cnv 4 10 4 empty empty empty 20 12 0 14 -3522 -66577
0;
#X text 303 71 Pulse width;
#X text 307 82 modulation;
#X obj 263 106 hsl 81 12 -1 1 0 1 \$0-A ColorForm 86 0 7 1 9 -262144
-1 -1 1300 0;
#X obj 317 47 inlet~;
#X obj 263 106 hsl 81 12 -1 1 0 1 \$0-A ColorForm -67.5 0 7 1 9 -188398
-3522 -1 1697 0;
#N canvas 795 278 241 330 PWM~ 0;
#X msg 124 150 set \$1;
#X obj 15 51 +~;
#X obj 89 300 outlet;
#X obj 102 88 snapshot~;
#X obj 125 130 change;
#X obj 60 10 inlet;
#X obj 13 10 inlet~;
#X obj 17 299 outlet~;
#X msg 60 152 label \$1;
#X obj 60 130 tosymbol;
#X obj 60 108 * 100;
#X obj 100 11 loadbang;
#X obj 101 51 metro 200;
#X obj 158 12 r SendFluid;
#X connect 0 0 2 0;
#X connect 1 0 3 0;
#X connect 1 0 7 0;
#X connect 3 0 4 0;
#X connect 4 0 0 0;
#X connect 5 0 1 1;
#X connect 5 0 10 0;
#X connect 6 0 1 0;
#X connect 8 0 2 0;
#X connect 9 0 8 0;
#X connect 10 0 9 0;
#X connect 11 0 12 0;
#X connect 12 0 3 0;
#X connect 13 0 12 1;
#X restore 315 151 pd PWM~;
#X obj 92 181 expr~ 2 * ((2 * $v1) < ($v2 + 1)) - 1;
#X connect 2 0 15 1;
#X connect 4 0 15 0;
#X connect 7 0 15 2;
#X connect 15 0 8 0;
#X connect 15 1 17 0;
#X connect 15 2 7 0;
#X connect 15 3 2 0;
#X connect 17 0 25 0;
#X connect 21 0 24 1;
#X connect 22 0 24 0;
#X connect 24 0 25 1;
#X connect 24 1 23 0;
#X connect 25 0 1 0;
#X coords 0 -1 1 1 246 36 1 100 100;
#X restore 19 55 pd ARGO;
#N canvas 350 62 378 367 ARGO 0;
#X obj 101 101 cnv 20 104 34 empty ColorAmpli empty 20 12 0 14 -261299
-1 1.04858e+06;
#X obj 85 257 outlet~;
#X obj 134 104 cnv 10 20 10 empty ColorAmpli Ampli 1 5 1 14 -261299
-1 1.04858e+06;
#X obj 89 -82 inlet~;
#X obj 85 228 *~;
#X obj 103 118 hsl 101 12 0 1.25 0 1 \$0-A ColorAmpli -10dB 0 7 1 9
-261299 -1 -1 7000 0;
#X obj 100 195 /~ 10000;
#X msg 213 61 label \$1;
#X obj 212 38 tosymbol;
#X obj 213 -61 * 80;
#X obj 213 -39 - 80;
#X obj 212 3 sprintf %ddB;
#X obj 101 101 cnv 4 10 4 empty empty empty 20 12 0 14 -1 -66577 0
;
#X obj 101 131 cnv 4 10 4 empty empty empty 20 12 0 14 -1 -66577 0
;
#X text 221 20 -> -80dB..20dB;
#X text 218 -16 -> -80 .. 20;
#X text 104 139 -> 0..1.2;
#X text 109 177 -> 1..100000;
#X text 109 211 -> 0.0001..10 = -80dB..20dB;
#X obj 100 161 cyclone/pow~ 10000;
#X text 218 159 <- compatibility 0.42.5;
#X text 216 99 1 2 2010;
#X obj 117 -32 cnv 15 41 30 empty empty empty 20 12 0 14 -24198 -66577
0;
#N canvas 363 389 381 103 ? 0;
#X obj 5 49 cnv 15 370 38 empty empty empty 20 12 0 14 -224896 -66577
0;
#X text 6 65 Voir/Look at: http://puredata.info/downloads;
#X obj 4 12 cnv 18 370 30 empty empty ARGOPdMiniModules 1 10 1 14 -4033
-1 1.04858e+06;
#X obj 7 31 cnv 10 10 10 empty empty Gerard 0 5 1 9 -4033 -1 1.04858e+06
;
#X obj 38 31 cnv 10 10 10 empty empty Paresys 0 5 1 9 -4033 -1 1.04858e+06
;
#X obj 175 20 cnv 10 10 10 empty empty http://pagesperso-orange.fr/Paresys/ARGOPd/
0 5 1 9 -4033 -1 1.04858e+06;
#X obj 175 31 cnv 10 10 10 empty empty http://gerard.paresys.free.fr/ARGOPd/
0 5 1 9 -4033 -1 1.04858e+06;
#X text 6 51 Construit sous / Build under Pd 0.41.4-extended;
#X restore 123 -25 pd ?;
#X connect 3 0 4 0;
#X connect 4 0 1 0;
#X connect 5 0 9 0;
#X connect 5 0 19 0;
#X connect 6 0 4 1;
#X connect 7 0 5 0;
#X connect 8 0 7 0;
#X connect 9 0 10 0;
#X connect 10 0 11 0;
#X connect 11 0 8 0;
#X connect 19 0 6 0;
#X coords 0 -1 1 1 106 36 1 100 100;
#X restore 123 126 pd ARGO;
#X obj 113 232 dac~;
#X obj 26 8 switch~;
#N canvas 608 166 249 182 ARGOnOff 0;
#X obj 100 100 tgl 18 1 \$0-SendOnOff \$0-ReceiveOnOff On/Off 20 9
0 12 -4033 -1 -1 1 1;
#X obj 99 39 loadbang;
#X msg 99 62 \; pd dsp 1;
#X obj 100 129 outlet;
#X connect 0 0 3 0;
#X connect 1 0 2 0;
#X coords 0 -1 1 1 65 18 2 100 100;
#X restore 26 -11 pd ARGOnOff;
#N canvas 84 147 438 203 ARGO 0;
#X obj 92 143 osc~;
#X obj 101 101 cnv 20 244 34 empty ColorTime empty 20 12 0 14 -208064
-1 1.04858e+06;
#X obj 92 168 outlet~;
#X obj 100 106 nbx 7 12 0 20000 0 1 \$0-A ColorTime Hz 60 7 1 9 -208064
-1 -1 0.107422 256;
#X obj 194 104 cnv 10 65 10 empty ColorTime Oscill 1 5 1 14 -208064
-1 1.04858e+06;
#X obj 231 104 cnv 10 10 10 empty ColorTime Sinus 1 5 1 14 -208064
-1 1.04858e+06;
#X obj 87 26 inlet~;
#X obj 101 131 cnv 4 10 4 empty empty empty 20 12 0 14 -1 -66577 0
;
#X obj 101 101 cnv 4 10 4 empty empty empty 20 12 0 14 -1728 -66577
0;
#X obj 103 118 hsl 241 12 0 1 0 0 \$0-A ColorTime empty 0 7 1 9 -262144
-1 -1 3300 0;
#X obj 103 118 hsl 241 12 0 1 0 0 \$0-A ColorTime A-9 0 7 1 9 -208064
-1728 -1 3300 0;
#X text 228 147 2 HSLIDER superposés;
#X text 227 136 ATTENTION;
#X obj 366 103 cnv 15 41 30 empty empty empty 20 12 0 14 -24198 -66577
0;
#N canvas 350 196 381 103 ? 0;
#X obj 5 49 cnv 15 370 38 empty empty empty 20 12 0 14 -224896 -66577
0;
#X text 6 65 Voir/Look at: http://puredata.info/downloads;
#X obj 4 12 cnv 18 370 30 empty empty ARGOPdMiniModules 1 10 1 14 -4033
-1 1.04858e+06;
#X obj 7 31 cnv 10 10 10 empty empty Gerard 0 5 1 9 -4033 -1 1.04858e+06
;
#X obj 38 31 cnv 10 10 10 empty empty Paresys 0 5 1 9 -4033 -1 1.04858e+06
;
#X obj 175 20 cnv 10 10 10 empty empty http://pagesperso-orange.fr/Paresys/ARGOPd/
0 5 1 9 -4033 -1 1.04858e+06;
#X obj 175 31 cnv 10 10 10 empty empty http://gerard.paresys.free.fr/ARGOPd/
0 5 1 9 -4033 -1 1.04858e+06;
#X text 6 51 Construit sous / Build under Pd 0.41.4-extended;
#X restore 372 110 pd ?;
#X obj 364 60 cnv 15 60 30 empty empty empty 20 12 0 14 -24198 -66577
0;
#N canvas 161 113 425 238 Help 0;
#X obj 8 85 cnv 15 400 100 empty empty empty 20 12 0 14 -233017 -66577
0;
#X text 12 87 Citation;
#X text 10 45 Sensibilitée de l'entrée de contrôle de la fréquence:
;
#X text 10 57 1 = 240 1/2 ton = 20 octaves;
#X text 11 19 Oscillateur sinusoïdal;
#X text 22 106 The osc~ object outputs a cosine wave. If no argument
is supplied \, the input is taken to be an audio signal.;
#X restore 371 66 pd Help;
#N canvas 658 231 344 337 Freq-v7-sig- 0;
#X obj 226 11 ftom;
#X obj 279 170 mtof;
#X obj 141 95 +~;
#X obj 9 142 snapshot~;
#X obj 9 164 change;
#X msg 9 189 set \$1;
#X obj 142 198 clip~ 0 20000;
#X obj 142 175 mtof~;
#X obj 142 227 outlet~;
#X obj 280 -12 inlet;
#X obj 225 -13 inlet;
#X obj 38 227 outlet;
#X obj 279 227 outlet;
#X text 35 245 Hslider;
#X obj 141 -8 inlet~;
#X obj 8 -9 loadbang;
#X obj 229 227 outlet;
#X obj 279 109 * 240;
#X obj 279 132 - 108;
#X obj 141 123 *~ 240;
#X obj 141 145 -~ 108;
#X obj 226 34 + 108;
#X obj 226 56 / 240;
#X obj 9 40 metro 200;
#X obj 64 -9 r SendFluid;
#N canvas 618 373 489 317 pitchb 0;
#X obj 70 111 mod 12;
#X obj 70 135 sel 0 1 2 3 4 5 6 7 8 9 10 11;
#X msg 246 170 A;
#X msg 300 170 B;
#X msg 192 170 G;
#X msg 3 170 C;
#X msg 57 170 D;
#X msg 111 170 E;
#X msg 138 170 F;
#X obj 204 1 inlet;
#X obj 329 115 div 12;
#X obj 204 79 t f f;
#X text 334 190 -> Numero de l'octave;
#X text 213 64 -> Numero MIDI de la note (69 = A3 = 440Hz);
#X msg 260 260 label \$1;
#X obj 260 283 outlet;
#X msg 30 170 Db;
#X msg 84 170 Eb;
#X msg 165 170 Gb;
#X msg 219 170 Ab;
#X msg 273 170 Bb;
#X text 369 78 (70 = A#3 = Bb3);
#X obj 260 238 symbol;
#X obj 260 213 sprintf %s%d;
#X text 11 231 Impossible d'afficher # dans un label;
#X text 11 243 donc j'affiche b;
#X obj 204 51 int;
#X text 255 23 -> pour corriger certaines erreurs de calcul;
#X obj 204 25 + 120.1;
#X obj 329 144 - 12;
#X text 255 35 et le pb du passage a zero de mod 12;
#X connect 0 0 1 0;
#X connect 1 0 5 0;
#X connect 1 1 16 0;
#X connect 1 2 6 0;
#X connect 1 3 17 0;
#X connect 1 4 7 0;
#X connect 1 5 8 0;
#X connect 1 6 18 0;
#X connect 1 7 4 0;
#X connect 1 8 19 0;
#X connect 1 9 2 0;
#X connect 1 10 20 0;
#X connect 1 11 3 0;
#X connect 2 0 23 0;
#X connect 3 0 23 0;
#X connect 4 0 23 0;
#X connect 5 0 23 0;
#X connect 6 0 23 0;
#X connect 7 0 23 0;
#X connect 8 0 23 0;
#X connect 9 0 28 0;
#X connect 10 0 29 0;
#X connect 11 0 0 0;
#X connect 11 1 10 0;
#X connect 14 0 15 0;
#X connect 16 0 23 0;
#X connect 17 0 23 0;
#X connect 18 0 23 0;
#X connect 19 0 23 0;
#X connect 20 0 23 0;
#X connect 22 0 14 0;
#X connect 23 0 22 0;
#X connect 26 0 11 0;
#X connect 28 0 26 0;
#X connect 29 0 23 1;
#X restore 40 86 pd pitchb;
#X text 44 256 Over;
#X text 281 245 Number;
#X text 222 -30 Number;
#X text 228 244 Hslider;
#X text 230 255 Under;
#X text 281 -42 Hslider;
#X text 286 -31 Under;
#X msg 229 197 set \$1;
#X connect 0 0 21 0;
#X connect 0 0 25 0;
#X connect 1 0 12 0;
#X connect 2 0 3 0;
#X connect 2 0 19 0;
#X connect 3 0 4 0;
#X connect 4 0 5 0;
#X connect 5 0 11 0;
#X connect 6 0 8 0;
#X connect 7 0 6 0;
#X connect 9 0 17 0;
#X connect 10 0 0 0;
#X connect 14 0 2 0;
#X connect 15 0 23 0;
#X connect 17 0 18 0;
#X connect 18 0 1 0;
#X connect 19 0 20 0;
#X connect 20 0 7 0;
#X connect 21 0 22 0;
#X connect 22 0 2 1;
#X connect 22 0 33 0;
#X connect 23 0 3 0;
#X connect 24 0 23 1;
#X connect 25 0 11 0;
#X connect 33 0 16 0;
#X restore 62 63 pd Freq-v7-sig-;
#X text 282 80 29 11 2009;
#X connect 0 0 2 0;
#X connect 3 0 17 1;
#X connect 6 0 17 0;
#X connect 9 0 17 2;
#X connect 17 0 10 0;
#X connect 17 1 0 0;
#X connect 17 2 9 0;
#X connect 17 3 3 0;
#X coords 0 -1 1 1 246 36 1 100 100;
#X restore 258 -47 pd ARGO;
#X obj 9 -51 cnv 15 15 15 empty empty ExMM8c-Oscill-Pulse.pd 0 8 1
14 -262144 -1 0;
#N canvas 350 62 378 367 ARGO 0;
#X obj 101 101 cnv 20 104 34 empty ColorAmpli empty 20 12 0 14 -261299
-1 1.04858e+06;
#X obj 85 257 outlet~;
#X obj 134 104 cnv 10 20 10 empty ColorAmpli Ampli 1 5 1 14 -261299
-1 1.04858e+06;
#X obj 89 -82 inlet~;
#X obj 85 228 *~;
#X obj 103 118 hsl 101 12 0 1.25 0 1 \$0-A ColorAmpli -10dB 0 7 1 9
-261299 -1 -1 7000 0;
#X obj 100 195 /~ 10000;
#X msg 213 61 label \$1;
#X obj 212 38 tosymbol;
#X obj 213 -61 * 80;
#X obj 213 -39 - 80;
#X obj 212 3 sprintf %ddB;
#X obj 101 101 cnv 4 10 4 empty empty empty 20 12 0 14 -1 -66577 0
;
#X obj 101 131 cnv 4 10 4 empty empty empty 20 12 0 14 -1 -66577 0
;
#X text 221 20 -> -80dB..20dB;
#X text 218 -16 -> -80 .. 20;
#X text 104 139 -> 0..1.2;
#X text 109 177 -> 1..100000;
#X text 109 211 -> 0.0001..10 = -80dB..20dB;
#X obj 100 161 cyclone/pow~ 10000;
#X text 218 159 <- compatibility 0.42.5;
#X text 216 99 1 2 2010;
#X obj 117 -32 cnv 15 41 30 empty empty empty 20 12 0 14 -24198 -66577
0;
#N canvas 363 389 381 103 ? 0;
#X obj 5 49 cnv 15 370 38 empty empty empty 20 12 0 14 -224896 -66577
0;
#X text 6 65 Voir/Look at: http://puredata.info/downloads;
#X obj 4 12 cnv 18 370 30 empty empty ARGOPdMiniModules 1 10 1 14 -4033
-1 1.04858e+06;
#X obj 7 31 cnv 10 10 10 empty empty Gerard 0 5 1 9 -4033 -1 1.04858e+06
;
#X obj 38 31 cnv 10 10 10 empty empty Paresys 0 5 1 9 -4033 -1 1.04858e+06
;
#X obj 175 20 cnv 10 10 10 empty empty http://pagesperso-orange.fr/Paresys/ARGOPd/
0 5 1 9 -4033 -1 1.04858e+06;
#X obj 175 31 cnv 10 10 10 empty empty http://gerard.paresys.free.fr/ARGOPd/
0 5 1 9 -4033 -1 1.04858e+06;
#X text 6 51 Construit sous / Build under Pd 0.41.4-extended;
#X restore 123 -25 pd ?;
#X connect 3 0 4 0;
#X connect 4 0 1 0;
#X connect 5 0 9 0;
#X connect 5 0 19 0;
#X connect 6 0 4 1;
#X connect 7 0 5 0;
#X connect 8 0 7 0;
#X connect 9 0 10 0;
#X connect 10 0 11 0;
#X connect 11 0 8 0;
#X connect 19 0 6 0;
#X coords 0 -1 1 1 106 36 1 100 100;
#X restore 258 -3 pd ARGO;
#X text 20 146 General level ->;
#X text 14 135 Niveau général ->;
#N canvas 585 156 393 346 ARGO 0;
#X obj 40 -36 inlet~;
#X obj 101 101 cnv 12 198 18 empty empty empty 20 12 0 14 -262144 -1
1.04858e+06;
#X obj 254 105 cnv 10 44 10 empty empty Scope 1 5 1 14 -262144 -1 1.04858e+06
;
#X obj 101 101 cnv 4 10 4 empty empty empty 20 12 0 14 -1 -66577 0
;
#X msg 186 31 frgb 255 0 0;
#X text 64 254 Voir examples:cyclone:pink-test.pd;
#X text 64 265 Voir examples:cyclone:scope-...;
#X obj 128 103 nbx 4 12 1 2000 0 1 empty ColorTime ms/div 40 7 1 9
-208064 -1 -1 1 256;
#X msg -19 30 range -1 1;
#X obj 101 120 Scope~ 198 129 2 3 176 -1 1 1 0 1 0.1 255 0 0 255 255
255 0;
#X text 64 276 Voir MSP46ReferenceManual.pdf;
#X obj 217 103 tgl 12 1 \$0-A \$0-B Sync 15 6 1 9 -262144 -1 -1 1 1
;
#X msg 142 6 delay 0 \, triglevel 0 \, trigger 0;
#X obj 140 -41 sel 0 1;
#X msg 183 55 brgb 255 255 255;
#X msg 62 14 bufsize 176;
#X obj 94 63 * 2;
#X msg 159 -19 delay 1 \, triglevel 0.1 \, trigger 1;
#X obj 41 -8 clip~ -1 1;
#X connect 0 0 18 0;
#X connect 4 0 9 0;
#X connect 7 0 16 0;
#X connect 8 0 9 0;
#X connect 11 0 13 0;
#X connect 12 0 9 0;
#X connect 13 0 12 0;
#X connect 13 1 17 0;
#X connect 14 0 9 0;
#X connect 15 0 9 0;
#X connect 16 0 9 0;
#X connect 17 0 9 0;
#X connect 18 0 9 0;
#X coords 0 -1 1 1 200 150 2 100 100;
#X restore 240 105 pd ARGO;
#X obj 459 223 cnv 15 41 30 empty empty empty 20 12 0 14 -24198 -66577
0;
#N canvas 350 196 308 136 ?? 0;
#X obj -9 87 cnv 15 300 38 empty empty empty 20 12 0 14 -224896 -66577
0;
#X obj -9 10 cnv 18 300 70 empty empty ARGOPdMiniModules 1 10 1 14
-4033 -1 1.04858e+06;
#X obj 9 29 cnv 10 10 10 empty empty Gerard 0 5 1 9 -4033 -1 1.04858e+06
;
#X obj 40 29 cnv 10 10 10 empty empty Paresys 0 5 1 9 -4033 -1 1.04858e+06
;
#X text -8 89 Construit sous / Build under Pd 0.42.5-extended;
#X obj 39 105 pddplink http://puredata.info/downloads;
#X obj 3 42 pddplink http://pagesperso-orange.fr/Paresys/ARGOPd/;
#X obj 3 57 pddplink http://gerard.paresys.free.fr/ARGOPd/;
#X restore 463 230 pd ??;
#X text 170 23 Pulse width;
#X text 176 34 modulation ->;
#X connect 0 0 1 0;
#X connect 0 0 10 0;
#X connect 1 0 2 0;
#X connect 1 0 2 1;
#X connect 4 0 3 0;
#X connect 5 0 7 0;
#X connect 7 0 0 1;
