#N canvas 320 22 445 435 10;
#X obj 9 -4 cnv 15 15 15 empty empty ExMM10k-Delay2.pd 0 8 1 14 -262144
-1 0;
#N canvas 608 166 249 182 ARGOnOff 0;
#X obj 100 100 tgl 18 1 \$0-SendOnOff \$0-ReceiveOnOff On/Off 20 9
0 12 -4033 -1 -1 1 1;
#X obj 99 39 loadbang;
#X msg 99 62 \; pd dsp 1;
#X obj 100 129 outlet;
#X connect 0 0 3 0;
#X connect 1 0 2 0;
#X coords 0 -1 1 1 65 18 2 100 100;
#X restore 22 124 pd ARGOnOff;
#X obj 22 142 switch~;
#X text 15 90 On/Off patch;
#X text 27 108 V;
#X text 27 101 |;
#X text 225 -1 Audio player 2 channels 1 output;
#X text 226 -12 Lecteur Audio 2 canaux 1 sortie;
#N canvas 414 45 259 274 ARGO 0;
#X obj 101 101 cnv 20 132 45 empty ColorTime Delay2 75 8 1 14 -208064
-1 1.04858e+06;
#X obj 85 239 outlet~;
#X obj 85 54 inlet~;
#X obj 101 142 cnv 4 10 4 empty empty empty 20 12 0 14 -1 -66577 0
;
#X obj 101 101 cnv 4 10 4 empty empty empty 0 0 0 9 -1 -66577 0;
#X obj 103 117 hsl 129 12 1 10000 1 1 \$0-A ColorTime 333ms 0 7 1 9
-208064 -1728 -1 8072 0;
#N canvas 245 108 165 192 Timems 0;
#X obj 49 111 outlet;
#X obj 49 7 inlet;
#X msg 49 86 label \$1;
#X obj 49 64 tosymbol;
#X text 49 131 Hslider;
#X obj 49 42 sprintf %dms;
#X text 53 -14 Hslider;
#X connect 1 0 5 0;
#X connect 2 0 0 0;
#X connect 3 0 2 0;
#X connect 5 0 3 0;
#X restore 15 102 pd Timems;
#X obj 15 168 cnv 15 60 30 empty empty empty 20 12 0 14 -24198 -66577
0;
#N canvas 335 104 424 306 Help 0;
#X text -149 -71 Delay Audio = Retard Audio;
#X obj -150 -37 cnv 15 400 100 empty empty empty 20 12 0 14 -233017
-66577 0;
#X text -146 -35 Citation;
#X text -118 -16 Library Cyclone;
#X text -149 66 comb~ 100 0 1 0.9 0.5;
#X text -135 80 - 100 = max delay time (msec);
#X text -134 93 - 0 = Delay time (msec) for a past sample to be added
into the current output.;
#X text -134 118 - 1 = Amplitude coefficient for scaling the amount
of the input sample to be sent to the output.;
#X text -132 145 - 0.9 = Amplitude coefficient for scaling the amount
of the delayed past input sample to be added to the output.;
#X text -131 172 - 0.5 = Amplitude coefficient for scaling the amount
of the delayed past output sample to be added to the output.;
#X text -118 -1 docs based on the MAX/MSP reference (c) cycling'74
;
#X text -149 -55 Delay Audio avec un ojet comb~;
#X restore 22 175 pd Help;
#X obj 151 53 inlet;
#X obj 214 53 inlet;
#X msg 121 161 clear;
#X obj 85 210 comb~ 10000 0 0 1 0;
#X obj 103 129 hsl 129 12 0 100 0 1 \$0-A ColorTime 0 0 7 1 9 -261299
-258113 -1 0 0;
#N canvas 143 155 303 389 Label100 0;
#X obj 89 300 outlet;
#X obj 62 -14 inlet;
#X msg 61 264 label \$1;
#X obj 61 242 tosymbol;
#X text 86 314 Hslider;
#X text 62 -44 Hslider;
#X text 64 -33 Under;
#X obj 62 220 sprintf %d;
#X connect 1 0 7 0;
#X connect 2 0 0 0;
#X connect 3 0 2 0;
#X connect 7 0 3 0;
#X restore 9 125 pd Label100;
#X obj 162 101 cnv 4 10 4 empty empty empty 20 12 0 14 -260097 -66577
0;
#X obj 223 100 cnv 4 10 4 empty empty empty 20 12 0 14 -260097 -66577
0;
#X text 184 82 10 5 2011;
#X obj 120 102 bng 12 250 50 0 \$0-A \$0-B Reset 14 6 1 9 -208064 -1
-1;
#X obj 195 180 / 100;
#X obj 208 233 cnv 15 41 30 empty empty empty 20 12 0 14 -24198 -66577
0;
#N canvas 350 196 308 136 ?? 0;
#X obj -9 87 cnv 15 300 38 empty empty empty 20 12 0 14 -224896 -66577
0;
#X obj -9 10 cnv 18 300 70 empty empty ARGOPdMiniModules 1 10 1 14
-4033 -1 1.04858e+06;
#X obj 9 29 cnv 10 10 10 empty empty Gerard 0 5 1 9 -4033 -1 1.04858e+06
;
#X obj 40 29 cnv 10 10 10 empty empty Paresys 0 5 1 9 -4033 -1 1.04858e+06
;
#X text -8 89 Construit sous / Build under Pd 0.42.5-extended;
#X obj 39 105 pddplink http://puredata.info/downloads;
#X obj 3 42 pddplink http://pagesperso-orange.fr/Paresys/ARGOPd/;
#X obj 3 57 pddplink http://gerard.paresys.free.fr/ARGOPd/;
#X restore 212 240 pd ??;
#X text 151 24 Delay;
#X text 138 36 1..10000ms;
#X text 210 35 0..100;
#X text 203 25 Feedback;
#X connect 2 0 12 0;
#X connect 5 0 6 0;
#X connect 5 0 12 1;
#X connect 6 0 5 0;
#X connect 9 0 5 0;
#X connect 10 0 13 0;
#X connect 11 0 12 0;
#X connect 12 0 1 0;
#X connect 13 0 14 0;
#X connect 13 0 19 0;
#X connect 14 0 13 0;
#X connect 18 0 11 0;
#X connect 19 0 12 4;
#X coords 0 -1 1 1 134 47 1 100 100;
#X restore 219 169 pd ARGO;
#N canvas 219 46 718 469 ARGO 0;
#X obj 368 103 cnv 10 20 10 empty empty Play 1 5 1 14 -262144 -1 1.04858e+06
;
#X obj 101 130 cnv 4 10 4 empty empty empty 20 12 0 14 -1 -66577 0
;
#X obj 82 450 outlet~;
#X obj -13 64 openpanel;
#X msg 212 352 1;
#X msg 141 326 0;
#X msg 25 107 set \$1;
#X msg 242 377 open \$1;
#X obj 197 291 t b b;
#X msg 222 436 set 0;
#X obj 177 193 sel 1 0;
#X floatatom 230 231 5 0 0 0 - - -;
#X msg 230 208 set \$1;
#X obj 204 261 sel 1;
#X msg 110 361 set 1;
#X obj 185 6 key;
#X obj 186 29 select 32;
#X obj 42 7 loadbang;
#X obj 243 404 readsf~ 2;
#X obj -12 84 t b s;
#X obj 151 100 tgl 12 1 \$0-A \$0-B Play(Space) 14 6 1 9 -262144 -1
-1 1 1;
#X obj 311 100 bng 12 250 50 0 \$0-A \$0-B Stop 14 6 1 9 -262144 -1
-1;
#X obj 249 100 tgl 12 1 \$0-A \$0-B Loop 15 6 1 9 -262144 -1 -1 1 1
;
#X obj 48 196 list2symbol;
#X obj 100 100 bng 12 250 50 0 \$0-A \$0-B empty 14 6 1 9 -262144 -1
-1;
#X obj 174 328 delay 5;
#X obj 102 6 inlet~;
#X obj 101 58 threshold~ 0.5 5 0.49 5;
#X obj 101 100 cnv 2 10 4 empty empty empty 20 12 0 14 -1 -66577 0
;
#X obj 102 101 cnv 2 8 2 empty empty empty 20 12 0 14 -262144 -66577
0;
#X text 75 81 Trig Decl;
#X obj 106 113 hradio 14 1 0 20 empty empty empty 0 6 0 8 -260097 -260097
-260097 0;
#X obj -13 42 bang;
#X text 403 115 <- Click the name to change;
#X symbolatom 101 113 49 0 0 0 - - -;
#X obj 49 140 cnv 15 400 50 empty empty empty 20 12 0 14 -260097 -66577
0;
#X text 51 139 Nom du fichier / File name;
#X text 454 152 <- Ajouter ../ devant le nom du fichier \; pour remonter
d'un dossier;
#X obj 654 424 cnv 15 41 30 empty empty empty 20 12 0 14 -24198 -66577
0;
#N canvas 350 196 308 136 ?? 0;
#X obj -9 87 cnv 15 300 38 empty empty empty 20 12 0 14 -224896 -66577
0;
#X obj -9 10 cnv 18 300 70 empty empty ARGOPdMiniModules 1 10 1 14
-4033 -1 1.04858e+06;
#X obj 9 29 cnv 10 10 10 empty empty Gerard 0 5 1 9 -4033 -1 1.04858e+06
;
#X obj 40 29 cnv 10 10 10 empty empty Paresys 0 5 1 9 -4033 -1 1.04858e+06
;
#X text -8 89 Construit sous / Build under Pd 0.42.5-extended;
#X obj 39 105 pddplink http://puredata.info/downloads;
#X obj 3 42 pddplink http://pagesperso-orange.fr/Paresys/ARGOPd/;
#X obj 3 57 pddplink http://gerard.paresys.free.fr/ARGOPd/;
#X restore 658 431 pd ??;
#X obj 396 258 cnv 15 60 30 empty empty empty 20 12 0 14 -24198 -66577
0;
#N canvas 309 46 564 575 Help 0;
#X obj 9 -296 cnv 15 400 100 empty empty empty 20 12 0 14 -233017 -66577
0;
#X text 12 -297 Citation;
#X obj 8 -51 cnv 15 550 310 empty empty empty 20 12 0 14 -258113 -66577
0;
#X text 20 -44 - Ne lit pas un fichier au format mp3 \, SoundDesigner
II (.SDII ou .SD2);
#X text 23 56 Solution: ouvrir puis sauver le fichier au format aiff
avec Audacity;
#X text 36 43 error: dsp: xxx.aiff: unknown or bad header format;
#X text 31 -281 READSF~ - read a soundfile;
#X text 30 -263 The wave \, aiff \, and nextstep formats are parsed
automatically \, although only 2- 3- and 4- byte samples are accepted
(4 bytes implies floating point and is not available in aiff format.)
;
#X text 13 -189 - Si le Patch est sauvé avec 1 Player contenant un
nom de fichier Audio \, ce fichier sera lu automatiquement à la prochaine
ouverture s'il n'a pas changé d'emplacement.;
#X text 191 206 If the sample rate of pd is set to 44100 \, files having
the sample rates of 44100 are correctly played \, other files will
be transposed.;
#X text 193 179 WARNING The sample rate of the output depends on the
system sample rate of pd:;
#X text 21 95 - ATTENTION Le taux d'échantillonnage de la lecture du
fichier dépends du taux d'échantillonnage de Pd.;
#X text 33 122 Si le taux d'échantillonnage de Pd est de 44100 (Menu
Preferences -> Audio Settings...) \, les fichiers échantillonnés à
44100 Hz sont lus correctement \, sinon ils sont transposés.;
#X text 12 -143 - Peut Ouvrir automatiquement 1 fichier qui se trouve
dans le même dossier que lui \, quelquesoit l'emplacement du dossier.
Pour cela ouvrir le module et taper le nom du fichier (sans chemin
d'accés) dans le message. Le dossier contenant le patch et le fichier
Audio est ainsi transportable.;
#X text 21 4 - Ne lit pas un fichier au format aiff "Entier petit boutien"
comme les pistes d'un CD Audio copiées avec le finder du Mac. Le message
d'erreur s'affichent:;
#X text 8 -434 MM Audio-Play;
#X text 18 -404 Le canal 2 d'un fichier Audio Stereo est mélangé au
canal 1;
#X text 18 -390 Les canaux 3 \, 4... d'un fichier Audio de plus de
2 canaux ne sont pas lus.;
#X text 197 -328 Channels 3 \, 4... of an Audio file of more than 2
channels are not read.;
#X text 197 -342 Channel 2 of a Stereo Audio file is mixed with channel
1;
#X text 19 -418 Lit un fichier Audio Mono (1 canal) au format aiff
\, wav.;
#X text 198 -357 Reads a Mono Audio file (1 channel) with aiff \, wav
format..;
#X restore 403 264 pd Help;
#X text 405 96 13 11 2010;
#X msg 53 158 cym.aiff;
#X connect 3 0 19 0;
#X connect 4 0 18 0;
#X connect 5 0 18 0;
#X connect 6 0 43 0;
#X connect 7 0 18 0;
#X connect 8 0 25 0;
#X connect 8 1 43 0;
#X connect 9 0 20 0;
#X connect 10 0 8 0;
#X connect 10 1 9 0;
#X connect 10 1 5 0;
#X connect 11 0 13 0;
#X connect 12 0 11 0;
#X connect 13 0 24 0;
#X connect 14 0 20 0;
#X connect 15 0 16 0;
#X connect 16 0 20 0;
#X connect 17 0 43 0;
#X connect 18 0 2 0;
#X connect 18 1 2 0;
#X connect 18 2 11 0;
#X connect 18 2 9 0;
#X connect 19 0 43 0;
#X connect 19 1 6 0;
#X connect 20 0 10 0;
#X connect 21 0 5 0;
#X connect 21 0 9 0;
#X connect 22 0 12 0;
#X connect 23 0 34 0;
#X connect 23 0 7 0;
#X connect 24 0 8 0;
#X connect 25 0 4 0;
#X connect 25 0 14 0;
#X connect 26 0 27 0;
#X connect 27 0 24 0;
#X connect 31 0 32 0;
#X connect 32 0 3 0;
#X connect 43 0 23 0;
#X coords 0 -1 1 1 300 35 2 100 100;
#X restore 120 20 pd ARGO;
#X text 354 189 <- Retroaction;
#X text 354 199 <- Feedback;
#N canvas 383 56 468 428 ARGO 0;
#X obj 287 37 cnv 15 60 30 empty empty empty 20 12 0 14 -24198 -66577
0;
#N canvas 402 65 418 133 Help 0;
#X text 8 52 random 100 generates random numbers between 0 and 99;
#X text 9 25 Nbr = Nombre - Number;
#X restore 294 43 pd Help;
#X obj 308 383 cnv 15 41 30 empty empty empty 20 12 0 14 -24198 -66577
0;
#N canvas 350 196 381 103 ? 0;
#X obj 5 49 cnv 15 370 38 empty empty empty 20 12 0 14 -224896 -66577
0;
#X text 6 65 Voir/Look at: http://puredata.info/downloads;
#X obj 4 12 cnv 18 370 30 empty empty ARGOPdMiniModules 1 10 1 14 -4033
-1 1.04858e+06;
#X obj 7 31 cnv 10 10 10 empty empty Gerard 0 5 1 9 -4033 -1 1.04858e+06
;
#X obj 38 31 cnv 10 10 10 empty empty Paresys 0 5 1 9 -4033 -1 1.04858e+06
;
#X obj 175 20 cnv 10 10 10 empty empty http://pagesperso-orange.fr/Paresys/ARGOPd/
0 5 1 9 -4033 -1 1.04858e+06;
#X obj 175 31 cnv 10 10 10 empty empty http://gerard.paresys.free.fr/ARGOPd/
0 5 1 9 -4033 -1 1.04858e+06;
#X text 6 51 Construit sous / Build under Pd 0.41.4-extended;
#X restore 314 390 pd ?;
#X obj -57 5 cnv 15 170 24 empty empty empty 20 12 0 14 -261682 -66577
0;
#X obj 100 8 inlet;
#X obj 92 390 cnv 15 170 24 empty empty empty 20 12 0 14 -261682 -66577
0;
#X obj 97 394 outlet;
#X obj 101 101 cnv 10 132 46 empty ColorForm Nbr 107 9 1 14 -261476
-1 1.04858e+06;
#X obj 100 101 bng 12 50 50 0 \$0-A \$0-B empty 14 6 1 9 -262144 -1
-1;
#X obj 101 101 cnv 4 10 4 empty empty empty 20 12 0 14 -260097 -66577
0;
#X obj 101 143 cnv 4 10 4 empty empty empty 20 12 0 14 -260097 -66577
0;
#X obj 115 106 nbx 4 12 59 9999 0 1 \$0-A ColorTime max 40 7 1 9 -262144
-1 -1 367 256;
#X text -57 12 Input anything message ->;
#X text -57 2 N'importe quel message ->;
#X obj 115 130 nbx 4 12 -999 9999 0 1 \$0-A ColorTime min 40 7 1 9
-262144 -1 -1 58 256;
#X obj 100 118 nbx 4 12 -999 9999 0 1 \$0-A ColorTime empty 40 7 1
9 -262144 -1 -1 333 256;
#X obj 232 270 random;
#X obj 231 221 -;
#X obj 191 166 + 1;
#X obj 231 246 t b f;
#X text 142 388 -> Nombre;
#X text 143 398 -> Number;
#X obj 269 332 +;
#X msg 270 209 range \$1 9999;
#X obj -46 162 + 1;
#X obj -29 326 int;
#X obj -69 326 + 1;
#X obj -46 259 int;
#X obj -46 185 t f f;
#X obj -46 234 select 1;
#X obj -46 210 >;
#X obj 175 100 vradio 12 1 1 4 \$0-A \$0-B --> 16 6 1 9 -262144 -1
-1 3;
#X obj 189 112 cnv 5 5 5 empty empty <-- 0 6 1 9 -261476 -1 0;
#X obj 189 125 cnv 5 5 5 empty empty <--> 0 6 1 9 -261476 -1 0;
#X obj 189 137 cnv 5 5 5 empty empty Alea 0 6 1 9 -261476 -1 0;
#X obj 39 364 switch 4;
#X obj 61 331 int;
#X obj 18 260 int;
#X obj 18 186 t f f;
#X obj 18 235 select 1;
#X obj 18 163 - 1;
#X obj 18 211 <;
#X obj 110 190 + 1;
#X obj 116 212 t f f;
#X obj 113 265 select 1;
#X obj 130 331 int;
#X obj 110 237 >;
#X msg 124 163 -1;
#X obj 171 263 select 1;
#X obj 171 239 <;
#X msg 159 163 1;
#X obj 109 291 t b b;
#X obj 172 290 t b b;
#X obj -42 64 >;
#X obj -42 132 int;
#X obj -42 87 select 1;
#X obj -42 41 t b f;
#X obj -103 131 int;
#X obj -103 87 select 1;
#X obj -103 42 t b f;
#X obj -103 65 <;
#X obj -103 108 delay 5;
#X obj 229 161 t b f f f f f b f;
#X obj -42 109 delay 5;
#X obj 328 184 + 1;
#X text 210 83 11 9 2010;
#X connect 5 0 9 0;
#X connect 9 0 17 0;
#X connect 9 0 26 0;
#X connect 9 0 37 0;
#X connect 9 0 46 0;
#X connect 12 0 19 0;
#X connect 12 0 31 1;
#X connect 12 0 38 1;
#X connect 12 0 47 1;
#X connect 12 0 55 1;
#X connect 12 0 57 0;
#X connect 15 0 63 0;
#X connect 16 0 7 0;
#X connect 16 0 25 0;
#X connect 16 0 41 0;
#X connect 16 0 43 0;
#X connect 16 0 54 0;
#X connect 16 0 61 0;
#X connect 17 0 23 0;
#X connect 18 0 20 0;
#X connect 19 0 18 0;
#X connect 20 0 17 0;
#X connect 20 1 17 1;
#X connect 23 0 36 4;
#X connect 24 0 12 0;
#X connect 25 0 29 0;
#X connect 26 0 36 1;
#X connect 27 0 36 0;
#X connect 28 0 26 1;
#X connect 29 0 31 0;
#X connect 29 1 26 1;
#X connect 30 0 28 0;
#X connect 31 0 30 0;
#X connect 32 0 27 0;
#X connect 36 0 16 0;
#X connect 37 0 36 2;
#X connect 38 0 37 1;
#X connect 39 0 42 0;
#X connect 39 1 37 1;
#X connect 40 0 38 0;
#X connect 41 0 39 0;
#X connect 42 0 40 0;
#X connect 43 0 44 0;
#X connect 44 0 47 0;
#X connect 44 0 50 0;
#X connect 44 1 46 1;
#X connect 45 0 52 0;
#X connect 46 0 36 3;
#X connect 47 0 45 0;
#X connect 48 0 43 1;
#X connect 49 0 53 0;
#X connect 50 0 49 0;
#X connect 51 0 43 1;
#X connect 52 0 43 0;
#X connect 52 1 48 0;
#X connect 53 0 43 0;
#X connect 53 1 51 0;
#X connect 54 0 56 0;
#X connect 55 0 16 0;
#X connect 56 0 64 0;
#X connect 57 0 54 0;
#X connect 57 1 54 1;
#X connect 58 0 16 0;
#X connect 59 0 62 0;
#X connect 60 0 61 0;
#X connect 60 1 61 1;
#X connect 61 0 59 0;
#X connect 62 0 58 0;
#X connect 63 0 18 0;
#X connect 63 1 18 1;
#X connect 63 2 23 1;
#X connect 63 3 58 1;
#X connect 63 4 60 0;
#X connect 63 5 28 1;
#X connect 63 5 50 1;
#X connect 63 5 42 1;
#X connect 63 6 12 0;
#X connect 63 7 65 0;
#X connect 64 0 55 0;
#X connect 65 0 24 0;
#X coords 0 -1 1 1 134 48 2 100 100;
#X restore 282 107 pd ARGO;
#N canvas 446 113 417 240 ARGO 0;
#X obj 163 45 cnv 15 60 30 empty empty empty 20 12 0 14 -24198 -66577
0;
#N canvas 537 176 286 105 Help 0;
#X text 15 20 Un "Bang" sort X fois par minute.;
#X text 13 52 A "Bang" outputs X times per minute.;
#X restore 170 51 pd Help;
#X obj 100 32 inlet;
#X obj 94 196 cnv 15 170 24 empty empty empty 20 12 0 14 -261682 -66577
0;
#X obj 99 200 outlet;
#X obj 101 101 cnv 10 132 36 empty ColorForm Metronome 58 9 1 14 -208064
-1 1.04858e+06;
#X obj 100 125 bng 12 250 50 0 \$0-A \$0-B empty 14 6 1 9 -262144 -1
-1;
#X obj 101 133 cnv 4 10 4 empty empty empty 20 12 0 14 -260097 -66577
0;
#X obj 100 113 nbx 3 12 1 999 0 1 \$0-A ColorTime Beats-per-minute
37 17 1 11 -208064 -1 -1 75 256;
#X text 145 204 -> Bang;
#X text 144 194 -> Bang;
#X obj 100 100 tgl 12 1 \$0-A \$0-B empty 17 7 0 10 -262144 -1 -1 1
1;
#X obj -93 96 cnv 15 190 20 empty empty empty 20 12 0 14 -261682 -66577
0;
#X text -92 97 1: Play 0: Stop bang: Change ->;
#X obj 101 101 cnv 4 10 4 empty empty empty 20 12 0 14 -260097 -66577
0;
#X obj 20 180 metro 300;
#X obj 71 150 expr 60000 / $f1;
#X text 177 83 16 12 2010;
#X obj 271 197 cnv 15 41 30 empty empty empty 20 12 0 14 -24198 -66577
0;
#N canvas 350 196 308 136 ?? 0;
#X obj -9 87 cnv 15 300 38 empty empty empty 20 12 0 14 -224896 -66577
0;
#X obj -9 10 cnv 18 300 70 empty empty ARGOPdMiniModules 1 10 1 14
-4033 -1 1.04858e+06;
#X obj 9 29 cnv 10 10 10 empty empty Gerard 0 5 1 9 -4033 -1 1.04858e+06
;
#X obj 40 29 cnv 10 10 10 empty empty Paresys 0 5 1 9 -4033 -1 1.04858e+06
;
#X text -8 89 Construit sous / Build under Pd 0.42.5-extended;
#X obj 39 105 pddplink http://puredata.info/downloads;
#X obj 3 42 pddplink http://pagesperso-orange.fr/Paresys/ARGOPd/;
#X obj 3 57 pddplink http://gerard.paresys.free.fr/ARGOPd/;
#X restore 275 204 pd ??;
#X connect 2 0 11 0;
#X connect 6 0 4 0;
#X connect 8 0 16 0;
#X connect 11 0 15 0;
#X connect 15 0 6 0;
#X connect 16 0 15 1;
#X coords 0 -1 1 1 134 38 2 100 100;
#X restore 282 62 pd ARGO;
#X obj 149 400 dac~ 1 2;
#X obj 381 390 cnv 15 48 25 empty empty empty 20 12 0 14 -24198 -66577
0;
#N canvas 350 196 308 136 ??? 0;
#X obj -6 87 cnv 15 300 38 empty empty empty 20 12 0 14 -224896 -66577
0;
#X obj -6 10 cnv 18 300 70 empty empty ARGOPdMiniModules 3 10 1 14
-4033 -1 1.04858e+06;
#X obj 13 31 cnv 10 10 10 empty empty Gerard 0 5 1 11 -4033 -1 1.04858e+06
;
#X obj 55 30 cnv 10 10 10 empty empty Paresys 0 5 1 11 -4033 -1 1.04858e+06
;
#X text -1 89 Construit sous / Build under Pd 0.42.5-extended;
#X obj 6 43 pddp/pddplink http://pagesperso-orange.fr/Paresys/ARGOPd/
;
#X obj 6 58 pddp/pddplink http://gerard.paresys.free.fr/ARGOPd/;
#X obj 46 105 pddp/pddplink http://puredata.info/downloads;
#X restore 385 394 pd ???;
#N canvas 432 42 314 359 ARGO 0;
#X obj 101 101 cnv 30 37 130 empty ColorAmpli empty 20 12 0 14 -1 -258113
0;
#X obj 101 101 cnv 4 10 4 empty empty empty 20 12 0 14 -1 -66577 0
;
#X obj 102 108 vu 8 120 \$0-B empty 0 0 1 11 -1 -4034 1 0;
#X obj 42 -112 inlet~;
#X obj 35 -87 *~;
#X obj 35 3 snapshot~;
#X obj 35 26 sqrt;
#X obj 35 -24 lop~ 10;
#X obj 35 50 rmstodb;
#X obj 98 -111 loadbang;
#X obj 35 73 - 100;
#X obj 171 26 sqrt;
#X obj 172 50 rmstodb;
#X obj 172 73 - 100;
#X obj 97 -23 metro 200;
#X obj 236 -97 cnv 15 60 30 empty empty empty 20 12 0 14 -24198 -66577
0;
#N canvas 300 65 442 264 Help 0;
#X obj 12 48 cnv 15 400 150 empty empty empty 20 12 0 14 -233017 -66577
0;
#X text 16 50 Citation;
#X text 28 67 peakamp~ tracks and outputs the absolute value of the
peak amplitude of the incoming signal. It outputs when banged or using
its own internal clock. The peak value is reset each time peakamp~
outputs a value.;
#X text 17 214 par rapport à la version précédente du MM-Vumetre env~
est remplacé par square~ + lop~ + snapshot~ + sqrt + rmstodb car env~
consomme beaucoup CPU.;
#X text 29 123 cyclone library;
#X text 28 135 http://suita.chopin.edu.pl/~czaja/miXed/externs/cyclone.html
;
#X text 29 155 Voir doc Max/MSP MSP46ReferenceManual.pdf;
#X text 18 14 MM-Vumetre;
#X restore 243 -91 pd Help;
#X obj 261 199 cnv 15 41 30 empty empty empty 20 12 0 14 -24198 -66577
0;
#N canvas 350 196 308 136 ?? 0;
#X obj -9 87 cnv 15 300 38 empty empty empty 20 12 0 14 -224896 -66577
0;
#X obj -9 10 cnv 18 300 70 empty empty ARGOPdMiniModules 1 10 1 14
-4033 -1 1.04858e+06;
#X obj 9 29 cnv 10 10 10 empty empty Gerard 0 5 1 9 -4033 -1 1.04858e+06
;
#X obj 40 29 cnv 10 10 10 empty empty Paresys 0 5 1 9 -4033 -1 1.04858e+06
;
#X text -8 89 Construit sous / Build under Pd 0.42.5-extended;
#X obj 39 105 pddplink http://puredata.info/downloads;
#X obj 3 42 pddplink http://pagesperso-orange.fr/Paresys/ARGOPd/;
#X obj 3 57 pddplink http://gerard.paresys.free.fr/ARGOPd/;
#X restore 265 206 pd ??;
#X obj 158 -111 r SendFluid;
#X obj 171 -50 cyclone/peakamp~ 1000;
#X text 145 106 13 2 2011;
#X connect 3 0 4 0;
#X connect 3 0 4 1;
#X connect 4 0 7 0;
#X connect 4 0 20 0;
#X connect 5 0 6 0;
#X connect 6 0 8 0;
#X connect 7 0 5 0;
#X connect 8 0 10 0;
#X connect 9 0 14 0;
#X connect 10 0 2 0;
#X connect 11 0 12 0;
#X connect 12 0 13 0;
#X connect 13 0 2 1;
#X connect 14 0 5 0;
#X connect 19 0 14 1;
#X connect 20 0 11 0;
#X coords 0 -1 1 1 39 132 2 100 100;
#X restore 227 285 pd ARGO;
#X text 13 238 Niveau general ->;
#X text 19 248 General level ->;
#N canvas 432 42 314 359 ARGO 0;
#X obj 101 101 cnv 30 37 130 empty ColorAmpli empty 20 12 0 14 -1 -258113
0;
#X obj 101 101 cnv 4 10 4 empty empty empty 20 12 0 14 -1 -66577 0
;
#X obj 102 108 vu 8 120 \$0-B empty 0 0 1 11 -1 -4034 1 0;
#X obj 42 -112 inlet~;
#X obj 35 -87 *~;
#X obj 35 3 snapshot~;
#X obj 35 26 sqrt;
#X obj 35 -24 lop~ 10;
#X obj 35 50 rmstodb;
#X obj 98 -111 loadbang;
#X obj 35 73 - 100;
#X obj 171 26 sqrt;
#X obj 172 50 rmstodb;
#X obj 172 73 - 100;
#X obj 97 -23 metro 200;
#X obj 236 -97 cnv 15 60 30 empty empty empty 20 12 0 14 -24198 -66577
0;
#N canvas 300 65 442 264 Help 0;
#X obj 12 48 cnv 15 400 150 empty empty empty 20 12 0 14 -233017 -66577
0;
#X text 16 50 Citation;
#X text 28 67 peakamp~ tracks and outputs the absolute value of the
peak amplitude of the incoming signal. It outputs when banged or using
its own internal clock. The peak value is reset each time peakamp~
outputs a value.;
#X text 17 214 par rapport à la version précédente du MM-Vumetre env~
est remplacé par square~ + lop~ + snapshot~ + sqrt + rmstodb car env~
consomme beaucoup CPU.;
#X text 29 123 cyclone library;
#X text 28 135 http://suita.chopin.edu.pl/~czaja/miXed/externs/cyclone.html
;
#X text 29 155 Voir doc Max/MSP MSP46ReferenceManual.pdf;
#X text 18 14 MM-Vumetre;
#X restore 243 -91 pd Help;
#X obj 261 199 cnv 15 41 30 empty empty empty 20 12 0 14 -24198 -66577
0;
#N canvas 350 196 308 136 ?? 0;
#X obj -9 87 cnv 15 300 38 empty empty empty 20 12 0 14 -224896 -66577
0;
#X obj -9 10 cnv 18 300 70 empty empty ARGOPdMiniModules 1 10 1 14
-4033 -1 1.04858e+06;
#X obj 9 29 cnv 10 10 10 empty empty Gerard 0 5 1 9 -4033 -1 1.04858e+06
;
#X obj 40 29 cnv 10 10 10 empty empty Paresys 0 5 1 9 -4033 -1 1.04858e+06
;
#X text -8 89 Construit sous / Build under Pd 0.42.5-extended;
#X obj 39 105 pddplink http://puredata.info/downloads;
#X obj 3 42 pddplink http://pagesperso-orange.fr/Paresys/ARGOPd/;
#X obj 3 57 pddplink http://gerard.paresys.free.fr/ARGOPd/;
#X restore 265 206 pd ??;
#X obj 158 -111 r SendFluid;
#X obj 171 -50 cyclone/peakamp~ 1000;
#X text 145 106 13 2 2011;
#X connect 3 0 4 0;
#X connect 3 0 4 1;
#X connect 4 0 7 0;
#X connect 4 0 20 0;
#X connect 5 0 6 0;
#X connect 6 0 8 0;
#X connect 7 0 5 0;
#X connect 8 0 10 0;
#X connect 9 0 14 0;
#X connect 10 0 2 0;
#X connect 11 0 12 0;
#X connect 12 0 13 0;
#X connect 13 0 2 1;
#X connect 14 0 5 0;
#X connect 19 0 14 1;
#X connect 20 0 11 0;
#X coords 0 -1 1 1 39 132 2 100 100;
#X restore 239 285 pd ARGO;
#N canvas 497 69 331 310 ARGO 0;
#X obj 101 101 cnv 20 104 34 empty ColorAmpli empty 20 12 0 14 -261299
-1 1.04858e+06;
#X obj 85 282 outlet~;
#X obj 134 104 cnv 10 20 10 empty ColorAmpli Ampli 1 5 1 14 -261299
-1 1.04858e+06;
#X obj 85 43 inlet~;
#X obj 85 259 *~;
#X obj 103 118 hsl 101 12 -80 20 0 1 \$0-A ColorAmpli 0dB 0 7 1 9 -261299
-1 -1 8000 0;
#X obj 101 101 cnv 4 10 4 empty empty empty 20 12 0 14 -1 -66577 0
;
#X obj 101 131 cnv 4 10 4 empty empty empty 20 12 0 14 -1 -66577 0
;
#X obj 195 101 cnv 4 10 4 empty empty empty 20 12 0 14 -1 -66577 0
;
#X obj 195 131 cnv 4 10 4 empty empty empty 20 12 0 14 -1 -66577 0
;
#X obj 210 281 outlet~;
#X obj 210 42 inlet~;
#X obj 210 258 *~;
#X text 221 83 1 6 2011;
#X msg -10 150 label \$1;
#X obj -11 127 tosymbol;
#X obj -11 92 sprintf %ddB;
#X text 107 167 -> 0.0001..10 = -80dB..20dB;
#X obj 101 148 expr (pow(10 \, $f1 / 20));
#X obj 101 191 sel 0.0001;
#X msg 101 219 0;
#X obj 264 269 cnv 15 41 30 empty empty empty 20 12 0 14 -24198 -66577
0;
#N canvas 350 196 308 136 ?? 0;
#X obj -9 87 cnv 15 300 38 empty empty empty 20 12 0 14 -224896 -66577
0;
#X obj -9 10 cnv 18 300 70 empty empty ARGOPdMiniModules 1 10 1 14
-4033 -1 1.04858e+06;
#X obj 9 29 cnv 10 10 10 empty empty Gerard 0 5 1 9 -4033 -1 1.04858e+06
;
#X obj 40 29 cnv 10 10 10 empty empty Paresys 0 5 1 9 -4033 -1 1.04858e+06
;
#X text -8 89 Construit sous / Build under Pd 0.42.5-extended;
#X obj 39 105 pddplink http://puredata.info/downloads;
#X obj 3 42 pddplink http://pagesperso-orange.fr/Paresys/ARGOPd/;
#X obj 3 57 pddplink http://gerard.paresys.free.fr/ARGOPd/;
#X restore 268 276 pd ??;
#X connect 3 0 4 0;
#X connect 4 0 1 0;
#X connect 5 0 16 0;
#X connect 5 0 18 0;
#X connect 11 0 12 0;
#X connect 12 0 10 0;
#X connect 14 0 5 0;
#X connect 15 0 14 0;
#X connect 16 0 15 0;
#X connect 18 0 19 0;
#X connect 19 0 20 0;
#X connect 19 1 4 1;
#X connect 19 1 12 1;
#X connect 20 0 4 1;
#X connect 20 0 12 1;
#X connect 20 0 15 0;
#X coords 0 -1 1 1 106 36 1 100 100;
#X restore 120 227 pd ARGO;
#X connect 1 0 2 0;
#X connect 8 0 21 1;
#X connect 9 0 8 0;
#X connect 9 0 21 0;
#X connect 12 0 8 1;
#X connect 13 0 12 0;
#X connect 21 0 14 0;
#X connect 21 0 17 0;
#X connect 21 1 14 1;
#X connect 21 1 20 0;
