#N canvas 274 22 703 528 10;
#X obj 372 285 cnv 15 48 25 empty empty empty 20 12 0 14 -24198 -66577
0;
#N canvas 350 196 308 136 ??? 0;
#X obj -6 87 cnv 15 300 38 empty empty empty 20 12 0 14 -224896 -66577
0;
#X obj -6 10 cnv 18 300 70 empty empty ARGOPdMiniModules 3 10 1 14
-4033 -1 1.04858e+06;
#X obj 13 31 cnv 10 10 10 empty empty Gerard 0 5 1 11 -4033 -1 1.04858e+06
;
#X obj 55 30 cnv 10 10 10 empty empty Paresys 0 5 1 11 -4033 -1 1.04858e+06
;
#X text -1 89 Construit sous / Build under Pd 0.42.5-extended;
#X obj 6 43 pddp/pddplink http://pagesperso-orange.fr/Paresys/ARGOPd/
;
#X obj 6 58 pddp/pddplink http://gerard.paresys.free.fr/ARGOPd/;
#X obj 46 105 pddp/pddplink http://puredata.info/downloads;
#X restore 376 289 pd ???;
#X obj -258 -210 cnv 15 15 15 empty empty ExMM142b-Text-Sonification.pd
0 8 1 14 -262144 -66577 0;
#X text -77 -63 V;
#X text -77 -70 |;
#X text -134 -72 Next Line;
#X text -154 -84 Ligne suivante;
#X text -68 20 Caractère/Character <-;
#X obj -112 68 nbx 5 14 -1e+37 1e+37 0 0 empty empty empty 0 -8 0 10
-262144 -1 -1 83 256;
#N canvas 708 108 324 332 ARGO 0;
#X obj 100 300 outlet~;
#X obj 204 23 cnv 15 60 30 empty empty empty 20 12 0 14 -24198 -66577
0;
#N canvas 346 177 424 103 Help 0;
#X text -102 23 Synth4 = Synthétiseur 4 = Synthesizer 4;
#X text -102 39 Impulsion + Filtre Passe-bande;
#X restore 211 29 pd Help;
#X obj 257 277 cnv 15 41 30 empty empty empty 20 12 0 14 -24198 -66577
0;
#N canvas 350 196 308 136 ?? 0;
#X obj -9 87 cnv 15 300 38 empty empty empty 20 12 0 14 -224896 -66577
0;
#X obj -9 10 cnv 18 300 70 empty empty ARGOPdMiniModules 1 10 1 14
-4033 -1 1.04858e+06;
#X obj 9 29 cnv 10 10 10 empty empty Gerard 0 5 1 9 -4033 -1 1.04858e+06
;
#X obj 40 29 cnv 10 10 10 empty empty Paresys 0 5 1 9 -4033 -1 1.04858e+06
;
#X text -8 89 Construit sous / Build under Pd 0.42.5-extended;
#X obj 39 105 pddplink http://puredata.info/downloads;
#X obj 3 42 pddplink http://pagesperso-orange.fr/Paresys/ARGOPd/;
#X obj 3 57 pddplink http://gerard.paresys.free.fr/ARGOPd/;
#X restore 261 284 pd ??;
#X obj 100 22 inlet;
#X text 30 -11 NoteMIDI;
#N canvas 499 145 264 245 Freq-v6 0;
#X obj -88 23 inlet;
#X obj -88 177 outlet;
#X text -91 194 Hslider;
#X text -93 2 Hslider;
#X obj 36 149 clip 0 20000;
#X obj 36 125 mtof;
#X obj 36 176 outlet;
#X text 33 194 Freq Hz;
#N canvas 220 243 583 317 pitchb-11-2010 0;
#X obj 70 111 mod 12;
#X obj 70 135 sel 0 1 2 3 4 5 6 7 8 9 10 11;
#X msg 246 170 A;
#X msg 300 170 B;
#X msg 192 170 G;
#X msg 3 170 C;
#X msg 57 170 D;
#X msg 111 170 E;
#X msg 138 170 F;
#X obj 204 1 inlet;
#X obj 329 115 div 12;
#X obj 204 79 t f f;
#X text 334 190 -> Numero de l'octave;
#X text 213 64 -> Numero MIDI de la note (69 = A3 = 440Hz);
#X msg 260 260 label \$1;
#X obj 260 283 outlet;
#X msg 30 170 Db;
#X msg 84 170 Eb;
#X msg 165 170 Gb;
#X msg 219 170 Ab;
#X msg 273 170 Bb;
#X text 369 78 (70 = A#3 = Bb3);
#X obj 260 238 symbol;
#X obj 260 213 sprintf %s%d;
#X text 11 231 Impossible d'afficher # dans un label;
#X text 11 243 donc j'affiche b;
#X obj 204 51 int;
#X text 255 23 -> pour corriger certaines erreurs de calcul;
#X obj 329 144 - 12;
#X text 255 35 et le pb du passage a zero de mod 12;
#X obj 204 25 + 120.5;
#X connect 0 0 1 0;
#X connect 1 0 5 0;
#X connect 1 1 16 0;
#X connect 1 2 6 0;
#X connect 1 3 17 0;
#X connect 1 4 7 0;
#X connect 1 5 8 0;
#X connect 1 6 18 0;
#X connect 1 7 4 0;
#X connect 1 8 19 0;
#X connect 1 9 2 0;
#X connect 1 10 20 0;
#X connect 1 11 3 0;
#X connect 2 0 23 0;
#X connect 3 0 23 0;
#X connect 4 0 23 0;
#X connect 5 0 23 0;
#X connect 6 0 23 0;
#X connect 7 0 23 0;
#X connect 8 0 23 0;
#X connect 9 0 30 0;
#X connect 10 0 28 0;
#X connect 11 0 0 0;
#X connect 11 1 10 0;
#X connect 14 0 15 0;
#X connect 16 0 23 0;
#X connect 17 0 23 0;
#X connect 18 0 23 0;
#X connect 19 0 23 0;
#X connect 20 0 23 0;
#X connect 22 0 14 0;
#X connect 23 0 22 0;
#X connect 26 0 11 0;
#X connect 28 0 23 1;
#X connect 30 0 26 0;
#X restore -88 88 pd pitchb-11-2010;
#X connect 0 0 5 0;
#X connect 0 0 8 0;
#X connect 4 0 6 0;
#X connect 5 0 4 0;
#X connect 8 0 1 0;
#X restore 151 211 pd Freq-v6;
#X text 90 -11 0..127 = C-2..G8;
#X obj 101 101 cnv 6 132 56 empty ColorForm Synth4 87 8 1 14 -262144
-1 1.04858e+06;
#X obj 100 101 bng 12 50 50 0 \$0-A \$0-B empty 14 6 1 9 -262144 -1
-1;
#X obj 101 101 cnv 4 10 4 empty empty empty 20 12 0 14 -260097 -66577
0;
#X obj 101 153 cnv 4 10 4 empty empty empty 20 12 0 14 -1 -66577 0
;
#X obj 103 129 hsl 129 12 0 128 0 1 \$0-A ColorTime B4 0 7 1 9 -208064
-1 -1 8300 0;
#X obj 100 47 t b f;
#X obj 127 74 select 0;
#X text 91 4 ou Bang;
#X obj 100 254 bp~;
#X obj 133 141 hsl 99 12 1 10000 1 1 \$0-A ColorForm 82 0 7 1 9 -188398
-1 -1 4700 0;
#X obj 122 144 cnv 6 2 2 empty ColorForm Q 0 4 1 9 -262144 -1 1.04858e+06
;
#X obj 100 211 vline~;
#X msg 57 183 1 \, 0 0 \$1;
#X obj 57 160 f;
#X obj 133 117 hsl 99 12 0.03 30 1 1 \$0-A ColorForm 0.26 0 7 1 9 -208064
-1 -1 3100 0;
#N canvas 0 22 450 300 label-ms 0;
#X msg 156 171 label \$1;
#X obj 156 151 tosymbol;
#X obj 156 111 expr (int(100 * $f1) / 100) \;;
#X obj 154 84 inlet;
#X obj 157 200 outlet;
#X obj 156 131 sprintf %s;
#X connect 0 0 4 0;
#X connect 1 0 0 0;
#X connect 2 0 5 0;
#X connect 3 0 2 0;
#X connect 5 0 1 0;
#X restore 248 116 pd label-ms;
#N canvas 375 291 195 181 label-Q 0;
#X obj 56 28 inlet;
#X obj 107 149 outlet;
#X msg 108 122 label \$1;
#X obj 108 100 tosymbol;
#X obj 108 78 int;
#X connect 0 0 4 0;
#X connect 2 0 1 0;
#X connect 3 0 2 0;
#X connect 4 0 3 0;
#X restore 170 165 pd label-Q;
#X obj 118 121 cnv 6 2 2 empty ColorForm ms 0 4 1 9 -262144 -1 1.04858e+06
;
#X obj 101 115 cnv 6 2 2 empty ColorForm Pulse 0 4 1 9 -262144 -1 1.04858e+06
;
#X text 194 83 13 12 2010;
#X connect 5 0 14 0;
#X connect 7 0 13 0;
#X connect 7 1 17 1;
#X connect 10 0 22 0;
#X connect 13 0 7 0;
#X connect 14 0 10 0;
#X connect 14 1 15 0;
#X connect 15 1 13 0;
#X connect 17 0 0 0;
#X connect 18 0 25 0;
#X connect 18 0 17 2;
#X connect 20 0 17 0;
#X connect 21 0 20 0;
#X connect 22 0 21 0;
#X connect 23 0 24 0;
#X connect 23 0 22 1;
#X connect 24 0 23 0;
#X connect 25 0 18 0;
#X coords 0 -1 1 1 134 58 1 100 100;
#X restore 24 63 pd ARGO;
#N canvas 358 45 421 308 ARGO 0;
#X obj 163 45 cnv 15 60 30 empty empty empty 20 12 0 14 -24198 -66577
0;
#N canvas 537 176 286 105 Help 0;
#X text 15 20 Un "Bang" sort X fois par minute.;
#X text 13 52 A "Bang" outputs X times per minute.;
#X restore 170 51 pd Help;
#X obj 100 32 inlet;
#X obj 95 249 cnv 15 170 24 empty empty empty 20 12 0 14 -261682 -66577
0;
#X obj 100 253 outlet;
#X obj 101 101 cnv 10 132 35 empty ColorForm Metronome 59 9 1 14 -208064
-1 1.04858e+06;
#X obj 100 124 bng 12 50 10 0 \$0-A \$0-B empty 14 6 1 9 -262144 -1
-1;
#X obj 101 132 cnv 4 10 4 empty empty empty 20 12 0 14 -260097 -66577
0;
#X obj 100 112 nbx 3 12 1 999 0 1 \$0-A ColorTime BPM 36 8 1 11 -208064
-1 -1 500 256;
#X obj 100 100 tgl 12 1 \$0-A \$0-B empty 17 7 0 10 -262144 -1 -1 1
1;
#X obj -93 96 cnv 15 190 20 empty empty empty 20 12 0 14 -261682 -66577
0;
#X text -92 97 1: Play 0: Stop bang: Change ->;
#X obj 101 101 cnv 4 10 4 empty empty empty 20 12 0 14 -260097 -66577
0;
#X obj 20 183 metro 300;
#X obj 71 160 expr 60000 / $f1;
#X obj 276 265 cnv 15 41 30 empty empty empty 20 12 0 14 -24198 -66577
0;
#N canvas 350 196 308 136 ?? 0;
#X obj -9 87 cnv 15 300 38 empty empty empty 20 12 0 14 -224896 -66577
0;
#X obj -9 10 cnv 18 300 70 empty empty ARGOPdMiniModules 1 10 1 14
-4033 -1 1.04858e+06;
#X obj 9 29 cnv 10 10 10 empty empty Gerard 0 5 1 9 -4033 -1 1.04858e+06
;
#X obj 40 29 cnv 10 10 10 empty empty Paresys 0 5 1 9 -4033 -1 1.04858e+06
;
#X text -8 89 Construit sous / Build under Pd 0.42.5-extended;
#X obj 39 105 pddplink http://puredata.info/downloads;
#X obj 3 42 pddplink http://pagesperso-orange.fr/Paresys/ARGOPd/;
#X obj 3 57 pddplink http://gerard.paresys.free.fr/ARGOPd/;
#X restore 280 272 pd ??;
#X text 177 83 28 5 2011;
#X text 105 286 Bang;
#X text 113 272 |;
#X text 113 277 v;
#X connect 2 0 9 0;
#X connect 6 0 4 0;
#X connect 8 0 14 0;
#X connect 9 0 13 0;
#X connect 13 0 6 0;
#X connect 14 0 13 1;
#X coords 0 -1 1 1 134 37 2 100 100;
#X restore 215 -97 pd ARGO;
#X msg 257 -125 0;
#X text 207 -126 Stop ->;
#N canvas 324 59 331 313 ARGO 0;
#X obj 101 101 cnv 20 104 34 empty ColorAmpli empty 20 12 0 14 -261299
-1 1.04858e+06;
#X obj 85 285 outlet~;
#X obj 134 104 cnv 10 20 10 empty ColorAmpli Ampli 1 5 1 14 -261299
-1 1.04858e+06;
#X obj 85 72 inlet~;
#X obj 85 260 *~;
#X obj 103 118 hsl 101 12 -80 20 0 1 \$0-A ColorAmpli 20dB 0 7 1 9
-261299 -1 -1 10000 0;
#X msg -24 161 label \$1;
#X obj -25 138 tosymbol;
#X obj -25 103 sprintf %ddB;
#X obj 101 101 cnv 4 10 4 empty empty empty 20 12 0 14 -1 -66577 0
;
#X obj 101 131 cnv 4 10 4 empty empty empty 20 12 0 14 -1 -66577 0
;
#X text -16 120 -> -80dB..20dB;
#X text 106 182 -> 0.0001..10 = -80dB..20dB;
#X text 209 97 5 5 2011;
#X obj 100 163 expr (pow(10 \, $f1 / 20));
#X text 107 140 -> -80..20;
#X obj 227 270 cnv 15 41 30 empty empty empty 20 12 0 14 -24198 -66577
0;
#N canvas 350 196 308 136 ?? 0;
#X obj -9 87 cnv 15 300 38 empty empty empty 20 12 0 14 -224896 -66577
0;
#X obj -9 10 cnv 18 300 70 empty empty ARGOPdMiniModules 1 10 1 14
-4033 -1 1.04858e+06;
#X obj 9 29 cnv 10 10 10 empty empty Gerard 0 5 1 9 -4033 -1 1.04858e+06
;
#X obj 40 29 cnv 10 10 10 empty empty Paresys 0 5 1 9 -4033 -1 1.04858e+06
;
#X text -8 89 Construit sous / Build under Pd 0.42.5-extended;
#X obj 39 105 pddplink http://puredata.info/downloads;
#X obj 3 42 pddplink http://pagesperso-orange.fr/Paresys/ARGOPd/;
#X obj 3 57 pddplink http://gerard.paresys.free.fr/ARGOPd/;
#X restore 231 277 pd ??;
#X obj 100 206 sel 0.0001;
#X msg 100 234 0;
#X connect 3 0 4 0;
#X connect 4 0 1 0;
#X connect 5 0 8 0;
#X connect 5 0 14 0;
#X connect 6 0 5 0;
#X connect 7 0 6 0;
#X connect 8 0 7 0;
#X connect 14 0 18 0;
#X connect 18 0 19 0;
#X connect 18 1 4 1;
#X connect 19 0 4 1;
#X connect 19 0 7 0;
#X coords 0 -1 1 1 106 36 1 100 100;
#X restore 24 128 pd ARGO;
#N canvas 432 42 314 359 ARGO 0;
#X obj 101 101 cnv 30 37 130 empty ColorAmpli empty 20 12 0 14 -1 -258113
0;
#X obj 101 101 cnv 4 10 4 empty empty empty 20 12 0 14 -1 -66577 0
;
#X obj 102 108 vu 8 120 \$0-B empty 0 0 1 11 -1 -4034 1 0;
#X obj 42 -112 inlet~;
#X obj 35 -87 *~;
#X obj 35 3 snapshot~;
#X obj 35 26 sqrt;
#X obj 35 -24 lop~ 10;
#X obj 35 50 rmstodb;
#X obj 98 -111 loadbang;
#X obj 35 73 - 100;
#X obj 171 26 sqrt;
#X obj 172 50 rmstodb;
#X obj 172 73 - 100;
#X obj 97 -23 metro 200;
#X obj 236 -97 cnv 15 60 30 empty empty empty 20 12 0 14 -24198 -66577
0;
#N canvas 300 65 442 264 Help 0;
#X obj 12 48 cnv 15 400 150 empty empty empty 20 12 0 14 -233017 -66577
0;
#X text 16 50 Citation;
#X text 28 67 peakamp~ tracks and outputs the absolute value of the
peak amplitude of the incoming signal. It outputs when banged or using
its own internal clock. The peak value is reset each time peakamp~
outputs a value.;
#X text 17 214 par rapport à la version précédente du MM-Vumetre env~
est remplacé par square~ + lop~ + snapshot~ + sqrt + rmstodb car env~
consomme beaucoup CPU.;
#X text 29 123 cyclone library;
#X text 28 135 http://suita.chopin.edu.pl/~czaja/miXed/externs/cyclone.html
;
#X text 29 155 Voir doc Max/MSP MSP46ReferenceManual.pdf;
#X text 18 14 MM-Vumetre;
#X restore 243 -91 pd Help;
#X obj 261 199 cnv 15 41 30 empty empty empty 20 12 0 14 -24198 -66577
0;
#N canvas 350 196 308 136 ?? 0;
#X obj -9 87 cnv 15 300 38 empty empty empty 20 12 0 14 -224896 -66577
0;
#X obj -9 10 cnv 18 300 70 empty empty ARGOPdMiniModules 1 10 1 14
-4033 -1 1.04858e+06;
#X obj 9 29 cnv 10 10 10 empty empty Gerard 0 5 1 9 -4033 -1 1.04858e+06
;
#X obj 40 29 cnv 10 10 10 empty empty Paresys 0 5 1 9 -4033 -1 1.04858e+06
;
#X text -8 89 Construit sous / Build under Pd 0.42.5-extended;
#X obj 39 105 pddplink http://puredata.info/downloads;
#X obj 3 42 pddplink http://pagesperso-orange.fr/Paresys/ARGOPd/;
#X obj 3 57 pddplink http://gerard.paresys.free.fr/ARGOPd/;
#X restore 265 206 pd ??;
#X obj 158 -111 r SendFluid;
#X obj 171 -50 cyclone/peakamp~ 1000;
#X text 145 106 13 2 2011;
#X connect 3 0 4 0;
#X connect 3 0 4 1;
#X connect 4 0 7 0;
#X connect 4 0 20 0;
#X connect 5 0 6 0;
#X connect 6 0 8 0;
#X connect 7 0 5 0;
#X connect 8 0 10 0;
#X connect 9 0 14 0;
#X connect 10 0 2 0;
#X connect 11 0 12 0;
#X connect 12 0 13 0;
#X connect 13 0 2 1;
#X connect 14 0 5 0;
#X connect 19 0 14 1;
#X connect 20 0 11 0;
#X coords 0 -1 1 1 39 132 2 100 100;
#X restore 32 172 pd ARGO;
#X text -111 138 Niveau general ->;
#X text -105 149 General level ->;
#X obj -28 287 dac~ 1 2;
#X text 231 -53 <- Caractère suivant;
#X text 231 -43 <- Next Character;
#X text -196 67 Code ASCII <-;
#X text -238 -33 Ouvrir un fichier texte ->;
#N canvas 332 229 279 134 ARGO 0;
#X obj 87 26 change;
#X obj 133 4 loadbang;
#X text 134 82 20 11 2010;
#X obj 87 3 inlet;
#N canvas 220 243 583 317 pitchb-11-2010 0;
#X obj 70 111 mod 12;
#X obj 70 135 sel 0 1 2 3 4 5 6 7 8 9 10 11;
#X msg 246 170 A;
#X msg 300 170 B;
#X msg 192 170 G;
#X msg 3 170 C;
#X msg 57 170 D;
#X msg 111 170 E;
#X msg 138 170 F;
#X obj 204 1 inlet;
#X obj 329 115 div 12;
#X obj 204 79 t f f;
#X text 334 190 -> Numero de l'octave;
#X text 213 64 -> Numero MIDI de la note (69 = A3 = 440Hz);
#X msg 260 260 label \$1;
#X obj 260 283 outlet;
#X msg 30 170 Db;
#X msg 84 170 Eb;
#X msg 165 170 Gb;
#X msg 219 170 Ab;
#X msg 273 170 Bb;
#X text 369 78 (70 = A#3 = Bb3);
#X obj 260 238 symbol;
#X obj 260 213 sprintf %s%d;
#X text 11 231 Impossible d'afficher # dans un label;
#X text 11 243 donc j'affiche b;
#X obj 204 51 int;
#X text 255 23 -> pour corriger certaines erreurs de calcul;
#X obj 329 144 - 12;
#X text 255 35 et le pb du passage a zero de mod 12;
#X obj 204 25 + 120.5;
#X connect 0 0 1 0;
#X connect 1 0 5 0;
#X connect 1 1 16 0;
#X connect 1 2 6 0;
#X connect 1 3 17 0;
#X connect 1 4 7 0;
#X connect 1 5 8 0;
#X connect 1 6 18 0;
#X connect 1 7 4 0;
#X connect 1 8 19 0;
#X connect 1 9 2 0;
#X connect 1 10 20 0;
#X connect 1 11 3 0;
#X connect 2 0 23 0;
#X connect 3 0 23 0;
#X connect 4 0 23 0;
#X connect 5 0 23 0;
#X connect 6 0 23 0;
#X connect 7 0 23 0;
#X connect 8 0 23 0;
#X connect 9 0 30 0;
#X connect 10 0 28 0;
#X connect 11 0 0 0;
#X connect 11 1 10 0;
#X connect 14 0 15 0;
#X connect 16 0 23 0;
#X connect 17 0 23 0;
#X connect 18 0 23 0;
#X connect 19 0 23 0;
#X connect 20 0 23 0;
#X connect 22 0 14 0;
#X connect 23 0 22 0;
#X connect 26 0 11 0;
#X connect 28 0 23 1;
#X connect 30 0 26 0;
#X restore 87 49 pd pitchb-11-2010;
#X obj 103 100 hsl 90 18 0 127 0 0 \$0-A \$0-B B4 12 9 0 14 -208064
-208064 -1 0 1;
#X obj 163 103 cnv 5 10 10 empty ColorAmpli Note 0 7 1 14 -208064 -1
0;
#X obj 101 101 cnv 4 10 4 empty empty empty 20 12 0 14 -260097 -66577
0;
#X obj 224 93 cnv 15 41 30 empty empty empty 20 12 0 14 -24198 -66577
0;
#N canvas 350 196 308 136 ?? 0;
#X obj -9 87 cnv 15 300 38 empty empty empty 20 12 0 14 -224896 -66577
0;
#X obj -9 10 cnv 18 300 70 empty empty ARGOPdMiniModules 1 10 1 14
-4033 -1 1.04858e+06;
#X obj 9 29 cnv 10 10 10 empty empty Gerard 0 5 1 9 -4033 -1 1.04858e+06
;
#X obj 40 29 cnv 10 10 10 empty empty Paresys 0 5 1 9 -4033 -1 1.04858e+06
;
#X text -8 89 Construit sous / Build under Pd 0.42.5-extended;
#X obj 39 105 pddplink http://puredata.info/downloads;
#X obj 3 42 pddplink http://pagesperso-orange.fr/Paresys/ARGOPd/;
#X obj 3 57 pddplink http://gerard.paresys.free.fr/ARGOPd/;
#X restore 228 100 pd ??;
#X connect 0 0 4 0;
#X connect 3 0 0 0;
#X connect 4 0 5 0;
#X coords 0 -1 1 1 95 18 2 100 100;
#X restore -112 91 pd ARGO;
#X text -233 -195 Sonification d'un fichier texte;
#X text -232 -180 Lettre A -> Code ASCII = 65 -> Code MIDI Note = 65
-> F3;
#X text -232 -167 Lettre Z -> Code ASCII = 90 -> Code MIDI Note = 90
-> Gb5;
#X obj 81 227 pddp/pddplink http://fr.wikipedia.org/wiki/Protéine;
#X obj 81 239 pddp/pddplink http://fr.wikipedia.org/wiki/Acide_aminé
;
#X obj 81 250 pddp/pddplink http://www.uniprot.org/uniprot/P04156;
#X text 80 170 Prion.txt est un fichier au format texte constitué de
253 lettres majuscules correspondant à la séquence des 253 acides aminés
codant une protéine: le prion humain. Il y a 22 acides aminés différents
notés: ACDEFGHIKLMNOPQRSTUVWY.;
#X obj 68 36 tof/to_ascii_code;
#N canvas 289 86 705 490 ARGO 0;
#X obj 302 103 cnv 10 20 10 empty empty Text 1 5 1 14 -262144 -1 1.04858e+06
;
#X obj 8 88 openpanel;
#X msg 43 144 set \$1;
#X obj 198 39 loadbang;
#X obj 6 231 list2symbol;
#X obj 106 113 hradio 14 1 0 20 empty empty empty 0 6 0 8 -260097 -260097
-260097 0;
#X obj 8 66 bang;
#X text 400 113 <- Click the name to change;
#X symbolatom 101 113 49 0 0 0 - - -;
#X obj 30 174 cnv 15 400 50 empty empty empty 20 12 0 14 -260097 -66577
0;
#X text 32 173 Nom du fichier / File name;
#X text 432 182 <- Ajouter ../ devant le nom du fichier \; pour remonter
d'un dossier;
#X obj 570 45 cnv 15 60 30 empty empty empty 20 12 0 14 -24198 -66577
0;
#N canvas 447 110 428 226 Help 0;
#X obj 11 -39 cnv 15 400 100 empty empty empty 20 12 0 14 -233017 -66577
0;
#X text 16 -37 Citation;
#X text 10 -95 MM Text;
#X text 21 -79 Lit un fichier texte ligne par ligne et caractère par
caractère;
#X text 35 -22 The textfile object reads and writes text files to and
from memory. You can read a file and output sequential lines as lists
\, or collect lines and write them out.;
#X restore 577 51 pd Help;
#X obj 9 108 t b b s;
#X obj 388 148 bng 12 50 20 0 \$0-A \$0-B empty 14 6 1 9 -262144 -1
-1;
#X obj 389 156 cnv 4 10 4 empty empty empty 20 12 0 14 -260097 -66577
0;
#X obj 383 445 cnv 15 240 24 empty empty empty 20 12 0 14 -261682 -66577
0;
#X text 433 443 -> Bang à la fin du fichier;
#X text 434 453 -> Bang at the end of the file;
#X obj 388 449 outlet;
#X obj 87 449 outlet;
#X obj 101 156 cnv 4 10 4 empty empty empty 20 12 0 14 -260097 -66577
0;
#X obj 152 321 textfile;
#X msg 200 282 rewind;
#X msg 75 285 read \$1 cr;
#X obj 6 255 t b b a;
#X obj 78 345 tosymbol;
#X msg 50 367 set \$1;
#X symbolatom 100 129 49 0 0 0 - - -;
#X obj 152 100 bng 12 250 50 0 \$0-A \$0-B Begin 14 7 1 9 -262144 -1
-1;
#X obj 100 101 bng 12 250 50 0 \$0-A \$0-B Line 14 7 1 9 -262144 -1
-1;
#X obj 101 101 cnv 4 10 4 empty empty empty 20 12 0 14 -260097 -66577
0;
#X obj 0 36 cnv 15 170 24 empty empty empty 20 12 0 14 -261682 -66577
0;
#X text 0 33 N'importe quel message ->;
#X obj 154 39 inlet;
#X text 404 129 <- Ligne;
#X msg -20 135 set ...;
#X msg 154 284 print;
#X obj 218 100 bng 12 250 50 0 \$0-A \$0-B Print-Console 14 7 1 9 -262144
-1 -1;
#X obj 212 449 outlet;
#X symbolatom 229 145 2 0 0 0 - - -;
#X obj 148 428 tosymbol;
#X obj 212 402 moocow/bytes2any 128 0;
#X obj 388 101 bng 12 250 50 0 \$0-A \$0-B Character -43 7 1 9 -262144
-1 -1;
#X obj 389 101 cnv 4 10 4 empty empty empty 20 12 0 14 -260097 -66577
0;
#X obj 252 347 spigot 1;
#X msg 293 317 0;
#X msg 332 316 1;
#X msg 325 242 0;
#X msg 359 241 1;
#X obj 292 268 spigot 0;
#X obj 293 291 t b b b;
#X obj 212 377 mrpeach/str drip trip 10 13;
#X obj 253 241 t b b b;
#X obj 244 156 cnv 4 10 4 empty empty empty 20 12 0 14 -260097 -66577
0;
#X text 30 43 Input any message ->;
#X obj 258 36 cnv 15 170 24 empty empty empty 20 12 0 14 -261682 -66577
0;
#X text 258 33 N'importe quel message ->;
#X text 288 43 Input any message ->;
#X obj 414 39 inlet;
#X text 75 464 Ligne/Line;
#X text 167 466 Caractère/Character;
#X obj 621 455 cnv 15 48 25 empty empty empty 20 12 0 14 -24198 -66577
0;
#N canvas 350 196 308 136 ??? 0;
#X obj -6 87 cnv 15 300 38 empty empty empty 20 12 0 14 -224896 -66577
0;
#X obj -6 10 cnv 18 300 70 empty empty ARGOPdMiniModules 3 10 1 14
-4033 -1 1.04858e+06;
#X obj 13 31 cnv 10 10 10 empty empty Gerard 0 5 1 11 -4033 -1 1.04858e+06
;
#X obj 55 30 cnv 10 10 10 empty empty Paresys 0 5 1 11 -4033 -1 1.04858e+06
;
#X text -1 89 Construit sous / Build under Pd 0.42.5-extended;
#X obj 6 43 pddp/pddplink http://pagesperso-orange.fr/Paresys/ARGOPd/
;
#X obj 6 58 pddp/pddplink http://gerard.paresys.free.fr/ARGOPd/;
#X obj 46 105 pddp/pddplink http://puredata.info/downloads;
#X restore 625 459 pd ???;
#X obj 418 318 t b b;
#X msg 34 192 Prion.txt;
#X text 311 83 28 2 2012-3;
#X connect 1 0 14 0;
#X connect 2 0 66 0;
#X connect 3 0 66 0;
#X connect 4 0 8 0;
#X connect 4 0 26 0;
#X connect 5 0 6 0;
#X connect 6 0 1 0;
#X connect 14 0 37 0;
#X connect 14 1 66 0;
#X connect 14 2 2 0;
#X connect 15 0 20 0;
#X connect 23 0 21 0;
#X connect 23 0 27 0;
#X connect 23 0 53 0;
#X connect 23 1 15 0;
#X connect 24 0 23 0;
#X connect 25 0 23 0;
#X connect 26 1 30 0;
#X connect 26 2 25 0;
#X connect 27 0 28 0;
#X connect 28 0 29 0;
#X connect 30 0 24 0;
#X connect 30 0 65 0;
#X connect 31 0 23 0;
#X connect 35 0 31 0;
#X connect 37 0 29 0;
#X connect 38 0 23 0;
#X connect 39 0 38 0;
#X connect 42 0 41 0;
#X connect 43 0 42 0;
#X connect 43 0 40 0;
#X connect 44 0 54 0;
#X connect 46 0 53 0;
#X connect 47 0 46 1;
#X connect 48 0 46 1;
#X connect 49 0 51 1;
#X connect 50 0 51 1;
#X connect 51 0 52 0;
#X connect 52 0 47 0;
#X connect 52 1 49 0;
#X connect 52 2 31 0;
#X connect 53 0 43 0;
#X connect 53 1 65 0;
#X connect 54 0 48 0;
#X connect 54 1 46 0;
#X connect 54 2 51 0;
#X connect 60 0 44 0;
#X connect 65 0 50 0;
#X connect 65 1 47 0;
#X connect 66 0 4 0;
#X coords 0 -1 1 1 300 61 2 100 100;
#X restore -78 -47 pd ARGO;
#X obj 351 -144 switch~;
#N canvas 608 166 228 173 ARGOnOff 0;
#X obj 100 100 tgl 18 1 \$0-SendOnOff \$0-ReceiveOnOff On/Off 20 11
1 14 -4033 -1 -1 1 1;
#X obj 99 10 loadbang;
#X msg 99 33 \; pd dsp 1;
#X obj 100 129 outlet;
#X text -50 99 Audio On/Off du patch ->;
#X text -22 45 Audio General On ->;
#X text 107 82 17 3 2010;
#X connect 0 0 3 0;
#X connect 1 0 2 0;
#X coords 0 -1 1 1 65 18 2 100 100;
#X restore 351 -162 pd ARGOnOff;
#X text 356 -178 V;
#X text 356 -185 |;
#X text 344 -196 On/Off Patch;
#X text 374 -184 (Audio);
#X text 82 265 On peut entendre la répétition 4 fois de la séquence:
GGGWGQPH.;
#X obj 160 -103 cnv 15 52 25 empty empty empty 20 12 0 14 -24198 -66577
0;
#X text 161 -100 Start ->;
#X obj -232 -154 pddp/pddplink http://fr.wikipedia.org/wiki/American_Standard_Code_for_Information_Interchange
;
#X obj -231 -142 pddp/pddplink http://fr.wikipedia.org/wiki/Musical_Instrument_Digital_Interface
;
#X obj -54 -83 cnv 15 70 25 empty empty empty 20 12 0 14 -24198 -66577
0;
#X text -54 -80 Début/Begin;
#X text -24 -62 V;
#X text -24 -69 |;
#X obj 226 -4 cnv 15 180 25 empty empty empty 20 12 0 14 -24198 -66577
0;
#X text 224 -5 -> Bang à la fin du fichier;
#X text 224 4 -> Bang at the end of the file;
#N canvas 519 118 604 224 ARGO 0;
#X obj 88 36 inlet~;
#X text -270 51 L'extension .wav est ajoutée au nom du fichier automatiquement
;
#X obj 103 100 hsl 161 17 0 127 0 0 \$0-A \$0-B Record 103 10 1 14
-261299 -261299 -1 0 1;
#X obj 101 101 cnv 4 10 4 empty empty empty 20 12 0 14 -1 -66577 0
;
#X obj 112 100 nbx 4 17 0 9999 0 0 \$0-A ColorTime sec 59 9 1 15 -208064
-1 -1 0 256;
#X obj 282 181 cnv 15 41 30 empty empty empty 20 12 0 14 -24198 -66577
0;
#N canvas 350 196 308 136 ?? 0;
#X obj -9 87 cnv 15 300 38 empty empty empty 20 12 0 14 -224896 -66577
0;
#X obj -9 10 cnv 18 300 70 empty empty ARGOPdMiniModules 1 10 1 14
-4033 -1 1.04858e+06;
#X obj 9 29 cnv 10 10 10 empty empty Gerard 0 5 1 9 -4033 -1 1.04858e+06
;
#X obj 40 29 cnv 10 10 10 empty empty Paresys 0 5 1 9 -4033 -1 1.04858e+06
;
#X text -8 89 Construit sous / Build under Pd 0.42.5-extended;
#X obj 39 105 pddplink http://puredata.info/downloads;
#X obj 3 42 pddplink http://pagesperso-orange.fr/Paresys/ARGOPd/;
#X obj 3 57 pddplink http://gerard.paresys.free.fr/ARGOPd/;
#X restore 286 188 pd ??;
#X text -271 87 Clic n'importe où pour commencer un enregistrement
Audio -> Clic encore pour arrêter l'enregistrement;
#X text -170 114 Click anywhere to start recording Audio ->;
#X text -171 126 Click again to stop recording;
#X text 121 122 Hslider caché transformé en bouton;
#X text 160 81 6 2 2011;
#N canvas 415 66 351 399 record2 0;
#X obj 136 95 sel 0 1;
#X msg 171 260 start;
#X msg 107 259 stop;
#X msg 155 150 open \$1;
#X obj 155 126 savepanel;
#X obj 165 203 delay 1000;
#X obj 245 323 float;
#X obj 291 322 + 1;
#X obj 223 295 metro 1000;
#X msg 291 296 -1;
#X msg 11 257 0;
#X msg 42 257 1;
#X obj 66 210 t b b;
#X obj 165 229 t b b b b;
#N canvas 317 143 290 366 CouleurRecord2 0;
#X obj 122 -19 +;
#X obj 122 37 +;
#X obj 61 -75 * -65536;
#X obj 117 -75 * -256;
#X obj 163 -77 * -1;
#X obj 122 68 - 1;
#X obj 115 -202 inlet;
#X text 77 -97 R;
#X text 123 -99 G;
#X text 172 -98 B;
#X obj 122 123 outlet;
#X text 170 -169 Rouge;
#X msg 134 -121 255;
#X msg 167 -121 0;
#X obj 115 -178 sel 0 1;
#X text 56 -170 Rose;
#X msg 73 -121 200;
#X msg 40 -121 252;
#X obj 134 -148 t b b b;
#X msg 198 -121 0;
#X msg 104 -121 200;
#X obj 40 -148 t b b b;
#X msg 122 96 color \$1 \$1 -1;
#X connect 0 0 1 1;
#X connect 1 0 5 0;
#X connect 2 0 1 0;
#X connect 3 0 0 0;
#X connect 4 0 0 1;
#X connect 5 0 22 0;
#X connect 6 0 14 0;
#X connect 12 0 2 0;
#X connect 13 0 3 0;
#X connect 14 0 21 0;
#X connect 14 1 18 0;
#X connect 16 0 3 0;
#X connect 17 0 2 0;
#X connect 18 0 12 0;
#X connect 18 1 13 0;
#X connect 18 2 19 0;
#X connect 19 0 4 0;
#X connect 20 0 4 0;
#X connect 21 0 17 0;
#X connect 21 1 16 0;
#X connect 21 2 20 0;
#X connect 22 0 10 0;
#X restore 25 326 pd CouleurRecord2;
#X obj 136 75 tgl 15 0 \$0-A \$0-B empty 19 9 1 12 -262144 -258113
-1 0 1;
#X obj 136 30 b;
#X obj 136 52 delay 200;
#X obj 136 8 inlet;
#X obj 25 356 outlet;
#X text 22 372 Couleur;
#X obj 291 356 outlet;
#X text 288 372 Compteur;
#X obj 155 356 outlet;
#X text 152 372 writesf;
#X obj 199 176 t b b;
#X msg 72 33 0;
#X obj 72 8 loadbang;
#X msg 260 124 set 0;
#X msg 261 173 set 1;
#X obj 261 149 b;
#X connect 0 0 12 0;
#X connect 0 1 4 0;
#X connect 0 1 28 0;
#X connect 1 0 23 0;
#X connect 2 0 8 0;
#X connect 2 0 23 0;
#X connect 3 0 23 0;
#X connect 3 0 25 0;
#X connect 4 0 3 0;
#X connect 4 0 30 0;
#X connect 5 0 13 0;
#X connect 6 0 7 0;
#X connect 7 0 6 1;
#X connect 7 0 21 0;
#X connect 8 0 6 0;
#X connect 9 0 7 0;
#X connect 10 0 14 0;
#X connect 11 0 14 0;
#X connect 12 0 10 0;
#X connect 12 1 2 0;
#X connect 13 0 11 0;
#X connect 13 1 1 0;
#X connect 13 2 8 0;
#X connect 13 3 9 0;
#X connect 14 0 19 0;
#X connect 15 0 0 0;
#X connect 16 0 17 0;
#X connect 17 0 15 0;
#X connect 18 0 16 0;
#X connect 25 0 5 0;
#X connect 25 1 9 0;
#X connect 26 0 15 0;
#X connect 27 0 26 0;
#X connect 28 0 15 0;
#X connect 29 0 15 0;
#X connect 30 0 29 0;
#X restore 56 147 pd record2;
#X text 91 19 Input;
#X text -271 34 Enregistreur de fichier audio wav à 1 canal (mono)
;
#X text -271 19 Mono wav file format recorder;
#X obj 171 198 writesf~ 1;
#X connect 0 0 16 0;
#X connect 2 0 12 0;
#X connect 12 0 2 0;
#X connect 12 1 16 0;
#X connect 12 2 4 0;
#X coords 0 -1 1 1 166 17 1 100 100;
#X restore -204 287 pd ARGO;
#X connect 8 0 22 0;
#X connect 9 0 13 0;
#X connect 10 0 31 1;
#X connect 11 0 10 0;
#X connect 13 0 14 0;
#X connect 13 0 17 0;
#X connect 13 0 17 1;
#X connect 13 0 50 0;
#X connect 30 0 8 0;
#X connect 30 0 9 0;
#X connect 31 1 30 0;
#X connect 31 2 11 0;
#X connect 33 0 32 0;
