#N canvas 468 22 637 620 10;
#X obj -38 -213 cnv 15 15 15 empty empty ExMM36g-GEMDetectMovement2-Video.pd
0 8 1 14 -262144 -1 0;
#X text 493 56 <- Clic zero;
#N canvas 411 36 480 582 ARGO 0;
#X obj 101 101 cnv 10 249 95 empty ColorForm empty 20 12 0 14 -228856
-1 1.04858e+06;
#X obj 101 101 cnv 4 10 4 empty empty empty 20 12 0 14 -128992 -66577
0;
#X obj 224 104 cnv 10 20 10 empty ColorForm GEM-CenterGravity 1 5 1
14 -228856 -1 1.04858e+06;
#X text 84 83 gemlist;
#X obj 96 -154 inlet;
#X obj 39 315 cnv 15 430 80 empty empty empty 20 12 0 14 -233017 -66577
0;
#X text 40 317 [pix_blob];
#X text 60 332 get the "center of gravity" of an image;
#X obj 99 -75 - 0.5;
#X obj 58 -31 - 128;
#X obj 85 -52 f;
#X obj 99 -97 change;
#X obj 96 -131 pix_blob 4;
#X obj 278 140 bng 12 250 50 0 \$0-A \$0-B Zero 15 7 1 9 -262144 -1
-1;
#X obj 101 192 cnv 4 10 4 empty empty empty 20 12 0 14 -1 -66577 0
;
#X obj 340 192 cnv 4 10 4 empty empty empty 20 12 0 14 -1 -66577 0
;
#X obj 225 192 cnv 4 10 4 empty empty empty 20 12 0 14 -1 -66577 0
;
#X obj 92 291 outlet~;
#X obj 210 290 outlet~;
#X obj 331 289 outlet~;
#X obj 270 121 nbx 4 12 0 9999 0 1 \$0-A \$0-B empty 0 0 1 9 -228856
-1 -1 38 256;
#X obj 309 123 cnv 10 8 8 empty empty Gliss(ms) 0 4 1 9 -228856 -1
0;
#X obj 191 -170 t b b b b b b;
#X obj 220 152 hsl 129 12 -1 1 0 1 \$0-A ColorForm empty 0 6 1 9 -228856
-1 -1 6219 0;
#X obj 91 269 line~;
#X obj 113 42 int;
#X obj 86 20 t f b;
#X obj 86 63 line;
#X text 42 350 Pd-extended -> Browser ->;
#X text 60 363 examples/Gem/04.Video/03.movement_detection.pd;
#X text 59 375 examples/Gem/04.pix/23.gravity.pd;
#X obj 118 247 int;
#X obj 91 225 t f b;
#X text 102 197 X;
#X text 226 197 Y;
#X text 334 196 Size;
#X obj 185 135 cnv 5 8 8 empty empty 4 0 4 1 9 -228856 -1 0;
#X obj 173 135 cnv 5 8 8 empty empty 2 0 4 1 9 -228856 -1 0;
#X obj 197 135 cnv 5 8 8 empty empty 8 0 4 1 9 -228856 -1 0;
#X obj 125 143 cnv 5 8 8 empty empty 8 0 4 1 9 -228856 -1 0;
#X obj 121 152 hradio 12 1 1 7 \$0-A \$0-B empty 36 -5 1 9 -262144
-1 -1 5;
#X obj 161 135 cnv 5 8 8 empty empty 1 0 4 1 9 -228856 -1 0;
#X obj 205 152 tgl 12 1 \$0-A \$0-B empty 0 0 1 9 -262144 -1 -1 0 1
;
#X obj 205 135 cnv 10 8 8 empty empty Inv 0 4 1 9 -228856 -1 0;
#X obj 124 132 cnv 5 8 6 empty empty _ 0 4 1 9 -262144 -1 0;
#X obj 137 143 cnv 5 8 8 empty empty 4 0 4 1 9 -228856 -1 0;
#X obj 137 132 cnv 5 8 6 empty empty _ 0 4 1 9 -262144 -1 0;
#X obj 149 143 cnv 5 8 8 empty empty 2 0 4 1 9 -228856 -1 0;
#X obj 149 132 cnv 5 8 6 empty empty _ 0 4 1 9 -262144 -1 0;
#X obj 149 131 cnv 5 8 8 empty empty 1 0 4 1 9 -228856 -1 0;
#X obj 124 131 cnv 5 8 8 empty empty 1 0 4 1 9 -228856 -1 0;
#X obj 137 131 cnv 5 8 8 empty empty 1 0 4 1 9 -228856 -1 0;
#X obj 110 155 cnv 10 8 8 empty empty X 0 4 1 9 -228856 -1 0;
#X obj 110 167 cnv 10 8 8 empty empty Y 0 4 1 9 -228856 -1 0;
#X obj 102 178 cnv 10 8 8 empty empty Size 0 4 1 9 -228856 -1 0;
#X obj 86 -4 * 1;
#N canvas 360 174 219 279 GainInv 0;
#X obj 25 118 pow 2;
#X msg 25 95 2;
#X obj 25 72 t b f;
#X obj 57 144 * 1;
#X obj 82 50 * -2;
#X obj 83 70 + 1;
#X obj 84 91 t b f;
#X obj 25 16 inlet;
#X obj 83 17 inlet;
#X obj 57 170 outlet;
#X obj 25 48 - 5;
#X connect 0 0 3 0;
#X connect 1 0 0 0;
#X connect 2 0 1 0;
#X connect 2 1 0 1;
#X connect 3 0 9 0;
#X connect 4 0 5 0;
#X connect 5 0 6 0;
#X connect 6 0 3 0;
#X connect 6 1 3 1;
#X connect 7 0 10 0;
#X connect 8 0 4 0;
#X connect 10 0 2 0;
#X restore 112 -52 pd GainInv;
#X obj 112 -29 t b f;
#X obj 121 164 hradio 12 1 1 7 \$0-A \$0-B empty 36 -5 1 9 -262144
-1 -1 5;
#X obj 205 164 tgl 12 1 \$0-A \$0-B empty 0 0 1 9 -262144 -1 -1 0 1
;
#X obj 121 176 hradio 12 1 1 7 \$0-A \$0-B empty 36 -5 1 9 -262144
-1 -1 6;
#X obj 205 176 tgl 12 1 \$0-A \$0-B empty 0 0 1 9 -262144 -1 -1 0 1
;
#X obj 214 -74 - 0.5;
#X obj 173 -30 - 128;
#X obj 200 -51 f;
#X obj 214 -96 change;
#X obj 220 164 hsl 129 12 -1 1 0 1 \$0-A ColorForm empty 0 6 1 9 -228856
-1 -1 8147 0;
#X obj 228 43 int;
#X obj 201 21 t f b;
#X obj 201 64 line;
#X obj 201 -3 * 1;
#N canvas 360 174 219 279 GainInv 0;
#X obj 25 118 pow 2;
#X msg 25 95 2;
#X obj 25 72 t b f;
#X obj 57 144 * 1;
#X obj 82 50 * -2;
#X obj 83 70 + 1;
#X obj 84 91 t b f;
#X obj 25 16 inlet;
#X obj 83 17 inlet;
#X obj 57 170 outlet;
#X obj 25 48 - 5;
#X connect 0 0 3 0;
#X connect 1 0 0 0;
#X connect 2 0 1 0;
#X connect 2 1 0 1;
#X connect 3 0 9 0;
#X connect 4 0 5 0;
#X connect 5 0 6 0;
#X connect 6 0 3 0;
#X connect 6 1 3 1;
#X connect 7 0 10 0;
#X connect 8 0 4 0;
#X connect 10 0 2 0;
#X restore 227 -51 pd GainInv;
#X obj 227 -28 t b f;
#X obj 210 268 line~;
#X obj 237 246 int;
#X obj 210 224 t f b;
#X obj 319 -75 - 0.5;
#X obj 278 -31 - 128;
#X obj 305 -52 f;
#X obj 319 -97 change;
#X obj 220 176 hsl 129 12 -1 1 0 1 \$0-A ColorForm empty 0 6 1 9 -228856
-1 -1 6400 0;
#X obj 333 42 int;
#X obj 306 20 t f b;
#X obj 306 63 line;
#X obj 306 -4 * 1;
#N canvas 360 174 219 279 GainInv 0;
#X obj 25 118 pow 2;
#X msg 25 95 2;
#X obj 25 72 t b f;
#X obj 57 144 * 1;
#X obj 82 50 * -2;
#X obj 83 70 + 1;
#X obj 84 91 t b f;
#X obj 25 16 inlet;
#X obj 83 17 inlet;
#X obj 57 170 outlet;
#X obj 25 48 - 5;
#X connect 0 0 3 0;
#X connect 1 0 0 0;
#X connect 2 0 1 0;
#X connect 2 1 0 1;
#X connect 3 0 9 0;
#X connect 4 0 5 0;
#X connect 5 0 6 0;
#X connect 6 0 3 0;
#X connect 6 1 3 1;
#X connect 7 0 10 0;
#X connect 8 0 4 0;
#X connect 10 0 2 0;
#X restore 332 -52 pd GainInv;
#X obj 332 -29 t b f;
#X obj 331 267 line~;
#X obj 358 245 int;
#X obj 331 223 t f b;
#X obj 146 103 cnv 10 8 8 empty empty R 0 4 1 9 -228856 -1 0;
#X obj 158 103 cnv 10 8 8 empty empty V 0 4 1 9 -228856 -1 0;
#X obj 170 103 cnv 10 8 8 empty empty B 0 4 1 9 -228856 -1 0;
#X obj 192 114 cnv 10 8 8 empty empty Alpha 0 4 1 9 -228856 -1 0;
#X obj 109 114 cnv 10 8 8 empty empty Grey 0 4 1 9 -228856 -1 0;
#X obj 130 112 hradio 12 1 1 5 \$0-A \$0-B empty 36 -5 1 9 -262144
-1 -1 4;
#X obj 347 -157 loadbang;
#X obj 345 -132 delay 2000;
#X text 355 102 7 12 2008;
#X connect 4 0 12 0;
#X connect 8 0 10 1;
#X connect 8 0 9 0;
#X connect 9 0 55 0;
#X connect 10 0 9 1;
#X connect 11 0 8 0;
#X connect 12 1 11 0;
#X connect 12 2 65 0;
#X connect 12 3 79 0;
#X connect 13 0 22 0;
#X connect 20 0 25 0;
#X connect 20 0 31 0;
#X connect 20 0 74 0;
#X connect 20 0 88 0;
#X connect 20 0 67 0;
#X connect 20 0 81 0;
#X connect 22 0 9 0;
#X connect 22 1 10 0;
#X connect 22 2 63 0;
#X connect 22 3 64 0;
#X connect 22 4 77 0;
#X connect 22 5 78 0;
#X connect 23 0 32 0;
#X connect 24 0 17 0;
#X connect 25 0 27 1;
#X connect 26 0 27 0;
#X connect 26 1 25 0;
#X connect 27 0 23 0;
#X connect 31 0 24 1;
#X connect 32 0 24 0;
#X connect 32 1 31 0;
#X connect 40 0 56 0;
#X connect 42 0 56 1;
#X connect 55 0 26 0;
#X connect 56 0 57 0;
#X connect 57 0 55 0;
#X connect 57 1 55 1;
#X connect 58 0 71 0;
#X connect 59 0 71 1;
#X connect 60 0 85 0;
#X connect 61 0 85 1;
#X connect 62 0 64 1;
#X connect 62 0 63 0;
#X connect 63 0 70 0;
#X connect 64 0 63 1;
#X connect 65 0 62 0;
#X connect 66 0 75 0;
#X connect 67 0 69 1;
#X connect 68 0 69 0;
#X connect 68 1 67 0;
#X connect 69 0 66 0;
#X connect 70 0 68 0;
#X connect 71 0 72 0;
#X connect 72 0 70 0;
#X connect 72 1 70 1;
#X connect 73 0 18 0;
#X connect 74 0 73 1;
#X connect 75 0 73 0;
#X connect 75 1 74 0;
#X connect 76 0 78 1;
#X connect 76 0 77 0;
#X connect 77 0 84 0;
#X connect 78 0 77 1;
#X connect 79 0 76 0;
#X connect 80 0 89 0;
#X connect 81 0 83 1;
#X connect 82 0 83 0;
#X connect 82 1 81 0;
#X connect 83 0 80 0;
#X connect 84 0 82 0;
#X connect 85 0 86 0;
#X connect 86 0 84 0;
#X connect 86 1 84 1;
#X connect 87 0 19 0;
#X connect 88 0 87 1;
#X connect 89 0 87 0;
#X connect 89 1 88 0;
#X connect 95 0 12 1;
#X connect 96 0 97 0;
#X connect 97 0 13 0;
#X coords 0 -1 1 1 251 97 1 100 100;
#X restore 241 21 pd ARGO;
#N canvas 404 201 221 198 ARGO 0;
#X obj 115 105 cnv 10 20 10 empty empty PinkNoise 1 5 1 14 -262144
-1 1.04858e+06;
#X obj 101 113 cnv 4 10 4 empty empty empty 20 12 0 14 -1 -66577 0
;
#X obj 90 155 outlet~;
#X obj 90 124 pink~;
#X text 16 55 pink noise with -3 dB per octave;
#X text 7 41 pink~ (iemlib);
#X connect 3 0 2 0;
#X coords 0 -1 1 1 95 18 2 100 100;
#X restore 159 135 pd ARGO;
#N canvas 89 65 442 316 ARGO 0;
#X obj 101 101 cnv 20 215 34 empty ColorForm empty 20 12 0 14 -188398
-1 1.04858e+06;
#X obj 248 104 cnv 10 65 10 empty ColorForm Flt-BP 1 5 1 14 -188398
-1 1.04858e+06;
#X obj 101 131 cnv 4 10 4 empty empty empty 20 12 0 14 -1 -66577 0
;
#X obj 203 101 cnv 4 10 4 empty empty empty 20 12 0 14 -1728 -66577
0;
#X obj 306 131 cnv 4 10 4 empty empty empty 0 0 0 9 -1 -66577 0;
#X obj 87 44 inlet~;
#X obj 209 289 outlet~;
#X obj 271 289 outlet~;
#X obj 100 106 nbx 7 12 0 20000 0 1 \$0-A ColorTime Hz 60 7 1 9 -208064
-1 -1 329.628 256;
#X obj 188 44 inlet~;
#X obj 297 44 inlet~;
#X obj 101 101 cnv 4 10 4 empty empty empty 20 12 0 14 -1 -66577 0
;
#X obj 306 101 cnv 4 10 4 empty empty empty 20 12 0 14 -3522 -66577
0;
#X obj 87 180 vcf~;
#X obj 149 203 vcf~;
#X obj 209 232 vcf~;
#X obj 271 262 vcf~;
#X obj 87 289 outlet~;
#X obj 149 289 outlet~;
#X obj 241 131 cnv 4 10 4 empty empty empty 0 0 0 9 -1 -66577 0;
#X obj 166 131 cnv 4 10 4 empty empty empty 0 0 0 9 -1 -66577 0;
#X text 179 84 frequency;
#X text 6 4 Controlled bandpass filter;
#X text 80 136 1 filter;
#X text 145 136 2 filters;
#X text 218 136 3 filters;
#X text 286 137 4 filters;
#X text 282 81 Resonance;
#X text 7 18 Filtre Passe-bande controllable;
#X obj 103 118 hsl 127 12 0 1 0 0 \$0-A ColorTime empty 0 7 1 9 -262144
-1 -1 5800 0;
#X obj 103 118 hsl 127 12 0 1 0 0 \$0-A ColorTime E3 0 7 1 9 -208064
-1728 -1 6041 0;
#X obj 234 118 hsl 81 12 0 1 0 1 \$0-A ColorForm empty 0 7 1 9 -262144
-1 -1 2000 0;
#X obj 234 118 hsl 81 12 0 1 0 1 \$0-A ColorForm 25 0 7 1 9 -188398
-3522 -1 2000 0;
#X text 259 17 2 HSLIDER superposés;
#X text 258 6 ATTENTION;
#X obj 332 221 cnv 15 41 30 empty empty empty 20 12 0 14 -24198 -66577
0;
#N canvas 350 196 381 103 ? 0;
#X obj 5 49 cnv 15 370 38 empty empty empty 20 12 0 14 -224896 -66577
0;
#X text 6 65 Voir/Look at: http://puredata.info/downloads;
#X obj 4 12 cnv 18 370 30 empty empty ARGOPdMiniModules 1 10 1 14 -4033
-1 1.04858e+06;
#X obj 7 31 cnv 10 10 10 empty empty Gerard 0 5 1 9 -4033 -1 1.04858e+06
;
#X obj 38 31 cnv 10 10 10 empty empty Paresys 0 5 1 9 -4033 -1 1.04858e+06
;
#X obj 175 20 cnv 10 10 10 empty empty http://pagesperso-orange.fr/Paresys/ARGOPd/
0 5 1 9 -4033 -1 1.04858e+06;
#X obj 175 31 cnv 10 10 10 empty empty http://gerard.paresys.free.fr/ARGOPd/
0 5 1 9 -4033 -1 1.04858e+06;
#X text 6 51 Construit sous / Build under Pd 0.41.4-extended;
#X restore 338 228 pd ?;
#N canvas 110 253 362 334 Freq-v5-sig- 0;
#X obj 297 156 ftom;
#X obj 135 204 mtof;
#X obj 210 73 +~;
#X obj 22 119 snapshot~;
#X obj 22 141 change;
#X msg 22 226 set \$1;
#X msg 136 226 set \$1;
#X obj 135 157 * 126;
#X obj 135 180 + 6;
#X obj 299 201 / 126;
#X obj 298 179 - 6;
#X obj 158 33 *~ 1.90476;
#X obj 227 6 inlet;
#X obj 297 6 inlet;
#X obj 48 253 outlet;
#X obj 136 253 outlet;
#X text 45 270 Hslider;
#X text 222 -20 Hslider;
#X obj 158 8 inlet~;
#X obj 22 64 metro 200;
#X obj 22 7 loadbang;
#X obj 135 129 change;
#X obj 299 253 outlet;
#X text 297 269 Hslider;
#X text 136 269 Number;
#X text 294 -10 Number;
#X text 50 282 Over;
#X text 302 280 Under;
#X text 227 -9 Under;
#N canvas 60 186 486 280 pitchb 0;
#X obj 75 79 mod 12;
#X obj 75 103 sel 0 1 2 3 4 5 6 7 8 9 10 11;
#X msg 251 138 A;
#X msg 305 138 B;
#X msg 197 138 G;
#X msg 8 138 C;
#X msg 62 138 D;
#X msg 116 138 E;
#X msg 143 138 F;
#X obj 209 8 inlet;
#X obj 334 83 div 12;
#X obj 334 112 - 2;
#X obj 209 47 t f f;
#X text 339 158 -> Numero de l'octave;
#X text 215 27 -> Numero MIDI de la note (69 = A3 = 440Hz);
#X msg 265 228 label \$1;
#X obj 265 251 outlet;
#X msg 35 138 Db;
#X msg 89 138 Eb;
#X msg 170 138 Gb;
#X msg 224 138 Ab;
#X msg 278 138 Bb;
#X text 371 41 (70 = A#3 = Bb3);
#X obj 265 206 symbol;
#X obj 265 181 sprintf %s%d;
#X connect 0 0 1 0;
#X connect 1 0 5 0;
#X connect 1 1 17 0;
#X connect 1 2 6 0;
#X connect 1 3 18 0;
#X connect 1 4 7 0;
#X connect 1 5 8 0;
#X connect 1 6 19 0;
#X connect 1 7 4 0;
#X connect 1 8 20 0;
#X connect 1 9 2 0;
#X connect 1 10 21 0;
#X connect 1 11 3 0;
#X connect 2 0 24 0;
#X connect 3 0 24 0;
#X connect 4 0 24 0;
#X connect 5 0 24 0;
#X connect 6 0 24 0;
#X connect 7 0 24 0;
#X connect 8 0 24 0;
#X connect 9 0 12 0;
#X connect 10 0 11 0;
#X connect 11 0 24 1;
#X connect 12 0 0 0;
#X connect 12 1 10 0;
#X connect 15 0 16 0;
#X connect 17 0 24 0;
#X connect 18 0 24 0;
#X connect 19 0 24 0;
#X connect 20 0 24 0;
#X connect 21 0 24 0;
#X connect 23 0 15 0;
#X connect 24 0 23 0;
#X restore 70 225 pd pitchb;
#X obj 203 226 clip~ 0 20000;
#X obj 203 204 mtof~;
#X obj 203 157 *~ 126;
#X obj 203 179 +~ 6;
#X obj 203 253 outlet~;
#X obj 81 8 r SendFluid;
#X connect 0 0 10 0;
#X connect 1 0 6 0;
#X connect 2 0 3 0;
#X connect 2 0 32 0;
#X connect 3 0 4 0;
#X connect 4 0 5 0;
#X connect 5 0 14 0;
#X connect 6 0 15 0;
#X connect 7 0 8 0;
#X connect 8 0 1 0;
#X connect 8 0 29 0;
#X connect 9 0 22 0;
#X connect 10 0 9 0;
#X connect 11 0 2 0;
#X connect 12 0 2 1;
#X connect 12 0 21 0;
#X connect 13 0 0 0;
#X connect 18 0 11 0;
#X connect 19 0 3 0;
#X connect 20 0 19 0;
#X connect 21 0 7 0;
#X connect 29 0 14 0;
#X connect 30 0 34 0;
#X connect 31 0 30 0;
#X connect 32 0 33 0;
#X connect 33 0 31 0;
#X connect 35 0 19 1;
#X restore -19 114 pd Freq-v5-sig-;
#X obj -10 52 cnv 15 60 30 empty empty empty 20 12 0 14 -24198 -66577
0;
#N canvas 161 113 422 363 Help 0;
#X text 14 258 Resonance = "Q" = filter sharpness = Coefficient of
Quality;
#X text 14 271 http://en.wikipedia.org/wiki/Q_factor;
#X text 15 283 http://fr.wikipedia.org/wiki/Facteur_de_qualité;
#X text 13 -16 Flt-BP = Filter BandPass = Filtre passe-bande;
#X text 13 313 La résonance est controlée seulement 100 fois par seconde
;
#X obj 8 57 cnv 15 400 200 empty empty empty 20 12 0 14 -233017 -66577
0;
#X text 27 88 vcf~ is like bp~ except that it takes an audio signal
to set center frequency \, which may thus change continuously in time.
The "Q" or filter sharpness is still only set by messages. More expensive
than bp~ in CPU time but more powerful too.;
#X text 27 73 vcf~ = voltage-controlled bandpass filter;
#X text 26 185 The left inlet is the incoming audio signal \, the middle
control input sets center frequency and the rigth input sets "Q".;
#X text 27 156 bp~ passes a sinusoid at the center frequency at unit
gain (approximately). Other frequencies are attenuated.;
#X text 12 59 Citation;
#X text 11 8 Sensibilitée de l'entrée de contrôle de la fréquence:
;
#X text 11 20 1 = 240 1/2 ton = 20 octaves;
#X restore -3 58 pd Help;
#X text 187 74 Center;
#N canvas 375 291 285 327 Q-Ctrl 0;
#X obj 73 278 line;
#X obj 11 9 loadbang;
#X msg 148 128 set \$1;
#X obj 149 57 +~;
#X obj 78 89 snapshot~;
#X obj 78 109 change;
#X obj 10 54 metro 10;
#X obj 76 215 + 1;
#X obj 75 236 clip 1 200;
#X msg 74 257 \$1 100;
#X obj 76 173 * 1;
#X obj 77 152 * 1;
#X obj 78 129 t f f f;
#X obj 73 300 outlet;
#X obj 75 194 * 200;
#X obj 149 88 snapshot~;
#X obj 149 108 change;
#X obj 219 11 inlet;
#X obj 148 300 outlet;
#X obj 149 11 inlet~;
#X msg 218 132 label \$1;
#X obj 218 110 tosymbol;
#X obj 218 88 * 100;
#X obj 67 54 metro 200;
#X obj 70 9 r SendFluid;
#X connect 0 0 13 0;
#X connect 1 0 6 0;
#X connect 1 0 23 0;
#X connect 2 0 18 0;
#X connect 3 0 4 0;
#X connect 3 0 15 0;
#X connect 4 0 5 0;
#X connect 5 0 12 0;
#X connect 6 0 4 0;
#X connect 7 0 8 0;
#X connect 8 0 9 0;
#X connect 9 0 0 0;
#X connect 10 0 14 0;
#X connect 11 0 10 0;
#X connect 12 0 11 0;
#X connect 12 1 11 1;
#X connect 12 2 10 1;
#X connect 14 0 7 0;
#X connect 15 0 16 0;
#X connect 16 0 2 0;
#X connect 17 0 3 1;
#X connect 17 0 22 0;
#X connect 19 0 3 0;
#X connect 20 0 18 0;
#X connect 21 0 20 0;
#X connect 22 0 21 0;
#X connect 23 0 15 0;
#X connect 24 0 23 1;
#X restore 354 114 pd Q-Ctrl;
#X text 333 66 28 11 2009;
#X connect 5 0 13 0;
#X connect 8 0 37 2;
#X connect 9 0 37 0;
#X connect 10 0 41 0;
#X connect 13 0 14 0;
#X connect 13 0 17 0;
#X connect 14 0 15 0;
#X connect 14 0 18 0;
#X connect 15 0 16 0;
#X connect 15 0 6 0;
#X connect 16 0 7 0;
#X connect 29 0 37 1;
#X connect 31 0 41 1;
#X connect 37 0 30 0;
#X connect 37 1 8 0;
#X connect 37 2 13 1;
#X connect 37 2 14 1;
#X connect 37 2 15 1;
#X connect 37 2 16 1;
#X connect 37 3 29 0;
#X connect 41 0 13 2;
#X connect 41 0 14 2;
#X connect 41 0 15 2;
#X connect 41 0 16 2;
#X connect 41 1 32 0;
#X coords 0 -1 1 1 217 36 1 100 100;
#X restore 146 207 pd ARGO;
#N canvas 89 65 442 316 ARGO 0;
#X obj 101 101 cnv 20 215 34 empty ColorForm empty 20 12 0 14 -188398
-1 1.04858e+06;
#X obj 248 104 cnv 10 65 10 empty ColorForm Flt-BP 1 5 1 14 -188398
-1 1.04858e+06;
#X obj 101 131 cnv 4 10 4 empty empty empty 20 12 0 14 -1 -66577 0
;
#X obj 203 101 cnv 4 10 4 empty empty empty 20 12 0 14 -1728 -66577
0;
#X obj 306 131 cnv 4 10 4 empty empty empty 0 0 0 9 -1 -66577 0;
#X obj 87 44 inlet~;
#X obj 209 289 outlet~;
#X obj 271 289 outlet~;
#X obj 100 106 nbx 7 12 0 20000 0 1 \$0-A ColorTime Hz 60 7 1 9 -208064
-1 -1 329.628 256;
#X obj 188 44 inlet~;
#X obj 297 44 inlet~;
#X obj 101 101 cnv 4 10 4 empty empty empty 20 12 0 14 -1 -66577 0
;
#X obj 306 101 cnv 4 10 4 empty empty empty 20 12 0 14 -3522 -66577
0;
#X obj 87 180 vcf~;
#X obj 149 203 vcf~;
#X obj 209 232 vcf~;
#X obj 271 262 vcf~;
#X obj 87 289 outlet~;
#X obj 149 289 outlet~;
#X obj 241 131 cnv 4 10 4 empty empty empty 0 0 0 9 -1 -66577 0;
#X obj 166 131 cnv 4 10 4 empty empty empty 0 0 0 9 -1 -66577 0;
#X text 179 84 frequency;
#X text 6 4 Controlled bandpass filter;
#X text 80 136 1 filter;
#X text 145 136 2 filters;
#X text 218 136 3 filters;
#X text 286 137 4 filters;
#X text 282 81 Resonance;
#X text 7 18 Filtre Passe-bande controllable;
#X obj 103 118 hsl 127 12 0 1 0 0 \$0-A ColorTime empty 0 7 1 9 -262144
-1 -1 5800 0;
#X obj 103 118 hsl 127 12 0 1 0 0 \$0-A ColorTime E3 0 7 1 9 -208064
-1728 -1 5559 0;
#X obj 234 118 hsl 81 12 0 1 0 1 \$0-A ColorForm empty 0 7 1 9 -262144
-1 -1 2000 0;
#X obj 234 118 hsl 81 12 0 1 0 1 \$0-A ColorForm 25 0 7 1 9 -188398
-3522 -1 2000 0;
#X text 259 17 2 HSLIDER superposés;
#X text 258 6 ATTENTION;
#X obj 332 221 cnv 15 41 30 empty empty empty 20 12 0 14 -24198 -66577
0;
#N canvas 350 196 381 103 ? 0;
#X obj 5 49 cnv 15 370 38 empty empty empty 20 12 0 14 -224896 -66577
0;
#X text 6 65 Voir/Look at: http://puredata.info/downloads;
#X obj 4 12 cnv 18 370 30 empty empty ARGOPdMiniModules 1 10 1 14 -4033
-1 1.04858e+06;
#X obj 7 31 cnv 10 10 10 empty empty Gerard 0 5 1 9 -4033 -1 1.04858e+06
;
#X obj 38 31 cnv 10 10 10 empty empty Paresys 0 5 1 9 -4033 -1 1.04858e+06
;
#X obj 175 20 cnv 10 10 10 empty empty http://pagesperso-orange.fr/Paresys/ARGOPd/
0 5 1 9 -4033 -1 1.04858e+06;
#X obj 175 31 cnv 10 10 10 empty empty http://gerard.paresys.free.fr/ARGOPd/
0 5 1 9 -4033 -1 1.04858e+06;
#X text 6 51 Construit sous / Build under Pd 0.41.4-extended;
#X restore 338 228 pd ?;
#N canvas 110 253 362 334 Freq-v5-sig- 0;
#X obj 297 156 ftom;
#X obj 135 204 mtof;
#X obj 210 73 +~;
#X obj 22 119 snapshot~;
#X obj 22 141 change;
#X msg 22 226 set \$1;
#X msg 136 226 set \$1;
#X obj 135 157 * 126;
#X obj 135 180 + 6;
#X obj 299 201 / 126;
#X obj 298 179 - 6;
#X obj 158 33 *~ 1.90476;
#X obj 227 6 inlet;
#X obj 297 6 inlet;
#X obj 48 253 outlet;
#X obj 136 253 outlet;
#X text 45 270 Hslider;
#X text 222 -20 Hslider;
#X obj 158 8 inlet~;
#X obj 22 64 metro 200;
#X obj 22 7 loadbang;
#X obj 135 129 change;
#X obj 299 253 outlet;
#X text 297 269 Hslider;
#X text 136 269 Number;
#X text 294 -10 Number;
#X text 50 282 Over;
#X text 302 280 Under;
#X text 227 -9 Under;
#N canvas 60 186 486 280 pitchb 0;
#X obj 75 79 mod 12;
#X obj 75 103 sel 0 1 2 3 4 5 6 7 8 9 10 11;
#X msg 251 138 A;
#X msg 305 138 B;
#X msg 197 138 G;
#X msg 8 138 C;
#X msg 62 138 D;
#X msg 116 138 E;
#X msg 143 138 F;
#X obj 209 8 inlet;
#X obj 334 83 div 12;
#X obj 334 112 - 2;
#X obj 209 47 t f f;
#X text 339 158 -> Numero de l'octave;
#X text 215 27 -> Numero MIDI de la note (69 = A3 = 440Hz);
#X msg 265 228 label \$1;
#X obj 265 251 outlet;
#X msg 35 138 Db;
#X msg 89 138 Eb;
#X msg 170 138 Gb;
#X msg 224 138 Ab;
#X msg 278 138 Bb;
#X text 371 41 (70 = A#3 = Bb3);
#X obj 265 206 symbol;
#X obj 265 181 sprintf %s%d;
#X connect 0 0 1 0;
#X connect 1 0 5 0;
#X connect 1 1 17 0;
#X connect 1 2 6 0;
#X connect 1 3 18 0;
#X connect 1 4 7 0;
#X connect 1 5 8 0;
#X connect 1 6 19 0;
#X connect 1 7 4 0;
#X connect 1 8 20 0;
#X connect 1 9 2 0;
#X connect 1 10 21 0;
#X connect 1 11 3 0;
#X connect 2 0 24 0;
#X connect 3 0 24 0;
#X connect 4 0 24 0;
#X connect 5 0 24 0;
#X connect 6 0 24 0;
#X connect 7 0 24 0;
#X connect 8 0 24 0;
#X connect 9 0 12 0;
#X connect 10 0 11 0;
#X connect 11 0 24 1;
#X connect 12 0 0 0;
#X connect 12 1 10 0;
#X connect 15 0 16 0;
#X connect 17 0 24 0;
#X connect 18 0 24 0;
#X connect 19 0 24 0;
#X connect 20 0 24 0;
#X connect 21 0 24 0;
#X connect 23 0 15 0;
#X connect 24 0 23 0;
#X restore 70 225 pd pitchb;
#X obj 203 226 clip~ 0 20000;
#X obj 203 204 mtof~;
#X obj 203 157 *~ 126;
#X obj 203 179 +~ 6;
#X obj 203 253 outlet~;
#X obj 81 8 r SendFluid;
#X connect 0 0 10 0;
#X connect 1 0 6 0;
#X connect 2 0 3 0;
#X connect 2 0 32 0;
#X connect 3 0 4 0;
#X connect 4 0 5 0;
#X connect 5 0 14 0;
#X connect 6 0 15 0;
#X connect 7 0 8 0;
#X connect 8 0 1 0;
#X connect 8 0 29 0;
#X connect 9 0 22 0;
#X connect 10 0 9 0;
#X connect 11 0 2 0;
#X connect 12 0 2 1;
#X connect 12 0 21 0;
#X connect 13 0 0 0;
#X connect 18 0 11 0;
#X connect 19 0 3 0;
#X connect 20 0 19 0;
#X connect 21 0 7 0;
#X connect 29 0 14 0;
#X connect 30 0 34 0;
#X connect 31 0 30 0;
#X connect 32 0 33 0;
#X connect 33 0 31 0;
#X connect 35 0 19 1;
#X restore -19 114 pd Freq-v5-sig-;
#X obj -10 52 cnv 15 60 30 empty empty empty 20 12 0 14 -24198 -66577
0;
#N canvas 161 113 422 363 Help 0;
#X text 14 258 Resonance = "Q" = filter sharpness = Coefficient of
Quality;
#X text 14 271 http://en.wikipedia.org/wiki/Q_factor;
#X text 15 283 http://fr.wikipedia.org/wiki/Facteur_de_qualité;
#X text 13 -16 Flt-BP = Filter BandPass = Filtre passe-bande;
#X text 13 313 La résonance est controlée seulement 100 fois par seconde
;
#X obj 8 57 cnv 15 400 200 empty empty empty 20 12 0 14 -233017 -66577
0;
#X text 27 88 vcf~ is like bp~ except that it takes an audio signal
to set center frequency \, which may thus change continuously in time.
The "Q" or filter sharpness is still only set by messages. More expensive
than bp~ in CPU time but more powerful too.;
#X text 27 73 vcf~ = voltage-controlled bandpass filter;
#X text 26 185 The left inlet is the incoming audio signal \, the middle
control input sets center frequency and the rigth input sets "Q".;
#X text 27 156 bp~ passes a sinusoid at the center frequency at unit
gain (approximately). Other frequencies are attenuated.;
#X text 12 59 Citation;
#X text 11 8 Sensibilitée de l'entrée de contrôle de la fréquence:
;
#X text 11 20 1 = 240 1/2 ton = 20 octaves;
#X restore -3 58 pd Help;
#X text 187 74 Center;
#N canvas 375 291 285 327 Q-Ctrl 0;
#X obj 73 278 line;
#X obj 11 9 loadbang;
#X msg 148 128 set \$1;
#X obj 149 57 +~;
#X obj 78 89 snapshot~;
#X obj 78 109 change;
#X obj 10 54 metro 10;
#X obj 76 215 + 1;
#X obj 75 236 clip 1 200;
#X msg 74 257 \$1 100;
#X obj 76 173 * 1;
#X obj 77 152 * 1;
#X obj 78 129 t f f f;
#X obj 73 300 outlet;
#X obj 75 194 * 200;
#X obj 149 88 snapshot~;
#X obj 149 108 change;
#X obj 219 11 inlet;
#X obj 148 300 outlet;
#X obj 149 11 inlet~;
#X msg 218 132 label \$1;
#X obj 218 110 tosymbol;
#X obj 218 88 * 100;
#X obj 67 54 metro 200;
#X obj 70 9 r SendFluid;
#X connect 0 0 13 0;
#X connect 1 0 6 0;
#X connect 1 0 23 0;
#X connect 2 0 18 0;
#X connect 3 0 4 0;
#X connect 3 0 15 0;
#X connect 4 0 5 0;
#X connect 5 0 12 0;
#X connect 6 0 4 0;
#X connect 7 0 8 0;
#X connect 8 0 9 0;
#X connect 9 0 0 0;
#X connect 10 0 14 0;
#X connect 11 0 10 0;
#X connect 12 0 11 0;
#X connect 12 1 11 1;
#X connect 12 2 10 1;
#X connect 14 0 7 0;
#X connect 15 0 16 0;
#X connect 16 0 2 0;
#X connect 17 0 3 1;
#X connect 17 0 22 0;
#X connect 19 0 3 0;
#X connect 20 0 18 0;
#X connect 21 0 20 0;
#X connect 22 0 21 0;
#X connect 23 0 15 0;
#X connect 24 0 23 1;
#X restore 354 114 pd Q-Ctrl;
#X text 333 66 28 11 2009;
#X connect 5 0 13 0;
#X connect 8 0 37 2;
#X connect 9 0 37 0;
#X connect 10 0 41 0;
#X connect 13 0 14 0;
#X connect 13 0 17 0;
#X connect 14 0 15 0;
#X connect 14 0 18 0;
#X connect 15 0 16 0;
#X connect 15 0 6 0;
#X connect 16 0 7 0;
#X connect 29 0 37 1;
#X connect 31 0 41 1;
#X connect 37 0 30 0;
#X connect 37 1 8 0;
#X connect 37 2 13 1;
#X connect 37 2 14 1;
#X connect 37 2 15 1;
#X connect 37 2 16 1;
#X connect 37 3 29 0;
#X connect 41 0 13 2;
#X connect 41 0 14 2;
#X connect 41 0 15 2;
#X connect 41 0 16 2;
#X connect 41 1 32 0;
#X coords 0 -1 1 1 217 36 1 100 100;
#X restore 369 206 pd ARGO;
#X obj 251 182 *~ -1;
#N canvas 284 45 384 322 ARGO 0;
#X obj 101 101 cnv 20 130 66 empty ColorForm empty 20 12 0 14 -188398
-1 1.04858e+06;
#X obj 162 104 cnv 10 40 10 empty ColorForm Freeverb 1 5 1 14 -188398
-1 1.04858e+06;
#X obj 101 163 cnv 4 10 4 empty empty empty 20 12 0 14 -1 -66577 0
;
#X obj 221 163 cnv 4 10 4 empty empty empty 0 0 0 9 -1 -66577 0;
#X obj 87 74 inlet~;
#X obj 211 74 inlet~;
#X obj 101 101 cnv 4 10 4 empty empty empty 20 12 0 14 -1 -66577 0
;
#X obj 89 296 outlet~;
#X obj 188 295 outlet~;
#X obj 221 101 cnv 4 10 4 empty empty empty 0 0 0 9 -1 -66577 0;
#X obj 103 126 hsl 127 12 0 1 0 1 \$0-A ColorForm Brill 0 7 1 9 -188398
-1 -1 8900 0;
#X obj 103 114 hsl 127 12 0 1 0 1 \$0-A ColorForm Size 0 7 1 9 -188398
-1 -1 10000 0;
#X obj 103 150 hsl 127 12 0 1 0 1 \$0-A ColorAmpli Dir 0 7 1 9 -261299
-1 -1 3000 0;
#X obj 103 138 hsl 127 12 0 1 0 1 \$0-A ColorAmpli Stereo 0 7 1 9 -261299
-1 -1 11600 0;
#X obj 89 264 freeverb~;
#X msg -120 188 roomsize \$1;
#X msg -41 188 damping \$1;
#X msg 31 188 width \$1;
#X msg 100 187 wet \$1;
#X msg 149 227 dry \$1;
#X obj 148 187 - 1;
#X obj 148 207 * -1;
#X obj -120 145 * 1.1;
#X obj -40 144 * -2.3;
#X obj -40 165 + 2.3;
#X msg 190 186 freeze \$1;
#X obj 117 102 tgl 12 1 \$0-A \$0-B Freeze 14 7 1 9 -262144 -1 -1 0
1;
#X obj -10 90 cnv 15 41 30 empty empty empty 20 12 0 14 -24198 -66577
0;
#N canvas 350 196 381 103 ? 0;
#X obj 5 49 cnv 15 370 38 empty empty empty 20 12 0 14 -224896 -66577
0;
#X text 6 65 Voir/Look at: http://puredata.info/downloads;
#X obj 4 12 cnv 18 370 30 empty empty ARGOPdMiniModules 1 10 1 14 -4033
-1 1.04858e+06;
#X obj 7 31 cnv 10 10 10 empty empty Gerard 0 5 1 9 -4033 -1 1.04858e+06
;
#X obj 38 31 cnv 10 10 10 empty empty Paresys 0 5 1 9 -4033 -1 1.04858e+06
;
#X obj 175 20 cnv 10 10 10 empty empty http://pagesperso-orange.fr/Paresys/ARGOPd/
0 5 1 9 -4033 -1 1.04858e+06;
#X obj 175 31 cnv 10 10 10 empty empty http://gerard.paresys.free.fr/ARGOPd/
0 5 1 9 -4033 -1 1.04858e+06;
#X text 6 51 Construit sous / Build under Pd 0.41.4-extended;
#X restore -3 96 pd ?;
#X obj -82 89 cnv 15 60 30 empty empty empty 20 12 0 14 -24198 -66577
0;
#N canvas 584 107 469 218 Help 0;
#X obj -164 -103 cnv 15 440 180 empty empty empty 20 12 0 14 -228856
-66577 0;
#X text -161 -103 Citation;
#X text -154 -13 "freeverb~ is a simple implementation of the standard
Schroeder/Moorer reverb model. It uses 8 comb filters in parallel on
both channels. It then feeds the result of the reverb through 4 allpass
filters in series on both channels. These "smooth" the sound. The filters
on the right channel are slightly detuned compared to the left channel
in order to create a stereo effect.";
#X text -155 -90 freeverb~ version 1.2 - reverb external for Pure Data
and Max/MSP written by Olaf Matthes <olaf.matthes@gmx.de> - based on
Freeverb \, the free \, studio-quality reverb SOURCE CODE in the public
domain. Written by Jezar at Dreampoint - http://www.dreampoint.co.uk
This software is published under GPL terms \, see file LICENSE.;
#X restore -75 96 pd Help;
#X text 138 83 11 1 2010;
#X connect 4 0 14 0;
#X connect 5 0 14 1;
#X connect 10 0 23 0;
#X connect 11 0 22 0;
#X connect 12 0 20 0;
#X connect 12 0 18 0;
#X connect 13 0 17 0;
#X connect 14 0 7 0;
#X connect 14 1 8 0;
#X connect 15 0 14 0;
#X connect 16 0 14 0;
#X connect 17 0 14 0;
#X connect 18 0 14 0;
#X connect 19 0 14 0;
#X connect 20 0 21 0;
#X connect 21 0 19 0;
#X connect 22 0 15 0;
#X connect 23 0 24 0;
#X connect 24 0 16 0;
#X connect 25 0 14 0;
#X connect 26 0 25 0;
#X coords 0 -1 1 1 132 68 1 100 100;
#X restore 333 253 pd ARGO;
#X obj 387 375 dac~;
#X text 503 66 (initialize);
#X obj -10 121 switch~;
#N canvas 608 166 228 173 ARGOnOff 0;
#X obj 100 100 tgl 18 1 \$0-SendOnOff \$0-ReceiveOnOff On/Off 20 11
1 14 -4033 -1 -1 1 1;
#X obj 99 10 loadbang;
#X msg 99 33 \; pd dsp 1;
#X obj 100 129 outlet;
#X text -50 99 Audio On/Off du patch ->;
#X text -22 45 Audio General On ->;
#X text 107 82 17 3 2010;
#X connect 0 0 3 0;
#X connect 1 0 2 0;
#X coords 0 -1 1 1 65 18 2 100 100;
#X restore -10 103 pd ARGOnOff;
#X text -5 87 V;
#X text -5 80 |;
#X text -17 69 On/Off Patch;
#N canvas 413 140 402 279 ARGO 0;
#X obj 101 101 cnv 10 95 41 \$0-A \$0-B empty 20 12 0 14 -1 -1 1.04858e+06
;
#X obj 101 109 nbx 4 12 0 1e+37 0 0 \$0 \$0-ReceiveCpuPeak CPUPeak
45 7 1 11 -24198 -1 -24198 24 256;
#X obj 101 122 nbx 4 12 0 1e+37 0 0 \$0 \$0-ReceiveCpuMean CPUMean
45 7 1 11 -24198 -1 -24198 24.05 256;
#X obj 145 -55 cputime;
#X obj 145 -76 t b b;
#X text 188 24 (c) musil@iem.kug.ac.at;
#X text 230 37 IEM KUG;
#X text 78 18 CPU-load;
#X obj 144 -125 loadbang;
#X text 205 48 graz \, austria 2001;
#X obj 145 -100 metro 500;
#X obj 145 -34 * 0.2;
#X text 237 -88 -dsp-load in %;
#X text 228 -101 measure average- and peak-;
#X obj 37 18 * 100;
#X obj 37 63 int;
#X obj 37 41 + 0.499;
#X obj 37 86 * 0.01;
#N canvas 524 162 422 273 1p1zmodif 0;
#X text 134 89 (c) musil@iem.kug.ac.at;
#X text 179 99 IEM KUG;
#X obj 14 195 +;
#X text 151 108 graz \, austria 2001;
#X text 135 71 y[n] = a0*x[n] + a1*x[n-1] + b1*y[n-1];
#X text 18 13 x[n];
#X text 16 244 y[n];
#X text 84 111 y[n-1];
#X text 134 56 <float> control-IIR-filter 1.order;
#X obj 15 28 inlet;
#X obj 14 228 outlet;
#X obj 15 112 * 0.1;
#X obj 59 156 * 0.9;
#X text 139 144 a1 = 0;
#X text 139 155 b1 = 0.9;
#X text 139 133 a0 = 0.1;
#X obj 15 50 t f b;
#X text 135 40 Inspiré de 1p1z;
#X obj 59 112 f 0;
#X connect 2 0 10 0;
#X connect 2 0 18 1;
#X connect 9 0 16 0;
#X connect 11 0 2 0;
#X connect 12 0 2 1;
#X connect 16 0 11 0;
#X connect 16 1 18 0;
#X connect 18 0 12 0;
#X restore 37 -8 pd 1p1zmodif;
#X text 146 9 Inspiré de 5.reference/iemabs/help-dsp.pd;
#X text 141 83 25 3 2010;
#X connect 3 0 11 0;
#X connect 4 0 3 0;
#X connect 4 1 3 1;
#X connect 8 0 10 0;
#X connect 10 0 4 0;
#X connect 11 0 18 0;
#X connect 11 0 1 0;
#X connect 14 0 16 0;
#X connect 15 0 17 0;
#X connect 16 0 15 0;
#X connect 17 0 2 0;
#X connect 18 0 14 0;
#X coords 0 -1 1 1 97 43 1 100 100;
#X restore 461 -202 pd ARGO;
#N canvas 262 86 718 585 ARGO 0;
#X obj 467 98 cnv 15 60 30 empty empty empty 20 12 0 14 -24198 -66577
0;
#N canvas 403 109 421 480 Help 0;
#X obj 11 -6 cnv 15 380 90 empty empty empty 20 12 0 14 -233017 -66577
0;
#X text 16 -8 Citation;
#X text 15 5 "GEM is the Graphics Environment for Multimedia. It was
originally written by Mark Danks to generate real-time computer graphics
\, especially for audio-visual compositions.";
#X text 15 55 "GEM is a collection of externals which allow the user
to create OpenGL graphics within Pd";
#X text 10 92 - Raccourcis clavier;
#X text 12 148 - En "FullScreen" taper F ou Pomme + Tab sous MacOSX...
;
#X text 120 161 taper F ou Alt + Tab sous Windows...;
#X text 120 173 taper F ou Alt + F4 sous Linux...;
#X obj 10 425 cnv 15 400 190 empty empty empty 20 12 0 14 -258113 -66577
0;
#X text 13 431 Impossible de supprimer la barre de menu sous MacOSX.5
+ Pd-0.41.4-extended;
#X text 13 457 Pas de probleme sous MacOSX.4 + Pd-0.41.4-extended;
#X text 25 513 Solution: Quitter Pd et relancer;
#X text 14 474 - Problème Windows: Quand on sort de fullscreen le dessin
des objets dans les patches est buggé (taille du texte \, HSlider décalés...)
;
#X text 26 525 Vu avec carte Matrox + Windows XP SP2 + Pd-0.41.4-extended
;
#X text 18 582 Solution: cocher Compatible;
#X text 35 317 Inconvenient: Charge CPU => la texture est calculée
(objet pix_texture) par le processeur de l'ordinateur et pas par la
carte video);
#X text 18 559 GL: énumérant non valide (répété);
#X text 18 570 OpenGL: invalid enumérant (repeat);
#X text 14 545 - Erreur dans la fenêtre Pd:;
#X text 12 265 Il faut cocher compatible avec certaines cartes video
\, de certains PC \, sous Windows...;
#X text 13 291 Compatible Off -> mode 1: TEXTURE_RECTANGLE;
#X text 13 303 Compatible On -> mode 0: TEXTURE_2D;
#X text 8 -31 - GEM On ouvre une fenetre;
#X text 134 91 g / G -> GEM On/Off;
#X text 135 105 f / F -> FullScreen On/Off;
#X text 136 118 b /B -> Menu bar On/Off;
#X text 136 132 Echap / Esc -> FullScreen Off;
#X text 15 391 16/9 = 512/288 = 1024/576 = 1152/648 = 1280/720 = 1440/810
;
#X text 9 379 16/10 = 512/320 = 1024/640 = 1152/720 = 1280x800 = 1440/900
;
#X text 343 366 = 1280/960;
#X text 20 367 4/3 = 160/120 = 320/240 = 512/384 = 640/480 = 1024x768
;
#X text 121 186 ou Echap / Esc...;
#X text 11 239 - Compatible envoie le message mode 1 ou mode 0 à tous
les objets pix_texture des autres modules;
#X restore 474 104 pd Help;
#X obj 101 101 cnv 22 183 69 empty empty GEM 5 12 1 18 -1 -262144 1.04858e+06
;
#X obj 191 154 tgl 12 1 \$0-A \$0-ColorGEM (F)ullScreen 15 7 1 11 -24198
-1 -24198 0 1;
#X obj 103 124 tgl 12 1 \$0-A \$0-ColorGEM (G)EM 15 7 1 11 -24198 -1
-24198 1 1;
#X obj 191 105 nbx 2 12 1 30 0 1 \$0-A \$0-ColorGEM Frames/sec 26 7
1 11 -24198 -1 -24198 25 256;
#X obj 191 139 tgl 12 1 \$0-A \$0-ColorGEM KeyShortCut 15 7 1 11 -24198
-1 -24198 1 1;
#X obj 283 -26 key;
#X msg 15 462 create;
#X msg 429 460 destroy;
#X msg 387 460 reset;
#X msg 296 460 fullscreen \$1;
#X msg 489 460 0;
#X obj 169 511 gemwin;
#X obj 78 251 sel 1;
#X msg 296 298 set \$1;
#X msg 95 204 set \$1;
#X msg 78 229 1;
#X msg -80 461 frame \$1;
#X obj 462 395 t b b;
#X obj 429 418 delay 200;
#X msg 64 461 dimen 640 480;
#X msg -15 463 1;
#X obj 283 11 spigot;
#X obj 70 -28 gemkeyname;
#X obj 516 391 select 0 1;
#X obj 78 178 t b f f f;
#X msg 532 438 color 16 22 16;
#X msg 517 415 color 0 22 0;
#X obj 188 67 select 65 97 70 102 76 108 71 103 66 98;
#X obj -25 -25 r SendGEM;
#X obj 517 483 s \$0-ColorGEM;
#X obj 191 124 tgl 12 1 SendMode \$0-ColorGEM Compatible 15 7 1 11
-24198 -1 -24198 0 1;
#X obj 55 68 select 27;
#X msg -21 134 0;
#X obj 103 154 hradio 12 1 1 3 \$0-A \$0-ColorGEM 640x480 39 7 1 11
-24198 -1 -24198 1;
#X obj 248 178 t b f;
#N canvas 0 22 450 300 Dimension 0;
#X obj 169 76 sel 0 1 2;
#X msg 203 141 set dimen 1280 720;
#X msg 187 183 set dimen 640 480;
#X msg 169 225 set dimen 320 240;
#X msg 198 162 label 640x480;
#X msg 213 120 label 1280x720;
#X msg 179 204 label 320x240;
#X obj 169 50 inlet;
#X obj 103 257 outlet;
#X obj 303 259 outlet;
#X connect 0 0 3 0;
#X connect 0 0 6 0;
#X connect 0 1 2 0;
#X connect 0 1 4 0;
#X connect 0 2 1 0;
#X connect 0 2 5 0;
#X connect 1 0 9 0;
#X connect 2 0 9 0;
#X connect 3 0 9 0;
#X connect 4 0 8 0;
#X connect 5 0 8 0;
#X connect 6 0 8 0;
#X connect 7 0 0 0;
#X restore 275 213 pd Dimension;
#X obj 78 325 select linux macos windows;
#X obj 55 42 mrpeach/str to_list;
#X text 150 -29 Sortir de fullscreen;
#X text 146 -19 sous Linux avec Esc ->;
#X text -70 37 Sortir de fullscreen;
#X text -82 47 sous MacOS avec Esc ->;
#X msg 345 298 set \$1;
#X msg 157 437 1;
#X obj 187 179 t b f;
#X msg 157 461 border \$1 \, menubar \$1;
#X obj 103 139 tgl 12 1 \$0-A \$0-ColorGEM (B)arMenu 15 7 1 11 -24198
-1 -24198 1 1;
#X obj 36 16 spigot;
#X obj 69 -6 == 0;
#X obj -47 68 sel f F g G b B;
#X obj 146 204 t b f b;
#X msg 185 227 1;
#X obj -21 112 t b b;
#X msg 6 158 set 1;
#X obj -32 500 cnv 15 120 30 empty empty empty 20 12 0 14 -258113 -66577
0;
#X obj -15 507 s RenderGEM;
#X obj 533 512 cnv 15 41 30 empty empty empty 20 12 0 14 -24198 -66577
0;
#N canvas 350 196 308 136 ?? 0;
#X obj -9 87 cnv 15 300 38 empty empty empty 20 12 0 14 -224896 -66577
0;
#X obj -9 10 cnv 18 300 70 empty empty ARGOPdMiniModules 1 10 1 14
-4033 -1 1.04858e+06;
#X obj 9 29 cnv 10 10 10 empty empty Gerard 0 5 1 9 -4033 -1 1.04858e+06
;
#X obj 40 29 cnv 10 10 10 empty empty Paresys 0 5 1 9 -4033 -1 1.04858e+06
;
#X text -8 89 Construit sous / Build under Pd 0.42.5-extended;
#X obj 39 105 pddplink http://puredata.info/downloads;
#X obj 3 42 pddplink http://pagesperso-orange.fr/Paresys/ARGOPd/;
#X obj 3 57 pddplink http://gerard.paresys.free.fr/ARGOPd/;
#X restore 537 519 pd ??;
#X obj 15 415 delay 300;
#X obj -15 438 delay 300;
#X msg 296 434 0;
#X obj 64 391 delay 300;
#X obj 129 361 t b b b;
#X obj 78 361 t b b b;
#X obj 78 414 spigot;
#X obj 263 298 == 0;
#X obj 78 275 t b b b b;
#X obj 78 302 zexy/operating_system;
#X obj 122 68 select 27;
#X text 293 101 2 8 2011;
#X connect 3 0 52 0;
#X connect 4 0 26 0;
#X connect 5 0 18 0;
#X connect 6 0 23 1;
#X connect 7 0 23 0;
#X connect 7 0 33 0;
#X connect 7 0 70 0;
#X connect 8 0 13 0;
#X connect 9 0 13 0;
#X connect 10 0 13 0;
#X connect 11 0 13 0;
#X connect 12 0 13 0;
#X connect 14 0 68 0;
#X connect 14 1 19 0;
#X connect 15 0 62 0;
#X connect 16 0 17 0;
#X connect 17 0 14 0;
#X connect 18 0 13 0;
#X connect 19 0 20 0;
#X connect 19 1 12 0;
#X connect 20 0 9 0;
#X connect 21 0 13 0;
#X connect 22 0 13 0;
#X connect 22 0 57 0;
#X connect 23 0 29 0;
#X connect 24 0 50 0;
#X connect 24 1 49 0;
#X connect 25 0 28 0;
#X connect 25 1 27 0;
#X connect 26 0 17 0;
#X connect 26 1 16 0;
#X connect 26 3 25 0;
#X connect 27 0 31 0;
#X connect 28 0 31 0;
#X connect 29 2 3 0;
#X connect 29 3 3 0;
#X connect 29 6 4 0;
#X connect 29 7 4 0;
#X connect 29 8 48 0;
#X connect 29 9 48 0;
#X connect 30 0 4 0;
#X connect 33 0 54 0;
#X connect 34 0 3 0;
#X connect 35 0 36 0;
#X connect 36 0 17 0;
#X connect 36 1 37 0;
#X connect 37 0 35 0;
#X connect 37 1 21 0;
#X connect 38 0 65 0;
#X connect 38 1 64 0;
#X connect 38 2 65 0;
#X connect 39 0 33 0;
#X connect 44 0 45 0;
#X connect 45 0 47 0;
#X connect 46 0 17 0;
#X connect 46 1 44 0;
#X connect 47 0 13 0;
#X connect 48 0 46 0;
#X connect 49 0 39 0;
#X connect 49 0 51 0;
#X connect 50 0 49 1;
#X connect 51 0 3 0;
#X connect 51 1 3 0;
#X connect 51 2 4 0;
#X connect 51 3 4 0;
#X connect 51 4 48 0;
#X connect 51 5 48 0;
#X connect 52 0 17 0;
#X connect 52 1 15 0;
#X connect 52 1 67 0;
#X connect 52 2 53 0;
#X connect 53 0 6 0;
#X connect 54 0 34 0;
#X connect 54 1 55 0;
#X connect 55 0 48 0;
#X connect 55 0 45 0;
#X connect 60 0 8 0;
#X connect 60 0 61 0;
#X connect 61 0 22 0;
#X connect 62 0 11 0;
#X connect 63 0 60 0;
#X connect 63 0 21 0;
#X connect 64 0 63 0;
#X connect 64 1 45 0;
#X connect 64 2 62 0;
#X connect 65 0 60 0;
#X connect 65 1 62 0;
#X connect 65 2 66 0;
#X connect 66 0 21 0;
#X connect 67 0 66 1;
#X connect 68 0 69 0;
#X connect 68 1 10 0;
#X connect 68 2 9 0;
#X connect 68 3 12 0;
#X connect 69 0 38 0;
#X connect 70 0 54 0;
#X coords 0 -1 1 1 185 71 1 100 100;
#X restore 255 -218 pd ARGO;
#N canvas 324 59 331 313 ARGO 0;
#X obj 101 101 cnv 20 104 34 empty ColorAmpli empty 20 12 0 14 -261299
-1 1.04858e+06;
#X obj 85 285 outlet~;
#X obj 134 104 cnv 10 20 10 empty ColorAmpli Ampli 1 5 1 14 -261299
-1 1.04858e+06;
#X obj 85 72 inlet~;
#X obj 85 260 *~;
#X obj 103 118 hsl 101 12 -80 20 0 1 \$0-A ColorAmpli -9dB 0 7 1 9
-261299 -1 -1 7100 0;
#X msg -24 161 label \$1;
#X obj -25 138 tosymbol;
#X obj -25 103 sprintf %ddB;
#X obj 101 101 cnv 4 10 4 empty empty empty 20 12 0 14 -1 -66577 0
;
#X obj 101 131 cnv 4 10 4 empty empty empty 20 12 0 14 -1 -66577 0
;
#X text -16 120 -> -80dB..20dB;
#X text 106 182 -> 0.0001..10 = -80dB..20dB;
#X text 209 97 5 5 2011;
#X obj 100 163 expr (pow(10 \, $f1 / 20));
#X text 107 140 -> -80..20;
#X obj 227 270 cnv 15 41 30 empty empty empty 20 12 0 14 -24198 -66577
0;
#N canvas 350 196 308 136 ?? 0;
#X obj -9 87 cnv 15 300 38 empty empty empty 20 12 0 14 -224896 -66577
0;
#X obj -9 10 cnv 18 300 70 empty empty ARGOPdMiniModules 1 10 1 14
-4033 -1 1.04858e+06;
#X obj 9 29 cnv 10 10 10 empty empty Gerard 0 5 1 9 -4033 -1 1.04858e+06
;
#X obj 40 29 cnv 10 10 10 empty empty Paresys 0 5 1 9 -4033 -1 1.04858e+06
;
#X text -8 89 Construit sous / Build under Pd 0.42.5-extended;
#X obj 39 105 pddplink http://puredata.info/downloads;
#X obj 3 42 pddplink http://pagesperso-orange.fr/Paresys/ARGOPd/;
#X obj 3 57 pddplink http://gerard.paresys.free.fr/ARGOPd/;
#X restore 231 277 pd ??;
#X obj 100 206 sel 0.0001;
#X msg 100 234 0;
#X connect 3 0 4 0;
#X connect 4 0 1 0;
#X connect 5 0 8 0;
#X connect 5 0 14 0;
#X connect 6 0 5 0;
#X connect 7 0 6 0;
#X connect 8 0 7 0;
#X connect 14 0 18 0;
#X connect 18 0 19 0;
#X connect 18 1 4 1;
#X connect 19 0 4 1;
#X connect 19 0 7 0;
#X coords 0 -1 1 1 106 36 1 100 100;
#X restore 265 132 pd ARGO;
#N canvas 497 69 331 310 ARGO 0;
#X obj 101 101 cnv 20 104 34 empty ColorAmpli empty 20 12 0 14 -261299
-1 1.04858e+06;
#X obj 85 282 outlet~;
#X obj 134 104 cnv 10 20 10 empty ColorAmpli Ampli 1 5 1 14 -261299
-1 1.04858e+06;
#X obj 85 43 inlet~;
#X obj 85 259 *~;
#X obj 103 118 hsl 101 12 -80 20 0 1 \$0-A ColorAmpli 0dB 0 7 1 9 -261299
-1 -1 8000 0;
#X obj 101 101 cnv 4 10 4 empty empty empty 20 12 0 14 -1 -66577 0
;
#X obj 101 131 cnv 4 10 4 empty empty empty 20 12 0 14 -1 -66577 0
;
#X obj 195 101 cnv 4 10 4 empty empty empty 20 12 0 14 -1 -66577 0
;
#X obj 195 131 cnv 4 10 4 empty empty empty 20 12 0 14 -1 -66577 0
;
#X obj 210 281 outlet~;
#X obj 210 42 inlet~;
#X obj 210 258 *~;
#X text 221 83 1 6 2011;
#X msg -10 150 label \$1;
#X obj -11 127 tosymbol;
#X obj -11 92 sprintf %ddB;
#X text 107 167 -> 0.0001..10 = -80dB..20dB;
#X obj 101 148 expr (pow(10 \, $f1 / 20));
#X obj 101 191 sel 0.0001;
#X msg 101 219 0;
#X obj 264 269 cnv 15 41 30 empty empty empty 20 12 0 14 -24198 -66577
0;
#N canvas 350 196 308 136 ?? 0;
#X obj -9 87 cnv 15 300 38 empty empty empty 20 12 0 14 -224896 -66577
0;
#X obj -9 10 cnv 18 300 70 empty empty ARGOPdMiniModules 1 10 1 14
-4033 -1 1.04858e+06;
#X obj 9 29 cnv 10 10 10 empty empty Gerard 0 5 1 9 -4033 -1 1.04858e+06
;
#X obj 40 29 cnv 10 10 10 empty empty Paresys 0 5 1 9 -4033 -1 1.04858e+06
;
#X text -8 89 Construit sous / Build under Pd 0.42.5-extended;
#X obj 39 105 pddplink http://puredata.info/downloads;
#X obj 3 42 pddplink http://pagesperso-orange.fr/Paresys/ARGOPd/;
#X obj 3 57 pddplink http://gerard.paresys.free.fr/ARGOPd/;
#X restore 268 276 pd ??;
#X connect 3 0 4 0;
#X connect 4 0 1 0;
#X connect 5 0 16 0;
#X connect 5 0 18 0;
#X connect 11 0 12 0;
#X connect 12 0 10 0;
#X connect 14 0 5 0;
#X connect 15 0 14 0;
#X connect 16 0 15 0;
#X connect 18 0 19 0;
#X connect 19 0 20 0;
#X connect 19 1 4 1;
#X connect 19 1 12 1;
#X connect 20 0 4 1;
#X connect 20 0 12 1;
#X connect 20 0 15 0;
#X coords 0 -1 1 1 106 36 1 100 100;
#X restore 349 330 pd ARGO;
#N canvas 324 59 331 313 ARGO 0;
#X obj 101 101 cnv 20 104 34 empty ColorAmpli empty 20 12 0 14 -261299
-1 1.04858e+06;
#X obj 85 285 outlet~;
#X obj 134 104 cnv 10 20 10 empty ColorAmpli Ampli 1 5 1 14 -261299
-1 1.04858e+06;
#X obj 85 72 inlet~;
#X obj 85 260 *~;
#X obj 103 118 hsl 101 12 -80 20 0 1 \$0-A ColorAmpli 6dB 0 7 1 9 -261299
-1 -1 8600 0;
#X msg -24 161 label \$1;
#X obj -25 138 tosymbol;
#X obj -25 103 sprintf %ddB;
#X obj 101 101 cnv 4 10 4 empty empty empty 20 12 0 14 -1 -66577 0
;
#X obj 101 131 cnv 4 10 4 empty empty empty 20 12 0 14 -1 -66577 0
;
#X text -16 120 -> -80dB..20dB;
#X text 106 182 -> 0.0001..10 = -80dB..20dB;
#X text 209 97 5 5 2011;
#X obj 100 163 expr (pow(10 \, $f1 / 20));
#X text 107 140 -> -80..20;
#X obj 227 270 cnv 15 41 30 empty empty empty 20 12 0 14 -24198 -66577
0;
#N canvas 350 196 308 136 ?? 0;
#X obj -9 87 cnv 15 300 38 empty empty empty 20 12 0 14 -224896 -66577
0;
#X obj -9 10 cnv 18 300 70 empty empty ARGOPdMiniModules 1 10 1 14
-4033 -1 1.04858e+06;
#X obj 9 29 cnv 10 10 10 empty empty Gerard 0 5 1 9 -4033 -1 1.04858e+06
;
#X obj 40 29 cnv 10 10 10 empty empty Paresys 0 5 1 9 -4033 -1 1.04858e+06
;
#X text -8 89 Construit sous / Build under Pd 0.42.5-extended;
#X obj 39 105 pddplink http://puredata.info/downloads;
#X obj 3 42 pddplink http://pagesperso-orange.fr/Paresys/ARGOPd/;
#X obj 3 57 pddplink http://gerard.paresys.free.fr/ARGOPd/;
#X restore 231 277 pd ??;
#X obj 100 206 sel 0.0001;
#X msg 100 234 0;
#X connect 3 0 4 0;
#X connect 4 0 1 0;
#X connect 5 0 8 0;
#X connect 5 0 14 0;
#X connect 6 0 5 0;
#X connect 7 0 6 0;
#X connect 8 0 7 0;
#X connect 14 0 18 0;
#X connect 18 0 19 0;
#X connect 18 1 4 1;
#X connect 19 0 4 1;
#X connect 19 0 7 0;
#X coords 0 -1 1 1 106 36 1 100 100;
#X restore 480 130 pd ARGO;
#N canvas 601 197 438 261 ARGO 0;
#X obj 101 101 cnv 10 144 39 empty ColorForm empty 20 12 0 14 -228856
-1 1.04858e+06;
#X obj 101 101 cnv 4 10 4 empty empty empty 20 12 0 14 -128992 -66577
0;
#X obj 133 104 cnv 10 20 10 empty ColorForm GEM-Movement2 1 5 1 14
-228856 -1 1.04858e+06;
#X text 82 83 gemlist;
#X obj 93 51 inlet;
#X obj 101 136 cnv 4 10 4 empty empty empty 20 12 0 14 -128992 -66577
0;
#X text 83 140 gemlist;
#X obj 93 235 outlet;
#X obj 115 129 hsl 129 12 0 255 0 1 \$0-A ColorGEM 43 0 7 1 9 -228856
-1 -1 2200 0;
#X msg 13 214 label \$1;
#X obj 12 191 tosymbol;
#X obj 11 144 int;
#X obj 12 168 change;
#X obj 93 194 pix_movement2;
#X obj 115 117 hsl 129 12 0 255 0 1 \$0-A ColorGEM 101 0 7 1 9 -228856
-1 -1 5100 0;
#X text 249 111 <- High Threshold / Seuil Haut;
#X text 249 124 <- Low Threshold / Seuil Bas;
#X obj 100 105 bng 12 250 50 0 \$0-A \$0-B Zero 15 7 1 9 -262144 -1
-1;
#X msg 8 120 label \$1;
#X obj 7 97 tosymbol;
#X obj 6 50 int;
#X obj 7 74 change;
#X obj 152 38 cnv 15 60 30 empty empty empty 20 12 0 14 -24198 -66577
0;
#X obj 221 39 cnv 15 41 30 empty empty empty 20 12 0 14 -24198 -66577
0;
#N canvas 350 196 381 103 ? 0;
#X obj 5 49 cnv 15 370 38 empty empty empty 20 12 0 14 -224896 -66577
0;
#X text 6 65 Voir/Look at: http://puredata.info/downloads;
#X obj 4 12 cnv 18 370 30 empty empty ARGOPdMiniModules 1 10 1 14 -4033
-1 1.04858e+06;
#X obj 7 31 cnv 10 10 10 empty empty Gerard 0 5 1 9 -4033 -1 1.04858e+06
;
#X obj 38 31 cnv 10 10 10 empty empty Paresys 0 5 1 9 -4033 -1 1.04858e+06
;
#X obj 175 20 cnv 10 10 10 empty empty http://pagesperso-orange.fr/Paresys/ARGOPd/
0 5 1 9 -4033 -1 1.04858e+06;
#X obj 175 31 cnv 10 10 10 empty empty http://gerard.paresys.free.fr/ARGOPd/
0 5 1 9 -4033 -1 1.04858e+06;
#X text 6 51 Construit sous / Build under Pd 0.41.4-extended;
#X restore 227 46 pd ?;
#N canvas 485 48 425 538 Help 0;
#X obj -12 17 cnv 15 400 370 empty empty empty 20 12 0 14 -233017 -66577
0;
#X text -9 16 Citation;
#X obj -11 395 cnv 15 400 100 empty empty empty 20 12 0 14 -258113
-66577 0;
#X text -7 395 - Erreur dans la fenêtre Pd:;
#X text -11 -31 GEM-Movement2;
#X text 4 32 Description: timebase IIR-filter for motion detection
;
#X text 12 103 since image-noise can disturb this processing \, changes
between two corresponding pixels that are smaller than "threshold"
are ignored. The "treshold" is initially set to <treshold> and adjusts
itself dynamically downwards towards <lo_treshold> (which is the absolute
minimum);
#X text 13 51 [pix_movement] detects movement in a frame with respect
to the 2 previous frames and a "background"-image and stores it as
a b/w-image (greyscale).;
#X text 15 180 Inlet 1: bang: set the current frame as "background"
;
#X text 15 197 Inlet 2: float: <lo_threshold> changes in the image
that are smaller then <lo_threshold> are ignored (0..1);
#X text 16 226 Inlet 3: float: <initial_threshold> (0..1);
#X text 11 409 error: [pix_movement2]: low treshold (xx) must not be
be greater than high treshold(yy);
#X text 2 -14 Transforme le "colorspace" de l'image en Grey;
#X text 8 245 pix_movement2 internally convert the image to greyscale
and work on the grey channel directly.;
#X text 19 294 [pix_movement] compares 2 adjacent frames based on a
threshold.;
#X text 18 321 [pix_movement2] compares the current frame against the
last 2 ones and a static "background"-image (threshold-based) \; the
threshold adjusts itself automatically \; so it is just an improved
version of [pix_movement];
#X text 6 282 IOhannes m zmoelnig;
#X text 11 445 error: [pix_movement2]: no method for this kind of color
;
#X text 12 458 Ce MiniModule ne fonctionne pas en colorspace RGB;
#X text 12 470 Vu sous Linux Ubuntu 8.04 + Pd-0.41.4-extended;
#X restore 159 44 pd Help;
#X obj 130 158 / 255;
#X obj 168 159 / 255;
#X text 213 83 27 3 2010;
#X connect 4 0 13 0;
#X connect 8 0 11 0;
#X connect 8 0 26 0;
#X connect 9 0 8 0;
#X connect 10 0 9 0;
#X connect 11 0 12 0;
#X connect 12 0 10 0;
#X connect 13 0 7 0;
#X connect 14 0 20 0;
#X connect 14 0 27 0;
#X connect 17 0 13 0;
#X connect 18 0 14 0;
#X connect 19 0 18 0;
#X connect 20 0 21 0;
#X connect 21 0 19 0;
#X connect 26 0 13 1;
#X connect 27 0 13 2;
#X coords 0 -1 1 1 146 41 1 100 100;
#X restore 167 -33 pd ARGO;
#X text -23 -21 Régler les seuils haut & bas ->;
#X text -41 -9 Adjust the high & low threshold ->;
#X text 66 -141 On/Off camera ->;
#N canvas 444 51 682 543 ARGO 0;
#X obj 101 101 cnv 10 164 86 empty ColorForm empty 20 12 0 14 -228856
-1 1.04858e+06;
#X obj 189 104 cnv 10 20 10 empty ColorForm GEM-Video 1 5 1 14 -228856
-1 1.04858e+06;
#X obj 101 183 cnv 4 10 4 empty empty empty 20 12 0 14 -128992 -66577
0;
#X text 84 188 gemlist;
#X obj 93 437 outlet;
#X obj 113 101 nbx 3 12 1 100 0 1 \$0-A \$0-B Render 35 7 1 9 -262144
-1 -1 50 256;
#X msg 50 151 set \$1;
#X obj 113 117 bng 12 250 50 0 \$0-A ColorGEM empty 0 0 1 9 -262144
-1 -1;
#X obj 113 134 bng 12 250 50 0 \$0-A ColorGEM Config 16 7 1 9 -262144
-1 -1;
#X obj 125 117 nbx 3 12 0 10 0 1 \$0-A ColorGEM Device 32 7 1 9 -262144
-1 -1 0 256;
#X obj 206 115 vradio 12 1 1 6 \$0-A ColorGEM 1600x1200 14 7 1 9 -262144
-1 -1 3;
#X obj 220 130 cnv 10 20 10 empty empty 1280x960 0 4 1 9 -228856 -1
0;
#X obj 221 142 cnv 10 20 10 empty empty 640x480 0 4 1 9 -228856 -1
0;
#X obj 221 154 cnv 10 20 10 empty empty 320x240 0 4 1 9 -228856 -1
0;
#X obj 220 166 cnv 10 20 10 empty empty 160x120 0 4 1 9 -228856 -1
0;
#X obj 221 178 cnv 6 20 6 empty empty 80x60 0 4 1 9 -228856 -1 0;
#X obj 113 151 vradio 12 1 1 3 \$0-A ColorGEM RGBA 15 7 1 9 -262144
-1 -1 0;
#X obj 128 166 cnv 7 20 6 empty empty YUV 0 4 1 9 -228856 -1 0;
#X obj 53 24 r \$0-SendOnOff;
#X obj 91 232 gemhead;
#X obj 93 415 pix_video;
#X msg -13 306 dialog;
#X msg 36 306 device \$1;
#X obj 35 286 change;
#X msg 210 331 dimen 160 120;
#X msg 209 308 dimen 320 240;
#X msg 208 287 dimen 640 480;
#X msg 206 266 dimen 1280 960;
#X obj 206 218 select 0 1 2 3 4 5;
#X msg 206 243 dimen 1600 1200;
#X msg 211 352 dimen 80 60;
#X obj 206 197 change;
#X msg 101 305 colorspace RGBA;
#X msg 111 331 colorspace YUV;
#X obj 101 256 change;
#X obj 101 279 select 0 1;
#X msg 128 208 enumerate;
#X msg 353 171 driver \$1;
#X msg 352 148 0;
#X msg 413 148 2;
#X msg 382 148 1;
#X msg 351 93 0;
#X msg 412 93 2;
#X msg 381 93 1;
#X msg 352 123 quality \$1;
#X msg 442 94 3;
#X msg 354 195 0;
#X msg 415 195 2;
#X msg 384 195 1;
#X msg 445 196 3;
#X msg 355 225 channel \$1;
#X msg 418 248 mode NTSC;
#X msg 355 247 mode PAL;
#X obj 76 -21 cnv 15 60 30 empty empty empty 20 12 0 14 -24198 -66577
0;
#N canvas 528 31 411 557 Help 0;
#X text 92 -40 http://webcam-osx.sourceforge.net/;
#X text 5 -90 - Fonctionne avec:;
#X text 32 -78 - WebCam Philips USB SPC900NC;
#X text 90 -52 + Driver Quicktime macam;
#X text 61 -64 - Sous MacOSX.4 + Pd 0.39.2-extended;
#X text 93 -2 + Driver Philips;
#X text 63 -27 - Sous WindowsXP + Pd 0.38.4-extended;
#X text 63 50 - Sous MacOSX.4 + Pd 0.39.2-extended;
#X text 92 62 sans driver specifique;
#X text 32 37 - Camescope Panasonic DV TriCCD NV-GS500 connecté USB
;
#X text 63 -14 - Sous WindowsXP + Pd 0.39.2-extended;
#X obj 4 324 cnv 15 400 320 empty empty empty 20 12 0 14 -258113 -66577
0;
#X text 42 505 Solution: cocher Compatible;
#X text 42 517 Se produit avec certaines cartes video \, de certains
PC \, sous Windows...;
#X text 42 542 Inconvenient: Charge CPU => la texture est calculée
(objet pix_texture) par le processeur de l'ordinateur et pas par la
carte video);
#X text 36 482 GL: énumérant non valide (répété);
#X text 7 323 - Erreur dans la fenêtre Pd:;
#X text 19 336 - Sous MacOSX:;
#X text 39 347 could not make new SG channnel;
#X text 39 404 enumerate not supported on this OS;
#X text 41 433 GEM: pix_videoDarwin: no video yet;
#X text 42 444 pix_videoDarwin: SGIdle failed;
#X text 18 470 - Sous WindowsXP;
#X text 36 493 OpenGL: invalid enumerant (repeated);
#X text 30 596 error: pix_videoDS: Could not open device: 0;
#X text 41 608 en l'absence d'une camera connectée;
#X text 42 619 ou en l'absence du driver de la camera;
#X text 51 358 en l'absence d'une camera connectée;
#X text 51 368 ou en l'absence du driver de la camera;
#X text 52 415 DeviceList ne fonctionne pas sous MacOSX:;
#X text 56 455 Ce module ne fonctionne pas sous Pd 0.38.4-extended
;
#X text 18 584 - error: pix_videoDS: No video capture devices found!
;
#X text 5 199 - Avec une seule camera: essayer device 0;
#X text 32 76 - WebCam USB Logitech QuickCam Pro5000;
#X text 65 89 - Sous WindowsXP + Driver Logitech;
#X text 66 102 - Sous MacOSX + Driver macam v 0.9.1.;
#X text 80 114 Fonctionne avec 3 WebCam identiques connectees simultanement
en ouvrant 3 x le module ARGOGEMVideov04.pd et en choisissant Device
0 \, 1 et 2;
#X text 5 214 - En cas d'absence d'image (reduite a un point);
#X text 40 227 - Essayer - Quitter Pd et relancer;
#X text 17 255 YUV = Luma \, ChromaB \, ChromaR;
#X text 5 243 - RGB = Red \, Green \, Blue;
#X text 5 -106 - ATTENTION: GEM doit etre "On";
#X text 7 274 ATTENTION un patch contenant un MiniModule GEM-Video
peut prendre 10 secondes a s'ouvrir avec certaines cameras. Patience...
;
#X text 64 9 - Sous Linux Ubuntu 8.04 + Pd 0.41.4-extended sans driver
specifique;
#X text 5 155 - Ne fonctionne pas avec WebCam USB Logitech QuickCam
Pro5000 sous Linux Ubuntu 8.04 + Pd 0.41.4-extended;
#X text 58 180 -> "Unsupported color model"???;
#X text 50 380 ou si une autre application utilise la camera;
#X restore 83 -15 pd Help;
#X obj 128 178 cnv 7 20 6 empty empty Grey 0 4 1 9 -228856 -1 0;
#X obj 279 143 tgl 15 0 empty empty empty 17 7 0 10 -262144 -1 -1 0
1;
#X text 294 142 On/Off;
#X obj -3 24 loadbang;
#X obj -4 187 delay 2000;
#X obj 150 -81 cnv 15 360 170 empty empty empty 20 12 0 14 -258113
-66577 0;
#X text 157 28 0/1 On/Off fonctionne sous Windows;
#X text 157 60 quality fonctionne sous MacOSX mais pas d'effet visible
;
#X text 157 69 dialog ne fonctionne pas sous Linux;
#X text 157 18 0/1 On/Off ne fonctionne pas sous MacOSX \, Linux;
#X text 156 39 quality ne fonctionne pas sous Windows \, Linux avec
camera Philips;
#X text 158 -11 enumerate fonctionne sous Windows;
#X text 158 7 dimen fonctionne sous MacOSX;
#X text 158 -2 dimen ne fonctionne pas sous Windows avec cmera Philips
;
#X text 157 -20 enumerate ne fonctionne pas sous MacOSX \, Linux;
#X obj 298 311 cnv 15 360 120 empty empty empty 20 12 0 14 -258113
-66577 0;
#X text 305 312 driver ne fonctionne pas sous MacOSX \, Windows;
#X text 305 322 driver fonctionne sous Linux;
#X text 302 370 channel ne fonctionne pas sous MacOSX \, Windows;
#X text 302 380 channel fonctionne sous Linux;
#X text 302 392 mode ne fonctionne pas sous MacOSX \, Windows;
#X text 302 402 mode fonctionne sous Linux;
#X text 305 343 video driver 0: video4linux;
#X text 304 353 video driver 1: ieee1394 for linux;
#X text 305 333 Par ex: la fen Pd affiche a l'ouverture du patch:;
#X obj 101 101 tgl 12 1 \$0-A \$0-B empty 15 7 1 9 -262144 -1 -1 1
1;
#X obj 244 409 print;
#X msg 414 278 zoom 2 2;
#X msg 113 353 colorspace Grey;
#X msg 174 377 colorspace Gray;
#X obj 54 50 sel 0;
#X msg 55 75 0;
#X text 40 97 On/Off ->;
#X msg 482 145 0;
#X msg 512 145 1;
#X msg 483 168 swap \$1;
#X text 302 413 swap ne fonctionne pas sous MacOSX;
#X msg 491 216 dimen 800 600;
#X msg 491 239 dimen 400 300;
#X msg 493 260 dimen 799 599;
#X msg 493 283 dimen 512 512;
#X msg 163 244 reset;
#X obj 162 134 bng 12 250 50 0 \$0-A ColorGEM Reset 16 7 1 9 -262144
-1 -1;
#X text 269 100 7 1 2011;
#X text 161 -37 - RGBA ne fonctionne pas sous MacOSX + Pd-0.42.5-extended
;
#X text 161 -58 - Grey fonctionne sous Windows \, Linux;
#X text 161 -68 - Grey ne fonctionne pas sous MacOSX;
#X text 155 -78 colorspace;
#X text 161 -47 - RGBA fonctionne sous MacOSX + Pd-0.41.4-extended
;
#X obj 617 418 cnv 15 41 30 empty empty empty 20 12 0 14 -24198 -66577
0;
#N canvas 350 196 308 136 ?? 0;
#X obj -9 87 cnv 15 300 38 empty empty empty 20 12 0 14 -224896 -66577
0;
#X obj -9 10 cnv 18 300 70 empty empty ARGOPdMiniModules 1 10 1 14
-4033 -1 1.04858e+06;
#X obj 9 29 cnv 10 10 10 empty empty Gerard 0 5 1 9 -4033 -1 1.04858e+06
;
#X obj 40 29 cnv 10 10 10 empty empty Paresys 0 5 1 9 -4033 -1 1.04858e+06
;
#X text -8 89 Construit sous / Build under Pd 0.42.5-extended;
#X obj 39 105 pddplink http://puredata.info/downloads;
#X obj 3 42 pddplink http://pagesperso-orange.fr/Paresys/ARGOPd/;
#X obj 3 57 pddplink http://gerard.paresys.free.fr/ARGOPd/;
#X restore 621 425 pd ??;
#X connect 5 0 6 0;
#X connect 6 0 19 0;
#X connect 7 0 36 0;
#X connect 8 0 21 0;
#X connect 9 0 23 0;
#X connect 10 0 31 0;
#X connect 16 0 34 0;
#X connect 18 0 85 0;
#X connect 19 0 20 0;
#X connect 20 0 4 0;
#X connect 21 0 20 0;
#X connect 22 0 20 0;
#X connect 23 0 22 0;
#X connect 24 0 20 0;
#X connect 25 0 20 0;
#X connect 26 0 20 0;
#X connect 27 0 20 0;
#X connect 28 0 29 0;
#X connect 28 1 27 0;
#X connect 28 2 26 0;
#X connect 28 3 25 0;
#X connect 28 4 24 0;
#X connect 28 5 30 0;
#X connect 29 0 20 0;
#X connect 30 0 20 0;
#X connect 31 0 28 0;
#X connect 32 0 20 0;
#X connect 33 0 20 0;
#X connect 34 0 35 0;
#X connect 35 0 32 0;
#X connect 35 1 33 0;
#X connect 35 2 83 0;
#X connect 36 0 20 0;
#X connect 37 0 20 0;
#X connect 38 0 37 0;
#X connect 39 0 37 0;
#X connect 40 0 37 0;
#X connect 41 0 44 0;
#X connect 42 0 44 0;
#X connect 43 0 44 0;
#X connect 44 0 20 0;
#X connect 45 0 44 0;
#X connect 46 0 50 0;
#X connect 47 0 50 0;
#X connect 48 0 50 0;
#X connect 49 0 50 0;
#X connect 50 0 20 0;
#X connect 51 0 20 0;
#X connect 52 0 20 0;
#X connect 56 0 20 0;
#X connect 58 0 59 0;
#X connect 59 0 34 0;
#X connect 80 0 19 0;
#X connect 83 0 20 0;
#X connect 84 0 20 0;
#X connect 85 0 86 0;
#X connect 86 0 80 0;
#X connect 88 0 90 0;
#X connect 89 0 90 0;
#X connect 90 0 20 0;
#X connect 92 0 20 0;
#X connect 93 0 20 0;
#X connect 94 0 20 0;
#X connect 95 0 20 0;
#X connect 96 0 20 0;
#X connect 97 0 96 0;
#X coords 0 -1 1 1 166 88 1 100 100;
#X restore 167 -139 pd ARGO;
#X obj 341 -122 cnv 15 150 55 empty empty empty 20 12 0 14 -258113
-66577 0;
#X text 346 -122 Dimension ne fonctionne;
#X text 346 -97 Dimension does not work;
#X text 346 -110 pas sous Windows;
#X text 346 -85 under Windows;
#X obj -20 -92 cnv 15 180 40 empty empty empty 20 12 0 14 -258113 -66577
0;
#X text -13 -90 Prefer RGBA under Windows ->;
#X text 5 -70 Prefer YUV under MacOS ->;
#N canvas 404 91 412 315 ARGO 0;
#X text 80 84 gemlist;
#X obj 93 229 pix_texture;
#X obj 95 -3 inlet;
#X msg 71 198 quality \$1;
#X obj 136 20 select 0 1;
#X msg 152 68 0;
#X msg 110 68 set 0;
#X msg 48 108 set \$1;
#X obj 101 101 cnv 10 144 40 empty ColorForm empty 20 12 0 14 -228856
-1 1.04858e+06;
#X obj 101 101 cnv 4 10 4 empty empty empty 20 12 0 14 -128992 -66577
0;
#X obj 164 105 cnv 10 20 10 empty ColorForm GEM-Direct 1 5 1 14 -228856
-1 1.04858e+06;
#X obj 100 118 tgl 12 1 \$0-A ColorGEM Quality 15 6 1 9 -262144 -1
-1 0 1;
#X obj 100 106 tgl 12 1 \$0-A ColorGEM On/Off 15 6 1 9 -262144 -1 -1
1 1;
#X obj 159 199 int;
#X obj 136 -3 r \$0-SendOnOff;
#X obj 187 44 delay 1000;
#X obj 119 44 delay 1000;
#X obj 294 21 cnv 15 60 30 empty empty empty 20 12 0 14 -24198 -66577
0;
#N canvas 379 113 451 562 Help 0;
#X obj 13 281 cnv 15 400 150 empty empty empty 20 12 0 14 -258113 -66577
0;
#X text 16 284 - Erreur dans la fenêtre Pd:;
#X text 28 337 Se produit avec certaines cartes video \, de certains
PC \, sous Windows...;
#X text 28 365 Inconvenient: Charge CPU => la texture est calculée
(objet pix_texture) par le processeur de l'ordinateur et pas par la
carte video);
#X text 28 302 GL: énumérant non valide (répété);
#X text 28 313 OpenGL: invalid enumérant (repeat);
#X obj 13 35 cnv 15 430 180 empty empty empty 20 12 0 14 -233017 -66577
0;
#X text 28 51 Description: apply texture mapping;
#X text 27 69 Send a quality message to change the quality of the texture
mapping. GL_LINEAR is better than GL_NEAREST (but also more computationally
expensive). However \, on many machines (especially SGIs) \, there
is no speed difference.;
#X text 26 128 [pix_texture] tries to use the fastest way to get a
pix onto a texture. This implies using "rectangle"-texturing if available.
This \, in turn \, can lead to some problems with several geos. Try
using "rectangle 0" if you experience problems. Rectangle textures
cannot be REPEATed (they are always clamped-to-edge);
#X text 17 35 Citation;
#X text 15 -18 Envoie l'entrée remplir la fenêtre GEM;
#X text 15 -5 Send the input fill the GEM window;
#X text 4 -42 GEM-Direct;
#X text 28 325 Solution: cocher Compatible dans MM-GEM;
#X text 27 246 Utile avec certaines cartes video de certains PC sous
Windows...;
#X text 27 219 SendMode recu du MM GEM: Compatible = mode 0/1 = rectangle
0/1;
#X text 21 438 Nouveau depuis GEM-Direct 25 3 2010:;
#X text 31 451 - Ajout spigot sur l'entrée;
#X text 31 463 - Flip;
#X text 31 474 - Neg;
#X text 15 11 Neg = Négatif = Negative;
#X text 18 488 Nouveau depuis GEM-Direct 18 8 2011:;
#X text 32 504 - message rectangle au lieu de mode;
#X restore 301 27 pd Help;
#X obj 14 122 == 0;
#X obj 14 36 r SendMode;
#X obj 14 102 nbx 1 14 -1e+37 1e+37 0 1 empty empty empty 0 -6 0 10
-262144 -1 -1 0 256;
#X obj 92 142 spigot;
#X obj 162 130 hradio 12 1 1 4 \$0-A \$0-B 4x3 51 7 1 11 -262144 -1
-1 1;
#N canvas 303 128 648 228 Dimension 0;
#X obj 157 30 inlet;
#X obj 215 196 outlet;
#X obj -24 192 outlet;
#X msg 213 113 label 4x3;
#X msg 279 113 label 16x10;
#X msg 358 114 label 16x9;
#X text 248 25 4/3 = 5.33333333/4;
#X text 236 37 16/10 = 6.4/4;
#X text 242 49 16/9 = 7.11111111/4;
#X msg -157 111 5.33333;
#X msg -102 111 6.4;
#X msg -70 111 7.11111;
#X obj -41 29 inlet;
#X obj 75 31 inlet;
#X text -65 1 Flip Horizontal;
#X text 54 3 Flip Vertical;
#X obj 81 191 outlet;
#X text -32 13 0/1;
#X text 83 15 0/1;
#X obj 75 55 select 0 1;
#X msg 72 112 4;
#X msg 109 112 -4;
#X obj -24 166 *;
#X obj -41 54 select 0 1;
#X msg -14 111 1;
#X msg 22 111 -1;
#X text 248 61 3/4 = 3/4;
#X msg 145 113 label 3x4;
#X obj 157 56 sel 0 1 2 3;
#X msg -188 111 3;
#X obj -13 141 t b f;
#X connect 0 0 28 0;
#X connect 3 0 1 0;
#X connect 4 0 1 0;
#X connect 5 0 1 0;
#X connect 9 0 22 0;
#X connect 10 0 22 0;
#X connect 11 0 22 0;
#X connect 12 0 23 0;
#X connect 13 0 19 0;
#X connect 19 0 20 0;
#X connect 19 1 21 0;
#X connect 20 0 16 0;
#X connect 21 0 16 0;
#X connect 22 0 2 0;
#X connect 23 0 24 0;
#X connect 23 1 25 0;
#X connect 24 0 30 0;
#X connect 25 0 30 0;
#X connect 27 0 1 0;
#X connect 28 0 29 0;
#X connect 28 0 27 0;
#X connect 28 1 9 0;
#X connect 28 1 3 0;
#X connect 28 2 10 0;
#X connect 28 2 4 0;
#X connect 28 3 11 0;
#X connect 28 3 5 0;
#X connect 29 0 22 0;
#X connect 30 0 22 0;
#X connect 30 1 22 1;
#X restore 135 257 pd Dimension;
#X obj 94 284 rectangle 4 4;
#X obj 100 130 tgl 12 1 \$0-A \$0-B empty 15 6 1 9 -262144 -1 -1 0
1;
#X obj 112 130 tgl 12 1 \$0-A \$0-B Flip 15 7 1 9 -262144 -1 -1 0 1
;
#X obj 334 273 cnv 15 48 25 empty empty empty 20 12 0 14 -24198 -66577
0;
#X obj 162 118 tgl 12 1 \$0-A ColorGEM Negative 15 6 1 9 -262144 -1
-1 1 1;
#X msg 191 198 env 5;
#X msg 236 197 env 2;
#X obj 198 170 sel 0 1;
#X obj 198 147 pipe 500;
#X text 271 156 sous Linux;
#X text 253 146 <- Sinon plantage;
#X text 272 166 et Pd-extended-42.5;
#X msg -15 198 rectangle \$1;
#X text 204 84 6 9 2011;
#N canvas 350 196 308 136 ??? 0;
#X obj -6 87 cnv 15 300 38 empty empty empty 20 12 0 14 -224896 -66577
0;
#X obj -6 10 cnv 18 300 70 empty empty ARGOPdMiniModules 3 10 1 14
-4033 -1 1.04858e+06;
#X obj 13 31 cnv 10 10 10 empty empty Gerard 0 5 1 11 -4033 -1 1.04858e+06
;
#X obj 55 30 cnv 10 10 10 empty empty Paresys 0 5 1 11 -4033 -1 1.04858e+06
;
#X text -1 89 Construit sous / Build under Pd 0.42.5-extended;
#X obj 6 43 pddp/pddplink http://pagesperso-orange.fr/Paresys/ARGOPd/
;
#X obj 6 58 pddp/pddplink http://gerard.paresys.free.fr/ARGOPd/;
#X obj 46 105 pddp/pddplink http://puredata.info/downloads;
#X restore 338 277 pd ???;
#X connect 1 0 25 0;
#X connect 2 0 22 0;
#X connect 3 0 1 0;
#X connect 4 0 16 0;
#X connect 4 1 15 0;
#X connect 5 0 1 0;
#X connect 6 0 12 0;
#X connect 7 0 12 0;
#X connect 11 0 3 0;
#X connect 12 0 13 0;
#X connect 12 0 22 1;
#X connect 13 0 1 0;
#X connect 13 0 7 0;
#X connect 14 0 4 0;
#X connect 15 0 13 0;
#X connect 16 0 5 0;
#X connect 16 0 6 0;
#X connect 19 0 37 0;
#X connect 20 0 21 0;
#X connect 21 0 19 0;
#X connect 22 0 1 0;
#X connect 23 0 24 2;
#X connect 24 0 25 1;
#X connect 24 1 25 2;
#X connect 24 2 23 0;
#X connect 26 0 24 0;
#X connect 27 0 24 1;
#X connect 29 0 33 0;
#X connect 30 0 1 0;
#X connect 31 0 1 0;
#X connect 32 0 30 0;
#X connect 32 1 31 0;
#X connect 33 0 32 0;
#X connect 37 0 1 0;
#X coords 0 -1 1 1 146 42 1 100 100;
#X restore 103 349 pd ARGO;
#X obj 538 362 cnv 15 48 25 empty empty empty 20 12 0 14 -24198 -66577
0;
#N canvas 350 196 308 136 ??? 0;
#X obj -6 87 cnv 15 300 38 empty empty empty 20 12 0 14 -224896 -66577
0;
#X obj -6 10 cnv 18 300 70 empty empty ARGOPdMiniModules 3 10 1 14
-4033 -1 1.04858e+06;
#X obj 13 31 cnv 10 10 10 empty empty Gerard 0 5 1 11 -4033 -1 1.04858e+06
;
#X obj 55 30 cnv 10 10 10 empty empty Paresys 0 5 1 11 -4033 -1 1.04858e+06
;
#X text -1 89 Construit sous / Build under Pd 0.42.5-extended;
#X obj 6 43 pddp/pddplink http://pagesperso-orange.fr/Paresys/ARGOPd/
;
#X obj 6 58 pddp/pddplink http://gerard.paresys.free.fr/ARGOPd/;
#X obj 46 105 pddp/pddplink http://puredata.info/downloads;
#X restore 542 366 pd ???;
#X connect 2 0 17 0;
#X connect 2 2 19 0;
#X connect 3 0 4 0;
#X connect 3 0 5 0;
#X connect 4 2 7 0;
#X connect 5 2 7 1;
#X connect 6 0 4 1;
#X connect 7 0 18 0;
#X connect 7 1 18 1;
#X connect 11 0 10 0;
#X connect 17 0 6 0;
#X connect 17 0 5 1;
#X connect 18 0 8 0;
#X connect 18 1 8 1;
#X connect 19 0 4 2;
#X connect 19 0 5 2;
#X connect 20 0 2 0;
#X connect 20 0 33 0;
#X connect 24 0 20 0;
