#N canvas 476 23 667 493 10;
#X obj 47 -104 switch~;
#N canvas 608 166 228 173 ARGOnOff 0;
#X obj 100 100 tgl 18 1 \$0-SendOnOff \$0-ReceiveOnOff On/Off 20 11
1 14 -4033 -1 -1 1 1;
#X obj 99 10 loadbang;
#X msg 99 33 \; pd dsp 1;
#X obj 100 129 outlet;
#X text -50 99 Audio On/Off du patch ->;
#X text -22 45 Audio General On ->;
#X text 107 82 17 3 2010;
#X connect 0 0 3 0;
#X connect 1 0 2 0;
#X coords 0 -1 1 1 65 18 2 100 100;
#X restore 47 -122 pd ARGOnOff;
#N canvas 413 140 402 279 ARGO 0;
#X obj 101 101 cnv 10 88 41 \$0-A \$0-B empty 20 12 0 14 -1 -1 1.04858e+06
;
#X obj 101 109 nbx 4 12 0 1e+37 0 0 \$0 \$0-ReceiveCpuPeak CPUPeak
42 7 1 10 -24198 -1 -24198 22 256;
#X obj 101 122 nbx 4 12 0 1e+37 0 0 \$0 \$0-ReceiveCpuMean CPUMean
42 7 1 10 -24198 -1 -24198 19.48 256;
#X text 141 83 5 3 2009;
#X obj 145 -55 cputime;
#X obj 145 -76 t b b;
#X text 188 24 (c) musil@iem.kug.ac.at;
#X text 230 37 IEM KUG;
#X text 78 18 CPU-load;
#X obj 144 -125 loadbang;
#X text 205 48 graz \, austria 2001;
#X obj 145 -100 metro 500;
#X obj 145 -34 * 0.2;
#X text 237 -88 -dsp-load in %;
#X text 228 -101 measure average- and peak-;
#X obj 37 18 * 100;
#X obj 37 63 int;
#X obj 37 41 + 0.499;
#X obj 37 86 * 0.01;
#N canvas 524 162 422 273 1p1zmodif 0;
#X text 134 89 (c) musil@iem.kug.ac.at;
#X text 179 99 IEM KUG;
#X obj 14 195 +;
#X text 151 108 graz \, austria 2001;
#X text 135 71 y[n] = a0*x[n] + a1*x[n-1] + b1*y[n-1];
#X text 18 13 x[n];
#X text 16 244 y[n];
#X text 84 111 y[n-1];
#X text 134 56 <float> control-IIR-filter 1.order;
#X obj 15 28 inlet;
#X obj 14 228 outlet;
#X obj 15 112 * 0.1;
#X obj 59 156 * 0.9;
#X text 139 144 a1 = 0;
#X text 139 155 b1 = 0.9;
#X text 139 133 a0 = 0.1;
#X obj 15 50 t f b;
#X text 135 40 Inspiré de 1p1z;
#X obj 59 112 f 0;
#X connect 2 0 10 0;
#X connect 2 0 18 1;
#X connect 9 0 16 0;
#X connect 11 0 2 0;
#X connect 12 0 2 1;
#X connect 16 0 11 0;
#X connect 16 1 18 0;
#X connect 18 0 12 0;
#X restore 37 -8 pd 1p1zmodif;
#X text 146 9 Inspiré de 5.reference/iemabs/help-dsp.pd;
#X connect 4 0 12 0;
#X connect 5 0 4 0;
#X connect 5 1 4 1;
#X connect 9 0 11 0;
#X connect 11 0 5 0;
#X connect 12 0 19 0;
#X connect 12 0 1 0;
#X connect 15 0 17 0;
#X connect 16 0 18 0;
#X connect 17 0 16 0;
#X connect 18 0 2 0;
#X connect 19 0 15 0;
#X coords 0 -1 1 1 90 43 1 100 100;
#X restore 541 -101 pd ARGO;
#X obj 6 -180 cnv 15 15 15 empty empty ExMM35a-GEM2Images-Transp.pd
0 8 1 14 -262144 -1 0;
#X text 364 56 à l'autre image.;
#X text 364 45 Cette image se superpose en transparence;
#X text 176 -93 |;
#X text 176 -85 v;
#X text 144 -104 On/Off Image;
#X text 358 -17 |;
#X text 358 -9 v;
#X text 326 -28 On/Off Image;
#X text 455 -30 Image size;
#X text 485 -17 |;
#X text 485 -9 v;
#X text 304 -93 |;
#X text 304 -85 v;
#X text 260 -105 Taille de l'image;
#X text 365 84 This image is superimposed in transparency;
#X text 365 95 to the other image.;
#N canvas 125 90 457 379 ARGO 0;
#X obj 101 101 cnv 10 298 34 \$0-A \$0-B empty 20 12 0 14 -228856 -1
1.04858e+06;
#X obj 101 131 cnv 4 10 4 empty empty empty 20 12 0 14 -128992 -66577
0;
#X obj 113 101 nbx 3 12 1 100 0 1 \$0-A \$0-B Render 33 7 1 9 -262144
-1 -1 50 256;
#X obj 102 261 pix_image;
#X obj 101 233 gemhead;
#X msg 114 207 set \$1;
#X obj 103 326 outlet;
#X obj 148 -32 loadbang;
#X obj 148 1 delay 1000;
#X obj 64 0 openpanel;
#X msg 92 44 set \$1;
#X msg 28 232 open \$1;
#X obj 28 207 list2symbol;
#X obj 64 22 t b s;
#X obj -49 208 list2symbol;
#X obj 149 24 t b b;
#X obj -29 -32 r \$0-SendOnOff;
#X obj -29 -4 t f f;
#X obj 302 25 cnv 15 60 30 empty empty empty 20 12 0 14 -24198 -66577
0;
#N canvas 184 22 812 648 Help 0;
#X text 17 -7 - ATTENTION: GEM doit etre "On";
#X text 18 7 - Ouvre des fichiers image JPEG \, TIFF \, PNG...;
#X text 17 52 - Si le module est sauvé avec 1 nom de fichier \, Ce
fichier sera lu automatiquement a la prochaine ouverture s'il n'a pas
changé d'emplacement.;
#X obj 12 393 cnv 15 760 480 empty empty empty 20 12 0 14 -258113 -66577
0;
#X text 52 422 Solution: ne pas utiliser d'accent dans les noms de
fichier;
#X text 51 477 Se produit avec certaines cartes video \, de certains
PC \, sous Windows...;
#X text 51 503 Inconvenient: Charge CPU => la texture est calculée
(objet pix_texture) par le processeur de l'ordinateur et pas par la
carte video);
#X text 15 396 - Erreur dans la fenêtre Pd:;
#X text 19 633 - Dans la fenêtre GEM les couleurs de l'image ne sont
pas correctes.;
#X text 39 438 - GL: énumérant non valide (répété);
#X text 39 409 - error:GemImageLoad:Unable to find file: C:/Ima/Gérard.jpg
;
#X text 94 700 http://rsb.info.nih.gov/ij/download.html;
#X text 40 659 - Solution 1: Si le fichier a été enregistré avec Photoshop:
ne pas cocher l'option Couleur "Profill CC";
#X text 21 91 - Peut Ouvrir automatiquement 1 fichier qui se trouve
dans le même dossier que lui \, quelquesoit l'emplacement du dossier.
Pour cela taper le nom du fichier (sans chemin d'accés) dans le message.
Sauver le module. Le dossier contenant le module ARGO et le fichier
image est ainsi transportable.;
#X text 51 464 Solution: cocher Compatible dans le MM GEM;
#X text 40 686 - Solution 2: Réenregistrer le fichier avec le logiciel
ImageJ;
#X obj 13 180 cnv 15 400 200 empty empty empty 20 12 0 14 -233017 -66577
0;
#X text 35 210 Description: loads in an image file;
#X text 35 196 Synopsis: [pix_image];
#X text 34 227 [pix_image] loads in an image to be used a texture \,
bitblit \, or something else. If you don't give it a default image
file \, you can send the open message with a filename.;
#X text 34 270 [pix_image] loads in TIFFs \, JPEGs and PNGs.;
#X text 35 289 TIFF-files are loaded using Sam Leffler's libtiff library
\, a great \, portable image file reading and processing package (Thanks
Sam!).;
#X text 33 335 The image can be either drawn directly using [pix_draw]
(VERY slow) or applied as a texture onto a Geo ([pix_texture]);
#X text 16 180 Citation;
#X text 14 -23 GEM-Image;
#X text 40 546 - GL: invalid value;
#X text 124 583 Reduce the size of the image;
#X text 19 21 - Sous MacOSX \, quelquesoit le format de l'image \,
le colorspace est RGBA.;
#X text 40 558 - GL: invalid operation;
#X text 39 451 - OpenGL: invalid enumérant (repeat);
#X text 52 571 Solution 1: Diminuer la taille de l'image;
#X text 52 596 Solution 2: Afficher avec GEM-Draw au lieu de GEM-Direct
;
#X text 124 608 Display with GEM-Draw instead of GEM-Direct;
#X text 17 721 - Dans la fenêtre GEM l'image est déformée.;
#X text 37 735 - Solution : l'image doit avoir des dimensions multiple
de 2;
#X text 17 757 - ATTENTION Bug de l'objet pix_image;
#X text 403 758 - WARNING Bug of pix_image object;
#X text 423 771 - Under Pd-0.41.4-extended under MacOSX.4;
#X text 37 783 - Augmente indéfiniment la place occupée en mémoire
par l'application "pd" à chaque chargement d'une image. Même si la
même image est chargée plusieurs fois.;
#X text 423 784 - Indefinitely increases the memory space used by the
"pd" application to each loading of an image. Even if the same image
is loaded multiple times.;
#X text 405 722 - In GEM window image is distorted.;
#X text 427 737 - Solution: the image must have multiple of 2 dimensions
;
#X text 37 770 - Vu sous Pd-0.41.4-extended sous MacOSX.4;
#X text 25 852 -;
#X text 253 831 - Solution: Pd-0.42.5-extended (GEM 0.92.3);
#X restore 309 31 pd Help;
#X obj 101 101 tgl 12 1 \$0-A \$0-B empty 15 7 1 9 -262144 -1 -1 1
1;
#X msg -10 45 0;
#X text 40 98 On/Off ->;
#X obj -29 21 sel 1 0;
#X obj 104 115 hradio 14 1 0 20 empty empty empty 0 6 0 8 -262144 -1
-1 0;
#X obj 64 -24 bang;
#X obj -36 151 cnv 15 400 50 empty empty empty 20 12 0 14 -260097 -66577
0;
#X text -34 150 Nom du fichier / File name;
#X obj 348 298 cnv 15 41 30 empty empty empty 20 12 0 14 -24198 -66577
0;
#N canvas 350 196 381 103 ? 0;
#X obj 5 49 cnv 15 370 38 empty empty empty 20 12 0 14 -224896 -66577
0;
#X text 6 65 Voir/Look at: http://puredata.info/downloads;
#X obj 4 12 cnv 18 370 30 empty empty ARGOPdMiniModules 1 10 1 14 -4033
-1 1.04858e+06;
#X obj 7 31 cnv 10 10 10 empty empty Gerard 0 5 1 9 -4033 -1 1.04858e+06
;
#X obj 38 31 cnv 10 10 10 empty empty Paresys 0 5 1 9 -4033 -1 1.04858e+06
;
#X obj 175 20 cnv 10 10 10 empty empty http://pagesperso-orange.fr/Paresys/ARGOPd/
0 5 1 9 -4033 -1 1.04858e+06;
#X obj 175 31 cnv 10 10 10 empty empty http://gerard.paresys.free.fr/ARGOPd/
0 5 1 9 -4033 -1 1.04858e+06;
#X text 6 51 Construit sous / Build under Pd 0.41.4-extended;
#X restore 354 305 pd ?;
#X symbolatom 100 114 49 0 0 0 - - -;
#X obj 311 103 cnv 10 20 10 empty ColorGEM GEM-Image 1 5 1 14 -228856
-1 1.04858e+06;
#X msg -24 114 set \$1;
#X text 204 76 |;
#X text 204 84 v;
#X text 167 65 Reload Image;
#N canvas 596 90 458 358 Geminfo 0;
#X obj 67 27 inlet;
#X obj 179 31 inlet;
#X obj 63 307 outlet;
#X text 60 8 gemlist;
#X text 183 13 bang;
#X text 67 324 label;
#X obj 67 90 pix_info;
#X obj 63 147 change;
#X obj 110 147 change;
#X obj 153 146 change;
#X obj 153 171 sel 32993 34233 6409 6408 32992 6407;
#X msg 62 283 label \$1;
#X obj 62 261 tosymbol;
#X obj 157 30 bng 15 250 50 0 empty empty empty 17 7 0 10 -262144 -1
-1;
#X obj 158 92 t b b b;
#X msg 153 205 RGBA;
#X msg 189 205 YUV;
#X msg 224 205 Grey;
#X msg 295 205 RGB;
#X msg 366 205 ?;
#X text 169 238 <- ATTENTION jamais d'espace dans un label;
#X obj -21 206 clip 0 100000;
#X obj 67 206 clip 0 100000;
#X obj 62 239 sprintf %dx%d--%s;
#X connect 0 0 6 0;
#X connect 1 0 14 0;
#X connect 6 1 7 0;
#X connect 6 2 8 0;
#X connect 6 4 9 0;
#X connect 7 0 21 0;
#X connect 8 0 22 0;
#X connect 9 0 10 0;
#X connect 10 0 15 0;
#X connect 10 1 16 0;
#X connect 10 2 17 0;
#X connect 10 3 15 0;
#X connect 10 4 18 0;
#X connect 10 5 18 0;
#X connect 10 6 19 0;
#X connect 11 0 2 0;
#X connect 12 0 11 0;
#X connect 13 0 14 0;
#X connect 14 0 7 0;
#X connect 14 1 8 0;
#X connect 14 2 9 0;
#X connect 15 0 23 2;
#X connect 16 0 23 2;
#X connect 17 0 23 2;
#X connect 18 0 23 2;
#X connect 19 0 23 2;
#X connect 21 0 23 0;
#X connect 22 0 23 1;
#X connect 23 0 12 0;
#X restore 144 292 pd Geminfo;
#X text 84 135 gemlist;
#X obj 202 101 bng 12 250 50 0 \$0-A \$0-B 640x480--RGBA 15 7 1 9 -262144
-1 -1;
#X text 342 81 29 5 2010;
#X msg -29 167 Foule1.jpg;
#X connect 2 0 5 0;
#X connect 3 0 6 0;
#X connect 3 0 36 0;
#X connect 4 0 3 0;
#X connect 5 0 4 0;
#X connect 7 0 8 0;
#X connect 8 0 15 0;
#X connect 9 0 13 0;
#X connect 10 0 30 0;
#X connect 11 0 3 0;
#X connect 12 0 11 0;
#X connect 13 0 30 0;
#X connect 13 1 10 0;
#X connect 14 0 10 0;
#X connect 15 0 30 0;
#X connect 15 1 40 0;
#X connect 16 0 17 0;
#X connect 17 0 23 0;
#X connect 20 0 4 0;
#X connect 21 0 20 0;
#X connect 23 0 40 0;
#X connect 23 1 21 0;
#X connect 24 0 25 0;
#X connect 25 0 9 0;
#X connect 30 0 12 0;
#X connect 30 0 32 0;
#X connect 32 0 40 0;
#X connect 36 0 38 0;
#X connect 38 0 36 1;
#X connect 38 0 30 0;
#X connect 40 0 14 0;
#X coords 0 -1 1 1 300 36 1 100 100;
#X restore 174 -70 pd ARGO;
#N canvas 125 90 457 379 ARGO 0;
#X obj 101 101 cnv 10 298 34 \$0-A \$0-B empty 20 12 0 14 -228856 -1
1.04858e+06;
#X obj 101 131 cnv 4 10 4 empty empty empty 20 12 0 14 -128992 -66577
0;
#X obj 113 101 nbx 3 12 1 100 0 1 \$0-A \$0-B Render 33 7 1 9 -262144
-1 -1 52 256;
#X obj 102 261 pix_image;
#X obj 101 233 gemhead;
#X msg 114 207 set \$1;
#X obj 103 326 outlet;
#X obj 148 -32 loadbang;
#X obj 148 1 delay 1000;
#X obj 64 0 openpanel;
#X msg 92 44 set \$1;
#X msg 28 232 open \$1;
#X obj 28 207 list2symbol;
#X obj 64 22 t b s;
#X obj -49 208 list2symbol;
#X obj 149 24 t b b;
#X obj -29 -32 r \$0-SendOnOff;
#X obj -29 -4 t f f;
#X obj 302 25 cnv 15 60 30 empty empty empty 20 12 0 14 -24198 -66577
0;
#N canvas 184 22 812 648 Help 0;
#X text 17 -7 - ATTENTION: GEM doit etre "On";
#X text 18 7 - Ouvre des fichiers image JPEG \, TIFF \, PNG...;
#X text 17 52 - Si le module est sauvé avec 1 nom de fichier \, Ce
fichier sera lu automatiquement a la prochaine ouverture s'il n'a pas
changé d'emplacement.;
#X obj 12 393 cnv 15 760 480 empty empty empty 20 12 0 14 -258113 -66577
0;
#X text 52 422 Solution: ne pas utiliser d'accent dans les noms de
fichier;
#X text 51 477 Se produit avec certaines cartes video \, de certains
PC \, sous Windows...;
#X text 51 503 Inconvenient: Charge CPU => la texture est calculée
(objet pix_texture) par le processeur de l'ordinateur et pas par la
carte video);
#X text 15 396 - Erreur dans la fenêtre Pd:;
#X text 19 633 - Dans la fenêtre GEM les couleurs de l'image ne sont
pas correctes.;
#X text 39 438 - GL: énumérant non valide (répété);
#X text 39 409 - error:GemImageLoad:Unable to find file: C:/Ima/Gérard.jpg
;
#X text 94 700 http://rsb.info.nih.gov/ij/download.html;
#X text 40 659 - Solution 1: Si le fichier a été enregistré avec Photoshop:
ne pas cocher l'option Couleur "Profill CC";
#X text 21 91 - Peut Ouvrir automatiquement 1 fichier qui se trouve
dans le même dossier que lui \, quelquesoit l'emplacement du dossier.
Pour cela taper le nom du fichier (sans chemin d'accés) dans le message.
Sauver le module. Le dossier contenant le module ARGO et le fichier
image est ainsi transportable.;
#X text 51 464 Solution: cocher Compatible dans le MM GEM;
#X text 40 686 - Solution 2: Réenregistrer le fichier avec le logiciel
ImageJ;
#X obj 13 180 cnv 15 400 200 empty empty empty 20 12 0 14 -233017 -66577
0;
#X text 35 210 Description: loads in an image file;
#X text 35 196 Synopsis: [pix_image];
#X text 34 227 [pix_image] loads in an image to be used a texture \,
bitblit \, or something else. If you don't give it a default image
file \, you can send the open message with a filename.;
#X text 34 270 [pix_image] loads in TIFFs \, JPEGs and PNGs.;
#X text 35 289 TIFF-files are loaded using Sam Leffler's libtiff library
\, a great \, portable image file reading and processing package (Thanks
Sam!).;
#X text 33 335 The image can be either drawn directly using [pix_draw]
(VERY slow) or applied as a texture onto a Geo ([pix_texture]);
#X text 16 180 Citation;
#X text 14 -23 GEM-Image;
#X text 40 546 - GL: invalid value;
#X text 124 583 Reduce the size of the image;
#X text 19 21 - Sous MacOSX \, quelquesoit le format de l'image \,
le colorspace est RGBA.;
#X text 40 558 - GL: invalid operation;
#X text 39 451 - OpenGL: invalid enumérant (repeat);
#X text 52 571 Solution 1: Diminuer la taille de l'image;
#X text 52 596 Solution 2: Afficher avec GEM-Draw au lieu de GEM-Direct
;
#X text 124 608 Display with GEM-Draw instead of GEM-Direct;
#X text 17 721 - Dans la fenêtre GEM l'image est déformée.;
#X text 37 735 - Solution : l'image doit avoir des dimensions multiple
de 2;
#X text 17 757 - ATTENTION Bug de l'objet pix_image;
#X text 403 758 - WARNING Bug of pix_image object;
#X text 423 771 - Under Pd-0.41.4-extended under MacOSX.4;
#X text 37 783 - Augmente indéfiniment la place occupée en mémoire
par l'application "pd" à chaque chargement d'une image. Même si la
même image est chargée plusieurs fois.;
#X text 423 784 - Indefinitely increases the memory space used by the
"pd" application to each loading of an image. Even if the same image
is loaded multiple times.;
#X text 405 722 - In GEM window image is distorted.;
#X text 427 737 - Solution: the image must have multiple of 2 dimensions
;
#X text 37 770 - Vu sous Pd-0.41.4-extended sous MacOSX.4;
#X text 25 852 -;
#X text 253 831 - Solution: Pd-0.42.5-extended (GEM 0.92.3);
#X restore 309 31 pd Help;
#X obj 101 101 tgl 12 1 \$0-A \$0-B empty 15 7 1 9 -262144 -1 -1 1
1;
#X msg -10 45 0;
#X text 40 98 On/Off ->;
#X obj -29 21 sel 1 0;
#X obj 104 115 hradio 14 1 0 20 empty empty empty 0 6 0 8 -262144 -1
-1 0;
#X obj 64 -24 bang;
#X obj -36 151 cnv 15 400 50 empty empty empty 20 12 0 14 -260097 -66577
0;
#X text -34 150 Nom du fichier / File name;
#X obj 348 298 cnv 15 41 30 empty empty empty 20 12 0 14 -24198 -66577
0;
#N canvas 350 196 381 103 ? 0;
#X obj 5 49 cnv 15 370 38 empty empty empty 20 12 0 14 -224896 -66577
0;
#X text 6 65 Voir/Look at: http://puredata.info/downloads;
#X obj 4 12 cnv 18 370 30 empty empty ARGOPdMiniModules 1 10 1 14 -4033
-1 1.04858e+06;
#X obj 7 31 cnv 10 10 10 empty empty Gerard 0 5 1 9 -4033 -1 1.04858e+06
;
#X obj 38 31 cnv 10 10 10 empty empty Paresys 0 5 1 9 -4033 -1 1.04858e+06
;
#X obj 175 20 cnv 10 10 10 empty empty http://pagesperso-orange.fr/Paresys/ARGOPd/
0 5 1 9 -4033 -1 1.04858e+06;
#X obj 175 31 cnv 10 10 10 empty empty http://gerard.paresys.free.fr/ARGOPd/
0 5 1 9 -4033 -1 1.04858e+06;
#X text 6 51 Construit sous / Build under Pd 0.41.4-extended;
#X restore 354 305 pd ?;
#X symbolatom 100 114 49 0 0 0 - - -;
#X obj 311 103 cnv 10 20 10 empty ColorGEM GEM-Image 1 5 1 14 -228856
-1 1.04858e+06;
#X msg -24 114 set \$1;
#X text 204 76 |;
#X text 204 84 v;
#X text 167 65 Reload Image;
#N canvas 596 90 458 358 Geminfo 0;
#X obj 67 27 inlet;
#X obj 179 31 inlet;
#X obj 63 307 outlet;
#X text 60 8 gemlist;
#X text 183 13 bang;
#X text 67 324 label;
#X obj 67 90 pix_info;
#X obj 63 147 change;
#X obj 110 147 change;
#X obj 153 146 change;
#X obj 153 171 sel 32993 34233 6409 6408 32992 6407;
#X msg 62 283 label \$1;
#X obj 62 261 tosymbol;
#X obj 157 30 bng 15 250 50 0 empty empty empty 17 7 0 10 -262144 -1
-1;
#X obj 158 92 t b b b;
#X msg 153 205 RGBA;
#X msg 189 205 YUV;
#X msg 224 205 Grey;
#X msg 295 205 RGB;
#X msg 366 205 ?;
#X text 169 238 <- ATTENTION jamais d'espace dans un label;
#X obj -21 206 clip 0 100000;
#X obj 67 206 clip 0 100000;
#X obj 62 239 sprintf %dx%d--%s;
#X connect 0 0 6 0;
#X connect 1 0 14 0;
#X connect 6 1 7 0;
#X connect 6 2 8 0;
#X connect 6 4 9 0;
#X connect 7 0 21 0;
#X connect 8 0 22 0;
#X connect 9 0 10 0;
#X connect 10 0 15 0;
#X connect 10 1 16 0;
#X connect 10 2 17 0;
#X connect 10 3 15 0;
#X connect 10 4 18 0;
#X connect 10 5 18 0;
#X connect 10 6 19 0;
#X connect 11 0 2 0;
#X connect 12 0 11 0;
#X connect 13 0 14 0;
#X connect 14 0 7 0;
#X connect 14 1 8 0;
#X connect 14 2 9 0;
#X connect 15 0 23 2;
#X connect 16 0 23 2;
#X connect 17 0 23 2;
#X connect 18 0 23 2;
#X connect 19 0 23 2;
#X connect 21 0 23 0;
#X connect 22 0 23 1;
#X connect 23 0 12 0;
#X restore 144 292 pd Geminfo;
#X text 84 135 gemlist;
#X obj 202 101 bng 12 250 50 0 \$0-A \$0-B 640x480--RGBA 15 7 1 9 -262144
-1 -1;
#X text 342 81 29 5 2010;
#X msg -29 167 Chaise2.jpg;
#X connect 2 0 5 0;
#X connect 3 0 6 0;
#X connect 3 0 36 0;
#X connect 4 0 3 0;
#X connect 5 0 4 0;
#X connect 7 0 8 0;
#X connect 8 0 15 0;
#X connect 9 0 13 0;
#X connect 10 0 30 0;
#X connect 11 0 3 0;
#X connect 12 0 11 0;
#X connect 13 0 30 0;
#X connect 13 1 10 0;
#X connect 14 0 10 0;
#X connect 15 0 30 0;
#X connect 15 1 40 0;
#X connect 16 0 17 0;
#X connect 17 0 23 0;
#X connect 20 0 4 0;
#X connect 21 0 20 0;
#X connect 23 0 40 0;
#X connect 23 1 21 0;
#X connect 24 0 25 0;
#X connect 25 0 9 0;
#X connect 30 0 12 0;
#X connect 30 0 32 0;
#X connect 32 0 40 0;
#X connect 36 0 38 0;
#X connect 38 0 36 1;
#X connect 38 0 30 0;
#X connect 40 0 14 0;
#X coords 0 -1 1 1 300 36 1 100 100;
#X restore 356 7 pd ARGO;
#X obj 613 263 cnv 15 41 30 empty empty empty 20 12 0 14 -24198 -66577
0;
#N canvas 350 196 308 136 ?? 0;
#X obj -9 87 cnv 15 300 38 empty empty empty 20 12 0 14 -224896 -66577
0;
#X obj -9 10 cnv 18 300 70 empty empty ARGOPdMiniModules 1 10 1 14
-4033 -1 1.04858e+06;
#X obj 9 29 cnv 10 10 10 empty empty Gerard 0 5 1 9 -4033 -1 1.04858e+06
;
#X obj 40 29 cnv 10 10 10 empty empty Paresys 0 5 1 9 -4033 -1 1.04858e+06
;
#X text -8 89 Construit sous / Build under Pd 0.42.5-extended;
#X obj 39 105 pddplink http://puredata.info/downloads;
#X obj 3 42 pddplink http://pagesperso-orange.fr/Paresys/ARGOPd/;
#X obj 3 57 pddplink http://gerard.paresys.free.fr/ARGOPd/;
#X restore 617 270 pd ??;
#N canvas 298 58 736 570 ARGO 0;
#X obj 467 98 cnv 15 60 30 empty empty empty 20 12 0 14 -24198 -66577
0;
#N canvas 619 94 421 480 Help 0;
#X text 16 173 - FullScreen ne fonctionne pas sous Windows avec certaines
cartes video;
#X obj 15 -24 cnv 15 380 90 empty empty empty 20 12 0 14 -233017 -66577
0;
#X text 20 -26 Citation;
#X text 19 -13 "GEM is the Graphics Environment for Multimedia. It
was originally written by Mark Danks to generate real-time computer
graphics \, especially for audio-visual compositions.";
#X text 19 37 "GEM is a collection of externals which allow the user
to create OpenGL graphics within Pd";
#X text 14 74 - Raccourcis clavier;
#X text 16 130 - En "FullScreen" taper F ou Pomme + Tab sous MacOSX...
;
#X text 124 143 taper F ou Alt + Tab sous Windows...;
#X text 124 155 taper F ou Alt + F4 sous Linux...;
#X obj 14 395 cnv 15 400 190 empty empty empty 20 12 0 14 -258113 -66577
0;
#X text 17 401 Impossible de supprimer la barre de menu sous MacOSX.5
+ Pd-0.41.4-extended;
#X text 17 427 Pas de probleme sous MacOSX.4 + Pd-0.41.4-extended;
#X text 29 483 Solution: Quitter Pd et relancer;
#X text 18 444 - Problème Windows: Quand on sort de fullscreen le dessin
des objets dans les patches est buggé (taille du texte \, HSlider décalés...)
;
#X text 30 495 Vu avec carte Matrox + Windows XP SP2 + Pd-0.41.4-extended
;
#X text 22 552 Solution: cocher Compatible;
#X text 39 287 Inconvenient: Charge CPU => la texture est calculée
(objet pix_texture) par le processeur de l'ordinateur et pas par la
carte video);
#X text 22 529 GL: énumérant non valide (répété);
#X text 22 540 OpenGL: invalid enumérant (repeat);
#X text 18 515 - Erreur dans la fenêtre Pd:;
#X text 16 235 Il faut cocher compatible avec certaines cartes video
\, de certains PC \, sous Windows...;
#X text 17 261 Compatible Off -> mode 1: TEXTURE_RECTANGLE;
#X text 17 273 Compatible On -> mode 0: TEXTURE_2D;
#X text 15 209 - Compatible envoie le message 1 ou 0 à tous les objets
pix_texture des autres modules;
#X text 12 -49 - GEM On ouvre une fenetre;
#X text 138 73 g / G -> GEM On/Off;
#X text 139 87 f / F -> FullScreen On/Off;
#X text 140 100 b /B -> Menu bar On/Off;
#X text 140 114 Echap / Esc -> FullScreen Off;
#X text 19 361 16/9 = 512/288 = 1024/576 = 1152/648 = 1280/720 = 1440/810
;
#X text 13 349 16/10 = 512/320 = 1024/640 = 1152/720 = 1280x800 = 1440/900
;
#X text 347 336 = 1280/960;
#X text 24 337 4/3 = 160/120 = 320/240 = 512/384 = 640/480 = 1024x768
;
#X restore 474 104 pd Help;
#X obj 101 101 cnv 22 183 69 empty empty GEM 5 12 1 18 -1 -262144 1.04858e+06
;
#X obj 191 154 tgl 12 1 \$0-A \$0-ColorGEM (F)ullScreen 15 7 1 11 -24198
-1 -24198 0 1;
#X obj 103 124 tgl 12 1 \$0-A \$0-ColorGEM (G)EM 15 7 1 11 -24198 -1
-24198 1 1;
#X obj 191 105 nbx 2 12 1 30 0 1 \$0-A \$0-ColorGEM Frames/sec 26 7
1 11 -24198 -1 -24198 15 256;
#X obj 191 139 tgl 12 1 \$0-A \$0-ColorGEM KeyShortCut 15 7 1 11 -24198
-1 -24198 1 1;
#X obj 283 -26 key;
#X msg 15 448 create;
#X msg 430 446 destroy;
#X msg 387 446 reset;
#X msg 204 446 fullscreen \$1;
#X msg 488 446 0;
#X obj 169 497 gemwin;
#X obj 68 251 sel 1;
#X msg 191 366 set \$1;
#X msg 160 414 0;
#X msg 87 204 set \$1;
#X msg 68 229 1;
#X msg -80 447 frame \$1;
#X obj 462 381 t b b;
#X obj 429 404 delay 200;
#X msg 294 446 dimen 640 480;
#X msg -15 449 1;
#X obj 283 11 spigot;
#X text -85 365 delay sinon ne marche pas;
#X text -85 376 en Pd-0.39.2-extended-RC1;
#X obj 70 -28 gemkeyname;
#X obj 516 377 select 0 1;
#X obj 78 178 t b f f f;
#X msg 532 424 color 16 22 16;
#X msg 517 401 color 0 22 0;
#X obj 125 67 select 65 97 70 102 76 108 71 103 66 98;
#X obj -25 -25 r SendGEM;
#X obj 519 469 s \$0-ColorGEM;
#X obj 191 124 tgl 12 1 SendMode \$0-ColorGEM Compatible 15 7 1 11
-24198 -1 -24198 0 1;
#X obj 61 68 select 27;
#X msg -21 134 0;
#X obj 103 154 hradio 12 1 1 3 \$0-A \$0-ColorGEM 640x480 39 7 1 11
-24198 -1 -24198 1;
#X obj 246 178 t b f;
#X obj 15 275 t b b b b b b b b b b b b;
#N canvas 0 22 450 300 Dimension 0;
#X obj 169 76 sel 0 1 2;
#X msg 203 141 set dimen 1280 720;
#X msg 187 183 set dimen 640 480;
#X msg 169 225 set dimen 320 240;
#X msg 198 162 label 640x480;
#X msg 213 120 label 1280x720;
#X msg 179 204 label 320x240;
#X obj 169 50 inlet;
#X obj 103 257 outlet;
#X obj 303 259 outlet;
#X connect 0 0 3 0;
#X connect 0 0 6 0;
#X connect 0 1 2 0;
#X connect 0 1 4 0;
#X connect 0 2 1 0;
#X connect 0 2 5 0;
#X connect 1 0 9 0;
#X connect 2 0 9 0;
#X connect 3 0 9 0;
#X connect 4 0 8 0;
#X connect 5 0 8 0;
#X connect 6 0 8 0;
#X connect 7 0 0 0;
#X restore 273 213 pd Dimension;
#X obj 84 303 operating_system;
#X msg 203 393 0;
#X obj 203 415 t f f;
#X obj 85 327 select linux macos windows;
#X obj 61 42 mrpeach/str to_list;
#X text 150 -29 Sortir de fullscreen;
#X text 146 -19 sous Linux avec Esc ->;
#X text -64 37 Sortir de fullscreen;
#X text -76 47 sous MacOS avec Esc ->;
#X obj -3 396 delay 300;
#X obj -15 424 delay 300;
#X msg 71 370 set \$1;
#X msg 64 421 1;
#X obj 187 179 t b f;
#X msg 65 447 border \$1 \, menubar \$1;
#X obj 103 139 tgl 12 1 \$0-A \$0-ColorGEM (B)arMenu 15 7 1 11 -24198
-1 -24198 1 1;
#X obj 137 366 t b b;
#X obj 36 16 spigot;
#X obj 69 -6 == 0;
#X obj -47 68 sel f F g G b B;
#X obj 138 204 t b f b;
#X msg 177 226 1;
#X obj -21 112 t b b;
#X msg 6 158 set 1;
#X obj -33 486 cnv 15 120 30 empty empty empty 20 12 0 14 -258113 -66577
0;
#X obj -16 493 s RenderGEM;
#X obj 533 498 cnv 15 41 30 empty empty empty 20 12 0 14 -24198 -66577
0;
#N canvas 350 196 308 136 ?? 0;
#X obj -9 87 cnv 15 300 38 empty empty empty 20 12 0 14 -224896 -66577
0;
#X obj -9 10 cnv 18 300 70 empty empty ARGOPdMiniModules 1 10 1 14
-4033 -1 1.04858e+06;
#X obj 9 29 cnv 10 10 10 empty empty Gerard 0 5 1 9 -4033 -1 1.04858e+06
;
#X obj 40 29 cnv 10 10 10 empty empty Paresys 0 5 1 9 -4033 -1 1.04858e+06
;
#X text -8 89 Construit sous / Build under Pd 0.42.5-extended;
#X obj 39 105 pddplink http://puredata.info/downloads;
#X obj 3 42 pddplink http://pagesperso-orange.fr/Paresys/ARGOPd/;
#X obj 3 57 pddplink http://gerard.paresys.free.fr/ARGOPd/;
#X restore 537 505 pd ??;
#X text 293 101 24 11 2010;
#X connect 3 0 62 0;
#X connect 4 0 29 0;
#X connect 5 0 19 0;
#X connect 6 0 24 1;
#X connect 7 0 24 0;
#X connect 7 0 36 0;
#X connect 8 0 13 0;
#X connect 9 0 13 0;
#X connect 10 0 13 0;
#X connect 11 0 13 0;
#X connect 12 0 13 0;
#X connect 14 0 40 0;
#X connect 14 1 20 0;
#X connect 15 0 16 0;
#X connect 15 0 43 0;
#X connect 16 0 11 0;
#X connect 17 0 18 0;
#X connect 18 0 14 0;
#X connect 19 0 13 0;
#X connect 20 0 21 0;
#X connect 20 1 12 0;
#X connect 21 0 9 0;
#X connect 22 0 13 0;
#X connect 23 0 13 0;
#X connect 23 0 67 0;
#X connect 24 0 32 0;
#X connect 27 0 60 0;
#X connect 27 1 59 0;
#X connect 28 0 31 0;
#X connect 28 1 30 0;
#X connect 29 0 18 0;
#X connect 29 1 17 0;
#X connect 29 3 28 0;
#X connect 30 0 34 0;
#X connect 31 0 34 0;
#X connect 32 2 3 0;
#X connect 32 3 3 0;
#X connect 32 6 4 0;
#X connect 32 7 4 0;
#X connect 32 8 57 0;
#X connect 32 9 57 0;
#X connect 33 0 4 0;
#X connect 36 0 64 0;
#X connect 37 0 3 0;
#X connect 38 0 39 0;
#X connect 39 0 18 0;
#X connect 39 1 41 0;
#X connect 40 4 51 0;
#X connect 40 7 42 0;
#X connect 40 8 22 0;
#X connect 40 9 10 0;
#X connect 40 10 9 0;
#X connect 40 11 12 0;
#X connect 41 0 38 0;
#X connect 41 1 22 0;
#X connect 42 0 45 0;
#X connect 43 0 44 0;
#X connect 44 0 11 0;
#X connect 45 0 16 0;
#X connect 45 1 58 0;
#X connect 45 2 16 0;
#X connect 46 0 36 0;
#X connect 51 0 8 0;
#X connect 51 0 52 0;
#X connect 52 0 23 0;
#X connect 53 0 54 0;
#X connect 54 0 56 0;
#X connect 55 0 18 0;
#X connect 55 1 53 0;
#X connect 56 0 13 0;
#X connect 57 0 55 0;
#X connect 58 0 54 0;
#X connect 58 1 43 0;
#X connect 59 0 46 0;
#X connect 59 0 61 0;
#X connect 60 0 59 1;
#X connect 61 0 3 0;
#X connect 61 1 3 0;
#X connect 61 2 4 0;
#X connect 61 3 4 0;
#X connect 61 4 57 0;
#X connect 61 5 57 0;
#X connect 62 0 18 0;
#X connect 62 1 15 0;
#X connect 62 2 63 0;
#X connect 63 0 6 0;
#X connect 64 0 37 0;
#X connect 64 1 65 0;
#X connect 65 0 57 0;
#X connect 65 0 54 0;
#X coords 0 -1 1 1 185 71 1 100 100;
#X restore 253 -179 pd ARGO;
#X text 184 15 Clic pour ouvrir une image->;
#X text 203 26 Click to open an image ->;
#X text 1 -63 Clic pour ouvrir une image->;
#X text 20 -52 Click to open an image ->;
#X obj 256 130 cnv 15 300 110 empty empty empty 20 12 0 14 -208064
-66577 0;
#X text 301 175 Click ->;
#X text 258 217 Adjust Alpha ->;
#N canvas 382 135 452 375 ARGO 0;
#X obj 101 101 cnv 10 164 15 empty ColorForm empty 20 12 0 14 -228856
-1 1.04858e+06;
#X obj 101 101 cnv 4 10 4 empty empty empty 20 12 0 14 -128992 -66577
0;
#X obj 140 105 cnv 10 20 10 empty ColorGEM GEM-AlphaEnable 1 5 1 14
-228856 -1 1.04858e+06;
#X obj 92 36 inlet;
#X obj 101 112 cnv 4 10 4 empty empty empty 20 12 0 14 -128992 -66577
0;
#X text 92 180 gemlist;
#X obj 93 164 outlet;
#X obj 112 103 tgl 12 1 \$0-A \$0-B empty 0 0 1 9 -262144 -1 -1 1 1
;
#X obj 124 103 tgl 12 1 \$0-A \$0-B empty 0 0 1 9 -262144 -1 -1 0 1
;
#X obj 93 136 alpha;
#X obj 7 -163 cnv 15 430 185 empty empty empty 20 12 0 14 -233017 -66577
0;
#X text 16 -147 [alpha] turns on and off alpha blending. [alpha] automatically
uses the glBlendFunc(GL_SRC_ALPHA \, GL_ONE_MINUS_SRC_ALPHA) function
from OpenGL. If you want a different blending technique \, you will
need to make your own external. The blending that [alpha] does is the
stereotypical blending which you will usually want. In a nutshell \,
any pixel which has an alpha component will be blended with the pixel
that is in the frame buffer \, producing the usual colored glass effect.
Be aware that the rendering order matters \, so you probably want to
set the gemhead order number high so that the object is rendered after
all of the non-alpha blended ones.;
#X text 8 -165 Citation;
#X text 131 127 ->Inlet 2: blending function: 0=GL_ONE \, 1=GL_ONE_MINUS_SOURCE_ALPHA
;
#X text 269 100 25 3 2010;
#X text 114 76 |;
#X text 114 84 v;
#X text 111 53 Alpha On/Off;
#X text 114 66 |;
#X text 125 76 |;
#X text 125 84 v;
#X text 124 65 Blending function;
#X text 87 18 gemlist;
#X connect 3 0 9 0;
#X connect 7 0 9 0;
#X connect 8 0 9 1;
#X connect 9 0 6 0;
#X coords 0 -1 1 1 166 17 1 100 100;
#X restore 356 177 pd ARGO;
#X text 371 154 |;
#X text 371 162 v;
#X text 368 131 Alpha On/Off;
#X text 371 144 |;
#X text 382 154 |;
#X text 382 162 v;
#X text 381 143 Blending function;
#X text 255 132 Transparence;
#X text 169 -159 GEM On/Off ->;
#X text 84 259 Click ->;
#X text 302 258 Click ->;
#X text 17 204 Etrange Neg dans GEM-Direct;
#X text 17 217 s'applique aux 2 images;
#X text 364 67 Son Render 52 est > Render de l'autre image 50;
#X text 363 107 Its Render 52 is > Render other image 50;
#N canvas 609 264 383 270 ARGO 0;
#X obj 101 101 cnv 10 144 27 empty ColorForm empty 20 12 0 14 -228856
-1 1.04858e+06;
#X obj 101 101 cnv 4 10 4 empty empty empty 20 12 0 14 -128992 -66577
0;
#X obj 136 104 cnv 10 20 10 empty ColorForm GEM-Alpha 1 5 1 14 -228856
-1 1.04858e+06;
#X text 83 80 gemlist;
#X obj 93 34 inlet;
#X obj 101 124 cnv 4 10 4 empty empty empty 20 12 0 14 -128992 -66577
0;
#X text 84 134 gemlist;
#X obj 92 243 outlet;
#X obj 115 117 hsl 129 12 0 1 0 1 \$0-A \$0-B empty 0 7 1 9 -262144
-1 -1 9000 0;
#X obj 228 35 inlet~;
#X obj 235 101 cnv 4 10 4 empty empty empty 20 12 0 14 -1 -66577 0
;
#N canvas 656 29 221 270 Control 0;
#X obj 149 22 inlet;
#X obj 17 225 outlet;
#X text 146 5 Slider;
#X obj 149 225 outlet;
#X text 149 242 Slider;
#X msg 76 184 set \$1;
#X obj 77 61 +~;
#X obj 17 128 change;
#X obj 17 104 snapshot~;
#X obj 77 22 inlet~;
#X msg 149 184 label \$1;
#X obj 149 161 tosymbol;
#X obj 149 114 int;
#X obj 149 138 change;
#X obj 17 22 inlet;
#X obj 17 152 clip 0 1;
#X obj 149 91 * 100;
#X connect 0 0 6 1;
#X connect 0 0 16 0;
#X connect 5 0 3 0;
#X connect 6 0 8 0;
#X connect 7 0 15 0;
#X connect 8 0 7 0;
#X connect 9 0 6 0;
#X connect 10 0 3 0;
#X connect 11 0 10 0;
#X connect 12 0 13 0;
#X connect 13 0 11 0;
#X connect 14 0 8 0;
#X connect 15 0 1 0;
#X connect 15 0 5 0;
#X connect 16 0 12 0;
#X restore 137 182 pd Control;
#X obj 92 154 t a b;
#X text 250 121 2 HSLIDER superposés;
#X text 250 110 ATTENTION;
#X obj 115 117 hsl 129 12 0 1 0 0 \$0-A ColorGEM 70 0 8 1 12 -228856
-1 -1 9000 0;
#X text 225 82 Audio;
#X text 220 70 Control;
#X obj 25 33 cnv 15 60 30 empty empty empty 20 12 0 14 -24198 -66577
0;
#N canvas 312 59 417 226 Help 0;
#X obj 7 -84 cnv 15 400 200 empty empty empty 20 12 0 14 -233017 -66577
0;
#X text 10 -85 Citation;
#X text 25 22 Inlet 5: float: alpha value;
#X text 28 -50 Description: colouring;
#X text 25 -36 [colorRGB] sets the colour of all subsequent shape and
vertex operations until reset by another [color]/[colorRGB] object.
If you set the alpha-value \, you will beed an [alpha] object to enable
alpha-blending;
#X text 22 -69 colorRGB;
#X restore 32 39 pd Help;
#X text 224 58 Alpha;
#X obj 92 212 colorRGB;
#X obj 330 230 cnv 15 41 30 empty empty empty 20 12 0 14 -24198 -66577
0;
#N canvas 350 196 308 136 ?? 0;
#X obj -9 87 cnv 15 300 38 empty empty empty 20 12 0 14 -224896 -66577
0;
#X obj -9 10 cnv 18 300 70 empty empty ARGOPdMiniModules 1 10 1 14
-4033 -1 1.04858e+06;
#X obj 9 29 cnv 10 10 10 empty empty Gerard 0 5 1 9 -4033 -1 1.04858e+06
;
#X obj 40 29 cnv 10 10 10 empty empty Paresys 0 5 1 9 -4033 -1 1.04858e+06
;
#X text -8 89 Construit sous / Build under Pd 0.42.5-extended;
#X obj 39 105 pddplink http://puredata.info/downloads;
#X obj 3 42 pddplink http://pagesperso-orange.fr/Paresys/ARGOPd/;
#X obj 3 57 pddplink http://gerard.paresys.free.fr/ARGOPd/;
#X restore 334 237 pd ??;
#X text 144 82 5 8 2011;
#X connect 4 0 12 0;
#X connect 8 0 11 2;
#X connect 9 0 11 1;
#X connect 11 0 21 4;
#X connect 11 1 15 0;
#X connect 12 0 21 0;
#X connect 12 1 11 0;
#X connect 21 0 7 0;
#X coords 0 -1 1 1 146 29 1 100 100;
#X restore 356 203 pd ARGO;
#N canvas 404 91 403 315 ARGO 0;
#X text 80 84 gemlist;
#X obj 93 229 pix_texture;
#X obj 95 -3 inlet;
#X msg 71 198 quality \$1;
#X obj 136 20 select 0 1;
#X msg 152 68 0;
#X msg 110 68 set 0;
#X msg 48 108 set \$1;
#X obj 101 101 cnv 10 144 40 empty ColorForm empty 20 12 0 14 -228856
-1 1.04858e+06;
#X obj 101 101 cnv 4 10 4 empty empty empty 20 12 0 14 -128992 -66577
0;
#X obj 164 105 cnv 10 20 10 empty ColorForm GEM-Direct 1 5 1 14 -228856
-1 1.04858e+06;
#X obj 100 118 tgl 12 1 \$0-A ColorGEM Quality 15 6 1 9 -262144 -1
-1 0 1;
#X obj 100 106 tgl 12 1 \$0-A ColorGEM On/Off 15 6 1 9 -262144 -1 -1
1 1;
#X obj 159 199 int;
#X obj 136 -3 r \$0-SendOnOff;
#X obj 187 44 delay 1000;
#X obj 119 44 delay 1000;
#X obj 234 7 cnv 15 60 30 empty empty empty 20 12 0 14 -24198 -66577
0;
#N canvas 379 113 456 545 Help 0;
#X obj 13 281 cnv 15 400 150 empty empty empty 20 12 0 14 -258113 -66577
0;
#X text 16 284 - Erreur dans la fenêtre Pd:;
#X text 28 337 Se produit avec certaines cartes video \, de certains
PC \, sous Windows...;
#X text 28 365 Inconvenient: Charge CPU => la texture est calculée
(objet pix_texture) par le processeur de l'ordinateur et pas par la
carte video);
#X text 28 302 GL: énumérant non valide (répété);
#X text 28 313 OpenGL: invalid enumérant (repeat);
#X obj 13 35 cnv 15 430 180 empty empty empty 20 12 0 14 -233017 -66577
0;
#X text 28 51 Description: apply texture mapping;
#X text 27 69 Send a quality message to change the quality of the texture
mapping. GL_LINEAR is better than GL_NEAREST (but also more computationally
expensive). However \, on many machines (especially SGIs) \, there
is no speed difference.;
#X text 26 128 [pix_texture] tries to use the fastest way to get a
pix onto a texture. This implies using "rectangle"-texturing if available.
This \, in turn \, can lead to some problems with several geos. Try
using "rectangle 0" if you experience problems. Rectangle textures
cannot be REPEATed (they are always clamped-to-edge);
#X text 17 35 Citation;
#X text 15 -18 Envoie l'entrée remplir la fenêtre GEM;
#X text 15 -5 Send the input fill the GEM window;
#X text 4 -42 GEM-Direct;
#X text 28 325 Solution: cocher Compatible dans MM-GEM;
#X text 27 246 Utile avec certaines cartes video de certains PC sous
Windows...;
#X text 27 219 SendMode recu du MM GEM: Compatible = mode 0/1 = rectangle
0/1;
#X text 21 438 Nouveau depuis GEM-Direct 25 3 2010:;
#X text 31 451 - Ajout spigot sur l'entrée;
#X text 31 463 - Flip;
#X text 31 474 - Neg;
#X text 15 11 Neg = Négatif = Negative;
#X restore 241 13 pd Help;
#X msg 14 198 mode \$1;
#X obj 14 122 == 0;
#X obj 14 36 r SendMode;
#X obj 14 102 nbx 1 14 -1e+37 1e+37 0 1 empty empty empty 0 -6 0 10
-262144 -1 -1 0 256;
#X obj 92 142 spigot;
#X obj 162 130 hradio 12 1 1 4 \$0-A \$0-B 4x3 51 7 1 11 -262144 -1
-1 1;
#N canvas 303 128 648 228 Dimension 0;
#X obj 157 30 inlet;
#X obj 215 196 outlet;
#X obj -24 192 outlet;
#X msg 213 113 label 4x3;
#X msg 279 113 label 16x10;
#X msg 358 114 label 16x9;
#X text 248 25 4/3 = 5.33333333/4;
#X text 236 37 16/10 = 6.4/4;
#X text 242 49 16/9 = 7.11111111/4;
#X msg -157 111 5.33333;
#X msg -102 111 6.4;
#X msg -70 111 7.11111;
#X obj -41 29 inlet;
#X obj 75 31 inlet;
#X text -65 1 Flip Horizontal;
#X text 54 3 Flip Vertical;
#X obj 81 191 outlet;
#X text -32 13 0/1;
#X text 83 15 0/1;
#X obj 75 55 select 0 1;
#X msg 72 112 4;
#X msg 109 112 -4;
#X obj -24 166 *;
#X obj -41 54 select 0 1;
#X msg -14 111 1;
#X msg 22 111 -1;
#X text 248 61 3/4 = 3/4;
#X msg 145 113 label 3x4;
#X obj 157 56 sel 0 1 2 3;
#X msg -188 111 3;
#X obj -13 141 t b f;
#X connect 0 0 28 0;
#X connect 3 0 1 0;
#X connect 4 0 1 0;
#X connect 5 0 1 0;
#X connect 9 0 22 0;
#X connect 10 0 22 0;
#X connect 11 0 22 0;
#X connect 12 0 23 0;
#X connect 13 0 19 0;
#X connect 19 0 20 0;
#X connect 19 1 21 0;
#X connect 20 0 16 0;
#X connect 21 0 16 0;
#X connect 22 0 2 0;
#X connect 23 0 24 0;
#X connect 23 1 25 0;
#X connect 24 0 30 0;
#X connect 25 0 30 0;
#X connect 27 0 1 0;
#X connect 28 0 29 0;
#X connect 28 0 27 0;
#X connect 28 1 9 0;
#X connect 28 1 3 0;
#X connect 28 2 10 0;
#X connect 28 2 4 0;
#X connect 28 3 11 0;
#X connect 28 3 5 0;
#X connect 29 0 22 0;
#X connect 30 0 22 0;
#X connect 30 1 22 1;
#X restore 135 257 pd Dimension;
#X obj 94 284 rectangle 4 4;
#X obj 100 130 tgl 12 1 \$0-A \$0-B empty 15 6 1 9 -262144 -1 -1 0
1;
#X obj 112 130 tgl 12 1 \$0-A \$0-B Flip 15 7 1 9 -262144 -1 -1 0 1
;
#X obj 331 262 cnv 15 41 30 empty empty empty 20 12 0 14 -24198 -66577
0;
#N canvas 350 196 308 136 ?? 0;
#X obj -9 87 cnv 15 300 38 empty empty empty 20 12 0 14 -224896 -66577
0;
#X obj -9 10 cnv 18 300 70 empty empty ARGOPdMiniModules 1 10 1 14
-4033 -1 1.04858e+06;
#X obj 9 29 cnv 10 10 10 empty empty Gerard 0 5 1 9 -4033 -1 1.04858e+06
;
#X obj 40 29 cnv 10 10 10 empty empty Paresys 0 5 1 9 -4033 -1 1.04858e+06
;
#X text -8 89 Construit sous / Build under Pd 0.42.5-extended;
#X obj 39 105 pddplink http://puredata.info/downloads;
#X obj 3 42 pddplink http://pagesperso-orange.fr/Paresys/ARGOPd/;
#X obj 3 57 pddplink http://gerard.paresys.free.fr/ARGOPd/;
#X restore 335 269 pd ??;
#X obj 198 118 tgl 12 1 \$0-A ColorGEM Neg 15 6 1 9 -262144 -1 -1 0
1;
#X msg 191 198 env 5;
#X msg 236 197 env 2;
#X obj 198 170 sel 0 1;
#X obj 198 147 pipe 500;
#X text 271 156 sous Linux;
#X text 253 146 <- Sinon plantage;
#X text 272 166 et Pd-extended-42.5;
#X text 204 84 17 8 2011;
#X connect 1 0 26 0;
#X connect 2 0 23 0;
#X connect 3 0 1 0;
#X connect 4 0 16 0;
#X connect 4 1 15 0;
#X connect 5 0 1 0;
#X connect 6 0 12 0;
#X connect 7 0 12 0;
#X connect 11 0 3 0;
#X connect 12 0 13 0;
#X connect 12 0 23 1;
#X connect 13 0 1 0;
#X connect 13 0 7 0;
#X connect 14 0 4 0;
#X connect 15 0 13 0;
#X connect 16 0 5 0;
#X connect 16 0 6 0;
#X connect 19 0 1 0;
#X connect 20 0 19 0;
#X connect 21 0 22 0;
#X connect 22 0 20 0;
#X connect 23 0 1 0;
#X connect 24 0 25 2;
#X connect 25 0 26 1;
#X connect 25 1 26 2;
#X connect 25 2 24 0;
#X connect 27 0 25 0;
#X connect 28 0 25 1;
#X connect 31 0 35 0;
#X connect 32 0 1 0;
#X connect 33 0 1 0;
#X connect 34 0 32 0;
#X connect 34 1 33 0;
#X connect 35 0 34 0;
#X coords 0 -1 1 1 146 42 1 100 100;
#X restore 136 257 pd ARGO;
#N canvas 404 91 403 315 ARGO 0;
#X text 80 84 gemlist;
#X obj 93 229 pix_texture;
#X obj 95 -3 inlet;
#X msg 71 198 quality \$1;
#X obj 136 20 select 0 1;
#X msg 152 68 0;
#X msg 110 68 set 0;
#X msg 48 108 set \$1;
#X obj 101 101 cnv 10 144 40 empty ColorForm empty 20 12 0 14 -228856
-1 1.04858e+06;
#X obj 101 101 cnv 4 10 4 empty empty empty 20 12 0 14 -128992 -66577
0;
#X obj 164 105 cnv 10 20 10 empty ColorForm GEM-Direct 1 5 1 14 -228856
-1 1.04858e+06;
#X obj 100 118 tgl 12 1 \$0-A ColorGEM Quality 15 6 1 9 -262144 -1
-1 0 1;
#X obj 100 106 tgl 12 1 \$0-A ColorGEM On/Off 15 6 1 9 -262144 -1 -1
1 1;
#X obj 159 199 int;
#X obj 136 -3 r \$0-SendOnOff;
#X obj 187 44 delay 1000;
#X obj 119 44 delay 1000;
#X obj 234 7 cnv 15 60 30 empty empty empty 20 12 0 14 -24198 -66577
0;
#N canvas 379 113 456 545 Help 0;
#X obj 13 281 cnv 15 400 150 empty empty empty 20 12 0 14 -258113 -66577
0;
#X text 16 284 - Erreur dans la fenêtre Pd:;
#X text 28 337 Se produit avec certaines cartes video \, de certains
PC \, sous Windows...;
#X text 28 365 Inconvenient: Charge CPU => la texture est calculée
(objet pix_texture) par le processeur de l'ordinateur et pas par la
carte video);
#X text 28 302 GL: énumérant non valide (répété);
#X text 28 313 OpenGL: invalid enumérant (repeat);
#X obj 13 35 cnv 15 430 180 empty empty empty 20 12 0 14 -233017 -66577
0;
#X text 28 51 Description: apply texture mapping;
#X text 27 69 Send a quality message to change the quality of the texture
mapping. GL_LINEAR is better than GL_NEAREST (but also more computationally
expensive). However \, on many machines (especially SGIs) \, there
is no speed difference.;
#X text 26 128 [pix_texture] tries to use the fastest way to get a
pix onto a texture. This implies using "rectangle"-texturing if available.
This \, in turn \, can lead to some problems with several geos. Try
using "rectangle 0" if you experience problems. Rectangle textures
cannot be REPEATed (they are always clamped-to-edge);
#X text 17 35 Citation;
#X text 15 -18 Envoie l'entrée remplir la fenêtre GEM;
#X text 15 -5 Send the input fill the GEM window;
#X text 4 -42 GEM-Direct;
#X text 28 325 Solution: cocher Compatible dans MM-GEM;
#X text 27 246 Utile avec certaines cartes video de certains PC sous
Windows...;
#X text 27 219 SendMode recu du MM GEM: Compatible = mode 0/1 = rectangle
0/1;
#X text 21 438 Nouveau depuis GEM-Direct 25 3 2010:;
#X text 31 451 - Ajout spigot sur l'entrée;
#X text 31 463 - Flip;
#X text 31 474 - Neg;
#X text 15 11 Neg = Négatif = Negative;
#X restore 241 13 pd Help;
#X msg 14 198 mode \$1;
#X obj 14 122 == 0;
#X obj 14 36 r SendMode;
#X obj 14 102 nbx 1 14 -1e+37 1e+37 0 1 empty empty empty 0 -6 0 10
-262144 -1 -1 0 256;
#X obj 92 142 spigot;
#X obj 162 130 hradio 12 1 1 4 \$0-A \$0-B 4x3 51 7 1 11 -262144 -1
-1 1;
#N canvas 303 128 648 228 Dimension 0;
#X obj 157 30 inlet;
#X obj 215 196 outlet;
#X obj -24 192 outlet;
#X msg 213 113 label 4x3;
#X msg 279 113 label 16x10;
#X msg 358 114 label 16x9;
#X text 248 25 4/3 = 5.33333333/4;
#X text 236 37 16/10 = 6.4/4;
#X text 242 49 16/9 = 7.11111111/4;
#X msg -157 111 5.33333;
#X msg -102 111 6.4;
#X msg -70 111 7.11111;
#X obj -41 29 inlet;
#X obj 75 31 inlet;
#X text -65 1 Flip Horizontal;
#X text 54 3 Flip Vertical;
#X obj 81 191 outlet;
#X text -32 13 0/1;
#X text 83 15 0/1;
#X obj 75 55 select 0 1;
#X msg 72 112 4;
#X msg 109 112 -4;
#X obj -24 166 *;
#X obj -41 54 select 0 1;
#X msg -14 111 1;
#X msg 22 111 -1;
#X text 248 61 3/4 = 3/4;
#X msg 145 113 label 3x4;
#X obj 157 56 sel 0 1 2 3;
#X msg -188 111 3;
#X obj -13 141 t b f;
#X connect 0 0 28 0;
#X connect 3 0 1 0;
#X connect 4 0 1 0;
#X connect 5 0 1 0;
#X connect 9 0 22 0;
#X connect 10 0 22 0;
#X connect 11 0 22 0;
#X connect 12 0 23 0;
#X connect 13 0 19 0;
#X connect 19 0 20 0;
#X connect 19 1 21 0;
#X connect 20 0 16 0;
#X connect 21 0 16 0;
#X connect 22 0 2 0;
#X connect 23 0 24 0;
#X connect 23 1 25 0;
#X connect 24 0 30 0;
#X connect 25 0 30 0;
#X connect 27 0 1 0;
#X connect 28 0 29 0;
#X connect 28 0 27 0;
#X connect 28 1 9 0;
#X connect 28 1 3 0;
#X connect 28 2 10 0;
#X connect 28 2 4 0;
#X connect 28 3 11 0;
#X connect 28 3 5 0;
#X connect 29 0 22 0;
#X connect 30 0 22 0;
#X connect 30 1 22 1;
#X restore 135 257 pd Dimension;
#X obj 94 284 rectangle 4 4;
#X obj 100 130 tgl 12 1 \$0-A \$0-B empty 15 6 1 9 -262144 -1 -1 0
1;
#X obj 112 130 tgl 12 1 \$0-A \$0-B Flip 15 7 1 9 -262144 -1 -1 0 1
;
#X obj 331 262 cnv 15 41 30 empty empty empty 20 12 0 14 -24198 -66577
0;
#N canvas 350 196 308 136 ?? 0;
#X obj -9 87 cnv 15 300 38 empty empty empty 20 12 0 14 -224896 -66577
0;
#X obj -9 10 cnv 18 300 70 empty empty ARGOPdMiniModules 1 10 1 14
-4033 -1 1.04858e+06;
#X obj 9 29 cnv 10 10 10 empty empty Gerard 0 5 1 9 -4033 -1 1.04858e+06
;
#X obj 40 29 cnv 10 10 10 empty empty Paresys 0 5 1 9 -4033 -1 1.04858e+06
;
#X text -8 89 Construit sous / Build under Pd 0.42.5-extended;
#X obj 39 105 pddplink http://puredata.info/downloads;
#X obj 3 42 pddplink http://pagesperso-orange.fr/Paresys/ARGOPd/;
#X obj 3 57 pddplink http://gerard.paresys.free.fr/ARGOPd/;
#X restore 335 269 pd ??;
#X obj 198 118 tgl 12 1 \$0-A ColorGEM Neg 15 6 1 9 -262144 -1 -1 0
1;
#X msg 191 198 env 5;
#X msg 236 197 env 2;
#X obj 198 170 sel 0 1;
#X obj 198 147 pipe 500;
#X text 271 156 sous Linux;
#X text 253 146 <- Sinon plantage;
#X text 272 166 et Pd-extended-42.5;
#X text 204 84 17 8 2011;
#X connect 1 0 26 0;
#X connect 2 0 23 0;
#X connect 3 0 1 0;
#X connect 4 0 16 0;
#X connect 4 1 15 0;
#X connect 5 0 1 0;
#X connect 6 0 12 0;
#X connect 7 0 12 0;
#X connect 11 0 3 0;
#X connect 12 0 13 0;
#X connect 12 0 23 1;
#X connect 13 0 1 0;
#X connect 13 0 7 0;
#X connect 14 0 4 0;
#X connect 15 0 13 0;
#X connect 16 0 5 0;
#X connect 16 0 6 0;
#X connect 19 0 1 0;
#X connect 20 0 19 0;
#X connect 21 0 22 0;
#X connect 22 0 20 0;
#X connect 23 0 1 0;
#X connect 24 0 25 2;
#X connect 25 0 26 1;
#X connect 25 1 26 2;
#X connect 25 2 24 0;
#X connect 27 0 25 0;
#X connect 28 0 25 1;
#X connect 31 0 35 0;
#X connect 32 0 1 0;
#X connect 33 0 1 0;
#X connect 34 0 32 0;
#X connect 34 1 33 0;
#X connect 35 0 34 0;
#X coords 0 -1 1 1 146 42 1 100 100;
#X restore 356 256 pd ARGO;
#X text 462 -157 cf ExMM35j-GEM2Images-Mix.pd;
#X connect 1 0 0 0;
#X connect 20 0 49 0;
#X connect 21 0 32 0;
#X connect 32 0 48 0;
#X connect 48 0 50 0;
