#N canvas 165 22 854 428 10;
#X obj -144 -11 cnv 15 290 24 empty empty empty 20 12 0 14 -261682
-66577 0;
#X obj -148 -64 cnv 15 280 24 empty empty empty 20 12 0 14 -261682
-66577 0;
#X obj 437 -65 cnv 15 120 24 empty empty empty 20 12 0 14 -261682 -66577
0;
#X obj 435 -9 cnv 15 220 24 empty empty empty 20 12 0 14 -261682 -66577
0;
#X text 438 -11 -> Bang à la fin de la synthèse;
#X text 438 -1 -> Bang at the end of the synthesis;
#X obj 137 -91 bng 15 250 50 0 empty empty empty 17 7 0 10 -262144
-1 -1;
#X text 41 -94 trig Message ->;
#X text -147 -66 N'importe quel message déclenche la lecture ->;
#X text -135 -56 Any message trigs the reading of the file ->;
#X text -115 -13 Bang à la fin de la lecture du fichier <-;
#X text -139 -4 Bang at the end of the reading of the file <-;
#X obj 349 -205 select 123 125;
#X obj 430 -180 makefilename %c;
#X obj 468 -124 tgl 48 0 \$0-B \$0-B F 5 26 2 36 -261476 -262144 -1
0 1;
#X msg 468 -152 label \$1;
#N canvas 204 57 465 472 ARGO 0;
#X obj 254 39 cnv 15 60 30 empty empty empty 20 12 0 14 -24198 -66577
0;
#N canvas 402 65 405 152 Help 0;
#X text 9 25 Nbr = Nombre - Number;
#X text 21 69 - La valeur du nombre est sauvegardée avec le patch ou
est placé le MM.;
#X text 10 52 Modif par rapport a la version precedente du MM Nbr:
;
#X text 23 96 - Le nombre n'est pas sorti a l'ouverture du patch \,
il faut envoyer un bang a l'entrée du MM.;
#X restore 261 45 pd Help;
#X obj -57 -23 cnv 15 170 24 empty empty empty 20 12 0 14 -261682 -66577
0;
#X obj 100 -20 inlet;
#X obj 93 399 cnv 15 170 24 empty empty empty 20 12 0 14 -261682 -66577
0;
#X obj 98 403 outlet;
#X obj 101 101 cnv 10 132 46 empty ColorForm Nbr 107 9 1 14 -261476
-1 1.04858e+06;
#X obj 100 101 bng 12 50 50 0 \$0-A \$0-B empty 14 6 1 9 -262144 -1
-1;
#X obj 101 101 cnv 4 10 4 empty empty empty 20 12 0 14 -260097 -66577
0;
#X obj 101 143 cnv 4 10 4 empty empty empty 20 12 0 14 -260097 -66577
0;
#X obj 115 106 nbx 4 12 66 9999 0 1 \$0-A ColorTime max 40 7 1 9 -262144
-1 -1 90 256;
#X text -57 -16 Input anything message ->;
#X text -57 -26 N'importe quel message ->;
#X obj 115 130 nbx 4 12 -999 9999 0 1 \$0-A ColorTime min 40 7 1 9
-262144 -1 -1 65 256;
#X obj 232 270 random;
#X obj 231 221 -;
#X obj 191 166 + 1;
#X obj 231 246 t b f;
#X text 143 397 -> Nombre;
#X text 144 407 -> Number;
#X obj 264 296 +;
#X msg 270 209 range \$1 9999;
#X obj -46 162 + 1;
#X obj -29 326 int;
#X obj -69 326 + 1;
#X obj -46 259 int;
#X obj -46 185 t f f;
#X obj -46 234 select 1;
#X obj -46 210 >;
#X obj 175 100 vradio 12 1 1 4 \$0-A \$0-B --> 16 6 1 9 -262144 -1
-1 0;
#X obj 189 112 cnv 5 5 5 empty empty <-- 0 6 1 9 -261476 -1 0;
#X obj 189 125 cnv 5 5 5 empty empty <--> 0 6 1 9 -261476 -1 0;
#X obj 189 137 cnv 5 5 5 empty empty Alea 0 6 1 9 -261476 -1 0;
#X obj 39 364 switch 4;
#X obj 61 331 int;
#X obj 18 260 int;
#X obj 18 186 t f f;
#X obj 18 235 select 1;
#X obj 18 163 - 1;
#X obj 18 211 <;
#X obj 110 190 + 1;
#X obj 116 212 t f f;
#X obj 113 265 select 1;
#X obj 130 331 int;
#X obj 110 237 >;
#X msg 124 163 -1;
#X obj 171 263 select 1;
#X obj 171 239 <;
#X msg 159 163 1;
#X obj 109 291 t b b;
#X obj 172 290 t b b;
#X obj -42 64 >;
#X obj -42 132 int;
#X obj -42 87 select 1;
#X obj -42 41 t b f;
#X obj -103 131 int;
#X obj -103 87 select 1;
#X obj -103 42 t b f;
#X obj -103 65 <;
#X obj -103 108 delay 5;
#X obj 229 161 t b f f f f f b f;
#X obj -42 109 delay 5;
#X obj 328 184 + 1;
#X obj 100 118 nbx 4 12 -999 9999 0 1 \$0-A ColorTime empty 40 7 1
9 -262144 -1 -1 70 256;
#X msg 141 51 set \$1;
#X msg 183 78 70;
#X obj 155 -20 loadbang;
#X msg 111 51 1;
#X obj 98 377 spigot 0;
#X obj 155 3 delay 300;
#X obj 155 26 t b b b;
#X text 235 114 25 2 2012;
#X obj 298 393 cnv 15 48 25 empty empty empty 20 12 0 14 -24198 -66577
0;
#N canvas 350 196 308 136 ??? 0;
#X obj -6 87 cnv 15 300 38 empty empty empty 20 12 0 14 -224896 -66577
0;
#X obj -6 10 cnv 18 300 70 empty empty ARGOPdMiniModules 3 10 1 14
-4033 -1 1.04858e+06;
#X obj 13 31 cnv 10 10 10 empty empty Gerard 0 5 1 11 -4033 -1 1.04858e+06
;
#X obj 55 30 cnv 10 10 10 empty empty Paresys 0 5 1 11 -4033 -1 1.04858e+06
;
#X text -1 89 Construit sous / Build under Pd 0.42.5-extended;
#X obj 6 43 pddp/pddplink http://pagesperso-orange.fr/Paresys/ARGOPd/
;
#X obj 6 58 pddp/pddplink http://gerard.paresys.free.fr/ARGOPd/;
#X obj 46 105 pddp/pddplink http://puredata.info/downloads;
#X restore 302 397 pd ???;
#X connect 3 0 7 0;
#X connect 7 0 14 0;
#X connect 7 0 23 0;
#X connect 7 0 34 0;
#X connect 7 0 43 0;
#X connect 10 0 16 0;
#X connect 10 0 28 1;
#X connect 10 0 35 1;
#X connect 10 0 44 1;
#X connect 10 0 52 1;
#X connect 10 0 54 0;
#X connect 13 0 60 0;
#X connect 14 0 20 0;
#X connect 15 0 17 0;
#X connect 16 0 15 0;
#X connect 17 0 14 0;
#X connect 17 1 14 1;
#X connect 20 0 33 4;
#X connect 21 0 10 0;
#X connect 22 0 26 0;
#X connect 23 0 33 1;
#X connect 24 0 33 0;
#X connect 25 0 23 1;
#X connect 26 0 28 0;
#X connect 26 1 23 1;
#X connect 27 0 25 0;
#X connect 28 0 27 0;
#X connect 29 0 24 0;
#X connect 33 0 63 0;
#X connect 34 0 33 2;
#X connect 35 0 34 1;
#X connect 36 0 39 0;
#X connect 36 1 34 1;
#X connect 37 0 35 0;
#X connect 38 0 36 0;
#X connect 39 0 37 0;
#X connect 40 0 41 0;
#X connect 41 0 44 0;
#X connect 41 0 47 0;
#X connect 41 1 43 1;
#X connect 42 0 49 0;
#X connect 43 0 33 3;
#X connect 44 0 42 0;
#X connect 45 0 40 1;
#X connect 46 0 50 0;
#X connect 47 0 46 0;
#X connect 48 0 40 1;
#X connect 49 0 40 0;
#X connect 49 1 45 0;
#X connect 50 0 40 0;
#X connect 50 1 48 0;
#X connect 51 0 53 0;
#X connect 52 0 63 0;
#X connect 53 0 61 0;
#X connect 54 0 51 0;
#X connect 54 1 51 1;
#X connect 55 0 63 0;
#X connect 56 0 59 0;
#X connect 57 0 58 0;
#X connect 57 1 58 1;
#X connect 58 0 56 0;
#X connect 59 0 55 0;
#X connect 60 0 15 0;
#X connect 60 1 15 1;
#X connect 60 2 20 1;
#X connect 60 3 55 1;
#X connect 60 4 57 0;
#X connect 60 5 25 1;
#X connect 60 5 47 1;
#X connect 60 5 39 1;
#X connect 60 6 10 0;
#X connect 60 7 62 0;
#X connect 61 0 52 0;
#X connect 62 0 21 0;
#X connect 63 0 22 0;
#X connect 63 0 38 0;
#X connect 63 0 40 0;
#X connect 63 0 51 0;
#X connect 63 0 58 0;
#X connect 63 0 68 0;
#X connect 64 0 65 0;
#X connect 65 0 63 0;
#X connect 66 0 69 0;
#X connect 67 0 68 1;
#X connect 68 0 5 0;
#X connect 68 0 64 0;
#X connect 69 0 70 0;
#X connect 70 1 67 0;
#X connect 70 2 65 0;
#X coords 0 -1 1 1 134 48 2 100 100;
#X restore 349 -262 pd ARGO;
#X obj 262 134 dac~ 1 2;
#X obj -141 -264 cnv 15 15 15 empty empty ExMM147b-Parole3.pd 0 8 1
14 -262144 -66577 0;
#X text 42 140 .wav file format recorder;
#X text 38 129 Enregistreur audio au format .wav;
#X obj -97 -146 switch~;
#N canvas 608 166 228 173 ARGOnOff 0;
#X obj 100 100 tgl 18 1 \$0-SendOnOff \$0-ReceiveOnOff On/Off 20 11
1 14 -4033 -1 -1 1 1;
#X obj 99 10 loadbang;
#X msg 99 33 \; pd dsp 1;
#X obj 100 129 outlet;
#X text -50 99 Audio On/Off du patch ->;
#X text -22 45 Audio General On ->;
#X text 107 82 17 3 2010;
#X connect 0 0 3 0;
#X connect 1 0 2 0;
#X coords 0 -1 1 1 65 18 2 100 100;
#X restore -97 -164 pd ARGOnOff;
#X text -92 -180 V;
#X text -92 -187 |;
#X text -104 -198 On/Off Patch;
#N canvas 324 59 331 313 ARGO 0;
#X obj 101 101 cnv 20 104 34 empty ColorAmpli empty 20 12 0 14 -261299
-1 1.04858e+06;
#X obj 85 285 outlet~;
#X obj 134 104 cnv 10 20 10 empty ColorAmpli Ampli 1 5 1 14 -261299
-1 1.04858e+06;
#X obj 85 72 inlet~;
#X obj 85 260 *~;
#X obj 103 118 hsl 101 12 -80 20 0 1 \$0-A ColorAmpli 0dB 0 7 1 9 -261299
-1 -1 8000 0;
#X msg -24 161 label \$1;
#X obj -25 138 tosymbol;
#X obj -25 103 sprintf %ddB;
#X obj 101 101 cnv 4 10 4 empty empty empty 20 12 0 14 -1 -66577 0
;
#X obj 101 131 cnv 4 10 4 empty empty empty 20 12 0 14 -1 -66577 0
;
#X text -16 120 -> -80dB..20dB;
#X text 106 182 -> 0.0001..10 = -80dB..20dB;
#X text 209 97 5 5 2011;
#X obj 100 163 expr (pow(10 \, $f1 / 20));
#X text 107 140 -> -80..20;
#X obj 227 270 cnv 15 41 30 empty empty empty 20 12 0 14 -24198 -66577
0;
#N canvas 350 196 308 136 ?? 0;
#X obj -9 87 cnv 15 300 38 empty empty empty 20 12 0 14 -224896 -66577
0;
#X obj -9 10 cnv 18 300 70 empty empty ARGOPdMiniModules 1 10 1 14
-4033 -1 1.04858e+06;
#X obj 9 29 cnv 10 10 10 empty empty Gerard 0 5 1 9 -4033 -1 1.04858e+06
;
#X obj 40 29 cnv 10 10 10 empty empty Paresys 0 5 1 9 -4033 -1 1.04858e+06
;
#X text -8 89 Construit sous / Build under Pd 0.42.5-extended;
#X obj 39 105 pddplink http://puredata.info/downloads;
#X obj 3 42 pddplink http://pagesperso-orange.fr/Paresys/ARGOPd/;
#X obj 3 57 pddplink http://gerard.paresys.free.fr/ARGOPd/;
#X restore 231 277 pd ??;
#X obj 100 206 sel 0.0001;
#X msg 100 234 0;
#X connect 3 0 4 0;
#X connect 4 0 1 0;
#X connect 5 0 8 0;
#X connect 5 0 14 0;
#X connect 6 0 5 0;
#X connect 7 0 6 0;
#X connect 8 0 7 0;
#X connect 14 0 18 0;
#X connect 18 0 19 0;
#X connect 18 1 4 1;
#X connect 19 0 4 1;
#X connect 19 0 7 0;
#X coords 0 -1 1 1 106 36 1 100 100;
#X restore 283 30 pd ARGO;
#N canvas 519 118 604 224 ARGO 0;
#X obj 88 36 inlet~;
#X text -270 51 L'extension .wav est ajoutée au nom du fichier automatiquement
;
#X obj 103 100 hsl 161 17 0 127 0 0 \$0-A \$0-B Record 103 10 1 14
-261299 -261299 -1 0 1;
#X obj 101 101 cnv 4 10 4 empty empty empty 20 12 0 14 -1 -66577 0
;
#X obj 112 100 nbx 4 17 0 9999 0 0 \$0-A ColorTime sec 59 9 1 15 -208064
-1 -1 0 256;
#X obj 282 181 cnv 15 41 30 empty empty empty 20 12 0 14 -24198 -66577
0;
#N canvas 350 196 308 136 ?? 0;
#X obj -9 87 cnv 15 300 38 empty empty empty 20 12 0 14 -224896 -66577
0;
#X obj -9 10 cnv 18 300 70 empty empty ARGOPdMiniModules 1 10 1 14
-4033 -1 1.04858e+06;
#X obj 9 29 cnv 10 10 10 empty empty Gerard 0 5 1 9 -4033 -1 1.04858e+06
;
#X obj 40 29 cnv 10 10 10 empty empty Paresys 0 5 1 9 -4033 -1 1.04858e+06
;
#X text -8 89 Construit sous / Build under Pd 0.42.5-extended;
#X obj 39 105 pddplink http://puredata.info/downloads;
#X obj 3 42 pddplink http://pagesperso-orange.fr/Paresys/ARGOPd/;
#X obj 3 57 pddplink http://gerard.paresys.free.fr/ARGOPd/;
#X restore 286 188 pd ??;
#X text -271 87 Clic n'importe où pour commencer un enregistrement
Audio -> Clic encore pour arrêter l'enregistrement;
#X text -170 114 Click anywhere to start recording Audio ->;
#X text -171 126 Click again to stop recording;
#X text 121 122 Hslider caché transformé en bouton;
#X text 160 81 6 2 2011;
#N canvas 415 66 351 399 record2 0;
#X obj 136 95 sel 0 1;
#X msg 171 260 start;
#X msg 107 259 stop;
#X msg 155 150 open \$1;
#X obj 155 126 savepanel;
#X obj 165 203 delay 1000;
#X obj 245 323 float;
#X obj 291 322 + 1;
#X obj 223 295 metro 1000;
#X msg 291 296 -1;
#X msg 11 257 0;
#X msg 42 257 1;
#X obj 66 210 t b b;
#X obj 165 229 t b b b b;
#N canvas 317 143 290 366 CouleurRecord2 0;
#X obj 122 -19 +;
#X obj 122 37 +;
#X obj 61 -75 * -65536;
#X obj 117 -75 * -256;
#X obj 163 -77 * -1;
#X obj 122 68 - 1;
#X obj 115 -202 inlet;
#X text 77 -97 R;
#X text 123 -99 G;
#X text 172 -98 B;
#X obj 122 123 outlet;
#X text 170 -169 Rouge;
#X msg 134 -121 255;
#X msg 167 -121 0;
#X obj 115 -178 sel 0 1;
#X text 56 -170 Rose;
#X msg 73 -121 200;
#X msg 40 -121 252;
#X obj 134 -148 t b b b;
#X msg 198 -121 0;
#X msg 104 -121 200;
#X obj 40 -148 t b b b;
#X msg 122 96 color \$1 \$1 -1;
#X connect 0 0 1 1;
#X connect 1 0 5 0;
#X connect 2 0 1 0;
#X connect 3 0 0 0;
#X connect 4 0 0 1;
#X connect 5 0 22 0;
#X connect 6 0 14 0;
#X connect 12 0 2 0;
#X connect 13 0 3 0;
#X connect 14 0 21 0;
#X connect 14 1 18 0;
#X connect 16 0 3 0;
#X connect 17 0 2 0;
#X connect 18 0 12 0;
#X connect 18 1 13 0;
#X connect 18 2 19 0;
#X connect 19 0 4 0;
#X connect 20 0 4 0;
#X connect 21 0 17 0;
#X connect 21 1 16 0;
#X connect 21 2 20 0;
#X connect 22 0 10 0;
#X restore 25 326 pd CouleurRecord2;
#X obj 136 75 tgl 15 0 \$0-A \$0-B empty 19 9 1 12 -262144 -258113
-1 0 1;
#X obj 136 30 b;
#X obj 136 52 delay 200;
#X obj 136 8 inlet;
#X obj 25 356 outlet;
#X text 22 372 Couleur;
#X obj 291 356 outlet;
#X text 288 372 Compteur;
#X obj 155 356 outlet;
#X text 152 372 writesf;
#X obj 199 176 t b b;
#X msg 72 33 0;
#X obj 72 8 loadbang;
#X msg 260 124 set 0;
#X msg 261 173 set 1;
#X obj 261 149 b;
#X connect 0 0 12 0;
#X connect 0 1 4 0;
#X connect 0 1 28 0;
#X connect 1 0 23 0;
#X connect 2 0 8 0;
#X connect 2 0 23 0;
#X connect 3 0 23 0;
#X connect 3 0 25 0;
#X connect 4 0 3 0;
#X connect 4 0 30 0;
#X connect 5 0 13 0;
#X connect 6 0 7 0;
#X connect 7 0 6 1;
#X connect 7 0 21 0;
#X connect 8 0 6 0;
#X connect 9 0 7 0;
#X connect 10 0 14 0;
#X connect 11 0 14 0;
#X connect 12 0 10 0;
#X connect 12 1 2 0;
#X connect 13 0 11 0;
#X connect 13 1 1 0;
#X connect 13 2 8 0;
#X connect 13 3 9 0;
#X connect 14 0 19 0;
#X connect 15 0 0 0;
#X connect 16 0 17 0;
#X connect 17 0 15 0;
#X connect 18 0 16 0;
#X connect 25 0 5 0;
#X connect 25 1 9 0;
#X connect 26 0 15 0;
#X connect 27 0 26 0;
#X connect 28 0 15 0;
#X connect 29 0 15 0;
#X connect 30 0 29 0;
#X restore 56 147 pd record2;
#X text 91 19 Input;
#X text -271 34 Enregistreur de fichier audio wav à 1 canal (mono)
;
#X text -271 19 Mono wav file format recorder;
#X obj 171 198 writesf~ 1;
#X connect 0 0 16 0;
#X connect 2 0 12 0;
#X connect 12 0 2 0;
#X connect 12 1 16 0;
#X connect 12 2 4 0;
#X coords 0 -1 1 1 166 17 1 100 100;
#X restore 46 104 pd ARGO;
#X text 110 123 |;
#X text 110 118 ^;
#N canvas 413 140 402 279 ARGO 0;
#X obj 101 101 cnv 10 95 41 \$0-A \$0-B empty 20 12 0 14 -1 -1 1.04858e+06
;
#X obj 101 109 nbx 4 12 0 1e+37 0 0 \$0 \$0-ReceiveCpuPeak CPUPeak
45 7 1 11 -24198 -1 -24198 10 256;
#X obj 101 122 nbx 4 12 0 1e+37 0 0 \$0 \$0-ReceiveCpuMean CPUMean
45 7 1 11 -24198 -1 -24198 10.33 256;
#X obj 145 -55 cputime;
#X obj 145 -76 t b b;
#X text 188 24 (c) musil@iem.kug.ac.at;
#X text 230 37 IEM KUG;
#X text 78 18 CPU-load;
#X obj 144 -125 loadbang;
#X text 205 48 graz \, austria 2001;
#X obj 145 -100 metro 500;
#X obj 145 -34 * 0.2;
#X text 237 -88 -dsp-load in %;
#X text 228 -101 measure average- and peak-;
#X obj 37 18 * 100;
#X obj 37 63 int;
#X obj 37 41 + 0.499;
#X obj 37 86 * 0.01;
#N canvas 524 162 422 273 1p1zmodif 0;
#X text 134 89 (c) musil@iem.kug.ac.at;
#X text 179 99 IEM KUG;
#X obj 14 195 +;
#X text 151 108 graz \, austria 2001;
#X text 135 71 y[n] = a0*x[n] + a1*x[n-1] + b1*y[n-1];
#X text 18 13 x[n];
#X text 16 244 y[n];
#X text 84 111 y[n-1];
#X text 134 56 <float> control-IIR-filter 1.order;
#X obj 15 28 inlet;
#X obj 14 228 outlet;
#X obj 15 112 * 0.1;
#X obj 59 156 * 0.9;
#X text 139 144 a1 = 0;
#X text 139 155 b1 = 0.9;
#X text 139 133 a0 = 0.1;
#X obj 15 50 t f b;
#X text 135 40 Inspiré de 1p1z;
#X obj 59 112 f 0;
#X connect 2 0 10 0;
#X connect 2 0 18 1;
#X connect 9 0 16 0;
#X connect 11 0 2 0;
#X connect 12 0 2 1;
#X connect 16 0 11 0;
#X connect 16 1 18 0;
#X connect 18 0 12 0;
#X restore 37 -8 pd 1p1zmodif;
#X text 146 9 Inspiré de 5.reference/iemabs/help-dsp.pd;
#X text 141 83 25 3 2010;
#X connect 3 0 11 0;
#X connect 4 0 3 0;
#X connect 4 1 3 1;
#X connect 8 0 10 0;
#X connect 10 0 4 0;
#X connect 11 0 18 0;
#X connect 11 0 1 0;
#X connect 14 0 16 0;
#X connect 15 0 17 0;
#X connect 16 0 15 0;
#X connect 17 0 2 0;
#X connect 18 0 14 0;
#X coords 0 -1 1 1 97 43 1 100 100;
#X restore 570 -186 pd ARGO;
#X text 172 38 Niveau general ->;
#X text 178 49 General level ->;
#X obj 641 122 cnv 15 48 25 empty empty empty 20 12 0 14 -24198 -66577
0;
#N canvas 350 196 308 136 ??? 0;
#X obj -6 87 cnv 15 300 38 empty empty empty 20 12 0 14 -224896 -66577
0;
#X obj -6 10 cnv 18 300 70 empty empty ARGOPdMiniModules 3 10 1 14
-4033 -1 1.04858e+06;
#X obj 13 31 cnv 10 10 10 empty empty Gerard 0 5 1 11 -4033 -1 1.04858e+06
;
#X obj 55 30 cnv 10 10 10 empty empty Paresys 0 5 1 11 -4033 -1 1.04858e+06
;
#X text -1 89 Construit sous / Build under Pd 0.42.5-extended;
#X obj 6 43 pddp/pddplink http://pagesperso-orange.fr/Paresys/ARGOPd/
;
#X obj 6 58 pddp/pddplink http://gerard.paresys.free.fr/ARGOPd/;
#X obj 46 105 pddp/pddplink http://puredata.info/downloads;
#X restore 645 126 pd ???;
#X text -101 -247 English text-to-speech synthesis;
#N canvas 170 46 825 531 ARGO 0;
#X obj 95 443 outlet~;
#X msg 249 77 set \$1;
#X obj 95 293 sel 1 0;
#X obj 37 -19 key;
#X obj 36 28 select 32;
#X obj -53 -20 loadbang;
#X msg -9 163 set \$1;
#X obj -39 378 cnv 15 60 30 empty empty empty 20 12 0 14 -24198 -66577
0;
#N canvas 302 39 424 591 Help 0;
#X obj 12 107 cnv 15 400 230 empty empty empty 20 12 0 14 -233017 -66577
0;
#X text 15 106 Citation;
#X obj 11 342 cnv 15 290 60 empty empty empty 20 12 0 14 -258113 -66577
0;
#X text 50 357 < 90 sec at 44100 samples/sec;
#X text 14 346 Audio < 4e+06 samples;
#X obj 11 409 cnv 15 350 170 empty empty empty 20 12 0 14 -258113 -66577
0;
#X text 19 409 ATTENTION;
#X text 33 476 Cela crash Pd...;
#X text 35 545 3 Ré-ouvrir le patch qui vient d'etre fermé;
#X text 35 560 4 Coller le MiniModule dans le patch;
#X text 66 531 (aprés avoir sauvé ce patch au besoin);
#X text 36 518 2 Fermer le patch d'où il a été copié;
#X text 36 504 1 Copier le MiniModule à dupliquer;
#X text 19 490 SOLUTION;
#X text 33 463 en faisant: Pomme D ou Pomme C + Pomme V;
#X text 32 449 Ce MiniModule n'est pas duplicable directement;
#X text 31 424 Bug sous Pd-0.42.5-extended sous MacOSX.5 ou MacOSX.6
\; (pas sous MacOSX.4);
#X text 47 124 flite : text-to-speech synthesis with libflite;
#X text 49 278 Bryan Jurish <moocow@ling.uni-potsdam.de>;
#X text 44 140 ACKNOWLEDGEMENTS:;
#X text 62 155 Flite runtime speech synthesis library by Alan W Black
and Kevin A. Lenzo.;
#X text 12 4 MM Parole3;
#X text 33 19 Utilise l'objet flite de le library moocow;
#X obj 62 182 pddp/pddplink http://www.speech.cs.cmu.edu/flite/;
#X text 62 199 Flite (festival-lite) is a small \, fast run-time synthesis
engine developed at CMU and primarily designed for small embedded machines
and/or large servers. Flite is designed as an alternative synthesis
engine to Festival for voices built using the FestVox suite of voice
building tools.;
#X obj 33 34 pddp/pddplink http://en.wikipedia.org/wiki/Festival_Speech_Synthesis_System
;
#X text 33 51 Fait sous Pd-0.42.5-extended;
#X text 82 64 flite: Text-to-Speech external v0.02-2 by Bryan Jurish
;
#X text 82 76 flite: compiled on Wed Sep 22 03:42:27 EDT 2010 by pd
;
#X restore -32 384 pd Help;
#X obj -53 31 t b b b b;
#X obj 154 434 spigot;
#X obj -22 193 cnv 15 400 90 empty empty empty 20 12 0 14 -260097 -66577
0;
#X obj 101 101 cnv 5 298 28 empty empty empty 20 12 0 14 -262144 -66577
0;
#X obj 410 139 cnv 15 350 170 empty empty empty 20 12 0 14 -258113
-66577 0;
#X text 418 139 ATTENTION;
#X text 432 206 Cela crash Pd...;
#X text 434 275 3 Ré-ouvrir le patch qui vient d'etre fermé;
#X text 434 290 4 Coller le MiniModule dans le patch;
#X text 465 261 (aprés avoir sauvé ce patch au besoin);
#X text 435 248 2 Fermer le patch d'où il a été copié;
#X text 435 234 1 Copier le MiniModule à dupliquer;
#X text 418 220 SOLUTION;
#X text 432 193 en faisant: Pomme D ou Pomme C + Pomme V;
#X obj 103 128 hsl 295 40 0 1 0 0 \$0-A \$0-B 0.9sec 245 36 1 9 -188398
-1 -1 1303 1;
#X obj 244 163 cnv 4 10 4 empty empty empty 20 12 0 14 -1 -66577 0
;
#X text 82 73 Trig Decl;
#X obj 122 100 tgl 12 1 \$0-A \$0-B Play(Space) 14 6 1 9 -262144 -1
-1 1 1;
#X obj 100 100 bng 12 250 50 0 \$0-A \$0-B empty 14 6 1 9 -262144 -1
-1;
#N canvas 415 209 678 351 RenameArray 0;
#X obj -457 -189 realtime;
#X obj -457 -165 * 100;
#X obj -457 -142 int;
#X obj -522 -98 tosymbol;
#X obj -522 -120 sprintf A%d;
#X obj -479 39 pack s s;
#X msg -479 64 \; \$1 rename \$2;
#X obj -479 13 tosymbol;
#X msg -553 -43 set \$1;
#X text -500 68 (1);
#X text -576 -44 (2);
#X text -501 -10 (3);
#X text -360 -201 array -> Voir:;
#X text -360 -188 Help Browser/2.control.examples/15.array.pd;
#X text -360 -175 Help Browser/2.control.examples/16.more.arrays.pd
;
#X text -360 -163 Help Browser/5.reference/all_about_arrays.pd;
#X obj -510 103 outlet;
#X obj -411 -217 inlet;
#X text -278 -99 SOLUTION:;
#X obj -556 102 outlet;
#X text -276 -127 PROBLEME: Comment dupliquer un MiniModule comportant
un ou plusieurs arrays;
#X obj -522 -71 t a a b a;
#X msg -479 -9 A659;
#X text -273 -83 (1) Renommer les arrays;
#X text -274 -68 (2) Renommer le message qui renomme les arrays;
#X text -274 -50 Démarrer en nommant les arrays (graph) A \, B... et
en mettant A \, B... dans (3);
#X connect 0 0 1 0;
#X connect 1 0 2 0;
#X connect 2 0 4 0;
#X connect 3 0 21 0;
#X connect 4 0 3 0;
#X connect 5 0 6 0;
#X connect 7 0 5 0;
#X connect 8 0 22 0;
#X connect 8 0 19 0;
#X connect 17 0 0 1;
#X connect 21 0 8 0;
#X connect 21 1 16 0;
#X connect 21 2 22 0;
#X connect 21 3 5 1;
#X connect 22 0 7 0;
#X restore -19 68 pd RenameArray;
#X obj 706 471 cnv 15 48 25 empty empty empty 20 12 0 14 -24198 -66577
0;
#N canvas 350 196 308 136 ??? 0;
#X obj -6 87 cnv 15 300 38 empty empty empty 20 12 0 14 -224896 -66577
0;
#X obj -6 10 cnv 18 300 70 empty empty ARGOPdMiniModules 3 10 1 14
-4033 -1 1.04858e+06;
#X obj 13 31 cnv 10 10 10 empty empty Gerard 0 5 1 11 -4033 -1 1.04858e+06
;
#X obj 55 30 cnv 10 10 10 empty empty Paresys 0 5 1 11 -4033 -1 1.04858e+06
;
#X text -1 89 Construit sous / Build under Pd 0.42.5-extended;
#X obj 6 43 pddp/pddplink http://pagesperso-orange.fr/Paresys/ARGOPd/
;
#X obj 6 58 pddp/pddplink http://gerard.paresys.free.fr/ARGOPd/;
#X obj 46 105 pddp/pddplink http://puredata.info/downloads;
#X restore 710 475 pd ???;
#X text 431 179 Ce MiniModule n'est pas duplicable directement;
#N canvas 462 252 218 285 label 0;
#X msg -31 194 label \$1;
#X obj -31 172 tosymbol;
#X obj -30 106 int;
#X obj -30 129 / 10;
#X obj -30 151 sprintf %ssec;
#X obj -30 83 / 4410;
#X obj -30 57 inlet;
#X obj -31 217 outlet;
#X connect 0 0 7 0;
#X connect 1 0 0 0;
#X connect 2 0 3 0;
#X connect 3 0 4 0;
#X connect 4 0 1 0;
#X connect 5 0 2 0;
#X connect 6 0 5 0;
#X restore 38 123 pd label;
#X obj 95 381 tabplay~;
#X msg 114 348 stop;
#X obj 196 385 line;
#X msg 227 355 1;
#X obj 284 298 / 44.1;
#X msg 284 322 set \$1;
#X msg 259 355 902.358;
#X msg 196 355 0;
#X obj 132 48 t b b;
#X obj 233 324 t b b b;
#X msg 159 71 0;
#X obj 136 407 t b b;
#N canvas 347 327 389 234 Normalize 0;
#X obj 106 38 inlet;
#X msg 155 175 \; \$1 normalize;
#X obj 105 132 list2symbol;
#X msg 106 107 A659;
#X obj 279 36 inlet;
#X obj 279 59 t b b;
#X connect 0 0 3 0;
#X connect 2 0 1 0;
#X connect 3 0 2 0;
#X connect 4 0 5 0;
#X connect 5 0 3 0;
#X restore 197 173 pd Normalize;
#X obj 100 155 bng 12 50 20 0 \$0-A \$0-B empty 14 6 1 9 -262144 -1
-1;
#X obj 101 163 cnv 4 10 4 empty empty empty 20 12 0 14 -260097 -66577
0;
#X obj 52 473 cnv 15 320 24 empty empty empty 20 12 0 14 -261682 -66577
0;
#X obj 53 477 outlet;
#X msg -20 195 F;
#X obj 389 101 cnv 4 10 4 empty empty empty 20 12 0 14 -260097 -66577
0;
#X obj 99 -22 cnv 15 320 24 empty empty empty 20 12 0 14 -261682 -66577
0;
#X obj 101 -19 inlet;
#X obj 338 103 cnv 3 3 3 empty empty Parole3 1 5 1 14 -262144 -1 1.04858e+06
;
#X text 430 154 Bug sous Pd-0.42.5-extended sous MacOSX.5 ou MacOSX.6
\; (pas sous MacOSX.4);
#X obj 260 402 moocow/flite;
#X obj 101 101 cnv 4 10 4 empty empty empty 20 12 0 14 -260097 -66577
0;
#X obj 387 6 cnv 15 350 24 empty empty empty 20 12 0 14 -261682 -66577
0;
#X obj 385 9 inlet;
#X obj 267 377 cyclone/prepend list;
#X text 98 471 -> Bang à la fin de la lecture du fichier;
#X text 99 481 -> Bang at the end of the reading of the file;
#X obj 383 472 cnv 15 270 24 empty empty empty 20 12 0 14 -261682 -66577
0;
#X obj 388 476 outlet;
#X obj 388 155 bng 12 50 20 0 \$0-A \$0-B empty 14 6 1 9 -262144 -1
-1;
#X obj 389 163 cnv 4 10 4 empty empty empty 20 12 0 14 -260097 -66577
0;
#X text 433 470 -> Bang à la fin de la synthèse;
#X text 434 480 -> Bang at the end of the synthesis;
#X text 138 -24 <- N'importe quel message déclenche la lecture;
#X text 139 -14 <- Any message trigs the reading of the file;
#X obj 287 452 arraysize;
#X obj 260 425 t b b;
#X text -53 194 Text;
#X symbolatom 134 112 44 0 0 0 - - -;
#X obj 251 100 bng 12 250 50 0 \$0-A \$0-B Normalize 15 7 1 9 -262144
-1 -1;
#X obj 197 100 tgl 12 1 \$0-A \$0-B Loop 15 6 1 9 -262144 -1 -1 0 1
;
#N canvas 0 22 844 357 (subpatch) 0;
#X array A659 39794 float 2;
#X coords 0 1 39794 -1 300 40 1;
#X restore 100 128 graph;
#X text 368 82 17 5 2012;
#X text 421 353 list2symbol pour les textes avec espace;
#X text 424 14 <- English text without comma \, "bang" \, semicolon
;
#X text 422 4 <- Texte anglais sans virgule \, "bang" \, point virgule
;
#X obj 249 54 list2symbol;
#X obj 222 30 t b a;
#X connect 1 0 74 0;
#X connect 2 0 33 0;
#X connect 2 0 42 0;
#X connect 2 1 34 0;
#X connect 2 1 40 0;
#X connect 3 0 4 0;
#X connect 4 0 26 0;
#X connect 5 0 9 0;
#X connect 6 0 50 0;
#X connect 9 0 74 0;
#X connect 9 1 50 0;
#X connect 9 2 28 0;
#X connect 10 0 26 0;
#X connect 26 0 2 0;
#X connect 27 0 26 0;
#X connect 27 0 41 0;
#X connect 28 0 33 0;
#X connect 28 0 45 0;
#X connect 28 0 56 0;
#X connect 28 0 71 0;
#X connect 32 0 23 0;
#X connect 33 0 0 0;
#X connect 33 1 44 0;
#X connect 33 1 46 0;
#X connect 34 0 33 0;
#X connect 35 0 23 0;
#X connect 36 0 35 0;
#X connect 37 0 38 0;
#X connect 38 0 39 0;
#X connect 39 0 35 1;
#X connect 40 0 35 0;
#X connect 41 0 26 0;
#X connect 41 1 43 0;
#X connect 42 0 36 0;
#X connect 42 1 39 0;
#X connect 42 2 40 0;
#X connect 43 0 26 0;
#X connect 44 0 10 0;
#X connect 44 1 43 0;
#X connect 46 0 49 0;
#X connect 50 0 82 0;
#X connect 53 0 27 0;
#X connect 56 0 72 0;
#X connect 59 0 83 0;
#X connect 60 0 56 0;
#X connect 65 0 64 0;
#X connect 71 0 37 0;
#X connect 71 0 32 0;
#X connect 72 0 65 0;
#X connect 72 1 71 0;
#X connect 74 0 6 0;
#X connect 74 0 60 0;
#X connect 75 0 45 1;
#X connect 76 0 10 1;
#X connect 82 0 1 0;
#X connect 83 0 74 0;
#X connect 83 1 82 0;
#X coords 0 -1 1 1 300 68 2 100 100;
#X restore 137 -60 pd ARGO;
#X text 439 -57 <- English text;
#X text 439 -67 <- Texte anglais;
#X connect 6 0 36 0;
#X connect 12 2 13 0;
#X connect 13 0 15 0;
#X connect 13 0 36 1;
#X connect 15 0 14 0;
#X connect 16 0 12 0;
#X connect 22 0 21 0;
#X connect 26 0 27 0;
#X connect 26 0 17 0;
#X connect 26 0 17 1;
#X connect 36 0 16 0;
#X connect 36 1 26 0;
#X connect 36 2 6 0;
