#N canvas 245 22 625 382 10;
#X obj 222 -96 bng 15 250 50 0 empty empty empty 17 7 0 10 -262144
-1 -1;
#X obj 200 133 dac~ 1 2;
#X obj -90 -221 cnv 15 15 15 empty empty ExMM147c-Parole3.pd 0 8 1
14 -262144 -66577 0;
#X text -20 139 .wav file format recorder;
#X text -24 128 Enregistreur audio au format .wav;
#X obj 21 -120 switch~;
#N canvas 608 166 228 173 ARGOnOff 0;
#X obj 100 100 tgl 18 1 \$0-SendOnOff \$0-ReceiveOnOff On/Off 20 11
1 14 -4033 -1 -1 1 1;
#X obj 99 10 loadbang;
#X msg 99 33 \; pd dsp 1;
#X obj 100 129 outlet;
#X text -50 99 Audio On/Off du patch ->;
#X text -22 45 Audio General On ->;
#X text 107 82 17 3 2010;
#X connect 0 0 3 0;
#X connect 1 0 2 0;
#X coords 0 -1 1 1 65 18 2 100 100;
#X restore 21 -138 pd ARGOnOff;
#X text 26 -154 V;
#X text 26 -161 |;
#X text 14 -172 On/Off Patch;
#X text 48 122 |;
#X text 48 117 ^;
#N canvas 413 140 402 279 ARGO 0;
#X obj 101 101 cnv 10 95 41 \$0-A \$0-B empty 20 12 0 14 -1 -1 1.04858e+06
;
#X obj 101 109 nbx 4 12 0 1e+37 0 0 \$0 \$0-ReceiveCpuPeak CPUPeak
45 7 1 11 -24198 -1 -24198 6 256;
#X obj 101 122 nbx 4 12 0 1e+37 0 0 \$0 \$0-ReceiveCpuMean CPUMean
45 7 1 11 -24198 -1 -24198 5.65 256;
#X obj 145 -55 cputime;
#X obj 145 -76 t b b;
#X text 188 24 (c) musil@iem.kug.ac.at;
#X text 230 37 IEM KUG;
#X text 78 18 CPU-load;
#X obj 144 -125 loadbang;
#X text 205 48 graz \, austria 2001;
#X obj 145 -100 metro 500;
#X obj 145 -34 * 0.2;
#X text 237 -88 -dsp-load in %;
#X text 228 -101 measure average- and peak-;
#X obj 37 18 * 100;
#X obj 37 63 int;
#X obj 37 41 + 0.499;
#X obj 37 86 * 0.01;
#N canvas 524 162 422 273 1p1zmodif 0;
#X text 134 89 (c) musil@iem.kug.ac.at;
#X text 179 99 IEM KUG;
#X obj 14 195 +;
#X text 151 108 graz \, austria 2001;
#X text 135 71 y[n] = a0*x[n] + a1*x[n-1] + b1*y[n-1];
#X text 18 13 x[n];
#X text 16 244 y[n];
#X text 84 111 y[n-1];
#X text 134 56 <float> control-IIR-filter 1.order;
#X obj 15 28 inlet;
#X obj 14 228 outlet;
#X obj 15 112 * 0.1;
#X obj 59 156 * 0.9;
#X text 139 144 a1 = 0;
#X text 139 155 b1 = 0.9;
#X text 139 133 a0 = 0.1;
#X obj 15 50 t f b;
#X text 135 40 Inspiré de 1p1z;
#X obj 59 112 f 0;
#X connect 2 0 10 0;
#X connect 2 0 18 1;
#X connect 9 0 16 0;
#X connect 11 0 2 0;
#X connect 12 0 2 1;
#X connect 16 0 11 0;
#X connect 16 1 18 0;
#X connect 18 0 12 0;
#X restore 37 -8 pd 1p1zmodif;
#X text 146 9 Inspiré de 5.reference/iemabs/help-dsp.pd;
#X text 141 83 25 3 2010;
#X connect 3 0 11 0;
#X connect 4 0 3 0;
#X connect 4 1 3 1;
#X connect 8 0 10 0;
#X connect 10 0 4 0;
#X connect 11 0 18 0;
#X connect 11 0 1 0;
#X connect 14 0 16 0;
#X connect 15 0 17 0;
#X connect 16 0 15 0;
#X connect 17 0 2 0;
#X connect 18 0 14 0;
#X coords 0 -1 1 1 97 43 1 100 100;
#X restore 415 -201 pd ARGO;
#X text 68 45 Niveau general ->;
#X text 74 56 General level ->;
#X obj 473 124 cnv 15 48 25 empty empty empty 20 12 0 14 -24198 -66577
0;
#N canvas 350 196 308 136 ??? 0;
#X obj -6 87 cnv 15 300 38 empty empty empty 20 12 0 14 -224896 -66577
0;
#X obj -6 10 cnv 18 300 70 empty empty ARGOPdMiniModules 3 10 1 14
-4033 -1 1.04858e+06;
#X obj 13 31 cnv 10 10 10 empty empty Gerard 0 5 1 11 -4033 -1 1.04858e+06
;
#X obj 55 30 cnv 10 10 10 empty empty Paresys 0 5 1 11 -4033 -1 1.04858e+06
;
#X text -1 89 Construit sous / Build under Pd 0.42.5-extended;
#X obj 6 43 pddp/pddplink http://pagesperso-orange.fr/Paresys/ARGOPd/
;
#X obj 6 58 pddp/pddplink http://gerard.paresys.free.fr/ARGOPd/;
#X obj 46 105 pddp/pddplink http://puredata.info/downloads;
#X restore 477 128 pd ???;
#X text -75 -207 English text-to-speech synthesis;
#N canvas 170 46 825 531 ARGO 0;
#X obj 95 443 outlet~;
#X msg 249 77 set \$1;
#X obj 95 293 sel 1 0;
#X obj 37 -19 key;
#X obj 36 28 select 32;
#X obj -53 -20 loadbang;
#X msg -9 163 set \$1;
#X obj -39 378 cnv 15 60 30 empty empty empty 20 12 0 14 -24198 -66577
0;
#N canvas 302 39 424 591 Help 0;
#X obj 12 107 cnv 15 400 230 empty empty empty 20 12 0 14 -233017 -66577
0;
#X text 15 106 Citation;
#X obj 11 342 cnv 15 290 60 empty empty empty 20 12 0 14 -258113 -66577
0;
#X text 50 357 < 90 sec at 44100 samples/sec;
#X text 14 346 Audio < 4e+06 samples;
#X obj 11 409 cnv 15 350 170 empty empty empty 20 12 0 14 -258113 -66577
0;
#X text 19 409 ATTENTION;
#X text 33 476 Cela crash Pd...;
#X text 35 545 3 Ré-ouvrir le patch qui vient d'etre fermé;
#X text 35 560 4 Coller le MiniModule dans le patch;
#X text 66 531 (aprés avoir sauvé ce patch au besoin);
#X text 36 518 2 Fermer le patch d'où il a été copié;
#X text 36 504 1 Copier le MiniModule à dupliquer;
#X text 19 490 SOLUTION;
#X text 33 463 en faisant: Pomme D ou Pomme C + Pomme V;
#X text 32 449 Ce MiniModule n'est pas duplicable directement;
#X text 31 424 Bug sous Pd-0.42.5-extended sous MacOSX.5 ou MacOSX.6
\; (pas sous MacOSX.4);
#X text 47 124 flite : text-to-speech synthesis with libflite;
#X text 49 278 Bryan Jurish <moocow@ling.uni-potsdam.de>;
#X text 44 140 ACKNOWLEDGEMENTS:;
#X text 62 155 Flite runtime speech synthesis library by Alan W Black
and Kevin A. Lenzo.;
#X text 12 4 MM Parole3;
#X text 33 19 Utilise l'objet flite de le library moocow;
#X obj 62 182 pddp/pddplink http://www.speech.cs.cmu.edu/flite/;
#X text 62 199 Flite (festival-lite) is a small \, fast run-time synthesis
engine developed at CMU and primarily designed for small embedded machines
and/or large servers. Flite is designed as an alternative synthesis
engine to Festival for voices built using the FestVox suite of voice
building tools.;
#X obj 33 34 pddp/pddplink http://en.wikipedia.org/wiki/Festival_Speech_Synthesis_System
;
#X text 33 51 Fait sous Pd-0.42.5-extended;
#X text 82 64 flite: Text-to-Speech external v0.02-2 by Bryan Jurish
;
#X text 82 76 flite: compiled on Wed Sep 22 03:42:27 EDT 2010 by pd
;
#X restore -32 384 pd Help;
#X obj -53 31 t b b b b;
#X obj 154 434 spigot;
#X obj -22 193 cnv 15 400 90 empty empty empty 20 12 0 14 -260097 -66577
0;
#X obj 101 101 cnv 5 298 28 empty empty empty 20 12 0 14 -262144 -66577
0;
#X obj 410 139 cnv 15 350 170 empty empty empty 20 12 0 14 -258113
-66577 0;
#X text 418 139 ATTENTION;
#X text 432 206 Cela crash Pd...;
#X text 434 275 3 Ré-ouvrir le patch qui vient d'etre fermé;
#X text 434 290 4 Coller le MiniModule dans le patch;
#X text 465 261 (aprés avoir sauvé ce patch au besoin);
#X text 435 248 2 Fermer le patch d'où il a été copié;
#X text 435 234 1 Copier le MiniModule à dupliquer;
#X text 418 220 SOLUTION;
#X text 432 193 en faisant: Pomme D ou Pomme C + Pomme V;
#X obj 103 128 hsl 295 40 0 1 0 0 \$0-A \$0-B 1sec 245 36 1 9 -188398
-1 -1 0 1;
#X obj 244 163 cnv 4 10 4 empty empty empty 20 12 0 14 -1 -66577 0
;
#X text 82 73 Trig Decl;
#X obj 122 100 tgl 12 1 \$0-A \$0-B Play(Space) 14 6 1 9 -262144 -1
-1 0 1;
#X obj 100 100 bng 12 250 50 0 \$0-A \$0-B empty 14 6 1 9 -262144 -1
-1;
#N canvas 415 209 678 351 RenameArray 0;
#X obj -457 -189 realtime;
#X obj -457 -165 * 100;
#X obj -457 -142 int;
#X obj -522 -98 tosymbol;
#X obj -522 -120 sprintf A%d;
#X obj -479 39 pack s s;
#X msg -479 64 \; \$1 rename \$2;
#X obj -479 13 tosymbol;
#X msg -553 -43 set \$1;
#X text -500 68 (1);
#X text -576 -44 (2);
#X text -501 -10 (3);
#X text -360 -201 array -> Voir:;
#X text -360 -188 Help Browser/2.control.examples/15.array.pd;
#X text -360 -175 Help Browser/2.control.examples/16.more.arrays.pd
;
#X text -360 -163 Help Browser/5.reference/all_about_arrays.pd;
#X obj -510 103 outlet;
#X obj -411 -217 inlet;
#X text -278 -99 SOLUTION:;
#X obj -556 102 outlet;
#X text -276 -127 PROBLEME: Comment dupliquer un MiniModule comportant
un ou plusieurs arrays;
#X obj -522 -71 t a a b a;
#X msg -479 -9 A241;
#X text -273 -83 (1) Renommer les arrays;
#X text -274 -68 (2) Renommer le message qui renomme les arrays;
#X text -274 -50 Démarrer en nommant les arrays (graph) A \, B... et
en mettant A \, B... dans (3);
#X connect 0 0 1 0;
#X connect 1 0 2 0;
#X connect 2 0 4 0;
#X connect 3 0 21 0;
#X connect 4 0 3 0;
#X connect 5 0 6 0;
#X connect 7 0 5 0;
#X connect 8 0 22 0;
#X connect 8 0 19 0;
#X connect 17 0 0 1;
#X connect 21 0 8 0;
#X connect 21 1 16 0;
#X connect 21 2 22 0;
#X connect 21 3 5 1;
#X connect 22 0 7 0;
#X restore -19 68 pd RenameArray;
#X obj 706 471 cnv 15 48 25 empty empty empty 20 12 0 14 -24198 -66577
0;
#N canvas 350 196 308 136 ??? 0;
#X obj -6 87 cnv 15 300 38 empty empty empty 20 12 0 14 -224896 -66577
0;
#X obj -6 10 cnv 18 300 70 empty empty ARGOPdMiniModules 3 10 1 14
-4033 -1 1.04858e+06;
#X obj 13 31 cnv 10 10 10 empty empty Gerard 0 5 1 11 -4033 -1 1.04858e+06
;
#X obj 55 30 cnv 10 10 10 empty empty Paresys 0 5 1 11 -4033 -1 1.04858e+06
;
#X text -1 89 Construit sous / Build under Pd 0.42.5-extended;
#X obj 6 43 pddp/pddplink http://pagesperso-orange.fr/Paresys/ARGOPd/
;
#X obj 6 58 pddp/pddplink http://gerard.paresys.free.fr/ARGOPd/;
#X obj 46 105 pddp/pddplink http://puredata.info/downloads;
#X restore 710 475 pd ???;
#X text 431 179 Ce MiniModule n'est pas duplicable directement;
#N canvas 462 252 218 285 label 0;
#X msg -31 194 label \$1;
#X obj -31 172 tosymbol;
#X obj -30 106 int;
#X obj -30 129 / 10;
#X obj -30 151 sprintf %ssec;
#X obj -30 83 / 4410;
#X obj -30 57 inlet;
#X obj -31 217 outlet;
#X connect 0 0 7 0;
#X connect 1 0 0 0;
#X connect 2 0 3 0;
#X connect 3 0 4 0;
#X connect 4 0 1 0;
#X connect 5 0 2 0;
#X connect 6 0 5 0;
#X restore 38 123 pd label;
#X obj 95 381 tabplay~;
#X msg 114 348 stop;
#X obj 196 385 line;
#X msg 227 355 1;
#X obj 284 298 / 44.1;
#X msg 284 322 set \$1;
#X msg 259 355 1002.81;
#X msg 196 355 0;
#X obj 132 48 t b b;
#X obj 233 324 t b b b;
#X msg 159 71 0;
#X obj 136 407 t b b;
#N canvas 347 327 389 234 Normalize 0;
#X obj 106 38 inlet;
#X msg 155 175 \; \$1 normalize;
#X obj 105 132 list2symbol;
#X msg 106 107 A241;
#X obj 279 36 inlet;
#X obj 279 59 t b b;
#X connect 0 0 3 0;
#X connect 2 0 1 0;
#X connect 3 0 2 0;
#X connect 4 0 5 0;
#X connect 5 0 3 0;
#X restore 197 173 pd Normalize;
#X obj 100 155 bng 12 50 20 0 \$0-A \$0-B empty 14 6 1 9 -262144 -1
-1;
#X obj 101 163 cnv 4 10 4 empty empty empty 20 12 0 14 -260097 -66577
0;
#X obj 52 473 cnv 15 320 24 empty empty empty 20 12 0 14 -261682 -66577
0;
#X obj 53 477 outlet;
#X msg -20 195 30;
#X obj 389 101 cnv 4 10 4 empty empty empty 20 12 0 14 -260097 -66577
0;
#X obj 99 -22 cnv 15 320 24 empty empty empty 20 12 0 14 -261682 -66577
0;
#X obj 101 -19 inlet;
#X obj 338 103 cnv 3 3 3 empty empty Parole3 1 5 1 14 -262144 -1 1.04858e+06
;
#X text 430 154 Bug sous Pd-0.42.5-extended sous MacOSX.5 ou MacOSX.6
\; (pas sous MacOSX.4);
#X obj 260 402 moocow/flite;
#X obj 101 101 cnv 4 10 4 empty empty empty 20 12 0 14 -260097 -66577
0;
#X obj 387 6 cnv 15 350 24 empty empty empty 20 12 0 14 -261682 -66577
0;
#X obj 385 9 inlet;
#X obj 267 377 cyclone/prepend list;
#X text 98 471 -> Bang à la fin de la lecture du fichier;
#X text 99 481 -> Bang at the end of the reading of the file;
#X obj 383 472 cnv 15 270 24 empty empty empty 20 12 0 14 -261682 -66577
0;
#X obj 388 476 outlet;
#X obj 388 155 bng 12 50 20 0 \$0-A \$0-B empty 14 6 1 9 -262144 -1
-1;
#X obj 389 163 cnv 4 10 4 empty empty empty 20 12 0 14 -260097 -66577
0;
#X text 433 470 -> Bang à la fin de la synthèse;
#X text 434 480 -> Bang at the end of the synthesis;
#X text 138 -24 <- N'importe quel message déclenche la lecture;
#X text 139 -14 <- Any message trigs the reading of the file;
#X obj 287 452 arraysize;
#X obj 260 425 t b b;
#X text -53 194 Text;
#X symbolatom 134 112 44 0 0 0 - - -;
#X obj 251 100 bng 12 250 50 0 \$0-A \$0-B Normalize 15 7 1 9 -262144
-1 -1;
#X obj 197 100 tgl 12 1 \$0-A \$0-B Loop 15 6 1 9 -262144 -1 -1 0 1
;
#N canvas 0 22 844 357 (subpatch) 0;
#X array A241 44224 float 2;
#X coords 0 1 44224 -1 300 40 1;
#X restore 100 128 graph;
#X text 368 82 17 5 2012;
#X text 421 353 list2symbol pour les textes avec espace;
#X text 424 14 <- English text without comma \, "bang" \, semicolon
;
#X text 422 4 <- Texte anglais sans virgule \, "bang" \, point virgule
;
#X obj 249 54 list2symbol;
#X obj 222 30 t b a;
#X connect 1 0 74 0;
#X connect 2 0 33 0;
#X connect 2 0 42 0;
#X connect 2 1 34 0;
#X connect 2 1 40 0;
#X connect 3 0 4 0;
#X connect 4 0 26 0;
#X connect 5 0 9 0;
#X connect 6 0 50 0;
#X connect 9 0 74 0;
#X connect 9 1 50 0;
#X connect 9 2 28 0;
#X connect 10 0 26 0;
#X connect 26 0 2 0;
#X connect 27 0 26 0;
#X connect 27 0 41 0;
#X connect 28 0 33 0;
#X connect 28 0 45 0;
#X connect 28 0 56 0;
#X connect 28 0 71 0;
#X connect 32 0 23 0;
#X connect 33 0 0 0;
#X connect 33 1 44 0;
#X connect 33 1 46 0;
#X connect 34 0 33 0;
#X connect 35 0 23 0;
#X connect 36 0 35 0;
#X connect 37 0 38 0;
#X connect 38 0 39 0;
#X connect 39 0 35 1;
#X connect 40 0 35 0;
#X connect 41 0 26 0;
#X connect 41 1 43 0;
#X connect 42 0 36 0;
#X connect 42 1 39 0;
#X connect 42 2 40 0;
#X connect 43 0 26 0;
#X connect 44 0 10 0;
#X connect 44 1 43 0;
#X connect 46 0 49 0;
#X connect 50 0 82 0;
#X connect 53 0 27 0;
#X connect 56 0 72 0;
#X connect 59 0 83 0;
#X connect 60 0 56 0;
#X connect 65 0 64 0;
#X connect 71 0 37 0;
#X connect 71 0 32 0;
#X connect 72 0 65 0;
#X connect 72 1 71 0;
#X connect 74 0 6 0;
#X connect 74 0 60 0;
#X connect 75 0 45 1;
#X connect 76 0 10 1;
#X connect 82 0 1 0;
#X connect 83 0 74 0;
#X connect 83 1 82 0;
#X coords 0 -1 1 1 300 68 2 100 100;
#X restore 222 -65 pd ARGO;
#N canvas 806 175 303 228 ARGO 0;
#X obj 101 101 cnv 10 79 53 empty empty Chrono 15 20 1 14 -208064 -1
1.04858e+06;
#X obj 169 100 bng 12 50 50 0 \$0-A \$0-B Stop -20 7 1 9 -262144 -1
-1;
#X obj 169 62 inlet;
#X obj 170 101 cnv 4 10 4 empty empty empty 20 12 0 14 -260097 -66577
0;
#X obj 208 60 cnv 15 90 20 empty empty empty 20 12 0 14 -261682 -66577
0;
#X obj 100 100 bng 12 50 50 0 \$0-A \$0-B Start 15 7 1 9 -262144 -1
-1;
#X obj 101 101 cnv 4 10 4 empty empty empty 20 12 0 14 -260097 -66577
0;
#N canvas 337 254 262 309 chrono 0;
#X obj 63 169 float;
#X obj 147 151 + 1;
#X msg 79 112 0;
#X obj 35 81 t b b;
#X obj 35 57 inlet;
#X text 33 10 chrono;
#X obj 202 60 inlet;
#X msg 202 87 0;
#X obj 102 57 inlet;
#X text 63 259 number;
#X text 31 35 Start;
#X text 202 40 Stop;
#X obj 124 246 outlet;
#X obj 62 201 / 60;
#X obj 62 245 outlet;
#X obj 124 201 mod 60;
#X obj 60 223 int;
#X text 73 270 min;
#X text 127 261 number;
#X text 138 272 sec;
#X text 145 27 number;
#X text 153 36 sec;
#X text 98 27 number;
#X text 108 38 min;
#X obj 147 57 inlet;
#X obj 106 90 * 60;
#X obj 147 126 +;
#X obj 148 92 t b f;
#X obj 16 112 metro 1000;
#X connect 0 0 13 0;
#X connect 0 0 15 0;
#X connect 1 0 0 1;
#X connect 2 0 0 0;
#X connect 3 0 28 0;
#X connect 3 1 2 0;
#X connect 4 0 3 0;
#X connect 6 0 7 0;
#X connect 7 0 28 0;
#X connect 8 0 25 0;
#X connect 13 0 16 0;
#X connect 15 0 12 0;
#X connect 16 0 14 0;
#X connect 24 0 27 0;
#X connect 25 0 26 0;
#X connect 26 0 1 0;
#X connect 27 0 26 0;
#X connect 27 1 26 1;
#X connect 28 0 0 0;
#X restore 21 123 pd chrono;
#X text 209 61 <- Bang: Stop;
#X obj 100 61 inlet;
#X obj 6 59 cnv 15 90 20 empty empty empty 20 12 0 14 -261682 -66577
0;
#X text 6 60 Bang: Start ->;
#X obj 101 150 cnv 4 10 4 empty empty empty 20 12 0 14 -260097 -66577
0;
#X obj 94 166 cnv 15 120 54 empty empty empty 20 12 0 14 -261682 -66577
0;
#X obj 100 170 outlet;
#X text 110 84 1 4 2012;
#X obj 142 129 nbx 2 20 0 1e+37 0 0 \$0-A \$0-B empty 0 0 1 17 -208064
-1 -1 0 256;
#X obj 100 129 nbx 3 20 0 1e+37 0 0 \$0-A \$0-B empty 0 0 1 17 -208064
-1 -1 0 256;
#X obj 170 150 cnv 4 10 4 empty empty empty 20 12 0 14 -260097 -66577
0;
#X obj 169 170 outlet;
#X text 100 184 Nombre;
#X text 101 194 Number;
#X text 107 204 min;
#X text 170 184 Nombre;
#X text 171 194 Number;
#X text 177 204 sec;
#X obj 241 191 cnv 15 48 25 empty empty empty 20 12 0 14 -24198 -66577
0;
#N canvas 350 196 308 136 ??? 0;
#X obj -6 87 cnv 15 300 38 empty empty empty 20 12 0 14 -224896 -66577
0;
#X obj -6 10 cnv 18 300 70 empty empty ARGOPdMiniModules 3 10 1 14
-4033 -1 1.04858e+06;
#X obj 13 31 cnv 10 10 10 empty empty Gerard 0 5 1 11 -4033 -1 1.04858e+06
;
#X obj 55 30 cnv 10 10 10 empty empty Paresys 0 5 1 11 -4033 -1 1.04858e+06
;
#X text -1 89 Construit sous / Build under Pd 0.42.5-extended;
#X obj 6 43 pddp/pddplink http://pagesperso-orange.fr/Paresys/ARGOPd/
;
#X obj 6 58 pddp/pddplink http://gerard.paresys.free.fr/ARGOPd/;
#X obj 46 105 pddp/pddplink http://puredata.info/downloads;
#X restore 245 195 pd ???;
#X connect 1 0 7 3;
#X connect 2 0 1 0;
#X connect 5 0 7 0;
#X connect 7 0 17 0;
#X connect 7 1 16 0;
#X connect 9 0 5 0;
#X connect 16 0 7 2;
#X connect 16 0 19 0;
#X connect 17 0 14 0;
#X connect 17 0 7 1;
#X coords 0 -1 1 1 81 55 2 100 100;
#X restore 241 -211 pd ARGO;
#X obj -86 -96 bng 15 250 50 0 empty empty empty 17 7 0 10 -262144
-1 -1;
#N canvas 170 46 825 531 ARGO 0;
#X obj 95 443 outlet~;
#X msg 249 77 set \$1;
#X obj 95 293 sel 1 0;
#X obj 37 -19 key;
#X obj 36 28 select 32;
#X obj -53 -20 loadbang;
#X msg -9 163 set \$1;
#X obj -39 378 cnv 15 60 30 empty empty empty 20 12 0 14 -24198 -66577
0;
#N canvas 302 39 424 591 Help 0;
#X obj 12 107 cnv 15 400 230 empty empty empty 20 12 0 14 -233017 -66577
0;
#X text 15 106 Citation;
#X obj 11 342 cnv 15 290 60 empty empty empty 20 12 0 14 -258113 -66577
0;
#X text 50 357 < 90 sec at 44100 samples/sec;
#X text 14 346 Audio < 4e+06 samples;
#X obj 11 409 cnv 15 350 170 empty empty empty 20 12 0 14 -258113 -66577
0;
#X text 19 409 ATTENTION;
#X text 33 476 Cela crash Pd...;
#X text 35 545 3 Ré-ouvrir le patch qui vient d'etre fermé;
#X text 35 560 4 Coller le MiniModule dans le patch;
#X text 66 531 (aprés avoir sauvé ce patch au besoin);
#X text 36 518 2 Fermer le patch d'où il a été copié;
#X text 36 504 1 Copier le MiniModule à dupliquer;
#X text 19 490 SOLUTION;
#X text 33 463 en faisant: Pomme D ou Pomme C + Pomme V;
#X text 32 449 Ce MiniModule n'est pas duplicable directement;
#X text 31 424 Bug sous Pd-0.42.5-extended sous MacOSX.5 ou MacOSX.6
\; (pas sous MacOSX.4);
#X text 47 124 flite : text-to-speech synthesis with libflite;
#X text 49 278 Bryan Jurish <moocow@ling.uni-potsdam.de>;
#X text 44 140 ACKNOWLEDGEMENTS:;
#X text 62 155 Flite runtime speech synthesis library by Alan W Black
and Kevin A. Lenzo.;
#X text 12 4 MM Parole3;
#X text 33 19 Utilise l'objet flite de le library moocow;
#X obj 62 182 pddp/pddplink http://www.speech.cs.cmu.edu/flite/;
#X text 62 199 Flite (festival-lite) is a small \, fast run-time synthesis
engine developed at CMU and primarily designed for small embedded machines
and/or large servers. Flite is designed as an alternative synthesis
engine to Festival for voices built using the FestVox suite of voice
building tools.;
#X obj 33 34 pddp/pddplink http://en.wikipedia.org/wiki/Festival_Speech_Synthesis_System
;
#X text 33 51 Fait sous Pd-0.42.5-extended;
#X text 82 64 flite: Text-to-Speech external v0.02-2 by Bryan Jurish
;
#X text 82 76 flite: compiled on Wed Sep 22 03:42:27 EDT 2010 by pd
;
#X restore -32 384 pd Help;
#X obj -53 31 t b b b b;
#X obj 154 434 spigot;
#X obj -22 193 cnv 15 400 90 empty empty empty 20 12 0 14 -260097 -66577
0;
#X obj 101 101 cnv 5 298 28 empty empty empty 20 12 0 14 -262144 -66577
0;
#X obj 410 139 cnv 15 350 170 empty empty empty 20 12 0 14 -258113
-66577 0;
#X text 418 139 ATTENTION;
#X text 432 206 Cela crash Pd...;
#X text 434 275 3 Ré-ouvrir le patch qui vient d'etre fermé;
#X text 434 290 4 Coller le MiniModule dans le patch;
#X text 465 261 (aprés avoir sauvé ce patch au besoin);
#X text 435 248 2 Fermer le patch d'où il a été copié;
#X text 435 234 1 Copier le MiniModule à dupliquer;
#X text 418 220 SOLUTION;
#X text 432 193 en faisant: Pomme D ou Pomme C + Pomme V;
#X obj 103 128 hsl 295 40 0 1 0 0 \$0-A \$0-B 1.2sec 245 36 1 9 -188398
-1 -1 0 1;
#X obj 244 163 cnv 4 10 4 empty empty empty 20 12 0 14 -1 -66577 0
;
#X text 82 73 Trig Decl;
#X obj 122 100 tgl 12 1 \$0-A \$0-B Play(Space) 14 6 1 9 -262144 -1
-1 0 1;
#X obj 100 100 bng 12 250 50 0 \$0-A \$0-B empty 14 6 1 9 -262144 -1
-1;
#N canvas 415 209 678 351 RenameArray 0;
#X obj -457 -189 realtime;
#X obj -457 -165 * 100;
#X obj -457 -142 int;
#X obj -522 -98 tosymbol;
#X obj -522 -120 sprintf A%d;
#X obj -479 39 pack s s;
#X msg -479 64 \; \$1 rename \$2;
#X obj -479 13 tosymbol;
#X msg -553 -43 set \$1;
#X text -500 68 (1);
#X text -576 -44 (2);
#X text -501 -10 (3);
#X text -360 -201 array -> Voir:;
#X text -360 -188 Help Browser/2.control.examples/15.array.pd;
#X text -360 -175 Help Browser/2.control.examples/16.more.arrays.pd
;
#X text -360 -163 Help Browser/5.reference/all_about_arrays.pd;
#X obj -510 103 outlet;
#X obj -411 -217 inlet;
#X text -278 -99 SOLUTION:;
#X obj -556 102 outlet;
#X text -276 -127 PROBLEME: Comment dupliquer un MiniModule comportant
un ou plusieurs arrays;
#X obj -522 -71 t a a b a;
#X msg -479 -9 A1075;
#X text -273 -83 (1) Renommer les arrays;
#X text -274 -68 (2) Renommer le message qui renomme les arrays;
#X text -274 -50 Démarrer en nommant les arrays (graph) A \, B... et
en mettant A \, B... dans (3);
#X connect 0 0 1 0;
#X connect 1 0 2 0;
#X connect 2 0 4 0;
#X connect 3 0 21 0;
#X connect 4 0 3 0;
#X connect 5 0 6 0;
#X connect 7 0 5 0;
#X connect 8 0 22 0;
#X connect 8 0 19 0;
#X connect 17 0 0 1;
#X connect 21 0 8 0;
#X connect 21 1 16 0;
#X connect 21 2 22 0;
#X connect 21 3 5 1;
#X connect 22 0 7 0;
#X restore -19 68 pd RenameArray;
#X obj 706 471 cnv 15 48 25 empty empty empty 20 12 0 14 -24198 -66577
0;
#N canvas 350 196 308 136 ??? 0;
#X obj -6 87 cnv 15 300 38 empty empty empty 20 12 0 14 -224896 -66577
0;
#X obj -6 10 cnv 18 300 70 empty empty ARGOPdMiniModules 3 10 1 14
-4033 -1 1.04858e+06;
#X obj 13 31 cnv 10 10 10 empty empty Gerard 0 5 1 11 -4033 -1 1.04858e+06
;
#X obj 55 30 cnv 10 10 10 empty empty Paresys 0 5 1 11 -4033 -1 1.04858e+06
;
#X text -1 89 Construit sous / Build under Pd 0.42.5-extended;
#X obj 6 43 pddp/pddplink http://pagesperso-orange.fr/Paresys/ARGOPd/
;
#X obj 6 58 pddp/pddplink http://gerard.paresys.free.fr/ARGOPd/;
#X obj 46 105 pddp/pddplink http://puredata.info/downloads;
#X restore 710 475 pd ???;
#X text 431 179 Ce MiniModule n'est pas duplicable directement;
#N canvas 462 252 218 285 label 0;
#X msg -31 194 label \$1;
#X obj -31 172 tosymbol;
#X obj -30 106 int;
#X obj -30 129 / 10;
#X obj -30 151 sprintf %ssec;
#X obj -30 83 / 4410;
#X obj -30 57 inlet;
#X obj -31 217 outlet;
#X connect 0 0 7 0;
#X connect 1 0 0 0;
#X connect 2 0 3 0;
#X connect 3 0 4 0;
#X connect 4 0 1 0;
#X connect 5 0 2 0;
#X connect 6 0 5 0;
#X restore 38 123 pd label;
#X obj 95 381 tabplay~;
#X msg 114 348 stop;
#X obj 196 385 line;
#X msg 227 355 1;
#X obj 284 298 / 44.1;
#X msg 284 322 set \$1;
#X msg 259 355 1286.49;
#X msg 196 355 0;
#X obj 132 48 t b b;
#X obj 233 324 t b b b;
#X msg 159 71 0;
#X obj 136 407 t b b;
#N canvas 347 327 389 234 Normalize 0;
#X obj 106 38 inlet;
#X msg 155 175 \; \$1 normalize;
#X obj 105 132 list2symbol;
#X msg 106 107 A1075;
#X obj 279 36 inlet;
#X obj 279 59 t b b;
#X connect 0 0 3 0;
#X connect 2 0 1 0;
#X connect 3 0 2 0;
#X connect 4 0 5 0;
#X connect 5 0 3 0;
#X restore 197 173 pd Normalize;
#X obj 100 155 bng 12 50 20 0 \$0-A \$0-B empty 14 6 1 9 -262144 -1
-1;
#X obj 101 163 cnv 4 10 4 empty empty empty 20 12 0 14 -260097 -66577
0;
#X obj 52 473 cnv 15 320 24 empty empty empty 20 12 0 14 -261682 -66577
0;
#X obj 53 477 outlet;
#X msg -20 195 1 minute;
#X obj 389 101 cnv 4 10 4 empty empty empty 20 12 0 14 -260097 -66577
0;
#X obj 99 -22 cnv 15 320 24 empty empty empty 20 12 0 14 -261682 -66577
0;
#X obj 101 -19 inlet;
#X obj 338 103 cnv 3 3 3 empty empty Parole3 1 5 1 14 -262144 -1 1.04858e+06
;
#X text 430 154 Bug sous Pd-0.42.5-extended sous MacOSX.5 ou MacOSX.6
\; (pas sous MacOSX.4);
#X obj 260 402 moocow/flite;
#X obj 101 101 cnv 4 10 4 empty empty empty 20 12 0 14 -260097 -66577
0;
#X obj 387 6 cnv 15 350 24 empty empty empty 20 12 0 14 -261682 -66577
0;
#X obj 385 9 inlet;
#X obj 267 377 cyclone/prepend list;
#X text 98 471 -> Bang à la fin de la lecture du fichier;
#X text 99 481 -> Bang at the end of the reading of the file;
#X obj 383 472 cnv 15 270 24 empty empty empty 20 12 0 14 -261682 -66577
0;
#X obj 388 476 outlet;
#X obj 388 155 bng 12 50 20 0 \$0-A \$0-B empty 14 6 1 9 -262144 -1
-1;
#X obj 389 163 cnv 4 10 4 empty empty empty 20 12 0 14 -260097 -66577
0;
#X text 433 470 -> Bang à la fin de la synthèse;
#X text 434 480 -> Bang at the end of the synthesis;
#X text 138 -24 <- N'importe quel message déclenche la lecture;
#X text 139 -14 <- Any message trigs the reading of the file;
#X obj 287 452 arraysize;
#X obj 260 425 t b b;
#X text -53 194 Text;
#X symbolatom 134 112 44 0 0 0 - - -;
#X obj 251 100 bng 12 250 50 0 \$0-A \$0-B Normalize 15 7 1 9 -262144
-1 -1;
#X obj 197 100 tgl 12 1 \$0-A \$0-B Loop 15 6 1 9 -262144 -1 -1 0 1
;
#N canvas 0 22 844 357 (subpatch) 0;
#X array A1075 56734 float 2;
#X coords 0 1 56734 -1 300 40 1;
#X restore 100 128 graph;
#X text 368 82 17 5 2012;
#X text 421 353 list2symbol pour les textes avec espace;
#X text 424 14 <- English text without comma \, "bang" \, semicolon
;
#X text 422 4 <- Texte anglais sans virgule \, "bang" \, point virgule
;
#X obj 249 54 list2symbol;
#X obj 222 30 t b a;
#X connect 1 0 74 0;
#X connect 2 0 33 0;
#X connect 2 0 42 0;
#X connect 2 1 34 0;
#X connect 2 1 40 0;
#X connect 3 0 4 0;
#X connect 4 0 26 0;
#X connect 5 0 9 0;
#X connect 6 0 50 0;
#X connect 9 0 74 0;
#X connect 9 1 50 0;
#X connect 9 2 28 0;
#X connect 10 0 26 0;
#X connect 26 0 2 0;
#X connect 27 0 26 0;
#X connect 27 0 41 0;
#X connect 28 0 33 0;
#X connect 28 0 45 0;
#X connect 28 0 56 0;
#X connect 28 0 71 0;
#X connect 32 0 23 0;
#X connect 33 0 0 0;
#X connect 33 1 44 0;
#X connect 33 1 46 0;
#X connect 34 0 33 0;
#X connect 35 0 23 0;
#X connect 36 0 35 0;
#X connect 37 0 38 0;
#X connect 38 0 39 0;
#X connect 39 0 35 1;
#X connect 40 0 35 0;
#X connect 41 0 26 0;
#X connect 41 1 43 0;
#X connect 42 0 36 0;
#X connect 42 1 39 0;
#X connect 42 2 40 0;
#X connect 43 0 26 0;
#X connect 44 0 10 0;
#X connect 44 1 43 0;
#X connect 46 0 49 0;
#X connect 50 0 82 0;
#X connect 53 0 27 0;
#X connect 56 0 72 0;
#X connect 59 0 83 0;
#X connect 60 0 56 0;
#X connect 65 0 64 0;
#X connect 71 0 37 0;
#X connect 71 0 32 0;
#X connect 72 0 65 0;
#X connect 72 1 71 0;
#X connect 74 0 6 0;
#X connect 74 0 60 0;
#X connect 75 0 45 1;
#X connect 76 0 10 1;
#X connect 82 0 1 0;
#X connect 83 0 74 0;
#X connect 83 1 82 0;
#X coords 0 -1 1 1 300 68 2 100 100;
#X restore -85 -65 pd ARGO;
#X obj 208 -122 cyclone/Append minute;
#X obj 208 -148 change;
#N canvas 497 69 331 310 ARGO 0;
#X obj 101 101 cnv 20 104 34 empty ColorAmpli empty 20 12 0 14 -261299
-1 1.04858e+06;
#X obj 85 282 outlet~;
#X obj 134 104 cnv 10 20 10 empty ColorAmpli Ampli 1 5 1 14 -261299
-1 1.04858e+06;
#X obj 85 43 inlet~;
#X obj 85 259 *~;
#X obj 103 118 hsl 101 12 -80 20 0 1 \$0-A ColorAmpli 0dB 0 7 1 9 -261299
-1 -1 8000 0;
#X obj 101 101 cnv 4 10 4 empty empty empty 20 12 0 14 -1 -66577 0
;
#X obj 101 131 cnv 4 10 4 empty empty empty 20 12 0 14 -1 -66577 0
;
#X obj 195 101 cnv 4 10 4 empty empty empty 20 12 0 14 -1 -66577 0
;
#X obj 195 131 cnv 4 10 4 empty empty empty 20 12 0 14 -1 -66577 0
;
#X obj 210 281 outlet~;
#X obj 210 42 inlet~;
#X obj 210 258 *~;
#X text 221 83 1 6 2011;
#X msg -10 150 label \$1;
#X obj -11 127 tosymbol;
#X obj -11 92 sprintf %ddB;
#X text 107 167 -> 0.0001..10 = -80dB..20dB;
#X obj 101 148 expr (pow(10 \, $f1 / 20));
#X obj 101 191 sel 0.0001;
#X msg 101 219 0;
#X obj 264 269 cnv 15 41 30 empty empty empty 20 12 0 14 -24198 -66577
0;
#N canvas 350 196 308 136 ?? 0;
#X obj -9 87 cnv 15 300 38 empty empty empty 20 12 0 14 -224896 -66577
0;
#X obj -9 10 cnv 18 300 70 empty empty ARGOPdMiniModules 1 10 1 14
-4033 -1 1.04858e+06;
#X obj 9 29 cnv 10 10 10 empty empty Gerard 0 5 1 9 -4033 -1 1.04858e+06
;
#X obj 40 29 cnv 10 10 10 empty empty Paresys 0 5 1 9 -4033 -1 1.04858e+06
;
#X text -8 89 Construit sous / Build under Pd 0.42.5-extended;
#X obj 39 105 pddplink http://puredata.info/downloads;
#X obj 3 42 pddplink http://pagesperso-orange.fr/Paresys/ARGOPd/;
#X obj 3 57 pddplink http://gerard.paresys.free.fr/ARGOPd/;
#X restore 268 276 pd ??;
#X connect 3 0 4 0;
#X connect 4 0 1 0;
#X connect 5 0 16 0;
#X connect 5 0 18 0;
#X connect 11 0 12 0;
#X connect 12 0 10 0;
#X connect 14 0 5 0;
#X connect 15 0 14 0;
#X connect 16 0 15 0;
#X connect 18 0 19 0;
#X connect 19 0 20 0;
#X connect 19 1 4 1;
#X connect 19 1 12 1;
#X connect 20 0 4 1;
#X connect 20 0 12 1;
#X connect 20 0 15 0;
#X coords 0 -1 1 1 106 36 1 100 100;
#X restore 175 35 pd ARGO;
#N canvas 286 45 604 224 ARGO 0;
#X obj 239 36 inlet~;
#X text 77 17 Left input;
#X text 224 17 Right input;
#X text -270 21 Stereo wav file format recorder;
#X text -270 36 Enregistreur de fichier audio wav à 2 canaux (stereo)
;
#X obj 88 36 inlet~;
#X obj 171 198 writesf~ 2;
#X text -270 51 L'extension .wav est ajoutée au nom du fichier automatiquement
;
#X obj 103 100 hsl 161 17 0 127 0 0 \$0-A \$0-B Record 103 10 1 14
-261299 -261299 -1 0 1;
#X obj 255 101 cnv 4 10 4 empty empty empty 20 12 0 14 -1 -66577 0
;
#X obj 101 101 cnv 4 10 4 empty empty empty 20 12 0 14 -1 -66577 0
;
#X obj 112 100 nbx 4 17 0 9999 0 0 \$0-A ColorTime sec 59 9 1 15 -208064
-1 -1 0 256;
#X obj 282 181 cnv 15 41 30 empty empty empty 20 12 0 14 -24198 -66577
0;
#N canvas 350 196 308 136 ?? 0;
#X obj -9 87 cnv 15 300 38 empty empty empty 20 12 0 14 -224896 -66577
0;
#X obj -9 10 cnv 18 300 70 empty empty ARGOPdMiniModules 1 10 1 14
-4033 -1 1.04858e+06;
#X obj 9 29 cnv 10 10 10 empty empty Gerard 0 5 1 9 -4033 -1 1.04858e+06
;
#X obj 40 29 cnv 10 10 10 empty empty Paresys 0 5 1 9 -4033 -1 1.04858e+06
;
#X text -8 89 Construit sous / Build under Pd 0.42.5-extended;
#X obj 39 105 pddplink http://puredata.info/downloads;
#X obj 3 42 pddplink http://pagesperso-orange.fr/Paresys/ARGOPd/;
#X obj 3 57 pddplink http://gerard.paresys.free.fr/ARGOPd/;
#X restore 286 188 pd ??;
#X text -271 87 Clic n'importe où pour commencer un enregistrement
Audio -> Clic encore pour arrêter l'enregistrement;
#X text -170 114 Click anywhere to start recording Audio ->;
#X text -171 126 Click again to stop recording;
#X text 121 122 Hslider caché transformé en bouton;
#X text 160 81 6 2 2011;
#N canvas 415 66 351 399 record2 0;
#X obj 136 95 sel 0 1;
#X msg 171 260 start;
#X msg 107 259 stop;
#X msg 155 150 open \$1;
#X obj 155 126 savepanel;
#X obj 165 203 delay 1000;
#X obj 245 323 float;
#X obj 291 322 + 1;
#X obj 223 295 metro 1000;
#X msg 291 296 -1;
#X msg 11 257 0;
#X msg 42 257 1;
#X obj 66 210 t b b;
#X obj 165 229 t b b b b;
#N canvas 317 143 290 366 CouleurRecord2 0;
#X obj 122 -19 +;
#X obj 122 37 +;
#X obj 61 -75 * -65536;
#X obj 117 -75 * -256;
#X obj 163 -77 * -1;
#X obj 122 68 - 1;
#X obj 115 -202 inlet;
#X text 77 -97 R;
#X text 123 -99 G;
#X text 172 -98 B;
#X obj 122 123 outlet;
#X text 170 -169 Rouge;
#X msg 134 -121 255;
#X msg 167 -121 0;
#X obj 115 -178 sel 0 1;
#X text 56 -170 Rose;
#X msg 73 -121 200;
#X msg 40 -121 252;
#X obj 134 -148 t b b b;
#X msg 198 -121 0;
#X msg 104 -121 200;
#X obj 40 -148 t b b b;
#X msg 122 96 color \$1 \$1 -1;
#X connect 0 0 1 1;
#X connect 1 0 5 0;
#X connect 2 0 1 0;
#X connect 3 0 0 0;
#X connect 4 0 0 1;
#X connect 5 0 22 0;
#X connect 6 0 14 0;
#X connect 12 0 2 0;
#X connect 13 0 3 0;
#X connect 14 0 21 0;
#X connect 14 1 18 0;
#X connect 16 0 3 0;
#X connect 17 0 2 0;
#X connect 18 0 12 0;
#X connect 18 1 13 0;
#X connect 18 2 19 0;
#X connect 19 0 4 0;
#X connect 20 0 4 0;
#X connect 21 0 17 0;
#X connect 21 1 16 0;
#X connect 21 2 20 0;
#X connect 22 0 10 0;
#X restore 25 326 pd CouleurRecord2;
#X obj 136 75 tgl 15 0 \$0-A \$0-B empty 19 9 1 12 -262144 -258113
-1 0 1;
#X obj 136 30 b;
#X obj 136 52 delay 200;
#X obj 136 8 inlet;
#X obj 25 356 outlet;
#X text 22 372 Couleur;
#X obj 291 356 outlet;
#X text 288 372 Compteur;
#X obj 155 356 outlet;
#X text 152 372 writesf;
#X obj 199 176 t b b;
#X msg 72 33 0;
#X obj 72 8 loadbang;
#X msg 260 124 set 0;
#X msg 261 173 set 1;
#X obj 261 149 b;
#X connect 0 0 12 0;
#X connect 0 1 4 0;
#X connect 0 1 28 0;
#X connect 1 0 23 0;
#X connect 2 0 8 0;
#X connect 2 0 23 0;
#X connect 3 0 23 0;
#X connect 3 0 25 0;
#X connect 4 0 3 0;
#X connect 4 0 30 0;
#X connect 5 0 13 0;
#X connect 6 0 7 0;
#X connect 7 0 6 1;
#X connect 7 0 21 0;
#X connect 8 0 6 0;
#X connect 9 0 7 0;
#X connect 10 0 14 0;
#X connect 11 0 14 0;
#X connect 12 0 10 0;
#X connect 12 1 2 0;
#X connect 13 0 11 0;
#X connect 13 1 1 0;
#X connect 13 2 8 0;
#X connect 13 3 9 0;
#X connect 14 0 19 0;
#X connect 15 0 0 0;
#X connect 16 0 17 0;
#X connect 17 0 15 0;
#X connect 18 0 16 0;
#X connect 25 0 5 0;
#X connect 25 1 9 0;
#X connect 26 0 15 0;
#X connect 27 0 26 0;
#X connect 28 0 15 0;
#X connect 29 0 15 0;
#X connect 30 0 29 0;
#X restore 56 147 pd record2;
#X connect 0 0 6 1;
#X connect 5 0 6 0;
#X connect 8 0 19 0;
#X connect 19 0 8 0;
#X connect 19 1 6 0;
#X connect 19 2 11 0;
#X coords 0 -1 1 1 166 17 1 100 100;
#X restore -22 100 pd ARGO;
#X text 155 -215 Clic Start ->;
#X connect 0 0 18 0;
#X connect 6 0 5 0;
#X connect 18 1 24 1;
#X connect 18 2 0 0;
#X connect 19 0 23 0;
#X connect 19 1 18 1;
#X connect 20 0 21 0;
#X connect 21 1 24 0;
#X connect 21 2 20 0;
#X connect 22 0 21 1;
#X connect 23 0 22 0;
#X connect 24 0 1 0;
#X connect 24 0 25 0;
#X connect 24 1 1 1;
#X connect 24 1 25 1;
