#N canvas 344 22 524 579 10;
#N canvas 472 348 372 267 ARGO 0;
#X obj 34 152 cnv 15 60 30 empty empty empty 20 12 0 14 -24198 -66577
0;
#N canvas 344 122 417 366 Help 0;
#X obj 4 73 cnv 15 400 200 empty empty empty 20 12 0 14 -233017 -66577
0;
#X text 7 72 Citation;
#X text 5 37 Library unauthorized;
#X text 19 146 (invoke with <right mouse>Properties );
#X text 20 135 You can set the following properties :;
#X text 40 167 * Width : graphical x size;
#X text 40 179 * Height : graphical y size;
#X text 40 192 * Values : number of values ( range is [ 1 \, nvalues
] );
#X text 41 206 * Max Occurrences : max number of occurences in a serial
;
#X obj 5 51 pddplink http://ydegoyon.free.fr/software.html;
#X text 22 97 probalizer : outputs integer values according to a drawn
probability curve \, version 0.4 (ydegoyon@free.fr);
#X text 6 4 MM-Statistic;
#X text 5 23 Utilise l'object probalizer de Yves de Goyon;
#X obj 6 287 cnv 15 350 60 empty empty empty 20 12 0 14 -258113 -66577
0;
#X text 13 310 Ne fonctionne pas sous Pd-0.42.5-extended sous Windows
7;
#X restore 41 158 pd Help;
#X obj 88 31 inlet;
#X msg 53 106 zero;
#X obj 127 32 loadbang;
#X obj 88 57 + 1;
#X obj 115 209 cnv 5 7 12 empty empty 0 2 7 1 11 -262144 -66577 0;
#X text 163 104 18 7 2011;
#X obj 129 143 cnv 15 120 58 empty empty empty 20 12 0 14 -258113 -66577
0;
#X text 133 142 Pd-0.42.5-extended;
#X text 133 153 + Windows 7;
#X text 131 176 ne fonctionne pas;
#X text 132 165 MM Statistic;
#X text 131 186 don't work;
#X text 270 157 <- Message caché;
#X obj 127 115 probalizer 128 100 128 100 0;
#X obj 101 101 cnv 5 165 13 empty empty Statistic 115 8 1 14 -262144
-66577 0;
#X obj 101 104 cnv 5 25 124 empty empty 100 5 14 1 11 -262144 -66577
0;
#X obj 101 101 cnv 4 10 4 empty empty empty 20 12 0 14 -260097 -66577
0;
#X obj 109 216 cnv 5 150 12 empty empty 0 16 7 1 11 -262144 -66577
0;
#X obj 127 103 bng 12 50 50 0 \$0-A \$0-B Reset 15 7 1 9 -262144 -1
-1;
#X obj 313 231 cnv 15 48 25 empty empty empty 20 12 0 14 -24198 -66577
0;
#N canvas 350 196 308 136 ??? 0;
#X obj -6 87 cnv 15 300 38 empty empty empty 20 12 0 14 -224896 -66577
0;
#X obj -6 10 cnv 18 300 70 empty empty ARGOPdMiniModules 3 10 1 14
-4033 -1 1.04858e+06;
#X obj 13 31 cnv 10 10 10 empty empty Gerard 0 5 1 11 -4033 -1 1.04858e+06
;
#X obj 55 30 cnv 10 10 10 empty empty Paresys 0 5 1 11 -4033 -1 1.04858e+06
;
#X text -1 89 Construit sous / Build under Pd 0.42.5-extended;
#X obj 6 43 pddp/pddplink http://pagesperso-orange.fr/Paresys/ARGOPd/
;
#X obj 6 58 pddp/pddplink http://gerard.paresys.free.fr/ARGOPd/;
#X obj 46 105 pddp/pddplink http://puredata.info/downloads;
#X restore 317 235 pd ???;
#X text 219 82 7 6 2012;
#X obj 245 216 cnv 5 15 12 empty empty 127 2 7 1 11 -262144 -66577
0;
#X connect 2 0 5 0;
#X connect 3 0 15 0;
#X connect 4 0 20 0;
#X connect 5 0 15 0;
#X connect 20 0 3 0;
#X coords 0 -1 1 1 167 129 1 100 100;
#X restore 245 306 pd ARGO;
#N canvas 446 113 417 240 ARGO 0;
#X obj -40 48 cnv 15 60 30 empty empty empty 20 12 0 14 -24198 -66577
0;
#N canvas 424 180 418 133 Help 0;
#X text 10 51 Un "Bang" sort chaque X msec.;
#X text 8 83 A "Bang" outputs every X msec.;
#X restore -33 54 pd Help;
#X obj 100 32 inlet;
#X obj 95 198 cnv 15 170 24 empty empty empty 20 12 0 14 -261682 -66577
0;
#X obj 100 202 outlet;
#X obj 101 101 cnv 10 132 36 empty ColorForm Oscill 95 9 1 14 -208064
-1 1.04858e+06;
#X obj 100 125 bng 12 250 50 0 \$0-A \$0-B empty 14 6 1 9 -262144 -1
-1;
#X obj 101 133 cnv 4 10 4 empty empty empty 20 12 0 14 -260097 -66577
0;
#X obj 100 113 nbx 6 12 1 999999 0 1 \$0-A ColorTime ms 40 17 1 9 -208064
-1 -1 100 256;
#X text 146 206 -> Bang;
#X text 145 196 -> Bang;
#X obj 100 100 tgl 12 1 \$0-A \$0-B empty 17 7 0 10 -262144 -1 -1 1
1;
#X obj -93 96 cnv 15 190 20 empty empty empty 20 12 0 14 -261682 -66577
0;
#X text -92 97 1: Play 0: Stop bang: Change ->;
#X obj 101 101 cnv 4 10 4 empty empty empty 20 12 0 14 -260097 -66577
0;
#X obj 18 151 metro 300;
#X text 177 83 20 7 2011;
#X obj 269 196 cnv 15 41 30 empty empty empty 20 12 0 14 -24198 -66577
0;
#N canvas 350 196 308 136 ?? 0;
#X obj -9 87 cnv 15 300 38 empty empty empty 20 12 0 14 -224896 -66577
0;
#X obj -9 10 cnv 18 300 70 empty empty ARGOPdMiniModules 1 10 1 14
-4033 -1 1.04858e+06;
#X obj 9 29 cnv 10 10 10 empty empty Gerard 0 5 1 9 -4033 -1 1.04858e+06
;
#X obj 40 29 cnv 10 10 10 empty empty Paresys 0 5 1 9 -4033 -1 1.04858e+06
;
#X text -8 89 Construit sous / Build under Pd 0.42.5-extended;
#X obj 39 105 pddplink http://puredata.info/downloads;
#X obj 3 42 pddplink http://pagesperso-orange.fr/Paresys/ARGOPd/;
#X obj 3 57 pddplink http://gerard.paresys.free.fr/ARGOPd/;
#X restore 273 203 pd ??;
#X connect 2 0 11 0;
#X connect 6 0 4 0;
#X connect 8 0 15 1;
#X connect 11 0 15 0;
#X connect 15 0 6 0;
#X coords 0 -1 1 1 134 38 2 100 100;
#X restore 111 52 pd ARGO;
#X text 55 347 Filtered impulse;
#X text 51 334 Impulsion filtrée;
#N canvas 708 108 324 332 ARGO 0;
#X obj 100 300 outlet~;
#X obj 204 23 cnv 15 60 30 empty empty empty 20 12 0 14 -24198 -66577
0;
#N canvas 346 177 424 103 Help 0;
#X text -102 23 Synth4 = Synthétiseur 4 = Synthesizer 4;
#X text -102 39 Impulsion + Filtre Passe-bande;
#X restore 211 29 pd Help;
#X obj 257 277 cnv 15 41 30 empty empty empty 20 12 0 14 -24198 -66577
0;
#N canvas 350 196 308 136 ?? 0;
#X obj -9 87 cnv 15 300 38 empty empty empty 20 12 0 14 -224896 -66577
0;
#X obj -9 10 cnv 18 300 70 empty empty ARGOPdMiniModules 1 10 1 14
-4033 -1 1.04858e+06;
#X obj 9 29 cnv 10 10 10 empty empty Gerard 0 5 1 9 -4033 -1 1.04858e+06
;
#X obj 40 29 cnv 10 10 10 empty empty Paresys 0 5 1 9 -4033 -1 1.04858e+06
;
#X text -8 89 Construit sous / Build under Pd 0.42.5-extended;
#X obj 39 105 pddplink http://puredata.info/downloads;
#X obj 3 42 pddplink http://pagesperso-orange.fr/Paresys/ARGOPd/;
#X obj 3 57 pddplink http://gerard.paresys.free.fr/ARGOPd/;
#X restore 261 284 pd ??;
#X obj 100 22 inlet;
#X text 30 -11 NoteMIDI;
#N canvas 499 145 264 245 Freq-v6 0;
#X obj -88 23 inlet;
#X obj -88 177 outlet;
#X text -91 194 Hslider;
#X text -93 2 Hslider;
#X obj 36 149 clip 0 20000;
#X obj 36 125 mtof;
#X obj 36 176 outlet;
#X text 33 194 Freq Hz;
#N canvas 220 243 583 317 pitchb-11-2010 0;
#X obj 70 111 mod 12;
#X obj 70 135 sel 0 1 2 3 4 5 6 7 8 9 10 11;
#X msg 246 170 A;
#X msg 300 170 B;
#X msg 192 170 G;
#X msg 3 170 C;
#X msg 57 170 D;
#X msg 111 170 E;
#X msg 138 170 F;
#X obj 204 1 inlet;
#X obj 329 115 div 12;
#X obj 204 79 t f f;
#X text 334 190 -> Numero de l'octave;
#X text 213 64 -> Numero MIDI de la note (69 = A3 = 440Hz);
#X msg 260 260 label \$1;
#X obj 260 283 outlet;
#X msg 30 170 Db;
#X msg 84 170 Eb;
#X msg 165 170 Gb;
#X msg 219 170 Ab;
#X msg 273 170 Bb;
#X text 369 78 (70 = A#3 = Bb3);
#X obj 260 238 symbol;
#X obj 260 213 sprintf %s%d;
#X text 11 231 Impossible d'afficher # dans un label;
#X text 11 243 donc j'affiche b;
#X obj 204 51 int;
#X text 255 23 -> pour corriger certaines erreurs de calcul;
#X obj 329 144 - 12;
#X text 255 35 et le pb du passage a zero de mod 12;
#X obj 204 25 + 120.5;
#X connect 0 0 1 0;
#X connect 1 0 5 0;
#X connect 1 1 16 0;
#X connect 1 2 6 0;
#X connect 1 3 17 0;
#X connect 1 4 7 0;
#X connect 1 5 8 0;
#X connect 1 6 18 0;
#X connect 1 7 4 0;
#X connect 1 8 19 0;
#X connect 1 9 2 0;
#X connect 1 10 20 0;
#X connect 1 11 3 0;
#X connect 2 0 23 0;
#X connect 3 0 23 0;
#X connect 4 0 23 0;
#X connect 5 0 23 0;
#X connect 6 0 23 0;
#X connect 7 0 23 0;
#X connect 8 0 23 0;
#X connect 9 0 30 0;
#X connect 10 0 28 0;
#X connect 11 0 0 0;
#X connect 11 1 10 0;
#X connect 14 0 15 0;
#X connect 16 0 23 0;
#X connect 17 0 23 0;
#X connect 18 0 23 0;
#X connect 19 0 23 0;
#X connect 20 0 23 0;
#X connect 22 0 14 0;
#X connect 23 0 22 0;
#X connect 26 0 11 0;
#X connect 28 0 23 1;
#X connect 30 0 26 0;
#X restore -88 88 pd pitchb-11-2010;
#X connect 0 0 5 0;
#X connect 0 0 8 0;
#X connect 4 0 6 0;
#X connect 5 0 4 0;
#X connect 8 0 1 0;
#X restore 151 211 pd Freq-v6;
#X text 90 -11 0..127 = C-2..G8;
#X obj 101 101 cnv 6 132 56 empty ColorForm Synth4 87 8 1 14 -262144
-1 1.04858e+06;
#X obj 100 101 bng 12 50 50 0 \$0-A \$0-B empty 14 6 1 9 -262144 -1
-1;
#X obj 101 101 cnv 4 10 4 empty empty empty 20 12 0 14 -260097 -66577
0;
#X obj 101 153 cnv 4 10 4 empty empty empty 20 12 0 14 -1 -66577 0
;
#X obj 103 129 hsl 129 12 0 128 0 1 \$0-A ColorTime Bb4 0 7 1 9 -208064
-1 -1 8200 0;
#X obj 100 47 t b f;
#X obj 127 74 select 0;
#X text 91 4 ou Bang;
#X obj 100 254 bp~;
#X obj 133 141 hsl 99 12 1 10000 1 1 \$0-A ColorForm 47 0 7 1 9 -188398
-1 -1 4100 0;
#X obj 122 144 cnv 6 2 2 empty ColorForm Q 0 4 1 9 -262144 -1 1.04858e+06
;
#X obj 100 211 vline~;
#X msg 57 183 1 \, 0 0 \$1;
#X obj 57 160 f;
#X obj 133 117 hsl 99 12 0.03 30 1 1 \$0-A ColorForm 0.5 0 7 1 9 -208064
-1 -1 4000 0;
#N canvas 0 22 450 300 label-ms 0;
#X msg 156 171 label \$1;
#X obj 156 151 tosymbol;
#X obj 156 111 expr (int(100 * $f1) / 100) \;;
#X obj 154 84 inlet;
#X obj 157 200 outlet;
#X obj 156 131 sprintf %s;
#X connect 0 0 4 0;
#X connect 1 0 0 0;
#X connect 2 0 5 0;
#X connect 3 0 2 0;
#X connect 5 0 1 0;
#X restore 248 116 pd label-ms;
#N canvas 375 291 195 181 label-Q 0;
#X obj 56 28 inlet;
#X obj 107 149 outlet;
#X msg 108 122 label \$1;
#X obj 108 100 tosymbol;
#X obj 108 78 int;
#X connect 0 0 4 0;
#X connect 2 0 1 0;
#X connect 3 0 2 0;
#X connect 4 0 3 0;
#X restore 170 165 pd label-Q;
#X obj 118 121 cnv 6 2 2 empty ColorForm ms 0 4 1 9 -262144 -1 1.04858e+06
;
#X obj 101 115 cnv 6 2 2 empty ColorForm Pulse 0 4 1 9 -262144 -1 1.04858e+06
;
#X text 194 83 13 12 2010;
#X connect 5 0 14 0;
#X connect 7 0 13 0;
#X connect 7 1 17 1;
#X connect 10 0 22 0;
#X connect 13 0 7 0;
#X connect 14 0 10 0;
#X connect 14 1 15 0;
#X connect 15 1 13 0;
#X connect 17 0 0 0;
#X connect 18 0 25 0;
#X connect 18 0 17 2;
#X connect 20 0 17 0;
#X connect 21 0 20 0;
#X connect 22 0 21 0;
#X connect 23 0 24 0;
#X connect 23 0 22 1;
#X connect 24 0 23 0;
#X connect 25 0 18 0;
#X coords 0 -1 1 1 134 58 1 100 100;
#X restore 33 276 pd ARGO;
#X obj 13 535 dac~ 1 2;
#X obj 318 67 switch~;
#N canvas 608 166 228 173 ARGOnOff 0;
#X obj 100 100 tgl 18 1 \$0-SendOnOff \$0-ReceiveOnOff On/Off 20 11
1 14 -4033 -1 -1 1 1;
#X obj 99 10 loadbang;
#X msg 99 33 \; pd dsp 1;
#X obj 100 129 outlet;
#X text -50 99 Audio On/Off du patch ->;
#X text -22 45 Audio General On ->;
#X text 107 82 17 3 2010;
#X connect 0 0 3 0;
#X connect 1 0 2 0;
#X coords 0 -1 1 1 65 18 2 100 100;
#X restore 318 49 pd ARGOnOff;
#X text 323 33 V;
#X text 323 26 |;
#N canvas 324 59 331 313 ARGO 0;
#X obj 101 101 cnv 20 104 34 empty ColorAmpli empty 20 12 0 14 -261299
-1 1.04858e+06;
#X obj 85 285 outlet~;
#X obj 134 104 cnv 10 20 10 empty ColorAmpli Ampli 1 5 1 14 -261299
-1 1.04858e+06;
#X obj 85 72 inlet~;
#X obj 85 260 *~;
#X obj 103 118 hsl 101 12 -80 20 0 1 \$0-A ColorAmpli 13dB 0 7 1 9
-261299 -1 -1 9300 0;
#X msg -24 161 label \$1;
#X obj -25 138 tosymbol;
#X obj -25 103 sprintf %ddB;
#X obj 101 101 cnv 4 10 4 empty empty empty 20 12 0 14 -1 -66577 0
;
#X obj 101 131 cnv 4 10 4 empty empty empty 20 12 0 14 -1 -66577 0
;
#X text -16 120 -> -80dB..20dB;
#X text 106 182 -> 0.0001..10 = -80dB..20dB;
#X text 209 97 5 5 2011;
#X obj 100 163 expr (pow(10 \, $f1 / 20));
#X text 107 140 -> -80..20;
#X obj 227 270 cnv 15 41 30 empty empty empty 20 12 0 14 -24198 -66577
0;
#N canvas 350 196 308 136 ?? 0;
#X obj -9 87 cnv 15 300 38 empty empty empty 20 12 0 14 -224896 -66577
0;
#X obj -9 10 cnv 18 300 70 empty empty ARGOPdMiniModules 1 10 1 14
-4033 -1 1.04858e+06;
#X obj 9 29 cnv 10 10 10 empty empty Gerard 0 5 1 9 -4033 -1 1.04858e+06
;
#X obj 40 29 cnv 10 10 10 empty empty Paresys 0 5 1 9 -4033 -1 1.04858e+06
;
#X text -8 89 Construit sous / Build under Pd 0.42.5-extended;
#X obj 39 105 pddplink http://puredata.info/downloads;
#X obj 3 42 pddplink http://pagesperso-orange.fr/Paresys/ARGOPd/;
#X obj 3 57 pddplink http://gerard.paresys.free.fr/ARGOPd/;
#X restore 231 277 pd ??;
#X obj 100 206 sel 0.0001;
#X msg 100 234 0;
#X connect 3 0 4 0;
#X connect 4 0 1 0;
#X connect 5 0 8 0;
#X connect 5 0 14 0;
#X connect 6 0 5 0;
#X connect 7 0 6 0;
#X connect 8 0 7 0;
#X connect 14 0 18 0;
#X connect 18 0 19 0;
#X connect 18 1 4 1;
#X connect 19 0 4 1;
#X connect 19 0 7 0;
#X coords 0 -1 1 1 106 36 1 100 100;
#X restore 33 379 pd ARGO;
#N canvas 432 42 314 359 ARGO 0;
#X obj 101 101 cnv 30 37 130 empty ColorAmpli empty 20 12 0 14 -1 -258113
0;
#X obj 101 101 cnv 4 10 4 empty empty empty 20 12 0 14 -1 -66577 0
;
#X obj 102 108 vu 8 120 \$0-B empty 0 0 1 11 -1 -4034 1 0;
#X obj 42 -112 inlet~;
#X obj 35 -87 *~;
#X obj 35 3 snapshot~;
#X obj 35 26 sqrt;
#X obj 35 -24 lop~ 10;
#X obj 35 50 rmstodb;
#X obj 98 -111 loadbang;
#X obj 35 73 - 100;
#X obj 171 26 sqrt;
#X obj 172 50 rmstodb;
#X obj 172 73 - 100;
#X obj 97 -23 metro 200;
#X obj 236 -97 cnv 15 60 30 empty empty empty 20 12 0 14 -24198 -66577
0;
#N canvas 300 65 442 264 Help 0;
#X obj 12 48 cnv 15 400 150 empty empty empty 20 12 0 14 -233017 -66577
0;
#X text 16 50 Citation;
#X text 28 67 peakamp~ tracks and outputs the absolute value of the
peak amplitude of the incoming signal. It outputs when banged or using
its own internal clock. The peak value is reset each time peakamp~
outputs a value.;
#X text 17 214 par rapport à la version précédente du MM-Vumetre env~
est remplacé par square~ + lop~ + snapshot~ + sqrt + rmstodb car env~
consomme beaucoup CPU.;
#X text 29 123 cyclone library;
#X text 28 135 http://suita.chopin.edu.pl/~czaja/miXed/externs/cyclone.html
;
#X text 29 155 Voir doc Max/MSP MSP46ReferenceManual.pdf;
#X text 18 14 MM-Vumetre;
#X restore 243 -91 pd Help;
#X obj 261 199 cnv 15 41 30 empty empty empty 20 12 0 14 -24198 -66577
0;
#N canvas 350 196 308 136 ?? 0;
#X obj -9 87 cnv 15 300 38 empty empty empty 20 12 0 14 -224896 -66577
0;
#X obj -9 10 cnv 18 300 70 empty empty ARGOPdMiniModules 1 10 1 14
-4033 -1 1.04858e+06;
#X obj 9 29 cnv 10 10 10 empty empty Gerard 0 5 1 9 -4033 -1 1.04858e+06
;
#X obj 40 29 cnv 10 10 10 empty empty Paresys 0 5 1 9 -4033 -1 1.04858e+06
;
#X text -8 89 Construit sous / Build under Pd 0.42.5-extended;
#X obj 39 105 pddplink http://puredata.info/downloads;
#X obj 3 42 pddplink http://pagesperso-orange.fr/Paresys/ARGOPd/;
#X obj 3 57 pddplink http://gerard.paresys.free.fr/ARGOPd/;
#X restore 265 206 pd ??;
#X obj 158 -111 r SendFluid;
#X obj 171 -50 cyclone/peakamp~ 1000;
#X text 145 106 13 2 2011;
#X connect 3 0 4 0;
#X connect 3 0 4 1;
#X connect 4 0 7 0;
#X connect 4 0 20 0;
#X connect 5 0 6 0;
#X connect 6 0 8 0;
#X connect 7 0 5 0;
#X connect 8 0 10 0;
#X connect 9 0 14 0;
#X connect 10 0 2 0;
#X connect 11 0 12 0;
#X connect 12 0 13 0;
#X connect 13 0 2 1;
#X connect 14 0 5 0;
#X connect 19 0 14 1;
#X connect 20 0 11 0;
#X coords 0 -1 1 1 39 132 2 100 100;
#X restore 71 420 pd ARGO;
#X msg 35 182 70;
#X obj 109 126 bng 15 50 50 0 empty empty empty 17 7 0 10 -260097 -1
-1;
#N canvas 13 111 618 337 ARGO 0;
#X obj 101 101 cnv 20 105 43 empty ColorForm Markov 44 8 1 14 -261476
-1 1.04858e+06;
#X obj 104 121 hsl 101 12 0 100 0 1 \$0-A ColorForm 70 0 7 1 9 -262144
-1 -1 7000 0;
#X obj -124 76 cnv 15 60 30 empty empty empty 20 12 0 14 -24198 -66577
0;
#N canvas 319 68 359 100 Help 0;
#X obj -91 39 pddp/pddplink http://fr.wikipedia.org/wiki/Chaîne_de_Markov
;
#X obj -91 51 pddp/pddplink http://en.wikipedia.org/wiki/Markov_chain
;
#X text -111 18 Processus de Markov à 2 états;
#X text -113 37 cf:;
#X restore -117 83 pd Help;
#X obj 100 100 bng 12 50 50 0 \$0-A \$0-B empty 14 6 1 9 -262144 -1
-1;
#X obj 101 101 cnv 4 10 4 empty empty empty 20 12 0 14 -260097 -66577
0;
#X obj -140 -14 cnv 15 280 50 empty empty empty 20 12 0 14 -261682
-66577 0;
#X obj 100 -11 inlet;
#X text -57 -7 Input anything message ->;
#X text -57 -17 N'importe quel message ->;
#X obj 100 255 outlet;
#N canvas 613 207 212 161 labelP 0;
#X msg 15 103 label \$1;
#X obj 15 81 tosymbol;
#X obj 14 12 inlet;
#X obj 15 126 outlet;
#X obj 104 57 sprintf P=%s;
#X obj 102 34 expr (int($f1));
#X connect 0 0 3 0;
#X connect 1 0 0 0;
#X connect 2 0 1 0;
#X restore -6 83 pd labelP;
#X obj 100 133 bng 12 50 50 0 \$0-A \$0-B empty 14 6 1 9 -262144 -1
-1;
#X obj 101 140 cnv 4 10 4 empty empty empty 20 12 0 14 -260097 -66577
0;
#X obj 195 133 bng 12 50 50 0 \$0-A \$0-B empty 14 6 1 9 -262144 -1
-1;
#X obj 196 140 cnv 4 10 4 empty empty empty 20 12 0 14 -260097 -66577
0;
#X obj -8 209 random 101;
#X obj 77 207 int;
#X obj 50 233 moses;
#X obj 195 253 outlet;
#X text 212 131 31 12 2011;
#X obj 195 101 tgl 12 1 \$0-A \$0-B empty 17 7 0 10 -262144 -1 -1 0
1;
#X obj 196 101 cnv 4 10 4 empty empty empty 20 12 0 14 -260097 -66577
0;
#X obj -8 156 t b b;
#X obj -8 131 spigot;
#X msg 160 67 0;
#X obj 417 254 cnv 15 48 25 empty empty empty 20 12 0 14 -24198 -66577
0;
#N canvas 350 196 308 136 ??? 0;
#X obj -6 87 cnv 15 300 38 empty empty empty 20 12 0 14 -224896 -66577
0;
#X obj -6 10 cnv 18 300 70 empty empty ARGOPdMiniModules 3 10 1 14
-4033 -1 1.04858e+06;
#X obj 13 31 cnv 10 10 10 empty empty Gerard 0 5 1 11 -4033 -1 1.04858e+06
;
#X obj 55 30 cnv 10 10 10 empty empty Paresys 0 5 1 11 -4033 -1 1.04858e+06
;
#X text -1 89 Construit sous / Build under Pd 0.42.5-extended;
#X obj 6 43 pddp/pddplink http://pagesperso-orange.fr/Paresys/ARGOPd/
;
#X obj 6 58 pddp/pddplink http://gerard.paresys.free.fr/ARGOPd/;
#X obj 46 105 pddp/pddplink http://puredata.info/downloads;
#X restore 421 258 pd ???;
#X obj -8 182 delay 2;
#X text -141 7 Les sorties sont déclenchées 2 ms aprés.;
#X text -141 21 The outputs are triggered after 2 ms.;
#X obj 190 -13 cnv 15 280 50 empty empty empty 20 12 0 14 -261682 -66577
0;
#X obj 195 -11 inlet;
#X obj 195 44 bang;
#X msg 195 67 1;
#X text 233 -15 <- N'importe quel message;
#X text 233 -5 <- Input anything message;
#X text 104 273 bang;
#X text 201 270 bang;
#X text -140 -40 Processus de Markov à 2 états;
#X text 250 7 comment;
#X connect 1 0 17 0;
#X connect 4 0 24 0;
#X connect 7 0 4 0;
#X connect 11 0 1 0;
#X connect 12 0 10 0;
#X connect 14 0 19 0;
#X connect 16 0 18 0;
#X connect 17 0 11 0;
#X connect 17 0 18 1;
#X connect 18 0 12 0;
#X connect 18 1 14 0;
#X connect 21 0 24 1;
#X connect 23 0 28 0;
#X connect 23 1 25 0;
#X connect 24 0 23 0;
#X connect 25 0 21 0;
#X connect 28 0 16 0;
#X connect 32 0 33 0;
#X connect 33 0 34 0;
#X connect 34 0 21 0;
#X coords 0 -1 1 1 107 45 1 100 100;
#X restore -25 114 pd ARGO;
#X msg 212 247 82;
#X obj 288 192 bng 15 50 50 0 empty empty empty 17 7 0 10 -260097 -1
-1;
#N canvas 469 132 618 337 ARGO 0;
#X obj 101 101 cnv 20 105 43 empty ColorForm Markov 44 8 1 14 -261476
-1 1.04858e+06;
#X obj 104 121 hsl 101 12 0 100 0 1 \$0-A ColorForm 40 0 7 1 9 -262144
-1 -1 4000 0;
#X obj -124 76 cnv 15 60 30 empty empty empty 20 12 0 14 -24198 -66577
0;
#N canvas 319 68 359 100 Help 0;
#X obj -91 39 pddp/pddplink http://fr.wikipedia.org/wiki/Chaîne_de_Markov
;
#X obj -91 51 pddp/pddplink http://en.wikipedia.org/wiki/Markov_chain
;
#X text -111 18 Processus de Markov à 2 états;
#X text -113 37 cf:;
#X restore -117 83 pd Help;
#X obj 100 100 bng 12 50 50 0 \$0-A \$0-B empty 14 6 1 9 -262144 -1
-1;
#X obj 101 101 cnv 4 10 4 empty empty empty 20 12 0 14 -260097 -66577
0;
#X obj -140 -14 cnv 15 280 50 empty empty empty 20 12 0 14 -261682
-66577 0;
#X obj 100 -11 inlet;
#X text -57 -7 Input anything message ->;
#X text -57 -17 N'importe quel message ->;
#X obj 100 255 outlet;
#N canvas 613 207 212 161 labelP 0;
#X msg 15 103 label \$1;
#X obj 15 81 tosymbol;
#X obj 14 12 inlet;
#X obj 15 126 outlet;
#X obj 104 57 sprintf P=%s;
#X obj 102 34 expr (int($f1));
#X connect 0 0 3 0;
#X connect 1 0 0 0;
#X connect 2 0 1 0;
#X restore -6 83 pd labelP;
#X obj 100 133 bng 12 50 50 0 \$0-A \$0-B empty 14 6 1 9 -262144 -1
-1;
#X obj 101 140 cnv 4 10 4 empty empty empty 20 12 0 14 -260097 -66577
0;
#X obj 195 133 bng 12 50 50 0 \$0-A \$0-B empty 14 6 1 9 -262144 -1
-1;
#X obj 196 140 cnv 4 10 4 empty empty empty 20 12 0 14 -260097 -66577
0;
#X obj -8 209 random 101;
#X obj 77 207 int;
#X obj 50 233 moses;
#X obj 195 253 outlet;
#X text 212 131 31 12 2011;
#X obj 195 101 tgl 12 1 \$0-A \$0-B empty 17 7 0 10 -262144 -1 -1 1
1;
#X obj 196 101 cnv 4 10 4 empty empty empty 20 12 0 14 -260097 -66577
0;
#X obj -8 156 t b b;
#X obj -8 131 spigot;
#X msg 160 67 0;
#X obj 417 254 cnv 15 48 25 empty empty empty 20 12 0 14 -24198 -66577
0;
#N canvas 350 196 308 136 ??? 0;
#X obj -6 87 cnv 15 300 38 empty empty empty 20 12 0 14 -224896 -66577
0;
#X obj -6 10 cnv 18 300 70 empty empty ARGOPdMiniModules 3 10 1 14
-4033 -1 1.04858e+06;
#X obj 13 31 cnv 10 10 10 empty empty Gerard 0 5 1 11 -4033 -1 1.04858e+06
;
#X obj 55 30 cnv 10 10 10 empty empty Paresys 0 5 1 11 -4033 -1 1.04858e+06
;
#X text -1 89 Construit sous / Build under Pd 0.42.5-extended;
#X obj 6 43 pddp/pddplink http://pagesperso-orange.fr/Paresys/ARGOPd/
;
#X obj 6 58 pddp/pddplink http://gerard.paresys.free.fr/ARGOPd/;
#X obj 46 105 pddp/pddplink http://puredata.info/downloads;
#X restore 421 258 pd ???;
#X obj -8 182 delay 2;
#X text -141 7 Les sorties sont déclenchées 2 ms aprés.;
#X text -141 21 The outputs are triggered after 2 ms.;
#X obj 190 -13 cnv 15 280 50 empty empty empty 20 12 0 14 -261682 -66577
0;
#X obj 195 -11 inlet;
#X obj 195 44 bang;
#X msg 195 67 1;
#X text 233 -15 <- N'importe quel message;
#X text 233 -5 <- Input anything message;
#X text 250 7 place le module en position On;
#X text 104 273 bang;
#X text 201 270 bang;
#X text -140 -40 Processus de Markov à 2 états;
#X connect 1 0 17 0;
#X connect 4 0 24 0;
#X connect 7 0 4 0;
#X connect 11 0 1 0;
#X connect 12 0 10 0;
#X connect 14 0 19 0;
#X connect 16 0 18 0;
#X connect 17 0 11 0;
#X connect 17 0 18 1;
#X connect 18 0 12 0;
#X connect 18 1 14 0;
#X connect 21 0 24 1;
#X connect 23 0 28 0;
#X connect 23 1 25 0;
#X connect 24 0 23 0;
#X connect 25 0 21 0;
#X connect 28 0 16 0;
#X connect 32 0 33 0;
#X connect 33 0 34 0;
#X connect 34 0 21 0;
#X coords 0 -1 1 1 107 45 1 100 100;
#X restore 154 179 pd ARGO;
#X text 48 49 On/Off ->;
#X text -40 10 A simple two-state Markov chain.;
#X text -40 -2 Une simple chaine de Markov à 2 états;
#X obj -7 23 pddp/pddplink http://en.wikipedia.org/wiki/Markov_chain
;
#X text -40 23 Cf ->;
#X text 311 15 On/Off Audio Patch;
#X obj -49 -21 cnv 15 15 15 empty empty ExMM135a-Markov.pd 0 8 1 14
-262144 -1 0;
#X text 126 120 <- bang nécessaire pour boucler un MM sur lui-même
;
#X text 126 130 <- bang is required to loop an MM on itself;
#X text -91 131 Proba % ->;
#X text -66 144 70% ->;
#X text 84 144 <- 30%;
#X text 114 209 40% ->;
#X text 263 209 <- 60%;
#X text 237 275 Reset Statistic;
#X text 274 286 !;
#X text 274 292 V;
#X obj 256 439 cnv 15 145 52 empty empty empty 20 12 0 14 -258113 -66577
0;
#X text 259 439 MM Statistic;
#X text 259 473 sous Windows 7;
#X text 259 462 sous Pd-0.42.5-extended;
#X text 259 450 ne fonctionne pas;
#X obj 373 521 cnv 15 48 25 empty empty empty 20 12 0 14 -24198 -66577
0;
#N canvas 350 196 308 136 ??? 0;
#X obj -6 87 cnv 15 300 38 empty empty empty 20 12 0 14 -224896 -66577
0;
#X obj -6 10 cnv 18 300 70 empty empty ARGOPdMiniModules 3 10 1 14
-4033 -1 1.04858e+06;
#X obj 13 31 cnv 10 10 10 empty empty Gerard 0 5 1 11 -4033 -1 1.04858e+06
;
#X obj 55 30 cnv 10 10 10 empty empty Paresys 0 5 1 11 -4033 -1 1.04858e+06
;
#X text -1 89 Construit sous / Build under Pd 0.42.5-extended;
#X obj 6 43 pddp/pddplink http://pagesperso-orange.fr/Paresys/ARGOPd/
;
#X obj 6 58 pddp/pddplink http://gerard.paresys.free.fr/ARGOPd/;
#X obj 46 105 pddp/pddplink http://puredata.info/downloads;
#X restore 377 525 pd ???;
#X connect 1 0 14 0;
#X connect 1 0 17 0;
#X connect 4 0 10 0;
#X connect 7 0 6 0;
#X connect 10 0 11 0;
#X connect 10 0 5 0;
#X connect 10 0 5 1;
#X connect 12 0 0 0;
#X connect 12 0 4 0;
#X connect 13 0 14 1;
#X connect 14 0 17 1;
#X connect 14 0 12 0;
#X connect 14 1 13 0;
#X connect 14 1 12 0;
#X connect 15 0 0 0;
#X connect 15 0 4 0;
#X connect 16 0 17 1;
#X connect 17 0 14 1;
#X connect 17 0 15 0;
#X connect 17 1 16 0;
#X connect 17 1 15 0;
