#N canvas 237 22 711 445 10;
#X obj -202 7 cnv 15 15 15 empty empty ExMM48c-FilterCombCtrl.pd 0
8 1 14 -262144 -1 0;
#X text 216 179 <- Contrôle de la résonance du filtre en peigne;
#X text 216 190 <- Control of the resonance of the comb-filter;
#X obj -27 420 dac~ 1 2;
#X text 214 226 <- Resonance;
#X text -83 223 Fréquence ->;
#X text -82 233 Frequency ->;
#X text -198 55 Clic pour changer de fichier ->;
#X text -150 66 Click to change file ->;
#X text 101 29 Audio player 2 channels 1 output;
#X text 102 18 Lecteur Audio 2 canaux 1 sortie;
#X text -204 21 Comb-filter = Filtre en peigne;
#X obj -191 175 switch~;
#N canvas 608 166 228 173 ARGOnOff 0;
#X obj 100 100 tgl 18 1 \$0-SendOnOff \$0-ReceiveOnOff On/Off 20 11
1 14 -4033 -1 -1 1 1;
#X obj 99 10 loadbang;
#X msg 99 33 \; pd dsp 1;
#X obj 100 129 outlet;
#X text -50 99 Audio On/Off du patch ->;
#X text -22 45 Audio General On ->;
#X text 107 82 17 3 2010;
#X connect 0 0 3 0;
#X connect 1 0 2 0;
#X coords 0 -1 1 1 65 18 2 100 100;
#X restore -191 157 pd ARGOnOff;
#X text -186 141 V;
#X text -186 134 |;
#X text -198 123 On/Off Patch;
#N canvas 219 46 718 469 ARGO 0;
#X obj 368 103 cnv 10 20 10 empty empty Play 1 5 1 14 -262144 -1 1.04858e+06
;
#X obj 101 130 cnv 4 10 4 empty empty empty 20 12 0 14 -1 -66577 0
;
#X obj 82 450 outlet~;
#X obj -13 64 openpanel;
#X msg 212 352 1;
#X msg 141 326 0;
#X msg 25 107 set \$1;
#X msg 242 377 open \$1;
#X obj 197 291 t b b;
#X msg 222 436 set 0;
#X obj 177 193 sel 1 0;
#X floatatom 230 231 5 0 0 0 - - -;
#X msg 230 208 set \$1;
#X obj 204 261 sel 1;
#X msg 110 361 set 1;
#X obj 185 6 key;
#X obj 186 29 select 32;
#X obj 42 7 loadbang;
#X obj 243 404 readsf~ 2;
#X obj -12 84 t b s;
#X obj 151 100 tgl 12 1 \$0-A \$0-B Play(Space) 14 6 1 9 -262144 -1
-1 1 1;
#X obj 311 100 bng 12 250 50 0 \$0-A \$0-B Stop 14 6 1 9 -262144 -1
-1;
#X obj 249 100 tgl 12 1 \$0-A \$0-B Loop 15 6 1 9 -262144 -1 -1 1 1
;
#X obj 48 196 list2symbol;
#X obj 100 100 bng 12 250 50 0 \$0-A \$0-B empty 14 6 1 9 -262144 -1
-1;
#X obj 174 328 delay 5;
#X obj 102 6 inlet~;
#X obj 101 58 threshold~ 0.5 5 0.49 5;
#X obj 101 100 cnv 2 10 4 empty empty empty 20 12 0 14 -1 -66577 0
;
#X obj 102 101 cnv 2 8 2 empty empty empty 20 12 0 14 -262144 -66577
0;
#X text 75 81 Trig Decl;
#X obj 106 113 hradio 14 1 0 20 empty empty empty 0 6 0 8 -260097 -260097
-260097 0;
#X obj -13 42 bang;
#X text 403 115 <- Click the name to change;
#X symbolatom 101 113 49 0 0 0 - - -;
#X obj 49 140 cnv 15 400 50 empty empty empty 20 12 0 14 -260097 -66577
0;
#X text 51 139 Nom du fichier / File name;
#X text 454 152 <- Ajouter ../ devant le nom du fichier \; pour remonter
d'un dossier;
#X obj 654 424 cnv 15 41 30 empty empty empty 20 12 0 14 -24198 -66577
0;
#N canvas 350 196 308 136 ?? 0;
#X obj -9 87 cnv 15 300 38 empty empty empty 20 12 0 14 -224896 -66577
0;
#X obj -9 10 cnv 18 300 70 empty empty ARGOPdMiniModules 1 10 1 14
-4033 -1 1.04858e+06;
#X obj 9 29 cnv 10 10 10 empty empty Gerard 0 5 1 9 -4033 -1 1.04858e+06
;
#X obj 40 29 cnv 10 10 10 empty empty Paresys 0 5 1 9 -4033 -1 1.04858e+06
;
#X text -8 89 Construit sous / Build under Pd 0.42.5-extended;
#X obj 39 105 pddplink http://puredata.info/downloads;
#X obj 3 42 pddplink http://pagesperso-orange.fr/Paresys/ARGOPd/;
#X obj 3 57 pddplink http://gerard.paresys.free.fr/ARGOPd/;
#X restore 658 431 pd ??;
#X obj 396 258 cnv 15 60 30 empty empty empty 20 12 0 14 -24198 -66577
0;
#N canvas 309 46 564 575 Help 0;
#X obj 9 -296 cnv 15 400 100 empty empty empty 20 12 0 14 -233017 -66577
0;
#X text 12 -297 Citation;
#X obj 8 -51 cnv 15 550 310 empty empty empty 20 12 0 14 -258113 -66577
0;
#X text 20 -44 - Ne lit pas un fichier au format mp3 \, SoundDesigner
II (.SDII ou .SD2);
#X text 23 56 Solution: ouvrir puis sauver le fichier au format aiff
avec Audacity;
#X text 36 43 error: dsp: xxx.aiff: unknown or bad header format;
#X text 31 -281 READSF~ - read a soundfile;
#X text 30 -263 The wave \, aiff \, and nextstep formats are parsed
automatically \, although only 2- 3- and 4- byte samples are accepted
(4 bytes implies floating point and is not available in aiff format.)
;
#X text 13 -189 - Si le Patch est sauvé avec 1 Player contenant un
nom de fichier Audio \, ce fichier sera lu automatiquement à la prochaine
ouverture s'il n'a pas changé d'emplacement.;
#X text 191 206 If the sample rate of pd is set to 44100 \, files having
the sample rates of 44100 are correctly played \, other files will
be transposed.;
#X text 193 179 WARNING The sample rate of the output depends on the
system sample rate of pd:;
#X text 21 95 - ATTENTION Le taux d'échantillonnage de la lecture du
fichier dépends du taux d'échantillonnage de Pd.;
#X text 33 122 Si le taux d'échantillonnage de Pd est de 44100 (Menu
Preferences -> Audio Settings...) \, les fichiers échantillonnés à
44100 Hz sont lus correctement \, sinon ils sont transposés.;
#X text 12 -143 - Peut Ouvrir automatiquement 1 fichier qui se trouve
dans le même dossier que lui \, quelquesoit l'emplacement du dossier.
Pour cela ouvrir le module et taper le nom du fichier (sans chemin
d'accés) dans le message. Le dossier contenant le patch et le fichier
Audio est ainsi transportable.;
#X text 21 4 - Ne lit pas un fichier au format aiff "Entier petit boutien"
comme les pistes d'un CD Audio copiées avec le finder du Mac. Le message
d'erreur s'affichent:;
#X text 8 -434 MM Audio-Play;
#X text 18 -404 Le canal 2 d'un fichier Audio Stereo est mélangé au
canal 1;
#X text 18 -390 Les canaux 3 \, 4... d'un fichier Audio de plus de
2 canaux ne sont pas lus.;
#X text 197 -328 Channels 3 \, 4... of an Audio file of more than 2
channels are not read.;
#X text 197 -342 Channel 2 of a Stereo Audio file is mixed with channel
1;
#X text 19 -418 Lit un fichier Audio Mono (1 canal) au format aiff
\, wav.;
#X text 198 -357 Reads a Mono Audio file (1 channel) with aiff \, wav
format..;
#X restore 403 264 pd Help;
#X text 405 96 13 11 2010;
#X msg 53 158 Xhosa1.aiff;
#X connect 3 0 19 0;
#X connect 4 0 18 0;
#X connect 5 0 18 0;
#X connect 6 0 43 0;
#X connect 7 0 18 0;
#X connect 8 0 25 0;
#X connect 8 1 43 0;
#X connect 9 0 20 0;
#X connect 10 0 8 0;
#X connect 10 1 9 0;
#X connect 10 1 5 0;
#X connect 11 0 13 0;
#X connect 12 0 11 0;
#X connect 13 0 24 0;
#X connect 14 0 20 0;
#X connect 15 0 16 0;
#X connect 16 0 20 0;
#X connect 17 0 43 0;
#X connect 18 0 2 0;
#X connect 18 1 2 0;
#X connect 18 2 11 0;
#X connect 18 2 9 0;
#X connect 19 0 43 0;
#X connect 19 1 6 0;
#X connect 20 0 10 0;
#X connect 21 0 5 0;
#X connect 21 0 9 0;
#X connect 22 0 12 0;
#X connect 23 0 34 0;
#X connect 23 0 7 0;
#X connect 24 0 8 0;
#X connect 25 0 4 0;
#X connect 25 0 14 0;
#X connect 26 0 27 0;
#X connect 27 0 24 0;
#X connect 31 0 32 0;
#X connect 32 0 3 0;
#X connect 43 0 23 0;
#X coords 0 -1 1 1 300 35 2 100 100;
#X restore -5 48 pd ARGO;
#N canvas 565 177 421 312 ARGO 0;
#X obj 101 101 cnv 20 215 41 empty ColorForm empty 20 12 0 14 -188398
-1 1.04858e+06;
#X obj 248 105 cnv 10 65 10 empty ColorForm Flt-Comb 1 5 1 14 -188398
-1 1.04858e+06;
#X obj 101 138 cnv 4 10 4 empty empty empty 20 12 0 14 -1 -66577 0
;
#X obj 203 101 cnv 4 10 4 empty empty empty 20 12 0 14 -1728 -66577
0;
#X obj 87 56 inlet~;
#X obj 234 125 hsl 81 12 0 1 0 1 \$0-A ColorForm 86 0 7 1 9 -262144
-1 -1 4000 0;
#X obj 188 56 inlet~;
#X obj 295 56 inlet~;
#X obj 101 101 cnv 4 10 4 empty empty empty 20 12 0 14 -1 -66577 0
;
#X obj 306 101 cnv 4 10 4 empty empty empty 20 12 0 14 -3522 -66577
0;
#X obj 86 287 outlet~;
#N canvas 795 278 241 330 Q~ 0;
#X msg 124 150 set \$1;
#X obj 15 51 +~;
#X obj 89 300 outlet;
#X obj 102 88 snapshot~;
#X obj 125 130 change;
#X obj 60 10 inlet;
#X obj 13 10 inlet~;
#X obj 17 299 outlet~;
#X msg 60 152 label \$1;
#X obj 60 130 tosymbol;
#X obj 60 108 * 100;
#X obj 100 11 loadbang;
#X obj 101 51 metro 200;
#X obj 158 12 r SendFluid;
#X connect 0 0 2 0;
#X connect 1 0 3 0;
#X connect 1 0 7 0;
#X connect 3 0 4 0;
#X connect 4 0 0 0;
#X connect 5 0 1 1;
#X connect 5 0 10 0;
#X connect 6 0 1 0;
#X connect 8 0 2 0;
#X connect 9 0 8 0;
#X connect 10 0 9 0;
#X connect 11 0 12 0;
#X connect 12 0 3 0;
#X connect 13 0 12 1;
#X restore 295 157 pd Q~;
#X text 179 84 Frequency;
#X msg 177 149 clear;
#X obj 177 113 bng 12 250 50 0 \$0-A \$0-B Silence 15 7 1 9 -262144
-1 -1;
#X text 286 84 Resonance;
#X text 6 16 Controlled Comb filter;
#X text 6 31 Filtre en peigne controllable;
#X text 319 121 <- Resonance;
#X obj 294 221 *~ -1;
#X obj 227 151 sel 0 1;
#X msg 260 181 1;
#X msg 227 180 -1;
#X obj 227 113 tgl 12 1 \$0-A \$0-B Invert 15 6 1 9 -262144 -1 -1 1
1;
#X obj 100 113 nbx 7 12 0 20000 0 1 \$0-A ColorTime Hz 60 7 1 9 -208064
-1 -1 116.541 256;
#X obj 103 125 hsl 127 12 0 1 0 0 \$0-A ColorTime empty 0 7 1 9 -262144
-1 -1 4000 0;
#X obj 103 125 hsl 127 12 0 1 0 0 \$0-A ColorTime Bb1 0 7 1 9 -208064
-1728 -1 4000 0;
#N canvas 629 255 362 334 Freq-v5-ms- 0;
#X obj 297 156 ftom;
#X obj 135 204 mtof;
#X obj 210 67 +~;
#X obj 23 107 snapshot~;
#X obj 23 129 change;
#X msg 22 226 set \$1;
#X msg 136 226 set \$1;
#X obj 135 157 * 126;
#X obj 135 180 + 6;
#X obj 299 201 / 126;
#X obj 298 179 - 6;
#X obj 156 33 *~ 1.90476;
#X obj 227 6 inlet;
#X obj 297 6 inlet;
#X obj 48 253 outlet;
#X obj 136 253 outlet;
#X text 45 270 Hslider;
#X text 222 -20 Hslider;
#X obj 156 8 inlet~;
#X obj 24 64 metro 200;
#X obj 24 7 loadbang;
#X obj 135 129 change;
#X obj 299 253 outlet;
#X text 297 269 Hslider;
#X text 136 269 Number;
#X text 294 -10 Number;
#X text 50 282 Over;
#X text 302 280 Under;
#X text 227 -9 Under;
#X obj 208 180 mtof~;
#X obj 208 133 *~ 126;
#X obj 208 155 +~ 6;
#X obj 193 252 outlet~;
#X obj 193 227 /~;
#X text 197 268 Out ms;
#X obj 195 99 sig~ 1000;
#X obj 208 202 clip~ 2 20000;
#N canvas 60 186 486 280 pitchb 0;
#X obj 75 79 mod 12;
#X obj 75 103 sel 0 1 2 3 4 5 6 7 8 9 10 11;
#X msg 251 138 A;
#X msg 305 138 B;
#X msg 197 138 G;
#X msg 8 138 C;
#X msg 62 138 D;
#X msg 116 138 E;
#X msg 143 138 F;
#X obj 209 8 inlet;
#X obj 334 83 div 12;
#X obj 334 112 - 2;
#X obj 209 47 t f f;
#X text 339 158 -> Numero de l'octave;
#X text 215 27 -> Numero MIDI de la note (69 = A3 = 440Hz);
#X msg 265 228 label \$1;
#X obj 265 251 outlet;
#X msg 35 138 Db;
#X msg 89 138 Eb;
#X msg 170 138 Gb;
#X msg 224 138 Ab;
#X msg 278 138 Bb;
#X text 371 41 (70 = A#3 = Bb3);
#X obj 265 206 symbol;
#X obj 265 181 sprintf %s%d;
#X text 16 199 Impossible d'afficher # dans un label;
#X text 16 211 donc j'affiche b;
#X connect 0 0 1 0;
#X connect 1 0 5 0;
#X connect 1 1 17 0;
#X connect 1 2 6 0;
#X connect 1 3 18 0;
#X connect 1 4 7 0;
#X connect 1 5 8 0;
#X connect 1 6 19 0;
#X connect 1 7 4 0;
#X connect 1 8 20 0;
#X connect 1 9 2 0;
#X connect 1 10 21 0;
#X connect 1 11 3 0;
#X connect 2 0 24 0;
#X connect 3 0 24 0;
#X connect 4 0 24 0;
#X connect 5 0 24 0;
#X connect 6 0 24 0;
#X connect 7 0 24 0;
#X connect 8 0 24 0;
#X connect 9 0 12 0;
#X connect 10 0 11 0;
#X connect 11 0 24 1;
#X connect 12 0 0 0;
#X connect 12 1 10 0;
#X connect 15 0 16 0;
#X connect 17 0 24 0;
#X connect 18 0 24 0;
#X connect 19 0 24 0;
#X connect 20 0 24 0;
#X connect 21 0 24 0;
#X connect 23 0 15 0;
#X connect 24 0 23 0;
#X restore 71 225 pd pitchb;
#X obj 80 9 r SendFluid;
#X connect 0 0 10 0;
#X connect 1 0 6 0;
#X connect 2 0 3 0;
#X connect 2 0 30 0;
#X connect 3 0 4 0;
#X connect 4 0 5 0;
#X connect 5 0 14 0;
#X connect 6 0 15 0;
#X connect 7 0 8 0;
#X connect 8 0 1 0;
#X connect 8 0 37 0;
#X connect 9 0 22 0;
#X connect 10 0 9 0;
#X connect 11 0 2 0;
#X connect 12 0 2 1;
#X connect 12 0 21 0;
#X connect 13 0 0 0;
#X connect 18 0 11 0;
#X connect 19 0 3 0;
#X connect 20 0 19 0;
#X connect 21 0 7 0;
#X connect 29 0 36 0;
#X connect 30 0 31 0;
#X connect 31 0 29 0;
#X connect 33 0 32 0;
#X connect 35 0 33 0;
#X connect 36 0 33 1;
#X connect 37 0 14 0;
#X connect 38 0 19 1;
#X restore -19 121 pd Freq-v5-ms-;
#X obj 342 231 cnv 15 41 30 empty empty empty 20 12 0 14 -24198 -66577
0;
#N canvas 350 196 381 103 ? 0;
#X obj 5 49 cnv 15 370 38 empty empty empty 20 12 0 14 -224896 -66577
0;
#X text 6 65 Voir/Look at: http://puredata.info/downloads;
#X obj 4 12 cnv 18 370 30 empty empty ARGOPdMiniModules 1 10 1 14 -4033
-1 1.04858e+06;
#X obj 7 31 cnv 10 10 10 empty empty Gerard 0 5 1 9 -4033 -1 1.04858e+06
;
#X obj 38 31 cnv 10 10 10 empty empty Paresys 0 5 1 9 -4033 -1 1.04858e+06
;
#X obj 175 20 cnv 10 10 10 empty empty http://pagesperso-orange.fr/Paresys/ARGOPd/
0 5 1 9 -4033 -1 1.04858e+06;
#X obj 175 31 cnv 10 10 10 empty empty http://gerard.paresys.free.fr/ARGOPd/
0 5 1 9 -4033 -1 1.04858e+06;
#X text 6 51 Construit sous / Build under Pd 0.41.4-extended;
#X restore 348 238 pd ?;
#X obj 0 62 cnv 15 60 30 empty empty empty 20 12 0 14 -24198 -66577
0;
#N canvas 493 106 428 346 Help 0;
#X obj 13 31 cnv 15 400 100 empty empty empty 20 12 0 14 -233017 -66577
0;
#X text 17 33 Citation;
#X text 16 5 Flt-Comb = Comb Filter = Filtre en peigne;
#X text 45 52 Library Cyclone;
#X text 14 134 comb~ 100 0 1 0.9 0.5;
#X text 28 148 - 100 = max delay time (msec);
#X text 29 161 - 0 = Delay time (msec) for a past sample to be added
into the current output.;
#X text 29 186 - 1 = Amplitude coefficient for scaling the amount of
the input sample to be sent to the output.;
#X text 31 213 - 0.9 = Amplitude coefficient for scaling the amount
of the delayed past input sample to be added to the output.;
#X text 32 240 - 0.5 = Amplitude coefficient for scaling the amount
of the delayed past output sample to be added to the output.;
#X text 45 67 docs based on the MAX/MSP reference (c) cycling'74;
#X restore 7 68 pd Help;
#X obj 234 125 hsl 81 12 0 1 0 1 \$0-A ColorForm 50 0 7 1 9 -188398
-3522 -1 7936 0;
#X obj 86 250 comb~ 100 0 1 0.9 0.5;
#X text 324 103 13 11 2010;
#X connect 4 0 33 0;
#X connect 5 0 11 1;
#X connect 6 0 27 0;
#X connect 7 0 11 0;
#X connect 11 0 19 0;
#X connect 11 1 32 0;
#X connect 13 0 33 0;
#X connect 14 0 13 0;
#X connect 19 0 33 4;
#X connect 20 0 22 0;
#X connect 20 1 21 0;
#X connect 21 0 19 1;
#X connect 21 0 33 3;
#X connect 22 0 19 1;
#X connect 22 0 33 3;
#X connect 23 0 20 0;
#X connect 24 0 27 2;
#X connect 25 0 27 1;
#X connect 27 0 26 0;
#X connect 27 1 24 0;
#X connect 27 2 33 1;
#X connect 27 3 25 0;
#X connect 33 0 10 0;
#X coords 0 -1 1 1 217 43 1 100 100;
#X restore -5 204 pd ARGO;
#X obj 453 405 cnv 15 41 30 empty empty empty 20 12 0 14 -24198 -66577
0;
#N canvas 350 196 308 136 ?? 0;
#X obj -9 87 cnv 15 300 38 empty empty empty 20 12 0 14 -224896 -66577
0;
#X obj -9 10 cnv 18 300 70 empty empty ARGOPdMiniModules 1 10 1 14
-4033 -1 1.04858e+06;
#X obj 9 29 cnv 10 10 10 empty empty Gerard 0 5 1 9 -4033 -1 1.04858e+06
;
#X obj 40 29 cnv 10 10 10 empty empty Paresys 0 5 1 9 -4033 -1 1.04858e+06
;
#X text -8 89 Construit sous / Build under Pd 0.42.5-extended;
#X obj 39 105 pddplink http://puredata.info/downloads;
#X obj 3 42 pddplink http://pagesperso-orange.fr/Paresys/ARGOPd/;
#X obj 3 57 pddplink http://gerard.paresys.free.fr/ARGOPd/;
#X restore 457 412 pd ??;
#N canvas 324 59 331 313 ARGO 0;
#X obj 101 101 cnv 20 104 34 empty ColorAmpli empty 20 12 0 14 -261299
-1 1.04858e+06;
#X obj 85 285 outlet~;
#X obj 134 104 cnv 10 20 10 empty ColorAmpli Ampli 1 5 1 14 -261299
-1 1.04858e+06;
#X obj 85 72 inlet~;
#X obj 85 260 *~;
#X obj 103 118 hsl 101 12 -80 20 0 1 \$0-A ColorAmpli -12dB 0 7 1 9
-261299 -1 -1 6800 0;
#X msg -24 161 label \$1;
#X obj -25 138 tosymbol;
#X obj -25 103 sprintf %ddB;
#X obj 101 101 cnv 4 10 4 empty empty empty 20 12 0 14 -1 -66577 0
;
#X obj 101 131 cnv 4 10 4 empty empty empty 20 12 0 14 -1 -66577 0
;
#X text -16 120 -> -80dB..20dB;
#X text 106 182 -> 0.0001..10 = -80dB..20dB;
#X text 209 97 5 5 2011;
#X obj 100 163 expr (pow(10 \, $f1 / 20));
#X text 107 140 -> -80..20;
#X obj 227 270 cnv 15 41 30 empty empty empty 20 12 0 14 -24198 -66577
0;
#N canvas 350 196 308 136 ?? 0;
#X obj -9 87 cnv 15 300 38 empty empty empty 20 12 0 14 -224896 -66577
0;
#X obj -9 10 cnv 18 300 70 empty empty ARGOPdMiniModules 1 10 1 14
-4033 -1 1.04858e+06;
#X obj 9 29 cnv 10 10 10 empty empty Gerard 0 5 1 9 -4033 -1 1.04858e+06
;
#X obj 40 29 cnv 10 10 10 empty empty Paresys 0 5 1 9 -4033 -1 1.04858e+06
;
#X text -8 89 Construit sous / Build under Pd 0.42.5-extended;
#X obj 39 105 pddplink http://puredata.info/downloads;
#X obj 3 42 pddplink http://pagesperso-orange.fr/Paresys/ARGOPd/;
#X obj 3 57 pddplink http://gerard.paresys.free.fr/ARGOPd/;
#X restore 231 277 pd ??;
#X obj 100 206 sel 0.0001;
#X msg 100 234 0;
#X connect 3 0 4 0;
#X connect 4 0 1 0;
#X connect 5 0 8 0;
#X connect 5 0 14 0;
#X connect 6 0 5 0;
#X connect 7 0 6 0;
#X connect 8 0 7 0;
#X connect 14 0 18 0;
#X connect 18 0 19 0;
#X connect 18 1 4 1;
#X connect 19 0 4 1;
#X connect 19 0 7 0;
#X coords 0 -1 1 1 106 36 1 100 100;
#X restore -5 259 pd ARGO;
#X text -112 269 Niveau general ->;
#X text -106 280 General level ->;
#N canvas 324 59 331 313 ARGO 0;
#X obj 101 101 cnv 20 104 34 empty ColorAmpli empty 20 12 0 14 -261299
-1 1.04858e+06;
#X obj 85 285 outlet~;
#X obj 134 104 cnv 10 20 10 empty ColorAmpli Ampli 1 5 1 14 -261299
-1 1.04858e+06;
#X obj 85 72 inlet~;
#X obj 85 260 *~;
#X obj 103 118 hsl 101 12 -80 20 0 1 \$0-A ColorAmpli -6dB 0 7 1 9
-261299 -1 -1 7400 0;
#X msg -24 161 label \$1;
#X obj -25 138 tosymbol;
#X obj -25 103 sprintf %ddB;
#X obj 101 101 cnv 4 10 4 empty empty empty 20 12 0 14 -1 -66577 0
;
#X obj 101 131 cnv 4 10 4 empty empty empty 20 12 0 14 -1 -66577 0
;
#X text -16 120 -> -80dB..20dB;
#X text 106 182 -> 0.0001..10 = -80dB..20dB;
#X text 209 97 5 5 2011;
#X obj 100 163 expr (pow(10 \, $f1 / 20));
#X text 107 140 -> -80..20;
#X obj 227 270 cnv 15 41 30 empty empty empty 20 12 0 14 -24198 -66577
0;
#N canvas 350 196 308 136 ?? 0;
#X obj -9 87 cnv 15 300 38 empty empty empty 20 12 0 14 -224896 -66577
0;
#X obj -9 10 cnv 18 300 70 empty empty ARGOPdMiniModules 1 10 1 14
-4033 -1 1.04858e+06;
#X obj 9 29 cnv 10 10 10 empty empty Gerard 0 5 1 9 -4033 -1 1.04858e+06
;
#X obj 40 29 cnv 10 10 10 empty empty Paresys 0 5 1 9 -4033 -1 1.04858e+06
;
#X text -8 89 Construit sous / Build under Pd 0.42.5-extended;
#X obj 39 105 pddplink http://puredata.info/downloads;
#X obj 3 42 pddplink http://pagesperso-orange.fr/Paresys/ARGOPd/;
#X obj 3 57 pddplink http://gerard.paresys.free.fr/ARGOPd/;
#X restore 231 277 pd ??;
#X obj 100 206 sel 0.0001;
#X msg 100 234 0;
#X connect 3 0 4 0;
#X connect 4 0 1 0;
#X connect 5 0 8 0;
#X connect 5 0 14 0;
#X connect 6 0 5 0;
#X connect 7 0 6 0;
#X connect 8 0 7 0;
#X connect 14 0 18 0;
#X connect 18 0 19 0;
#X connect 18 1 4 1;
#X connect 19 0 4 1;
#X connect 19 0 7 0;
#X coords 0 -1 1 1 106 36 1 100 100;
#X restore 205 141 pd ARGO;
#N canvas 355 145 356 192 ARGO 0;
#X obj 92 143 osc~;
#X obj 101 101 cnv 20 244 34 empty ColorTime Oscill-Sinus 170 8 1 14
-208064 -1 1.04858e+06;
#X obj 92 168 outlet~;
#X obj 100 106 nbx 7 12 0 20000 0 1 \$0-A ColorTime Hz 60 7 1 9 -208064
-1 -1 0.160951 256;
#X obj 87 26 inlet~;
#X obj 101 131 cnv 4 10 4 empty empty empty 20 12 0 14 -1 -66577 0
;
#X obj 101 101 cnv 4 10 4 empty empty empty 20 12 0 14 -1728 -66577
0;
#X obj 103 118 hsl 241 12 0 1 0 0 \$0-A ColorTime empty 0 7 1 9 -262144
-1 -1 4000 0;
#X obj 103 118 hsl 241 12 0 1 0 0 \$0-A ColorTime E-8 0 7 1 9 -208064
-1728 -1 4000 0;
#X text 155 147 2 HSLIDER superposés;
#X text 154 136 ATTENTION;
#X obj 197 52 cnv 15 60 30 empty empty empty 20 12 0 14 -24198 -66577
0;
#N canvas 161 113 425 238 Help 0;
#X obj 8 85 cnv 15 400 100 empty empty empty 20 12 0 14 -233017 -66577
0;
#X text 12 87 Citation;
#X text 10 45 Sensibilitée de l'entrée de contrôle de la fréquence:
;
#X text 10 57 1 = 240 1/2 ton = 20 octaves;
#X text 11 19 Oscillateur sinusoïdal;
#X text 22 106 The osc~ object outputs a cosine wave. If no argument
is supplied \, the input is taken to be an audio signal.;
#X restore 204 58 pd Help;
#X text 282 80 27 12 2010;
#N canvas 86 284 344 337 Freq-v8-sig- 0;
#X obj 226 11 ftom;
#X obj 279 170 mtof;
#X obj 141 95 +~;
#X obj 9 142 snapshot~;
#X obj 9 164 change;
#X msg 9 189 set \$1;
#X obj 142 198 clip~ 0 20000;
#X obj 142 175 mtof~;
#X obj 142 227 outlet~;
#X obj 280 -12 inlet;
#X obj 225 -13 inlet;
#X obj 38 227 outlet;
#X obj 279 227 outlet;
#X text 35 245 Hslider;
#X obj 141 -8 inlet~;
#X obj 8 -9 loadbang;
#X obj 229 227 outlet;
#X obj 279 109 * 240;
#X obj 279 132 - 108;
#X obj 141 123 *~ 240;
#X obj 141 145 -~ 108;
#X obj 226 34 + 108;
#X obj 226 56 / 240;
#X obj 9 40 metro 200;
#X obj 64 -9 r SendFluid;
#X text 44 256 Over;
#X text 281 245 Number;
#X text 222 -30 Number;
#X text 228 244 Hslider;
#X text 230 255 Under;
#X text 281 -42 Hslider;
#X text 286 -31 Under;
#X msg 229 197 set \$1;
#N canvas 220 243 583 317 pitchb-11-2010 0;
#X obj 70 111 mod 12;
#X obj 70 135 sel 0 1 2 3 4 5 6 7 8 9 10 11;
#X msg 246 170 A;
#X msg 300 170 B;
#X msg 192 170 G;
#X msg 3 170 C;
#X msg 57 170 D;
#X msg 111 170 E;
#X msg 138 170 F;
#X obj 204 1 inlet;
#X obj 329 115 div 12;
#X obj 204 79 t f f;
#X text 334 190 -> Numero de l'octave;
#X text 213 64 -> Numero MIDI de la note (69 = A3 = 440Hz);
#X msg 260 260 label \$1;
#X obj 260 283 outlet;
#X msg 30 170 Db;
#X msg 84 170 Eb;
#X msg 165 170 Gb;
#X msg 219 170 Ab;
#X msg 273 170 Bb;
#X text 369 78 (70 = A#3 = Bb3);
#X obj 260 238 symbol;
#X obj 260 213 sprintf %s%d;
#X text 11 231 Impossible d'afficher # dans un label;
#X text 11 243 donc j'affiche b;
#X obj 204 51 int;
#X text 255 23 -> pour corriger certaines erreurs de calcul;
#X obj 329 144 - 12;
#X text 255 35 et le pb du passage a zero de mod 12;
#X obj 204 25 + 120.5;
#X connect 0 0 1 0;
#X connect 1 0 5 0;
#X connect 1 1 16 0;
#X connect 1 2 6 0;
#X connect 1 3 17 0;
#X connect 1 4 7 0;
#X connect 1 5 8 0;
#X connect 1 6 18 0;
#X connect 1 7 4 0;
#X connect 1 8 19 0;
#X connect 1 9 2 0;
#X connect 1 10 20 0;
#X connect 1 11 3 0;
#X connect 2 0 23 0;
#X connect 3 0 23 0;
#X connect 4 0 23 0;
#X connect 5 0 23 0;
#X connect 6 0 23 0;
#X connect 7 0 23 0;
#X connect 8 0 23 0;
#X connect 9 0 30 0;
#X connect 10 0 28 0;
#X connect 11 0 0 0;
#X connect 11 1 10 0;
#X connect 14 0 15 0;
#X connect 16 0 23 0;
#X connect 17 0 23 0;
#X connect 18 0 23 0;
#X connect 19 0 23 0;
#X connect 20 0 23 0;
#X connect 22 0 14 0;
#X connect 23 0 22 0;
#X connect 26 0 11 0;
#X connect 28 0 23 1;
#X connect 30 0 26 0;
#X restore 85 60 pd pitchb-11-2010;
#X connect 0 0 21 0;
#X connect 0 0 33 0;
#X connect 1 0 12 0;
#X connect 2 0 3 0;
#X connect 2 0 19 0;
#X connect 3 0 4 0;
#X connect 4 0 5 0;
#X connect 5 0 11 0;
#X connect 6 0 8 0;
#X connect 7 0 6 0;
#X connect 9 0 17 0;
#X connect 10 0 0 0;
#X connect 14 0 2 0;
#X connect 15 0 23 0;
#X connect 17 0 18 0;
#X connect 18 0 1 0;
#X connect 19 0 20 0;
#X connect 20 0 7 0;
#X connect 21 0 22 0;
#X connect 22 0 2 1;
#X connect 22 0 32 0;
#X connect 23 0 3 0;
#X connect 24 0 23 1;
#X connect 32 0 16 0;
#X connect 33 0 11 0;
#X restore 62 63 pd Freq-v8-sig-;
#X obj 301 149 cnv 15 41 30 empty empty empty 20 12 0 14 -24198 -66577
0;
#N canvas 350 196 308 136 ?? 0;
#X obj -9 87 cnv 15 300 38 empty empty empty 20 12 0 14 -224896 -66577
0;
#X obj -9 10 cnv 18 300 70 empty empty ARGOPdMiniModules 1 10 1 14
-4033 -1 1.04858e+06;
#X obj 9 29 cnv 10 10 10 empty empty Gerard 0 5 1 9 -4033 -1 1.04858e+06
;
#X obj 40 29 cnv 10 10 10 empty empty Paresys 0 5 1 9 -4033 -1 1.04858e+06
;
#X text -8 89 Construit sous / Build under Pd 0.42.5-extended;
#X obj 39 105 pddplink http://puredata.info/downloads;
#X obj 3 42 pddplink http://pagesperso-orange.fr/Paresys/ARGOPd/;
#X obj 3 57 pddplink http://gerard.paresys.free.fr/ARGOPd/;
#X restore 305 156 pd ??;
#X connect 0 0 2 0;
#X connect 3 0 14 1;
#X connect 4 0 14 0;
#X connect 7 0 14 2;
#X connect 14 0 8 0;
#X connect 14 1 0 0;
#X connect 14 2 7 0;
#X connect 14 3 3 0;
#X coords 0 -1 1 1 246 36 1 100 100;
#X restore 205 97 pd ARGO;
#N canvas 432 42 314 359 ARGO 0;
#X obj 101 101 cnv 30 37 130 empty ColorAmpli empty 20 12 0 14 -1 -258113
0;
#X obj 101 101 cnv 4 10 4 empty empty empty 20 12 0 14 -1 -66577 0
;
#X obj 102 108 vu 8 120 \$0-B empty 0 0 1 11 -1 -4034 1 0;
#X obj 42 -112 inlet~;
#X obj 35 -87 *~;
#X obj 35 3 snapshot~;
#X obj 35 26 sqrt;
#X obj 35 -24 lop~ 10;
#X obj 35 50 rmstodb;
#X obj 98 -111 loadbang;
#X obj 35 73 - 100;
#X obj 171 26 sqrt;
#X obj 172 50 rmstodb;
#X obj 172 73 - 100;
#X obj 97 -23 metro 200;
#X obj 236 -97 cnv 15 60 30 empty empty empty 20 12 0 14 -24198 -66577
0;
#N canvas 300 65 442 264 Help 0;
#X obj 12 48 cnv 15 400 150 empty empty empty 20 12 0 14 -233017 -66577
0;
#X text 16 50 Citation;
#X text 28 67 peakamp~ tracks and outputs the absolute value of the
peak amplitude of the incoming signal. It outputs when banged or using
its own internal clock. The peak value is reset each time peakamp~
outputs a value.;
#X text 17 214 par rapport à la version précédente du MM-Vumetre env~
est remplacé par square~ + lop~ + snapshot~ + sqrt + rmstodb car env~
consomme beaucoup CPU.;
#X text 29 123 cyclone library;
#X text 28 135 http://suita.chopin.edu.pl/~czaja/miXed/externs/cyclone.html
;
#X text 29 155 Voir doc Max/MSP MSP46ReferenceManual.pdf;
#X text 18 14 MM-Vumetre;
#X restore 243 -91 pd Help;
#X obj 261 199 cnv 15 41 30 empty empty empty 20 12 0 14 -24198 -66577
0;
#N canvas 350 196 308 136 ?? 0;
#X obj -9 87 cnv 15 300 38 empty empty empty 20 12 0 14 -224896 -66577
0;
#X obj -9 10 cnv 18 300 70 empty empty ARGOPdMiniModules 1 10 1 14
-4033 -1 1.04858e+06;
#X obj 9 29 cnv 10 10 10 empty empty Gerard 0 5 1 9 -4033 -1 1.04858e+06
;
#X obj 40 29 cnv 10 10 10 empty empty Paresys 0 5 1 9 -4033 -1 1.04858e+06
;
#X text -8 89 Construit sous / Build under Pd 0.42.5-extended;
#X obj 39 105 pddplink http://puredata.info/downloads;
#X obj 3 42 pddplink http://pagesperso-orange.fr/Paresys/ARGOPd/;
#X obj 3 57 pddplink http://gerard.paresys.free.fr/ARGOPd/;
#X restore 265 206 pd ??;
#X obj 158 -111 r SendFluid;
#X obj 171 -50 cyclone/peakamp~ 1000;
#X text 145 106 13 2 2011;
#X connect 3 0 4 0;
#X connect 3 0 4 1;
#X connect 4 0 7 0;
#X connect 4 0 20 0;
#X connect 5 0 6 0;
#X connect 6 0 8 0;
#X connect 7 0 5 0;
#X connect 8 0 10 0;
#X connect 9 0 14 0;
#X connect 10 0 2 0;
#X connect 11 0 12 0;
#X connect 12 0 13 0;
#X connect 13 0 2 1;
#X connect 14 0 5 0;
#X connect 19 0 14 1;
#X connect 20 0 11 0;
#X coords 0 -1 1 1 39 132 2 100 100;
#X restore 106 308 pd ARGO;
#X connect 13 0 12 0;
#X connect 17 0 18 0;
#X connect 18 0 21 0;
#X connect 21 0 3 1;
#X connect 21 0 3 0;
#X connect 21 0 26 0;
#X connect 24 0 18 2;
#X connect 25 0 24 0;
