#N canvas 82 200 716 518 10;
#X declare -lib mtl;
#X declare -lib cyclone;
#X declare -lib maxlib;
#X declare -lib pdmtl;
#X declare -lib mrpeach;
#X symbolatom -257 193 30 0 0 0 - - -;
#X obj -257 32 mtl/fileBrowser;
#X obj -257 431 mtl/limit~;
#X obj -161 277 iemlib/init 1;
#X obj 47 14 cnv 15 79 21 empty empty AUDIO 0 12 0 20 -1 -262144 0
;
#X obj -66 190 - 1;
#X msg -66 210 send vs \$1;
#X msg -257 13 symbol footage;
#X obj -163 13 loadbang;
#N canvas 153 501 450 300 guts 0;
#X obj 351 11 import mtl;
#X obj 351 31 import cyclone;
#X obj 351 51 import maxlib;
#X obj 351 73 import pdmtl;
#X obj 18 30 loadbang;
#X msg 18 58 \; pd dsp 1 \;;
#X connect 4 0 5 0;
#X restore 47 43 pd guts;
#X obj -161 341 s \$0-udp-ph;
#X obj -161 298 tgl 15 0 empty \$0-sendposition empty 17 7 0 10 -262144
-1 -1 1 1;
#X obj -66 230 s \$0-netsend;
#N canvas 187 519 680 447 keyboard 0;
#X obj 46 25 mtl/keyR 2;
#X obj 46 65 bng 15 250 50 0 empty empty empty 17 7 0 10 -262144 -1
-1;
#X obj 46 45 sel 1;
#X obj -24 65 bng 15 250 50 0 empty empty empty 17 7 0 10 -262144 -1
-1;
#X obj -24 45 sel 1;
#X obj -24 25 mtl/keyR 1;
#X obj 116 65 bng 15 250 50 0 empty empty empty 17 7 0 10 -262144 -1
-1;
#X obj 116 45 sel 1;
#X obj 116 25 mtl/keyR 3;
#X obj -25 106 s \$0-player;
#X obj 184 45 sel 1;
#X obj 184 25 mtl/keyR 0;
#X msg 184 66 0;
#X msg -24 83 1 0.24;
#X msg 46 83 0.5 0.55;
#X msg 116 83 -2 0.77;
#X connect 0 0 2 0;
#X connect 1 0 14 0;
#X connect 2 0 1 0;
#X connect 3 0 13 0;
#X connect 4 0 3 0;
#X connect 5 0 4 0;
#X connect 6 0 15 0;
#X connect 7 0 6 0;
#X connect 8 0 7 0;
#X connect 10 0 12 0;
#X connect 11 0 10 0;
#X connect 12 0 9 0;
#X connect 13 0 9 0;
#X connect 14 0 9 0;
#X connect 15 0 9 0;
#X restore 47 102 pd keyboard;
#N canvas 0 94 957 613 audiofx 0;
#X obj -214 10 catch~ \$0-fx-l;
#X obj -124 10 catch~ \$0-fx-r;
#X obj -211 574 throw~ \$0-mb-l;
#X obj -122 574 throw~ \$0-mb-r;
#X obj -208 322 mtl/distoLofi~ /id lofi;
#X obj -211 58 mtl/reverbFree~ /id fv;
#X obj -208 428 mtl/vibrato~ /id vibrato;
#X obj -10 435 cnv 15 200 20 empty empty /vibrato/ 2 12 0 8 -258401
-262144 0;
#X obj -10 458 hsl 100 15 0 1 0 0 /vibrato/phase /vibrato/phase_ phase
105 7 0 8 -262144 -1 -1 0 1;
#X obj -10 476 hsl 100 15 0 1 0 0 /vibrato/feedback /vibrato/feedback_
feedback 105 7 0 8 -262144 -1 -1 5600 1;
#X obj -10 494 hsl 100 15 0 1 0 0 /vibrato/speed /vibrato/speed_ speed
105 7 0 8 -262144 -1 -1 0 1;
#X obj -10 512 hsl 100 15 0 1 0 0 /vibrato/depth /vibrato/depth_ depth
105 7 0 8 -262144 -1 -1 5800 1;
#X obj -3 58 cnv 15 200 20 empty empty /fv/ 2 12 0 8 -258401 -262144
0;
#X obj -3 81 hsl 100 15 0 1 0 0 /fv/wet /fv/wet_ wet 105 7 0 8 -262144
-1 -1 0 1;
#X obj -3 99 hsl 100 15 0 1 0 0 /fv/width /fv/width_ width 105 7 0
8 -262144 -1 -1 9900 1;
#X obj -3 117 hsl 100 15 0.11 1.6 0 0 /fv/roomsize /fv/roomsize_ roomsize
105 7 0 8 -262144 -1 -1 2362 1;
#X obj -3 135 tgl 15 0 /fv/freeze /fv/freeze_ freeze 17 7 0 8 -262144
-166441 -1 0 0.5;
#X obj -3 153 hsl 100 15 0 2 0 0 /fv/damping /fv/damping_ damping 105
7 0 8 -262144 -1 -1 4880 1;
#X obj -207 215 mtl/echoVd~ /id echovd;
#X obj -10 203 cnv 15 200 20 empty empty /echovd/ 2 12 0 8 -258401
-262144 0;
#X obj -10 226 hsl 100 15 0 1 0 0 /echovd/wet /echovd/wet_ wet 105
7 0 8 -262144 -1 -1 0 1;
#X obj -10 244 hsl 100 15 0 5000 0 0 /echovd/delay /echovd/delay_ delay
105 7 0 8 -262144 -1 -1 1798 1;
#X obj -10 262 hsl 100 15 0 1 0 0 /echovd/strength /echovd/strength_
strength 105 7 0 8 -262144 -1 -1 5950 1;
#X obj -11 318 cnv 15 200 20 empty empty /lofi/ 2 12 0 8 -258401 -262144
0;
#X obj -11 341 hsl 100 15 0 1 0 0 /lofi/wet /lofi/wet_ wet 105 7 0
8 -262144 -1 -1 0 1;
#X obj -11 359 hsl 100 15 0 1 0 0 /lofi/freq /lofi/freq_ freq 105 7
0 8 -262144 -1 -1 4950 1;
#X obj -11 377 hsl 100 15 0 1 0 0 /lofi/bits /lofi/bits_ bits 105 7
0 8 -262144 -1 -1 9900 1;
#X obj 233 380 line 0 1;
#X msg 233 359 \$1 50;
#X obj 233 339 maxlib/scale 0 100 0 1;
#X obj 381 381 line 0 1;
#X msg 381 360 \$1 50;
#X obj 381 340 maxlib/scale 0 100 0.4 0.1;
#X obj 233 259 line 0 1;
#X msg 233 238 \$1 50;
#X obj 233 218 maxlib/scale 0 100 0 1;
#X obj 230 123 line 0 1;
#X msg 230 102 \$1 50;
#X obj 230 82 maxlib/scale 0 100 0 1;
#X obj 231 503 line 0 1;
#X msg 231 482 \$1 50;
#X obj 231 462 maxlib/scale 0 100 0 0.5;
#X obj 386 58 r \$0-bangfreeze;
#X obj 386 78 t b b;
#X msg 386 118 0;
#X obj 386 98 delay 6000;
#X obj 232 318 r /pdprkf1;
#X obj 381 321 r /pdprkf2;
#X obj 233 199 r /pdprkf3;
#X obj 230 61 r /pdprkf4;
#X obj 231 440 r /pdprkf5;
#X msg 456 97 0.5;
#X connect 0 0 5 0;
#X connect 1 0 5 1;
#X connect 4 0 6 0;
#X connect 4 1 6 1;
#X connect 5 0 18 0;
#X connect 5 1 18 1;
#X connect 6 0 2 0;
#X connect 6 1 3 0;
#X connect 18 0 4 0;
#X connect 18 1 4 1;
#X connect 27 0 24 0;
#X connect 28 0 27 0;
#X connect 29 0 28 0;
#X connect 30 0 26 0;
#X connect 31 0 30 0;
#X connect 32 0 31 0;
#X connect 33 0 20 0;
#X connect 34 0 33 0;
#X connect 35 0 34 0;
#X connect 36 0 13 0;
#X connect 37 0 36 0;
#X connect 38 0 37 0;
#X connect 39 0 10 0;
#X connect 40 0 39 0;
#X connect 41 0 40 0;
#X connect 42 0 43 0;
#X connect 43 0 45 0;
#X connect 43 1 51 0;
#X connect 44 0 16 0;
#X connect 44 0 13 0;
#X connect 45 0 44 0;
#X connect 46 0 29 0;
#X connect 47 0 32 0;
#X connect 48 0 35 0;
#X connect 49 0 38 0;
#X connect 50 0 41 0;
#X connect 51 0 16 0;
#X connect 51 0 13 0;
#X restore -46 131 pd audiofx;
#X obj -245 213 s \$0-wavfilename;
#X obj -245 231 r \$0-sf;
#N canvas 696 91 577 617 network 0;
#X obj -180 32 netsend 1;
#X obj -180 -66 loadbang;
#X msg 49 20 send ph \$1;
#X obj 49 -1 r \$0-udp-ph;
#X obj -33 -2 r \$0-netsend;
#X msg -32 -24 disconnect;
#X obj -63 181 s \$0-netsend;
#X msg -63 160 send audiofile \$1;
#X obj -63 98 mtl/splitExtension;
#X obj -63 139 symbol;
#X msg -63 120 \$1.avi;
#X obj -180 55 r \$0-samplename;
#X obj -180 76 unpack s f f s s f s;
#X obj -33 20 spigot;
#X obj -85 -55 inlet;
#X obj -180 -44 delay 3000;
#X msg -180 -24 connect localhost 10000;
#X connect 0 0 13 1;
#X connect 1 0 15 0;
#X connect 2 0 13 0;
#X connect 3 0 2 0;
#X connect 4 0 13 0;
#X connect 5 0 0 0;
#X connect 7 0 6 0;
#X connect 8 0 10 0;
#X connect 9 0 7 0;
#X connect 10 0 9 0;
#X connect 11 0 12 0;
#X connect 12 6 8 0;
#X connect 13 0 0 0;
#X connect 14 0 16 0;
#X connect 15 0 16 0;
#X connect 16 0 0 0;
#X restore 47 81 pd network;
#N canvas 354 98 909 694 sequencing 0;
#N canvas 12 183 761 308 randomize 0;
#X obj 136 23 inlet;
#X obj 136 253 outlet;
#X obj 135 84 tof/iterate;
#X msg 135 49 8;
#X obj 128 134 t f b b b b b b b b b;
#X obj 134 224 pack f f f f f f f f f;
#X obj 146 167 random 2;
#X obj 204 169 random 2;
#X obj 259 172 random 2;
#X obj 317 174 random 2;
#X obj 376 173 random 2;
#X obj 434 175 random 2;
#X obj 489 178 random 2;
#X obj 547 180 random 2;
#X obj 131 109 + 1;
#X connect 0 0 3 0;
#X connect 2 0 14 0;
#X connect 3 0 2 0;
#X connect 4 0 5 0;
#X connect 4 1 6 0;
#X connect 4 2 7 0;
#X connect 4 3 8 0;
#X connect 4 4 9 0;
#X connect 4 5 10 0;
#X connect 4 6 11 0;
#X connect 4 7 12 0;
#X connect 4 8 13 0;
#X connect 5 0 1 0;
#X connect 6 0 5 1;
#X connect 7 0 5 2;
#X connect 8 0 5 3;
#X connect 9 0 5 4;
#X connect 10 0 5 5;
#X connect 11 0 5 6;
#X connect 12 0 5 7;
#X connect 13 0 5 8;
#X connect 14 0 4 0;
#X restore 300 73 pd randomize;
#X obj 300 54 bng 15 250 50 0 empty empty empty 17 7 0 10 -262144 -1
-1;
#X obj 154 97 mtl/seq8x8;
#X obj 681 249 mtl/clkMaster 120;
#X obj 154 54 tgl 15 0 empty empty empty 17 7 0 10 -262144 -1 -1 0
1;
#X obj 366 124 hsl 75 15 0 1 0 0 \$0-seq1begin \$0-seq1beginset empty
-2 -8 0 10 -33289 -262144 -262144 0 1;
#X obj 459 125 hsl 75 15 0.0001 0.9999 0 0 \$0-seq1length \$0-seq1lengthset
empty -2 -8 0 10 -33289 -262144 -262144 7400 1;
#X obj 551 125 hsl 75 15 -5 5 0 0 \$0-seq1speed \$0-seq1speedset empty
-2 -8 0 10 -33289 -262144 -262144 4440 1;
#X text 360 107 BEGIN;
#X text 546 108 SPEED;
#X obj 63 318 s \$0-seq1bang;
#X text 453 108 LENGTH;
#X obj 636 125 bng 15 250 50 1 \$0-seq1reset empty empty 17 7 0 10
-33289 -262144 -1;
#X text 635 108 R;
#N canvas 1 79 1265 944 guts 0;
#X obj 18 116 pack 0 0 0 0;
#X obj 64 53 r \$0-seq1begin;
#X obj 41 33 r \$0-seq1speed;
#X obj 18 13 r \$0-seq1bang;
#X obj 18 137 unpack 0 0 0 0;
#X obj 45 159 pack 0 0 0;
#X msg 235 40 1;
#X msg 263 40 0;
#X obj 235 18 r \$0-seq1reset;
#X obj 115 75 r \$0-seq1length;
#X obj 241 85 s \$0-seq1speedset;
#X obj 263 63 s \$0-seq1beginset;
#X obj 235 106 s \$0-seq1lengthset;
#X obj 87 95 +;
#X obj 64 75 f;
#X obj 90 75 t b;
#X obj 18 316 pack 0 0 0 0;
#X obj 18 337 unpack 0 0 0 0;
#X obj 66 400 s \$0-player;
#X obj 45 359 pack 0 0 0;
#X msg 235 240 1;
#X msg 263 240 0;
#X obj 87 295 +;
#X obj 64 275 f;
#X obj 90 275 t b;
#X obj 18 526 pack 0 0 0 0;
#X obj 18 547 unpack 0 0 0 0;
#X obj 65 611 s \$0-player;
#X obj 45 569 pack 0 0 0;
#X msg 235 450 1;
#X msg 263 450 0;
#X obj 87 505 +;
#X obj 64 485 f;
#X obj 90 485 t b;
#X obj 18 736 pack 0 0 0 0;
#X obj 18 757 unpack 0 0 0 0;
#X obj 68 821 s \$0-player;
#X obj 45 779 pack 0 0 0;
#X msg 235 660 1;
#X msg 263 660 0;
#X obj 87 715 +;
#X obj 64 695 f;
#X obj 90 695 t b;
#X obj 438 116 pack 0 0 0 0;
#X obj 438 137 unpack 0 0 0 0;
#X obj 538 207 s \$0-player;
#X obj 465 159 pack 0 0 0;
#X msg 655 40 1;
#X msg 683 40 0;
#X obj 507 95 +;
#X obj 484 75 f;
#X obj 510 75 t b;
#X obj 438 316 pack 0 0 0 0;
#X obj 438 337 unpack 0 0 0 0;
#X obj 536 401 s \$0-player;
#X obj 465 359 pack 0 0 0;
#X msg 655 240 1;
#X msg 683 240 0;
#X obj 507 295 +;
#X obj 484 275 f;
#X obj 510 275 t b;
#X obj 438 526 pack 0 0 0 0;
#X obj 438 547 unpack 0 0 0 0;
#X obj 537 610 s \$0-player;
#X obj 465 569 pack 0 0 0;
#X msg 655 450 1;
#X msg 683 450 0;
#X obj 507 505 +;
#X obj 484 485 f;
#X obj 510 485 t b;
#X obj 438 736 pack 0 0 0 0;
#X obj 438 757 unpack 0 0 0 0;
#X obj 538 822 s \$0-player;
#X obj 465 779 pack 0 0 0;
#X msg 655 660 1;
#X msg 683 660 0;
#X obj 507 715 +;
#X obj 484 695 f;
#X obj 510 695 t b;
#X obj 18 213 r \$0-seq2bang;
#X obj 41 233 r \$0-seq2speed;
#X obj 64 253 r \$0-seq2begin;
#X obj 115 275 r \$0-seq2length;
#X obj 18 423 r \$0-seq3bang;
#X obj 41 443 r \$0-seq3speed;
#X obj 64 463 r \$0-seq3begin;
#X obj 115 485 r \$0-seq3length;
#X obj 18 633 r \$0-seq4bang;
#X obj 41 653 r \$0-seq4speed;
#X obj 64 673 r \$0-seq4begin;
#X obj 115 695 r \$0-seq4length;
#X obj 235 218 r \$0-seq2reset;
#X obj 263 263 s \$0-seq2beginset;
#X obj 241 285 s \$0-seq2speedset;
#X obj 235 306 s \$0-seq2lengthset;
#X obj 235 428 r \$0-seq3reset;
#X obj 263 473 s \$0-seq3beginset;
#X obj 241 495 s \$0-seq3speedset;
#X obj 235 516 s \$0-seq3lengthset;
#X obj 235 638 r \$0-seq4reset;
#X obj 263 683 s \$0-seq4beginset;
#X obj 241 705 s \$0-seq4speedset;
#X obj 235 726 s \$0-seq4lengthset;
#X obj 438 13 r \$0-seq5bang;
#X obj 461 33 r \$0-seq5speed;
#X obj 484 53 r \$0-seq5begin;
#X obj 535 75 r \$0-seq5length;
#X obj 438 213 r \$0-seq6bang;
#X obj 461 233 r \$0-seq6speed;
#X obj 484 253 r \$0-seq6begin;
#X obj 535 275 r \$0-seq6length;
#X obj 438 423 r \$0-seq7bang;
#X obj 461 443 r \$0-seq7speed;
#X obj 484 463 r \$0-seq7begin;
#X obj 535 485 r \$0-seq7length;
#X obj 438 633 r \$0-seq8bang;
#X obj 461 653 r \$0-seq8speed;
#X obj 484 673 r \$0-seq8begin;
#X obj 535 695 r \$0-seq8length;
#X obj 655 18 r \$0-seq5reset;
#X obj 655 218 r \$0-seq6reset;
#X obj 655 428 r \$0-seq7reset;
#X obj 655 638 r \$0-seq8reset;
#X obj 19 181 s \$0-sf;
#X msg 18 159 0;
#X obj 18 381 s \$0-sf;
#X msg 18 359 1;
#X obj 18 591 s \$0-sf;
#X msg 18 569 2;
#X obj 18 801 s \$0-sf;
#X msg 18 779 3;
#X obj 438 181 s \$0-sf;
#X msg 438 159 4;
#X obj 438 381 s \$0-sf;
#X msg 438 359 5;
#X obj 438 591 s \$0-sf;
#X msg 438 569 6;
#X obj 438 801 s \$0-sf;
#X msg 438 779 7;
#X obj 69 194 s \$0-player;
#X obj 683 63 s \$0-seq5beginset;
#X obj 661 85 s \$0-seq5speedset;
#X obj 655 106 s \$0-seq5lengthset;
#X obj 683 263 s \$0-seq6beginset;
#X obj 661 285 s \$0-seq6speedset;
#X obj 655 306 s \$0-seq6lengthset;
#X obj 683 473 s \$0-seq7beginset;
#X obj 661 495 s \$0-seq7speedset;
#X obj 655 516 s \$0-seq7lengthset;
#X obj 683 683 s \$0-seq8beginset;
#X obj 661 705 s \$0-seq8speedset;
#X obj 655 726 s \$0-seq8lengthset;
#X obj 68 178 mtl/listDelay 1;
#X obj 66 381 mtl/listDelay 1;
#X obj 65 591 mtl/listDelay 1;
#X obj 68 802 mtl/listDelay 1;
#X obj 538 187 mtl/listDelay 1;
#X obj 536 381 mtl/listDelay 1;
#X obj 537 591 mtl/listDelay 1;
#X obj 538 802 mtl/listDelay 1;
#X obj 877 115 pack 0 0 0 0;
#X obj 877 136 unpack 0 0 0 0;
#X obj 977 197 s \$0-player;
#X obj 904 158 pack 0 0 0;
#X msg 1094 39 1;
#X msg 1122 39 0;
#X obj 946 94 +;
#X obj 923 74 f;
#X obj 949 74 t b;
#X obj 877 315 pack 0 0 0 0;
#X obj 877 336 unpack 0 0 0 0;
#X obj 975 400 s \$0-player;
#X obj 904 358 pack 0 0 0;
#X msg 1094 239 1;
#X msg 1122 239 0;
#X obj 946 294 +;
#X obj 923 274 f;
#X obj 949 274 t b;
#X obj 877 525 pack 0 0 0 0;
#X obj 877 546 unpack 0 0 0 0;
#X obj 976 609 s \$0-player;
#X obj 904 568 pack 0 0 0;
#X msg 1094 449 1;
#X msg 1122 449 0;
#X obj 946 504 +;
#X obj 923 484 f;
#X obj 949 484 t b;
#X obj 877 735 pack 0 0 0 0;
#X obj 877 756 unpack 0 0 0 0;
#X obj 977 821 s \$0-player;
#X obj 904 778 pack 0 0 0;
#X msg 1094 659 1;
#X msg 1122 659 0;
#X obj 946 714 +;
#X obj 923 694 f;
#X obj 949 694 t b;
#X obj 877 180 s \$0-sf;
#X obj 877 380 s \$0-sf;
#X obj 877 590 s \$0-sf;
#X obj 877 800 s \$0-sf;
#X obj 977 177 mtl/listDelay 1;
#X obj 975 380 mtl/listDelay 1;
#X obj 976 590 mtl/listDelay 1;
#X obj 977 801 mtl/listDelay 1;
#X obj 877 12 r \$0-seq9bang;
#X obj 1094 17 r \$0-seq9reset;
#X obj 1122 62 s \$0-seq9beginset;
#X obj 1100 84 s \$0-seq9speedset;
#X obj 1094 105 s \$0-seq9lengthset;
#X obj 900 32 r \$0-seq9speed;
#X obj 923 52 r \$0-seq9begin;
#X obj 974 74 r \$0-seq9length;
#X obj 877 212 r \$0-seq10bang;
#X obj 900 232 r \$0-seq10speed;
#X obj 923 252 r \$0-seq10begin;
#X obj 974 274 r \$0-seq10length;
#X obj 1094 217 r \$0-seq10reset;
#X obj 1122 262 s \$0-seq10beginset;
#X obj 1100 284 s \$0-seq10speedset;
#X obj 1094 305 s \$0-seq10lengthset;
#X obj 877 422 r \$0-seq11bang;
#X obj 900 442 r \$0-seq11speed;
#X obj 923 462 r \$0-seq11begin;
#X obj 974 484 r \$0-seq11length;
#X obj 1094 427 r \$0-seq11reset;
#X obj 1122 472 s \$0-seq11beginset;
#X obj 1100 494 s \$0-seq11speedset;
#X obj 1094 515 s \$0-seq11lengthset;
#X obj 877 632 r \$0-seq12bang;
#X obj 900 652 r \$0-seq12speed;
#X obj 923 672 r \$0-seq12begin;
#X obj 974 694 r \$0-seq12length;
#X obj 1094 637 r \$0-seq12reset;
#X obj 1122 682 s \$0-seq12beginset;
#X obj 1100 704 s \$0-seq12speedset;
#X obj 1094 725 s \$0-seq12lengthset;
#X msg 877 158 8;
#X msg 877 358 9;
#X msg 877 568 10;
#X msg 877 778 11;
#X connect 0 0 4 0;
#X connect 0 0 124 0;
#X connect 1 0 14 0;
#X connect 2 0 0 1;
#X connect 3 0 0 0;
#X connect 4 1 5 0;
#X connect 4 2 5 1;
#X connect 4 3 5 2;
#X connect 5 0 152 0;
#X connect 6 0 10 0;
#X connect 6 0 12 0;
#X connect 7 0 11 0;
#X connect 8 0 6 0;
#X connect 8 0 7 0;
#X connect 9 0 13 1;
#X connect 9 0 15 0;
#X connect 13 0 0 3;
#X connect 14 0 0 2;
#X connect 14 0 13 0;
#X connect 15 0 14 0;
#X connect 16 0 17 0;
#X connect 17 0 126 0;
#X connect 17 1 19 0;
#X connect 17 2 19 1;
#X connect 17 3 19 2;
#X connect 19 0 153 0;
#X connect 20 0 93 0;
#X connect 20 0 94 0;
#X connect 21 0 92 0;
#X connect 22 0 16 3;
#X connect 23 0 16 2;
#X connect 23 0 22 0;
#X connect 24 0 23 0;
#X connect 25 0 26 0;
#X connect 26 0 128 0;
#X connect 26 1 28 0;
#X connect 26 2 28 1;
#X connect 26 3 28 2;
#X connect 28 0 154 0;
#X connect 29 0 97 0;
#X connect 29 0 98 0;
#X connect 30 0 96 0;
#X connect 31 0 25 3;
#X connect 32 0 25 2;
#X connect 32 0 31 0;
#X connect 33 0 32 0;
#X connect 34 0 35 0;
#X connect 35 0 130 0;
#X connect 35 1 37 0;
#X connect 35 2 37 1;
#X connect 35 3 37 2;
#X connect 37 0 155 0;
#X connect 38 0 101 0;
#X connect 38 0 102 0;
#X connect 39 0 100 0;
#X connect 40 0 34 3;
#X connect 41 0 34 2;
#X connect 41 0 40 0;
#X connect 42 0 41 0;
#X connect 43 0 44 0;
#X connect 44 0 132 0;
#X connect 44 1 46 0;
#X connect 44 2 46 1;
#X connect 44 3 46 2;
#X connect 46 0 156 0;
#X connect 47 0 141 0;
#X connect 47 0 142 0;
#X connect 48 0 140 0;
#X connect 49 0 43 3;
#X connect 50 0 43 2;
#X connect 50 0 49 0;
#X connect 51 0 50 0;
#X connect 52 0 53 0;
#X connect 53 0 134 0;
#X connect 53 1 55 0;
#X connect 53 2 55 1;
#X connect 53 3 55 2;
#X connect 55 0 157 0;
#X connect 56 0 144 0;
#X connect 56 0 145 0;
#X connect 57 0 143 0;
#X connect 58 0 52 3;
#X connect 59 0 52 2;
#X connect 59 0 58 0;
#X connect 60 0 59 0;
#X connect 61 0 62 0;
#X connect 62 0 136 0;
#X connect 62 1 64 0;
#X connect 62 2 64 1;
#X connect 62 3 64 2;
#X connect 64 0 158 0;
#X connect 65 0 147 0;
#X connect 65 0 148 0;
#X connect 66 0 146 0;
#X connect 67 0 61 3;
#X connect 68 0 61 2;
#X connect 68 0 67 0;
#X connect 69 0 68 0;
#X connect 70 0 71 0;
#X connect 71 0 138 0;
#X connect 71 1 73 0;
#X connect 71 2 73 1;
#X connect 71 3 73 2;
#X connect 73 0 159 0;
#X connect 74 0 150 0;
#X connect 74 0 151 0;
#X connect 75 0 149 0;
#X connect 76 0 70 3;
#X connect 77 0 70 2;
#X connect 77 0 76 0;
#X connect 78 0 77 0;
#X connect 79 0 16 0;
#X connect 80 0 16 1;
#X connect 81 0 23 0;
#X connect 82 0 22 1;
#X connect 82 0 24 0;
#X connect 83 0 25 0;
#X connect 84 0 25 1;
#X connect 85 0 32 0;
#X connect 86 0 31 1;
#X connect 86 0 33 0;
#X connect 87 0 34 0;
#X connect 88 0 34 1;
#X connect 89 0 41 0;
#X connect 90 0 40 1;
#X connect 90 0 42 0;
#X connect 91 0 20 0;
#X connect 91 0 21 0;
#X connect 95 0 29 0;
#X connect 95 0 30 0;
#X connect 99 0 38 0;
#X connect 99 0 39 0;
#X connect 103 0 43 0;
#X connect 104 0 43 1;
#X connect 105 0 50 0;
#X connect 106 0 49 1;
#X connect 106 0 51 0;
#X connect 107 0 52 0;
#X connect 108 0 52 1;
#X connect 109 0 59 0;
#X connect 110 0 58 1;
#X connect 110 0 60 0;
#X connect 111 0 61 0;
#X connect 112 0 61 1;
#X connect 113 0 68 0;
#X connect 114 0 67 1;
#X connect 114 0 69 0;
#X connect 115 0 70 0;
#X connect 116 0 70 1;
#X connect 117 0 77 0;
#X connect 118 0 76 1;
#X connect 118 0 78 0;
#X connect 119 0 47 0;
#X connect 119 0 48 0;
#X connect 120 0 56 0;
#X connect 120 0 57 0;
#X connect 121 0 65 0;
#X connect 121 0 66 0;
#X connect 122 0 74 0;
#X connect 122 0 75 0;
#X connect 124 0 123 0;
#X connect 126 0 125 0;
#X connect 128 0 127 0;
#X connect 130 0 129 0;
#X connect 132 0 131 0;
#X connect 134 0 133 0;
#X connect 136 0 135 0;
#X connect 138 0 137 0;
#X connect 152 0 139 0;
#X connect 153 0 18 0;
#X connect 154 0 27 0;
#X connect 155 0 36 0;
#X connect 156 0 45 0;
#X connect 157 0 54 0;
#X connect 158 0 63 0;
#X connect 159 0 72 0;
#X connect 160 0 161 0;
#X connect 161 0 236 0;
#X connect 161 1 163 0;
#X connect 161 2 163 1;
#X connect 161 3 163 2;
#X connect 163 0 200 0;
#X connect 164 0 207 0;
#X connect 164 0 208 0;
#X connect 165 0 206 0;
#X connect 166 0 160 3;
#X connect 167 0 160 2;
#X connect 167 0 166 0;
#X connect 168 0 167 0;
#X connect 169 0 170 0;
#X connect 170 0 237 0;
#X connect 170 1 172 0;
#X connect 170 2 172 1;
#X connect 170 3 172 2;
#X connect 172 0 201 0;
#X connect 173 0 218 0;
#X connect 173 0 219 0;
#X connect 174 0 217 0;
#X connect 175 0 169 3;
#X connect 176 0 169 2;
#X connect 176 0 175 0;
#X connect 177 0 176 0;
#X connect 178 0 179 0;
#X connect 179 0 238 0;
#X connect 179 1 181 0;
#X connect 179 2 181 1;
#X connect 179 3 181 2;
#X connect 181 0 202 0;
#X connect 182 0 226 0;
#X connect 182 0 227 0;
#X connect 183 0 225 0;
#X connect 184 0 178 3;
#X connect 185 0 178 2;
#X connect 185 0 184 0;
#X connect 186 0 185 0;
#X connect 187 0 188 0;
#X connect 188 0 239 0;
#X connect 188 1 190 0;
#X connect 188 2 190 1;
#X connect 188 3 190 2;
#X connect 190 0 203 0;
#X connect 191 0 234 0;
#X connect 191 0 235 0;
#X connect 192 0 233 0;
#X connect 193 0 187 3;
#X connect 194 0 187 2;
#X connect 194 0 193 0;
#X connect 195 0 194 0;
#X connect 200 0 162 0;
#X connect 201 0 171 0;
#X connect 202 0 180 0;
#X connect 203 0 189 0;
#X connect 204 0 160 0;
#X connect 205 0 164 0;
#X connect 205 0 165 0;
#X connect 209 0 160 1;
#X connect 210 0 167 0;
#X connect 211 0 166 1;
#X connect 211 0 168 0;
#X connect 212 0 169 0;
#X connect 213 0 169 1;
#X connect 214 0 176 0;
#X connect 215 0 175 1;
#X connect 215 0 177 0;
#X connect 216 0 173 0;
#X connect 216 0 174 0;
#X connect 220 0 178 0;
#X connect 221 0 178 1;
#X connect 222 0 185 0;
#X connect 223 0 184 1;
#X connect 223 0 186 0;
#X connect 224 0 182 0;
#X connect 224 0 183 0;
#X connect 228 0 187 0;
#X connect 229 0 187 1;
#X connect 230 0 194 0;
#X connect 231 0 193 1;
#X connect 231 0 195 0;
#X connect 232 0 191 0;
#X connect 232 0 192 0;
#X connect 236 0 196 0;
#X connect 237 0 197 0;
#X connect 238 0 198 0;
#X connect 239 0 199 0;
#X restore 70 75 pd guts;
#X obj 366 142 hsl 75 15 0 1 0 0 \$0-seq2begin \$0-seq2beginset empty
-2 -8 0 10 -33289 -262144 -262144 0 1;
#X obj 459 143 hsl 75 15 0.0001 0.9999 0 0 \$0-seq2length \$0-seq2lengthset
empty -2 -8 0 10 -33289 -262144 -262144 7400 1;
#X obj 551 143 hsl 75 15 -5 5 0 0 \$0-seq2speed \$0-seq2speedset empty
-2 -8 0 10 -33289 -262144 -262144 4440 1;
#X obj 636 143 bng 15 250 50 1 \$0-seq2reset empty empty 17 7 0 10
-33289 -262144 -1;
#X obj 366 160 hsl 75 15 0 1 0 0 \$0-seq3begin \$0-seq3beginset empty
-2 -8 0 10 -33289 -262144 -262144 0 1;
#X obj 459 161 hsl 75 15 0.0001 0.9999 0 0 \$0-seq3length \$0-seq3lengthset
empty -2 -8 0 10 -33289 -262144 -262144 7400 1;
#X obj 551 161 hsl 75 15 -5 5 0 0 \$0-seq3speed \$0-seq3speedset empty
-2 -8 0 10 -33289 -262144 -262144 4440 1;
#X obj 636 161 bng 15 250 50 1 \$0-seq3reset empty empty 17 7 0 10
-33289 -262144 -1;
#X obj 366 178 hsl 75 15 0 1 0 0 \$0-seq4begin \$0-seq4beginset empty
-2 -8 0 10 -33289 -262144 -262144 0 1;
#X obj 459 179 hsl 75 15 0.0001 0.9999 0 0 \$0-seq4length \$0-seq4lengthset
empty -2 -8 0 10 -33289 -262144 -262144 7400 1;
#X obj 551 179 hsl 75 15 -5 5 0 0 \$0-seq4speed \$0-seq4speedset empty
-2 -8 0 10 -33289 -262144 -262144 4440 1;
#X obj 636 179 bng 15 250 50 1 \$0-seq4reset empty empty 17 7 0 10
-33289 -262144 -1;
#X obj 366 196 hsl 75 15 0 1 0 0 \$0-seq5begin \$0-seq5beginset empty
-2 -8 0 10 -33289 -262144 -262144 0 1;
#X obj 459 197 hsl 75 15 0.0001 0.9999 0 0 \$0-seq5length \$0-seq5lengthset
empty -2 -8 0 10 -33289 -262144 -262144 7400 1;
#X obj 551 197 hsl 75 15 -5 5 0 0 \$0-seq5speed \$0-seq5speedset empty
-2 -8 0 10 -33289 -262144 -262144 4440 1;
#X obj 636 197 bng 15 250 50 1 \$0-seq5reset empty empty 17 7 0 10
-33289 -262144 -1;
#X obj 366 214 hsl 75 15 0 1 0 0 \$0-seq6begin \$0-seq6beginset empty
-2 -8 0 10 -33289 -262144 -262144 0 1;
#X obj 459 215 hsl 75 15 0.0001 0.9999 0 0 \$0-seq6length \$0-seq6lengthset
empty -2 -8 0 10 -33289 -262144 -262144 7400 1;
#X obj 551 215 hsl 75 15 -5 5 0 0 \$0-seq6speed \$0-seq6speedset empty
-2 -8 0 10 -33289 -262144 -262144 4440 1;
#X obj 636 215 bng 15 250 50 1 \$0-seq6reset empty empty 17 7 0 10
-33289 -262144 -1;
#X obj 366 232 hsl 75 15 0 1 0 0 \$0-seq7begin \$0-seq7beginset empty
-2 -8 0 10 -33289 -262144 -262144 0 1;
#X obj 459 233 hsl 75 15 0.0001 0.9999 0 0 \$0-seq7length \$0-seq7lengthset
empty -2 -8 0 10 -33289 -262144 -262144 7400 1;
#X obj 551 233 hsl 75 15 -5 5 0 0 \$0-seq7speed \$0-seq7speedset empty
-2 -8 0 10 -33289 -262144 -262144 4440 1;
#X obj 636 233 bng 15 250 50 1 \$0-seq7reset empty empty 17 7 0 10
-33289 -262144 -1;
#X obj 366 250 hsl 75 15 0 1 0 0 \$0-seq8begin \$0-seq8beginset empty
-2 -8 0 10 -33289 -262144 -262144 0 1;
#X obj 459 251 hsl 75 15 0.0001 0.9999 0 0 \$0-seq8length \$0-seq8lengthset
empty -2 -8 0 10 -33289 -262144 -262144 7400 1;
#X obj 551 251 hsl 75 15 -5 5 0 0 \$0-seq8speed \$0-seq8speedset empty
-2 -8 0 10 -33289 -262144 -262144 4440 1;
#X obj 636 251 bng 15 250 50 1 \$0-seq8reset empty empty 17 7 0 10
-33289 -262144 -1;
#X obj 81 338 s \$0-seq2bang;
#X obj 99 358 s \$0-seq3bang;
#X obj 118 378 s \$0-seq4bang;
#X obj 136 398 s \$0-seq5bang;
#X obj 154 418 s \$0-seq6bang;
#X obj 172 438 s \$0-seq7bang;
#X obj 190 458 s \$0-seq8bang;
#X obj 63 293 r mono1;
#X obj 214 293 r mono4;
#X obj 161 293 r mono3;
#X obj 113 293 r mono2;
#X obj 301 318 r mono8;
#X obj 152 318 r mono5;
#X obj 202 318 r mono6;
#X obj 250 318 r mono7;
#X obj 681 206 r \$0-radiobpm;
#X floatatom 681 228 5 0 0 0 - - -;
#X obj 308 606 bng 15 250 50 0 empty empty empty 0 -6 0 10 -262144
-1 -1;
#X msg 467 586 pattern \$1;
#X floatatom 467 568 5 0 0 0 - - -;
#X msg 485 607 play;
#X msg 491 628 stop;
#X text 326 607 Show editor;
#X obj 359 538 mtl/clk-quantization-help;
#X floatatom 453 735 5 0 0 1 pattern - -;
#X obj 492 706 bng 15 250 50 0 empty empty loop 17 7 0 10 -262144 -1
-1;
#X msg 358 566 quantization \$1;
#X obj 375 680 mtl/tracker4 /id tr4;
#X floatatom 477 798 5 0 0 0 - - -;
#X floatatom 438 796 5 0 0 0 - - -;
#X floatatom 290 859 5 0 0 0 - - -;
#X obj 375 861 s \$0-seq1bang;
#X obj 375 838 sel 1 2 3 4 5 6 7 8;
#X obj 389 881 s \$0-seq2bang;
#X obj 411 903 s \$0-seq3bang;
#X obj 425 923 s \$0-seq4bang;
#X obj 490 860 s \$0-seq5bang;
#X obj 503 880 s \$0-seq6bang;
#X obj 526 902 s \$0-seq7bang;
#X obj 540 922 s \$0-seq8bang;
#X obj 440 775 s \$0-loopb;
#X text 509 800 volume;
#X text 430 757 bool loop;
#X obj 375 817 unpack f f f;
#X obj 375 704 demux . . .;
#X floatatom 743 812 5 0 0 0 - - -;
#X floatatom 697 813 5 0 0 0 - - -;
#X floatatom 646 810 5 0 0 0 - - -;
#X text 775 814 volume;
#X obj 634 834 unpack f f f;
#X text 647 783 begin;
#X text 695 786 length;
#X text 750 788 speed;
#X obj 637 920 s;
#X obj 665 913 makefilename \$0-seq%dbegin;
#X obj 813 931 s;
#X obj 828 909 makefilename \$0-seq%dlength;
#X obj 1038 914 s;
#X obj 1053 892 makefilename \$0-seq%dspeed;
#X obj 1010 873 f;
#X obj 1009 852 t b;
#X obj 1011 892 sel 0;
#X obj 783 869 f;
#X obj 782 848 t b;
#X obj 784 888 sel 0;
#X obj 636 875 f;
#X obj 635 854 t b;
#X obj 637 894 sel 0;
#X obj 154 74 mtl/clkSlave 1 4;
#X obj 574 656 pack f f f;
#X floatatom 568 610 5 0 0 0 - - -;
#X floatatom 610 609 5 0 0 0 - - -;
#X floatatom 660 604 5 0 0 0 - - -;
#X text 551 579 value;
#X text 596 584 col;
#X text 659 574 row;
#X obj 552 535 r \$0-wtfv;
#X obj 676 531 r \$0-wtfr;
#X obj 613 534 r \$0-wtfc;
#X obj 676 553 - 1;
#X msg 718 626 1;
#X msg 751 627 1;
#X obj 718 599 sel 0;
#X obj 711 656 pack f f f;
#X obj 787 638 f;
#X obj 830 603 sel 0;
#X obj 823 660 pack f f f;
#X obj 918 633 f;
#X msg 830 630 127;
#X msg 863 631 2;
#X obj 518 611 loadbang;
#X obj 701 741 pack f f f;
#X obj 821 738 pack f f f;
#X obj 890 714 f;
#X obj 965 635 tgl 15 0 empty empty empty 17 7 0 10 -262144 -1 -1 1
1;
#X obj 966 657 mtl/clkSlave 4;
#X obj 966 680 % 8;
#X obj 964 610 loadbang;
#X msg 741 712 6;
#X msg 853 716 7;
#X obj 813 684 t b b b;
#X obj 321 712 int;
#X obj 269 725 sel 1;
#X obj 284 705 == 0;
#X obj 942 733 pack f f f;
#X msg 974 711 8;
#X msg 820 715 -1;
#X msg 708 711 -1;
#X msg 941 710 -1;
#X obj 310 774 spigot;
#X obj 341 748 != 0;
#X connect 0 0 2 1;
#X connect 1 0 0 0;
#X connect 2 1 10 0;
#X connect 2 2 43 0;
#X connect 2 3 44 0;
#X connect 2 4 45 0;
#X connect 2 5 46 0;
#X connect 2 6 47 0;
#X connect 2 7 48 0;
#X connect 2 8 49 0;
#X connect 4 0 111 0;
#X connect 50 0 10 0;
#X connect 51 0 45 0;
#X connect 52 0 44 0;
#X connect 53 0 43 0;
#X connect 54 0 49 0;
#X connect 55 0 46 0;
#X connect 56 0 47 0;
#X connect 57 0 48 0;
#X connect 58 0 59 0;
#X connect 59 0 3 0;
#X connect 60 0 70 0;
#X connect 61 0 70 0;
#X connect 62 0 61 0;
#X connect 63 0 70 0;
#X connect 64 0 70 0;
#X connect 66 0 69 0;
#X connect 69 0 70 0;
#X connect 70 0 87 0;
#X connect 70 1 87 1;
#X connect 70 2 67 0;
#X connect 70 3 68 0;
#X connect 75 0 74 0;
#X connect 75 1 76 0;
#X connect 75 2 77 0;
#X connect 75 3 78 0;
#X connect 75 4 79 0;
#X connect 75 5 80 0;
#X connect 75 6 81 0;
#X connect 75 7 82 0;
#X connect 86 0 73 0;
#X connect 86 0 75 0;
#X connect 86 0 99 0;
#X connect 86 0 101 0;
#X connect 86 0 103 0;
#X connect 86 0 106 0;
#X connect 86 0 109 0;
#X connect 86 0 97 0;
#X connect 86 1 72 0;
#X connect 86 1 83 0;
#X connect 86 2 71 0;
#X connect 87 0 144 0;
#X connect 87 0 152 0;
#X connect 87 2 92 0;
#X connect 92 0 90 0;
#X connect 92 0 108 1;
#X connect 92 1 89 0;
#X connect 92 1 105 1;
#X connect 92 2 88 0;
#X connect 92 2 102 1;
#X connect 97 0 96 1;
#X connect 99 0 98 1;
#X connect 101 0 100 1;
#X connect 102 0 104 0;
#X connect 103 0 102 0;
#X connect 104 1 100 0;
#X connect 105 0 107 0;
#X connect 106 0 105 0;
#X connect 107 1 98 0;
#X connect 108 0 110 0;
#X connect 109 0 108 0;
#X connect 110 1 96 0;
#X connect 111 0 2 0;
#X connect 112 0 70 1;
#X connect 113 0 112 0;
#X connect 114 0 112 1;
#X connect 114 0 125 0;
#X connect 114 0 128 0;
#X connect 115 0 112 2;
#X connect 119 0 113 0;
#X connect 120 0 122 0;
#X connect 121 0 114 0;
#X connect 122 0 115 0;
#X connect 122 0 127 1;
#X connect 122 0 130 1;
#X connect 123 0 126 0;
#X connect 124 0 126 1;
#X connect 125 0 127 0;
#X connect 125 0 123 0;
#X connect 125 0 124 0;
#X connect 126 0 70 1;
#X connect 127 0 126 2;
#X connect 128 0 130 0;
#X connect 128 0 131 0;
#X connect 128 0 132 0;
#X connect 129 0 70 1;
#X connect 130 0 129 2;
#X connect 131 0 129 0;
#X connect 132 0 129 1;
#X connect 133 0 63 0;
#X connect 134 0 70 1;
#X connect 135 0 70 1;
#X connect 136 0 135 2;
#X connect 136 0 134 2;
#X connect 136 0 147 2;
#X connect 137 0 138 0;
#X connect 138 0 139 0;
#X connect 139 0 136 1;
#X connect 140 0 137 0;
#X connect 141 0 134 1;
#X connect 142 0 135 1;
#X connect 143 0 150 0;
#X connect 143 0 149 0;
#X connect 143 0 151 0;
#X connect 143 1 142 0;
#X connect 143 1 141 0;
#X connect 143 1 148 0;
#X connect 143 2 136 0;
#X connect 144 0 146 0;
#X connect 144 0 153 0;
#X connect 145 0 143 0;
#X connect 146 0 145 0;
#X connect 147 0 70 1;
#X connect 148 0 147 1;
#X connect 149 0 135 0;
#X connect 150 0 134 0;
#X connect 151 0 147 0;
#X connect 152 0 86 0;
#X connect 153 0 152 1;
#X restore -47 111 pd sequencing;
#X obj -182 298 tgl 15 0 empty empty empty 17 7 0 10 -262144 -1 -1
1 1;
#X text -144 296 LOOP / POSITION;
#X obj -256 298 r \$0-player;
#X obj -257 277 s \$0-samplename;
#X obj -161 318 cyclone/Snapshot~ 5;
#X obj -257 365 throw~ \$0-fx-l;
#X obj -167 365 throw~ \$0-fx-r;
#X obj -257 387 catch~ \$0-mb-l;
#X obj -167 388 catch~ \$0-mb-r;
#X text -50 91 ::GUI::;
#X obj -47 69 tof/param gui;
#X obj 178 401 tgl 32 0 empty empty empty 17 7 0 10 -262144 -1 -1 0
1;
#X text 176 383 FULLSCREEN;
#X msg 178 437 send fs 1;
#X obj -47 51 bng 15 250 50 0 empty empty empty 17 7 0 10 -262144 -1
-1;
#X obj 178 458 s \$0-netsend;
#X obj 250 415 tgl 16 0 empty empty empty 17 7 0 10 -262144 -1 -1 1
1;
#X text 271 414 NORMAL;
#X msg 250 437 send ns 1;
#X obj -257 409 mtl/compress~ /id compress;
#X obj -91 429 tgl 15 0 /compress/switch /compress/switch_ /compress/switch
17 7 0 8 -262144 -166441 -1 1 1;
#X obj -178 447 hsl 100 15 -20 30 0 0 /compress/gain /compress/gain_
/compress/gain 105 7 0 8 -262144 -1 -1 3960 1;
#X obj -91 409 iemlib/init 1;
#X obj -227 460 *~ 1;
#X obj -258 460 *~ 1;
#X obj 46 64 bng 15 250 50 0 empty empty empty 17 7 0 10 -262144 -1
-1;
#X obj 250 375 loadbang;
#X obj 250 394 delay 3200;
#X obj -47 31 mtl/browser;
#X obj 173 341 tof/param file;
#X obj -62 275 r \$0-loopb;
#X obj 173 300 hradio 15 1 0 8 empty empty empty 0 -8 0 10 -262144
-1 -1 0;
#X obj -257 254 mtl/sampleFiler /id sfm;
#X obj 162 276 bng 15 250 50 0 empty empty empty 17 7 0 10 -262144
-1 -1;
#X text 161 251 presets;
#X obj 301 256 loadbang;
#X text 186 273 save tracker4 (clean .param for samples);
#N canvas 406 336 860 687 samplespresets 0;
#X obj 254 66 bng 15 250 50 0 empty empty empty 0 -6 0 8 -262144 -1
-1;
#X msg 265 119 next;
#X msg 276 142 prev;
#X msg 166 137 clear;
#X floatatom 295 562 5 0 0 0 - - -;
#X obj 338 542 bng 15 250 50 0 empty empty empty 0 -6 0 8 -262144 -1
-1;
#X obj 381 524 bng 15 250 50 0 empty empty empty 0 -6 0 8 -262144 -1
-1;
#X msg 284 165 dump;
#X msg 300 215 read;
#X msg 326 286 length;
#X text 364 544 bang when we finished a load or save operation;
#X text 404 526 bang when finished with a dump operation;
#X text 339 564 index of the message sent out;
#X text 399 494 optional arg loads a file into coll;
#N canvas 73 81 329 260 loadsomeitems 0;
#X obj -44 53 inlet;
#X obj -13 220 outlet;
#X obj -44 75 t b b;
#X text -70 21 messages prefixed with an index are stored:;
#X msg -59 110 4 this is a message;
#X msg 7 180 1 10;
#X msg -40 132 3 and another one with 12345 in it;
#X msg -13 155 2 some_symbol;
#X connect 0 0 2 0;
#X connect 2 1 4 0;
#X connect 2 1 6 0;
#X connect 2 1 7 0;
#X connect 2 1 5 0;
#X connect 4 0 1 0;
#X connect 5 0 1 0;
#X connect 6 0 1 0;
#X connect 7 0 1 0;
#X restore 254 90 pd loadsomeitems;
#X text 286 66 load stuff;
#X text 163 91 look inside:;
#X text 315 143 previous;
#X text 324 166 dump them all;
#X text 393 190 read a file;
#X text 334 214 opens a dialog;
#X text 414 241 write a file;
#X text 364 261 open a dialog;
#X msg 318 262 write;
#X floatatom 213 119 5 0 0 0 - - -;
#X text 95 118 output by index:;
#X text 56 137 clear contents:;
#X text 382 286 output nr. of messages stored;
#X text 305 118 output next =;
#X msg 402 117 bang;
#X msg 332 308 delete 2;
#X text 399 308 delete message \, and decrement larger indexes;
#X msg 336 354 goto 2;
#X text 389 356 goto item nr;
#X msg 342 377 end;
#X text 373 378 goto last item;
#X msg 343 399 filetype;
#X text 417 402 useless on unix it's a dummy function;
#X msg 348 422 flags 1 0;
#X text 422 424 save coll's contents with the patch;
#X msg 348 448 flags 0 0;
#X text 424 449 don't save (default);
#X msg 130 161 open;
#X text 43 162 open editor:;
#X msg 335 330 remove 3;
#X text 401 329 delete message \, leave index alone;
#X msg 121 186 wclose;
#X text 29 187 close & save:;
#X obj 89 -34 inlet;
#X obj 576 3 inlet;
#X obj 585 38 l2s;
#X msg 584 62 read \$1;
#X obj 671 -7 inlet;
#X obj 671 15 l2s;
#X obj 544 22 t b a;
#X obj 116 13 counter;
#X obj 90 68 pack f s;
#X obj 89 -10 t b a;
#X obj 174 9 l2s;
#X obj 253 496 coll;
#C restore;
#X obj 79 553 s \$0-sf;
#X obj 669 276 list append;
#X obj 673 71 tof/path;
#X msg 672 33 presets/\$1;
#X obj 672 52 l2s;
#X msg 618 99 write \$1;
#X connect 0 0 14 0;
#X connect 1 0 59 0;
#X connect 2 0 59 0;
#X connect 3 0 59 0;
#X connect 7 0 59 0;
#X connect 8 0 59 0;
#X connect 9 0 59 0;
#X connect 14 0 59 0;
#X connect 23 0 59 0;
#X connect 24 0 59 0;
#X connect 30 0 59 0;
#X connect 32 0 59 0;
#X connect 34 0 59 0;
#X connect 36 0 59 0;
#X connect 38 0 59 0;
#X connect 40 0 59 0;
#X connect 42 0 59 0;
#X connect 44 0 59 0;
#X connect 46 0 59 0;
#X connect 48 0 57 0;
#X connect 49 0 54 0;
#X connect 50 0 51 0;
#X connect 51 0 59 0;
#X connect 52 0 53 0;
#X connect 53 0 63 0;
#X connect 54 0 7 0;
#X connect 54 1 50 0;
#X connect 55 0 56 0;
#X connect 56 0 59 0;
#X connect 57 0 55 0;
#X connect 57 1 58 0;
#X connect 58 0 56 1;
#X connect 59 0 60 0;
#X connect 59 1 4 0;
#X connect 59 2 5 0;
#X connect 59 3 6 0;
#X connect 62 0 65 0;
#X connect 63 0 64 0;
#X connect 64 0 62 0;
#X connect 65 0 59 0;
#X restore 158 223 pd samplespresets;
#X symbolatom 275 210 20 0 0 0 - - -;
#X obj 158 33 mtl/fileBrowser;
#X obj 252 15 loadbang;
#X msg 158 15 symbol presets;
#X obj 187 320 r \$0-papr;
#X obj 302 300 hradio 15 1 0 8 empty empty empty 0 -8 0 10 -262144
-1 -1 0;
#X obj -258 485 dac~;
#X obj -257 339 *~ 1;
#X obj -221 339 *~ 1;
#X obj -257 319 mtl/player~ 0;
#X obj 158 191 t a b;
#N canvas 150 80 525 517 patchrepo 0;
#X obj 94 37 import mrpeach;
#X obj 97 100 unpackOSC;
#X obj 98 126 pipelist;
#X obj 98 167 list;
#X msg 98 187 \; \$1 \$2;
#X obj 224 233 list split 2;
#X obj 145 232 list split 1;
#X obj 258 252 int;
#X obj 179 252 int;
#X msg 200 89 port 9998;
#X obj 200 26 loadbang;
#X obj 98 147 routeOSC /fx /seq /pdradio1 /pdradio2 /pdbang1;
#X obj 261 192 s \$0-radiobpm;
#X obj 207 169 s \$0-radiopreset;
#X obj 316 169 s \$0-bangfreeze;
#X obj 337 254 int;
#X obj 303 235 list split 3;
#X obj 78 232 print;
#X obj 92 69 udpreceive 9998;
#X obj 200 48 delay 8000;
#X obj 200 70 t b;
#X text 154 213 row;
#X text 226 215 what;
#X text 311 216 value;
#X floatatom 156 326 5 0 0 0 - - -;
#X floatatom 202 322 5 0 0 0 - - -;
#X floatatom 248 322 5 0 0 0 - - -;
#X floatatom 289 322 5 0 0 0 - - -;
#X obj 334 293 demux . . . .;
#X floatatom 336 321 5 0 0 0 - - -;
#X floatatom 374 317 5 0 0 0 - - -;
#X floatatom 428 317 5 0 0 0 - - -;
#X floatatom 475 315 5 0 0 0 - - -;
#X obj 153 297 demux 1 2 3 4;
#X obj 405 352 / 100;
#X obj 442 352 maxlib/scale 0 100 0.0001 0.1;
#X obj 195 428 s \$0-wtfv;
#X obj 263 428 s \$0-wtfr;
#X obj 330 429 s \$0-wtfc;
#X msg 309 395 8;
#X obj 227 374 f;
#X obj 269 376 t f b b;
#X obj 335 377 t f b b;
#X msg 375 396 0;
#X obj 403 379 t f b b;
#X obj 466 382 t f b b;
#X msg 443 398 6;
#X msg 506 401 7;
#X obj 244 352 maxlib/scale -200 200 -2 2;
#X connect 1 0 2 0;
#X connect 1 1 2 1;
#X connect 2 0 11 0;
#X connect 3 0 4 0;
#X connect 5 1 7 0;
#X connect 6 1 8 0;
#X connect 7 0 33 1;
#X connect 7 0 28 1;
#X connect 8 0 33 0;
#X connect 9 0 18 0;
#X connect 10 0 19 0;
#X connect 11 0 3 0;
#X connect 11 1 5 0;
#X connect 11 1 6 0;
#X connect 11 1 17 0;
#X connect 11 1 16 0;
#X connect 11 2 13 0;
#X connect 11 3 12 0;
#X connect 11 4 14 0;
#X connect 15 0 28 0;
#X connect 16 1 15 0;
#X connect 18 0 1 0;
#X connect 19 0 20 0;
#X connect 20 0 9 0;
#X connect 28 0 29 0;
#X connect 28 0 48 0;
#X connect 28 1 30 0;
#X connect 28 1 42 0;
#X connect 28 2 31 0;
#X connect 28 2 34 0;
#X connect 28 3 32 0;
#X connect 28 3 35 0;
#X connect 33 0 24 0;
#X connect 33 0 40 1;
#X connect 33 1 25 0;
#X connect 33 1 40 1;
#X connect 33 2 26 0;
#X connect 33 2 40 1;
#X connect 33 3 27 0;
#X connect 33 3 40 1;
#X connect 34 0 44 0;
#X connect 35 0 45 0;
#X connect 39 0 38 0;
#X connect 40 0 37 0;
#X connect 41 0 36 0;
#X connect 41 1 40 0;
#X connect 41 2 39 0;
#X connect 42 0 36 0;
#X connect 42 1 40 0;
#X connect 42 2 43 0;
#X connect 43 0 38 0;
#X connect 44 0 36 0;
#X connect 44 1 40 0;
#X connect 44 2 46 0;
#X connect 45 0 36 0;
#X connect 45 1 40 0;
#X connect 45 2 47 0;
#X connect 46 0 38 0;
#X connect 47 0 38 0;
#X connect 48 0 41 0;
#X restore 350 474 pd patchrepo;
#X obj 305 16 r \$0-radiopreset;
#X text 273 193 save;
#X obj 308 18 t f b;
#X obj 304 16 s \$0-cw;
#X obj 158 207 r \$0-wavfilename;
#X obj 195 191 s \$0-cw;
#X obj -156 235 r \$0-cw;
#X connect 0 0 15 0;
#X connect 0 0 51 0;
#X connect 1 0 0 0;
#X connect 1 1 5 0;
#X connect 2 0 43 0;
#X connect 2 1 42 0;
#X connect 3 0 11 0;
#X connect 3 0 19 0;
#X connect 5 0 6 0;
#X connect 6 0 12 0;
#X connect 7 0 1 0;
#X connect 8 0 7 0;
#X connect 11 0 23 0;
#X connect 16 0 51 0;
#X connect 19 0 66 1;
#X connect 21 0 66 0;
#X connect 23 0 10 0;
#X connect 26 0 38 0;
#X connect 27 0 38 1;
#X connect 30 0 32 0;
#X connect 32 0 34 0;
#X connect 33 0 29 0;
#X connect 35 0 37 0;
#X connect 37 0 34 0;
#X connect 38 0 2 0;
#X connect 38 1 2 1;
#X connect 41 0 39 0;
#X connect 42 0 63 1;
#X connect 43 0 63 0;
#X connect 44 0 17 0;
#X connect 45 0 46 0;
#X connect 46 0 30 0;
#X connect 49 0 19 0;
#X connect 50 0 48 0;
#X connect 51 0 22 0;
#X connect 51 0 66 0;
#X connect 52 0 48 0;
#X connect 54 0 62 0;
#X connect 57 0 56 2;
#X connect 58 0 67 0;
#X connect 59 0 60 0;
#X connect 60 0 58 0;
#X connect 61 0 48 1;
#X connect 62 0 48 1;
#X connect 64 0 24 0;
#X connect 65 0 25 0;
#X connect 66 0 64 0;
#X connect 66 1 65 0;
#X connect 66 2 23 0;
#X connect 67 0 56 1;
#X connect 67 1 74 0;
#X connect 69 0 71 0;
#X connect 71 0 58 0;
#X connect 71 1 72 0;
#X connect 73 0 56 0;
#X connect 75 0 51 2;
