#N canvas 418 79 1128 907 10;
#X declare -lib mtl;
#X declare -lib Gem;
#X declare -lib mrpeach;
#X symbolatom 21 87 30 0 0 0 - - -;
#X obj 21 -74 mtl/fileBrowser;
#X obj 25 172 gemhead;
#X obj 17 675 pix_texture;
#X obj 29 332 mtl/gemsMovies;
#X obj 397 -116 cnv 15 80 21 empty empty VIDEO 0 12 0 20 -1 -262144
0;
#X obj 212 -93 bng 15 250 50 0 empty empty empty 17 7 0 10 -262144
-1 -1;
#X obj 124 -95 loadbang;
#X msg 31 -95 symbol footage;
#X obj 16 527 pix_motionblur;
#X obj 17 700 mtl/gemsStretch;
#X obj 25 152 tgl 15 0 empty empty empty 17 7 0 10 -262144 -1 -1 1
1;
#X floatatom 256 45 5 0 0 0 - - -;
#X text 291 43 width;
#X text 319 23 height;
#X floatatom 283 24 5 0 0 0 - - -;
#X floatatom 229 66 5 0 0 0 - - -;
#X text 267 65 #frames;
#X floatatom 310 2 5 0 0 0 - - -;
#N canvas 95 146 450 300 guts 0;
#X obj 363 17 import mtl;
#X restore 397 -88 pd guts;
#N canvas 317 369 661 428 network 0;
#X obj 32 77 s \$0-ph;
#X obj 69 101 s \$0-id;
#X obj 145 144 s \$0-feed;
#X obj 183 170 s \$0-disto;
#X obj 221 192 s \$0-distowet;
#X obj 259 216 s \$0-update;
#X obj 297 241 s \$0-audiofile;
#X obj 107 121 s \$0-vs;
#X obj 533 36 symbol;
#X obj 533 15 r \$0-audiofile;
#X obj 533 57 s \$0-movfilename;
#X obj 323 272 s \$0-fs;
#X obj 382 313 s \$0-ns;
#X obj 468 333 s \$0-reverb;
#X obj 436 178 s \$0-font;
#X obj 392 100 s \$0-pitchseg;
#X obj 430 117 s \$0-pitchoct;
#X obj 331 82 s \$0-pitchwet;
#X obj 492 138 s \$0-buffer;
#X obj 564 209 s \$0-ps;
#X obj 569 235 s scaleX;
#X obj 569 274 s scaleY;
#X obj 31 38 route ph id vs feed disto distowet update audiofile fs
ns reverb font pitchwet pitchseg pitchoct buffer ps psy;
#X obj 32 16 netreceive 10000 1;
#X connect 8 0 10 0;
#X connect 9 0 8 0;
#X connect 22 0 0 0;
#X connect 22 1 1 0;
#X connect 22 2 7 0;
#X connect 22 3 2 0;
#X connect 22 4 3 0;
#X connect 22 5 4 0;
#X connect 22 6 5 0;
#X connect 22 7 6 0;
#X connect 22 8 11 0;
#X connect 22 9 12 0;
#X connect 22 10 13 0;
#X connect 22 11 14 0;
#X connect 22 12 17 0;
#X connect 22 13 15 0;
#X connect 22 14 16 0;
#X connect 22 15 18 0;
#X connect 22 16 19 0;
#X connect 22 16 20 0;
#X connect 22 17 21 0;
#X connect 23 0 22 0;
#X restore 397 -67 pd network;
#X obj 187 258 r \$0-ph;
#X obj 49 271 r \$0-id;
#X obj 212 -113 r \$0-update;
#X obj 21 -115 r \$0-vs;
#N canvas 462 379 817 514 window 0;
#X obj 20 60 tgl 15 0 empty empty empty 0 -6 0 10 -262144 -1 -1 1 1
;
#X obj 20 21 iemlib/init 1;
#X obj 83 134 bng 15 250 50 0 empty empty empty 17 7 0 10 -262144 -1
-1;
#X obj 109 21 inlet;
#X obj 53 59 loadbang;
#X obj 217 25 inlet;
#X msg 219 112 /border 0;
#X obj 268 39 t b b;
#X obj 281 19 bng 15 250 50 0 empty empty empty 17 7 0 10 -262144 -1
-1;
#X msg 351 98 0;
#X msg 328 189 1;
#X obj 329 128 t b;
#X obj 326 162 delay 300;
#X obj 400 13 inlet;
#X obj 451 27 t b b;
#X obj 464 7 bng 15 250 50 0 empty empty empty 17 7 0 10 -262144 -1
-1;
#X msg 536 84 0;
#X msg 511 177 1;
#X obj 512 116 t b;
#X obj 509 150 delay 300;
#X msg 53 80 /dimen 854 480;
#X obj 20 154 mtl/gemsWin;
#X msg 117 266 /cursor 0;
#X msg 153 80 /fps 60;
#X msg 221 73 /dimen 1280 800;
#X msg 402 100 /border 1;
#X msg 404 61 /dimen 320 200;
#X obj 630 48 inlet;
#X msg 217 216 /lighting 0;
#X connect 0 0 21 0;
#X connect 1 0 0 0;
#X connect 3 0 21 0;
#X connect 4 0 20 0;
#X connect 4 0 23 0;
#X connect 4 0 22 0;
#X connect 5 0 7 0;
#X connect 6 0 21 0;
#X connect 7 0 9 0;
#X connect 7 1 6 0;
#X connect 7 1 24 0;
#X connect 7 1 28 0;
#X connect 8 0 7 0;
#X connect 9 0 11 0;
#X connect 9 0 21 0;
#X connect 10 0 21 0;
#X connect 11 0 12 0;
#X connect 12 0 10 0;
#X connect 13 0 14 0;
#X connect 14 0 16 0;
#X connect 14 1 25 0;
#X connect 14 1 26 0;
#X connect 15 0 14 0;
#X connect 16 0 18 0;
#X connect 16 0 21 0;
#X connect 17 0 21 0;
#X connect 18 0 19 0;
#X connect 19 0 17 0;
#X connect 20 0 21 0;
#X connect 22 0 21 0;
#X connect 23 0 21 0;
#X connect 24 0 21 0;
#X connect 25 0 21 0;
#X connect 26 0 21 0;
#X connect 27 0 21 1;
#X connect 28 0 21 0;
#X restore 397 -25 pd window;
#X obj 21 107 s \$0-movfilename;
#X obj 55 291 r \$0-movfilename;
#X obj 229 -44 r \$0-movinfo;
#X obj 110 352 s \$0-movinfo;
#X obj 229 -22 unpack f f f f;
#X text 49 353 FX;
#X text 346 1 fps;
#X obj 397 -44 tgl 15 0 empty empty empty 17 7 0 10 -262144 -1 -1 0
1;
#X obj 422 -46 r \$0-fs;
#X obj 459 -25 r \$0-ns;
#X obj 16 630 pix_lumaoffset;
#X floatatom 156 610 5 0 0 2 offset - -;
#X floatatom 203 610 5 0 0 2 gap - -;
#X obj 85 592 tgl 15 0 empty empty empty 0 -6 0 8 -262144 -1 -1 0 1
;
#X msg 85 610 smooth \$1;
#X msg 33 610 fill \$1;
#X obj 33 592 tgl 15 0 empty empty empty 0 -6 0 8 -262144 -1 -1 0 1
;
#X obj 202 581 > 0;
#X obj 17 747 rectangle;
#X obj 316 -111 mtl/browser;
#X obj 25 410 pix_kaleidoscope;
#X obj 157 290 s \$0-smb;
#N canvas 780 133 450 300 feedback 0;
#X obj 193 34 hsl 128 15 0 1 0 0 empty empty empty -2 -8 0 10 -262144
-1 -1 11430 1;
#X floatatom 190 52 5 0 0 0 - - -;
#X floatatom 230 87 5 0 0 0 - - -;
#X obj 146 157 tgl 15 0 empty empty empty 17 7 0 10 -262144 -1 -1 0
1;
#X obj 139 85 loadbang;
#X text 99 66 feedback on/off;
#X obj 137 204 mtl/gemsFeedback;
#X obj 230 64 iemlib/init 0.1;
#X obj 190 12 iemlib/init 0.9;
#X text 275 81 feedback in/out;
#X floatatom 234 108 5 0 0 0 - - -;
#X floatatom 234 128 5 0 0 0 - - -;
#X text 268 105 feedback left/right;
#X text 271 127 feedback down/up;
#X floatatom 231 177 5 0 0 0 - - -;
#X text 238 194 feedback rotate;
#X obj 235 147 * 360;
#X obj 107 34 r \$0-reverb;
#X obj 278 145 r \$0-distowet;
#X obj 369 43 r \$0-feed;
#X obj 190 258 maxlib/scale 0 250 -3 3;
#X connect 0 0 1 0;
#X connect 1 0 6 1;
#X connect 2 0 6 2;
#X connect 3 0 6 0;
#X connect 7 0 2 0;
#X connect 8 0 0 0;
#X connect 10 0 6 3;
#X connect 11 0 6 4;
#X connect 14 0 6 5;
#X connect 16 0 14 0;
#X connect 17 0 0 0;
#X connect 18 0 16 0;
#X connect 19 0 20 0;
#X connect 20 0 2 0;
#X restore 396 -4 pd feedback;
#X floatatom 518 244 5 0 0 2 offset - -;
#X floatatom 565 244 5 0 0 2 gap - -;
#X obj 551 207 ii 0;
#X obj 584 304 unpack f f f f f f;
#X obj 753 284 local_min;
#X floatatom 739 306 20 0 0 0 - - -;
#X floatatom 884 306 20 0 0 0 - - -;
#X obj 884 285 local_max;
#X obj 492 209 ii 8;
#X obj 584 331 maxlib/scale 0 255 -4 4;
#X obj 742 331 maxlib/scale 0 143 -4 4;
#X obj 479 271 pix_lumaoffsetinfo;
#X floatatom 609 245 5 0 0 0 - - -;
#X text 607 227 modulo;
#X obj 486 149 gemlist;
#X obj 355 372 bng 15 250 50 0 empty empty empty 17 7 0 10 -262144
-1 -1;
#X obj 229 291 spigot;
#X msg 268 260 0;
#X msg 236 260 1;
#X floatatom 393 36 5 0 0 0 - - -;
#N canvas 1 164 187 219 fps 0;
#X obj 22 62 realtime;
#X obj 22 41 t b b;
#X obj 22 19 gemhead;
#X obj 22 170 outlet;
#X msg 22 84 1000 \$1;
#X obj 22 105 /;
#X obj 22 126 + 0.5;
#X obj 22 147 i;
#X connect 0 0 4 0;
#X connect 1 0 0 0;
#X connect 1 1 0 1;
#X connect 2 0 1 0;
#X connect 4 0 5 0;
#X connect 5 0 6 0;
#X connect 6 0 7 0;
#X connect 7 0 3 0;
#X restore 393 16 pd fps;
#N canvas 14 79 1905 1000 glsllumcon 0;
#X obj 86 377 glsl_program;
#X obj 159 292 pack 0 0;
#X obj 180 272 t b f;
#X obj 176 227 change;
#X obj 158 108 change;
#X msg 159 318 link \$1 \$2;
#X floatatom 180 253 2 0 0 0 ID - -;
#X floatatom 158 131 2 0 0 0 ID - -;
#X obj 177 339 print linking;
#X obj 152 37 bng 15 250 50 0 empty empty empty 0 -6 0 8 -262144 -1
-1;
#X msg 100 67 open texture.vert;
#X msg 96 157 open texture.frag;
#X obj 86 89 glsl_vertex;
#X obj 86 207 glsl_fragment;
#X msg 106 178 open texture_rect.frag;
#X msg 209 108 0;
#X obj 302 77 bng 15 250 50 0 empty empty empty 0 -6 0 8 -262144 -1
-1;
#X text 334 75 <-load an other shader;
#X text 338 89 (using rectangular texturing);
#X msg 302 118 1;
#X msg 361 268 B \$1;
#X msg 374 307 C \$1;
#X floatatom 361 251 5 0 0 0 - - -;
#X floatatom 374 290 5 0 0 0 - - -;
#X text 418 290 <- adjust Contrast;
#X text 410 250 <- adjust Brightness;
#X text 184 35 <- load shader;
#X obj 302 139 s rectangle;
#X obj 209 129 s rectangle;
#X floatatom 202 382 0 0 0 0 - - -;
#X obj 85 19 inlet;
#X obj 86 413 outlet;
#X obj 361 204 inlet;
#X obj 417 207 inlet;
#X obj 301 18 loadbang;
#X obj 383 50 delay 4000;
#X connect 0 0 31 0;
#X connect 0 1 29 0;
#X connect 1 0 5 0;
#X connect 2 0 1 0;
#X connect 2 1 1 1;
#X connect 3 0 6 0;
#X connect 4 0 7 0;
#X connect 5 0 0 0;
#X connect 5 0 8 0;
#X connect 6 0 2 0;
#X connect 7 0 1 0;
#X connect 9 0 10 0;
#X connect 9 0 11 0;
#X connect 9 0 15 0;
#X connect 10 0 12 0;
#X connect 11 0 13 0;
#X connect 12 0 13 0;
#X connect 12 1 4 0;
#X connect 13 0 0 0;
#X connect 13 1 3 0;
#X connect 14 0 13 0;
#X connect 15 0 28 0;
#X connect 16 0 10 0;
#X connect 16 0 14 0;
#X connect 16 0 19 0;
#X connect 19 0 27 0;
#X connect 20 0 0 0;
#X connect 21 0 0 0;
#X connect 22 0 20 0;
#X connect 23 0 21 0;
#X connect 30 0 12 0;
#X connect 32 0 22 0;
#X connect 33 0 23 0;
#X connect 34 0 35 0;
#X connect 35 0 9 0;
#X restore 25 230 pd glsllumcon;
#X floatatom 84 191 5 0 0 0 - - -;
#X floatatom 227 189 5 0 0 0 - - -;
#X obj 241 230 loadbang;
#X obj 296 232 bng 15 250 50 0 empty empty empty 17 7 0 10 -262144
-1 -1;
#X obj 297 212 r \$0-smb;
#X obj 356 420 s \$0-freeze;
#X obj 483 171 pix_contrast;
#X obj 566 127 ii 2.4;
#X obj 551 148 f;
#X obj 356 396 t b b;
#X obj 482 131 metro 5;
#X msg 481 109 1;
#X msg 451 109 0;
#X obj 609 129 t b;
#X obj 17 724 alpha;
#X obj 444 533 gemlist;
#X obj 458 450 route gem_state;
#X obj 458 470 route float;
#X obj 458 429 t a a b;
#X obj 445 564 t a b;
#X obj 521 490 t b;
#X obj 584 372 pack f f f f f f;
#X obj 379 729 pack f f f f f f f;
#X obj 561 696 coll;
#C restore;
#X obj 360 700 counter;
#X msg 591 660 clear;
#X msg 596 705 open;
#X msg 593 681 wclose;
#X msg 595 634 dump;
#X obj 442 510 until;
#X obj 340 730 f;
#X floatatom 339 755 5 0 0 0 - - -;
#X obj 432 695 unpack f f f f f f;
#X obj 357 645 translateXYZ 0 0 0;
#X obj 452 594 separator;
#X obj 572 622 f;
#X obj 587 592 + 1;
#X msg 573 565 0;
#X obj 510 659 pack f f f;
#X obj 459 378 tgl 15 0 empty empty empty 17 7 0 10 -262144 -1 -1 1
1;
#X obj 460 356 change;
#X msg 492 331 1;
#X msg 466 330 0;
#X obj 354 620 color 1 0 1;
#X floatatom 490 627 5 0 0 0 - - -;
#X obj 356 347 t b b b b;
#X obj 358 670 cube 0.1;
#X obj 900 329 maxlib/scale -500000 500000 -8 1;
#N canvas 144 83 525 517 patchrepo 0;
#X obj 94 37 import mrpeach;
#X obj 97 100 unpackOSC;
#X obj 98 126 pipelist;
#X obj 98 167 list;
#X msg 98 187 \; \$1 \$2;
#X obj 200 26 loadbang;
#X obj 160 187 s \$0-radiobpm;
#X obj 200 48 delay 8000;
#X obj 200 70 t b;
#X obj 98 147 routeOSC /fx /pdbang1;
#X obj 91 68 udpreceive 9999;
#X msg 200 89 port 9999;
#X connect 1 0 2 0;
#X connect 1 1 2 1;
#X connect 2 0 9 0;
#X connect 3 0 4 0;
#X connect 5 0 7 0;
#X connect 7 0 8 0;
#X connect 8 0 11 0;
#X connect 9 0 3 0;
#X connect 9 1 6 0;
#X connect 10 0 1 0;
#X connect 11 0 10 0;
#X restore 877 712 pd patchrepo;
#X obj 158 531 r /pdprkf4;
#X obj 158 551 maxlib/scale 0 100 0 10000;
#X obj 99 482 r /pdprkf3;
#X obj 225 148 maxlib/scale 0 100 -1 6;
#X obj 225 129 r /pdprkf2;
#X obj 85 150 r /pdprkf1;
#X obj 155 416 maxlib/scale 0 100 1 48;
#X obj 155 395 r /pdprkf5;
#X obj 96 502 maxlib/scale 0 100 0 0.98;
#X obj 328 276 r \$0-radiobpm;
#X obj 458 401 gemhead 99;
#X obj 322 425 t b;
#X obj 445 268 bng 15 250 50 0 empty empty empty 17 7 0 10 -262144
-1 -1;
#X obj 326 471 t b;
#X msg 327 492 1;
#X obj 522 424 scaleXYZ;
#X obj 535 399 ii 2;
#X msg 270 365 -6;
#X obj 617 209 ii 32;
#X obj 323 450 delay 3700;
#X obj 86 170 maxlib/scale 0 100 0 2;
#X connect 0 0 26 0;
#X connect 1 0 0 0;
#X connect 2 0 70 0;
#X connect 3 0 10 0;
#X connect 4 0 46 0;
#X connect 4 1 29 0;
#X connect 6 0 1 1;
#X connect 7 0 8 0;
#X connect 8 0 1 0;
#X connect 9 0 36 0;
#X connect 10 0 85 0;
#X connect 11 0 2 0;
#X connect 21 0 65 0;
#X connect 22 0 4 1;
#X connect 23 0 6 0;
#X connect 24 0 1 0;
#X connect 27 0 4 1;
#X connect 27 0 47 0;
#X connect 28 0 30 0;
#X connect 30 0 16 0;
#X connect 30 1 12 0;
#X connect 30 1 58 2;
#X connect 30 2 15 0;
#X connect 30 2 59 2;
#X connect 30 3 18 0;
#X connect 33 0 25 0;
#X connect 34 0 25 1;
#X connect 35 0 25 2;
#X connect 36 0 3 0;
#X connect 37 0 36 1;
#X connect 38 0 36 2;
#X connect 39 0 40 0;
#X connect 40 0 36 0;
#X connect 41 0 36 0;
#X connect 42 0 41 0;
#X connect 43 0 38 0;
#X connect 46 0 9 0;
#X connect 46 0 63 1;
#X connect 49 0 60 1;
#X connect 50 0 60 2;
#X connect 51 0 50 0;
#X connect 52 0 58 0;
#X connect 52 0 84 0;
#X connect 52 1 59 0;
#X connect 52 2 53 0;
#X connect 52 2 56 0;
#X connect 52 2 118 0;
#X connect 52 3 92 3;
#X connect 52 3 93 4;
#X connect 52 4 92 4;
#X connect 52 4 93 5;
#X connect 52 5 92 5;
#X connect 52 5 93 6;
#X connect 53 0 54 0;
#X connect 56 0 55 0;
#X connect 57 0 49 0;
#X connect 58 0 92 0;
#X connect 58 0 93 1;
#X connect 59 0 92 1;
#X connect 59 0 93 2;
#X connect 60 1 52 0;
#X connect 61 0 60 3;
#X connect 63 0 77 0;
#X connect 64 0 80 0;
#X connect 65 0 4 3;
#X connect 66 0 65 1;
#X connect 67 0 65 1;
#X connect 69 0 68 0;
#X connect 70 0 4 0;
#X connect 71 0 70 1;
#X connect 72 0 70 2;
#X connect 73 0 67 0;
#X connect 74 0 67 0;
#X connect 75 0 74 0;
#X connect 77 0 60 0;
#X connect 78 0 79 1;
#X connect 79 0 77 1;
#X connect 79 0 77 2;
#X connect 80 0 76 0;
#X connect 80 0 82 0;
#X connect 80 0 66 0;
#X connect 80 0 79 0;
#X connect 81 0 63 0;
#X connect 82 0 81 0;
#X connect 83 0 81 0;
#X connect 84 0 83 0;
#X connect 84 0 95 0;
#X connect 85 0 44 0;
#X connect 86 0 90 0;
#X connect 87 0 88 0;
#X connect 88 1 91 0;
#X connect 89 0 87 0;
#X connect 89 1 86 1;
#X connect 89 2 108 0;
#X connect 90 0 105 0;
#X connect 90 1 106 0;
#X connect 91 0 101 0;
#X connect 93 0 94 0;
#X connect 94 0 103 0;
#X connect 95 0 93 0;
#X connect 95 0 101 1;
#X connect 96 0 94 0;
#X connect 97 0 94 0;
#X connect 98 0 94 0;
#X connect 99 0 94 0;
#X connect 100 0 86 0;
#X connect 101 0 102 0;
#X connect 101 0 100 0;
#X connect 103 0 104 1;
#X connect 103 1 104 2;
#X connect 103 2 104 3;
#X connect 103 3 109 0;
#X connect 103 4 109 1;
#X connect 103 5 109 2;
#X connect 104 0 117 0;
#X connect 105 0 114 0;
#X connect 106 0 107 0;
#X connect 106 0 94 0;
#X connect 107 0 106 1;
#X connect 108 0 106 0;
#X connect 109 0 114 1;
#X connect 110 0 130 0;
#X connect 111 0 110 0;
#X connect 112 0 111 0;
#X connect 113 0 111 0;
#X connect 114 0 104 0;
#X connect 115 0 104 1;
#X connect 116 0 64 0;
#X connect 116 1 112 0;
#X connect 116 1 137 0;
#X connect 116 2 96 0;
#X connect 116 3 95 2;
#X connect 118 0 92 2;
#X connect 118 0 93 3;
#X connect 120 0 121 0;
#X connect 121 0 37 0;
#X connect 121 0 43 0;
#X connect 122 0 128 0;
#X connect 123 0 72 0;
#X connect 124 0 123 0;
#X connect 125 0 140 0;
#X connect 126 0 46 1;
#X connect 127 0 126 0;
#X connect 128 0 9 1;
#X connect 129 0 116 0;
#X connect 129 0 131 0;
#X connect 130 0 135 0;
#X connect 131 0 139 0;
#X connect 133 0 134 0;
#X connect 133 0 96 0;
#X connect 134 0 72 0;
#X connect 135 0 89 0;
#X connect 136 0 135 1;
#X connect 136 0 135 2;
#X connect 136 0 135 3;
#X connect 137 0 72 0;
#X connect 138 0 61 0;
#X connect 139 0 133 0;
#X connect 140 0 71 0;
