#N canvas 394 22 345 331 10;
#N canvas 608 166 249 182 ARGOnOff 0;
#X obj 100 100 tgl 18 1 \$0-SendOnOff \$0-ReceiveOnOff On/Off 20 9
0 12 -4033 -1 -1 1 1;
#X obj 99 39 loadbang;
#X msg 99 62 \; pd dsp 1;
#X obj 100 129 outlet;
#X connect 0 0 3 0;
#X connect 1 0 2 0;
#X coords 0 -1 1 1 65 18 2 100 100;
#X restore 151 -222 pd ARGOnOff;
#X obj 151 -197 switch~;
#X obj -105 -227 cnv 15 15 15 empty empty ExMM28a-FFTReverb.pd 0 8
1 14 -262144 -66577 0;
#N canvas 413 140 402 279 ARGO 0;
#X obj 101 101 cnv 10 88 41 \$0-A \$0-B empty 20 12 0 14 -1 -1 1.04858e+06
;
#X obj 101 109 nbx 4 12 0 1e+37 0 0 \$0 \$0-ReceiveCpuPeak CPUPeak
42 7 1 10 -24198 -1 -24198 20 256;
#X obj 101 122 nbx 4 12 0 1e+37 0 0 \$0 \$0-ReceiveCpuMean CPUMean
42 7 1 10 -24198 -1 -24198 14.2 256;
#X text 141 83 5 3 2009;
#X obj 145 -55 cputime;
#X obj 145 -76 t b b;
#X text 188 24 (c) musil@iem.kug.ac.at;
#X text 230 37 IEM KUG;
#X text 78 18 CPU-load;
#X obj 144 -125 loadbang;
#X text 205 48 graz \, austria 2001;
#X obj 145 -100 metro 500;
#X obj 145 -34 * 0.2;
#X text 237 -88 -dsp-load in %;
#X text 228 -101 measure average- and peak-;
#X obj 37 18 * 100;
#X obj 37 63 int;
#X obj 37 41 + 0.499;
#X obj 37 86 * 0.01;
#N canvas 524 162 422 273 1p1zmodif 0;
#X text 134 89 (c) musil@iem.kug.ac.at;
#X text 179 99 IEM KUG;
#X obj 14 195 +;
#X text 151 108 graz \, austria 2001;
#X text 135 71 y[n] = a0*x[n] + a1*x[n-1] + b1*y[n-1];
#X text 18 13 x[n];
#X text 16 244 y[n];
#X text 84 111 y[n-1];
#X text 134 56 <float> control-IIR-filter 1.order;
#X obj 15 28 inlet;
#X obj 14 228 outlet;
#X obj 15 112 * 0.1;
#X obj 59 156 * 0.9;
#X text 139 144 a1 = 0;
#X text 139 155 b1 = 0.9;
#X text 139 133 a0 = 0.1;
#X obj 15 50 t f b;
#X text 135 40 Inspiré de 1p1z;
#X obj 59 112 f 0;
#X connect 2 0 10 0;
#X connect 2 0 18 1;
#X connect 9 0 16 0;
#X connect 11 0 2 0;
#X connect 12 0 2 1;
#X connect 16 0 11 0;
#X connect 16 1 18 0;
#X connect 18 0 12 0;
#X restore 37 -8 pd 1p1zmodif;
#X text 146 9 Inspiré de 5.reference/iemabs/help-dsp.pd;
#X connect 4 0 12 0;
#X connect 5 0 4 0;
#X connect 5 1 4 1;
#X connect 9 0 11 0;
#X connect 11 0 5 0;
#X connect 12 0 19 0;
#X connect 12 0 1 0;
#X connect 15 0 17 0;
#X connect 16 0 18 0;
#X connect 17 0 16 0;
#X connect 18 0 2 0;
#X connect 19 0 15 0;
#X coords 0 -1 1 1 90 43 1 100 100;
#X restore -97 -45 pd ARGO;
#N canvas 432 42 314 359 ARGO 0;
#X obj 101 101 cnv 30 37 130 empty ColorAmpli empty 20 12 0 14 -1 -258113
0;
#X obj 101 101 cnv 4 10 4 empty empty empty 20 12 0 14 -1 -66577 0
;
#X obj 102 108 vu 8 120 \$0-B empty 0 0 1 11 -1 -4034 1 0;
#X obj 42 -112 inlet~;
#X obj 35 -87 *~;
#X obj 35 3 snapshot~;
#X obj 35 26 sqrt;
#X obj 35 -24 lop~ 10;
#X obj 35 50 rmstodb;
#X obj 98 -111 loadbang;
#X obj 35 73 - 100;
#X obj 171 26 sqrt;
#X obj 172 50 rmstodb;
#X obj 172 73 - 100;
#X obj 97 -23 metro 200;
#X obj 236 -97 cnv 15 60 30 empty empty empty 20 12 0 14 -24198 -66577
0;
#N canvas 300 65 442 264 Help 0;
#X obj 12 48 cnv 15 400 150 empty empty empty 20 12 0 14 -233017 -66577
0;
#X text 16 50 Citation;
#X text 28 67 peakamp~ tracks and outputs the absolute value of the
peak amplitude of the incoming signal. It outputs when banged or using
its own internal clock. The peak value is reset each time peakamp~
outputs a value.;
#X text 17 214 par rapport à la version précédente du MM-Vumetre env~
est remplacé par square~ + lop~ + snapshot~ + sqrt + rmstodb car env~
consomme beaucoup CPU.;
#X text 29 123 cyclone library;
#X text 28 135 http://suita.chopin.edu.pl/~czaja/miXed/externs/cyclone.html
;
#X text 29 155 Voir doc Max/MSP MSP46ReferenceManual.pdf;
#X text 18 14 MM-Vumetre;
#X restore 243 -91 pd Help;
#X obj 261 199 cnv 15 41 30 empty empty empty 20 12 0 14 -24198 -66577
0;
#N canvas 350 196 308 136 ?? 0;
#X obj -9 87 cnv 15 300 38 empty empty empty 20 12 0 14 -224896 -66577
0;
#X obj -9 10 cnv 18 300 70 empty empty ARGOPdMiniModules 1 10 1 14
-4033 -1 1.04858e+06;
#X obj 9 29 cnv 10 10 10 empty empty Gerard 0 5 1 9 -4033 -1 1.04858e+06
;
#X obj 40 29 cnv 10 10 10 empty empty Paresys 0 5 1 9 -4033 -1 1.04858e+06
;
#X text -8 89 Construit sous / Build under Pd 0.42.5-extended;
#X obj 39 105 pddplink http://puredata.info/downloads;
#X obj 3 42 pddplink http://pagesperso-orange.fr/Paresys/ARGOPd/;
#X obj 3 57 pddplink http://gerard.paresys.free.fr/ARGOPd/;
#X restore 265 206 pd ??;
#X obj 158 -111 r SendFluid;
#X obj 171 -50 cyclone/peakamp~ 1000;
#X text 145 106 13 2 2011;
#X connect 3 0 4 0;
#X connect 3 0 4 1;
#X connect 4 0 7 0;
#X connect 4 0 20 0;
#X connect 5 0 6 0;
#X connect 6 0 8 0;
#X connect 7 0 5 0;
#X connect 8 0 10 0;
#X connect 9 0 14 0;
#X connect 10 0 2 0;
#X connect 11 0 12 0;
#X connect 12 0 13 0;
#X connect 13 0 2 1;
#X connect 14 0 5 0;
#X connect 19 0 14 1;
#X connect 20 0 11 0;
#X coords 0 -1 1 1 39 132 2 100 100;
#X restore 132 -38 pd ARGO;
#N canvas 237 45 722 461 ARGO 0;
#X obj 368 103 cnv 10 20 10 empty empty Play 1 5 1 14 -262144 -1 1.04858e+06
;
#X obj 101 130 cnv 4 10 4 empty empty empty 20 12 0 14 -1 -66577 0
;
#X obj 81 439 outlet~;
#X obj -13 64 openpanel;
#X msg 212 352 1;
#X msg 141 326 0;
#X msg 25 107 set \$1;
#X msg 253 354 open \$1;
#X obj 197 291 t b b;
#X msg 211 418 set 0;
#X obj 177 193 sel 1 0;
#X floatatom 230 231 5 0 0 0 - - -;
#X msg 230 208 set \$1;
#X obj 204 261 sel 1;
#X msg 110 361 set 1;
#X obj 185 6 key;
#X obj 186 29 select 32;
#X obj 42 7 loadbang;
#X obj 228 383 readsf~ 2;
#X obj -12 84 t b s;
#X obj 151 100 tgl 12 1 \$0-A \$0-B Play(Space) 14 6 1 9 -262144 -1
-1 1 1;
#X obj 311 100 bng 12 250 50 0 \$0-A \$0-B Stop 14 6 1 9 -262144 -1
-1;
#X obj 249 100 tgl 12 1 \$0-A \$0-B Loop 15 6 1 9 -262144 -1 -1 1 1
;
#X obj 349 436 outlet~;
#X obj 389 130 cnv 4 10 4 empty empty empty 20 12 0 14 -1 -66577 0
;
#X obj 48 196 list2symbol;
#X obj 100 100 bng 12 250 50 0 \$0-A \$0-B empty 14 6 1 9 -262144 -1
-1;
#X obj 174 328 delay 5;
#X obj 102 6 inlet~;
#X obj 101 58 threshold~ 0.5 5 0.49 5;
#X obj 421 289 cnv 15 60 30 empty empty empty 20 12 0 14 -24198 -66577
0;
#N canvas 285 55 565 577 Help 0;
#X obj 9 -296 cnv 15 400 100 empty empty empty 20 12 0 14 -233017 -66577
0;
#X text 12 -297 Citation;
#X obj 8 -51 cnv 15 550 310 empty empty empty 20 12 0 14 -258113 -66577
0;
#X text 20 -44 - Ne lit pas un fichier au format mp3 \, SoundDesigner
II (.SDII ou .SD2);
#X text 23 56 Solution: ouvrir puis sauver le fichier au format aiff
avec Audacity;
#X text 36 43 error: dsp: xxx.aiff: unknown or bad header format;
#X text 31 -281 READSF~ - read a soundfile;
#X text 30 -263 The wave \, aiff \, and nextstep formats are parsed
automatically \, although only 2- 3- and 4- byte samples are accepted
(4 bytes implies floating point and is not available in aiff format.)
;
#X text 13 -189 - Si le Patch est sauvé avec 1 Player contenant un
nom de fichier Audio \, ce fichier sera lu automatiquement à la prochaine
ouverture s'il n'a pas changé d'emplacement.;
#X text 191 206 If the sample rate of pd is set to 44100 \, files having
the sample rates of 44100 are correctly played \, other files will
be transposed.;
#X text 193 179 WARNING The sample rate of the output depends on the
system sample rate of pd:;
#X text 21 95 - ATTENTION Le taux d'échantillonnage de la lecture du
fichier dépends du taux d'échantillonnage de Pd.;
#X text 33 122 Si le taux d'échantillonnage de Pd est de 44100 (Menu
Preferences -> Audio Settings...) \, les fichiers échantillonnés à
44100 Hz sont lus correctement \, sinon ils sont transposés.;
#X text 12 -143 - Peut Ouvrir automatiquement 1 fichier qui se trouve
dans le même dossier que lui \, quelquesoit l'emplacement du dossier.
Pour cela ouvrir le module et taper le nom du fichier (sans chemin
d'accés) dans le message. Le dossier contenant le patch et le fichier
Audio est ainsi transportable.;
#X text 21 4 - Ne lit pas un fichier au format aiff "Entier petit boutien"
comme les pistes d'un CD Audio copiées avec le finder du Mac. Le message
d'erreur s'affichent:;
#X text 8 -434 MM Audio-Play;
#X text 19 -405 Le canal d'un fichier Audio Mono est lu sur la sortie
gauche;
#X text 19 -392 Les canaux 3 \, 4... d'un fichier Audio de plus de
2 canaux ne sont pas lus.;
#X text 199 -329 Channels 3 \, 4... of an Audio file of more than 2
channels are not read.;
#X text 199 -343 A Mono Audio file is read on the left output.;
#X text 19 -418 Lit un fichier Audio Stereo (2 canaux) au format aiff
\, wav.;
#X text 198 -370 Reads an Stereo Audio file (2 channels) with aiff
\, wav format..;
#X restore 428 295 pd Help;
#X obj 101 100 cnv 2 10 4 empty empty empty 20 12 0 14 -1 -66577 0
;
#X obj 102 101 cnv 2 8 2 empty empty empty 20 12 0 14 -262144 -66577
0;
#X text 75 81 Trig Decl;
#X obj 106 113 hradio 14 1 0 20 empty empty empty 0 6 0 8 -260097 -260097
-260097 0;
#X obj -13 42 bang;
#X text 403 115 <- Click the name to change;
#X symbolatom 101 113 49 0 0 0 - - -;
#X obj 49 140 cnv 15 400 50 empty empty empty 20 12 0 14 -260097 -66577
0;
#X text 51 139 Nom du fichier / File name;
#X text 454 152 <- Ajouter ../ devant le nom du fichier \; pour remonter
d'un dossier;
#X obj 653 417 cnv 15 41 30 empty empty empty 20 12 0 14 -24198 -66577
0;
#N canvas 350 196 308 136 ?? 0;
#X obj -9 87 cnv 15 300 38 empty empty empty 20 12 0 14 -224896 -66577
0;
#X obj -9 10 cnv 18 300 70 empty empty ARGOPdMiniModules 1 10 1 14
-4033 -1 1.04858e+06;
#X obj 9 29 cnv 10 10 10 empty empty Gerard 0 5 1 9 -4033 -1 1.04858e+06
;
#X obj 40 29 cnv 10 10 10 empty empty Paresys 0 5 1 9 -4033 -1 1.04858e+06
;
#X text -8 89 Construit sous / Build under Pd 0.42.5-extended;
#X obj 39 105 pddplink http://puredata.info/downloads;
#X obj 3 42 pddplink http://pagesperso-orange.fr/Paresys/ARGOPd/;
#X obj 3 57 pddplink http://gerard.paresys.free.fr/ARGOPd/;
#X restore 657 424 pd ??;
#X text 405 96 13 11 2010;
#X msg 53 158 Goch-Dwa(CreoleHaitien).wav;
#X connect 3 0 19 0;
#X connect 4 0 18 0;
#X connect 5 0 18 0;
#X connect 6 0 45 0;
#X connect 7 0 18 0;
#X connect 8 0 27 0;
#X connect 8 1 45 0;
#X connect 9 0 20 0;
#X connect 10 0 8 0;
#X connect 10 1 9 0;
#X connect 10 1 5 0;
#X connect 11 0 13 0;
#X connect 12 0 11 0;
#X connect 13 0 26 0;
#X connect 14 0 20 0;
#X connect 15 0 16 0;
#X connect 16 0 20 0;
#X connect 17 0 45 0;
#X connect 18 0 2 0;
#X connect 18 1 23 0;
#X connect 18 2 11 0;
#X connect 18 2 9 0;
#X connect 19 0 45 0;
#X connect 19 1 6 0;
#X connect 20 0 10 0;
#X connect 21 0 5 0;
#X connect 21 0 9 0;
#X connect 22 0 12 0;
#X connect 25 0 38 0;
#X connect 25 0 7 0;
#X connect 26 0 8 0;
#X connect 27 0 4 0;
#X connect 27 0 14 0;
#X connect 28 0 29 0;
#X connect 29 0 26 0;
#X connect 35 0 36 0;
#X connect 36 0 3 0;
#X connect 45 0 25 0;
#X coords 0 -1 1 1 300 35 2 100 100;
#X restore -87 -168 pd ARGO;
#N canvas 432 42 314 359 ARGO 0;
#X obj 101 101 cnv 30 37 130 empty ColorAmpli empty 20 12 0 14 -1 -258113
0;
#X obj 101 101 cnv 4 10 4 empty empty empty 20 12 0 14 -1 -66577 0
;
#X obj 102 108 vu 8 120 \$0-B empty 0 0 1 11 -1 -4034 1 0;
#X obj 42 -112 inlet~;
#X obj 35 -87 *~;
#X obj 35 3 snapshot~;
#X obj 35 26 sqrt;
#X obj 35 -24 lop~ 10;
#X obj 35 50 rmstodb;
#X obj 98 -111 loadbang;
#X obj 35 73 - 100;
#X obj 171 26 sqrt;
#X obj 172 50 rmstodb;
#X obj 172 73 - 100;
#X obj 97 -23 metro 200;
#X obj 236 -97 cnv 15 60 30 empty empty empty 20 12 0 14 -24198 -66577
0;
#N canvas 300 65 442 264 Help 0;
#X obj 12 48 cnv 15 400 150 empty empty empty 20 12 0 14 -233017 -66577
0;
#X text 16 50 Citation;
#X text 28 67 peakamp~ tracks and outputs the absolute value of the
peak amplitude of the incoming signal. It outputs when banged or using
its own internal clock. The peak value is reset each time peakamp~
outputs a value.;
#X text 17 214 par rapport à la version précédente du MM-Vumetre env~
est remplacé par square~ + lop~ + snapshot~ + sqrt + rmstodb car env~
consomme beaucoup CPU.;
#X text 29 123 cyclone library;
#X text 28 135 http://suita.chopin.edu.pl/~czaja/miXed/externs/cyclone.html
;
#X text 29 155 Voir doc Max/MSP MSP46ReferenceManual.pdf;
#X text 18 14 MM-Vumetre;
#X restore 243 -91 pd Help;
#X obj 261 199 cnv 15 41 30 empty empty empty 20 12 0 14 -24198 -66577
0;
#N canvas 350 196 308 136 ?? 0;
#X obj -9 87 cnv 15 300 38 empty empty empty 20 12 0 14 -224896 -66577
0;
#X obj -9 10 cnv 18 300 70 empty empty ARGOPdMiniModules 1 10 1 14
-4033 -1 1.04858e+06;
#X obj 9 29 cnv 10 10 10 empty empty Gerard 0 5 1 9 -4033 -1 1.04858e+06
;
#X obj 40 29 cnv 10 10 10 empty empty Paresys 0 5 1 9 -4033 -1 1.04858e+06
;
#X text -8 89 Construit sous / Build under Pd 0.42.5-extended;
#X obj 39 105 pddplink http://puredata.info/downloads;
#X obj 3 42 pddplink http://pagesperso-orange.fr/Paresys/ARGOPd/;
#X obj 3 57 pddplink http://gerard.paresys.free.fr/ARGOPd/;
#X restore 265 206 pd ??;
#X obj 158 -111 r SendFluid;
#X obj 171 -50 cyclone/peakamp~ 1000;
#X text 145 106 13 2 2011;
#X connect 3 0 4 0;
#X connect 3 0 4 1;
#X connect 4 0 7 0;
#X connect 4 0 20 0;
#X connect 5 0 6 0;
#X connect 6 0 8 0;
#X connect 7 0 5 0;
#X connect 8 0 10 0;
#X connect 9 0 14 0;
#X connect 10 0 2 0;
#X connect 11 0 12 0;
#X connect 12 0 13 0;
#X connect 13 0 2 1;
#X connect 14 0 5 0;
#X connect 19 0 14 1;
#X connect 20 0 11 0;
#X coords 0 -1 1 1 39 132 2 100 100;
#X restore 144 -38 pd ARGO;
#N canvas 305 72 638 521 ARGO 0;
#X obj 101 101 cnv 10 228 22 empty ColorForm Init-FFT 2 9 1 14 -188398
-1 1.04858e+06;
#X obj 155 100 hradio 12 1 1 11 \$0-A ColorForm empty 0 -8 0 10 -188398
-1 -1 5;
#X obj 287 100 nbx 5 12 1 99999 0 1 \$0-A ColorForm empty 0 0 1 9 -188398
-1 -1 2048 256;
#N canvas 0 22 450 300 (subpatch) 0;
#X array \$0-hann 2048 float 0;
#X coords 0 0 2047 1 300 100 0;
#X restore 50 89 graph;
#X obj 158 359 osc~;
#X obj 157 380 *~ -0.5;
#X obj 157 402 +~ 0.5;
#X obj 90 437 tabwrite~ \$0-hann;
#X obj 173 230 samplerate~;
#X obj 155 255 swap;
#X obj 155 279 /;
#X obj 155 206 t f b f;
#X msg 362 408 resize \$1;
#X obj 334 437 s \$0-hann;
#X msg 215 327 0;
#X text 249 189 64..65536;
#X obj 231 378 phasor~;
#N canvas 9 234 450 300 (subpatch) 0;
#X array \$0-FFTIndex 2048 float 0;
#X coords 0 0 2047 1 300 100 0;
#X restore 49 117 graph;
#X obj 200 437 tabwrite~ \$0-FFTIndex;
#X obj 396 437 s \$0-FFTIndex;
#X obj 8 437 s \$0-FFTSize;
#X obj 191 112 hradio 12 1 1 4 \$0-A ColorForm Overlap -33 6 1 9 -188398
-1 -1 2;
#X obj 239 112 nbx 1 12 1 99999 0 1 \$0-A ColorForm empty 0 0 1 9 -188398
-1 -1 4 256;
#X obj 482 436 s \$0-FFTOverlap;
#X msg 90 385 stop;
#X obj 155 302 t b b b b b f;
#X obj 155 48 r \$0-SendOnOff;
#X obj 155 77 sel 1;
#X text 279 82 2 6 2011;
#X obj 90 331 delay 2000;
#X obj 583 424 cnv 15 41 30 empty empty empty 20 12 0 14 -24198 -66577
0;
#N canvas 350 196 308 136 ?? 0;
#X obj -9 87 cnv 15 300 38 empty empty empty 20 12 0 14 -224896 -66577
0;
#X obj -9 10 cnv 18 300 70 empty empty ARGOPdMiniModules 1 10 1 14
-4033 -1 1.04858e+06;
#X obj 9 29 cnv 10 10 10 empty empty Gerard 0 5 1 9 -4033 -1 1.04858e+06
;
#X obj 40 29 cnv 10 10 10 empty empty Paresys 0 5 1 9 -4033 -1 1.04858e+06
;
#X text -8 89 Construit sous / Build under Pd 0.42.5-extended;
#X obj 39 105 pddplink http://puredata.info/downloads;
#X obj 3 42 pddplink http://pagesperso-orange.fr/Paresys/ARGOPd/;
#X obj 3 57 pddplink http://gerard.paresys.free.fr/ARGOPd/;
#X restore 587 431 pd ??;
#X obj 155 138 expr (pow(2 \, $f1 + 6));
#X obj 190 163 expr (pow(2 \, $f1));
#X text 239 208 -> Overlap 1 2 4 8;
#X text 161 188 -> window-size;
#X obj 48 156 cnv 15 60 30 empty empty empty 20 12 0 14 -24198 -66577
0;
#N canvas 399 94 413 273 Help 0;
#X obj 8 85 cnv 15 400 80 empty empty empty 20 12 0 14 -233017 -66577
0;
#X text 12 87 Citation;
#X text 22 2 Init-FFT;
#X text 29 106 calculate Hann window table (variable window size);
#X text 23 29 Voir Pd-0.42.5-extended ->;
#X text 24 41 Pure Data/3.audio.examples/I05.compressor.pd ->;
#X text 23 53 pd hann-window;
#X text 24 168 L'array \$0-FFTIndex n'est utilise que dans le MM FFT-BrickWallFilter
;
#X text 20 216 Si le son d'un MiniModule FFT est haché \, avec Init-FFT
grand (65536...) -> Pd-extended -> Preferences -> Audio Settings...
-> delay (msec) -> Augmenter;
#X restore 55 162 pd Help;
#X text 333 106 <- FFT size;
#X text 333 95 <- Taille de la FFT;
#X obj 92 -54 cnv 15 360 95 empty empty empty 20 12 0 14 -24198 -66577
0;
#X text 100 -52 ATTENTION: il faut placer un et un seul MiniModule
"Init-FFT" dans un patch contenant 1 ou plusieurs MiniModules FFT.
;
#X text 99 -6 CAUTION: it is necessary to place one and only one MiniModule
"Init-FFT" in a patch containing 1 or several MiniModules FFT.;
#X connect 1 0 32 0;
#X connect 4 0 5 0;
#X connect 5 0 6 0;
#X connect 6 0 7 0;
#X connect 8 0 9 1;
#X connect 9 0 10 0;
#X connect 9 1 10 1;
#X connect 10 0 25 0;
#X connect 11 0 9 0;
#X connect 11 1 8 0;
#X connect 11 2 12 0;
#X connect 12 0 13 0;
#X connect 12 0 19 0;
#X connect 14 0 4 1;
#X connect 14 0 16 1;
#X connect 16 0 18 0;
#X connect 21 0 33 0;
#X connect 24 0 18 0;
#X connect 24 0 7 0;
#X connect 25 0 29 0;
#X connect 25 2 7 0;
#X connect 25 3 18 0;
#X connect 25 4 14 0;
#X connect 25 5 16 0;
#X connect 25 5 4 0;
#X connect 26 0 27 0;
#X connect 27 0 1 0;
#X connect 29 0 24 0;
#X connect 32 0 2 0;
#X connect 32 0 20 0;
#X connect 32 0 11 0;
#X connect 33 0 22 0;
#X connect 33 0 23 0;
#X coords 0 -1 1 1 230 24 1 100 100;
#X restore -100 -203 pd ARGO;
#X obj 188 64 cnv 15 41 30 empty empty empty 20 12 0 14 -24198 -66577
0;
#N canvas 350 196 308 136 ?? 0;
#X obj -9 87 cnv 15 300 38 empty empty empty 20 12 0 14 -224896 -66577
0;
#X obj -9 10 cnv 18 300 70 empty empty ARGOPdMiniModules 1 10 1 14
-4033 -1 1.04858e+06;
#X obj 9 29 cnv 10 10 10 empty empty Gerard 0 5 1 9 -4033 -1 1.04858e+06
;
#X obj 40 29 cnv 10 10 10 empty empty Paresys 0 5 1 9 -4033 -1 1.04858e+06
;
#X text -8 89 Construit sous / Build under Pd 0.42.5-extended;
#X obj 39 105 pddplink http://puredata.info/downloads;
#X obj 3 42 pddplink http://pagesperso-orange.fr/Paresys/ARGOPd/;
#X obj 3 57 pddplink http://gerard.paresys.free.fr/ARGOPd/;
#X restore 192 71 pd ??;
#N canvas 415 96 340 291 ARGO 0;
#X obj 101 101 cnv 10 130 53 empty ColorForm empty 20 12 0 14 -188398
-1 1.04858e+06;
#X obj 101 101 cnv 4 10 4 empty empty empty 20 12 0 14 -1 -66577 0
;
#X obj 153 104 cnv 10 20 10 empty ColorForm FFT-Reverb 1 5 1 14 -188398
-1 1.04858e+06;
#X obj 103 114 hsl 127 12 2 1000 1 1 \$0-A ColorTime Size=80 0 7 1
9 -188398 -1 -1 7500 0;
#X msg -23 139 label \$1;
#X obj -23 117 tosymbol;
#X obj 101 150 cnv 4 10 4 empty empty empty 20 12 0 14 -1 -66577 0
;
#N canvas 116 33 824 592 fft-Reverb 0;
#X obj -572 111 *~;
#X obj -572 21 inlet~;
#X obj -509 391 *~;
#X obj -507 533 outlet~;
#X obj -495 19 tabreceive~ \$0-hann;
#X obj -276 20 inlet;
#X obj -62 555 switch~ 1024 4 1;
#X msg 52 411 0;
#X msg -98 410 1;
#X text -99 9 64..65536;
#X obj -98 25 r \$0-FFTSize;
#X obj -72 188 /;
#X obj 1 24 r \$0-FFTOverlap;
#X text 18 6 1 2 4 8;
#X obj -33 368 pack 1 2;
#X msg -63 410 set \$1 \$2 1;
#X obj 1 120 t b b f b;
#X obj -98 120 t b b b f f f b;
#X obj -598 460 *~;
#X obj -631 459 *~;
#X obj -533 461 *~;
#X obj -565 460 *~;
#X obj -565 482 +~;
#X obj -631 484 -~;
#X obj -354 380 *~;
#X obj -611 176 *~;
#X obj -643 176 *~;
#X obj -643 197 +~;
#X obj -646 95 *~;
#X obj -678 95 *~;
#X obj -306 303 *~;
#X obj -338 303 *~;
#X obj -572 136 rfft~;
#X obj -509 360 rifft~;
#X obj -338 325 rsqrt~;
#X obj -678 116 +~;
#X obj -405 388 *~;
#N canvas 167 161 699 396 decision 0;
#X obj 49 101 inlet~;
#X obj 50 341 outlet~;
#X obj 50 183 -~;
#X obj 50 226 clip~ 0 1;
#X obj 50 204 *~ 1e+20;
#X obj 196 98 inlet~;
#X text 137 213 stronger than;
#X text 139 228 old one;
#X obj 274 202 -~;
#X obj 288 177 lrshift~ 1;
#X obj 274 250 clip~ 0 1;
#X obj 274 228 *~ 1e+20;
#X obj 450 202 -~;
#X obj 450 250 clip~ 0 1;
#X obj 450 228 *~ 1e+20;
#X obj 464 177 lrshift~ -1;
#X obj 50 283 *~;
#X obj 50 312 *~;
#X text 135 199 1 if new signal;
#X text 55 73 new;
#X text 203 70 old;
#X text 51 12 Choose whether to replace the "lod" signal with the "new"
one. The "new" one must be stronger than the old one and also must
be stronger than its two neighboring channels;
#X text 267 283 1 if we're louder than neighbor;
#X connect 0 0 2 0;
#X connect 0 0 9 0;
#X connect 0 0 8 0;
#X connect 0 0 12 0;
#X connect 0 0 15 0;
#X connect 2 0 4 0;
#X connect 3 0 16 0;
#X connect 4 0 3 0;
#X connect 5 0 2 1;
#X connect 8 0 11 0;
#X connect 9 0 8 1;
#X connect 10 0 16 1;
#X connect 11 0 10 0;
#X connect 12 0 14 0;
#X connect 13 0 17 1;
#X connect 14 0 13 0;
#X connect 15 0 12 1;
#X connect 16 0 17 0;
#X connect 17 0 1 0;
#X restore -642 224 pd decision;
#X obj -338 353 *~;
#N canvas 324 70 403 294 divide-by-prev 0;
#X obj 147 38 inlet~;
#X obj 220 39 inlet~;
#X obj 123 240 outlet~;
#X obj 224 242 outlet~;
#X obj 248 184 *~;
#X obj 215 184 *~;
#X obj 180 185 *~;
#X obj 147 185 *~;
#X obj 147 207 +~;
#X obj 215 206 -~;
#X obj 35 85 cnv 15 100 60 empty empty empty 20 12 0 14 -258113 -66577
0;
#X obj 44 94 zexy/pack~;
#X obj 44 118 zexy/unpack~;
#X obj 258 81 cnv 15 100 60 empty empty empty 20 12 0 14 -258113 -66577
0;
#X obj 267 90 zexy/pack~;
#X obj 267 114 zexy/unpack~;
#X connect 0 0 7 0;
#X connect 0 0 4 0;
#X connect 0 0 11 0;
#X connect 1 0 6 0;
#X connect 1 0 5 0;
#X connect 1 0 14 0;
#X connect 4 0 9 1;
#X connect 5 0 9 0;
#X connect 6 0 8 1;
#X connect 7 0 8 0;
#X connect 8 0 2 0;
#X connect 9 0 3 0;
#X connect 11 0 12 0;
#X connect 12 0 7 1;
#X connect 12 0 5 1;
#X connect 14 0 15 0;
#X connect 15 0 4 1;
#X connect 15 0 6 1;
#X restore -481 188 pd divide-by-prev;
#N canvas 550 183 602 327 switch 0;
#X obj 19 163 inlet~;
#X obj 107 99 inlet~;
#X obj 169 100 inlet~;
#X obj 273 97 inlet~;
#X obj 333 97 inlet~;
#X obj 367 185 -~;
#X obj 338 231 +~;
#X obj 372 229 *~;
#X obj 250 182 -~;
#X obj 220 228 +~;
#X obj 254 228 *~;
#X obj 219 278 outlet~;
#X obj 338 274 outlet~;
#X text 46 28 switch between two pairs of inputs. If first inlet is
one \, take the left-hand pair \, otherwise the right-hand one.;
#X text 15 140 switch;
#X text 92 76 pass this if one;
#X text 269 77 pass this if zero;
#X connect 0 0 10 1;
#X connect 0 0 7 1;
#X connect 1 0 8 0;
#X connect 2 0 5 0;
#X connect 3 0 9 0;
#X connect 3 0 8 1;
#X connect 4 0 6 0;
#X connect 4 0 5 1;
#X connect 5 0 7 0;
#X connect 6 0 12 0;
#X connect 7 0 6 1;
#X connect 8 0 10 0;
#X connect 9 0 11 0;
#X connect 10 0 9 1;
#X restore -562 280 pd switch;
#N canvas 550 183 602 327 switch 0;
#X obj 19 163 inlet~;
#X obj 107 99 inlet~;
#X obj 169 100 inlet~;
#X obj 273 97 inlet~;
#X obj 333 97 inlet~;
#X obj 367 185 -~;
#X obj 338 231 +~;
#X obj 372 229 *~;
#X obj 250 182 -~;
#X obj 220 228 +~;
#X obj 254 228 *~;
#X obj 219 278 outlet~;
#X obj 338 274 outlet~;
#X text 46 28 switch between two pairs of inputs. If first inlet is
one \, take the left-hand pair \, otherwise the right-hand one.;
#X text 15 140 switch;
#X text 92 76 pass this if one;
#X text 269 77 pass this if zero;
#X connect 0 0 10 1;
#X connect 0 0 7 1;
#X connect 1 0 8 0;
#X connect 2 0 5 0;
#X connect 3 0 9 0;
#X connect 3 0 8 1;
#X connect 4 0 6 0;
#X connect 4 0 5 1;
#X connect 5 0 7 0;
#X connect 6 0 12 0;
#X connect 7 0 6 1;
#X connect 8 0 10 0;
#X connect 9 0 11 0;
#X connect 10 0 9 1;
#X restore -405 271 pd switch;
#X text -721 257 choose whether to;
#X text -723 275 punch in new (amplitude \,;
#X text -725 294 increment) pair;
#X text -541 74 previous output amplitude \, encoding both magnitude
and phase;
#X text -504 94 previous phase increment (unit-magnitude complex number)
;
#X obj -367 242 +~ 1e-15;
#X obj -670 58 +~ 1e-15;
#X text -501 455 propagate amplitudes by multiplying in the;
#X text -503 467 increments \, which advance the phase and drop;
#X text -500 479 magnitude according to revtime.;
#X text -306 367 normalize increments between 0 and;
#X text -308 385 1 according to revtime.;
#X text -282 3 Size Reverb;
#X obj -506 510 *~;
#X msg -81 156 0.5;
#X text -481 507 <- Normalize;
#X obj -276 322 expr 1 - 0.2/max(0.2 \, $f1/10);
#X obj -715 342 cnv 15 100 60 empty empty empty 20 12 0 14 -258113
-66577 0;
#X obj -706 351 zexy/pack~;
#X obj -706 375 zexy/unpack~;
#X obj -694 523 cnv 15 100 60 empty empty empty 20 12 0 14 -258113
-66577 0;
#X obj -685 532 zexy/pack~;
#X obj -685 556 zexy/unpack~;
#X obj -238 209 cnv 15 100 60 empty empty empty 20 12 0 14 -258113
-66577 0;
#X obj -229 218 zexy/pack~;
#X obj -229 242 zexy/unpack~;
#X obj -227 446 cnv 15 100 60 empty empty empty 20 12 0 14 -258113
-66577 0;
#X obj -218 455 zexy/pack~;
#X obj -218 479 zexy/unpack~;
#X connect 0 0 32 0;
#X connect 1 0 0 0;
#X connect 2 0 55 0;
#X connect 4 0 0 1;
#X connect 4 0 2 1;
#X connect 5 0 58 0;
#X connect 7 0 6 0;
#X connect 8 0 6 0;
#X connect 10 0 17 0;
#X connect 11 0 55 1;
#X connect 12 0 16 0;
#X connect 14 0 15 0;
#X connect 15 0 6 0;
#X connect 16 0 8 0;
#X connect 16 1 14 0;
#X connect 16 2 14 1;
#X connect 16 3 7 0;
#X connect 17 0 8 0;
#X connect 17 2 56 0;
#X connect 17 3 11 1;
#X connect 17 5 14 0;
#X connect 17 6 7 0;
#X connect 18 0 23 1;
#X connect 19 0 23 0;
#X connect 20 0 22 1;
#X connect 21 0 22 0;
#X connect 22 0 63 0;
#X connect 23 0 60 0;
#X connect 24 0 18 0;
#X connect 24 0 20 0;
#X connect 24 0 69 0;
#X connect 25 0 27 1;
#X connect 26 0 27 0;
#X connect 27 0 37 0;
#X connect 28 0 35 1;
#X connect 29 0 35 0;
#X connect 30 0 34 0;
#X connect 31 0 34 0;
#X connect 32 0 26 0;
#X connect 32 0 26 1;
#X connect 32 0 39 0;
#X connect 32 0 40 1;
#X connect 32 1 25 0;
#X connect 32 1 25 1;
#X connect 32 1 39 1;
#X connect 32 1 40 2;
#X connect 33 0 2 0;
#X connect 34 0 38 0;
#X connect 35 0 37 1;
#X connect 36 0 19 0;
#X connect 36 0 21 0;
#X connect 36 0 66 0;
#X connect 37 0 40 0;
#X connect 37 0 41 0;
#X connect 38 0 36 1;
#X connect 38 0 24 1;
#X connect 39 0 41 1;
#X connect 39 1 41 2;
#X connect 40 0 33 0;
#X connect 40 0 20 1;
#X connect 40 0 19 1;
#X connect 40 1 33 1;
#X connect 40 1 18 1;
#X connect 40 1 21 1;
#X connect 41 0 31 0;
#X connect 41 0 31 1;
#X connect 41 0 36 0;
#X connect 41 1 30 0;
#X connect 41 1 30 1;
#X connect 41 1 24 0;
#X connect 47 0 41 3;
#X connect 48 0 29 0;
#X connect 48 0 29 1;
#X connect 48 0 40 3;
#X connect 55 0 3 0;
#X connect 56 0 11 0;
#X connect 58 0 38 1;
#X connect 60 0 61 0;
#X connect 61 0 48 0;
#X connect 63 0 64 0;
#X connect 64 0 28 0;
#X connect 64 0 28 1;
#X connect 64 0 40 4;
#X connect 66 0 67 0;
#X connect 67 0 47 0;
#X connect 69 0 70 0;
#X connect 70 0 41 4;
#X restore 155 200 pd fft-Reverb;
#X obj -23 95 sprintf Size=%d;
#X obj -3 42 cnv 15 60 30 empty empty empty 20 12 0 14 -24198 -66577
0;
#N canvas 335 126 458 315 Help 0;
#X obj -165 43 cnv 15 440 250 empty empty empty 20 12 0 14 -228856
-66577 0;
#X text -162 43 Citation;
#X text -164 19 Browser -> 3.audio.examples/I08.pvoc.reverb.pd;
#X text -164 7 Voir Pd-0.41.4-extended ->;
#X text -44 47 PIANO REVERB;
#X text -152 63 This is a phase vocoder acting as a reverberator. The
sound is more coherent (less "whispered") than a real room or a standard
delay-based reverberator.;
#X text -150 118 The technique is to "punch" the incoming sound into
channels where (1) there's a peak \, and (2) the incoming sound drowns
out whatever might already be there. If the sound already in any channel
is louder than the input the input for that channel is ignored.;
#X text -147 190 For each window \, the amplitude in each channel is
propagated by a constant phase increment and multiplied downward by
a gain that determines the "reverb time".;
#X restore 4 49 pd Help;
#X obj 114 102 bng 12 250 50 0 \$0-A \$0-B Reset 14 6 1 9 -188398 -1
-1;
#X obj 103 126 hsl 127 12 0.001 1 1 1 \$0-A ColorForm Brill 0 7 1 9
-188398 -1 -1 4100 0;
#N canvas 429 196 314 167 Brillance 0;
#X msg 79 42 clear;
#X obj 122 102 lop~ 5;
#X obj 173 81 line;
#X obj 122 14 inlet~;
#X obj 122 131 outlet~;
#X obj 172 38 * 20000;
#X obj 79 13 inlet;
#X obj 173 14 inlet;
#X msg 173 61 \$1 10;
#X connect 0 0 1 0;
#X connect 1 0 4 0;
#X connect 2 0 1 1;
#X connect 3 0 1 0;
#X connect 5 0 8 0;
#X connect 6 0 0 0;
#X connect 7 0 5 0;
#X connect 8 0 2 0;
#X restore 155 174 pd Brillance;
#X obj 262 247 cnv 15 41 30 empty empty empty 20 12 0 14 -24198 -66577
0;
#N canvas 350 196 308 136 ?? 0;
#X obj -9 87 cnv 15 300 38 empty empty empty 20 12 0 14 -224896 -66577
0;
#X obj -9 10 cnv 18 300 70 empty empty ARGOPdMiniModules 1 10 1 14
-4033 -1 1.04858e+06;
#X obj 9 29 cnv 10 10 10 empty empty Gerard 0 5 1 9 -4033 -1 1.04858e+06
;
#X obj 40 29 cnv 10 10 10 empty empty Paresys 0 5 1 9 -4033 -1 1.04858e+06
;
#X text -8 89 Construit sous / Build under Pd 0.42.5-extended;
#X obj 39 105 pddplink http://puredata.info/downloads;
#X obj 3 42 pddplink http://pagesperso-orange.fr/Paresys/ARGOPd/;
#X obj 3 57 pddplink http://gerard.paresys.free.fr/ARGOPd/;
#X restore 266 254 pd ??;
#X obj 221 150 cnv 4 10 4 empty empty empty 0 0 0 9 -1 -66577 0;
#X obj 87 58 inlet~;
#X obj 206 58 inlet~;
#X obj 87 258 outlet~;
#X obj 208 259 outlet~;
#X obj 221 100 cnv 4 10 4 empty empty empty 0 0 0 9 -1 -66577 0;
#X obj 103 137 hsl 127 12 0 1 0 1 \$0-A ColorAmpli Dir 0 7 1 9 -261299
-1 -1 3400 0;
#N canvas 399 412 301 243 DirEffect 0;
#X obj 30 25 inlet~;
#X obj 135 25 inlet~;
#X obj 80 25 inlet~;
#X obj 34 207 outlet~;
#X obj 193 203 outlet~;
#X text 194 7 0...1;
#X text 38 11 Dir1;
#X text 90 9 Dir2;
#X text 133 6 Effect1;
#X obj 81 146 *~;
#X obj 133 146 *~;
#X obj 98 82 - 1;
#X obj 97 108 * -1;
#X obj 33 146 *~;
#X obj 193 26 inlet;
#X connect 0 0 13 0;
#X connect 1 0 10 0;
#X connect 2 0 9 0;
#X connect 9 0 4 0;
#X connect 10 0 3 0;
#X connect 10 0 4 0;
#X connect 11 0 12 0;
#X connect 12 0 9 1;
#X connect 12 0 13 1;
#X connect 13 0 3 0;
#X connect 14 0 11 0;
#X connect 14 0 10 1;
#X restore 87 226 pd DirEffect;
#X text 239 97 21 6 2011;
#X connect 3 0 7 1;
#X connect 3 0 8 0;
#X connect 4 0 3 0;
#X connect 5 0 4 0;
#X connect 7 0 23 2;
#X connect 8 0 5 0;
#X connect 11 0 13 0;
#X connect 12 0 13 2;
#X connect 13 0 7 0;
#X connect 17 0 23 0;
#X connect 17 0 13 1;
#X connect 18 0 23 1;
#X connect 18 0 13 1;
#X connect 22 0 23 3;
#X connect 23 0 19 0;
#X connect 23 1 20 0;
#X coords 0 -1 1 1 132 55 1 100 100;
#X restore 2 -112 pd ARGO;
#N canvas 497 69 331 310 ARGO 0;
#X obj 101 101 cnv 20 104 34 empty ColorAmpli empty 20 12 0 14 -261299
-1 1.04858e+06;
#X obj 85 282 outlet~;
#X obj 134 104 cnv 10 20 10 empty ColorAmpli Ampli 1 5 1 14 -261299
-1 1.04858e+06;
#X obj 85 43 inlet~;
#X obj 85 259 *~;
#X obj 103 118 hsl 101 12 -80 20 0 1 \$0-A ColorAmpli 0dB 0 7 1 9 -261299
-1 -1 8000 0;
#X obj 101 101 cnv 4 10 4 empty empty empty 20 12 0 14 -1 -66577 0
;
#X obj 101 131 cnv 4 10 4 empty empty empty 20 12 0 14 -1 -66577 0
;
#X obj 195 101 cnv 4 10 4 empty empty empty 20 12 0 14 -1 -66577 0
;
#X obj 195 131 cnv 4 10 4 empty empty empty 20 12 0 14 -1 -66577 0
;
#X obj 210 281 outlet~;
#X obj 210 42 inlet~;
#X obj 210 258 *~;
#X text 221 83 1 6 2011;
#X msg -10 150 label \$1;
#X obj -11 127 tosymbol;
#X obj -11 92 sprintf %ddB;
#X text 107 167 -> 0.0001..10 = -80dB..20dB;
#X obj 101 148 expr (pow(10 \, $f1 / 20));
#X obj 101 191 sel 0.0001;
#X msg 101 219 0;
#X obj 264 269 cnv 15 41 30 empty empty empty 20 12 0 14 -24198 -66577
0;
#N canvas 350 196 308 136 ?? 0;
#X obj -9 87 cnv 15 300 38 empty empty empty 20 12 0 14 -224896 -66577
0;
#X obj -9 10 cnv 18 300 70 empty empty ARGOPdMiniModules 1 10 1 14
-4033 -1 1.04858e+06;
#X obj 9 29 cnv 10 10 10 empty empty Gerard 0 5 1 9 -4033 -1 1.04858e+06
;
#X obj 40 29 cnv 10 10 10 empty empty Paresys 0 5 1 9 -4033 -1 1.04858e+06
;
#X text -8 89 Construit sous / Build under Pd 0.42.5-extended;
#X obj 39 105 pddplink http://puredata.info/downloads;
#X obj 3 42 pddplink http://pagesperso-orange.fr/Paresys/ARGOPd/;
#X obj 3 57 pddplink http://gerard.paresys.free.fr/ARGOPd/;
#X restore 268 276 pd ??;
#X connect 3 0 4 0;
#X connect 4 0 1 0;
#X connect 5 0 16 0;
#X connect 5 0 18 0;
#X connect 11 0 12 0;
#X connect 12 0 10 0;
#X connect 14 0 5 0;
#X connect 15 0 14 0;
#X connect 16 0 15 0;
#X connect 18 0 19 0;
#X connect 19 0 20 0;
#X connect 19 1 4 1;
#X connect 19 1 12 1;
#X connect 20 0 4 1;
#X connect 20 0 12 1;
#X connect 20 0 15 0;
#X coords 0 -1 1 1 106 36 1 100 100;
#X restore 17 -6 pd ARGO;
#X obj 40 76 dac~ 1 2;
#X connect 0 0 1 0;
#X connect 5 0 10 0;
#X connect 5 1 10 1;
#X connect 10 0 4 0;
#X connect 10 0 11 0;
#X connect 10 1 6 0;
#X connect 10 1 11 1;
#X connect 11 0 12 0;
#X connect 11 1 12 1;
