#N canvas 245 22 460 371 10;
#X obj -218 -77 switch~;
#N canvas 608 166 228 173 ARGOnOff 0;
#X obj 100 100 tgl 18 1 \$0-SendOnOff \$0-ReceiveOnOff On/Off 20 11
1 14 -4033 -1 -1 1 1;
#X obj 99 10 loadbang;
#X msg 99 33 \; pd dsp 1;
#X obj 100 129 outlet;
#X text -50 99 Audio On/Off du patch ->;
#X text -22 45 Audio General On ->;
#X text 107 82 17 3 2010;
#X connect 0 0 3 0;
#X connect 1 0 2 0;
#X coords 0 -1 1 1 65 18 2 100 100;
#X restore -218 -95 pd ARGOnOff;
#X text -213 -111 V;
#X text -213 -118 |;
#X text -225 -129 On/Off Patch;
#N canvas 413 140 402 279 ARGO 0;
#X obj 101 101 cnv 10 88 41 \$0-A \$0-B empty 20 12 0 14 -1 -1 1.04858e+06
;
#X obj 101 109 nbx 4 12 0 1e+37 0 0 \$0 \$0-ReceiveCpuPeak CPUPeak
42 7 1 10 -24198 -1 -24198 10 256;
#X obj 101 122 nbx 4 12 0 1e+37 0 0 \$0 \$0-ReceiveCpuMean CPUMean
42 7 1 10 -24198 -1 -24198 10.93 256;
#X text 141 83 5 3 2009;
#X obj 145 -55 cputime;
#X obj 145 -76 t b b;
#X text 188 24 (c) musil@iem.kug.ac.at;
#X text 230 37 IEM KUG;
#X text 78 18 CPU-load;
#X obj 144 -125 loadbang;
#X text 205 48 graz \, austria 2001;
#X obj 145 -100 metro 500;
#X obj 145 -34 * 0.2;
#X text 237 -88 -dsp-load in %;
#X text 228 -101 measure average- and peak-;
#X obj 37 18 * 100;
#X obj 37 63 int;
#X obj 37 41 + 0.499;
#X obj 37 86 * 0.01;
#N canvas 524 162 422 273 1p1zmodif 0;
#X text 134 89 (c) musil@iem.kug.ac.at;
#X text 179 99 IEM KUG;
#X obj 14 195 +;
#X text 151 108 graz \, austria 2001;
#X text 135 71 y[n] = a0*x[n] + a1*x[n-1] + b1*y[n-1];
#X text 18 13 x[n];
#X text 16 244 y[n];
#X text 84 111 y[n-1];
#X text 134 56 <float> control-IIR-filter 1.order;
#X obj 15 28 inlet;
#X obj 14 228 outlet;
#X obj 15 112 * 0.1;
#X obj 59 156 * 0.9;
#X text 139 144 a1 = 0;
#X text 139 155 b1 = 0.9;
#X text 139 133 a0 = 0.1;
#X obj 15 50 t f b;
#X text 135 40 Inspiré de 1p1z;
#X obj 59 112 f 0;
#X connect 2 0 10 0;
#X connect 2 0 18 1;
#X connect 9 0 16 0;
#X connect 11 0 2 0;
#X connect 12 0 2 1;
#X connect 16 0 11 0;
#X connect 16 1 18 0;
#X connect 18 0 12 0;
#X restore 37 -8 pd 1p1zmodif;
#X text 146 9 Inspiré de 5.reference/iemabs/help-dsp.pd;
#X connect 4 0 12 0;
#X connect 5 0 4 0;
#X connect 5 1 4 1;
#X connect 9 0 11 0;
#X connect 11 0 5 0;
#X connect 12 0 19 0;
#X connect 12 0 1 0;
#X connect 15 0 17 0;
#X connect 16 0 18 0;
#X connect 17 0 16 0;
#X connect 18 0 2 0;
#X connect 19 0 15 0;
#X coords 0 -1 1 1 90 43 1 100 100;
#X restore 78 -39 pd ARGO;
#X obj -264 -154 cnv 15 15 15 empty empty ExMM115-PDMTL-bell.pd 0 8
1 14 -262144 -66577 0;
#N canvas 446 113 417 240 ARGO 0;
#X obj 223 152 cnv 15 60 30 empty empty empty 20 12 0 14 -24198 -66577
0;
#N canvas 424 180 418 133 Help 0;
#X text 10 51 Un "Bang" sort chaque X msec.;
#X text 8 83 A "Bang" outputs every X msec.;
#X restore 230 158 pd Help;
#X obj 270 193 cnv 15 41 30 empty empty empty 20 12 0 14 -24198 -66577
0;
#N canvas 350 196 381 103 ? 0;
#X obj 5 49 cnv 15 370 38 empty empty empty 20 12 0 14 -224896 -66577
0;
#X text 6 65 Voir/Look at: http://puredata.info/downloads;
#X obj 4 12 cnv 18 370 30 empty empty ARGOPdMiniModules 1 10 1 14 -4033
-1 1.04858e+06;
#X obj 7 31 cnv 10 10 10 empty empty Gerard 0 5 1 9 -4033 -1 1.04858e+06
;
#X obj 38 31 cnv 10 10 10 empty empty Paresys 0 5 1 9 -4033 -1 1.04858e+06
;
#X obj 175 20 cnv 10 10 10 empty empty http://pagesperso-orange.fr/Paresys/ARGOPd/
0 5 1 9 -4033 -1 1.04858e+06;
#X obj 175 31 cnv 10 10 10 empty empty http://gerard.paresys.free.fr/ARGOPd/
0 5 1 9 -4033 -1 1.04858e+06;
#X text 6 51 Construit sous / Build under Pd 0.41.4-extended;
#X restore 276 200 pd ?;
#X obj 100 32 inlet;
#X obj 95 198 cnv 15 170 24 empty empty empty 20 12 0 14 -261682 -66577
0;
#X obj 100 202 outlet;
#X obj 101 101 cnv 10 132 36 empty ColorForm Oscill 95 9 1 14 -208064
-1 1.04858e+06;
#X obj 100 125 bng 12 250 50 0 \$0-A \$0-B empty 14 6 1 9 -262144 -1
-1;
#X obj 101 133 cnv 4 10 4 empty empty empty 20 12 0 14 -260097 -66577
0;
#X obj 100 113 nbx 6 12 1 999999 0 1 \$0-A ColorTime ms 40 17 1 9 -208064
-1 -1 1000 256;
#X obj 214 33 r \$0-SendOnOff;
#X obj 214 59 select 0;
#X text 146 206 -> Bang;
#X text 145 196 -> Bang;
#X obj 100 100 tgl 12 1 \$0-A \$0-B empty 17 7 0 10 -262144 -1 -1 1
1;
#X obj -93 96 cnv 15 190 20 empty empty empty 20 12 0 14 -261682 -66577
0;
#X text -92 97 1: Play 0: Stop bang: Change ->;
#X obj 101 101 cnv 4 10 4 empty empty empty 20 12 0 14 -260097 -66577
0;
#X obj 18 151 metro 300;
#X text 177 83 27 6 2010;
#X connect 4 0 15 0;
#X connect 8 0 6 0;
#X connect 10 0 19 1;
#X connect 11 0 12 0;
#X connect 15 0 19 0;
#X connect 19 0 8 0;
#X coords 0 -1 1 1 134 38 2 100 100;
#X restore -92 -154 pd ARGO;
#N canvas 383 56 468 428 ARGO 0;
#X obj 287 37 cnv 15 60 30 empty empty empty 20 12 0 14 -24198 -66577
0;
#N canvas 402 65 418 133 Help 0;
#X text 8 52 random 100 generates random numbers between 0 and 99;
#X text 9 25 Nbr = Nombre - Number;
#X restore 294 43 pd Help;
#X obj 308 383 cnv 15 41 30 empty empty empty 20 12 0 14 -24198 -66577
0;
#N canvas 350 196 381 103 ? 0;
#X obj 5 49 cnv 15 370 38 empty empty empty 20 12 0 14 -224896 -66577
0;
#X text 6 65 Voir/Look at: http://puredata.info/downloads;
#X obj 4 12 cnv 18 370 30 empty empty ARGOPdMiniModules 1 10 1 14 -4033
-1 1.04858e+06;
#X obj 7 31 cnv 10 10 10 empty empty Gerard 0 5 1 9 -4033 -1 1.04858e+06
;
#X obj 38 31 cnv 10 10 10 empty empty Paresys 0 5 1 9 -4033 -1 1.04858e+06
;
#X obj 175 20 cnv 10 10 10 empty empty http://pagesperso-orange.fr/Paresys/ARGOPd/
0 5 1 9 -4033 -1 1.04858e+06;
#X obj 175 31 cnv 10 10 10 empty empty http://gerard.paresys.free.fr/ARGOPd/
0 5 1 9 -4033 -1 1.04858e+06;
#X text 6 51 Construit sous / Build under Pd 0.41.4-extended;
#X restore 314 390 pd ?;
#X obj -57 5 cnv 15 170 24 empty empty empty 20 12 0 14 -261682 -66577
0;
#X obj 100 8 inlet;
#X obj 92 390 cnv 15 170 24 empty empty empty 20 12 0 14 -261682 -66577
0;
#X obj 97 394 outlet;
#X obj 101 101 cnv 10 132 46 empty ColorForm Nbr 107 9 1 14 -261476
-1 1.04858e+06;
#X obj 100 101 bng 12 50 50 0 \$0-A \$0-B empty 14 6 1 9 -262144 -1
-1;
#X obj 101 101 cnv 4 10 4 empty empty empty 20 12 0 14 -260097 -66577
0;
#X obj 101 143 cnv 4 10 4 empty empty empty 20 12 0 14 -260097 -66577
0;
#X obj 115 106 nbx 4 12 53 9999 0 1 \$0-A ColorTime max 40 7 1 9 -262144
-1 -1 71 256;
#X text -57 12 Input anything message ->;
#X text -57 2 N'importe quel message ->;
#X obj 115 130 nbx 4 12 -999 9999 0 1 \$0-A ColorTime min 40 7 1 9
-262144 -1 -1 52 256;
#X obj 100 118 nbx 4 12 -999 9999 0 1 \$0-A ColorTime empty 40 7 1
9 -262144 -1 -1 53 256;
#X obj 232 270 random;
#X obj 231 221 -;
#X obj 191 166 + 1;
#X obj 231 246 t b f;
#X text 142 388 -> Nombre;
#X text 143 398 -> Number;
#X obj 269 332 +;
#X msg 270 209 range \$1 9999;
#X obj -46 162 + 1;
#X obj -29 326 int;
#X obj -69 326 + 1;
#X obj -46 259 int;
#X obj -46 185 t f f;
#X obj -46 234 select 1;
#X obj -46 210 >;
#X obj 175 100 vradio 12 1 1 4 \$0-A \$0-B --> 16 6 1 9 -262144 -1
-1 3;
#X obj 189 112 cnv 5 5 5 empty empty <-- 0 6 1 9 -261476 -1 0;
#X obj 189 125 cnv 5 5 5 empty empty <--> 0 6 1 9 -261476 -1 0;
#X obj 189 137 cnv 5 5 5 empty empty Alea 0 6 1 9 -261476 -1 0;
#X obj 39 364 switch 4;
#X obj 61 331 int;
#X obj 18 260 int;
#X obj 18 186 t f f;
#X obj 18 235 select 1;
#X obj 18 163 - 1;
#X obj 18 211 <;
#X obj 110 190 + 1;
#X obj 116 212 t f f;
#X obj 113 265 select 1;
#X obj 130 331 int;
#X obj 110 237 >;
#X msg 124 163 -1;
#X obj 171 263 select 1;
#X obj 171 239 <;
#X msg 159 163 1;
#X obj 109 291 t b b;
#X obj 172 290 t b b;
#X obj -42 64 >;
#X obj -42 132 int;
#X obj -42 87 select 1;
#X obj -42 41 t b f;
#X obj -103 131 int;
#X obj -103 87 select 1;
#X obj -103 42 t b f;
#X obj -103 65 <;
#X obj -103 108 delay 5;
#X obj 229 161 t b f f f f f b f;
#X obj -42 109 delay 5;
#X obj 328 184 + 1;
#X text 210 83 11 9 2010;
#X connect 5 0 9 0;
#X connect 9 0 17 0;
#X connect 9 0 26 0;
#X connect 9 0 37 0;
#X connect 9 0 46 0;
#X connect 12 0 19 0;
#X connect 12 0 31 1;
#X connect 12 0 38 1;
#X connect 12 0 47 1;
#X connect 12 0 55 1;
#X connect 12 0 57 0;
#X connect 15 0 63 0;
#X connect 16 0 7 0;
#X connect 16 0 25 0;
#X connect 16 0 41 0;
#X connect 16 0 43 0;
#X connect 16 0 54 0;
#X connect 16 0 61 0;
#X connect 17 0 23 0;
#X connect 18 0 20 0;
#X connect 19 0 18 0;
#X connect 20 0 17 0;
#X connect 20 1 17 1;
#X connect 23 0 36 4;
#X connect 24 0 12 0;
#X connect 25 0 29 0;
#X connect 26 0 36 1;
#X connect 27 0 36 0;
#X connect 28 0 26 1;
#X connect 29 0 31 0;
#X connect 29 1 26 1;
#X connect 30 0 28 0;
#X connect 31 0 30 0;
#X connect 32 0 27 0;
#X connect 36 0 16 0;
#X connect 37 0 36 2;
#X connect 38 0 37 1;
#X connect 39 0 42 0;
#X connect 39 1 37 1;
#X connect 40 0 38 0;
#X connect 41 0 39 0;
#X connect 42 0 40 0;
#X connect 43 0 44 0;
#X connect 44 0 47 0;
#X connect 44 0 50 0;
#X connect 44 1 46 1;
#X connect 45 0 52 0;
#X connect 46 0 36 3;
#X connect 47 0 45 0;
#X connect 48 0 43 1;
#X connect 49 0 53 0;
#X connect 50 0 49 0;
#X connect 51 0 43 1;
#X connect 52 0 43 0;
#X connect 52 1 48 0;
#X connect 53 0 43 0;
#X connect 53 1 51 0;
#X connect 54 0 56 0;
#X connect 55 0 16 0;
#X connect 56 0 64 0;
#X connect 57 0 54 0;
#X connect 57 1 54 1;
#X connect 58 0 16 0;
#X connect 59 0 62 0;
#X connect 60 0 61 0;
#X connect 60 1 61 1;
#X connect 61 0 59 0;
#X connect 62 0 58 0;
#X connect 63 0 18 0;
#X connect 63 1 18 1;
#X connect 63 2 23 1;
#X connect 63 3 58 1;
#X connect 63 4 60 0;
#X connect 63 5 28 1;
#X connect 63 5 50 1;
#X connect 63 5 42 1;
#X connect 63 6 12 0;
#X connect 63 7 65 0;
#X connect 64 0 55 0;
#X connect 65 0 24 0;
#X coords 0 -1 1 1 134 48 2 100 100;
#X restore -92 -108 pd ARGO;
#N canvas 446 113 417 240 ARGO 0;
#X obj 223 152 cnv 15 60 30 empty empty empty 20 12 0 14 -24198 -66577
0;
#N canvas 424 180 418 133 Help 0;
#X text 10 51 Un "Bang" sort chaque X msec.;
#X text 8 83 A "Bang" outputs every X msec.;
#X restore 230 158 pd Help;
#X obj 270 193 cnv 15 41 30 empty empty empty 20 12 0 14 -24198 -66577
0;
#N canvas 350 196 381 103 ? 0;
#X obj 5 49 cnv 15 370 38 empty empty empty 20 12 0 14 -224896 -66577
0;
#X text 6 65 Voir/Look at: http://puredata.info/downloads;
#X obj 4 12 cnv 18 370 30 empty empty ARGOPdMiniModules 1 10 1 14 -4033
-1 1.04858e+06;
#X obj 7 31 cnv 10 10 10 empty empty Gerard 0 5 1 9 -4033 -1 1.04858e+06
;
#X obj 38 31 cnv 10 10 10 empty empty Paresys 0 5 1 9 -4033 -1 1.04858e+06
;
#X obj 175 20 cnv 10 10 10 empty empty http://pagesperso-orange.fr/Paresys/ARGOPd/
0 5 1 9 -4033 -1 1.04858e+06;
#X obj 175 31 cnv 10 10 10 empty empty http://gerard.paresys.free.fr/ARGOPd/
0 5 1 9 -4033 -1 1.04858e+06;
#X text 6 51 Construit sous / Build under Pd 0.41.4-extended;
#X restore 276 200 pd ?;
#X obj 100 32 inlet;
#X obj 95 198 cnv 15 170 24 empty empty empty 20 12 0 14 -261682 -66577
0;
#X obj 100 202 outlet;
#X obj 101 101 cnv 10 132 36 empty ColorForm Oscill 95 9 1 14 -208064
-1 1.04858e+06;
#X obj 100 125 bng 12 250 50 0 \$0-A \$0-B empty 14 6 1 9 -262144 -1
-1;
#X obj 101 133 cnv 4 10 4 empty empty empty 20 12 0 14 -260097 -66577
0;
#X obj 100 113 nbx 6 12 1 999999 0 1 \$0-A ColorTime ms 40 17 1 9 -208064
-1 -1 1100 256;
#X obj 214 33 r \$0-SendOnOff;
#X obj 214 59 select 0;
#X text 146 206 -> Bang;
#X text 145 196 -> Bang;
#X obj 100 100 tgl 12 1 \$0-A \$0-B empty 17 7 0 10 -262144 -1 -1 1
1;
#X obj -93 96 cnv 15 190 20 empty empty empty 20 12 0 14 -261682 -66577
0;
#X text -92 97 1: Play 0: Stop bang: Change ->;
#X obj 101 101 cnv 4 10 4 empty empty empty 20 12 0 14 -260097 -66577
0;
#X obj 18 151 metro 300;
#X text 177 83 27 6 2010;
#X connect 4 0 15 0;
#X connect 8 0 6 0;
#X connect 10 0 19 1;
#X connect 11 0 12 0;
#X connect 15 0 19 0;
#X connect 19 0 8 0;
#X coords 0 -1 1 1 134 38 2 100 100;
#X restore 52 -154 pd ARGO;
#N canvas 383 56 468 428 ARGO 0;
#X obj 287 37 cnv 15 60 30 empty empty empty 20 12 0 14 -24198 -66577
0;
#N canvas 402 65 418 133 Help 0;
#X text 8 52 random 100 generates random numbers between 0 and 99;
#X text 9 25 Nbr = Nombre - Number;
#X restore 294 43 pd Help;
#X obj 308 383 cnv 15 41 30 empty empty empty 20 12 0 14 -24198 -66577
0;
#N canvas 350 196 381 103 ? 0;
#X obj 5 49 cnv 15 370 38 empty empty empty 20 12 0 14 -224896 -66577
0;
#X text 6 65 Voir/Look at: http://puredata.info/downloads;
#X obj 4 12 cnv 18 370 30 empty empty ARGOPdMiniModules 1 10 1 14 -4033
-1 1.04858e+06;
#X obj 7 31 cnv 10 10 10 empty empty Gerard 0 5 1 9 -4033 -1 1.04858e+06
;
#X obj 38 31 cnv 10 10 10 empty empty Paresys 0 5 1 9 -4033 -1 1.04858e+06
;
#X obj 175 20 cnv 10 10 10 empty empty http://pagesperso-orange.fr/Paresys/ARGOPd/
0 5 1 9 -4033 -1 1.04858e+06;
#X obj 175 31 cnv 10 10 10 empty empty http://gerard.paresys.free.fr/ARGOPd/
0 5 1 9 -4033 -1 1.04858e+06;
#X text 6 51 Construit sous / Build under Pd 0.41.4-extended;
#X restore 314 390 pd ?;
#X obj -57 5 cnv 15 170 24 empty empty empty 20 12 0 14 -261682 -66577
0;
#X obj 100 8 inlet;
#X obj 92 390 cnv 15 170 24 empty empty empty 20 12 0 14 -261682 -66577
0;
#X obj 97 394 outlet;
#X obj 101 101 cnv 10 132 46 empty ColorForm Nbr 107 9 1 14 -261476
-1 1.04858e+06;
#X obj 100 101 bng 12 50 50 0 \$0-A \$0-B empty 14 6 1 9 -262144 -1
-1;
#X obj 101 101 cnv 4 10 4 empty empty empty 20 12 0 14 -260097 -66577
0;
#X obj 101 143 cnv 4 10 4 empty empty empty 20 12 0 14 -260097 -66577
0;
#X obj 115 106 nbx 4 12 53 9999 0 1 \$0-A ColorTime max 40 7 1 9 -262144
-1 -1 71 256;
#X text -57 12 Input anything message ->;
#X text -57 2 N'importe quel message ->;
#X obj 115 130 nbx 4 12 -999 9999 0 1 \$0-A ColorTime min 40 7 1 9
-262144 -1 -1 52 256;
#X obj 100 118 nbx 4 12 -999 9999 0 1 \$0-A ColorTime empty 40 7 1
9 -262144 -1 -1 70 256;
#X obj 232 270 random;
#X obj 231 221 -;
#X obj 191 166 + 1;
#X obj 231 246 t b f;
#X text 142 388 -> Nombre;
#X text 143 398 -> Number;
#X obj 269 332 +;
#X msg 270 209 range \$1 9999;
#X obj -46 162 + 1;
#X obj -29 326 int;
#X obj -69 326 + 1;
#X obj -46 259 int;
#X obj -46 185 t f f;
#X obj -46 234 select 1;
#X obj -46 210 >;
#X obj 175 100 vradio 12 1 1 4 \$0-A \$0-B --> 16 6 1 9 -262144 -1
-1 3;
#X obj 189 112 cnv 5 5 5 empty empty <-- 0 6 1 9 -261476 -1 0;
#X obj 189 125 cnv 5 5 5 empty empty <--> 0 6 1 9 -261476 -1 0;
#X obj 189 137 cnv 5 5 5 empty empty Alea 0 6 1 9 -261476 -1 0;
#X obj 39 364 switch 4;
#X obj 61 331 int;
#X obj 18 260 int;
#X obj 18 186 t f f;
#X obj 18 235 select 1;
#X obj 18 163 - 1;
#X obj 18 211 <;
#X obj 110 190 + 1;
#X obj 116 212 t f f;
#X obj 113 265 select 1;
#X obj 130 331 int;
#X obj 110 237 >;
#X msg 124 163 -1;
#X obj 171 263 select 1;
#X obj 171 239 <;
#X msg 159 163 1;
#X obj 109 291 t b b;
#X obj 172 290 t b b;
#X obj -42 64 >;
#X obj -42 132 int;
#X obj -42 87 select 1;
#X obj -42 41 t b f;
#X obj -103 131 int;
#X obj -103 87 select 1;
#X obj -103 42 t b f;
#X obj -103 65 <;
#X obj -103 108 delay 5;
#X obj 229 161 t b f f f f f b f;
#X obj -42 109 delay 5;
#X obj 328 184 + 1;
#X text 210 83 11 9 2010;
#X connect 5 0 9 0;
#X connect 9 0 17 0;
#X connect 9 0 26 0;
#X connect 9 0 37 0;
#X connect 9 0 46 0;
#X connect 12 0 19 0;
#X connect 12 0 31 1;
#X connect 12 0 38 1;
#X connect 12 0 47 1;
#X connect 12 0 55 1;
#X connect 12 0 57 0;
#X connect 15 0 63 0;
#X connect 16 0 7 0;
#X connect 16 0 25 0;
#X connect 16 0 41 0;
#X connect 16 0 43 0;
#X connect 16 0 54 0;
#X connect 16 0 61 0;
#X connect 17 0 23 0;
#X connect 18 0 20 0;
#X connect 19 0 18 0;
#X connect 20 0 17 0;
#X connect 20 1 17 1;
#X connect 23 0 36 4;
#X connect 24 0 12 0;
#X connect 25 0 29 0;
#X connect 26 0 36 1;
#X connect 27 0 36 0;
#X connect 28 0 26 1;
#X connect 29 0 31 0;
#X connect 29 1 26 1;
#X connect 30 0 28 0;
#X connect 31 0 30 0;
#X connect 32 0 27 0;
#X connect 36 0 16 0;
#X connect 37 0 36 2;
#X connect 38 0 37 1;
#X connect 39 0 42 0;
#X connect 39 1 37 1;
#X connect 40 0 38 0;
#X connect 41 0 39 0;
#X connect 42 0 40 0;
#X connect 43 0 44 0;
#X connect 44 0 47 0;
#X connect 44 0 50 0;
#X connect 44 1 46 1;
#X connect 45 0 52 0;
#X connect 46 0 36 3;
#X connect 47 0 45 0;
#X connect 48 0 43 1;
#X connect 49 0 53 0;
#X connect 50 0 49 0;
#X connect 51 0 43 1;
#X connect 52 0 43 0;
#X connect 52 1 48 0;
#X connect 53 0 43 0;
#X connect 53 1 51 0;
#X connect 54 0 56 0;
#X connect 55 0 16 0;
#X connect 56 0 64 0;
#X connect 57 0 54 0;
#X connect 57 1 54 1;
#X connect 58 0 16 0;
#X connect 59 0 62 0;
#X connect 60 0 61 0;
#X connect 60 1 61 1;
#X connect 61 0 59 0;
#X connect 62 0 58 0;
#X connect 63 0 18 0;
#X connect 63 1 18 1;
#X connect 63 2 23 1;
#X connect 63 3 58 1;
#X connect 63 4 60 0;
#X connect 63 5 28 1;
#X connect 63 5 50 1;
#X connect 63 5 42 1;
#X connect 63 6 12 0;
#X connect 63 7 65 0;
#X connect 64 0 55 0;
#X connect 65 0 24 0;
#X coords 0 -1 1 1 134 48 2 100 100;
#X restore 52 -108 pd ARGO;
#X obj 53 143 dac~;
#X text -78 193 Taken from Andy Farnell's work.;
#N canvas 202 155 392 416 ARGO 0;
#X obj 101 101 cnv 12 164 15 empty \$0-CanvasRecordMono Record 107
8 1 14 -261299 -1 1.04858e+06;
#X obj 101 101 cnv 4 10 4 empty empty empty 20 12 0 14 -1 -66577 0
;
#X obj 80 62 inlet~;
#X obj 133 130 sel 0 1;
#X msg 136 319 start;
#X msg 99 318 stop;
#X msg 179 198 open \$1;
#X obj 179 177 savepanel;
#X obj 179 266 delay 1000;
#X obj 177 379 float;
#X obj 223 378 + 1;
#X obj 155 357 metro 1000;
#X msg 223 358 -1;
#X obj 130 101 nbx 4 15 0 9999 0 0 \$0-A ColorTime sec 50 7 1 12 -208064
-1 -1 0 256;
#X obj 91 388 writesf~ 1;
#X text 87 80 Input;
#X text -35 24 Enregistreur de fichier audio wav à 1 canal (mono);
#X text -35 9 Mono wav file format recorder;
#X text 271 100 3 5 2009;
#X msg -45 339 0;
#X msg -14 339 1;
#X obj 115 101 tgl 15 0 \$0-A \$0-B empty 19 9 1 12 -262144 -258113
-1 0 1;
#X obj 152 153 t b b;
#X obj 113 153 t b b;
#X obj 179 288 t b b b b;
#N canvas 317 143 290 366 CouleurRecord 0;
#X obj 122 -19 +;
#X obj 122 37 +;
#X obj 61 -75 * -65536;
#X obj 117 -75 * -256;
#X obj 163 -77 * -1;
#X obj 122 68 - 1;
#X obj 115 -202 inlet;
#X text 77 -97 R;
#X text 123 -99 G;
#X text 172 -98 B;
#X obj 122 123 outlet;
#X text 170 -169 Rouge;
#X msg 134 -121 255;
#X msg 167 -121 0;
#X obj 115 -178 sel 0 1;
#X msg 122 96 color \$1 -1;
#X text 56 -170 Rose;
#X msg 73 -121 200;
#X msg 40 -121 252;
#X obj 134 -148 t b b b;
#X msg 198 -121 0;
#X msg 104 -121 200;
#X obj 40 -148 t b b b;
#X connect 0 0 1 1;
#X connect 1 0 5 0;
#X connect 2 0 1 0;
#X connect 3 0 0 0;
#X connect 4 0 0 1;
#X connect 5 0 15 0;
#X connect 6 0 14 0;
#X connect 12 0 2 0;
#X connect 13 0 3 0;
#X connect 14 0 22 0;
#X connect 14 1 19 0;
#X connect 15 0 10 0;
#X connect 17 0 3 0;
#X connect 18 0 2 0;
#X connect 19 0 12 0;
#X connect 19 1 13 0;
#X connect 19 2 20 0;
#X connect 20 0 4 0;
#X connect 21 0 4 0;
#X connect 22 0 18 0;
#X connect 22 1 17 0;
#X connect 22 2 21 0;
#X restore -45 364 pd CouleurRecord;
#X obj -45 388 s \$0-CanvasRecordMono;
#X msg 138 178 set 0;
#X msg 198 243 set 1;
#X obj 179 220 t b b b;
#X text -37 39 L'extension .wav est ajoutée au nom du fichier automatiquement
;
#X obj 281 14 cnv 15 41 30 empty empty empty 20 12 0 14 -24198 -66577
0;
#N canvas 350 196 381 103 ? 0;
#X obj 5 49 cnv 15 370 38 empty empty empty 20 12 0 14 -224896 -66577
0;
#X text 6 65 Voir/Look at: http://puredata.info/downloads;
#X obj 4 12 cnv 18 370 30 empty empty ARGOPdMiniModules 1 10 1 14 -4033
-1 1.04858e+06;
#X obj 7 31 cnv 10 10 10 empty empty Gerard 0 5 1 9 -4033 -1 1.04858e+06
;
#X obj 38 31 cnv 10 10 10 empty empty Paresys 0 5 1 9 -4033 -1 1.04858e+06
;
#X obj 175 20 cnv 10 10 10 empty empty http://pagesperso-orange.fr/Paresys/ARGOPd/
0 5 1 9 -4033 -1 1.04858e+06;
#X text 6 51 Construit sous / Build under Pd 0.40.3-extended;
#X obj 175 31 cnv 10 10 10 empty empty http://gerard.paresys.free.fr/ARGOPd/
0 5 1 9 -4033 -1 1.04858e+06;
#X restore 287 21 pd ?;
#X connect 2 0 14 0;
#X connect 3 0 23 0;
#X connect 3 1 22 0;
#X connect 4 0 14 0;
#X connect 5 0 11 0;
#X connect 5 0 14 0;
#X connect 6 0 14 0;
#X connect 6 0 29 0;
#X connect 7 0 6 0;
#X connect 8 0 24 0;
#X connect 9 0 10 0;
#X connect 10 0 9 1;
#X connect 10 0 13 0;
#X connect 11 0 9 0;
#X connect 12 0 10 0;
#X connect 19 0 25 0;
#X connect 20 0 25 0;
#X connect 21 0 3 0;
#X connect 22 0 27 0;
#X connect 22 1 7 0;
#X connect 23 0 19 0;
#X connect 23 1 5 0;
#X connect 24 0 20 0;
#X connect 24 1 4 0;
#X connect 24 2 11 0;
#X connect 24 3 12 0;
#X connect 25 0 26 0;
#X connect 27 0 21 0;
#X connect 28 0 21 0;
#X connect 29 0 8 0;
#X connect 29 1 28 0;
#X connect 29 2 12 0;
#X coords 0 -1 1 1 166 17 1 100 100;
#X restore -163 114 pd ARGO;
#X text -144 136 |;
#X text -158 145 Record;
#X text -144 131 ^;
#X obj 139 176 cnv 15 41 30 empty empty empty 20 12 0 14 -24198 -66577
0;
#N canvas 350 196 308 136 ?? 0;
#X obj -9 87 cnv 15 300 38 empty empty empty 20 12 0 14 -224896 -66577
0;
#X obj -9 10 cnv 18 300 70 empty empty ARGOPdMiniModules 1 10 1 14
-4033 -1 1.04858e+06;
#X obj 9 29 cnv 10 10 10 empty empty Gerard 0 5 1 9 -4033 -1 1.04858e+06
;
#X obj 40 29 cnv 10 10 10 empty empty Paresys 0 5 1 9 -4033 -1 1.04858e+06
;
#X text -8 89 Construit sous / Build under Pd 0.42.5-extended;
#X obj 39 105 pddplink http://puredata.info/downloads;
#X obj 3 42 pddplink http://pagesperso-orange.fr/Paresys/ARGOPd/;
#X obj 3 57 pddplink http://gerard.paresys.free.fr/ARGOPd/;
#X restore 143 183 pd ??;
#X text -77 179 Generates some bell sounds.;
#X text -240 179 Génère des sons de cloche;
#X text -266 -45 NoteMIDI;
#X text -158 -33 ou Bang;
#X text -212 -45 0..127 = C-2..G8 ->;
#X text -196 33 General level ->;
#X text -76 165 Origine: PDMTL-bell;
#N canvas 303 76 321 306 ARGO 0;
#X obj 86 285 outlet~;
#X obj 154 35 cnv 15 60 30 empty empty empty 20 12 0 14 -24198 -66577
0;
#N canvas 334 47 374 263 Help 0;
#X obj 25 165 pddplink http://code.goto10.org/projects/pdmtl/browser/trunk/mtl
;
#X text 26 138 Origine: pdmtl abstractions;
#X text 79 152 = Pure Data Montreal Abstractions;
#X obj 26 194 pddplink http://wiki.dataflow.ws/PdMtlAbstractions/;
#X obj 27 217 pddplink http://obiwannabe.co.uk/;
#X text 27 17 bell = cloche;
#X obj 26 41 cnv 15 300 90 empty empty empty 20 12 0 14 -228856 -66577
0;
#X text 29 41 Citation;
#X text 45 93 Comment: Taken from Andy Farnell's work.;
#X text 45 56 Description: Generates some bell sounds.;
#X text 45 110 Migh need a bit of "tuning".;
#X text 45 74 tags: synthesize~;
#X text 25 179 trunk_mtl-r1891.zip -> trunk/mtl/bell~.pd;
#X restore 161 41 pd Help;
#X obj 197 264 cnv 15 41 30 empty empty empty 20 12 0 14 -24198 -66577
0;
#N canvas 350 196 308 136 ?? 0;
#X obj -9 87 cnv 15 300 38 empty empty empty 20 12 0 14 -224896 -66577
0;
#X obj -9 10 cnv 18 300 70 empty empty ARGOPdMiniModules 1 10 1 14
-4033 -1 1.04858e+06;
#X obj 9 29 cnv 10 10 10 empty empty Gerard 0 5 1 9 -4033 -1 1.04858e+06
;
#X obj 40 29 cnv 10 10 10 empty empty Paresys 0 5 1 9 -4033 -1 1.04858e+06
;
#X text -8 89 Construit sous / Build under Pd 0.42.5-extended;
#X obj 39 105 pddplink http://puredata.info/downloads;
#X obj 3 42 pddplink http://pagesperso-orange.fr/Paresys/ARGOPd/;
#X obj 3 57 pddplink http://gerard.paresys.free.fr/ARGOPd/;
#X restore 201 271 pd ??;
#X obj 101 101 cnv 6 132 44 empty ColorForm PDMTL-bell 54 8 1 14 -262144
-1 1.04858e+06;
#X obj 100 100 bng 12 50 50 0 \$0-A \$0-B empty 14 6 1 9 -262144 -1
-1;
#X obj 101 101 cnv 4 10 4 empty empty empty 20 12 0 14 -260097 -66577
0;
#X obj 101 141 cnv 4 10 4 empty empty empty 20 12 0 14 -1 -66577 0
;
#X obj 103 116 hsl 129 12 0 128 0 1 \$0-A \$0-B F2 0 7 1 9 -208064
-1 -1 5300 0;
#X obj 93 53 t b f;
#X obj 120 76 select 0;
#X obj 173 188 pack 69 100;
#X obj 103 128 hsl 129 12 0 128 0 1 \$0-A \$0-B 96 0 7 1 9 -261299
-1 -1 9600 0;
#N canvas 499 145 195 238 Label-pitch 0;
#X obj 78 32 inlet;
#X obj -19 184 outlet;
#X text -22 201 Hslider;
#X text 73 11 Hslider;
#N canvas 220 243 583 317 pitchb-11-2010 0;
#X obj 70 111 mod 12;
#X obj 70 135 sel 0 1 2 3 4 5 6 7 8 9 10 11;
#X msg 246 170 A;
#X msg 300 170 B;
#X msg 192 170 G;
#X msg 3 170 C;
#X msg 57 170 D;
#X msg 111 170 E;
#X msg 138 170 F;
#X obj 204 1 inlet;
#X obj 329 115 div 12;
#X obj 204 79 t f f;
#X text 334 190 -> Numero de l'octave;
#X text 213 64 -> Numero MIDI de la note (69 = A3 = 440Hz);
#X msg 260 260 label \$1;
#X obj 260 283 outlet;
#X msg 30 170 Db;
#X msg 84 170 Eb;
#X msg 165 170 Gb;
#X msg 219 170 Ab;
#X msg 273 170 Bb;
#X text 369 78 (70 = A#3 = Bb3);
#X obj 260 238 symbol;
#X obj 260 213 sprintf %s%d;
#X text 11 231 Impossible d'afficher # dans un label;
#X text 11 243 donc j'affiche b;
#X obj 204 51 int;
#X text 255 23 -> pour corriger certaines erreurs de calcul;
#X obj 329 144 - 12;
#X text 255 35 et le pb du passage a zero de mod 12;
#X obj 204 25 + 120.5;
#X connect 0 0 1 0;
#X connect 1 0 5 0;
#X connect 1 1 16 0;
#X connect 1 2 6 0;
#X connect 1 3 17 0;
#X connect 1 4 7 0;
#X connect 1 5 8 0;
#X connect 1 6 18 0;
#X connect 1 7 4 0;
#X connect 1 8 19 0;
#X connect 1 9 2 0;
#X connect 1 10 20 0;
#X connect 1 11 3 0;
#X connect 2 0 23 0;
#X connect 3 0 23 0;
#X connect 4 0 23 0;
#X connect 5 0 23 0;
#X connect 6 0 23 0;
#X connect 7 0 23 0;
#X connect 8 0 23 0;
#X connect 9 0 30 0;
#X connect 10 0 28 0;
#X connect 11 0 0 0;
#X connect 11 1 10 0;
#X connect 14 0 15 0;
#X connect 16 0 23 0;
#X connect 17 0 23 0;
#X connect 18 0 23 0;
#X connect 19 0 23 0;
#X connect 20 0 23 0;
#X connect 22 0 14 0;
#X connect 23 0 22 0;
#X connect 26 0 11 0;
#X connect 28 0 23 1;
#X connect 30 0 26 0;
#X restore -19 129 pd pitchb-11-2010;
#X text -23 214 label;
#X obj 78 64 clip 0 127;
#X obj 112 186 outlet;
#X connect 0 0 6 0;
#X connect 4 0 1 0;
#X connect 6 0 7 0;
#X connect 6 0 4 0;
#X restore -26 97 pd Label-pitch;
#N canvas 0 22 450 300 label-Velocite 0;
#X msg 156 171 label \$1;
#X obj 156 151 tosymbol;
#X obj 201 53 inlet;
#X obj 157 200 outlet;
#X obj 156 131 sprintf %s;
#X obj 201 78 clip 0 127;
#X obj 259 200 outlet;
#X connect 0 0 3 0;
#X connect 1 0 0 0;
#X connect 2 0 5 0;
#X connect 4 0 1 0;
#X connect 5 0 4 0;
#X connect 5 0 6 0;
#X restore -28 135 pd label-Velocite;
#X obj 86 213 list append 1 2;
#X obj 192 162 t b f;
#X obj 86 261 *~ 4;
#N canvas 543 107 307 351 bell 0;
#N canvas 448 164 701 290 bell1 0;
#N canvas 0 22 350 192 envelopes 0;
#X obj 238 82 / 9;
#X obj 187 82 / 7;
#X obj 71 85 * 0.9;
#X msg 120 58 600;
#X obj 135 83 / 2;
#X obj 12 85 * 1.2;
#X obj 120 33 inlet;
#X obj 12 136 outlet;
#X obj 71 133 outlet;
#X obj 135 132 outlet;
#X obj 187 132 outlet;
#X obj 238 132 outlet;
#X text 98 10 envelope ratios;
#X connect 0 0 11 0;
#X connect 1 0 10 0;
#X connect 2 0 8 0;
#X connect 3 0 0 0;
#X connect 3 0 1 0;
#X connect 3 0 2 0;
#X connect 3 0 4 0;
#X connect 3 0 5 0;
#X connect 4 0 9 0;
#X connect 5 0 7 0;
#X connect 6 0 3 0;
#X restore 353 55 pd envelopes;
#N canvas 0 22 406 316 part_fund+sub 0;
#X obj 156 54 osc~;
#X obj 71 78 osc~;
#X text 6 112 suboctave hum;
#X text 129 105 fundamental;
#X obj 71 52 * 0.5001;
#X obj 197 258 *~;
#X obj 214 179 line~;
#X obj 71 172 *~ 0.1;
#X msg 216 136 1 \, 0 \$1;
#X obj 157 221 *~ 0.02;
#X obj 259 12 inlet;
#X obj 198 289 outlet~;
#X obj 93 10 inlet;
#X connect 0 0 9 0;
#X connect 1 0 7 0;
#X connect 4 0 1 0;
#X connect 5 0 11 0;
#X connect 6 0 5 1;
#X connect 7 0 9 0;
#X connect 8 0 6 0;
#X connect 9 0 5 0;
#X connect 10 0 8 0;
#X connect 12 0 4 0;
#X connect 12 0 0 0;
#X restore 21 116 pd part_fund+sub;
#N canvas 321 22 327 465 part 0;
#X obj 21 163 osc~;
#X obj 154 165 osc~;
#X obj 79 169 osc~;
#X text 147 192 Nominal;
#X obj 80 140 * 4.8;
#X text 82 192 "Quint";
#X obj 154 140 * 1.5;
#X obj 160 368 *~;
#X obj 226 277 line~;
#X obj 46 269 *~ 0.2;
#X obj 95 268 *~ 0.5;
#X obj 146 268 *~ 0.1;
#X obj 21 140 * 2.002;
#X obj 133 97 * 2;
#X text 8 194 Octave;
#X msg 228 234 1 \, 0 \$1;
#X obj 95 302 *~ 0.04;
#X obj 246 38 inlet;
#X obj 160 396 outlet~;
#X text 79 11 primary overtones;
#X obj 65 38 inlet;
#X connect 0 0 9 0;
#X connect 1 0 11 0;
#X connect 2 0 10 0;
#X connect 4 0 2 0;
#X connect 6 0 1 0;
#X connect 7 0 18 0;
#X connect 8 0 7 1;
#X connect 9 0 16 0;
#X connect 10 0 16 0;
#X connect 11 0 16 0;
#X connect 12 0 0 0;
#X connect 13 0 4 0;
#X connect 13 0 6 0;
#X connect 15 0 8 0;
#X connect 16 0 7 0;
#X connect 17 0 15 0;
#X connect 20 0 12 0;
#X connect 20 0 13 0;
#X restore 145 116 pd part primaries;
#N canvas 0 22 289 383 secondaries 0;
#X obj 80 104 osc~;
#X text 19 142 12th overtone;
#X obj 80 79 * 11;
#X obj 151 110 osc~;
#X obj 151 85 * 1.714;
#X text 149 142 12/7;
#X obj 13 105 osc~;
#X obj 13 80 * 1.6666;
#X obj 109 314 *~;
#X obj 173 223 line~;
#X obj 173 255 *~;
#X msg 173 196 1 \, 0 \$1;
#X obj 99 53 * 1.5;
#X obj 172 280 *~;
#X obj 72 254 *~ 0.2;
#X obj 72 210 *~ 0.2;
#X obj 23 210 *~ 0.1;
#X obj 118 209 *~ 0.1;
#X text 203 262 cubic;
#X obj 238 18 inlet;
#X obj 109 347 outlet~;
#X obj 80 19 inlet;
#X connect 0 0 15 0;
#X connect 2 0 0 0;
#X connect 3 0 17 0;
#X connect 4 0 3 0;
#X connect 6 0 16 0;
#X connect 7 0 6 0;
#X connect 8 0 20 0;
#X connect 9 0 10 1;
#X connect 9 0 10 0;
#X connect 10 0 13 0;
#X connect 10 0 13 1;
#X connect 11 0 9 0;
#X connect 12 0 4 0;
#X connect 12 0 7 0;
#X connect 13 0 8 1;
#X connect 14 0 8 0;
#X connect 15 0 14 0;
#X connect 16 0 14 0;
#X connect 17 0 14 0;
#X connect 19 0 11 0;
#X connect 21 0 2 0;
#X connect 21 0 12 0;
#X restore 275 116 pd secondaries;
#N canvas 0 22 389 416 circulars 0;
#X obj 145 106 osc~;
#X obj 40 103 osc~;
#X text 109 140 1st circular;
#X text 1 139 60 degree mode;
#X obj 40 80 * 3;
#X obj 145 82 * 6.242;
#X text 25 155 "Tierce";
#X obj 218 105 osc~;
#X obj 218 81 * 12.483;
#X text 220 142 2nd circular;
#X obj 162 325 *~;
#X obj 228 234 line~;
#X obj 227 263 *~;
#X obj 146 237 *~ 0.05;
#X obj 81 189 *~ 0.1;
#X text 262 267 square;
#X msg 228 209 1 \, 0 \$1;
#X obj 313 16 inlet;
#X obj 161 362 outlet~;
#X obj 34 19 inlet;
#X connect 0 0 13 0;
#X connect 1 0 14 0;
#X connect 4 0 1 0;
#X connect 5 0 0 0;
#X connect 7 0 13 0;
#X connect 8 0 7 0;
#X connect 10 0 18 0;
#X connect 11 0 12 1;
#X connect 11 0 12 0;
#X connect 12 0 10 1;
#X connect 13 0 10 0;
#X connect 14 0 13 0;
#X connect 16 0 11 0;
#X connect 17 0 16 0;
#X connect 19 0 4 0;
#X connect 19 0 5 0;
#X connect 19 0 8 0;
#X restore 384 116 pd circulars;
#N canvas 348 22 357 436 strike 0;
#X obj 107 284 *~ 0.03;
#X obj 67 129 osc~;
#X obj 67 105 * 16;
#X obj 108 129 osc~;
#X obj 108 105 * 24;
#X text 92 72 strikes;
#X obj 144 129 noise~;
#X obj 140 347 *~;
#X obj 205 264 line~;
#X obj 204 288 *~;
#X obj 204 312 *~;
#X text 244 304 cubic;
#X msg 205 242 1 \, 0 \$1;
#X obj 228 25 inlet;
#X obj 140 375 outlet~;
#X obj 77 23 inlet;
#X connect 0 0 7 0;
#X connect 1 0 0 0;
#X connect 2 0 1 0;
#X connect 3 0 0 0;
#X connect 4 0 3 0;
#X connect 6 0 0 0;
#X connect 7 0 14 0;
#X connect 8 0 9 1;
#X connect 8 0 9 0;
#X connect 9 0 10 0;
#X connect 9 0 10 1;
#X connect 10 0 7 1;
#X connect 12 0 8 0;
#X connect 13 0 12 0;
#X connect 15 0 2 0;
#X connect 15 0 4 0;
#X restore 479 116 pd strike;
#N canvas 341 174 423 271 bodyresonance 0;
#X obj 96 72 clip~ -0.2 0.5;
#X obj 96 145 *~ 0.4;
#X obj 11 109 bp~ 1243 12;
#X obj 96 109 bp~ 287 12;
#X obj 180 109 bp~ 431 12;
#X obj 58 238 outlet~;
#X obj 250 29 inlet~;
#X text 91 6 body resonance;
#X obj 58 173 *~ 4;
#X obj 250 218 zexy/pack~;
#X obj 250 242 zexy/unpack~;
#X obj 250 192 cyclone/comb~ 60 59 0 1 0;
#X connect 0 0 2 0;
#X connect 0 0 3 0;
#X connect 0 0 4 0;
#X connect 1 0 8 0;
#X connect 1 0 11 0;
#X connect 2 0 1 0;
#X connect 3 0 1 0;
#X connect 4 0 1 0;
#X connect 6 0 11 0;
#X connect 8 0 5 0;
#X connect 9 0 10 0;
#X connect 10 0 0 0;
#X connect 11 0 9 0;
#X restore 479 152 pd bodyresonance;
#X obj 257 227 hip~ 10;
#X obj 257 254 outlet~;
#X obj 353 28 inlet;
#X obj 128 24 inlet;
#X obj 256 175 *~ 0.9;
#X obj 256 202 clip~ -0.9 0.9;
#X connect 0 0 1 1;
#X connect 0 1 2 1;
#X connect 0 2 3 1;
#X connect 0 3 4 1;
#X connect 0 4 5 1;
#X connect 1 0 11 0;
#X connect 2 0 11 0;
#X connect 3 0 11 0;
#X connect 4 0 11 0;
#X connect 5 0 6 0;
#X connect 5 0 11 0;
#X connect 6 0 12 0;
#X connect 7 0 8 0;
#X connect 9 0 0 0;
#X connect 10 0 1 0;
#X connect 10 0 2 0;
#X connect 10 0 3 0;
#X connect 10 0 4 0;
#X connect 10 0 5 0;
#X connect 11 0 12 0;
#X connect 12 0 7 0;
#X restore 106 222 pd bell1;
#X obj 94 19 inlet;
#X obj 106 302 outlet~;
#X obj 108 194 t b f;
#X obj 113 166 mtof;
#X obj 94 103 f 80;
#X obj 94 50 route bang;
#X obj 106 261 *~;
#X obj 194 246 line~;
#X msg 196 212 \$1 5;
#X obj 202 144 / 127;
#N canvas 0 22 473 425 noteSplit 0;
#X obj 24 26 inlet;
#X obj 123 379 outlet note;
#X obj 276 387 outlet vel;
#X obj 381 387 outlet off;
#X obj 268 255 spigot;
#X obj 366 214 t f f;
#X obj 345 248 > 0;
#X obj 398 244 sel 0;
#X msg 384 349 0;
#X obj 276 179 list split 1;
#X connect 0 0 9 0;
#X connect 4 0 1 0;
#X connect 5 0 6 0;
#X connect 5 1 7 0;
#X connect 6 0 4 1;
#X connect 7 0 8 0;
#X connect 7 1 2 0;
#X connect 8 0 3 0;
#X connect 9 0 4 0;
#X connect 9 1 5 0;
#X restore 151 102 pd noteSplit;
#X connect 0 0 7 0;
#X connect 1 0 6 0;
#X connect 3 0 0 1;
#X connect 3 1 0 0;
#X connect 4 0 3 0;
#X connect 5 0 4 0;
#X connect 6 0 5 0;
#X connect 6 1 11 0;
#X connect 7 0 2 0;
#X connect 8 0 7 1;
#X connect 9 0 8 0;
#X connect 10 0 9 0;
#X connect 11 0 4 0;
#X connect 11 1 10 0;
#X restore 86 237 pd bell;
#X text 182 81 21 6 2011;
#X obj -69 19 cnv 15 200 30 empty empty empty 20 12 0 14 -261682 -66577
0;
#X obj 93 26 inlet;
#X text -69 22 NoteMIDI;
#X text -16 22 0..127 = C-2..G8;
#X text -16 33 ou Bang;
#X connect 6 0 16 0;
#X connect 9 0 14 0;
#X connect 10 0 6 0;
#X connect 10 1 11 0;
#X connect 11 1 9 0;
#X connect 12 0 16 1;
#X connect 13 0 15 0;
#X connect 14 0 9 0;
#X connect 14 1 12 0;
#X connect 15 0 13 0;
#X connect 15 1 17 0;
#X connect 16 0 19 0;
#X connect 17 0 12 0;
#X connect 17 1 12 1;
#X connect 18 0 0 0;
#X connect 19 0 18 0;
#X connect 22 0 10 0;
#X coords 0 -1 1 1 134 46 1 100 100;
#X restore -92 -41 pd ARGO;
#N canvas 432 42 314 359 ARGO 0;
#X obj 101 101 cnv 30 37 130 empty ColorAmpli empty 20 12 0 14 -1 -258113
0;
#X obj 101 101 cnv 4 10 4 empty empty empty 20 12 0 14 -1 -66577 0
;
#X obj 102 108 vu 8 120 \$0-B empty 0 0 1 11 -1 -4034 1 0;
#X obj 42 -112 inlet~;
#X obj 35 -87 *~;
#X obj 35 3 snapshot~;
#X obj 35 26 sqrt;
#X obj 35 -24 lop~ 10;
#X obj 35 50 rmstodb;
#X obj 98 -111 loadbang;
#X obj 35 73 - 100;
#X obj 171 26 sqrt;
#X obj 172 50 rmstodb;
#X obj 172 73 - 100;
#X obj 97 -23 metro 200;
#X obj 236 -97 cnv 15 60 30 empty empty empty 20 12 0 14 -24198 -66577
0;
#N canvas 300 65 442 264 Help 0;
#X obj 12 48 cnv 15 400 150 empty empty empty 20 12 0 14 -233017 -66577
0;
#X text 16 50 Citation;
#X text 28 67 peakamp~ tracks and outputs the absolute value of the
peak amplitude of the incoming signal. It outputs when banged or using
its own internal clock. The peak value is reset each time peakamp~
outputs a value.;
#X text 17 214 par rapport à la version précédente du MM-Vumetre env~
est remplacé par square~ + lop~ + snapshot~ + sqrt + rmstodb car env~
consomme beaucoup CPU.;
#X text 29 123 cyclone library;
#X text 28 135 http://suita.chopin.edu.pl/~czaja/miXed/externs/cyclone.html
;
#X text 29 155 Voir doc Max/MSP MSP46ReferenceManual.pdf;
#X text 18 14 MM-Vumetre;
#X restore 243 -91 pd Help;
#X obj 261 199 cnv 15 41 30 empty empty empty 20 12 0 14 -24198 -66577
0;
#N canvas 350 196 308 136 ?? 0;
#X obj -9 87 cnv 15 300 38 empty empty empty 20 12 0 14 -224896 -66577
0;
#X obj -9 10 cnv 18 300 70 empty empty ARGOPdMiniModules 1 10 1 14
-4033 -1 1.04858e+06;
#X obj 9 29 cnv 10 10 10 empty empty Gerard 0 5 1 9 -4033 -1 1.04858e+06
;
#X obj 40 29 cnv 10 10 10 empty empty Paresys 0 5 1 9 -4033 -1 1.04858e+06
;
#X text -8 89 Construit sous / Build under Pd 0.42.5-extended;
#X obj 39 105 pddplink http://puredata.info/downloads;
#X obj 3 42 pddplink http://pagesperso-orange.fr/Paresys/ARGOPd/;
#X obj 3 57 pddplink http://gerard.paresys.free.fr/ARGOPd/;
#X restore 265 206 pd ??;
#X obj 158 -111 r SendFluid;
#X obj 171 -50 cyclone/peakamp~ 1000;
#X text 145 106 13 2 2011;
#X connect 3 0 4 0;
#X connect 3 0 4 1;
#X connect 4 0 7 0;
#X connect 4 0 20 0;
#X connect 5 0 6 0;
#X connect 6 0 8 0;
#X connect 7 0 5 0;
#X connect 8 0 10 0;
#X connect 9 0 14 0;
#X connect 10 0 2 0;
#X connect 11 0 12 0;
#X connect 12 0 13 0;
#X connect 13 0 2 1;
#X connect 14 0 5 0;
#X connect 19 0 14 1;
#X connect 20 0 11 0;
#X coords 0 -1 1 1 39 132 2 100 100;
#X restore 87 29 pd ARGO;
#N canvas 324 59 331 313 ARGO 0;
#X obj 101 101 cnv 20 104 34 empty ColorAmpli empty 20 12 0 14 -261299
-1 1.04858e+06;
#X obj 85 285 outlet~;
#X obj 134 104 cnv 10 20 10 empty ColorAmpli Ampli 1 5 1 14 -261299
-1 1.04858e+06;
#X obj 85 72 inlet~;
#X obj 85 260 *~;
#X obj 103 118 hsl 101 12 -80 20 0 1 \$0-A ColorAmpli 0dB 0 7 1 9 -261299
-1 -1 8000 0;
#X msg -24 161 label \$1;
#X obj -25 138 tosymbol;
#X obj -25 103 sprintf %ddB;
#X obj 101 101 cnv 4 10 4 empty empty empty 20 12 0 14 -1 -66577 0
;
#X obj 101 131 cnv 4 10 4 empty empty empty 20 12 0 14 -1 -66577 0
;
#X text -16 120 -> -80dB..20dB;
#X text 106 182 -> 0.0001..10 = -80dB..20dB;
#X text 209 97 5 5 2011;
#X obj 100 163 expr (pow(10 \, $f1 / 20));
#X text 107 140 -> -80..20;
#X obj 227 270 cnv 15 41 30 empty empty empty 20 12 0 14 -24198 -66577
0;
#N canvas 350 196 308 136 ?? 0;
#X obj -9 87 cnv 15 300 38 empty empty empty 20 12 0 14 -224896 -66577
0;
#X obj -9 10 cnv 18 300 70 empty empty ARGOPdMiniModules 1 10 1 14
-4033 -1 1.04858e+06;
#X obj 9 29 cnv 10 10 10 empty empty Gerard 0 5 1 9 -4033 -1 1.04858e+06
;
#X obj 40 29 cnv 10 10 10 empty empty Paresys 0 5 1 9 -4033 -1 1.04858e+06
;
#X text -8 89 Construit sous / Build under Pd 0.42.5-extended;
#X obj 39 105 pddplink http://puredata.info/downloads;
#X obj 3 42 pddplink http://pagesperso-orange.fr/Paresys/ARGOPd/;
#X obj 3 57 pddplink http://gerard.paresys.free.fr/ARGOPd/;
#X restore 231 277 pd ??;
#X obj 100 206 sel 0.0001;
#X msg 100 234 0;
#X connect 3 0 4 0;
#X connect 4 0 1 0;
#X connect 5 0 8 0;
#X connect 5 0 14 0;
#X connect 6 0 5 0;
#X connect 7 0 6 0;
#X connect 8 0 7 0;
#X connect 14 0 18 0;
#X connect 18 0 19 0;
#X connect 18 1 4 1;
#X connect 19 0 4 1;
#X connect 19 0 7 0;
#X coords 0 -1 1 1 106 36 1 100 100;
#X restore -92 20 pd ARGO;
#X connect 1 0 0 0;
#X connect 7 0 8 0;
#X connect 8 0 26 0;
#X connect 9 0 10 0;
#X connect 10 0 26 0;
#X connect 26 0 28 0;
#X connect 28 0 11 0;
#X connect 28 0 11 1;
#X connect 28 0 27 0;
#X connect 28 0 13 0;
