#N canvas 404 75 414 415 10;
#X obj 1 -235 cnv 15 15 15 empty empty ExMM34c-GEMRotation-Light.pd
0 8 1 14 -262144 -1 0;
#N canvas 125 90 461 382 ARGO 0;
#X obj 101 101 cnv 10 298 34 \$0-A \$0-B empty 20 12 0 14 -228856 -1
1.04858e+06;
#X obj 101 131 cnv 4 10 4 empty empty empty 20 12 0 14 -128992 -66577
0;
#X obj 113 101 nbx 3 12 1 100 0 1 \$0-A \$0-B Render 33 7 1 9 -262144
-1 -1 50 256;
#X obj 102 261 pix_image;
#X obj 101 233 gemhead;
#X msg 114 207 set \$1;
#X obj 103 326 outlet;
#X obj 148 -32 loadbang;
#X obj 148 1 delay 1000;
#X obj 64 0 openpanel;
#X msg 92 44 set \$1;
#X msg 28 232 open \$1;
#X obj 28 207 list2symbol;
#X obj 64 22 t b s;
#X obj -49 208 list2symbol;
#X obj 149 24 t b b;
#X obj -29 -32 r \$0-SendOnOff;
#X obj -29 -4 t f f;
#X obj 302 25 cnv 15 60 30 empty empty empty 20 12 0 14 -24198 -66577
0;
#N canvas 425 39 445 589 Help 0;
#X text 13 30 - ATTENTION: GEM doit etre "On";
#X text 14 44 - Ouvre des fichiers image JPEG \, TIFF \, PNG...;
#X text 13 89 - Si le module est sauvé avec 1 nom de fichier \, Ce
fichier sera lu automatiquement a la prochaine ouverture s'il n'a pas
changé d'emplacement.;
#X obj 8 430 cnv 15 400 250 empty empty empty 20 12 0 14 -224896 -66577
0;
#X text 47 459 Solution: ne pas utiliser d'accent dans les noms de
fichier;
#X text 47 514 Se produit avec certaines cartes video \, de certains
PC \, sous Windows...;
#X text 47 540 Inconvenient: Charge CPU => la texture est calculée
(objet pix_texture) par le processeur de l'ordinateur et pas par la
carte video);
#X text 11 433 - Erreur dans la fenêtre Pd:;
#X text 47 488 OpenGL: invalid enumérant (repeat);
#X text 15 584 - Dans la fenêtre GEM les couleurs de l'image ne sont
pas correctes.;
#X text 35 475 - GL: énumérant non valide (répété);
#X text 34 446 - error:GemImageLoad:Unable to find file: C:/Ima/Gérard.jpg
;
#X text 90 651 http://rsb.info.nih.gov/ij/download.html;
#X text 36 610 - Solution 1: Si le fichier a été enregistré avec Photoshop:
ne pas cocher l'option Couleur "Profill CC";
#X text 17 128 - Peut Ouvrir automatiquement 1 fichier qui se trouve
dans le même dossier que lui \, quelquesoit l'emplacement du dossier.
Pour cela taper le nom du fichier (sans chemin d'accés) dans le message.
Sauver le module. Le dossier contenant le module ARGO et le fichier
image est ainsi transportable.;
#X text 47 501 Solution: cocher Compatible dans le MM GEM;
#X text 36 637 - Solution 2: Réenregistrer le fichier avec le logiciel
ImageJ;
#X obj 9 212 cnv 15 430 200 empty empty empty 20 12 0 14 -233017 -66577
0;
#X text 31 242 Description: loads in an image file;
#X text 31 228 Synopsis: [pix_image];
#X text 30 259 [pix_image] loads in an image to be used a texture \,
bitblit \, or something else. If you don't give it a default image
file \, you can send the open message with a filename.;
#X text 30 302 [pix_image] loads in TIFFs \, JPEGs and PNGs.;
#X text 31 321 TIFF-files are loaded using Sam Leffler's libtiff library
\, a great \, portable image file reading and processing package (Thanks
Sam!).;
#X text 29 367 The image can be either drawn directly using [pix_draw]
(VERY slow) or applied as a texture onto a Geo ([pix_texture]);
#X text 12 212 Citation;
#X text 10 14 GEM-Image;
#X text 15 58 - Sous MacOSX \, uelquesoit le format de l'image \, le
colorspace est RGBA.;
#X restore 309 31 pd Help;
#X obj 101 101 tgl 12 1 \$0-A \$0-B empty 15 7 1 9 -262144 -1 -1 1
1;
#X msg -10 45 0;
#X text 40 98 On/Off ->;
#X obj -29 21 sel 1 0;
#X obj 104 115 hradio 14 1 0 20 empty empty empty 0 6 0 8 -262144 -1
-1 0;
#X obj 64 -24 bang;
#X obj -36 151 cnv 15 400 50 empty empty empty 20 12 0 14 -260097 -66577
0;
#X text -34 150 Nom du fichier / File name;
#X obj 343 286 cnv 15 41 30 empty empty empty 20 12 0 14 -24198 -66577
0;
#N canvas 350 196 381 103 ? 0;
#X obj 5 49 cnv 15 370 38 empty empty empty 20 12 0 14 -224896 -66577
0;
#X text 6 65 Voir/Look at: http://puredata.info/downloads;
#X obj 4 12 cnv 18 370 30 empty empty ARGOPdMiniModules 1 10 1 14 -4033
-1 1.04858e+06;
#X obj 7 31 cnv 10 10 10 empty empty Gerard 0 5 1 9 -4033 -1 1.04858e+06
;
#X obj 38 31 cnv 10 10 10 empty empty Paresys 0 5 1 9 -4033 -1 1.04858e+06
;
#X obj 175 20 cnv 10 10 10 empty empty http://pagesperso-orange.fr/Paresys/ARGOPd/
0 5 1 9 -4033 -1 1.04858e+06;
#X obj 175 31 cnv 10 10 10 empty empty http://gerard.paresys.free.fr/ARGOPd/
0 5 1 9 -4033 -1 1.04858e+06;
#X text 6 51 Construit sous / Build under Pd 0.41.4-extended;
#X restore 349 293 pd ?;
#X symbolatom 100 114 49 0 0 0 - - -;
#X obj 311 103 cnv 10 20 10 empty ColorGEM GEM-Image 1 5 1 14 -228856
-1 1.04858e+06;
#X msg -24 114 set \$1;
#X text 342 81 23 3 2010;
#X text 204 76 |;
#X text 204 84 v;
#X text 167 65 Reload Image;
#N canvas 596 90 458 358 Geminfo 0;
#X obj 67 27 inlet;
#X obj 179 31 inlet;
#X obj 63 307 outlet;
#X text 60 8 gemlist;
#X text 183 13 bang;
#X text 67 324 label;
#X obj 67 90 pix_info;
#X obj 63 147 change;
#X obj 110 147 change;
#X obj 153 146 change;
#X obj 153 171 sel 32993 34233 6409 6408 32992 6407;
#X msg 62 283 label \$1;
#X obj 62 261 tosymbol;
#X obj 157 30 bng 15 250 50 0 empty empty empty 17 7 0 10 -262144 -1
-1;
#X obj 158 92 t b b b;
#X msg 153 205 RGBA;
#X msg 189 205 YUV;
#X msg 224 205 Grey;
#X msg 295 205 RGB;
#X msg 366 205 ?;
#X text 169 238 <- ATTENTION jamais d'espace dans un label;
#X obj -21 206 clip 0 100000;
#X obj 67 206 clip 0 100000;
#X obj 62 239 sprintf %dx%d--%s;
#X connect 0 0 6 0;
#X connect 1 0 14 0;
#X connect 6 1 7 0;
#X connect 6 2 8 0;
#X connect 6 4 9 0;
#X connect 7 0 21 0;
#X connect 8 0 22 0;
#X connect 9 0 10 0;
#X connect 10 0 15 0;
#X connect 10 1 16 0;
#X connect 10 2 17 0;
#X connect 10 3 15 0;
#X connect 10 4 18 0;
#X connect 10 5 18 0;
#X connect 10 6 19 0;
#X connect 11 0 2 0;
#X connect 12 0 11 0;
#X connect 13 0 14 0;
#X connect 14 0 7 0;
#X connect 14 1 8 0;
#X connect 14 2 9 0;
#X connect 15 0 23 2;
#X connect 16 0 23 2;
#X connect 17 0 23 2;
#X connect 18 0 23 2;
#X connect 19 0 23 2;
#X connect 21 0 23 0;
#X connect 22 0 23 1;
#X connect 23 0 12 0;
#X restore 144 292 pd Geminfo;
#X text 84 135 gemlist;
#X obj 202 101 bng 12 250 50 0 \$0-A \$0-B 512x384--RGBA 15 7 1 9 -262144
-1 -1;
#X msg -30 167 Arbre512x384a.jpg;
#X connect 2 0 5 0;
#X connect 3 0 6 0;
#X connect 3 0 37 0;
#X connect 4 0 3 0;
#X connect 5 0 4 0;
#X connect 7 0 8 0;
#X connect 8 0 15 0;
#X connect 9 0 13 0;
#X connect 10 0 30 0;
#X connect 11 0 3 0;
#X connect 12 0 11 0;
#X connect 13 0 30 0;
#X connect 13 1 10 0;
#X connect 14 0 10 0;
#X connect 15 0 30 0;
#X connect 15 1 40 0;
#X connect 16 0 17 0;
#X connect 17 0 23 0;
#X connect 20 0 4 0;
#X connect 21 0 20 0;
#X connect 23 0 40 0;
#X connect 23 1 21 0;
#X connect 24 0 25 0;
#X connect 25 0 9 0;
#X connect 30 0 12 0;
#X connect 30 0 32 0;
#X connect 32 0 40 0;
#X connect 37 0 39 0;
#X connect 39 0 37 1;
#X connect 39 0 30 0;
#X connect 40 0 14 0;
#X coords 0 -1 1 1 300 36 1 100 100;
#X restore 23 -91 pd ARGO;
#N canvas 77 120 492 363 ARGO 0;
#X obj 101 101 cnv 10 144 54 empty ColorForm empty 20 12 0 14 -228856
-1 1.04858e+06;
#X obj 101 101 cnv 4 10 4 empty empty empty 20 12 0 14 -128992 -66577
0;
#X obj 154 109 cnv 10 20 10 empty ColorForm GEM-Rotation 1 5 1 14 -228856
-1 1.04858e+06;
#X text 71 55 gemlist;
#X obj 101 151 cnv 4 10 4 empty empty empty 20 12 0 14 -128992 -66577
0;
#X text 83 156 gemlist;
#X obj 235 101 cnv 4 10 4 empty empty empty 20 12 0 14 -1 -66577 0
;
#X obj 115 120 hsl 129 12 0 1 0 1 \$0-A \$0-B empty 0 7 1 9 -262144
-1 -1 6400 0;
#X obj 115 132 hsl 129 12 0 1 0 1 \$0-A \$0-B empty 0 7 1 9 -262144
-1 -1 6400 0;
#X obj 115 144 hsl 129 12 0 1 0 1 \$0-A \$0-B empty 0 8 1 12 -262144
-1 -1 6400 0;
#X obj 249 78 inlet~;
#X obj 143 101 cnv 4 10 4 empty empty empty 20 12 0 14 -1 -66577 0
;
#X obj 191 101 cnv 4 10 4 empty empty empty 20 12 0 14 -1 -66577 0
;
#X obj 131 75 inlet~;
#X obj 183 76 inlet~;
#X text 131 47 Control;
#X text 187 47 Control;
#X text 246 48 Control;
#X text 141 58 X;
#X text 191 58 Y;
#X text 254 60 Z;
#X obj 75 340 outlet;
#X obj 75 320 rotateXYZ 0 0 0;
#X obj 77 74 inlet;
#X obj 249 227 snapshot~;
#X obj 249 249 change;
#X obj 176 227 snapshot~;
#X obj 176 249 change;
#X obj 104 230 snapshot~;
#X obj 104 252 change;
#X obj 16 175 t a b b b;
#X obj 115 120 hsl 129 12 0 1 0 0 \$0-A \$0-B 0 0 8 1 12 -228856 -1
-1 6619 0;
#X obj 104 276 * 360;
#X obj 104 297 - 180;
#N canvas 795 278 241 330 GEMRot~ 0;
#X msg 124 150 set \$1;
#X obj 15 51 +~;
#X obj 89 300 outlet;
#X obj 102 88 snapshot~;
#X obj 125 130 change;
#X obj 60 10 inlet;
#X obj 15 10 inlet~;
#X obj 17 299 outlet~;
#X obj 100 11 loadbang;
#X obj 101 51 metro 200;
#X obj 158 12 r SendFluid;
#X msg 60 189 label \$1;
#X obj 60 167 tosymbol;
#X obj 59 144 int;
#X obj 57 87 * 360;
#X obj 57 113 - 180;
#X connect 0 0 2 0;
#X connect 1 0 3 0;
#X connect 1 0 7 0;
#X connect 3 0 4 0;
#X connect 4 0 0 0;
#X connect 5 0 1 1;
#X connect 5 0 14 0;
#X connect 6 0 1 0;
#X connect 8 0 9 0;
#X connect 9 0 3 0;
#X connect 10 0 9 1;
#X connect 11 0 2 0;
#X connect 12 0 11 0;
#X connect 13 0 12 0;
#X connect 14 0 15 0;
#X connect 15 0 13 0;
#X restore 103 203 pd GEMRot~;
#N canvas 795 278 241 330 GEMRot~ 0;
#X msg 124 150 set \$1;
#X obj 15 51 +~;
#X obj 89 300 outlet;
#X obj 102 88 snapshot~;
#X obj 125 130 change;
#X obj 60 10 inlet;
#X obj 15 10 inlet~;
#X obj 17 299 outlet~;
#X obj 100 11 loadbang;
#X obj 101 51 metro 200;
#X obj 158 12 r SendFluid;
#X msg 60 189 label \$1;
#X obj 60 167 tosymbol;
#X obj 59 144 int;
#X obj 57 87 * 360;
#X obj 57 113 - 180;
#X connect 0 0 2 0;
#X connect 1 0 3 0;
#X connect 1 0 7 0;
#X connect 3 0 4 0;
#X connect 4 0 0 0;
#X connect 5 0 1 1;
#X connect 5 0 14 0;
#X connect 6 0 1 0;
#X connect 8 0 9 0;
#X connect 9 0 3 0;
#X connect 10 0 9 1;
#X connect 11 0 2 0;
#X connect 12 0 11 0;
#X connect 13 0 12 0;
#X connect 14 0 15 0;
#X connect 15 0 13 0;
#X restore 176 204 pd GEMRot~;
#X obj 115 132 hsl 129 12 0 1 0 0 \$0-A \$0-B 0 0 8 1 12 -228856 -1
-1 6455 0;
#X obj 176 274 * 360;
#X obj 175 294 - 180;
#X obj 249 278 * 360;
#X obj 248 298 - 180;
#N canvas 795 278 241 330 GEMRot~ 0;
#X msg 124 150 set \$1;
#X obj 15 51 +~;
#X obj 89 300 outlet;
#X obj 102 88 snapshot~;
#X obj 125 130 change;
#X obj 60 10 inlet;
#X obj 15 10 inlet~;
#X obj 17 299 outlet~;
#X obj 100 11 loadbang;
#X obj 101 51 metro 200;
#X obj 158 12 r SendFluid;
#X msg 60 189 label \$1;
#X obj 60 167 tosymbol;
#X obj 59 144 int;
#X obj 57 87 * 360;
#X obj 57 113 - 180;
#X connect 0 0 2 0;
#X connect 1 0 3 0;
#X connect 1 0 7 0;
#X connect 3 0 4 0;
#X connect 4 0 0 0;
#X connect 5 0 1 1;
#X connect 5 0 14 0;
#X connect 6 0 1 0;
#X connect 8 0 9 0;
#X connect 9 0 3 0;
#X connect 10 0 9 1;
#X connect 11 0 2 0;
#X connect 12 0 11 0;
#X connect 13 0 12 0;
#X connect 14 0 15 0;
#X connect 15 0 13 0;
#X restore 249 204 pd GEMRot~;
#X obj 115 144 hsl 129 12 0 1 0 0 \$0-A \$0-B 0 0 8 1 12 -228856 -1
-1 6498 0;
#X obj 102 120 cnv 5 5 5 empty ColorForm X 0 8 1 12 -228856 -1 1.04858e+06
;
#X obj 102 132 cnv 5 5 5 empty ColorForm Y 0 8 1 12 -228856 -1 1.04858e+06
;
#X text 255 132 2 HSLIDER superposés;
#X text 255 121 ATTENTION;
#X obj 154 15 cnv 15 41 30 empty empty empty 20 12 0 14 -24198 -66577
0;
#N canvas 350 196 381 103 ? 0;
#X obj 5 49 cnv 15 370 38 empty empty empty 20 12 0 14 -224896 -66577
0;
#X text 6 65 Voir/Look at: http://puredata.info/downloads;
#X obj 4 12 cnv 18 370 30 empty empty ARGOPdMiniModules 1 10 1 14 -4033
-1 1.04858e+06;
#X obj 7 31 cnv 10 10 10 empty empty Gerard 0 5 1 9 -4033 -1 1.04858e+06
;
#X obj 38 31 cnv 10 10 10 empty empty Paresys 0 5 1 9 -4033 -1 1.04858e+06
;
#X obj 175 20 cnv 10 10 10 empty empty http://pagesperso-orange.fr/Paresys/ARGOPd/
0 5 1 9 -4033 -1 1.04858e+06;
#X obj 175 31 cnv 10 10 10 empty empty http://gerard.paresys.free.fr/ARGOPd/
0 5 1 9 -4033 -1 1.04858e+06;
#X text 6 51 Construit sous / Build under Pd 0.41.4-extended;
#X restore 160 22 pd ?;
#X obj 80 14 cnv 15 60 30 empty empty empty 20 12 0 14 -24198 -66577
0;
#N canvas 312 59 421 380 Help 0;
#X obj 8 113 cnv 15 400 150 empty empty empty 20 12 0 14 -258113 -66577
0;
#X text 11 116 - Erreur dans la fenêtre Pd:;
#X obj 7 -95 cnv 15 400 200 empty empty empty 20 12 0 14 -233017 -66577
0;
#X text 10 -96 Citation;
#X text 20 -75 Description: rotation;
#X text 23 -60 rotate accepts a gemList and changes the current transformation
matrix by the specified rotation;
#X text 20 -26 the rotation around the X- \, Y- and Z-axis (in this
order) can be specified separately by arguments and changed via inlets.
;
#X restore 87 20 pd Help;
#X text 250 105 30 12 2009;
#X connect 7 0 34 1;
#X connect 8 0 35 1;
#X connect 9 0 41 1;
#X connect 10 0 41 0;
#X connect 13 0 34 0;
#X connect 14 0 35 0;
#X connect 22 0 21 0;
#X connect 23 0 30 0;
#X connect 24 0 25 0;
#X connect 25 0 39 0;
#X connect 26 0 27 0;
#X connect 27 0 37 0;
#X connect 28 0 29 0;
#X connect 29 0 32 0;
#X connect 30 0 22 0;
#X connect 30 1 28 0;
#X connect 30 2 26 0;
#X connect 30 3 24 0;
#X connect 32 0 33 0;
#X connect 33 0 22 1;
#X connect 34 0 28 0;
#X connect 34 1 31 0;
#X connect 35 0 26 0;
#X connect 35 1 36 0;
#X connect 37 0 38 0;
#X connect 38 0 22 2;
#X connect 39 0 40 0;
#X connect 40 0 22 3;
#X connect 41 0 24 0;
#X connect 41 1 42 0;
#X coords 0 -1 1 1 146 56 1 100 100;
#X restore 23 66 pd ARGO;
#N canvas 578 193 390 260 ARGO 0;
#X text 80 84 gemlist;
#X obj 93 203 pix_texture;
#X obj 95 -3 inlet;
#X obj 93 228 rectangle 5.325 4;
#X msg 71 172 quality \$1;
#X obj 270 147 tgl 15 0 empty empty empty 0 -6 0 8 -262144 -1 -1 0
1;
#X obj 271 106 tgl 15 0 empty empty empty 0 -6 0 8 -262144 -1 -1 0
1;
#X msg 270 170 client_storage \$1;
#X msg 271 125 repeat \$1;
#X msg 272 85 env \$1;
#X obj 273 65 hradio 15 1 0 6 empty empty empty 0 -6 0 8 -262144 -1
-1 0;
#X obj 136 20 select 0 1;
#X msg 152 68 0;
#X msg 110 68 set 0;
#X msg 47 112 set \$1;
#X obj 101 101 cnv 10 144 28 empty ColorForm empty 20 12 0 14 -228856
-1 1.04858e+06;
#X obj 101 101 cnv 4 10 4 empty empty empty 20 12 0 14 -128992 -66577
0;
#X obj 164 105 cnv 10 20 10 empty ColorForm GEM-Direct 1 5 1 14 -228856
-1 1.04858e+06;
#X obj 100 118 tgl 12 1 \$0-A ColorGEM Quality 15 6 1 9 -262144 -1
-1 1 1;
#X obj 100 106 tgl 12 1 \$0-A ColorGEM On/Off 15 6 1 9 -262144 -1 -1
1 1;
#X obj 159 173 int;
#X obj 136 -3 r \$0-SendOnOff;
#X obj 187 44 delay 1000;
#X obj 119 44 delay 1000;
#X obj 301 7 cnv 15 41 30 empty empty empty 20 12 0 14 -24198 -66577
0;
#N canvas 350 196 381 103 ? 0;
#X obj 5 49 cnv 15 370 38 empty empty empty 20 12 0 14 -224896 -66577
0;
#X text 6 65 Voir/Look at: http://puredata.info/downloads;
#X obj 4 12 cnv 18 370 30 empty empty ARGOPdMiniModules 1 10 1 14 -4033
-1 1.04858e+06;
#X obj 7 31 cnv 10 10 10 empty empty Gerard 0 5 1 9 -4033 -1 1.04858e+06
;
#X obj 38 31 cnv 10 10 10 empty empty Paresys 0 5 1 9 -4033 -1 1.04858e+06
;
#X obj 175 20 cnv 10 10 10 empty empty http://pagesperso-orange.fr/Paresys/ARGOPd/
0 5 1 9 -4033 -1 1.04858e+06;
#X obj 175 31 cnv 10 10 10 empty empty http://gerard.paresys.free.fr/ARGOPd/
0 5 1 9 -4033 -1 1.04858e+06;
#X text 6 51 Construit sous / Build under Pd 0.41.4-extended;
#X restore 307 14 pd ?;
#X obj 234 7 cnv 15 60 30 empty empty empty 20 12 0 14 -24198 -66577
0;
#N canvas 109 51 453 467 Help 0;
#X text 31 244 Utile avec certaines cartes video de certains PC sous
Windows...;
#X text 17 230 Toggle "Compatible":;
#X obj 12 276 cnv 15 400 150 empty empty empty 20 12 0 14 -258113 -66577
0;
#X text 15 279 - Erreur dans la fenêtre Pd:;
#X text 27 320 Solution: cocher Compatible;
#X text 27 332 Se produit avec certaines cartes video \, de certains
PC \, sous Windows...;
#X text 27 360 Inconvenient: Charge CPU => la texture est calculée
(objet pix_texture) par le processeur de l'ordinateur et pas par la
carte video);
#X text 27 297 GL: énumérant non valide (répété);
#X text 27 308 OpenGL: invalid enumérant (repeat);
#X obj 13 35 cnv 15 430 180 empty empty empty 20 12 0 14 -233017 -66577
0;
#X text 28 51 Description: apply texture mapping;
#X text 27 69 Send a quality message to change the quality of the texture
mapping. GL_LINEAR is better than GL_NEAREST (but also more computationally
expensive). However \, on many machines (especially SGIs) \, there
is no speed difference.;
#X text 26 128 [pix_texture] tries to use the fastest way to get a
pix onto a texture. This implies using "rectangle"-texturing if available.
This \, in turn \, can lead to some problems with several geos. Try
using "rectangle 0" if you experience problems. Rectangle textures
cannot be REPEATed (they are always clamped-to-edge);
#X text 17 35 Citation;
#X text 15 -1 Envoie l'entrée remplir la fenêtre GEM;
#X text 15 12 Send the input fill the GEM window;
#X text 4 -25 GEM-Direct;
#X text 19 217 Compatible = mode 0/1 = rectangle 0/1;
#X restore 241 13 pd Help;
#X msg 14 172 mode \$1;
#X obj 14 122 == 0;
#X obj 14 36 r SendMode;
#X obj 14 102 nbx 1 14 -1e+37 1e+37 0 1 empty empty empty 0 -6 0 10
-262144 -1 -1 0 256;
#X text 204 84 25 3 2010;
#X connect 1 0 3 0;
#X connect 2 0 1 0;
#X connect 4 0 1 0;
#X connect 5 0 7 0;
#X connect 6 0 8 0;
#X connect 7 0 1 0;
#X connect 8 0 1 0;
#X connect 9 0 1 0;
#X connect 10 0 9 0;
#X connect 11 0 23 0;
#X connect 11 1 22 0;
#X connect 12 0 1 0;
#X connect 13 0 19 0;
#X connect 14 0 19 0;
#X connect 18 0 4 0;
#X connect 19 0 20 0;
#X connect 20 0 1 0;
#X connect 20 0 14 0;
#X connect 21 0 11 0;
#X connect 22 0 20 0;
#X connect 23 0 12 0;
#X connect 23 0 13 0;
#X connect 28 0 1 0;
#X connect 29 0 28 0;
#X connect 30 0 31 0;
#X connect 31 0 29 0;
#X coords 0 -1 1 1 146 30 1 100 100;
#X restore 23 131 pd ARGO;
#X obj 35 -182 switch~;
#N canvas 608 166 228 173 ARGOnOff 0;
#X obj 100 100 tgl 18 1 \$0-SendOnOff \$0-ReceiveOnOff On/Off 20 11
1 14 -4033 -1 -1 1 1;
#X obj 99 10 loadbang;
#X msg 99 33 \; pd dsp 1;
#X obj 100 129 outlet;
#X text -50 99 Audio On/Off du patch ->;
#X text -22 45 Audio General On ->;
#X text 107 82 17 3 2010;
#X connect 0 0 3 0;
#X connect 1 0 2 0;
#X coords 0 -1 1 1 65 18 2 100 100;
#X restore 35 -200 pd ARGOnOff;
#X obj 295 124 cnv 15 41 30 empty empty empty 20 12 0 14 -24198 -66577
0;
#N canvas 350 196 381 103 ? 0;
#X obj 5 49 cnv 15 370 38 empty empty empty 20 12 0 14 -224896 -66577
0;
#X text 6 65 Voir/Look at: http://puredata.info/downloads;
#X obj 4 12 cnv 18 370 30 empty empty ARGOPdMiniModules 1 10 1 14 -4033
-1 1.04858e+06;
#X obj 7 31 cnv 10 10 10 empty empty Gerard 0 5 1 9 -4033 -1 1.04858e+06
;
#X obj 38 31 cnv 10 10 10 empty empty Paresys 0 5 1 9 -4033 -1 1.04858e+06
;
#X obj 175 20 cnv 10 10 10 empty empty http://pagesperso-orange.fr/Paresys/ARGOPd/
0 5 1 9 -4033 -1 1.04858e+06;
#X obj 175 31 cnv 10 10 10 empty empty http://gerard.paresys.free.fr/ARGOPd/
0 5 1 9 -4033 -1 1.04858e+06;
#X text 6 51 Construit sous / Build under Pd 0.41.4-extended;
#X restore 301 131 pd ?;
#N canvas 84 147 438 203 ARGO 0;
#X obj 92 143 osc~;
#X obj 101 101 cnv 20 244 34 empty ColorTime empty 20 12 0 14 -208064
-1 1.04858e+06;
#X obj 92 168 outlet~;
#X obj 100 106 nbx 7 12 0 20000 0 1 \$0-A ColorTime Hz 60 7 1 9 -208064
-1 -1 0.101393 256;
#X obj 194 104 cnv 10 65 10 empty ColorTime Oscill 1 5 1 14 -208064
-1 1.04858e+06;
#X obj 231 104 cnv 10 10 10 empty ColorTime Sinus 1 5 1 14 -208064
-1 1.04858e+06;
#X obj 87 26 inlet~;
#X obj 101 131 cnv 4 10 4 empty empty empty 20 12 0 14 -1 -66577 0
;
#X obj 101 101 cnv 4 10 4 empty empty empty 20 12 0 14 -1728 -66577
0;
#X obj 103 118 hsl 241 12 0 1 0 0 \$0-A ColorTime empty 0 7 1 9 -262144
-1 -1 3200 0;
#X obj 103 118 hsl 241 12 0 1 0 0 \$0-A ColorTime Ab-9 0 7 1 9 -208064
-1728 -1 3200 0;
#X text 228 147 2 HSLIDER superposés;
#X text 227 136 ATTENTION;
#X obj 366 103 cnv 15 41 30 empty empty empty 20 12 0 14 -24198 -66577
0;
#N canvas 350 196 381 103 ? 0;
#X obj 5 49 cnv 15 370 38 empty empty empty 20 12 0 14 -224896 -66577
0;
#X text 6 65 Voir/Look at: http://puredata.info/downloads;
#X obj 4 12 cnv 18 370 30 empty empty ARGOPdMiniModules 1 10 1 14 -4033
-1 1.04858e+06;
#X obj 7 31 cnv 10 10 10 empty empty Gerard 0 5 1 9 -4033 -1 1.04858e+06
;
#X obj 38 31 cnv 10 10 10 empty empty Paresys 0 5 1 9 -4033 -1 1.04858e+06
;
#X obj 175 20 cnv 10 10 10 empty empty http://pagesperso-orange.fr/Paresys/ARGOPd/
0 5 1 9 -4033 -1 1.04858e+06;
#X obj 175 31 cnv 10 10 10 empty empty http://gerard.paresys.free.fr/ARGOPd/
0 5 1 9 -4033 -1 1.04858e+06;
#X text 6 51 Construit sous / Build under Pd 0.41.4-extended;
#X restore 372 110 pd ?;
#X obj 364 60 cnv 15 60 30 empty empty empty 20 12 0 14 -24198 -66577
0;
#N canvas 161 113 425 238 Help 0;
#X obj 8 85 cnv 15 400 100 empty empty empty 20 12 0 14 -233017 -66577
0;
#X text 12 87 Citation;
#X text 10 45 Sensibilitée de l'entrée de contrôle de la fréquence:
;
#X text 10 57 1 = 240 1/2 ton = 20 octaves;
#X text 11 19 Oscillateur sinusoïdal;
#X text 22 106 The osc~ object outputs a cosine wave. If no argument
is supplied \, the input is taken to be an audio signal.;
#X restore 371 66 pd Help;
#N canvas 658 231 344 337 Freq-v7-sig- 0;
#X obj 226 11 ftom;
#X obj 279 170 mtof;
#X obj 141 95 +~;
#X obj 9 142 snapshot~;
#X obj 9 164 change;
#X msg 9 189 set \$1;
#X obj 142 198 clip~ 0 20000;
#X obj 142 175 mtof~;
#X obj 142 227 outlet~;
#X obj 280 -12 inlet;
#X obj 225 -13 inlet;
#X obj 38 227 outlet;
#X obj 279 227 outlet;
#X text 35 245 Hslider;
#X obj 141 -8 inlet~;
#X obj 8 -9 loadbang;
#X obj 229 227 outlet;
#X obj 279 109 * 240;
#X obj 279 132 - 108;
#X obj 141 123 *~ 240;
#X obj 141 145 -~ 108;
#X obj 226 34 + 108;
#X obj 226 56 / 240;
#X obj 9 40 metro 200;
#X obj 64 -9 r SendFluid;
#N canvas 618 373 489 317 pitchb 0;
#X obj 70 111 mod 12;
#X obj 70 135 sel 0 1 2 3 4 5 6 7 8 9 10 11;
#X msg 246 170 A;
#X msg 300 170 B;
#X msg 192 170 G;
#X msg 3 170 C;
#X msg 57 170 D;
#X msg 111 170 E;
#X msg 138 170 F;
#X obj 204 1 inlet;
#X obj 329 115 div 12;
#X obj 204 79 t f f;
#X text 334 190 -> Numero de l'octave;
#X text 213 64 -> Numero MIDI de la note (69 = A3 = 440Hz);
#X msg 260 260 label \$1;
#X obj 260 283 outlet;
#X msg 30 170 Db;
#X msg 84 170 Eb;
#X msg 165 170 Gb;
#X msg 219 170 Ab;
#X msg 273 170 Bb;
#X text 369 78 (70 = A#3 = Bb3);
#X obj 260 238 symbol;
#X obj 260 213 sprintf %s%d;
#X text 11 231 Impossible d'afficher # dans un label;
#X text 11 243 donc j'affiche b;
#X obj 204 51 int;
#X text 255 23 -> pour corriger certaines erreurs de calcul;
#X obj 204 25 + 120.1;
#X obj 329 144 - 12;
#X text 255 35 et le pb du passage a zero de mod 12;
#X connect 0 0 1 0;
#X connect 1 0 5 0;
#X connect 1 1 16 0;
#X connect 1 2 6 0;
#X connect 1 3 17 0;
#X connect 1 4 7 0;
#X connect 1 5 8 0;
#X connect 1 6 18 0;
#X connect 1 7 4 0;
#X connect 1 8 19 0;
#X connect 1 9 2 0;
#X connect 1 10 20 0;
#X connect 1 11 3 0;
#X connect 2 0 23 0;
#X connect 3 0 23 0;
#X connect 4 0 23 0;
#X connect 5 0 23 0;
#X connect 6 0 23 0;
#X connect 7 0 23 0;
#X connect 8 0 23 0;
#X connect 9 0 28 0;
#X connect 10 0 29 0;
#X connect 11 0 0 0;
#X connect 11 1 10 0;
#X connect 14 0 15 0;
#X connect 16 0 23 0;
#X connect 17 0 23 0;
#X connect 18 0 23 0;
#X connect 19 0 23 0;
#X connect 20 0 23 0;
#X connect 22 0 14 0;
#X connect 23 0 22 0;
#X connect 26 0 11 0;
#X connect 28 0 26 0;
#X connect 29 0 23 1;
#X restore 40 86 pd pitchb;
#X text 44 256 Over;
#X text 281 245 Number;
#X text 222 -30 Number;
#X text 228 244 Hslider;
#X text 230 255 Under;
#X text 281 -42 Hslider;
#X text 286 -31 Under;
#X msg 229 197 set \$1;
#X connect 0 0 21 0;
#X connect 0 0 25 0;
#X connect 1 0 12 0;
#X connect 2 0 3 0;
#X connect 2 0 19 0;
#X connect 3 0 4 0;
#X connect 4 0 5 0;
#X connect 5 0 11 0;
#X connect 6 0 8 0;
#X connect 7 0 6 0;
#X connect 9 0 17 0;
#X connect 10 0 0 0;
#X connect 14 0 2 0;
#X connect 15 0 23 0;
#X connect 17 0 18 0;
#X connect 18 0 1 0;
#X connect 19 0 20 0;
#X connect 20 0 7 0;
#X connect 21 0 22 0;
#X connect 22 0 2 1;
#X connect 22 0 33 0;
#X connect 23 0 3 0;
#X connect 24 0 23 1;
#X connect 25 0 11 0;
#X connect 33 0 16 0;
#X restore 62 63 pd Freq-v7-sig-;
#X text 282 80 29 11 2009;
#X connect 0 0 2 0;
#X connect 3 0 17 1;
#X connect 6 0 17 0;
#X connect 9 0 17 2;
#X connect 17 0 10 0;
#X connect 17 1 0 0;
#X connect 17 2 9 0;
#X connect 17 3 3 0;
#X coords 0 -1 1 1 246 36 1 100 100;
#X restore 121 -42 pd ARGO;
#N canvas 162 72 308 371 ARGO 0;
#X obj 101 101 cnv 20 104 34 empty ColorAmpli empty 20 12 0 14 -261299
-1 1.04858e+06;
#X obj 85 278 outlet~;
#X obj 134 104 cnv 10 20 10 empty ColorAmpli Ampli 1 5 1 14 -261299
-1 1.04858e+06;
#X obj 86 -69 inlet~;
#X obj 85 253 *~;
#X obj 103 118 hsl 101 12 0 1.25 0 1 \$0-A ColorAmpli -6dB 0 7 1 9
-261299 -1 -1 7400 0;
#X msg 134 75 label \$1;
#X obj 133 52 tosymbol;
#X obj 134 -47 * 80;
#X obj 134 -25 - 80;
#X obj 133 17 sprintf %ddB;
#X obj 101 101 cnv 4 10 4 empty empty empty 20 12 0 14 -1 -66577 0
;
#X obj 101 131 cnv 4 10 4 empty empty empty 20 12 0 14 -1 -66577 0
;
#X text 142 34 -> -80dB..20dB;
#X text 139 -2 -> -80 .. 20;
#X text 109 203 -> 1..100000;
#X text 109 237 -> 0.0001..10 = -80dB..20dB;
#X obj 20 103 cnv 15 41 30 empty empty empty 20 12 0 14 -24198 -66577
0;
#N canvas 363 389 381 103 ? 0;
#X obj 5 49 cnv 15 370 38 empty empty empty 20 12 0 14 -224896 -66577
0;
#X text 6 65 Voir/Look at: http://puredata.info/downloads;
#X obj 4 12 cnv 18 370 30 empty empty ARGOPdMiniModules 1 10 1 14 -4033
-1 1.04858e+06;
#X obj 7 31 cnv 10 10 10 empty empty Gerard 0 5 1 9 -4033 -1 1.04858e+06
;
#X obj 38 31 cnv 10 10 10 empty empty Paresys 0 5 1 9 -4033 -1 1.04858e+06
;
#X obj 175 20 cnv 10 10 10 empty empty http://pagesperso-orange.fr/Paresys/ARGOPd/
0 5 1 9 -4033 -1 1.04858e+06;
#X obj 175 31 cnv 10 10 10 empty empty http://gerard.paresys.free.fr/ARGOPd/
0 5 1 9 -4033 -1 1.04858e+06;
#X text 6 51 Construit sous / Build under Pd 0.41.4-extended;
#X restore 26 110 pd ?;
#X obj 100 143 t b f;
#X msg 100 166 10000;
#X obj 100 189 pow;
#X obj 100 221 / 10000;
#X text 209 97 13 3 2010;
#X text 142 153 -> 0 .. 1.2;
#X connect 3 0 4 0;
#X connect 4 0 1 0;
#X connect 5 0 8 0;
#X connect 5 0 19 0;
#X connect 6 0 5 0;
#X connect 7 0 6 0;
#X connect 8 0 9 0;
#X connect 9 0 10 0;
#X connect 10 0 7 0;
#X connect 19 0 20 0;
#X connect 19 1 21 1;
#X connect 20 0 21 0;
#X connect 21 0 22 0;
#X connect 22 0 4 1;
#X coords 0 -1 1 1 106 36 1 100 100;
#X restore 36 9 pd ARGO;
#N canvas 162 72 308 371 ARGO 0;
#X obj 101 101 cnv 20 104 34 empty ColorAmpli empty 20 12 0 14 -261299
-1 1.04858e+06;
#X obj 85 278 outlet~;
#X obj 134 104 cnv 10 20 10 empty ColorAmpli Ampli 1 5 1 14 -261299
-1 1.04858e+06;
#X obj 86 -69 inlet~;
#X obj 85 253 *~;
#X obj 103 118 hsl 101 12 0 1.25 0 1 \$0-A ColorAmpli -18dB 0 7 1 9
-261299 -1 -1 6200 0;
#X msg 134 75 label \$1;
#X obj 133 52 tosymbol;
#X obj 134 -47 * 80;
#X obj 134 -25 - 80;
#X obj 133 17 sprintf %ddB;
#X obj 101 101 cnv 4 10 4 empty empty empty 20 12 0 14 -1 -66577 0
;
#X obj 101 131 cnv 4 10 4 empty empty empty 20 12 0 14 -1 -66577 0
;
#X text 142 34 -> -80dB..20dB;
#X text 139 -2 -> -80 .. 20;
#X text 109 203 -> 1..100000;
#X text 109 237 -> 0.0001..10 = -80dB..20dB;
#X obj 20 103 cnv 15 41 30 empty empty empty 20 12 0 14 -24198 -66577
0;
#N canvas 363 389 381 103 ? 0;
#X obj 5 49 cnv 15 370 38 empty empty empty 20 12 0 14 -224896 -66577
0;
#X text 6 65 Voir/Look at: http://puredata.info/downloads;
#X obj 4 12 cnv 18 370 30 empty empty ARGOPdMiniModules 1 10 1 14 -4033
-1 1.04858e+06;
#X obj 7 31 cnv 10 10 10 empty empty Gerard 0 5 1 9 -4033 -1 1.04858e+06
;
#X obj 38 31 cnv 10 10 10 empty empty Paresys 0 5 1 9 -4033 -1 1.04858e+06
;
#X obj 175 20 cnv 10 10 10 empty empty http://pagesperso-orange.fr/Paresys/ARGOPd/
0 5 1 9 -4033 -1 1.04858e+06;
#X obj 175 31 cnv 10 10 10 empty empty http://gerard.paresys.free.fr/ARGOPd/
0 5 1 9 -4033 -1 1.04858e+06;
#X text 6 51 Construit sous / Build under Pd 0.41.4-extended;
#X restore 26 110 pd ?;
#X obj 100 143 t b f;
#X msg 100 166 10000;
#X obj 100 189 pow;
#X obj 100 221 / 10000;
#X text 209 97 13 3 2010;
#X text 142 153 -> 0 .. 1.2;
#X connect 3 0 4 0;
#X connect 4 0 1 0;
#X connect 5 0 8 0;
#X connect 5 0 19 0;
#X connect 6 0 5 0;
#X connect 7 0 6 0;
#X connect 8 0 9 0;
#X connect 9 0 10 0;
#X connect 10 0 7 0;
#X connect 19 0 20 0;
#X connect 19 1 21 1;
#X connect 20 0 21 0;
#X connect 21 0 22 0;
#X connect 22 0 4 1;
#X coords 0 -1 1 1 106 36 1 100 100;
#X restore 149 9 pd ARGO;
#N canvas 162 72 308 371 ARGO 0;
#X obj 101 101 cnv 20 104 34 empty ColorAmpli empty 20 12 0 14 -261299
-1 1.04858e+06;
#X obj 85 278 outlet~;
#X obj 134 104 cnv 10 20 10 empty ColorAmpli Ampli 1 5 1 14 -261299
-1 1.04858e+06;
#X obj 86 -69 inlet~;
#X obj 85 253 *~;
#X obj 103 118 hsl 101 12 0 1.25 0 1 \$0-A ColorAmpli -13dB 0 7 1 9
-261299 -1 -1 6700 0;
#X msg 134 75 label \$1;
#X obj 133 52 tosymbol;
#X obj 134 -47 * 80;
#X obj 134 -25 - 80;
#X obj 133 17 sprintf %ddB;
#X obj 101 101 cnv 4 10 4 empty empty empty 20 12 0 14 -1 -66577 0
;
#X obj 101 131 cnv 4 10 4 empty empty empty 20 12 0 14 -1 -66577 0
;
#X text 142 34 -> -80dB..20dB;
#X text 139 -2 -> -80 .. 20;
#X text 109 203 -> 1..100000;
#X text 109 237 -> 0.0001..10 = -80dB..20dB;
#X obj 20 103 cnv 15 41 30 empty empty empty 20 12 0 14 -24198 -66577
0;
#N canvas 363 389 381 103 ? 0;
#X obj 5 49 cnv 15 370 38 empty empty empty 20 12 0 14 -224896 -66577
0;
#X text 6 65 Voir/Look at: http://puredata.info/downloads;
#X obj 4 12 cnv 18 370 30 empty empty ARGOPdMiniModules 1 10 1 14 -4033
-1 1.04858e+06;
#X obj 7 31 cnv 10 10 10 empty empty Gerard 0 5 1 9 -4033 -1 1.04858e+06
;
#X obj 38 31 cnv 10 10 10 empty empty Paresys 0 5 1 9 -4033 -1 1.04858e+06
;
#X obj 175 20 cnv 10 10 10 empty empty http://pagesperso-orange.fr/Paresys/ARGOPd/
0 5 1 9 -4033 -1 1.04858e+06;
#X obj 175 31 cnv 10 10 10 empty empty http://gerard.paresys.free.fr/ARGOPd/
0 5 1 9 -4033 -1 1.04858e+06;
#X text 6 51 Construit sous / Build under Pd 0.41.4-extended;
#X restore 26 110 pd ?;
#X obj 100 143 t b f;
#X msg 100 166 10000;
#X obj 100 189 pow;
#X obj 100 221 / 10000;
#X text 209 97 13 3 2010;
#X text 142 153 -> 0 .. 1.2;
#X connect 3 0 4 0;
#X connect 4 0 1 0;
#X connect 5 0 8 0;
#X connect 5 0 19 0;
#X connect 6 0 5 0;
#X connect 7 0 6 0;
#X connect 8 0 9 0;
#X connect 9 0 10 0;
#X connect 10 0 7 0;
#X connect 19 0 20 0;
#X connect 19 1 21 1;
#X connect 20 0 21 0;
#X connect 21 0 22 0;
#X connect 22 0 4 1;
#X coords 0 -1 1 1 106 36 1 100 100;
#X restore 261 9 pd ARGO;
#N canvas 172 135 895 484 ARGO 0;
#X obj 174 16 cnv 15 41 30 empty empty empty 20 12 0 14 -24198 -66577
0;
#N canvas 350 196 381 103 ? 0;
#X obj 5 49 cnv 15 370 38 empty empty empty 20 12 0 14 -224896 -66577
0;
#X text 6 65 Voir/Look at: http://puredata.info/downloads;
#X obj 4 12 cnv 18 370 30 empty empty ARGOPdMiniModules 1 10 1 14 -4033
-1 1.04858e+06;
#X obj 7 31 cnv 10 10 10 empty empty Gerard 0 5 1 9 -4033 -1 1.04858e+06
;
#X obj 38 31 cnv 10 10 10 empty empty Paresys 0 5 1 9 -4033 -1 1.04858e+06
;
#X obj 175 20 cnv 10 10 10 empty empty http://pagesperso-orange.fr/Paresys/ARGOPd/
0 5 1 9 -4033 -1 1.04858e+06;
#X obj 175 31 cnv 10 10 10 empty empty http://gerard.paresys.free.fr/ARGOPd/
0 5 1 9 -4033 -1 1.04858e+06;
#X text 6 51 Construit sous / Build under Pd 0.41.4-extended;
#X restore 180 23 pd ?;
#X obj 12 14 cnv 15 60 30 empty empty empty 20 12 0 14 -24198 -66577
0;
#N canvas 430 84 426 561 Help 0;
#X obj 11 525 cnv 15 400 190 empty empty empty 20 12 0 14 -258113 -66577
0;
#X text 144 129 f ou F -> FullScreen On/Off;
#X text 144 156 l ou L -> Light On/Off;
#X text 144 142 g ou G -> GEM On/Off;
#X text 9 5 - GEM On ouvre une fenetre 400 x 300 pixels;
#X text 11 304 - Screen2 ne fonctionne pas sous Windows avec certaines
cartes video;
#X text 11 276 - FullScreen ne fonctionne pas sous Windows avec certaines
cartes video;
#X obj 12 30 cnv 15 380 90 empty empty empty 20 12 0 14 -233017 -66577
0;
#X text 17 28 Citation;
#X text 16 41 "GEM is the Graphics Environment for Multimedia. It was
originally written by Mark Danks to generate real-time computer graphics
\, especially for audio-visual compositions.";
#X text 16 91 "GEM is a collection of externals which allow the user
to create OpenGL graphics within Pd";
#X text 11 247 - Screen2 -> en "FullScreen" dirige l'écran GEM sur
un 2e moniteur;
#X text 14 531 Impossible de supprimer la barre de menu sous MacOSX.5
+ Pd-0.41.4-extended;
#X text 14 557 Pas de probleme sous MacOSX.4 + Pd-0.41.4-extended;
#X text 26 613 Solution: Quitter Pd et relancer;
#X text 11 128 - Raccourcis clavier:;
#X text 11 199 - En "FullScreen" taper F ou Pomme + Tab sous MacOSX...
;
#X text 119 212 taper F ou Alt + Tab sous Windows...;
#X text 119 224 taper F ou Alt + F4 sous Linux...;
#X text 15 574 - Problème Windows: Quand on sort de fullscreen le dessin
des objets dans les patches est buggé (taille du texte \, HSlider décalés...)
;
#X text 27 625 Vu avec carte Matrox + Windows XP SP2 + Pd-0.41.4-extended
;
#X text 19 682 Solution: cocher Compatible;
#X text 36 470 Inconvenient: Charge CPU => la texture est calculée
(objet pix_texture) par le processeur de l'ordinateur et pas par la
carte video);
#X text 19 659 GL: énumérant non valide (répété);
#X text 19 670 OpenGL: invalid enumérant (repeat);
#X text 15 645 - Erreur dans la fenêtre Pd:;
#X text 12 418 Il faut cocher compatible avec certaines cartes video
\, de certains PC \, sous Windows...;
#X text 13 444 Compatible Off -> mode 1: TEXTURE_RECTANGLE;
#X text 13 456 Compatible On -> mode 0: TEXTURE_2D;
#X text 11 334 - Fog / Brouillard;
#X text 28 349 - fogmode = 0/1/2/3 = OFF/LINEAR/EXP/EXP^2;
#X text 28 362 - fog density;
#X text 28 374 - color of the fog;
#X text 11 392 - Compatible envoie le message 1 ou 0 à tous les objets
pix_texture des autres modules;
#X text 108 169 Echap ou Esc -> FullScreen Off;
#X restore 19 20 pd Help;
#X obj 101 101 cnv 22 183 98 empty empty GEM 5 12 1 18 -1 -262144 1.04858e+06
;
#X obj 103 139 tgl 12 1 \$0-A \$0-ColorGEM (F)ullScreen 15 6 1 9 -24198
-1 -24198 0 1;
#X obj 103 124 tgl 12 1 \$0-A \$0-ColorGEM (G)EM 15 6 1 9 -24198 -1
-24198 1 1;
#X obj 103 154 tgl 12 1 \$0-A \$0-ColorGEM (L)ight 15 6 1 9 -24198
-1 -24198 1 1;
#X obj 191 105 nbx 2 12 1 30 0 1 \$0-A \$0-ColorGEM Frames/sec 26 6
1 9 -24198 -1 -24198 10 256;
#X obj 191 154 nbx 3 12 0 100 0 1 \$0-A \$0-ColorGEM BackGround 33
6 1 9 -24198 -1 -24198 0 256;
#X obj 191 139 tgl 12 1 \$0-A \$0-ColorGEM Screen2 15 6 1 9 -24198
-1 -24198 0 1;
#X obj 103 169 bng 12 250 50 0 \$0-A \$0-ColorGEM Info 15 6 1 9 -24198
-1 -24198;
#X obj 191 169 tgl 12 1 \$0-A \$0-ColorGEM KeyShortCut 15 6 1 9 -24198
-1 -24198 0 1;
#X obj -17 13 key;
#X msg 266 401 create;
#X msg 519 402 destroy;
#X msg 475 402 reset;
#X msg 377 401 fullscreen \$1;
#X msg 577 402 0;
#X obj 265 462 gemwin;
#X obj 532 375 t b b;
#X obj 297 254 sel 1;
#X msg 370 251 set \$1;
#X msg 334 353 0;
#X obj 309 207 t b f;
#X msg 253 208 set \$1;
#X msg 296 234 1;
#X msg 190 401 lighting \$1;
#X msg 313 401 frame \$1;
#X msg 203 240 set \$1;
#X msg 313 378 10;
#X obj 305 112 change;
#X obj 305 137 t b f;
#X obj 190 356 f;
#X obj 567 306 t b b;
#X obj 520 348 delay 200;
#X msg 474 306 dimen 400 300;
#X msg 436 161 shininess \$1;
#X obj 435 142 nbx 5 14 -1e+37 1e+37 0 0 empty empty empty 0 -6 0 10
-262144 -1 -1 0 256;
#X msg 113 377 color \$1 \$1 \$1;
#X msg 432 86 ambient \$1 \$1 \$1;
#X msg 435 123 specular \$1 \$1 \$1;
#X obj 435 106 nbx 5 14 -1e+37 1e+37 0 0 empty empty empty 0 -6 0 10
-262144 -1 -1 0 256;
#X obj 432 67 nbx 5 14 -1e+37 1e+37 0 0 empty empty empty 0 -6 0 10
-262144 -1 -1 0 256;
#X obj 113 356 / 100;
#X msg 160 401 1;
#X obj 244 280 t b b b b b b b b b b b;
#X obj 114 400 spigot;
#X obj -17 55 spigot;
#X obj 267 18 MouseState;
#X obj 267 42 sel 0;
#X obj 305 90 i;
#X obj 378 171 t b f;
#X obj 377 378 * 2;
#X obj 404 211 + 1;
#X obj 298 305 delay 400;
#X obj 134 328 t b b b b;
#X text 141 296 delay sinon ne marche pas;
#X text 141 307 en Pd-0.39.2-extended-RC1;
#X text -98 217 en Pd-0.38.4-extended;
#X obj -149 14 gemkeyname;
#X obj -56 190 delay 300;
#X obj -30 165 delay 300;
#X obj 1 144 delay 300;
#X obj 599 242 select 0 1;
#X obj 296 171 t b f f f;
#X text -99 207 delay sinon Pd plante;
#X obj 374 352 spigot;
#X obj 428 352 spigot;
#X obj 461 261 == 0;
#X msg 610 290 color 16 22 16;
#X msg 599 267 color 0 22 0;
#X obj -17 78 select 65 97 70 102 76 108 71 103 66 98;
#X obj -94 120 sel a A f F g G l L b B;
#X obj 104 15 r SendGEM;
#X msg 72 401 print;
#X obj 607 455 s \$0-ColorGEM;
#X text 490 65 ambient lighting color;
#X text 495 104 specular lighting color;
#X obj 103 184 hradio 12 1 1 4 \$0-A \$0-ColorGEM empty 51 6 1 9 -24198
-1 -24198 0;
#X msg -158 402 fogmode \$1;
#X obj 151 184 nbx 3 12 0 300 0 1 \$0-A \$0-ColorGEM empty 33 6 1 9
-24198 -1 -24198 0 256;
#X msg -87 402 fog \$1;
#X obj -87 374 / 100;
#X msg -40 402 fogcolor \$1 \$1 \$1;
#X obj 181 184 nbx 3 12 0 300 0 1 \$0-A \$0-ColorGEM Fog 33 6 1 9 -24198
-1 -24198 0 256;
#X obj -40 373 / 100;
#X msg 373 307 dimen 1024 768;
#X obj 527 161 operating_system;
#X obj 527 182 select linux macos;
#X msg 388 329 menubar 0;
#X msg 458 328 menubar 1;
#X text 340 17 Pour fullscreen: barmenu et border sont finalement inutiles
sous Linux \, Windows \, MacOSX.4 et ne fonctionnent pas sous MacOSX.5
;
#X msg -55 272 view 0 0 4;
#X obj -114 256 nbx 5 14 -1e+37 1e+37 0 0 empty empty empty 0 -8 0
10 -262144 -1 -1 0 256;
#X msg -133 291 view 1 1 \$1;
#X obj 191 124 tgl 12 1 SendMode \$0-ColorGEM Compatible 15 6 1 9 -24198
-1 -24198 0 1;
#X obj -83 56 select 27;
#X msg -84 79 0;
#X text -176 48 Pour sortir ->;
#X text -189 59 de fullscreen;
#X text -171 69 sous Linux;
#X text -158 80 avec Esc;
#X text 230 80 22 3 2010;
#X connect 5 0 24 0;
#X connect 6 0 65 0;
#X connect 7 0 33 0;
#X connect 8 0 51 1;
#X connect 9 0 44 0;
#X connect 10 0 52 0;
#X connect 11 0 75 0;
#X connect 12 0 48 1;
#X connect 13 0 48 0;
#X connect 13 0 97 0;
#X connect 14 0 19 0;
#X connect 15 0 19 0;
#X connect 16 0 19 0;
#X connect 17 0 19 0;
#X connect 18 0 19 0;
#X connect 20 0 15 0;
#X connect 20 1 18 0;
#X connect 21 0 46 0;
#X connect 21 1 34 0;
#X connect 22 0 23 0;
#X connect 23 0 53 0;
#X connect 24 0 26 0;
#X connect 24 1 22 0;
#X connect 24 1 67 1;
#X connect 24 1 69 0;
#X connect 25 0 26 0;
#X connect 26 0 21 0;
#X connect 27 0 19 0;
#X connect 28 0 19 0;
#X connect 29 0 30 0;
#X connect 30 0 28 0;
#X connect 31 0 32 0;
#X connect 32 0 26 0;
#X connect 32 1 29 0;
#X connect 33 0 27 0;
#X connect 34 0 35 0;
#X connect 34 1 18 0;
#X connect 35 0 15 0;
#X connect 36 0 68 0;
#X connect 37 0 19 0;
#X connect 38 0 37 0;
#X connect 39 0 47 0;
#X connect 40 0 19 0;
#X connect 41 0 19 0;
#X connect 42 0 41 0;
#X connect 43 0 40 0;
#X connect 44 0 39 0;
#X connect 45 0 19 0;
#X connect 46 4 55 0;
#X connect 46 5 30 0;
#X connect 46 7 23 0;
#X connect 46 8 36 0;
#X connect 46 8 88 0;
#X connect 46 9 16 0;
#X connect 46 10 20 0;
#X connect 47 0 19 0;
#X connect 48 0 72 0;
#X connect 49 0 50 0;
#X connect 50 0 51 0;
#X connect 51 0 31 0;
#X connect 52 0 26 0;
#X connect 52 1 54 0;
#X connect 53 0 17 0;
#X connect 54 0 53 1;
#X connect 55 0 56 0;
#X connect 56 0 44 0;
#X connect 56 0 79 0;
#X connect 56 0 83 0;
#X connect 56 0 86 0;
#X connect 56 1 45 0;
#X connect 56 2 33 0;
#X connect 56 3 14 0;
#X connect 60 1 73 0;
#X connect 61 0 5 0;
#X connect 62 0 6 0;
#X connect 63 0 7 0;
#X connect 64 0 71 0;
#X connect 64 1 70 0;
#X connect 65 0 26 0;
#X connect 65 1 25 0;
#X connect 65 2 47 1;
#X connect 65 3 64 0;
#X connect 67 0 19 0;
#X connect 68 0 19 0;
#X connect 69 0 68 1;
#X connect 70 0 76 0;
#X connect 71 0 76 0;
#X connect 72 2 5 0;
#X connect 72 3 5 0;
#X connect 72 4 7 0;
#X connect 72 5 7 0;
#X connect 72 6 6 0;
#X connect 72 7 6 0;
#X connect 73 2 61 0;
#X connect 73 3 61 0;
#X connect 73 4 62 0;
#X connect 73 5 62 0;
#X connect 73 6 63 0;
#X connect 73 7 63 0;
#X connect 74 0 6 0;
#X connect 75 0 19 0;
#X connect 79 0 80 0;
#X connect 80 0 19 0;
#X connect 81 0 83 0;
#X connect 82 0 19 0;
#X connect 83 0 82 0;
#X connect 84 0 19 0;
#X connect 85 0 86 0;
#X connect 86 0 84 0;
#X connect 87 0 67 0;
#X connect 88 0 89 0;
#X connect 89 0 87 0;
#X connect 89 1 87 0;
#X connect 89 1 90 0;
#X connect 89 1 91 0;
#X connect 90 0 67 0;
#X connect 91 0 68 0;
#X connect 93 0 19 0;
#X connect 94 0 95 0;
#X connect 95 0 19 0;
#X connect 97 0 98 0;
#X connect 98 0 5 0;
#X coords 0 -1 1 1 185 100 1 100 100;
#X restore 216 -237 pd ARGO;
#N canvas 519 330 349 254 ARGO 0;
#X obj 101 101 cnv 10 183 24 empty ColorForm empty 20 12 0 14 -228856
-1 1.04858e+06;
#X obj 175 139 / 100;
#X msg 10 137 label \$1;
#X obj 9 114 tosymbol;
#X obj 8 67 int;
#X obj 9 91 change;
#X obj 282 21 cnv 15 60 30 empty empty empty 20 12 0 14 -24198 -66577
0;
#N canvas 317 40 429 458 Help 0;
#X obj 12 -3 cnv 15 400 200 empty empty empty 20 12 0 14 -233017 -66577
0;
#X text 15 -4 Citation;
#X obj 12 204 cnv 15 400 200 empty empty empty 20 12 0 14 -258113 -66577
0;
#X text 16 204 - Erreur dans la fenêtre Pd:;
#X text 28 103 The second inlet sets the color of the light-source.
;
#X text 29 20 [world_light] produces a light which is at an infinite
distance from the scene. This means that all of the light rays are
parallel \, which reduces the computation somewhat.;
#X text 27 69 You can adjust the light with [rotate]. If you are lost
use "debug" to display the light source as a small cone.;
#X text 12 -23 GEM-WorldLight;
#X restore 289 27 pd Help;
#X obj 232 22 cnv 15 41 30 empty empty empty 20 12 0 14 -24198 -66577
0;
#N canvas 350 196 381 103 ? 0;
#X obj 5 49 cnv 15 370 38 empty empty empty 20 12 0 14 -224896 -66577
0;
#X text 6 65 Voir/Look at: http://puredata.info/downloads;
#X obj 4 12 cnv 18 370 30 empty empty ARGOPdMiniModules 1 10 1 14 -4033
-1 1.04858e+06;
#X obj 7 31 cnv 10 10 10 empty empty Gerard 0 5 1 9 -4033 -1 1.04858e+06
;
#X obj 38 31 cnv 10 10 10 empty empty Paresys 0 5 1 9 -4033 -1 1.04858e+06
;
#X obj 175 20 cnv 10 10 10 empty empty http://pagesperso-orange.fr/Paresys/ARGOPd/
0 5 1 9 -4033 -1 1.04858e+06;
#X obj 175 31 cnv 10 10 10 empty empty http://gerard.paresys.free.fr/ARGOPd/
0 5 1 9 -4033 -1 1.04858e+06;
#X text 6 51 Construit sous / Build under Pd 0.41.4-extended;
#X restore 238 29 pd ?;
#X obj 177 104 cnv 10 20 10 empty ColorGEM GEM-WorldLight 1 5 1 14
-228856 -1 1.04858e+06;
#X obj 104 114 hsl 129 12 0 300 0 1 \$0-A ColorGEM 79 0 7 1 9 -228856
-1 -1 3400 0;
#X obj 113 101 nbx 3 12 1 100 0 1 \$0-A \$0-B Render 33 7 1 9 -262144
-1 -1 47 256;
#X obj 124 191 gemhead;
#X msg 124 139 set \$1;
#X obj 101 101 tgl 12 1 \$0-A ColorGEM empty 15 6 1 9 -262144 -1 -1
1 1;
#X obj 111 226 world_light;
#X obj 58 165 pipe 500;
#X text 87 83 On/Off;
#X obj 98 10 r \$0-SendOnOff;
#X obj 99 36 sel 0;
#X msg 100 61 0;
#X obj 74 139 t f f;
#X msg 175 161 \$1 \$1 \$1;
#X msg 184 191 debug \$1;
#X obj 260 138 nbx 5 14 -1e+37 1e+37 0 0 empty empty empty 0 -8 0 10
-262144 -1 -1 0 256;
#X obj 240 114 tgl 12 1 \$0-A \$0-B Source 15 7 1 9 -262144 -1 -1 0
1;
#X text 195 82 7 1 2010;
#X connect 1 0 23 0;
#X connect 2 0 11 0;
#X connect 3 0 2 0;
#X connect 4 0 5 0;
#X connect 5 0 3 0;
#X connect 11 0 1 0;
#X connect 11 0 4 0;
#X connect 12 0 14 0;
#X connect 13 0 16 0;
#X connect 14 0 13 0;
#X connect 15 0 22 0;
#X connect 17 0 13 0;
#X connect 19 0 20 0;
#X connect 20 0 21 0;
#X connect 21 0 15 0;
#X connect 22 0 17 0;
#X connect 22 1 16 0;
#X connect 23 0 16 1;
#X connect 24 0 16 0;
#X connect 25 0 23 0;
#X connect 26 0 24 0;
#X coords 0 -1 1 1 185 26 1 100 100;
#X restore 137 -126 pd ARGO;
#X text 122 -187 Light on/Off ->;
#X text 41 -130 Light on/Off ->;
#X connect 1 0 2 0;
#X connect 2 0 3 0;
#X connect 5 0 4 0;
#X connect 8 0 9 0;
#X connect 8 0 10 0;
#X connect 8 0 11 0;
#X connect 9 0 2 1;
#X connect 10 0 2 2;
#X connect 11 0 2 3;
