#N canvas 353 22 680 607 10;
#X obj 8 -193 cnv 15 15 15 empty empty ExMM21b-FFTVocoder-Reverse.pd
0 8 1 14 -262144 -66577 0;
#X text 269 366 the 2 inputs "Signal to be filtered" and "Signal to
be analyzed" are reversed: the vocoder becomes a filter.;
#X text 270 353 Compared to "ExMM21a-FFTVocoder.pd":;
#X text 227 306 Par rapport à "ExMM21a-FFTVocoder.pd":;
#X text 227 318 les 2 entrées "Signal à filtrer" et "Signal à analyser"
sont inversées: le vocoder devient un filtre.;
#X text 22 -3 Changer la hauteur ->;
#X text 58 7 Change pitch ->;
#X text 22 82 Mix Oscill / Noise ->;
#N canvas 678 30 375 375 ARGO 0;
#X obj 101 101 cnv 20 244 34 empty ColorTime empty 20 12 0 14 -208064
-1 1.04858e+06;
#X obj 110 341 outlet~;
#X obj 194 104 cnv 10 65 10 empty ColorTime Oscill 1 5 1 14 -208064
-1 1.04858e+06;
#X obj 231 104 cnv 10 10 10 empty ColorTime Tri/Rectangle 1 5 1 14
-208064 -1 1.04858e+06;
#X obj 101 131 cnv 4 10 4 empty empty empty 20 12 0 14 -1 -66577 0
;
#X obj 101 101 cnv 4 10 4 empty empty empty 20 12 0 14 -1728 -66577
0;
#X obj 163 341 outlet~;
#X obj 335 131 cnv 4 10 4 empty empty empty 0 0 0 9 -1 -66577 0;
#X obj 92 154 phasor~;
#X obj 167 187 -~ 0.5;
#X obj 251 237 -~ 0.5;
#X obj 256 267 *~;
#X obj 268 292 +~ 0.125;
#X obj 217 341 outlet~;
#X obj 251 215 expr~ $v1 < 0;
#X obj 110 316 *~ 2;
#X obj 164 315 *~ -2;
#X obj 218 316 *~ 2;
#X obj 268 316 *~ 8;
#X obj 268 341 outlet~;
#X obj 256 131 cnv 4 10 4 empty empty empty 0 0 0 9 -1 -66577 0;
#X obj 177 131 cnv 4 10 4 empty empty empty 0 0 0 9 -1 -66577 0;
#X text 84 134 Ramp up;
#X text 155 135 Ramp down;
#X text 233 136 Rectangle;
#X text 313 136 Triangle;
#X obj 100 106 nbx 7 12 0 20000 0 1 \$0-A ColorTime Hz 60 7 1 9 -208064
-1 -1 207.652 256;
#X obj 87 26 inlet~;
#X obj 103 118 hsl 241 12 0 1 0 0 \$0-A ColorTime empty 0 7 1 9 -262144
-1 -1 16400 0;
#X obj 103 118 hsl 241 12 0 1 0 0 \$0-A ColorTime Ab2 0 7 1 9 -208064
-1728 -1 16400 0;
#X obj 72 236 cnv 15 41 30 empty empty empty 20 12 0 14 -24198 -66577
0;
#N canvas 350 196 381 103 ? 0;
#X obj 5 49 cnv 15 370 38 empty empty empty 20 12 0 14 -224896 -66577
0;
#X text 6 65 Voir/Look at: http://puredata.info/downloads;
#X obj 4 12 cnv 18 370 30 empty empty ARGOPdMiniModules 1 10 1 14 -4033
-1 1.04858e+06;
#X obj 7 31 cnv 10 10 10 empty empty Gerard 0 5 1 9 -4033 -1 1.04858e+06
;
#X obj 38 31 cnv 10 10 10 empty empty Paresys 0 5 1 9 -4033 -1 1.04858e+06
;
#X obj 175 20 cnv 10 10 10 empty empty http://pagesperso-orange.fr/Paresys/ARGOPd/
0 5 1 9 -4033 -1 1.04858e+06;
#X obj 175 31 cnv 10 10 10 empty empty http://gerard.paresys.free.fr/ARGOPd/
0 5 1 9 -4033 -1 1.04858e+06;
#X text 6 51 Construit sous / Build under Pd 0.41.4-extended;
#X restore 78 243 pd ?;
#X obj 70 193 cnv 15 60 30 empty empty empty 20 12 0 14 -24198 -66577
0;
#N canvas 161 113 425 238 Help 0;
#X obj 8 85 cnv 15 400 100 empty empty empty 20 12 0 14 -233017 -66577
0;
#X text 12 87 Citation;
#X text 10 45 Sensibilitée de l'entrée de contrôle de la fréquence:
;
#X text 10 57 1 = 240 1/2 ton = 20 octaves;
#X text 11 19 Oscillateur sinusoïdal;
#X text 21 103 The phasor~ object outputs a sawtooth signal...;
#X restore 77 199 pd Help;
#X text 196 62 2 HSLIDER superposés;
#X text 220 51 ATTENTION;
#N canvas 686 258 344 337 Freq-v7-sig- 0;
#X obj 226 11 ftom;
#X obj 279 170 mtof;
#X obj 141 95 +~;
#X obj 9 142 snapshot~;
#X obj 9 164 change;
#X msg 9 189 set \$1;
#X obj 142 198 clip~ 0 20000;
#X obj 142 175 mtof~;
#X obj 142 227 outlet~;
#X obj 280 -12 inlet;
#X obj 225 -13 inlet;
#X obj 38 227 outlet;
#X obj 279 227 outlet;
#X text 35 245 Hslider;
#X obj 141 -8 inlet~;
#X obj 8 -9 loadbang;
#X obj 229 227 outlet;
#X obj 279 109 * 240;
#X obj 279 132 - 108;
#X obj 141 123 *~ 240;
#X obj 141 145 -~ 108;
#X obj 226 34 + 108;
#X obj 226 56 / 240;
#X obj 9 40 metro 200;
#X obj 64 -9 r SendFluid;
#X text 44 256 Over;
#X text 281 245 Number;
#X text 222 -30 Number;
#X text 228 244 Hslider;
#X text 230 255 Under;
#X text 281 -42 Hslider;
#X text 286 -31 Under;
#X msg 229 197 set \$1;
#N canvas 618 373 489 317 pitchb 0;
#X obj 70 111 mod 12;
#X obj 70 135 sel 0 1 2 3 4 5 6 7 8 9 10 11;
#X msg 246 170 A;
#X msg 300 170 B;
#X msg 192 170 G;
#X msg 3 170 C;
#X msg 57 170 D;
#X msg 111 170 E;
#X msg 138 170 F;
#X obj 204 1 inlet;
#X obj 329 115 div 12;
#X obj 204 79 t f f;
#X text 334 190 -> Numero de l'octave;
#X text 213 64 -> Numero MIDI de la note (69 = A3 = 440Hz);
#X msg 260 260 label \$1;
#X obj 260 283 outlet;
#X msg 30 170 Db;
#X msg 84 170 Eb;
#X msg 165 170 Gb;
#X msg 219 170 Ab;
#X msg 273 170 Bb;
#X text 369 78 (70 = A#3 = Bb3);
#X obj 260 238 symbol;
#X obj 260 213 sprintf %s%d;
#X text 11 231 Impossible d'afficher # dans un label;
#X text 11 243 donc j'affiche b;
#X obj 204 51 int;
#X text 255 23 -> pour corriger certaines erreurs de calcul;
#X obj 204 25 + 120.1;
#X obj 329 144 - 12;
#X text 255 35 et le pb du passage a zero de mod 12;
#X connect 0 0 1 0;
#X connect 1 0 5 0;
#X connect 1 1 16 0;
#X connect 1 2 6 0;
#X connect 1 3 17 0;
#X connect 1 4 7 0;
#X connect 1 5 8 0;
#X connect 1 6 18 0;
#X connect 1 7 4 0;
#X connect 1 8 19 0;
#X connect 1 9 2 0;
#X connect 1 10 20 0;
#X connect 1 11 3 0;
#X connect 2 0 23 0;
#X connect 3 0 23 0;
#X connect 4 0 23 0;
#X connect 5 0 23 0;
#X connect 6 0 23 0;
#X connect 7 0 23 0;
#X connect 8 0 23 0;
#X connect 9 0 28 0;
#X connect 10 0 29 0;
#X connect 11 0 0 0;
#X connect 11 1 10 0;
#X connect 14 0 15 0;
#X connect 16 0 23 0;
#X connect 17 0 23 0;
#X connect 18 0 23 0;
#X connect 19 0 23 0;
#X connect 20 0 23 0;
#X connect 22 0 14 0;
#X connect 23 0 22 0;
#X connect 26 0 11 0;
#X connect 28 0 26 0;
#X connect 29 0 23 1;
#X restore 77 96 pd pitchb;
#X connect 0 0 21 0;
#X connect 0 0 33 0;
#X connect 1 0 12 0;
#X connect 2 0 3 0;
#X connect 2 0 19 0;
#X connect 3 0 4 0;
#X connect 4 0 5 0;
#X connect 5 0 11 0;
#X connect 6 0 8 0;
#X connect 7 0 6 0;
#X connect 9 0 17 0;
#X connect 10 0 0 0;
#X connect 14 0 2 0;
#X connect 15 0 23 0;
#X connect 17 0 18 0;
#X connect 18 0 1 0;
#X connect 19 0 20 0;
#X connect 20 0 7 0;
#X connect 21 0 22 0;
#X connect 22 0 2 1;
#X connect 22 0 32 0;
#X connect 23 0 3 0;
#X connect 24 0 23 1;
#X connect 32 0 16 0;
#X connect 33 0 11 0;
#X restore 62 63 pd Freq-v7-sig-;
#X text 280 81 29 11 2009;
#X connect 8 0 9 0;
#X connect 9 0 15 0;
#X connect 9 0 16 0;
#X connect 9 0 11 0;
#X connect 9 0 14 0;
#X connect 10 0 11 1;
#X connect 10 0 17 0;
#X connect 11 0 12 0;
#X connect 12 0 18 0;
#X connect 14 0 10 0;
#X connect 15 0 1 0;
#X connect 16 0 6 0;
#X connect 17 0 13 0;
#X connect 18 0 19 0;
#X connect 26 0 36 1;
#X connect 27 0 36 0;
#X connect 28 0 36 2;
#X connect 36 0 29 0;
#X connect 36 1 8 0;
#X connect 36 2 28 0;
#X connect 36 3 26 0;
#X coords 0 -1 1 1 246 36 1 100 100;
#X restore 154 -12 pd ARGO;
#N canvas 295 212 217 197 ARGO 0;
#X obj 110 105 cnv 10 20 10 empty empty WhiteNoise 1 5 1 14 -262144
-1 1.04858e+06;
#X obj 101 113 cnv 4 10 4 empty empty empty 20 12 0 14 -1 -66577 0
;
#X obj 87 153 outlet~;
#X obj 87 124 noise~;
#X connect 3 0 2 0;
#X coords 0 -1 1 1 95 18 2 100 100;
#X restore 253 35 pd ARGO;
#N canvas 350 62 236 332 ARGO 0;
#X obj 101 101 cnv 20 104 34 empty ColorAmpli empty 20 12 0 14 -261299
-1 1.04858e+06;
#X obj 92 302 outlet~;
#X obj 141 104 cnv 10 20 10 empty ColorAmpli Mix 1 5 1 14 -261299 -1
1.04858e+06;
#X obj 88 75 inlet~;
#X obj 181 75 inlet~;
#X obj 86 272 *~;
#X obj 103 118 hsl 101 12 -1 1 0 1 \$0-A ColorAmpli -1 0 7 1 9 -261299
-1 -1 0 0;
#X msg 22 132 label \$1;
#X obj 21 109 tosymbol;
#X obj 101 101 cnv 4 10 4 empty empty empty 20 12 0 14 -1 -66577 0
;
#X obj 101 131 cnv 4 10 4 empty empty empty 20 12 0 14 -1 -66577 0
;
#X obj 195 101 cnv 4 10 4 empty empty empty 20 12 0 14 -1 -66577 0
;
#X obj 179 271 *~;
#X obj 136 145 + 1;
#X obj 136 170 / 2;
#X obj 101 196 t b f;
#X msg 101 220 1;
#X obj 101 247 -;
#X connect 3 0 5 0;
#X connect 4 0 12 0;
#X connect 5 0 1 0;
#X connect 6 0 8 0;
#X connect 6 0 13 0;
#X connect 7 0 6 0;
#X connect 8 0 7 0;
#X connect 12 0 1 0;
#X connect 13 0 14 0;
#X connect 14 0 15 0;
#X connect 14 0 12 1;
#X connect 15 0 16 0;
#X connect 15 1 17 1;
#X connect 16 0 17 0;
#X connect 17 0 5 1;
#X coords 0 -1 1 1 106 36 1 100 100;
#X restore 154 67 pd ARGO;
#N canvas 204 127 709 478 ARGO 0;
#X obj 368 103 cnv 10 20 10 empty empty Play 1 5 1 14 -262144 -1 1.04858e+06
;
#X obj 101 131 cnv 4 10 4 empty empty empty 20 12 0 14 -1 -66577 0
;
#X obj 89 459 outlet~;
#X obj 266 30 openpanel;
#X msg 212 359 1;
#X msg 141 333 0;
#X msg 294 76 set \$1;
#X msg 242 384 open \$1;
#X obj 188 305 t b b;
#X msg 220 441 set 0;
#X obj 179 200 sel 1 0;
#X floatatom 230 242 5 0 0 0 - - -;
#X msg 230 219 set \$1;
#X obj 204 268 sel 1;
#X msg 162 373 set 1;
#X obj 195 5 key;
#X obj 196 28 select 32;
#X obj 49 6 loadbang;
#X obj 169 417 readsf~ 2;
#X obj 274 330 list2symbol;
#X obj 242 359 symbol;
#X obj 267 50 t b s;
#X text 369 339 avec espace;
#X text 351 327 -> pour les noms de fichier;
#X obj 151 101 tgl 12 1 \$0-A \$0-B Play(Space) 14 6 1 9 -262144 -1
-1 1 1;
#X obj 311 101 bng 12 250 50 0 \$0-A \$0-B Stop 14 6 1 9 -262144 -1
-1;
#X obj 249 101 tgl 12 1 \$0-A \$0-B Loop 15 6 1 9 -262144 -1 -1 1 1
;
#X msg 50 114 set \$1;
#X obj 53 200 list2symbol;
#X obj 49 40 t b b;
#X obj 174 335 delay 5;
#X obj 111 6 inlet~;
#X obj 111 48 threshold~ 0.5 5 0.49 5;
#X text 346 36 Lit un fichier Audio Mono (1 canal).;
#X text 346 49 Le canal 2 d'un fichier Audio Stereo est mélangé au
canal 1;
#X text 346 63 Les canaux 3 \, 4... d'un fichier Audio de plus de 2
canaux ne sont pas lus.;
#X text 296 242 Channels 3 \, 4... of an Audio file of more than 2
channels are not read.;
#X text 296 228 Channel 2 of a Stereo Audio file is mixed with channel
1;
#X text 297 214 Reads an Mono Audio file (1 channel).;
#X obj 488 82 cnv 15 60 30 empty empty empty 20 12 0 14 -24198 -66577
0;
#N canvas 294 22 563 525 Help 0;
#X obj 8 103 cnv 15 400 100 empty empty empty 20 12 0 14 -233017 -66577
0;
#X text 11 102 Citation;
#X obj 8 348 cnv 15 550 300 empty empty empty 20 12 0 14 -224896 -66577
0;
#X text 10 -23 - Ne lit pas un fichier au format mp3 \, SoundDesigner
II (.SDII ou .SD2);
#X text 27 48 error: soundfiler_read: x.aiff: unknown or bad header
format;
#X text 14 72 Solution: ouvrir puis sauver le fichier au format aiff
avec Audacity;
#X text 13 9 - Ne lit pas un fichier au format aiff "Entier petit boutien"
comme les pistes d'un CD Audio copiées avec le finder du Mac. Les messages
d'erreur s'affichent:;
#X text 27 59 error: dsp: xxx.aiff: unknown or bad header format;
#X text 9 -42 - Lit un fichier Audio au format aiff \, wave;
#X text 30 118 READSF~ - read a soundfile;
#X text 29 136 The wave \, aiff \, and nextstep formats are parsed
automatically \, although only 2- 3- and 4- byte samples are accepted
(4 bytes implies floating point and is not available in aiff format.)
;
#X text 20 606 Erreur dans la fenêtre Pd:;
#X text 11 249 - Peut Ouvrir automatiquement 1 fichier qui se trouve
dans le même dossier que lui \, quelquesoit l'emplacement du dossier.
Pour cela ouvrir le module et taper le nom du fichier (sans chemin
d'accés) dans le message. Sauver le patch. Fermer le patch. Ré-ouvrir
le patch. Le dossier contenant le module ARGO et le fichier image est
ainsi transportable.;
#X text 11 208 - Si le Patch est sauvé avec 1 Player contenant un nom
de fichier Audio \, ce fichier sera lu automatiquement à la prochaine
ouverture s'il n'a pas changé d'emplacement.;
#X text 54 544 Les canaux 1 2 3 4 sortent sur les sorties 5 6 7 8;
#X text 54 555 Les canaux 5 6 7 8 sortent sur les sorties 1 2 3 4;
#X text 36 566 Pas de bug sur un fichier à 2 ou 4 canaux;
#X text 36 577 Pas de bug sur un fichier wav;
#X text 35 533 Sur un fichier aiff à 8 canaux;
#X text 24 517 Bug du Player à 8 sorties.;
#X text 186 466 If the sample rate of pd is set to 44100 \, files having
the sample rates of 44100 are correctly played \, other files will
be transposed.;
#X text 188 439 WARNING The sample rate of the output depends on the
system sample rate of pd:;
#X text 16 355 - ATTENTION Le taux d'échantillonnage de la lecture
du fichier dépends du taux d'échantillonnage de Pd.;
#X text 28 382 Si le taux d'échantillonnage de Pd est de 44100 (Menu
Preferences -> Audio Settings...) \, les fichiers échantillonnés à
44100 Hz sont lus correctement \, sinon ils sont transposés.;
#X restore 495 88 pd Help;
#X text 75 81 Trig Decl;
#X obj 100 101 bng 12 250 50 0 \$0-A \$0-B empty 14 6 1 9 -262144 -1
-1;
#X obj 101 101 cnv 2 10 4 empty empty empty 20 12 0 14 -1 -66577 0
;
#X obj 102 102 cnv 2 8 2 empty empty empty 20 12 0 14 -262144 -66577
0;
#X obj 562 82 cnv 15 41 30 empty empty empty 20 12 0 14 -24198 -66577
0;
#N canvas 350 196 381 103 ? 0;
#X obj 5 49 cnv 15 370 38 empty empty empty 20 12 0 14 -224896 -66577
0;
#X text 6 65 Voir/Look at: http://puredata.info/downloads;
#X obj 4 12 cnv 18 370 30 empty empty ARGOPdMiniModules 1 10 1 14 -4033
-1 1.04858e+06;
#X obj 7 31 cnv 10 10 10 empty empty Gerard 0 5 1 9 -4033 -1 1.04858e+06
;
#X obj 38 31 cnv 10 10 10 empty empty Paresys 0 5 1 9 -4033 -1 1.04858e+06
;
#X obj 175 20 cnv 10 10 10 empty empty http://pagesperso-orange.fr/Paresys/ARGOPd/
0 5 1 9 -4033 -1 1.04858e+06;
#X text 6 51 Construit sous / Build under Pd 0.40.3-extended;
#X obj 175 31 cnv 10 10 10 empty empty http://gerard.paresys.free.fr/ARGOPd/
0 5 1 9 -4033 -1 1.04858e+06;
#X restore 568 89 pd ?;
#X obj 104 115 hradio 14 1 0 20 empty empty empty 0 6 0 8 -262144 -1
-1 0;
#X obj 266 8 bang;
#X text 402 114 <- Click the name to change;
#X symbolatom 100 114 49 0 0 0 - - -;
#X obj 49 144 cnv 15 400 50 empty empty empty 20 12 0 14 -260097 -66577
0;
#X text 51 143 Nom du fichier / File name;
#X text 405 100 22 10 2009;
#X msg 54 161 isthatyou.wav;
#X connect 3 0 21 0;
#X connect 4 0 18 0;
#X connect 5 0 18 0;
#X connect 6 0 50 0;
#X connect 7 0 18 0;
#X connect 8 0 30 0;
#X connect 8 1 20 0;
#X connect 9 0 24 0;
#X connect 10 0 8 0;
#X connect 10 1 9 0;
#X connect 10 1 5 0;
#X connect 11 0 13 0;
#X connect 12 0 11 0;
#X connect 13 0 42 0;
#X connect 13 0 8 0;
#X connect 14 0 24 0;
#X connect 15 0 16 0;
#X connect 16 0 24 0;
#X connect 17 0 29 0;
#X connect 18 0 2 0;
#X connect 18 1 2 0;
#X connect 18 2 11 0;
#X connect 18 2 9 0;
#X connect 19 0 20 1;
#X connect 20 0 7 0;
#X connect 21 0 50 0;
#X connect 21 1 6 0;
#X connect 24 0 10 0;
#X connect 25 0 5 0;
#X connect 25 0 9 0;
#X connect 26 0 12 0;
#X connect 27 0 54 0;
#X connect 28 0 6 0;
#X connect 29 0 50 0;
#X connect 29 1 54 0;
#X connect 30 0 4 0;
#X connect 30 0 14 0;
#X connect 31 0 32 0;
#X connect 32 0 42 0;
#X connect 42 0 8 0;
#X connect 47 0 48 0;
#X connect 48 0 3 0;
#X connect 50 0 19 0;
#X connect 50 0 27 0;
#X connect 54 0 28 0;
#X coords 0 -1 1 1 300 36 2 100 100;
#X restore 371 35 pd ARGO;
#N canvas 585 156 393 346 ARGO 0;
#X obj 40 -36 inlet~;
#X obj 101 101 cnv 12 198 18 empty empty empty 20 12 0 14 -262144 -1
1.04858e+06;
#X obj 254 105 cnv 10 44 10 empty empty Scope 1 5 1 14 -262144 -1 1.04858e+06
;
#X obj 101 101 cnv 4 10 4 empty empty empty 20 12 0 14 -1 -66577 0
;
#X msg 186 31 frgb 255 0 0;
#X text 64 254 Voir examples:cyclone:pink-test.pd;
#X text 64 265 Voir examples:cyclone:scope-...;
#X obj 128 103 nbx 4 12 1 2000 0 1 empty ColorTime ms/div 40 7 1 9
-208064 -1 -1 50 256;
#X msg -19 30 range -1 1;
#X obj 101 120 Scope~ 198 129 100 3 176 -1 1 0 0 0 0 255 0 0 255 255
255 0;
#X text 64 276 Voir MSP46ReferenceManual.pdf;
#X obj 217 103 tgl 12 1 \$0-A \$0-B Sync 15 6 1 9 -262144 -1 -1 0 1
;
#X msg 142 6 delay 0 \, triglevel 0 \, trigger 0;
#X obj 140 -41 sel 0 1;
#X msg 183 55 brgb 255 255 255;
#X msg 62 14 bufsize 176;
#X obj 94 63 * 2;
#X msg 159 -19 delay 1 \, triglevel 0.1 \, trigger 1;
#X obj 41 -8 clip~ -1 1;
#X connect 0 0 18 0;
#X connect 4 0 9 0;
#X connect 7 0 16 0;
#X connect 8 0 9 0;
#X connect 11 0 13 0;
#X connect 12 0 9 0;
#X connect 13 0 12 0;
#X connect 13 1 17 0;
#X connect 14 0 9 0;
#X connect 15 0 9 0;
#X connect 16 0 9 0;
#X connect 17 0 9 0;
#X connect 18 0 9 0;
#X coords 0 -1 1 1 200 150 2 100 100;
#X restore 471 116 pd ARGO;
#N canvas 310 130 478 295 ARGO 0;
#X obj 95 47 cartopol~;
#X obj 95 20 rfft~;
#X obj -23 77 vectral~ 1024;
#X obj -23 3 count~ 0 1024 1 1;
#X msg -109 34 slide 10 10;
#X msg 161 72 range 0 512 \, 2 \, bufsize 512;
#X obj 95 -28 inlet~;
#X msg -129 61 slide 1 1;
#X obj -23 35 *~ 0.361;
#X obj 101 101 cnv 12 198 34 empty empty empty 20 12 0 14 -262144 -1
1.04858e+06;
#X obj 158 105 cnv 10 44 10 empty empty Spectrum(2000Hz/div) 1 5 1
14 -262144 -1 1.04858e+06;
#X obj 101 120 Scope~ 198 129 2 3 512 0 512 0 0 0 0 255 0 0 255 252
255 0;
#X obj 101 101 cnv 4 10 4 empty empty empty 20 12 0 14 -1 -66577 0
;
#X obj 115 103 tgl 12 1 \$0-SendLoop \$0-ReceiveLoop Gliss 15 6 1 9
-262144 -1 -1 0 1;
#X obj -128 7 sel 0 1;
#X msg 168 13 frgb 255 0 0;
#X obj 169 -12 block~ 1024;
#X text -126 207 Voir examples:cyclone:pink-test.pd;
#X text -126 218 Voir examples:cyclone:scope-...;
#X msg 166 44 brgb 255 255 255;
#X text -126 229 Voir MSP46ReferenceManual.pdf;
#X obj 95 -2 *~ 10;
#X connect 0 0 2 2;
#X connect 1 0 0 0;
#X connect 1 1 0 1;
#X connect 2 0 11 0;
#X connect 3 0 2 1;
#X connect 3 0 8 0;
#X connect 4 0 2 0;
#X connect 5 0 11 0;
#X connect 6 0 21 0;
#X connect 7 0 2 0;
#X connect 8 0 2 0;
#X connect 13 0 14 0;
#X connect 14 0 7 0;
#X connect 14 1 4 0;
#X connect 15 0 11 0;
#X connect 19 0 11 0;
#X connect 21 0 1 0;
#X coords 0 -1 1 1 200 150 2 100 100;
#X restore 176 148 pd ARGO;
#X text 110 37 Ramp ->;
#X text 4 123 Signal to be filtered ->;
#X text 34 113 Signal à filtrer ->;
#X text 55 136 (Excitation);
#N canvas 413 140 402 279 ARGO 0;
#X obj 101 101 cnv 10 95 41 \$0-A \$0-B empty 20 12 0 14 -1 -1 1.04858e+06
;
#X obj 101 109 nbx 4 12 0 1e+37 0 0 \$0 \$0-ReceiveCpuPeak CPUPeak
45 7 1 11 -24198 -1 -24198 16 256;
#X obj 101 122 nbx 4 12 0 1e+37 0 0 \$0 \$0-ReceiveCpuMean CPUMean
45 7 1 11 -24198 -1 -24198 15 256;
#X obj 145 -55 cputime;
#X obj 145 -76 t b b;
#X text 188 24 (c) musil@iem.kug.ac.at;
#X text 230 37 IEM KUG;
#X text 78 18 CPU-load;
#X obj 144 -125 loadbang;
#X text 205 48 graz \, austria 2001;
#X obj 145 -100 metro 500;
#X obj 145 -34 * 0.2;
#X text 237 -88 -dsp-load in %;
#X text 228 -101 measure average- and peak-;
#X obj 37 18 * 100;
#X obj 37 63 int;
#X obj 37 41 + 0.499;
#X obj 37 86 * 0.01;
#N canvas 524 162 422 273 1p1zmodif 0;
#X text 134 89 (c) musil@iem.kug.ac.at;
#X text 179 99 IEM KUG;
#X obj 14 195 +;
#X text 151 108 graz \, austria 2001;
#X text 135 71 y[n] = a0*x[n] + a1*x[n-1] + b1*y[n-1];
#X text 18 13 x[n];
#X text 16 244 y[n];
#X text 84 111 y[n-1];
#X text 134 56 <float> control-IIR-filter 1.order;
#X obj 15 28 inlet;
#X obj 14 228 outlet;
#X obj 15 112 * 0.1;
#X obj 59 156 * 0.9;
#X text 139 144 a1 = 0;
#X text 139 155 b1 = 0.9;
#X text 139 133 a0 = 0.1;
#X obj 15 50 t f b;
#X text 135 40 Inspiré de 1p1z;
#X obj 59 112 f 0;
#X connect 2 0 10 0;
#X connect 2 0 18 1;
#X connect 9 0 16 0;
#X connect 11 0 2 0;
#X connect 12 0 2 1;
#X connect 16 0 11 0;
#X connect 16 1 18 0;
#X connect 18 0 12 0;
#X restore 37 -8 pd 1p1zmodif;
#X text 146 9 Inspiré de 5.reference/iemabs/help-dsp.pd;
#X text 141 83 25 3 2010;
#X connect 3 0 11 0;
#X connect 4 0 3 0;
#X connect 4 1 3 1;
#X connect 8 0 10 0;
#X connect 10 0 4 0;
#X connect 11 0 18 0;
#X connect 11 0 1 0;
#X connect 14 0 16 0;
#X connect 15 0 17 0;
#X connect 16 0 15 0;
#X connect 17 0 2 0;
#X connect 18 0 14 0;
#X coords 0 -1 1 1 97 43 1 100 100;
#X restore 558 -118 pd ARGO;
#X text 322 112 <- Signal à analyser;
#X text 322 123 <- Signal to be analyzed;
#X obj 58 -80 switch~;
#N canvas 608 166 228 173 ARGOnOff 0;
#X obj 100 100 tgl 18 1 \$0-SendOnOff \$0-ReceiveOnOff On/Off 20 11
1 14 -4033 -1 -1 1 1;
#X obj 99 10 loadbang;
#X msg 99 33 \; pd dsp 1;
#X obj 100 129 outlet;
#X text -50 99 Audio On/Off du patch ->;
#X text -22 45 Audio General On ->;
#X text 107 82 17 3 2010;
#X connect 0 0 3 0;
#X connect 1 0 2 0;
#X coords 0 -1 1 1 65 18 2 100 100;
#X restore 58 -98 pd ARGOnOff;
#X text 63 -114 V;
#X text 63 -121 |;
#X text 51 -132 On/Off Patch;
#X obj 186 -173 cnv 15 360 155 empty empty empty 20 12 0 14 -24198
-66577 0;
#X text 194 -170 ATTENTION: il faut placer un et un seul MiniModule
"Init-FFT" dans un patch contenant 1 ou plusieurs MiniModules FFT.
;
#X text 193 -124 CAUTION: it is necessary to place one and only one
MiniModule "Init-FFT" in a patch containing 1 or several MiniModules
FFT.;
#X text 426 -70 <- FFT size;
#X text 426 -81 <- Taille de la FFT;
#N canvas 305 72 638 521 ARGO 0;
#X obj 101 101 cnv 10 228 22 empty ColorForm Init-FFT 2 9 1 14 -188398
-1 1.04858e+06;
#X obj 155 100 hradio 12 1 1 11 \$0-A ColorForm empty 0 -8 0 10 -188398
-1 -1 7;
#X obj 287 100 nbx 5 12 1 99999 0 1 \$0-A ColorForm empty 0 0 1 9 -188398
-1 -1 8192 256;
#N canvas 0 22 450 300 (subpatch) 0;
#X array \$0-hann 8192 float 0;
#X coords 0 0 8191 1 300 100 0;
#X restore 50 89 graph;
#X obj 158 359 osc~;
#X obj 157 380 *~ -0.5;
#X obj 157 402 +~ 0.5;
#X obj 90 437 tabwrite~ \$0-hann;
#X obj 173 230 samplerate~;
#X obj 155 255 swap;
#X obj 155 279 /;
#X obj 155 206 t f b f;
#X msg 362 408 resize \$1;
#X obj 334 437 s \$0-hann;
#X msg 215 327 0;
#X text 249 189 64..65536;
#X obj 231 378 phasor~;
#N canvas 9 234 450 300 (subpatch) 0;
#X array \$0-FFTIndex 8192 float 0;
#X coords 0 0 8191 1 300 100 0;
#X restore 49 117 graph;
#X obj 200 437 tabwrite~ \$0-FFTIndex;
#X obj 396 437 s \$0-FFTIndex;
#X obj 8 437 s \$0-FFTSize;
#X obj 191 112 hradio 12 1 1 4 \$0-A ColorForm Overlap -33 6 1 9 -188398
-1 -1 2;
#X obj 239 112 nbx 1 12 1 99999 0 1 \$0-A ColorForm empty 0 0 1 9 -188398
-1 -1 4 256;
#X obj 482 436 s \$0-FFTOverlap;
#X msg 90 385 stop;
#X obj 155 302 t b b b b b f;
#X obj 155 48 r \$0-SendOnOff;
#X obj 155 77 sel 1;
#X text 279 82 2 6 2011;
#X obj 90 331 delay 2000;
#X obj 583 424 cnv 15 41 30 empty empty empty 20 12 0 14 -24198 -66577
0;
#N canvas 350 196 308 136 ?? 0;
#X obj -9 87 cnv 15 300 38 empty empty empty 20 12 0 14 -224896 -66577
0;
#X obj -9 10 cnv 18 300 70 empty empty ARGOPdMiniModules 1 10 1 14
-4033 -1 1.04858e+06;
#X obj 9 29 cnv 10 10 10 empty empty Gerard 0 5 1 9 -4033 -1 1.04858e+06
;
#X obj 40 29 cnv 10 10 10 empty empty Paresys 0 5 1 9 -4033 -1 1.04858e+06
;
#X text -8 89 Construit sous / Build under Pd 0.42.5-extended;
#X obj 39 105 pddplink http://puredata.info/downloads;
#X obj 3 42 pddplink http://pagesperso-orange.fr/Paresys/ARGOPd/;
#X obj 3 57 pddplink http://gerard.paresys.free.fr/ARGOPd/;
#X restore 587 431 pd ??;
#X obj 155 138 expr (pow(2 \, $f1 + 6));
#X obj 190 163 expr (pow(2 \, $f1));
#X text 239 208 -> Overlap 1 2 4 8;
#X text 161 188 -> window-size;
#X obj 48 156 cnv 15 60 30 empty empty empty 20 12 0 14 -24198 -66577
0;
#N canvas 399 94 413 273 Help 0;
#X obj 8 85 cnv 15 400 80 empty empty empty 20 12 0 14 -233017 -66577
0;
#X text 12 87 Citation;
#X text 22 2 Init-FFT;
#X text 29 106 calculate Hann window table (variable window size);
#X text 23 29 Voir Pd-0.42.5-extended ->;
#X text 24 41 Pure Data/3.audio.examples/I05.compressor.pd ->;
#X text 23 53 pd hann-window;
#X text 24 168 L'array \$0-FFTIndex n'est utilise que dans le MM FFT-BrickWallFilter
;
#X text 20 216 Si le son d'un MiniModule FFT est haché \, avec Init-FFT
grand (65536...) -> Pd-extended -> Preferences -> Audio Settings...
-> delay (msec) -> Augmenter;
#X restore 55 162 pd Help;
#X text 333 106 <- FFT size;
#X text 333 95 <- Taille de la FFT;
#X obj 92 -54 cnv 15 360 95 empty empty empty 20 12 0 14 -24198 -66577
0;
#X text 100 -52 ATTENTION: il faut placer un et un seul MiniModule
"Init-FFT" dans un patch contenant 1 ou plusieurs MiniModules FFT.
;
#X text 99 -6 CAUTION: it is necessary to place one and only one MiniModule
"Init-FFT" in a patch containing 1 or several MiniModules FFT.;
#X connect 1 0 32 0;
#X connect 4 0 5 0;
#X connect 5 0 6 0;
#X connect 6 0 7 0;
#X connect 8 0 9 1;
#X connect 9 0 10 0;
#X connect 9 1 10 1;
#X connect 10 0 25 0;
#X connect 11 0 9 0;
#X connect 11 1 8 0;
#X connect 11 2 12 0;
#X connect 12 0 13 0;
#X connect 12 0 19 0;
#X connect 14 0 4 1;
#X connect 14 0 16 1;
#X connect 16 0 18 0;
#X connect 21 0 33 0;
#X connect 24 0 18 0;
#X connect 24 0 7 0;
#X connect 25 0 29 0;
#X connect 25 2 7 0;
#X connect 25 3 18 0;
#X connect 25 4 14 0;
#X connect 25 5 16 0;
#X connect 25 5 4 0;
#X connect 26 0 27 0;
#X connect 27 0 1 0;
#X connect 29 0 24 0;
#X connect 32 0 2 0;
#X connect 32 0 20 0;
#X connect 32 0 11 0;
#X connect 33 0 22 0;
#X connect 33 0 23 0;
#X coords 0 -1 1 1 230 24 1 100 100;
#X restore 195 -72 pd ARGO;
#X text 397 -48 overlap = chevauchement;
#X text 456 -38 superposition;
#X obj 622 366 cnv 15 48 25 empty empty empty 20 12 0 14 -24198 -66577
0;
#N canvas 350 196 308 136 ??? 0;
#X obj -6 87 cnv 15 300 38 empty empty empty 20 12 0 14 -224896 -66577
0;
#X obj -6 10 cnv 18 300 70 empty empty ARGOPdMiniModules 3 10 1 14
-4033 -1 1.04858e+06;
#X obj 13 31 cnv 10 10 10 empty empty Gerard 0 5 1 11 -4033 -1 1.04858e+06
;
#X obj 55 30 cnv 10 10 10 empty empty Paresys 0 5 1 11 -4033 -1 1.04858e+06
;
#X text -1 89 Construit sous / Build under Pd 0.42.5-extended;
#X obj 6 43 pddp/pddplink http://pagesperso-orange.fr/Paresys/ARGOPd/
;
#X obj 6 58 pddp/pddplink http://gerard.paresys.free.fr/ARGOPd/;
#X obj 46 105 pddp/pddplink http://puredata.info/downloads;
#X restore 626 370 pd ???;
#X obj 96 361 dac~ 1 2;
#N canvas 324 59 331 313 ARGO 0;
#X obj 101 101 cnv 20 104 34 empty ColorAmpli empty 20 12 0 14 -261299
-1 1.04858e+06;
#X obj 85 285 outlet~;
#X obj 134 104 cnv 10 20 10 empty ColorAmpli Ampli 1 5 1 14 -261299
-1 1.04858e+06;
#X obj 85 72 inlet~;
#X obj 85 260 *~;
#X obj 103 118 hsl 101 12 -80 20 0 1 \$0-A ColorAmpli -1dB 0 7 1 9
-261299 -1 -1 7900 0;
#X msg -24 161 label \$1;
#X obj -25 138 tosymbol;
#X obj -25 103 sprintf %ddB;
#X obj 101 101 cnv 4 10 4 empty empty empty 20 12 0 14 -1 -66577 0
;
#X obj 101 131 cnv 4 10 4 empty empty empty 20 12 0 14 -1 -66577 0
;
#X text -16 120 -> -80dB..20dB;
#X text 106 182 -> 0.0001..10 = -80dB..20dB;
#X text 209 97 5 5 2011;
#X obj 100 163 expr (pow(10 \, $f1 / 20));
#X text 107 140 -> -80..20;
#X obj 227 270 cnv 15 41 30 empty empty empty 20 12 0 14 -24198 -66577
0;
#N canvas 350 196 308 136 ?? 0;
#X obj -9 87 cnv 15 300 38 empty empty empty 20 12 0 14 -224896 -66577
0;
#X obj -9 10 cnv 18 300 70 empty empty ARGOPdMiniModules 1 10 1 14
-4033 -1 1.04858e+06;
#X obj 9 29 cnv 10 10 10 empty empty Gerard 0 5 1 9 -4033 -1 1.04858e+06
;
#X obj 40 29 cnv 10 10 10 empty empty Paresys 0 5 1 9 -4033 -1 1.04858e+06
;
#X text -8 89 Construit sous / Build under Pd 0.42.5-extended;
#X obj 39 105 pddplink http://puredata.info/downloads;
#X obj 3 42 pddplink http://pagesperso-orange.fr/Paresys/ARGOPd/;
#X obj 3 57 pddplink http://gerard.paresys.free.fr/ARGOPd/;
#X restore 231 277 pd ??;
#X obj 100 206 sel 0.0001;
#X msg 100 234 0;
#X connect 3 0 4 0;
#X connect 4 0 1 0;
#X connect 5 0 8 0;
#X connect 5 0 14 0;
#X connect 6 0 5 0;
#X connect 7 0 6 0;
#X connect 8 0 7 0;
#X connect 14 0 18 0;
#X connect 18 0 19 0;
#X connect 18 1 4 1;
#X connect 19 0 4 1;
#X connect 19 0 7 0;
#X coords 0 -1 1 1 106 36 1 100 100;
#X restore 113 309 pd ARGO;
#X text 6 319 Niveau general ->;
#X text 12 329 General level ->;
#N canvas 442 87 333 300 ARGO 0;
#X obj 101 101 cnv 10 164 15 empty ColorForm empty 20 12 0 14 -188398
-1 1.04858e+06;
#X obj 101 112 cnv 4 10 4 empty empty empty 20 12 0 14 -1 -66577 0
;
#X obj 93 51 inlet~;
#X obj 114 102 nbx 4 12 0.1 1000 0 1 \$0-A ColorForm empty 0 0 1 9
-188398 -1 -1 2 256;
#X obj 101 101 cnv 4 10 4 empty empty empty 20 12 0 14 -1 -66577 0
;
#X obj 91 275 outlet~;
#X obj 166 105 cnv 10 20 10 empty ColorForm FFT-Vocoder 1 5 1 14 -188398
-1 1.04858e+06;
#X text 109 83 squelch;
#X obj 71 239 /~;
#X obj 87 195 *;
#X obj 87 173 t f f;
#X obj 239 52 inlet~;
#X obj 255 101 cnv 4 10 4 empty empty empty 20 12 0 14 -1 -66577 0
;
#N canvas 297 43 628 593 fft-analysis 0;
#X obj 69 463 *~;
#X obj 35 463 *~;
#X obj 319 215 *~;
#X obj 278 215 *~;
#X obj 278 239 +~;
#X obj 35 153 *~;
#X obj 35 110 inlet~;
#X obj 35 176 rfft~;
#X obj 34 536 *~;
#X obj 122 215 *~;
#X obj 278 176 rfft~;
#X obj 35 487 rifft~;
#X obj 34 559 outlet~;
#X obj 88 215 *~;
#X obj 88 239 +~;
#X text 335 307 modulus;
#X obj 87 399 *~;
#X obj 88 350 clip~;
#X obj 88 110 tabreceive~ \$0-hann;
#X obj 88 264 +~ 1e-20;
#X obj 278 153 *~;
#X obj 278 110 inlet~;
#X text 335 320 of control;
#X text 335 331 amplitude;
#X text 157 240 reciprocal;
#X text 157 254 modulus of;
#X text 155 269 filter input;
#X text 157 284 amplitude;
#X text 20 92 filter input;
#X text 257 95 control source;
#X text 122 385 multiply the two amplitude;
#X text 120 396 factors (for compression;
#X text 121 407 and to apply new timbre);
#X obj 222 110 inlet;
#X text 20 -8 Internal workings of the timbre stamping algorithm. First
the "filter input" is treated as in the compressor patch \, multiplying
each channel amplitude by one over its modulus (but limited by the
"squelch" parameter.) It is then multiplied by the modulus of the channel
amplitude for the control source (which is Fourier analyzed in parallel
with the filter input.);
#X obj 128 321 expr 0.0001*$f1*$f1;
#X obj 87 432 *~;
#X text 113 431 normalize;
#X obj 462 559 switch~ 1024 4 1;
#X msg 577 462 0;
#X msg 427 461 1;
#X text 426 94 64..65536;
#X obj 427 110 r \$0-FFTSize;
#X obj 446 324 /;
#X obj 526 110 r \$0-FFTOverlap;
#X text 543 94 1 2 4 8;
#X obj 492 419 pack 1 2;
#X msg 462 461 set \$1 \$2 1;
#X obj 526 171 t b b f b;
#X msg 437 300 100;
#X obj 427 171 t b b f f b;
#X obj 88 291 rsqrt~;
#X obj 278 321 sqrt~;
#X connect 0 0 11 1;
#X connect 1 0 11 0;
#X connect 2 0 4 1;
#X connect 3 0 4 0;
#X connect 4 0 52 0;
#X connect 5 0 7 0;
#X connect 6 0 5 0;
#X connect 7 0 13 0;
#X connect 7 0 13 1;
#X connect 7 0 1 0;
#X connect 7 1 9 0;
#X connect 7 1 9 1;
#X connect 7 1 0 0;
#X connect 8 0 12 0;
#X connect 9 0 14 1;
#X connect 10 0 3 0;
#X connect 10 0 3 1;
#X connect 10 1 2 0;
#X connect 10 1 2 1;
#X connect 11 0 8 0;
#X connect 13 0 14 0;
#X connect 14 0 19 0;
#X connect 16 0 36 0;
#X connect 17 0 16 0;
#X connect 18 0 5 1;
#X connect 18 0 20 1;
#X connect 18 0 8 1;
#X connect 19 0 51 0;
#X connect 20 0 10 0;
#X connect 21 0 20 0;
#X connect 33 0 35 0;
#X connect 35 0 17 2;
#X connect 36 0 0 1;
#X connect 36 0 1 1;
#X connect 39 0 38 0;
#X connect 40 0 38 0;
#X connect 42 0 50 0;
#X connect 43 0 36 1;
#X connect 44 0 48 0;
#X connect 46 0 47 0;
#X connect 47 0 38 0;
#X connect 48 0 40 0;
#X connect 48 1 46 0;
#X connect 48 2 46 1;
#X connect 48 3 39 0;
#X connect 49 0 43 0;
#X connect 50 0 40 0;
#X connect 50 1 49 0;
#X connect 50 2 43 1;
#X connect 50 3 46 0;
#X connect 50 4 39 0;
#X connect 51 0 17 0;
#X connect 52 0 16 1;
#X restore 71 141 pd fft-analysis;
#X text 213 33 control source;
#X obj 87 216 clip 0.01 50;
#X obj 6 91 cnv 15 60 30 empty empty empty 20 12 0 14 -24198 -66577
0;
#N canvas 401 108 420 403 Help 0;
#X obj -13 53 cnv 15 400 200 empty empty empty 20 12 0 14 -233017 -66577
0;
#X text -9 55 Citation;
#X text 3 74 "CORT&ZACK's SECRET";
#X text 3 93 "This is a Fourier-based "vocoder" (perhaps better called
a "timbre stamp") like the one the Convolution brothers use. The "control
source" is analyzed to get its spectral envelope \, which is then stamped
onto the "filter input" by adjusting the amplitudes of its Fourier
transform. The "filter input" is first whitened by the compression
algorithm ... The best value of "squelch" to use depends critically
on what kind of sounds are used for the filter input and the control
source.";
#X text 4 212 www.music.buffalo.edu/lippe/convolutionbrothers/toc.html
;
#X text -13 -136 FFT-Vocoder;
#X obj -11 -111 cnv 15 360 100 empty empty empty 20 12 0 14 -24198
-66577 0;
#X text -3 -108 ATTENTION: il faut placer un et un seul MiniModule
"Init-FFT" dans un patch contenant 1 ou plusieurs MiniModules FFT.
;
#X text -4 -62 CAUTION: it is necessary to place one and only one MiniModule
"Init-FFT" in a patch containing 1 or several MiniModules FFT.;
#X text -8 12 3.audio.examples/I06.timbre.stamp.pd;
#X restore 13 97 pd Help;
#X text 75 35 (Excitation);
#X text 61 10 Signal à filtrer;
#X text 43 22 Signal to be filtered;
#X text 185 22 Signal to be analyzed;
#X text 199 11 Signal à analyser;
#X text 97 239 normalize;
#X text 271 100 28 9 2011;
#X obj 271 264 cnv 15 48 25 empty empty empty 20 12 0 14 -24198 -66577
0;
#N canvas 350 196 308 136 ??? 0;
#X obj -6 87 cnv 15 300 38 empty empty empty 20 12 0 14 -224896 -66577
0;
#X obj -6 10 cnv 18 300 70 empty empty ARGOPdMiniModules 3 10 1 14
-4033 -1 1.04858e+06;
#X obj 13 31 cnv 10 10 10 empty empty Gerard 0 5 1 11 -4033 -1 1.04858e+06
;
#X obj 55 30 cnv 10 10 10 empty empty Paresys 0 5 1 11 -4033 -1 1.04858e+06
;
#X text -1 89 Construit sous / Build under Pd 0.42.5-extended;
#X obj 6 43 pddp/pddplink http://pagesperso-orange.fr/Paresys/ARGOPd/
;
#X obj 6 58 pddp/pddplink http://gerard.paresys.free.fr/ARGOPd/;
#X obj 46 105 pddp/pddplink http://puredata.info/downloads;
#X restore 275 268 pd ???;
#X connect 2 0 13 0;
#X connect 3 0 10 0;
#X connect 3 0 13 1;
#X connect 8 0 5 0;
#X connect 9 0 15 0;
#X connect 10 0 9 0;
#X connect 10 1 9 1;
#X connect 11 0 13 2;
#X connect 13 0 8 0;
#X connect 15 0 8 1;
#X coords 0 -1 1 1 166 17 1 100 100;
#X restore 153 119 pd ARGO;
#X connect 8 0 10 0;
#X connect 9 0 10 1;
#X connect 10 0 40 1;
#X connect 11 0 12 0;
#X connect 11 0 40 0;
#X connect 22 0 21 0;
#X connect 37 0 36 0;
#X connect 37 0 36 1;
#X connect 40 0 13 0;
#X connect 40 0 37 0;
