#N canvas 366 158 382 156 10;
#N canvas 384 205 334 267 ARGO 0;
#X obj 113 104 cnv 10 20 10 empty empty SampleHold 1 5 1 14 -262144
-1 1.04858e+06;
#X obj 101 101 cnv 4 10 4 empty empty empty 20 12 0 14 -1 -66577 0
;
#X obj 101 112 cnv 4 10 4 empty empty empty 20 12 0 14 -1 -66577 0
;
#X obj 89 16 inlet~;
#X obj 195 106 tgl 10 0 \$0-A \$0-B empty 17 7 0 10 -262144 -1 -1 0
1;
#X msg 150 63 1;
#X msg 285 65 0;
#X obj 89 228 outlet~;
#X obj 149 16 inlet~;
#X obj 195 101 cnv 2 10 4 empty empty empty 20 12 0 14 -1 -66577 0
;
#X obj 88 194 samphold~;
#X obj 149 40 threshold~ 0.5 1 0.49 1;
#X obj 195 146 == 0;
#X obj 196 102 cnv 2 8 2 empty empty empty 20 12 0 14 -262144 -66577
0;
#X connect 3 0 10 0;
#X connect 4 0 12 0;
#X connect 5 0 4 0;
#X connect 6 0 4 0;
#X connect 8 0 11 0;
#X connect 10 0 7 0;
#X connect 11 0 5 0;
#X connect 11 1 6 0;
#X connect 12 0 10 1;
#X coords 0 -1 1 1 106 17 2 100 100;
#X restore 77 86 pd ARGO;
#N canvas 384 205 334 267 ARGO 0;
#X obj 113 104 cnv 10 20 10 empty empty Switch 1 5 1 14 -262144 -1
1.04858e+06;
#X obj 101 101 cnv 4 10 4 empty empty empty 20 12 0 14 -1 -66577 0
;
#X obj 101 112 cnv 4 10 4 empty empty empty 20 12 0 14 -1 -66577 0
;
#X obj 89 16 inlet~;
#X obj 195 106 tgl 10 0 \$0-A \$0-B empty 17 7 0 10 -262144 -1 -1 0
1;
#X msg 150 63 1;
#X msg 285 65 0;
#X obj 89 228 outlet~;
#X obj 149 16 inlet~;
#X obj 195 101 cnv 2 10 4 empty empty empty 20 12 0 14 -1 -66577 0
;
#X obj 149 40 threshold~ 0.5 1 0.49 1;
#X obj 196 102 cnv 2 8 2 empty empty empty 20 12 0 14 -262144 -66577
0;
#X obj 88 200 *~;
#X obj 103 173 line~;
#X msg 103 150 \$1 20;
#X connect 3 0 12 0;
#X connect 4 0 14 0;
#X connect 5 0 4 0;
#X connect 6 0 4 0;
#X connect 8 0 10 0;
#X connect 10 0 5 0;
#X connect 10 1 6 0;
#X connect 12 0 7 0;
#X connect 13 0 12 1;
#X connect 14 0 13 0;
#X coords 0 -1 1 1 106 17 2 100 100;
#X restore 76 31 pd ARGO;
#N canvas 384 205 286 254 ARGO 0;
#X obj 113 104 cnv 10 20 10 empty empty Switch 1 5 1 14 -262144 -1
1.04858e+06;
#X obj 101 101 cnv 4 10 4 empty empty empty 20 12 0 14 -1 -66577 0
;
#X obj 101 112 cnv 4 10 4 empty empty empty 20 12 0 14 -1 -66577 0
;
#X obj -1 41 inlet~;
#X obj 89 228 outlet~;
#X obj 88 200 *~;
#X obj 103 173 line~;
#X msg 103 150 \$1 20;
#X obj 238 41 inlet;
#X obj 194 100 tgl 12 1 \$0-A \$0-B empty 17 7 0 10 -262144 -1 -1 0
1;
#X text 46 40 1: Play 0: Stop bang: Change ->;
#X obj 195 101 cnv 4 10 4 empty empty empty 20 12 0 14 -260097 -66577
0;
#X text 131 84 15 3 2011;
#X obj 230 210 cnv 15 41 30 empty empty empty 20 12 0 14 -24198 -66577
0;
#N canvas 350 196 308 136 ?? 0;
#X obj -9 87 cnv 15 300 38 empty empty empty 20 12 0 14 -224896 -66577
0;
#X obj -9 10 cnv 18 300 70 empty empty ARGOPdMiniModules 1 10 1 14
-4033 -1 1.04858e+06;
#X obj 9 29 cnv 10 10 10 empty empty Gerard 0 5 1 9 -4033 -1 1.04858e+06
;
#X obj 40 29 cnv 10 10 10 empty empty Paresys 0 5 1 9 -4033 -1 1.04858e+06
;
#X text -8 89 Construit sous / Build under Pd 0.42.5-extended;
#X obj 39 105 pddplink http://puredata.info/downloads;
#X obj 3 42 pddplink http://pagesperso-orange.fr/Paresys/ARGOPd/;
#X obj 3 57 pddplink http://gerard.paresys.free.fr/ARGOPd/;
#X restore 234 217 pd ??;
#X connect 3 0 5 0;
#X connect 5 0 4 0;
#X connect 6 0 5 1;
#X connect 7 0 6 0;
#X connect 8 0 9 0;
#X connect 9 0 7 0;
#X coords 0 -1 1 1 106 17 2 100 100;
#X restore 76 58 pd ARGO;
#N canvas 464 46 284 181 ARGO 0;
#X obj 101 101 cnv 6 104 34 empty ColorAmpli Mux 76 27 1 14 -261299
-1 1.04858e+06;
#X obj 84 148 outlet~;
#X obj 84 23 inlet~;
#X msg 9 136 label \$1;
#X obj 9 113 tosymbol;
#X obj 101 101 cnv 4 10 4 empty empty empty 20 12 0 14 -1 -66577 0
;
#X obj 101 131 cnv 4 10 4 empty empty empty 20 12 0 14 -1 -66577 0
;
#X obj 195 101 cnv 4 10 4 empty empty empty 20 12 0 14 -1 -66577 0
;
#X obj 129 23 inlet~;
#X obj 219 23 inlet~;
#X obj 130 101 cnv 4 10 4 empty empty empty 20 12 0 14 -1 -66577 0
;
#X obj 174 23 inlet~;
#X obj 163 101 cnv 4 10 4 empty empty empty 20 12 0 14 -1 -66577 0
;
#X obj 9 90 sprintf %d;
#X obj 103 106 hsl 101 12 0.3 3.7 0 1 \$0-A ColorAmpli 3 0 7 1 9 -261299
-1 -1 6500 0;
#X obj 84 74 zexy/multiplex~ 1 2 3 4;
#X obj 229 139 cnv 15 41 30 empty empty empty 20 12 0 14 -24198 -66577
0;
#N canvas 350 196 308 136 ?? 0;
#X obj -9 87 cnv 15 300 38 empty empty empty 20 12 0 14 -224896 -66577
0;
#X obj -9 10 cnv 18 300 70 empty empty ARGOPdMiniModules 1 10 1 14
-4033 -1 1.04858e+06;
#X obj 9 29 cnv 10 10 10 empty empty Gerard 0 5 1 9 -4033 -1 1.04858e+06
;
#X obj 40 29 cnv 10 10 10 empty empty Paresys 0 5 1 9 -4033 -1 1.04858e+06
;
#X text -8 89 Construit sous / Build under Pd 0.42.5-extended;
#X obj 39 105 pddplink http://puredata.info/downloads;
#X obj 3 42 pddplink http://pagesperso-orange.fr/Paresys/ARGOPd/;
#X obj 3 57 pddplink http://gerard.paresys.free.fr/ARGOPd/;
#X restore 233 146 pd ??;
#X text 210 104 15 5 2010;
#X obj 9 67 + 1;
#X obj 8 43 int;
#X connect 2 0 15 0;
#X connect 3 0 14 0;
#X connect 4 0 3 0;
#X connect 8 0 15 1;
#X connect 9 0 15 3;
#X connect 11 0 15 2;
#X connect 13 0 4 0;
#X connect 14 0 20 0;
#X connect 15 0 1 0;
#X connect 19 0 13 0;
#X connect 20 0 19 0;
#X connect 20 0 15 0;
#X coords 0 -1 1 1 106 36 1 100 100;
#X restore 196 71 pd ARGO;
#N canvas 464 46 341 208 ARGO 0;
#X obj 101 101 cnv 6 104 34 empty ColorAmpli DeMux 59 8 1 14 -261299
-1 1.04858e+06;
#X obj 84 175 outlet~;
#X obj 84 48 inlet~;
#X msg 9 156 label \$1;
#X obj 9 133 tosymbol;
#X obj 101 101 cnv 4 10 4 empty empty empty 20 12 0 14 -1 -66577 0
;
#X obj 101 131 cnv 4 10 4 empty empty empty 20 12 0 14 -1 -66577 0
;
#X obj 195 131 cnv 4 10 4 empty empty empty 20 12 0 14 -1 -66577 0
;
#X obj 130 131 cnv 4 10 4 empty empty empty 20 12 0 14 -1 -66577 0
;
#X obj 163 131 cnv 4 10 4 empty empty empty 20 12 0 14 -1 -66577 0
;
#X obj 9 110 sprintf %d;
#X obj 103 118 hsl 101 12 0.3 3.7 0 1 \$0-A ColorAmpli 2 0 7 1 9 -261299
-1 -1 3200 0;
#X obj 286 162 cnv 15 41 30 empty empty empty 20 12 0 14 -24198 -66577
0;
#N canvas 350 196 308 136 ?? 0;
#X obj -9 87 cnv 15 300 38 empty empty empty 20 12 0 14 -224896 -66577
0;
#X obj -9 10 cnv 18 300 70 empty empty ARGOPdMiniModules 1 10 1 14
-4033 -1 1.04858e+06;
#X obj 9 29 cnv 10 10 10 empty empty Gerard 0 5 1 9 -4033 -1 1.04858e+06
;
#X obj 40 29 cnv 10 10 10 empty empty Paresys 0 5 1 9 -4033 -1 1.04858e+06
;
#X text -8 89 Construit sous / Build under Pd 0.42.5-extended;
#X obj 39 105 pddplink http://puredata.info/downloads;
#X obj 3 42 pddplink http://pagesperso-orange.fr/Paresys/ARGOPd/;
#X obj 3 57 pddplink http://gerard.paresys.free.fr/ARGOPd/;
#X restore 290 169 pd ??;
#X text 243 110 15 5 2010;
#X obj 9 87 + 1;
#X obj 8 63 int;
#X obj 84 146 zexy/demultiplex~ 1 2 3 4;
#X obj 133 175 outlet~;
#X obj 182 175 outlet~;
#X obj 231 175 outlet~;
#X connect 2 0 17 0;
#X connect 3 0 11 0;
#X connect 4 0 3 0;
#X connect 10 0 4 0;
#X connect 11 0 16 0;
#X connect 15 0 10 0;
#X connect 16 0 15 0;
#X connect 16 0 17 0;
#X connect 17 0 1 0;
#X connect 17 1 18 0;
#X connect 17 2 19 0;
#X connect 17 3 20 0;
#X coords 0 -1 1 1 106 36 1 100 100;
#X restore 196 29 pd ARGO;
#X obj 308 110 cnv 15 41 30 empty empty empty 20 12 0 14 -24198 -66577
0;
#N canvas 350 196 308 136 ?? 0;
#X obj -9 87 cnv 15 300 38 empty empty empty 20 12 0 14 -224896 -66577
0;
#X obj -9 10 cnv 18 300 70 empty empty ARGOPdMiniModules 1 10 1 14
-4033 -1 1.04858e+06;
#X obj 9 29 cnv 10 10 10 empty empty Gerard 0 5 1 9 -4033 -1 1.04858e+06
;
#X obj 40 29 cnv 10 10 10 empty empty Paresys 0 5 1 9 -4033 -1 1.04858e+06
;
#X text -8 89 Construit sous / Build under Pd 0.42.5-extended;
#X obj 39 105 pddplink http://puredata.info/downloads;
#X obj 3 42 pddplink http://pagesperso-orange.fr/Paresys/ARGOPd/;
#X obj 3 57 pddplink http://gerard.paresys.free.fr/ARGOPd/;
#X restore 312 117 pd ??;
