#N canvas 335 312 422 271 10;
#X declare -lib py;
#X obj 172 140 pix_image;
#X obj 172 162 pix_texture;
#X obj 172 184 square;
#N canvas 119 736 450 300 loadimage 0;
#X msg 166 163 open \$1;
#X obj 166 187 outlet;
#X obj 165 139 l2s;
#X obj 165 59 inlet;
#X msg 165 112 sing2text.jpg;
#X connect 0 0 1 0;
#X connect 2 0 0 0;
#X connect 3 0 4 0;
#X connect 4 0 2 0;
#X restore 148 90 pd loadimage;
#N canvas 1 247 450 326 googleimagepyext 0;
#X msg 42 199 doc+;
#X msg 36 180 reload;
#X msg 33 107 search \$1;
#X msg 116 108 stop;
#X obj 33 126 t a;
#X obj 81 278 convert.list2symbol;
#X symbolatom 81 299 40 0 0 0 - - -;
#X obj 183 218 r c\$0;
#X obj 33 146 s c\$0;
#X obj 116 129 s p\$0;
#X obj 46 218 r p\$0;
#X text 27 23 Description: Google image binding via pyext;
#X msg 321 190 detach \$1;
#X msg 321 170 1;
#X obj 321 211 s p\$0;
#X obj 207 264 bng 30 250 50 0 empty empty empty 17 7 0 10 -262144
-1 -1;
#X obj 33 62 inlet;
#X obj 36 299 outlet;
#X obj 321 150 loadbang;
#X obj 186 126 t a;
#X obj 186 146 s c\$0;
#X msg 186 107 imgsz \$1;
#X obj 186 85 l2s;
#X obj 245 264 bng 30 250 50 0 empty empty empty 17 7 0 10 -262144
-1 -1;
#X obj 36 238 pyext googleimagepyext gi;
#X obj 186 62 inlet;
#X connect 0 0 24 0;
#X connect 1 0 24 0;
#X connect 2 0 4 0;
#X connect 3 0 9 0;
#X connect 4 0 8 0;
#X connect 5 0 6 0;
#X connect 7 0 24 1;
#X connect 10 0 24 0;
#X connect 12 0 14 0;
#X connect 13 0 12 0;
#X connect 16 0 2 0;
#X connect 18 0 13 0;
#X connect 19 0 20 0;
#X connect 21 0 19 0;
#X connect 22 0 21 0;
#X connect 24 0 5 0;
#X connect 24 0 15 0;
#X connect 24 0 17 0;
#X connect 24 1 23 0;
#X connect 25 0 22 0;
#X restore 148 56 pd googleimagepyext;
#X obj 172 116 gemhead;
#X obj 22 97 import py;
#X obj 21 16 cnv 15 100 60 empty empty empty 20 12 0 14 -195568 -66577
0;
#N canvas 0 22 450 300 gemwin 0;
#X obj 132 136 gemwin;
#X obj 67 89 outlet;
#X obj 67 10 inlet;
#X msg 67 70 set destroy;
#X msg 132 112 create \, 1;
#X msg 198 112 destroy;
#X msg 156 71 set create;
#X obj 67 41 route create;
#X connect 2 0 7 0;
#X connect 3 0 1 0;
#X connect 4 0 0 0;
#X connect 5 0 0 0;
#X connect 6 0 1 0;
#X connect 7 0 3 0;
#X connect 7 0 4 0;
#X connect 7 1 6 0;
#X connect 7 1 5 0;
#X restore 26 55 pd gemwin;
#X msg 26 33 create;
#X text 22 12 Create window:;
#X symbolatom 148 30 20 0 0 0 - - -;
#X text 146 9 search google image:;
#X msg 283 29 icon;
#X msg 318 29 small;
#X msg 358 29 medium;
#X text 280 9 image size:;
#X text 20 216 more options can be added (.py) (ie: imgcolor \, imgtype):
https://developers.google.com/image-search/v1/jsondevguide;
#X connect 0 0 1 0;
#X connect 1 0 2 0;
#X connect 3 0 0 0;
#X connect 4 0 3 0;
#X connect 5 0 0 0;
#X connect 8 0 9 0;
#X connect 9 0 8 0;
#X connect 11 0 4 0;
#X connect 13 0 4 1;
#X connect 14 0 4 1;
#X connect 15 0 4 1;
