#N canvas 320 22 580 608 10;
#X obj -300 3 cnv 15 15 15 empty empty ExMM180e-DMX-GEM.pd 0 8 1 14
-262144 -66577 0;
#X obj 220 564 cnv 15 48 25 empty empty empty 20 12 0 14 -24198 -66577
0;
#N canvas 383 56 465 472 ARGO 0;
#X obj 254 39 cnv 15 60 30 empty empty empty 20 12 0 14 -24198 -66577
0;
#N canvas 402 65 405 152 Help 0;
#X text 9 25 Nbr = Nombre - Number;
#X text 21 69 - La valeur du nombre est sauvegardée avec le patch ou
est placé le MM.;
#X text 10 52 Modif par rapport a la version precedente du MM Nbr:
;
#X text 23 96 - Le nombre n'est pas sorti a l'ouverture du patch \,
il faut envoyer un bang a l'entrée du MM.;
#X restore 261 45 pd Help;
#X obj -57 -23 cnv 15 170 24 empty empty empty 20 12 0 14 -261682 -66577
0;
#X obj 100 -20 inlet;
#X obj 93 399 cnv 15 170 24 empty empty empty 20 12 0 14 -261682 -66577
0;
#X obj 98 403 outlet;
#X obj 101 101 cnv 10 132 46 empty ColorForm Nbr 107 9 1 14 -261476
-1 1.04858e+06;
#X obj 100 101 bng 12 50 50 0 \$0-A \$0-B empty 14 6 1 9 -262144 -1
-1;
#X obj 101 101 cnv 4 10 4 empty empty empty 20 12 0 14 -260097 -66577
0;
#X obj 101 143 cnv 4 10 4 empty empty empty 20 12 0 14 -260097 -66577
0;
#X obj 115 106 nbx 4 12 1 9999 0 1 \$0-A ColorTime max 40 7 1 9 -262144
-1 -1 255 256;
#X text -57 -16 Input anything message ->;
#X text -57 -26 N'importe quel message ->;
#X obj 115 130 nbx 4 12 -999 9999 0 1 \$0-A ColorTime min 40 7 1 9
-262144 -1 -1 0 256;
#X obj 232 270 random;
#X obj 231 221 -;
#X obj 191 166 + 1;
#X obj 231 246 t b f;
#X text 143 397 -> Nombre;
#X text 144 407 -> Number;
#X obj 264 296 +;
#X msg 270 209 range \$1 9999;
#X obj -46 162 + 1;
#X obj -29 326 int;
#X obj -69 326 + 1;
#X obj -46 259 int;
#X obj -46 185 t f f;
#X obj -46 234 select 1;
#X obj -46 210 >;
#X obj 175 100 vradio 12 1 1 4 \$0-A \$0-B --> 16 6 1 9 -262144 -1
-1 3;
#X obj 189 112 cnv 5 5 5 empty empty <-- 0 6 1 9 -261476 -1 0;
#X obj 189 125 cnv 5 5 5 empty empty <--> 0 6 1 9 -261476 -1 0;
#X obj 189 137 cnv 5 5 5 empty empty Alea 0 6 1 9 -261476 -1 0;
#X obj 39 364 switch 4;
#X obj 61 331 int;
#X obj 18 260 int;
#X obj 18 186 t f f;
#X obj 18 235 select 1;
#X obj 18 163 - 1;
#X obj 18 211 <;
#X obj 110 190 + 1;
#X obj 116 212 t f f;
#X obj 113 265 select 1;
#X obj 130 331 int;
#X obj 110 237 >;
#X msg 124 163 -1;
#X obj 171 263 select 1;
#X obj 171 239 <;
#X msg 159 163 1;
#X obj 109 291 t b b;
#X obj 172 290 t b b;
#X obj -42 64 >;
#X obj -42 132 int;
#X obj -42 87 select 1;
#X obj -42 41 t b f;
#X obj -103 131 int;
#X obj -103 87 select 1;
#X obj -103 42 t b f;
#X obj -103 65 <;
#X obj -103 108 delay 5;
#X obj 229 161 t b f f f f f b f;
#X obj -42 109 delay 5;
#X obj 328 184 + 1;
#X obj 100 118 nbx 4 12 -999 9999 0 1 \$0-A ColorTime empty 40 7 1
9 -262144 -1 -1 114 256;
#X msg 141 51 set \$1;
#X msg 183 78 114;
#X obj 155 -20 loadbang;
#X msg 111 51 1;
#X obj 98 377 spigot 0;
#X obj 155 3 delay 300;
#X obj 155 26 t b b b;
#X text 235 114 25 2 2012;
#X obj 298 393 cnv 15 48 25 empty empty empty 20 12 0 14 -24198 -66577
0;
#N canvas 350 196 308 136 ??? 0;
#X obj -6 87 cnv 15 300 38 empty empty empty 20 12 0 14 -224896 -66577
0;
#X obj -6 10 cnv 18 300 70 empty empty ARGOPdMiniModules 3 10 1 14
-4033 -1 1.04858e+06;
#X obj 13 31 cnv 10 10 10 empty empty Gerard 0 5 1 11 -4033 -1 1.04858e+06
;
#X obj 55 30 cnv 10 10 10 empty empty Paresys 0 5 1 11 -4033 -1 1.04858e+06
;
#X text -1 89 Construit sous / Build under Pd 0.42.5-extended;
#X obj 6 43 pddp/pddplink http://pagesperso-orange.fr/Paresys/ARGOPd/
;
#X obj 6 58 pddp/pddplink http://gerard.paresys.free.fr/ARGOPd/;
#X obj 46 105 pddp/pddplink http://puredata.info/downloads;
#X restore 302 397 pd ???;
#X connect 3 0 7 0;
#X connect 7 0 14 0;
#X connect 7 0 23 0;
#X connect 7 0 34 0;
#X connect 7 0 43 0;
#X connect 10 0 16 0;
#X connect 10 0 28 1;
#X connect 10 0 35 1;
#X connect 10 0 44 1;
#X connect 10 0 52 1;
#X connect 10 0 54 0;
#X connect 13 0 60 0;
#X connect 14 0 20 0;
#X connect 15 0 17 0;
#X connect 16 0 15 0;
#X connect 17 0 14 0;
#X connect 17 1 14 1;
#X connect 20 0 33 4;
#X connect 21 0 10 0;
#X connect 22 0 26 0;
#X connect 23 0 33 1;
#X connect 24 0 33 0;
#X connect 25 0 23 1;
#X connect 26 0 28 0;
#X connect 26 1 23 1;
#X connect 27 0 25 0;
#X connect 28 0 27 0;
#X connect 29 0 24 0;
#X connect 33 0 63 0;
#X connect 34 0 33 2;
#X connect 35 0 34 1;
#X connect 36 0 39 0;
#X connect 36 1 34 1;
#X connect 37 0 35 0;
#X connect 38 0 36 0;
#X connect 39 0 37 0;
#X connect 40 0 41 0;
#X connect 41 0 44 0;
#X connect 41 0 47 0;
#X connect 41 1 43 1;
#X connect 42 0 49 0;
#X connect 43 0 33 3;
#X connect 44 0 42 0;
#X connect 45 0 40 1;
#X connect 46 0 50 0;
#X connect 47 0 46 0;
#X connect 48 0 40 1;
#X connect 49 0 40 0;
#X connect 49 1 45 0;
#X connect 50 0 40 0;
#X connect 50 1 48 0;
#X connect 51 0 53 0;
#X connect 52 0 63 0;
#X connect 53 0 61 0;
#X connect 54 0 51 0;
#X connect 54 1 51 1;
#X connect 55 0 63 0;
#X connect 56 0 59 0;
#X connect 57 0 58 0;
#X connect 57 1 58 1;
#X connect 58 0 56 0;
#X connect 59 0 55 0;
#X connect 60 0 15 0;
#X connect 60 1 15 1;
#X connect 60 2 20 1;
#X connect 60 3 55 1;
#X connect 60 4 57 0;
#X connect 60 5 25 1;
#X connect 60 5 47 1;
#X connect 60 5 39 1;
#X connect 60 6 10 0;
#X connect 60 7 62 0;
#X connect 61 0 52 0;
#X connect 62 0 21 0;
#X connect 63 0 22 0;
#X connect 63 0 38 0;
#X connect 63 0 40 0;
#X connect 63 0 51 0;
#X connect 63 0 58 0;
#X connect 63 0 68 0;
#X connect 64 0 65 0;
#X connect 65 0 63 0;
#X connect 66 0 69 0;
#X connect 67 0 68 1;
#X connect 68 0 5 0;
#X connect 68 0 64 0;
#X connect 69 0 70 0;
#X connect 70 1 67 0;
#X connect 70 2 65 0;
#X coords 0 -1 1 1 134 48 2 100 100;
#X restore 134 58 pd ARGO;
#N canvas 358 45 421 308 ARGO 0;
#X obj 163 45 cnv 15 60 30 empty empty empty 20 12 0 14 -24198 -66577
0;
#N canvas 537 176 286 105 Help 0;
#X text 15 20 Un "Bang" sort X fois par minute.;
#X text 13 52 A "Bang" outputs X times per minute.;
#X restore 170 51 pd Help;
#X obj 100 32 inlet;
#X obj 95 249 cnv 15 170 24 empty empty empty 20 12 0 14 -261682 -66577
0;
#X obj 100 253 outlet;
#X obj 101 101 cnv 10 132 35 empty ColorForm Metronome 59 9 1 14 -208064
-1 1.04858e+06;
#X obj 100 124 bng 12 50 10 0 \$0-A \$0-B empty 14 6 1 9 -262144 -1
-1;
#X obj 101 132 cnv 4 10 4 empty empty empty 20 12 0 14 -260097 -66577
0;
#X obj 100 112 nbx 3 12 1 999 0 1 \$0-A ColorTime BPM 36 8 1 11 -208064
-1 -1 120 256;
#X obj 100 100 tgl 12 1 \$0-A \$0-B empty 17 7 0 10 -262144 -1 -1 1
1;
#X obj -93 96 cnv 15 190 20 empty empty empty 20 12 0 14 -261682 -66577
0;
#X text -92 97 1: Play 0: Stop bang: Change ->;
#X obj 101 101 cnv 4 10 4 empty empty empty 20 12 0 14 -260097 -66577
0;
#X obj 20 183 metro 300;
#X obj 71 160 expr 60000 / $f1;
#X obj 276 265 cnv 15 41 30 empty empty empty 20 12 0 14 -24198 -66577
0;
#N canvas 350 196 308 136 ?? 0;
#X obj -9 87 cnv 15 300 38 empty empty empty 20 12 0 14 -224896 -66577
0;
#X obj -9 10 cnv 18 300 70 empty empty ARGOPdMiniModules 1 10 1 14
-4033 -1 1.04858e+06;
#X obj 9 29 cnv 10 10 10 empty empty Gerard 0 5 1 9 -4033 -1 1.04858e+06
;
#X obj 40 29 cnv 10 10 10 empty empty Paresys 0 5 1 9 -4033 -1 1.04858e+06
;
#X text -8 89 Construit sous / Build under Pd 0.42.5-extended;
#X obj 39 105 pddplink http://puredata.info/downloads;
#X obj 3 42 pddplink http://pagesperso-orange.fr/Paresys/ARGOPd/;
#X obj 3 57 pddplink http://gerard.paresys.free.fr/ARGOPd/;
#X restore 280 272 pd ??;
#X text 177 83 28 5 2011;
#X text 105 286 Bang;
#X text 113 272 |;
#X text 113 277 v;
#X connect 2 0 9 0;
#X connect 6 0 4 0;
#X connect 8 0 14 0;
#X connect 9 0 13 0;
#X connect 13 0 6 0;
#X connect 14 0 13 1;
#X coords 0 -1 1 1 134 37 2 100 100;
#X restore 134 10 pd ARGO;
#X text 143 108 <- DMX Data;
#X text 163 122 0..255;
#N canvas 350 196 308 136 ??? 0;
#X obj -6 87 cnv 15 300 38 empty empty empty 20 12 0 14 -224896 -66577
0;
#X obj -6 10 cnv 18 300 70 empty empty ARGOPdMiniModules 3 10 1 14
-4033 -1 1.04858e+06;
#X obj 13 31 cnv 10 10 10 empty empty Gerard 0 5 1 11 -4033 -1 1.04858e+06
;
#X obj 55 30 cnv 10 10 10 empty empty Paresys 0 5 1 11 -4033 -1 1.04858e+06
;
#X text -1 89 Construit sous / Build under Pd 0.42.5-extended;
#X obj 6 43 pddp/pddplink http://pagesperso-orange.fr/Paresys/ARGOPd/
;
#X obj 6 58 pddp/pddplink http://gerard.paresys.free.fr/ARGOPd/;
#X obj 46 105 pddp/pddplink http://puredata.info/downloads;
#X restore 224 568 pd ???;
#X text -288 100 4 Choisir DMX Channel;
#X text -288 39 0 Installer FTDIUSBSerialDriver_10_4_10_5_10_6.mpkg
;
#X text -288 24 Sous MacOSX.6;
#X text -288 54 1 Connecter;
#X text -288 70 2 Clic List-ports ->;
#X text -288 85 3 ... choisir port 2;
#X text -288 114 5 On DMX;
#X text -288 128 6 La LED de l'interface ENTTEC clignote;
#X text -216 54 Mac -> USB -> ENTECC DMX USB PRO -> DMX -> Projecteurs
;
#X text -165 69 Si 2 /dev/tty.usbserial-EN082523 s'affiche...;
#N canvas 260 38 409 561 Control-DMX 0;
#X obj 42 78 list-replace;
#N canvas 0 25 369 312 list-creation 0;
#X obj 137 198 list append;
#X msg 236 81 231;
#X obj 137 85 until;
#X msg 137 119 0;
#X msg 38 82 126 6 1 2;
#X obj 137 235 outlet;
#X obj 118 -42 inlet;
#X msg 176 53 513;
#X obj 234 215 l;
#X obj 272 81 bng 15 250 50 0 empty empty empty 17 7 0 10 -262144 -1
-1;
#X text 294 80 Clear List;
#X msg 137 53 513;
#X obj 118 -15 t b b b b;
#X connect 0 0 5 0;
#X connect 0 0 8 0;
#X connect 1 0 0 0;
#X connect 2 0 3 0;
#X connect 3 0 0 0;
#X connect 4 0 0 0;
#X connect 6 0 12 0;
#X connect 8 0 0 1;
#X connect 9 0 0 1;
#X connect 11 0 2 0;
#X connect 12 0 4 0;
#X connect 12 1 11 0;
#X connect 12 2 1 0;
#X connect 12 3 9 0;
#X restore 203 47 pd list-creation;
#X obj 111 54 l;
#X obj 176 -29 loadbang;
#X obj 156 -30 bng 15 250 50 0 empty empty empty 17 7 0 10 -262144
-1 -1;
#X obj 172 110 cnv 1 1 1 empty ColorForm Control-DMX -1 3 1 14 -262144
-1 1.04858e+06;
#X obj 123 412 comport;
#X obj 100 100 bng 12 50 50 0 \$0-A \$0-B List-ports 15 7 1 9 -262144
-1 -1;
#X msg 126 305 devices;
#X msg 329 305 help;
#X msg 290 305 info;
#X msg 244 304 close;
#X obj -36 363 spigot 0;
#X obj 100 158 bng 12 50 50 0 \$0-A \$0-B Display-Trame 15 7 1 9 -262144
-1 -1;
#X msg -24 337 1;
#X msg 9 336 0;
#X obj -20 413 print Trame;
#X obj -38 388 t b a b;
#X obj 259 -5 cnv 15 60 30 empty empty empty 20 12 0 14 -24198 -66577
0;
#N canvas 329 49 459 595 Help 0;
#X obj 29 -4 cnv 15 400 180 empty empty empty 20 12 0 14 -233017 -66577
0;
#X text 31 -2 Citation;
#X text 10 -23 MM Control-DMX;
#X text 14 266 ATTENTION: il faut ouvrir un et un seul MiniModule "Control-DMX".
;
#X text 13 296 CAUTION: it is necessary to open one and only one MiniModule
"Control-DMX".;
#X text 12 195 Inspiration:;
#X text 12 213 Mis au point sous MacOS avec interface ENTTEC DMX USB
Pro:;
#X obj 89 195 pddp/pddplink http://wiki.labomedia.org/index.php/Pure_Data_vs_Enttec_Pro
;
#X obj 59 228 pddp/pddplink http://www.enttec.com/?main_menu=Products&pn=70304
;
#X obj 122 140 pddp/pddplink http://en.wikipedia.org/wiki/DMX512;
#X obj 120 81 pddp/pddplink http://fr.wikipedia.org/wiki/DMX_(éclairage)
;
#X text 44 15 "Le DMX512 (digital multiplexing) est un protocole de
multiplexage de données. Il est essentiellement utilisé pour le contrôle
de l'éclairage dynamique d'évènements en complément de la sonorisation
(concerts \, plateaux télé \, spectacle son & lumière).";
#X text 42 101 "DMX512 is a standard for digital communication networks
that are commonly used to control stage lighting and effects.";
#X text 16 353 0 Installer FTDIUSBSerialDriver_10_4_10_5_10_6.mpkg
;
#X text 16 338 Sous MacOSX.6;
#X text 16 368 1 Connecter;
#X text 88 369 Mac -> USB -> ENTECC DMX USB PRO -> DMX -> Projecteurs
;
#X text 16 414 4 On DMX;
#X text 16 384 2 Clic List-ports ->;
#X text 16 428 5 La LED de l'interface ENTTEC clignote;
#X text 139 384 Si 2 /dev/tty.usbserial-EN082523 s'affiche...;
#X text 16 399 3 ... choisir port 2;
#X text 16 486 1 Connecter;
#X text 16 532 4 On DMX;
#X text 16 546 5 La LED de l'interface ENTTEC clignote;
#X text 16 456 Sous Linux Ubuntu 11.1;
#X text 16 471 0 Aucun driver à installer;
#X text 88 487 PC -> USB -> ENTECC DMX USB PRO -> DMX -> Projecteurs
;
#X text 16 517 3 ... choisir port 32;
#X text 16 502 2 Clic List-ports -> Si ...32 s'affiche;
#X restore 266 1 pd Help;
#X obj 307 403 cnv 15 48 25 empty empty empty 20 12 0 14 -24198 -66577
0;
#N canvas 350 196 308 136 ??? 0;
#X obj -6 87 cnv 15 300 38 empty empty empty 20 12 0 14 -224896 -66577
0;
#X obj -6 10 cnv 18 300 70 empty empty ARGOPdMiniModules 3 10 1 14
-4033 -1 1.04858e+06;
#X obj 13 31 cnv 10 10 10 empty empty Gerard 0 5 1 11 -4033 -1 1.04858e+06
;
#X obj 55 30 cnv 10 10 10 empty empty Paresys 0 5 1 11 -4033 -1 1.04858e+06
;
#X text -1 89 Construit sous / Build under Pd 0.42.5-extended;
#X obj 6 43 pddp/pddplink http://pagesperso-orange.fr/Paresys/ARGOPd/
;
#X obj 6 58 pddp/pddplink http://gerard.paresys.free.fr/ARGOPd/;
#X obj 46 105 pddp/pddplink http://puredata.info/downloads;
#X restore 311 407 pd ???;
#X obj -16 -109 cnv 15 360 70 empty empty empty 20 12 0 14 -24198 -66577
0;
#X obj -8 -26 r \$0-DMX1;
#X obj 19 20 unpack 1 2;
#X obj 76 54 + 4;
#X text -8 -106 ATTENTION: il faut ouvrir un et un seul MiniModule
"Control-DMX".;
#X text -9 -76 CAUTION: it is necessary to open one and only one MiniModule
"Control-DMX".;
#X obj 21 306 spigot 0;
#X obj 212 414 s \$0-DMX1Trig;
#X obj 176 23 delay 500;
#X msg 89 339 0;
#X obj 100 141 bng 12 50 50 0 \$0-A \$0-B Send-0->Tranche-Open 15 7
1 9 -262144 -1 -1;
#X obj 100 129 bng 12 50 50 0 \$0-A \$0-B Send-0->512Tranches 15 7
1 9 -262144 -1 -1;
#X obj 176 -5 t b b;
#X obj -31 305 t b b;
#X obj 81 305 t b b;
#X obj -5 170 list 0;
#X obj -8 -2 t b a;
#X obj -15 78 delay 10;
#X obj 0 52 bng 15 250 50 0 empty empty empty 17 7 0 10 -262144 -1
-1;
#X obj 100 112 nbx 2 12 0 99 0 1 \$0-A \$0-B port 26 7 1 9 -262144
-1 -1 2 256;
#X obj 100 174 tgl 18 0 \$0-A \$0-B On/Off-DMX 20 11 1 14 -4033 -1
-1 1 1;
#X obj 244 273 delay 300;
#X obj 104 203 select 0 1;
#X msg 26 275 0;
#X msg 127 280 1;
#X msg 175 204 set open \$1;
#X msg 182 306 open 2;
#X obj 101 234 delay 200;
#X obj 101 258 t b b;
#X text 261 100 15 4 2012;
#X connect 0 0 2 0;
#X connect 0 0 37 1;
#X connect 1 0 0 2;
#X connect 2 0 0 2;
#X connect 3 0 34 0;
#X connect 4 0 34 0;
#X connect 7 0 8 0;
#X connect 8 0 6 0;
#X connect 9 0 6 0;
#X connect 10 0 6 0;
#X connect 11 0 6 0;
#X connect 12 0 17 0;
#X connect 13 0 35 0;
#X connect 14 0 12 1;
#X connect 15 0 12 1;
#X connect 17 0 15 0;
#X connect 17 1 16 0;
#X connect 23 0 38 0;
#X connect 24 0 0 0;
#X connect 24 1 25 0;
#X connect 25 0 0 1;
#X connect 28 0 6 0;
#X connect 30 0 29 0;
#X connect 31 0 29 0;
#X connect 32 0 36 0;
#X connect 33 0 34 0;
#X connect 33 0 31 0;
#X connect 34 0 30 0;
#X connect 34 1 1 0;
#X connect 35 0 39 0;
#X connect 35 1 14 0;
#X connect 36 0 39 0;
#X connect 36 1 31 0;
#X connect 37 0 28 0;
#X connect 37 0 12 0;
#X connect 38 0 39 0;
#X connect 38 1 24 0;
#X connect 39 0 37 0;
#X connect 40 0 39 0;
#X connect 41 0 47 0;
#X connect 42 0 44 0;
#X connect 43 0 11 0;
#X connect 44 0 43 0;
#X connect 44 0 45 0;
#X connect 44 1 48 0;
#X connect 44 1 49 0;
#X connect 45 0 28 1;
#X connect 46 0 28 1;
#X connect 47 0 48 0;
#X connect 48 0 6 0;
#X connect 49 0 50 0;
#X connect 50 0 39 0;
#X connect 50 1 46 0;
#X coords 0 -1 1 1 160 92 2 100 100;
#X restore -216 241 pd Control-DMX;
#X text -245 242 2 ->;
#X text -245 254 3 ->;
#X text 19 142 DMX Channel ->;
#X text 30 155 1..512;
#X text 45 431 0..255;
#X text 37 417 DMX Data ->;
#N canvas 519 76 274 571 T 0;
#X obj 99 432 t f b;
#X obj 100 381 nbx 3 14 0 255 0 0 \$0-A \$0-B empty 0 -8 1 10 -262144
-1 -1 114 256;
#X obj 100 106 nbx 3 14 1 512 0 1 \$0-A \$0-B empty 0 -8 1 10 -262144
-1 -1 1 256;
#X obj 126 459 int;
#X obj 100 122 vsl 33 256 0 255 0 1 \$0-A \$0-B empty 0 -9 0 10 -258049
-1 -1 11400 0;
#X obj 100 38 inlet;
#X obj 101 101 cnv 4 10 4 empty empty empty 20 12 0 14 -260097 -66577
0;
#X obj 122 101 cnv 4 10 4 empty empty empty 20 12 0 14 -260097 -66577
0;
#X obj 101 396 cnv 4 10 4 empty empty empty 20 12 0 14 -260097 -66577
0;
#X obj 122 396 cnv 4 10 4 empty empty empty 20 12 0 14 -260097 -66577
0;
#X obj 143 38 inlet;
#X obj 49 537 outlet;
#X obj 178 536 outlet;
#X msg 18 237 set \$1;
#X obj 100 409 int;
#X obj 100 72 int;
#X obj 41 353 int;
#X text 9 389 DMX Channel <-;
#X text 135 390 -> DMX Data;
#X text 21 400 1..512;
#X text 158 401 0..255;
#X text 8 95 DMX Channel ->;
#X text 136 95 <- DMX Data;
#X text 19 108 1..512;
#X text 156 109 0..255;
#X obj 99 509 pack 1 2;
#X obj 99 537 s \$0-DMX1;
#X obj 11 37 r \$0-DMX1Trig;
#X obj 139 171 cnv 15 120 30 empty empty empty 20 12 0 14 -24198 -66577
0;
#X text 147 170 A utiliser avec;
#X text 149 183 MM Control-DMX;
#X text 10 9 MM-Tranche-DMX;
#X text 148 146 9 4 2012;
#X connect 0 0 12 0;
#X connect 0 0 25 0;
#X connect 0 1 3 0;
#X connect 1 0 14 0;
#X connect 2 0 3 1;
#X connect 2 0 11 0;
#X connect 3 0 11 0;
#X connect 3 0 25 1;
#X connect 4 0 16 0;
#X connect 5 0 15 0;
#X connect 10 0 4 0;
#X connect 13 0 4 0;
#X connect 14 0 0 0;
#X connect 14 0 13 0;
#X connect 15 0 2 0;
#X connect 16 0 1 0;
#X connect 25 0 26 0;
#X connect 27 0 4 0;
#X coords 0 -1 1 1 33 301 1 100 100;
#X restore 108 139 pd T;
#N canvas 170 59 274 571 T 0;
#X obj 99 432 t f b;
#X obj 100 381 nbx 3 14 0 255 0 0 \$0-A \$0-B empty 0 -8 1 10 -262144
-1 -1 81 256;
#X obj 100 106 nbx 3 14 1 512 0 1 \$0-A \$0-B empty 0 -8 1 10 -262144
-1 -1 2 256;
#X obj 126 459 int;
#X obj 100 122 vsl 33 256 0 255 0 1 \$0-A \$0-B empty 0 -9 0 10 -4033
-1 -1 8100 0;
#X obj 100 38 inlet;
#X obj 101 101 cnv 4 10 4 empty empty empty 20 12 0 14 -260097 -66577
0;
#X obj 122 101 cnv 4 10 4 empty empty empty 20 12 0 14 -260097 -66577
0;
#X obj 101 396 cnv 4 10 4 empty empty empty 20 12 0 14 -260097 -66577
0;
#X obj 122 396 cnv 4 10 4 empty empty empty 20 12 0 14 -260097 -66577
0;
#X obj 143 38 inlet;
#X obj 49 537 outlet;
#X obj 178 536 outlet;
#X msg 18 237 set \$1;
#X obj 100 409 int;
#X obj 100 72 int;
#X obj 41 353 int;
#X text 9 389 DMX Channel <-;
#X text 135 390 -> DMX Data;
#X text 21 400 1..512;
#X text 158 401 0..255;
#X text 8 95 DMX Channel ->;
#X text 136 95 <- DMX Data;
#X text 19 108 1..512;
#X text 156 109 0..255;
#X obj 99 509 pack 1 2;
#X obj 99 537 s \$0-DMX1;
#X obj 11 37 r \$0-DMX1Trig;
#X obj 139 171 cnv 15 120 30 empty empty empty 20 12 0 14 -24198 -66577
0;
#X text 147 170 A utiliser avec;
#X text 149 183 MM Control-DMX;
#X text 10 9 MM-Tranche-DMX;
#X text 149 143 9 4 2012;
#X connect 0 0 12 0;
#X connect 0 0 25 0;
#X connect 0 1 3 0;
#X connect 1 0 14 0;
#X connect 2 0 3 1;
#X connect 2 0 11 0;
#X connect 3 0 11 0;
#X connect 3 0 25 1;
#X connect 4 0 16 0;
#X connect 5 0 15 0;
#X connect 10 0 4 0;
#X connect 13 0 4 0;
#X connect 14 0 0 0;
#X connect 14 0 13 0;
#X connect 15 0 2 0;
#X connect 16 0 1 0;
#X connect 25 0 26 0;
#X connect 27 0 4 0;
#X coords 0 -1 1 1 33 301 1 100 100;
#X restore 141 139 pd T;
#N canvas 389 50 274 571 T 0;
#X obj 99 432 t f b;
#X obj 100 381 nbx 3 14 0 255 0 0 \$0-A \$0-B empty 0 -8 1 10 -262144
-1 -1 84 256;
#X obj 100 106 nbx 3 14 1 512 0 1 \$0-A \$0-B empty 0 -8 1 10 -262144
-1 -1 3 256;
#X obj 126 459 int;
#X obj 100 122 vsl 33 256 0 255 0 1 \$0-A \$0-B empty 0 -9 0 10 -64
-262144 -1 8400 0;
#X obj 100 38 inlet;
#X obj 101 101 cnv 4 10 4 empty empty empty 20 12 0 14 -260097 -66577
0;
#X obj 122 101 cnv 4 10 4 empty empty empty 20 12 0 14 -260097 -66577
0;
#X obj 101 396 cnv 4 10 4 empty empty empty 20 12 0 14 -260097 -66577
0;
#X obj 122 396 cnv 4 10 4 empty empty empty 20 12 0 14 -260097 -66577
0;
#X obj 143 38 inlet;
#X obj 49 537 outlet;
#X obj 178 536 outlet;
#X msg 18 237 set \$1;
#X obj 100 409 int;
#X obj 100 72 int;
#X obj 41 353 int;
#X text 9 389 DMX Channel <-;
#X text 135 390 -> DMX Data;
#X text 21 400 1..512;
#X text 158 401 0..255;
#X text 8 95 DMX Channel ->;
#X text 136 95 <- DMX Data;
#X text 19 108 1..512;
#X text 156 109 0..255;
#X obj 99 509 pack 1 2;
#X obj 99 537 s \$0-DMX1;
#X obj 11 37 r \$0-DMX1Trig;
#X obj 139 171 cnv 15 120 30 empty empty empty 20 12 0 14 -24198 -66577
0;
#X text 147 170 A utiliser avec;
#X text 149 183 MM Control-DMX;
#X text 10 9 MM-Tranche-DMX;
#X text 150 141 9 4 2012;
#X connect 0 0 12 0;
#X connect 0 0 25 0;
#X connect 0 1 3 0;
#X connect 1 0 14 0;
#X connect 2 0 3 1;
#X connect 2 0 11 0;
#X connect 3 0 11 0;
#X connect 3 0 25 1;
#X connect 4 0 16 0;
#X connect 5 0 15 0;
#X connect 10 0 4 0;
#X connect 13 0 4 0;
#X connect 14 0 0 0;
#X connect 14 0 13 0;
#X connect 15 0 2 0;
#X connect 16 0 1 0;
#X connect 25 0 26 0;
#X connect 27 0 4 0;
#X coords 0 -1 1 1 33 301 1 100 100;
#X restore 174 139 pd T;
#X obj 108 449 + 1;
#X obj 141 449 + 1;
#X obj 174 450 + 1;
#X text -9 141 4 ->;
#X text -245 314 5 ->;
#N canvas 440 195 380 301 ARGO 0;
#X obj 101 101 cnv 10 144 54 empty ColorForm empty 20 12 0 14 -228856
-1 1.04858e+06;
#X obj 101 101 cnv 4 10 4 empty empty empty 20 12 0 14 -128992 -66577
0;
#X obj 162 109 cnv 10 20 10 empty ColorForm GEM-Color 1 5 1 14 -228856
-1 1.04858e+06;
#X text 76 57 gemlist;
#X obj 101 151 cnv 4 10 4 empty empty empty 20 12 0 14 -128992 -66577
0;
#X text 79 281 gemlist;
#X obj 257 190 t b f;
#X obj 197 190 t b f;
#X obj 197 218 pack 0 0 0;
#X obj 82 265 outlet;
#X obj 82 245 color;
#X obj 82 77 inlet;
#X text 125 49 Control;
#X text 135 60 Red;
#X text 174 49 Control;
#X text 178 60 Green;
#X text 220 49 Control;
#X text 228 61 Blue;
#X obj 115 120 hsl 129 12 0 100 0 1 \$0-A \$0-B 44 0 8 1 12 -258049
-262144 -262144 5722 0;
#X obj 115 132 hsl 129 12 0 100 0 1 \$0-A \$0-B 31 0 8 1 12 -4033 -262144
-262144 4066 0;
#X obj 115 144 hsl 129 12 0 100 0 1 \$0-A \$0-B 32 0 8 1 12 -64 -262144
-262144 4216 0;
#X obj 81 18 cnv 15 60 30 empty empty empty 20 12 0 14 -24198 -66577
0;
#N canvas 369 208 421 215 Help 0;
#X obj 7 -95 cnv 15 400 200 empty empty empty 20 12 0 14 -233017 -66577
0;
#X text 10 -96 Citation;
#X text 19 -59 [color] sets the colour of all subsequent shape and
vertex operations until reset by another [color]/[colorRGB] object.
If you set the alpha-value \, you will beed an [alpha] object to enable
alpha-blending;
#X text 9 -73 Description: colouring;
#X restore 88 24 pd Help;
#X obj 235 101 cnv 4 10 4 empty empty empty 20 12 0 14 -260097 -66577
0;
#X obj 191 101 cnv 4 10 4 empty empty empty 20 12 0 14 -260097 -66577
0;
#X obj 143 101 cnv 4 10 4 empty empty empty 20 12 0 14 -260097 -66577
0;
#X text 258 99 5 4 2012;
#X obj 125 77 inlet;
#X obj 174 77 inlet;
#X obj 223 77 inlet;
#X obj 322 255 cnv 15 48 25 empty empty empty 20 12 0 14 -24198 -66577
0;
#N canvas 350 196 308 136 ??? 0;
#X obj -6 87 cnv 15 300 38 empty empty empty 20 12 0 14 -224896 -66577
0;
#X obj -6 10 cnv 18 300 70 empty empty ARGOPdMiniModules 3 10 1 14
-4033 -1 1.04858e+06;
#X obj 13 31 cnv 10 10 10 empty empty Gerard 0 5 1 11 -4033 -1 1.04858e+06
;
#X obj 55 30 cnv 10 10 10 empty empty Paresys 0 5 1 11 -4033 -1 1.04858e+06
;
#X text -1 89 Construit sous / Build under Pd 0.42.5-extended;
#X obj 6 43 pddp/pddplink http://pagesperso-orange.fr/Paresys/ARGOPd/
;
#X obj 6 58 pddp/pddplink http://gerard.paresys.free.fr/ARGOPd/;
#X obj 46 105 pddp/pddplink http://puredata.info/downloads;
#X restore 326 259 pd ???;
#N canvas 795 278 198 218 color 0;
#X obj 68 186 outlet;
#X obj 68 10 inlet;
#X msg 68 141 label \$1;
#X obj 68 119 tosymbol;
#X obj 68 96 int;
#X obj 131 95 / 100;
#X obj 131 185 outlet;
#X connect 1 0 4 0;
#X connect 1 0 5 0;
#X connect 2 0 0 0;
#X connect 3 0 2 0;
#X connect 4 0 3 0;
#X connect 5 0 6 0;
#X restore 91 167 pd color;
#N canvas 795 278 198 218 color 0;
#X obj 68 186 outlet;
#X obj 68 10 inlet;
#X msg 68 141 label \$1;
#X obj 68 119 tosymbol;
#X obj 68 96 int;
#X obj 131 95 / 100;
#X obj 131 185 outlet;
#X connect 1 0 4 0;
#X connect 1 0 5 0;
#X connect 2 0 0 0;
#X connect 3 0 2 0;
#X connect 4 0 3 0;
#X connect 5 0 6 0;
#X restore 152 167 pd color;
#N canvas 795 278 198 218 color 0;
#X obj 68 186 outlet;
#X obj 68 10 inlet;
#X msg 68 141 label \$1;
#X obj 68 119 tosymbol;
#X obj 68 96 int;
#X obj 131 95 / 100;
#X obj 131 185 outlet;
#X connect 1 0 4 0;
#X connect 1 0 5 0;
#X connect 2 0 0 0;
#X connect 3 0 2 0;
#X connect 4 0 3 0;
#X connect 5 0 6 0;
#X restore 212 167 pd color;
#X connect 6 0 8 0;
#X connect 6 1 8 2;
#X connect 7 0 8 0;
#X connect 7 1 8 1;
#X connect 8 0 10 1;
#X connect 10 0 9 0;
#X connect 11 0 10 0;
#X connect 18 0 32 0;
#X connect 19 0 33 0;
#X connect 20 0 34 0;
#X connect 27 0 18 0;
#X connect 28 0 19 0;
#X connect 29 0 20 0;
#X connect 32 0 18 0;
#X connect 32 1 8 0;
#X connect 33 0 19 0;
#X connect 33 1 7 0;
#X connect 34 0 20 0;
#X connect 34 1 6 0;
#X coords 0 -1 1 1 146 56 1 100 100;
#X restore 62 499 pd ARGO;
#X obj 108 476 / 2.55;
#X obj 154 476 / 2.55;
#X obj 201 476 / 2.55;
#N canvas 262 86 718 585 ARGO 0;
#X obj 467 98 cnv 15 60 30 empty empty empty 20 12 0 14 -24198 -66577
0;
#N canvas 403 109 421 480 Help 0;
#X obj 11 -6 cnv 15 380 90 empty empty empty 20 12 0 14 -233017 -66577
0;
#X text 16 -8 Citation;
#X text 15 5 "GEM is the Graphics Environment for Multimedia. It was
originally written by Mark Danks to generate real-time computer graphics
\, especially for audio-visual compositions.";
#X text 15 55 "GEM is a collection of externals which allow the user
to create OpenGL graphics within Pd";
#X text 10 92 - Raccourcis clavier;
#X text 12 148 - En "FullScreen" taper F ou Pomme + Tab sous MacOSX...
;
#X text 120 161 taper F ou Alt + Tab sous Windows...;
#X text 120 173 taper F ou Alt + F4 sous Linux...;
#X obj 10 425 cnv 15 400 190 empty empty empty 20 12 0 14 -258113 -66577
0;
#X text 13 431 Impossible de supprimer la barre de menu sous MacOSX.5
+ Pd-0.41.4-extended;
#X text 13 457 Pas de probleme sous MacOSX.4 + Pd-0.41.4-extended;
#X text 25 513 Solution: Quitter Pd et relancer;
#X text 14 474 - Problème Windows: Quand on sort de fullscreen le dessin
des objets dans les patches est buggé (taille du texte \, HSlider décalés...)
;
#X text 26 525 Vu avec carte Matrox + Windows XP SP2 + Pd-0.41.4-extended
;
#X text 18 582 Solution: cocher Compatible;
#X text 35 317 Inconvenient: Charge CPU => la texture est calculée
(objet pix_texture) par le processeur de l'ordinateur et pas par la
carte video);
#X text 18 559 GL: énumérant non valide (répété);
#X text 18 570 OpenGL: invalid enumérant (repeat);
#X text 14 545 - Erreur dans la fenêtre Pd:;
#X text 12 265 Il faut cocher compatible avec certaines cartes video
\, de certains PC \, sous Windows...;
#X text 13 291 Compatible Off -> mode 1: TEXTURE_RECTANGLE;
#X text 13 303 Compatible On -> mode 0: TEXTURE_2D;
#X text 8 -31 - GEM On ouvre une fenetre;
#X text 134 91 g / G -> GEM On/Off;
#X text 135 105 f / F -> FullScreen On/Off;
#X text 136 118 b /B -> Menu bar On/Off;
#X text 136 132 Echap / Esc -> FullScreen Off;
#X text 15 391 16/9 = 512/288 = 1024/576 = 1152/648 = 1280/720 = 1440/810
;
#X text 9 379 16/10 = 512/320 = 1024/640 = 1152/720 = 1280x800 = 1440/900
;
#X text 343 366 = 1280/960;
#X text 20 367 4/3 = 160/120 = 320/240 = 512/384 = 640/480 = 1024x768
;
#X text 121 186 ou Echap / Esc...;
#X text 11 239 - Compatible envoie le message mode 1 ou mode 0 à tous
les objets pix_texture des autres modules;
#X restore 474 104 pd Help;
#X obj 101 101 cnv 22 183 69 empty empty GEM 5 12 1 18 -1 -262144 1.04858e+06
;
#X obj 191 154 tgl 12 1 \$0-A \$0-ColorGEM (F)ullScreen 15 7 1 11 -24198
-1 -24198 0 1;
#X obj 103 124 tgl 12 1 \$0-A \$0-ColorGEM (G)EM 15 7 1 11 -24198 -1
-24198 1 1;
#X obj 191 105 nbx 2 12 1 30 0 1 \$0-A \$0-ColorGEM Frames/sec 26 7
1 11 -24198 -1 -24198 15 256;
#X obj 191 139 tgl 12 1 \$0-A \$0-ColorGEM KeyShortCut 15 7 1 11 -24198
-1 -24198 1 1;
#X obj 283 -26 key;
#X msg 15 462 create;
#X msg 429 460 destroy;
#X msg 387 460 reset;
#X msg 296 460 fullscreen \$1;
#X msg 489 460 0;
#X obj 169 511 gemwin;
#X obj 78 251 sel 1;
#X msg 296 298 set \$1;
#X msg 95 204 set \$1;
#X msg 78 229 1;
#X msg -80 461 frame \$1;
#X obj 462 395 t b b;
#X obj 429 418 delay 200;
#X msg 64 461 dimen 320 240;
#X msg -15 463 1;
#X obj 283 11 spigot;
#X obj 70 -28 gemkeyname;
#X obj 516 391 select 0 1;
#X obj 78 178 t b f f f;
#X msg 532 438 color 16 22 16;
#X msg 517 415 color 0 22 0;
#X obj 188 67 select 65 97 70 102 76 108 71 103 66 98;
#X obj -25 -25 r SendGEM;
#X obj 517 483 s \$0-ColorGEM;
#X obj 191 124 tgl 12 1 SendMode \$0-ColorGEM Compatible 15 7 1 11
-24198 -1 -24198 0 1;
#X obj 55 68 select 27;
#X msg -21 134 0;
#X obj 103 154 hradio 12 1 1 3 \$0-A \$0-ColorGEM 320x240 39 7 1 11
-24198 -1 -24198 0;
#X obj 248 178 t b f;
#N canvas 0 22 450 300 Dimension 0;
#X obj 169 76 sel 0 1 2;
#X msg 203 141 set dimen 1280 720;
#X msg 187 183 set dimen 640 480;
#X msg 169 225 set dimen 320 240;
#X msg 198 162 label 640x480;
#X msg 213 120 label 1280x720;
#X msg 179 204 label 320x240;
#X obj 169 50 inlet;
#X obj 103 257 outlet;
#X obj 303 259 outlet;
#X connect 0 0 3 0;
#X connect 0 0 6 0;
#X connect 0 1 2 0;
#X connect 0 1 4 0;
#X connect 0 2 1 0;
#X connect 0 2 5 0;
#X connect 1 0 9 0;
#X connect 2 0 9 0;
#X connect 3 0 9 0;
#X connect 4 0 8 0;
#X connect 5 0 8 0;
#X connect 6 0 8 0;
#X connect 7 0 0 0;
#X restore 275 213 pd Dimension;
#X obj 78 325 select linux macos windows;
#X obj 55 42 mrpeach/str to_list;
#X text 150 -29 Sortir de fullscreen;
#X text 146 -19 sous Linux avec Esc ->;
#X text -70 37 Sortir de fullscreen;
#X text -82 47 sous MacOS avec Esc ->;
#X msg 345 298 set \$1;
#X msg 157 437 1;
#X obj 187 179 t b f;
#X msg 157 461 border \$1 \, menubar \$1;
#X obj 103 139 tgl 12 1 \$0-A \$0-ColorGEM (B)arMenu 15 7 1 11 -24198
-1 -24198 1 1;
#X obj 36 16 spigot;
#X obj 69 -6 == 0;
#X obj -47 68 sel f F g G b B;
#X obj 146 204 t b f b;
#X msg 185 227 1;
#X obj -21 112 t b b;
#X msg 6 158 set 1;
#X obj -32 500 cnv 15 120 30 empty empty empty 20 12 0 14 -258113 -66577
0;
#X obj -15 507 s RenderGEM;
#X obj 533 512 cnv 15 41 30 empty empty empty 20 12 0 14 -24198 -66577
0;
#N canvas 350 196 308 136 ?? 0;
#X obj -9 87 cnv 15 300 38 empty empty empty 20 12 0 14 -224896 -66577
0;
#X obj -9 10 cnv 18 300 70 empty empty ARGOPdMiniModules 1 10 1 14
-4033 -1 1.04858e+06;
#X obj 9 29 cnv 10 10 10 empty empty Gerard 0 5 1 9 -4033 -1 1.04858e+06
;
#X obj 40 29 cnv 10 10 10 empty empty Paresys 0 5 1 9 -4033 -1 1.04858e+06
;
#X text -8 89 Construit sous / Build under Pd 0.42.5-extended;
#X obj 39 105 pddplink http://puredata.info/downloads;
#X obj 3 42 pddplink http://pagesperso-orange.fr/Paresys/ARGOPd/;
#X obj 3 57 pddplink http://gerard.paresys.free.fr/ARGOPd/;
#X restore 537 519 pd ??;
#X obj 15 415 delay 300;
#X obj -15 438 delay 300;
#X msg 296 434 0;
#X obj 64 391 delay 300;
#X obj 129 361 t b b b;
#X obj 78 361 t b b b;
#X obj 78 414 spigot;
#X obj 263 298 == 0;
#X obj 78 275 t b b b b;
#X obj 78 302 zexy/operating_system;
#X obj 122 68 select 27;
#X text 293 101 2 8 2011;
#X connect 3 0 52 0;
#X connect 4 0 26 0;
#X connect 5 0 18 0;
#X connect 6 0 23 1;
#X connect 7 0 23 0;
#X connect 7 0 33 0;
#X connect 7 0 70 0;
#X connect 8 0 13 0;
#X connect 9 0 13 0;
#X connect 10 0 13 0;
#X connect 11 0 13 0;
#X connect 12 0 13 0;
#X connect 14 0 68 0;
#X connect 14 1 19 0;
#X connect 15 0 62 0;
#X connect 16 0 17 0;
#X connect 17 0 14 0;
#X connect 18 0 13 0;
#X connect 19 0 20 0;
#X connect 19 1 12 0;
#X connect 20 0 9 0;
#X connect 21 0 13 0;
#X connect 22 0 13 0;
#X connect 22 0 57 0;
#X connect 23 0 29 0;
#X connect 24 0 50 0;
#X connect 24 1 49 0;
#X connect 25 0 28 0;
#X connect 25 1 27 0;
#X connect 26 0 17 0;
#X connect 26 1 16 0;
#X connect 26 3 25 0;
#X connect 27 0 31 0;
#X connect 28 0 31 0;
#X connect 29 2 3 0;
#X connect 29 3 3 0;
#X connect 29 6 4 0;
#X connect 29 7 4 0;
#X connect 29 8 48 0;
#X connect 29 9 48 0;
#X connect 30 0 4 0;
#X connect 33 0 54 0;
#X connect 34 0 3 0;
#X connect 35 0 36 0;
#X connect 36 0 17 0;
#X connect 36 1 37 0;
#X connect 37 0 35 0;
#X connect 37 1 21 0;
#X connect 38 0 65 0;
#X connect 38 1 64 0;
#X connect 38 2 65 0;
#X connect 39 0 33 0;
#X connect 44 0 45 0;
#X connect 45 0 47 0;
#X connect 46 0 17 0;
#X connect 46 1 44 0;
#X connect 47 0 13 0;
#X connect 48 0 46 0;
#X connect 49 0 39 0;
#X connect 49 0 51 0;
#X connect 50 0 49 1;
#X connect 51 0 3 0;
#X connect 51 1 3 0;
#X connect 51 2 4 0;
#X connect 51 3 4 0;
#X connect 51 4 48 0;
#X connect 51 5 48 0;
#X connect 52 0 17 0;
#X connect 52 1 15 0;
#X connect 52 1 67 0;
#X connect 52 2 53 0;
#X connect 53 0 6 0;
#X connect 54 0 34 0;
#X connect 54 1 55 0;
#X connect 55 0 48 0;
#X connect 55 0 45 0;
#X connect 60 0 8 0;
#X connect 60 0 61 0;
#X connect 61 0 22 0;
#X connect 62 0 11 0;
#X connect 63 0 60 0;
#X connect 63 0 21 0;
#X connect 64 0 63 0;
#X connect 64 1 45 0;
#X connect 64 2 62 0;
#X connect 65 0 60 0;
#X connect 65 1 62 0;
#X connect 65 2 66 0;
#X connect 66 0 21 0;
#X connect 67 0 66 1;
#X connect 68 0 69 0;
#X connect 68 1 10 0;
#X connect 68 2 9 0;
#X connect 68 3 12 0;
#X connect 69 0 38 0;
#X connect 70 0 54 0;
#X coords 0 -1 1 1 185 71 1 100 100;
#X restore -296 468 pd ARGO;
#N canvas 423 177 281 233 ARGO 0;
#X obj 101 101 cnv 10 164 17 empty ColorForm empty 20 12 0 14 -228856
-1 1.04858e+06;
#X obj 189 105 cnv 10 20 10 empty ColorForm GEM-Head 1 5 1 14 -228856
-1 1.04858e+06;
#X obj 101 114 cnv 4 10 4 empty empty empty 20 12 0 14 -128992 -66577
0;
#X text 84 119 gemlist;
#X obj 113 101 nbx 3 12 1 100 0 1 \$0-A \$0-B Render 33 7 1 9 -262144
-1 -1 50 256;
#X obj 101 169 gemhead;
#X msg 134 134 set \$1;
#X obj 101 200 outlet;
#X obj 101 19 r \$0-SendOnOff;
#X obj 101 101 tgl 12 1 \$0-A \$0-B empty 15 7 1 9 -262144 -1 -1 1
1;
#X obj 101 47 sel 0;
#X msg 101 74 0;
#X text 40 98 On/Off ->;
#X obj 199 34 cnv 15 60 30 empty empty empty 20 12 0 14 -24198 -66577
0;
#N canvas 642 261 453 329 Help 0;
#X obj 5 56 cnv 15 430 200 empty empty empty 20 12 0 14 -233017 -66577
0;
#X text 8 56 Citation;
#X text 6 26 GEM-Head;
#X text 15 125 gemhead takes an argument to determine when it receives
the render command. The default value is 50 The lower the value is
\, the sooner the gemhead will receive the rendering command (a value
of 1 is the lowest possible value (see below)). This value becomes
important when you are doing alpha blending and for certain objects
(such as light).;
#X text 17 213 gemhead also accepts a 1 or 0 to enable and disable
rendering for the chain.;
#X text 15 76 gemhead connects the gem objects to the window manager.
The start of any gemList begins with the gemhead. Without the gemhead
\, gem objects will not receive the render command.;
#X restore 206 40 pd Help;
#X obj 219 174 cnv 15 41 30 empty empty empty 20 12 0 14 -24198 -66577
0;
#N canvas 350 196 381 103 ? 0;
#X obj 5 49 cnv 15 370 38 empty empty empty 20 12 0 14 -224896 -66577
0;
#X text 6 65 Voir/Look at: http://puredata.info/downloads;
#X obj 4 12 cnv 18 370 30 empty empty ARGOPdMiniModules 1 10 1 14 -4033
-1 1.04858e+06;
#X obj 7 31 cnv 10 10 10 empty empty Gerard 0 5 1 9 -4033 -1 1.04858e+06
;
#X obj 38 31 cnv 10 10 10 empty empty Paresys 0 5 1 9 -4033 -1 1.04858e+06
;
#X obj 175 20 cnv 10 10 10 empty empty http://pagesperso-orange.fr/Paresys/ARGOPd/
0 5 1 9 -4033 -1 1.04858e+06;
#X obj 175 31 cnv 10 10 10 empty empty http://gerard.paresys.free.fr/ARGOPd/
0 5 1 9 -4033 -1 1.04858e+06;
#X text 6 51 Construit sous / Build under Pd 0.41.4-extended;
#X restore 225 181 pd ?;
#X text 214 82 25 3 2010;
#X connect 4 0 6 0;
#X connect 5 0 7 0;
#X connect 6 0 5 0;
#X connect 8 0 10 0;
#X connect 9 0 5 0;
#X connect 10 0 11 0;
#X connect 11 0 9 0;
#X coords 0 -1 1 1 166 19 1 100 100;
#X restore -106 468 pd ARGO;
#N canvas 404 91 350 315 ARGO 0;
#X text 80 84 gemlist;
#X obj 93 229 pix_texture;
#X obj 95 -3 inlet;
#X msg 250 198 quality \$1;
#X obj 136 20 select 0 1;
#X msg 152 68 0;
#X msg 110 68 set 0;
#X msg 48 108 set \$1;
#X obj 101 101 cnv 10 144 40 empty ColorForm empty 20 12 0 14 -228856
-1 1.04858e+06;
#X obj 101 101 cnv 4 10 4 empty empty empty 20 12 0 14 -128992 -66577
0;
#X obj 164 105 cnv 10 20 10 empty ColorForm GEM-Direct 1 5 1 14 -228856
-1 1.04858e+06;
#X obj 100 118 tgl 12 1 \$0-A ColorGEM Quality 15 6 1 9 -262144 -1
-1 0 1;
#X obj 100 106 tgl 12 1 \$0-A ColorGEM On/Off 15 6 1 9 -262144 -1 -1
1 1;
#X obj 159 199 int;
#X obj 136 -3 r \$0-SendOnOff;
#X obj 187 44 delay 1000;
#X obj 119 44 delay 1000;
#X obj 4 238 cnv 15 60 30 empty empty empty 20 12 0 14 -24198 -66577
0;
#N canvas 379 113 451 562 Help 0;
#X obj 13 281 cnv 15 400 150 empty empty empty 20 12 0 14 -258113 -66577
0;
#X text 16 284 - Erreur dans la fenêtre Pd:;
#X text 28 337 Se produit avec certaines cartes video \, de certains
PC \, sous Windows...;
#X text 28 365 Inconvenient: Charge CPU => la texture est calculée
(objet pix_texture) par le processeur de l'ordinateur et pas par la
carte video);
#X text 28 302 GL: énumérant non valide (répété);
#X text 28 313 OpenGL: invalid enumérant (repeat);
#X obj 13 35 cnv 15 430 180 empty empty empty 20 12 0 14 -233017 -66577
0;
#X text 28 51 Description: apply texture mapping;
#X text 27 69 Send a quality message to change the quality of the texture
mapping. GL_LINEAR is better than GL_NEAREST (but also more computationally
expensive). However \, on many machines (especially SGIs) \, there
is no speed difference.;
#X text 26 128 [pix_texture] tries to use the fastest way to get a
pix onto a texture. This implies using "rectangle"-texturing if available.
This \, in turn \, can lead to some problems with several geos. Try
using "rectangle 0" if you experience problems. Rectangle textures
cannot be REPEATed (they are always clamped-to-edge);
#X text 17 35 Citation;
#X text 15 -18 Envoie l'entrée remplir la fenêtre GEM;
#X text 15 -5 Send the input fill the GEM window;
#X text 4 -42 GEM-Direct;
#X text 28 325 Solution: cocher Compatible dans MM-GEM;
#X text 27 246 Utile avec certaines cartes video de certains PC sous
Windows...;
#X text 27 219 SendMode recu du MM GEM: Compatible = mode 0/1 = rectangle
0/1;
#X text 21 438 Nouveau depuis GEM-Direct 25 3 2010:;
#X text 31 451 - Ajout spigot sur l'entrée;
#X text 31 463 - Flip;
#X text 31 474 - Neg;
#X text 15 11 Neg = Négatif = Negative;
#X text 18 488 Nouveau depuis GEM-Direct 18 8 2011:;
#X text 32 504 - message rectangle au lieu de mode;
#X restore 11 244 pd Help;
#X obj 14 122 == 0;
#X obj 14 36 r SendMode;
#X obj 14 102 nbx 1 14 -1e+37 1e+37 0 1 empty empty empty 0 -6 0 10
-262144 -1 -1 0 256;
#X obj 92 142 spigot;
#X obj 162 130 hradio 12 1 1 4 \$0-A \$0-B 4x3 51 7 1 11 -262144 -1
-1 1;
#N canvas 303 128 648 228 Dimension 0;
#X obj 157 30 inlet;
#X obj 215 196 outlet;
#X obj -24 192 outlet;
#X msg 213 113 label 4x3;
#X msg 279 113 label 16x10;
#X msg 358 114 label 16x9;
#X text 248 25 4/3 = 5.33333333/4;
#X text 236 37 16/10 = 6.4/4;
#X text 242 49 16/9 = 7.11111111/4;
#X msg -157 111 5.33333;
#X msg -102 111 6.4;
#X msg -70 111 7.11111;
#X obj -41 29 inlet;
#X obj 75 31 inlet;
#X text -65 1 Flip Horizontal;
#X text 54 3 Flip Vertical;
#X obj 81 191 outlet;
#X text -32 13 0/1;
#X text 83 15 0/1;
#X obj 75 55 select 0 1;
#X msg 72 112 4;
#X msg 109 112 -4;
#X obj -24 166 *;
#X obj -41 54 select 0 1;
#X msg -14 111 1;
#X msg 22 111 -1;
#X text 248 61 3/4 = 3/4;
#X msg 145 113 label 3x4;
#X obj 157 56 sel 0 1 2 3;
#X msg -188 111 3;
#X obj -13 141 t b f;
#X connect 0 0 28 0;
#X connect 3 0 1 0;
#X connect 4 0 1 0;
#X connect 5 0 1 0;
#X connect 9 0 22 0;
#X connect 10 0 22 0;
#X connect 11 0 22 0;
#X connect 12 0 23 0;
#X connect 13 0 19 0;
#X connect 19 0 20 0;
#X connect 19 1 21 0;
#X connect 20 0 16 0;
#X connect 21 0 16 0;
#X connect 22 0 2 0;
#X connect 23 0 24 0;
#X connect 23 1 25 0;
#X connect 24 0 30 0;
#X connect 25 0 30 0;
#X connect 27 0 1 0;
#X connect 28 0 29 0;
#X connect 28 0 27 0;
#X connect 28 1 9 0;
#X connect 28 1 3 0;
#X connect 28 2 10 0;
#X connect 28 2 4 0;
#X connect 28 3 11 0;
#X connect 28 3 5 0;
#X connect 29 0 22 0;
#X connect 30 0 22 0;
#X connect 30 1 22 1;
#X restore 135 257 pd Dimension;
#X obj 94 284 rectangle 4 4;
#X obj 100 130 tgl 12 1 \$0-A \$0-B empty 15 6 1 9 -262144 -1 -1 0
1;
#X obj 112 130 tgl 12 1 \$0-A \$0-B Flip 15 7 1 9 -262144 -1 -1 0 1
;
#X obj 273 271 cnv 15 48 25 empty empty empty 20 12 0 14 -24198 -66577
0;
#X msg 10 198 rectangle \$1;
#N canvas 350 196 308 136 ??? 0;
#X obj -6 87 cnv 15 300 38 empty empty empty 20 12 0 14 -224896 -66577
0;
#X obj -6 10 cnv 18 300 70 empty empty ARGOPdMiniModules 3 10 1 14
-4033 -1 1.04858e+06;
#X obj 13 31 cnv 10 10 10 empty empty Gerard 0 5 1 11 -4033 -1 1.04858e+06
;
#X obj 55 30 cnv 10 10 10 empty empty Paresys 0 5 1 11 -4033 -1 1.04858e+06
;
#X text -1 89 Construit sous / Build under Pd 0.42.5-extended;
#X obj 6 43 pddp/pddplink http://pagesperso-orange.fr/Paresys/ARGOPd/
;
#X obj 6 58 pddp/pddplink http://gerard.paresys.free.fr/ARGOPd/;
#X obj 46 105 pddp/pddplink http://puredata.info/downloads;
#X restore 277 275 pd ???;
#X text 204 84 5 4 2012;
#X obj 162 118 hradio 12 1 1 3 \$0-A \$0-B Normal 38 7 1 11 -262144
-1 -1 0;
#N canvas 588 245 450 300 env 0;
#X msg 4 198 env 5;
#X msg 49 197 env 2;
#X obj 138 75 pipe 500;
#X text 211 84 sous Linux;
#X text 193 74 <- Sinon plantage;
#X text 212 94 et Pd-extended-42.5;
#X msg 342 93 env \$1;
#X obj 341 72 nbx 5 14 -1e+37 1e+37 0 0 empty empty empty 0 -8 0 10
-262144 -1 -1 0 256;
#X obj 341 50 bng 15 250 50 0 empty empty empty 17 7 0 10 -262144 -1
-1;
#X obj 138 98 sel 0 1 2;
#X msg 92 197 env 3;
#X msg 174 198 label Normal;
#X msg 260 199 label Negative;
#X msg 357 200 label White;
#X obj 140 19 inlet;
#X obj 264 244 outlet;
#X obj 88 241 outlet;
#X connect 0 0 16 0;
#X connect 1 0 16 0;
#X connect 2 0 9 0;
#X connect 6 0 16 0;
#X connect 7 0 6 0;
#X connect 8 0 7 0;
#X connect 9 0 0 0;
#X connect 9 0 11 0;
#X connect 9 1 1 0;
#X connect 9 1 12 0;
#X connect 9 2 10 0;
#X connect 9 2 13 0;
#X connect 10 0 16 0;
#X connect 11 0 15 0;
#X connect 12 0 15 0;
#X connect 13 0 15 0;
#X connect 14 0 2 0;
#X restore 198 197 pd env;
#X connect 1 0 25 0;
#X connect 2 0 22 0;
#X connect 3 0 1 0;
#X connect 4 0 16 0;
#X connect 4 1 15 0;
#X connect 5 0 1 0;
#X connect 6 0 12 0;
#X connect 7 0 12 0;
#X connect 11 0 3 0;
#X connect 12 0 13 0;
#X connect 12 0 22 1;
#X connect 13 0 1 0;
#X connect 13 0 7 0;
#X connect 14 0 4 0;
#X connect 15 0 13 0;
#X connect 16 0 5 0;
#X connect 16 0 6 0;
#X connect 19 0 29 0;
#X connect 20 0 21 0;
#X connect 21 0 19 0;
#X connect 22 0 1 0;
#X connect 23 0 24 2;
#X connect 24 0 25 1;
#X connect 24 1 25 2;
#X connect 24 2 23 0;
#X connect 26 0 24 0;
#X connect 27 0 24 1;
#X connect 29 0 1 0;
#X connect 32 0 33 0;
#X connect 33 0 1 0;
#X connect 33 1 32 0;
#X coords 0 -1 1 1 146 42 1 100 100;
#X restore 62 561 pd ARGO;
#X connect 2 0 24 1;
#X connect 3 0 2 0;
#X connect 24 0 27 0;
#X connect 24 1 33 0;
#X connect 25 0 28 0;
#X connect 25 1 34 0;
#X connect 26 0 29 0;
#X connect 26 1 35 0;
#X connect 27 0 25 0;
#X connect 28 0 26 0;
#X connect 32 0 38 0;
#X connect 33 0 32 1;
#X connect 34 0 32 2;
#X connect 35 0 32 3;
#X connect 37 0 32 0;
