#N canvas 348 22 371 423 10;
#X obj -76 69 dac~ 1 2;
#N canvas 608 166 249 182 ARGOnOff 0;
#X obj 100 100 tgl 18 1 \$0-SendOnOff \$0-ReceiveOnOff On/Off 20 9
0 12 -4033 -1 -1 1 1;
#X obj 99 39 loadbang;
#X msg 99 62 \; pd dsp 1;
#X obj 100 129 outlet;
#X connect 0 0 3 0;
#X connect 1 0 2 0;
#X coords 0 -1 1 1 65 18 2 100 100;
#X restore 45 -310 pd ARGOnOff;
#X obj 45 -285 switch~;
#X obj -218 -320 cnv 15 15 15 empty empty ExMM67c-Reverb2/2.pd 0 8
1 14 -262144 -66577 0;
#X text -73 -257 Audio player 2 channels 2 outputs;
#N canvas 413 140 402 279 ARGO 0;
#X obj 101 101 cnv 10 88 41 \$0-A \$0-B empty 20 12 0 14 -1 -1 1.04858e+06
;
#X obj 101 109 nbx 4 12 0 1e+37 0 0 \$0 \$0-ReceiveCpuPeak CPUPeak
42 7 1 10 -24198 -1 -24198 16 256;
#X obj 101 122 nbx 4 12 0 1e+37 0 0 \$0 \$0-ReceiveCpuMean CPUMean
42 7 1 10 -24198 -1 -24198 15.56 256;
#X text 141 83 5 3 2009;
#X obj 145 -55 cputime;
#X obj 145 -76 t b b;
#X text 188 24 (c) musil@iem.kug.ac.at;
#X text 230 37 IEM KUG;
#X text 78 18 CPU-load;
#X obj 144 -125 loadbang;
#X text 205 48 graz \, austria 2001;
#X obj 145 -100 metro 500;
#X obj 145 -34 * 0.2;
#X text 237 -88 -dsp-load in %;
#X text 228 -101 measure average- and peak-;
#X obj 37 18 * 100;
#X obj 37 63 int;
#X obj 37 41 + 0.499;
#X obj 37 86 * 0.01;
#N canvas 524 162 422 273 1p1zmodif 0;
#X text 134 89 (c) musil@iem.kug.ac.at;
#X text 179 99 IEM KUG;
#X obj 14 195 +;
#X text 151 108 graz \, austria 2001;
#X text 135 71 y[n] = a0*x[n] + a1*x[n-1] + b1*y[n-1];
#X text 18 13 x[n];
#X text 16 244 y[n];
#X text 84 111 y[n-1];
#X text 134 56 <float> control-IIR-filter 1.order;
#X obj 15 28 inlet;
#X obj 14 228 outlet;
#X obj 15 112 * 0.1;
#X obj 59 156 * 0.9;
#X text 139 144 a1 = 0;
#X text 139 155 b1 = 0.9;
#X text 139 133 a0 = 0.1;
#X obj 15 50 t f b;
#X text 135 40 Inspiré de 1p1z;
#X obj 59 112 f 0;
#X connect 2 0 10 0;
#X connect 2 0 18 1;
#X connect 9 0 16 0;
#X connect 11 0 2 0;
#X connect 12 0 2 1;
#X connect 16 0 11 0;
#X connect 16 1 18 0;
#X connect 18 0 12 0;
#X restore 37 -8 pd 1p1zmodif;
#X text 146 9 Inspiré de 5.reference/iemabs/help-dsp.pd;
#X connect 4 0 12 0;
#X connect 5 0 4 0;
#X connect 5 1 4 1;
#X connect 9 0 11 0;
#X connect 11 0 5 0;
#X connect 12 0 19 0;
#X connect 12 0 1 0;
#X connect 15 0 17 0;
#X connect 16 0 18 0;
#X connect 17 0 16 0;
#X connect 18 0 2 0;
#X connect 19 0 15 0;
#X coords 0 -1 1 1 90 43 1 100 100;
#X restore 54 -163 pd ARGO;
#N canvas 172 173 382 310 ARGO 0;
#X text 12 234 peakamp~;
#X text 11 247 cyclone library;
#X text 12 262 http://suita.chopin.edu.pl/~czaja/miXed/externs/cyclone.html
;
#X text 12 275 pas de help \, dans Pd-extended. Voir doc Max/MSP MSP46ReferenceManual.pdf
;
#X obj 101 101 cnv 30 32 129 empty empty empty 20 12 0 14 -261299 -66577
0;
#X obj 101 101 cnv 4 10 4 empty empty empty 20 12 0 14 -1 -66577 0
;
#X obj 102 108 vu 8 120 \$0-B empty 0 0 1 9 -262144 -1 1 0;
#X obj 75 30 env~;
#X obj 115 4 inlet~;
#X obj 74 53 - 100;
#X obj 114 53 env~;
#X obj 113 76 - 100;
#X obj 115 31 peakamp~ 1000;
#X connect 7 0 9 0;
#X connect 8 0 7 0;
#X connect 8 0 12 0;
#X connect 9 0 6 0;
#X connect 10 0 11 0;
#X connect 11 0 6 1;
#X connect 12 0 10 0;
#X coords 0 -1 1 1 34 131 2 100 100;
#X restore 21 -43 pd ARGO;
#N canvas 172 173 382 310 ARGO 0;
#X text 12 234 peakamp~;
#X text 11 247 cyclone library;
#X text 12 262 http://suita.chopin.edu.pl/~czaja/miXed/externs/cyclone.html
;
#X text 12 275 pas de help \, dans Pd-extended. Voir doc Max/MSP MSP46ReferenceManual.pdf
;
#X obj 101 101 cnv 30 32 129 empty empty empty 20 12 0 14 -261299 -66577
0;
#X obj 101 101 cnv 4 10 4 empty empty empty 20 12 0 14 -1 -66577 0
;
#X obj 102 108 vu 8 120 \$0-B empty 0 0 1 9 -262144 -1 1 0;
#X obj 75 30 env~;
#X obj 115 4 inlet~;
#X obj 74 53 - 100;
#X obj 114 53 env~;
#X obj 113 76 - 100;
#X obj 115 31 peakamp~ 1000;
#X connect 7 0 9 0;
#X connect 8 0 7 0;
#X connect 8 0 12 0;
#X connect 9 0 6 0;
#X connect 10 0 11 0;
#X connect 11 0 6 1;
#X connect 12 0 10 0;
#X coords 0 -1 1 1 34 131 2 100 100;
#X restore 32 -43 pd ARGO;
#N canvas 350 62 368 392 ARGO 0;
#X obj 101 101 cnv 20 104 34 empty ColorAmpli empty 20 12 0 14 -261299
-1 1.04858e+06;
#X obj 85 274 outlet~;
#X obj 134 104 cnv 10 20 10 empty ColorAmpli Ampli 1 5 1 14 -261299
-1 1.04858e+06;
#X obj 89 -82 inlet~;
#X obj 85 245 *~;
#X obj 103 118 hsl 101 12 0 1.25 0 1 \$0-A ColorAmpli -3dB 0 7 1 9
-261299 -1 -1 7700 0;
#X obj 100 201 /~ 10000;
#X msg 115 77 label \$1;
#X obj 114 54 tosymbol;
#X obj 115 -45 * 80;
#X obj 115 -23 - 80;
#X obj 114 19 sprintf %ddB;
#X obj 101 101 cnv 4 10 4 empty empty empty 20 12 0 14 -1 -66577 0
;
#X obj 101 131 cnv 4 10 4 empty empty empty 20 12 0 14 -1 -66577 0
;
#X text 123 36 -> -80dB..20dB;
#X text 120 0 -> -80 .. 20;
#X text 104 139 -> 0..1.2;
#X text 109 179 -> 1..100000;
#X text 104 221 -> 0.0001..10 = -80dB..20dB;
#X obj 195 101 cnv 4 10 4 empty empty empty 20 12 0 14 -1 -66577 0
;
#X obj 195 131 cnv 4 10 4 empty empty empty 20 12 0 14 -1 -66577 0
;
#X obj 210 273 outlet~;
#X obj 214 -83 inlet~;
#X obj 210 244 *~;
#X text 217 160 <- compatibility 0.42.5;
#X text 221 83 1 2 2010;
#X obj 100 161 cyclone/pow~ 10000;
#X obj 235 -30 cnv 15 41 30 empty empty empty 20 12 0 14 -24198 -66577
0;
#N canvas 363 389 381 103 ? 0;
#X obj 5 49 cnv 15 370 38 empty empty empty 20 12 0 14 -224896 -66577
0;
#X text 6 65 Voir/Look at: http://puredata.info/downloads;
#X obj 4 12 cnv 18 370 30 empty empty ARGOPdMiniModules 1 10 1 14 -4033
-1 1.04858e+06;
#X obj 7 31 cnv 10 10 10 empty empty Gerard 0 5 1 9 -4033 -1 1.04858e+06
;
#X obj 38 31 cnv 10 10 10 empty empty Paresys 0 5 1 9 -4033 -1 1.04858e+06
;
#X obj 175 20 cnv 10 10 10 empty empty http://pagesperso-orange.fr/Paresys/ARGOPd/
0 5 1 9 -4033 -1 1.04858e+06;
#X obj 175 31 cnv 10 10 10 empty empty http://gerard.paresys.free.fr/ARGOPd/
0 5 1 9 -4033 -1 1.04858e+06;
#X text 6 51 Construit sous / Build under Pd 0.41.4-extended;
#X restore 241 -23 pd ?;
#X connect 3 0 4 0;
#X connect 4 0 1 0;
#X connect 5 0 9 0;
#X connect 5 0 26 0;
#X connect 6 0 4 1;
#X connect 6 0 23 1;
#X connect 7 0 5 0;
#X connect 8 0 7 0;
#X connect 9 0 10 0;
#X connect 10 0 11 0;
#X connect 11 0 8 0;
#X connect 22 0 23 0;
#X connect 23 0 21 0;
#X connect 26 0 6 0;
#X coords 0 -1 1 1 106 36 1 100 100;
#X restore -77 -100 pd ARGO;
#N canvas 312 168 308 257 ARGO 0;
#X obj 101 101 cnv 10 139 29 empty ColorForm 1-Pulse 91 9 1 14 -208064
-1 1.04858e+06;
#X obj 101 126 cnv 4 10 4 empty empty empty 20 12 0 14 -1 -66577 0
;
#X obj 100 113 nbx 6 12 0 999999 0 1 \$0-A ColorTime ms 53 7 1 9 -208064
-1 -1 0.23 256;
#X obj 85 231 outlet~;
#X obj -17 51 cnv 15 60 30 empty empty empty 20 12 0 14 -24198 -66577
0;
#N canvas 161 113 425 238 Help 0;
#X obj 10 38 cnv 15 400 120 empty empty empty 20 12 0 14 -233017 -66577
0;
#X text 14 40 Citation;
#X text 10 6 1 pulse generator;
#X text 28 57 The vline~ object \, like line~ \, generates linear ramps
whose levels and timing are determined by messages you send it. The
messages consist of a target value \, a time interval (zero if not
supplied) \, and an initial delay (also zero if not supplied.) Ramps
may start and stop between audio samples \, in which case the output
is interpolated accordingly.;
#X restore -10 57 pd Help;
#X text 178 82 31 10 2010;
#X obj 188 207 cnv 15 41 30 empty empty empty 20 12 0 14 -24198 -66577
0;
#N canvas 350 196 308 136 ?? 0;
#X obj -9 87 cnv 15 300 38 empty empty empty 20 12 0 14 -224896 -66577
0;
#X obj -9 10 cnv 18 300 70 empty empty ARGOPdMiniModules 1 10 1 14
-4033 -1 1.04858e+06;
#X obj 9 29 cnv 10 10 10 empty empty Gerard 0 5 1 9 -4033 -1 1.04858e+06
;
#X obj 40 29 cnv 10 10 10 empty empty Paresys 0 5 1 9 -4033 -1 1.04858e+06
;
#X text -8 89 Construit sous / Build under Pd 0.42.5-extended;
#X obj 39 105 pddplink http://puredata.info/downloads;
#X obj 3 42 pddplink http://pagesperso-orange.fr/Paresys/ARGOPd/;
#X obj 3 57 pddplink http://gerard.paresys.free.fr/ARGOPd/;
#X restore 192 214 pd ??;
#X obj 85 202 vline~;
#X msg 85 180 1 \, 0 0 \$1;
#X obj 85 158 f;
#X obj 89 48 inlet;
#X obj 100 101 bng 12 50 50 0 \$0-A \$0-B empty 14 6 1 9 -262144 -1
-1;
#X obj 101 101 cnv 4 10 4 empty empty empty 20 12 0 14 -260097 -66577
0;
#X text -57 101 Input anything message ->;
#X text -57 91 N'importe quel message ->;
#X connect 2 0 11 1;
#X connect 9 0 3 0;
#X connect 10 0 9 0;
#X connect 11 0 10 0;
#X connect 12 0 13 0;
#X connect 13 0 11 0;
#X coords 0 -1 1 1 141 31 1 100 100;
#X restore -172 -293 pd ARGO;
#X text -221 -297 Clic ->;
#X text -221 -238 Clic ->;
#X obj 99 60 cnv 15 41 30 empty empty empty 20 12 0 14 -24198 -66577
0;
#N canvas 350 196 308 136 ?? 0;
#X obj -9 87 cnv 15 300 38 empty empty empty 20 12 0 14 -224896 -66577
0;
#X obj -9 10 cnv 18 300 70 empty empty ARGOPdMiniModules 1 10 1 14
-4033 -1 1.04858e+06;
#X obj 9 29 cnv 10 10 10 empty empty Gerard 0 5 1 9 -4033 -1 1.04858e+06
;
#X obj 40 29 cnv 10 10 10 empty empty Paresys 0 5 1 9 -4033 -1 1.04858e+06
;
#X text -8 89 Construit sous / Build under Pd 0.42.5-extended;
#X obj 39 105 pddplink http://puredata.info/downloads;
#X obj 3 42 pddplink http://pagesperso-orange.fr/Paresys/ARGOPd/;
#X obj 3 57 pddplink http://gerard.paresys.free.fr/ARGOPd/;
#X restore 103 67 pd ??;
#N canvas 400 185 722 461 ARGO 0;
#X obj 368 103 cnv 10 20 10 empty empty Play 1 5 1 14 -262144 -1 1.04858e+06
;
#X obj 101 130 cnv 4 10 4 empty empty empty 20 12 0 14 -1 -66577 0
;
#X obj 81 439 outlet~;
#X obj -13 64 openpanel;
#X msg 212 352 1;
#X msg 141 326 0;
#X msg 25 107 set \$1;
#X msg 253 354 open \$1;
#X obj 197 291 t b b;
#X msg 211 418 set 0;
#X obj 177 193 sel 1 0;
#X floatatom 230 231 5 0 0 0 - - -;
#X msg 230 208 set \$1;
#X obj 204 261 sel 1;
#X msg 110 361 set 1;
#X obj 185 6 key;
#X obj 186 29 select 32;
#X obj 42 7 loadbang;
#X obj 228 383 readsf~ 2;
#X obj -12 84 t b s;
#X obj 151 100 tgl 12 1 \$0-A \$0-B Play(Space) 14 6 1 9 -262144 -1
-1 0 1;
#X obj 311 100 bng 12 250 50 0 \$0-A \$0-B Stop 14 6 1 9 -262144 -1
-1;
#X obj 249 100 tgl 12 1 \$0-A \$0-B Loop 15 6 1 9 -262144 -1 -1 1 1
;
#X obj 349 436 outlet~;
#X obj 389 130 cnv 4 10 4 empty empty empty 20 12 0 14 -1 -66577 0
;
#X obj 48 196 list2symbol;
#X obj 100 100 bng 12 250 50 0 \$0-A \$0-B empty 14 6 1 9 -262144 -1
-1;
#X obj 174 328 delay 5;
#X obj 102 6 inlet~;
#X obj 101 58 threshold~ 0.5 5 0.49 5;
#X obj 421 289 cnv 15 60 30 empty empty empty 20 12 0 14 -24198 -66577
0;
#N canvas 285 55 565 577 Help 0;
#X obj 9 -296 cnv 15 400 100 empty empty empty 20 12 0 14 -233017 -66577
0;
#X text 12 -297 Citation;
#X obj 8 -51 cnv 15 550 310 empty empty empty 20 12 0 14 -258113 -66577
0;
#X text 20 -44 - Ne lit pas un fichier au format mp3 \, SoundDesigner
II (.SDII ou .SD2);
#X text 23 56 Solution: ouvrir puis sauver le fichier au format aiff
avec Audacity;
#X text 36 43 error: dsp: xxx.aiff: unknown or bad header format;
#X text 31 -281 READSF~ - read a soundfile;
#X text 30 -263 The wave \, aiff \, and nextstep formats are parsed
automatically \, although only 2- 3- and 4- byte samples are accepted
(4 bytes implies floating point and is not available in aiff format.)
;
#X text 13 -189 - Si le Patch est sauvé avec 1 Player contenant un
nom de fichier Audio \, ce fichier sera lu automatiquement à la prochaine
ouverture s'il n'a pas changé d'emplacement.;
#X text 191 206 If the sample rate of pd is set to 44100 \, files having
the sample rates of 44100 are correctly played \, other files will
be transposed.;
#X text 193 179 WARNING The sample rate of the output depends on the
system sample rate of pd:;
#X text 21 95 - ATTENTION Le taux d'échantillonnage de la lecture du
fichier dépends du taux d'échantillonnage de Pd.;
#X text 33 122 Si le taux d'échantillonnage de Pd est de 44100 (Menu
Preferences -> Audio Settings...) \, les fichiers échantillonnés à
44100 Hz sont lus correctement \, sinon ils sont transposés.;
#X text 12 -143 - Peut Ouvrir automatiquement 1 fichier qui se trouve
dans le même dossier que lui \, quelquesoit l'emplacement du dossier.
Pour cela ouvrir le module et taper le nom du fichier (sans chemin
d'accés) dans le message. Le dossier contenant le patch et le fichier
Audio est ainsi transportable.;
#X text 21 4 - Ne lit pas un fichier au format aiff "Entier petit boutien"
comme les pistes d'un CD Audio copiées avec le finder du Mac. Le message
d'erreur s'affichent:;
#X text 8 -434 MM Audio-Play;
#X text 19 -405 Le canal d'un fichier Audio Mono est lu sur la sortie
gauche;
#X text 19 -392 Les canaux 3 \, 4... d'un fichier Audio de plus de
2 canaux ne sont pas lus.;
#X text 199 -329 Channels 3 \, 4... of an Audio file of more than 2
channels are not read.;
#X text 199 -343 A Mono Audio file is read on the left output.;
#X text 19 -418 Lit un fichier Audio Stereo (2 canaux) au format aiff
\, wav.;
#X text 198 -370 Reads an Stereo Audio file (2 channels) with aiff
\, wav format..;
#X restore 428 295 pd Help;
#X obj 101 100 cnv 2 10 4 empty empty empty 20 12 0 14 -1 -66577 0
;
#X obj 102 101 cnv 2 8 2 empty empty empty 20 12 0 14 -262144 -66577
0;
#X text 75 81 Trig Decl;
#X obj 106 113 hradio 14 1 0 20 empty empty empty 0 6 0 8 -260097 -260097
-260097 0;
#X obj -13 42 bang;
#X text 403 115 <- Click the name to change;
#X symbolatom 101 113 49 0 0 0 - - -;
#X obj 49 140 cnv 15 400 50 empty empty empty 20 12 0 14 -260097 -66577
0;
#X text 51 139 Nom du fichier / File name;
#X text 454 152 <- Ajouter ../ devant le nom du fichier \; pour remonter
d'un dossier;
#X obj 653 417 cnv 15 41 30 empty empty empty 20 12 0 14 -24198 -66577
0;
#N canvas 350 196 308 136 ?? 0;
#X obj -9 87 cnv 15 300 38 empty empty empty 20 12 0 14 -224896 -66577
0;
#X obj -9 10 cnv 18 300 70 empty empty ARGOPdMiniModules 1 10 1 14
-4033 -1 1.04858e+06;
#X obj 9 29 cnv 10 10 10 empty empty Gerard 0 5 1 9 -4033 -1 1.04858e+06
;
#X obj 40 29 cnv 10 10 10 empty empty Paresys 0 5 1 9 -4033 -1 1.04858e+06
;
#X text -8 89 Construit sous / Build under Pd 0.42.5-extended;
#X obj 39 105 pddplink http://puredata.info/downloads;
#X obj 3 42 pddplink http://pagesperso-orange.fr/Paresys/ARGOPd/;
#X obj 3 57 pddplink http://gerard.paresys.free.fr/ARGOPd/;
#X restore 657 424 pd ??;
#X text 405 96 13 11 2010;
#X msg 53 158 GaucheDroit.wav;
#X connect 3 0 19 0;
#X connect 4 0 18 0;
#X connect 5 0 18 0;
#X connect 6 0 45 0;
#X connect 7 0 18 0;
#X connect 8 0 27 0;
#X connect 8 1 45 0;
#X connect 9 0 20 0;
#X connect 10 0 8 0;
#X connect 10 1 9 0;
#X connect 10 1 5 0;
#X connect 11 0 13 0;
#X connect 12 0 11 0;
#X connect 13 0 26 0;
#X connect 14 0 20 0;
#X connect 15 0 16 0;
#X connect 16 0 20 0;
#X connect 17 0 45 0;
#X connect 18 0 2 0;
#X connect 18 1 23 0;
#X connect 18 2 11 0;
#X connect 18 2 9 0;
#X connect 19 0 45 0;
#X connect 19 1 6 0;
#X connect 20 0 10 0;
#X connect 21 0 5 0;
#X connect 21 0 9 0;
#X connect 22 0 12 0;
#X connect 25 0 38 0;
#X connect 25 0 7 0;
#X connect 26 0 8 0;
#X connect 27 0 4 0;
#X connect 27 0 14 0;
#X connect 28 0 29 0;
#X connect 29 0 26 0;
#X connect 35 0 36 0;
#X connect 36 0 3 0;
#X connect 45 0 25 0;
#X coords 0 -1 1 1 300 35 2 100 100;
#X restore -173 -235 pd ARGO;
#X text -186 -91 Niveau general ->;
#X text -180 -81 General level ->;
#N canvas 421 44 268 333 ARGO 0;
#X obj 101 101 cnv 20 130 66 empty ColorForm Reverb2/2 53 8 1 14 -188398
-1 1.04858e+06;
#X obj 101 163 cnv 4 10 4 empty empty empty 20 12 0 14 -1 -66577 0
;
#X obj 221 163 cnv 4 10 4 empty empty empty 0 0 0 9 -1 -66577 0;
#X obj 87 74 inlet~;
#X obj 211 74 inlet~;
#X obj 101 101 cnv 4 10 4 empty empty empty 20 12 0 14 -1 -66577 0
;
#X obj 89 294 outlet~;
#X obj 188 295 outlet~;
#X obj 221 101 cnv 4 10 4 empty empty empty 0 0 0 9 -1 -66577 0;
#X obj 103 138 hsl 127 12 0.001 1 1 1 \$0-A ColorForm Brill 0 7 1 9
-188398 -1 -1 5400 0;
#X obj 103 126 hsl 127 12 0 1 0 1 \$0-A ColorForm Size 0 7 1 9 -188398
-1 -1 9000 0;
#X obj 103 150 hsl 127 12 0 1 0 1 \$0-A ColorAmpli Dir 0 7 1 9 -261299
-1 -1 6300 0;
#X obj 47 24 cnv 15 60 30 empty empty empty 20 12 0 14 -24198 -66577
0;
#N canvas 331 65 447 335 Help 0;
#X obj -169 -78 cnv 15 440 80 empty empty empty 20 12 0 14 -228856
-66577 0;
#X text -166 -78 Citation;
#X text -165 8 Comme MM-Reverb sauf:;
#X text -151 20 - Pas de "Early Echo";
#X text -150 31 - Sorties apres le delay \, sinon la reverb contient
le signal direct c'est a dire sans retard.;
#X text -148 56 - La sortie gauche est alors toujours + intense que
la droite (G vient d'un + et D vient d'un -) Donc on double la reverb
à gauche et a droite en inversant les 2 entrées.;
#X text -144 93 - Temps différents a gauche et a droite pour avoir
une vraie stereo. Un signal Mono \, envoyé sur les 2 entrees a bien
alors une reverb Stereo.;
#X text -143 131 - Temps réglables (* 0.01 ... * 10 de MM-Reverb).
;
#X text -161 168 Contrairement à sa version précédente \, ce MM peut
être présent à 2 exemplaires dans un même patch.;
#X text -168 -114 - Voir Pure Documentation Browser -> Pure Data/ ->
3.audio.examples -> G08.reverb.pd;
#X text -150 -62 "Here is a simple recirculating reverberator. "Feedback"
should be between 0 and 100 - if 100 \, the reverberation lasts forever."
;
#X text -147 -22 "Feedback" = Size;
#X text -168 -130 MM Reverb2/2;
#X restore 54 31 pd Help;
#N canvas 399 412 301 243 DirEffect 0;
#X obj 30 25 inlet~;
#X obj 186 25 inlet~;
#X obj 135 25 inlet~;
#X obj 80 25 inlet~;
#X obj 34 207 outlet~;
#X obj 193 203 outlet~;
#X text 242 7 0...1;
#X text 38 11 Dir1;
#X text 90 9 Dir2;
#X text 184 6 Effect2;
#X text 133 6 Effect1;
#X obj 81 146 *~;
#X obj 133 146 *~;
#X obj 193 147 *~;
#X obj 98 82 - 1;
#X obj 97 108 * -1;
#X obj 33 146 *~;
#X obj 218 107 * 0.2;
#X obj 241 26 inlet;
#X connect 0 0 16 0;
#X connect 1 0 13 0;
#X connect 2 0 12 0;
#X connect 3 0 11 0;
#X connect 11 0 5 0;
#X connect 12 0 4 0;
#X connect 13 0 5 0;
#X connect 14 0 15 0;
#X connect 15 0 11 1;
#X connect 15 0 16 1;
#X connect 16 0 4 0;
#X connect 17 0 12 1;
#X connect 17 0 13 1;
#X connect 18 0 17 0;
#X connect 18 0 14 0;
#X restore 96 259 pd DirEffect;
#X obj 114 102 bng 12 2000 50 0 \$0-A \$0-B Reset 14 6 1 9 -188398
-1 -1;
#X obj 213 259 cnv 15 41 30 empty empty empty 20 12 0 14 -24198 -66577
0;
#N canvas 350 196 308 136 ?? 0;
#X obj -9 87 cnv 15 300 38 empty empty empty 20 12 0 14 -224896 -66577
0;
#X obj -9 10 cnv 18 300 70 empty empty ARGOPdMiniModules 1 10 1 14
-4033 -1 1.04858e+06;
#X obj 9 29 cnv 10 10 10 empty empty Gerard 0 5 1 9 -4033 -1 1.04858e+06
;
#X obj 40 29 cnv 10 10 10 empty empty Paresys 0 5 1 9 -4033 -1 1.04858e+06
;
#X text -8 89 Construit sous / Build under Pd 0.42.5-extended;
#X obj 39 105 pddplink http://puredata.info/downloads;
#X obj 3 42 pddplink http://pagesperso-orange.fr/Paresys/ARGOPd/;
#X obj 3 57 pddplink http://gerard.paresys.free.fr/ARGOPd/;
#X restore 217 266 pd ??;
#N canvas 155 302 314 167 BrillanceStereo 0;
#X msg 79 42 clear;
#X obj 122 102 lop~ 5;
#X obj 261 78 line;
#X obj 122 14 inlet~;
#X obj 122 131 outlet~;
#X obj 260 35 * 20000;
#X obj 79 13 inlet;
#X obj 261 11 inlet;
#X msg 261 58 \$1 10;
#X obj 185 103 lop~ 5;
#X obj 185 15 inlet~;
#X obj 185 132 outlet~;
#X connect 0 0 1 0;
#X connect 0 0 9 0;
#X connect 1 0 4 0;
#X connect 2 0 1 1;
#X connect 2 0 9 1;
#X connect 3 0 1 0;
#X connect 5 0 8 0;
#X connect 6 0 0 0;
#X connect 7 0 5 0;
#X connect 8 0 2 0;
#X connect 9 0 11 0;
#X connect 10 0 9 0;
#X restore 130 181 pd BrillanceStereo;
#X obj 103 114 hsl 127 12 0.01 10 1 1 \$0-A ColorForm Time 0 7 1 9
-188398 -1 -1 8500 0;
#N canvas 4 70 682 544 reverbG 0;
#X obj 113 55 inlet~;
#X obj 46 189 +~;
#X obj 164 183 +~;
#X obj 21 512 outlet~;
#X obj 132 507 outlet~;
#X obj 46 269 +~;
#X obj 289 266 +~;
#X obj 149 258 -~;
#X obj 414 266 -~;
#X obj 47 323 +~;
#X obj 148 323 +~;
#X obj 277 323 -~;
#X obj 399 325 -~;
#X text 387 39 time.;
#X text 385 11 feedback gain on a scale of;
#X obj 393 100 * 0.495;
#X obj 394 123 + 0.005;
#X obj 393 60 inlet;
#X text 387 26 0 to 1 to control reverb;
#X text 18 13 cf "Recirculating schroeder reverb extract from the book
Designing Sound Andy Farnell Page 85";
#X obj 46 390 *~ 0;
#X obj 149 409 *~ 0;
#X obj 277 433 *~ 0;
#X obj 403 455 *~ 0;
#X obj 499 281 pack 0;
#X obj 547 282 pack 0;
#X obj 592 280 pack 0;
#X obj 640 281 pack 0;
#X obj 572 55 inlet;
#X obj 46 350 iem_delay/n_delay1p_line~ 1 1130 0;
#X obj 147 382 iem_delay/n_delay1p_line~ 1 1310 0;
#X obj 278 406 iem_delay/n_delay1p_line~ 1 1510 0;
#X obj 403 430 iem_delay/n_delay1p_line~ 1 1670 0;
#X obj 499 255 * 113;
#X obj 547 256 * 131;
#X obj 592 254 * 151;
#X obj 640 255 * 187;
#X text 566 36 0.01...10;
#X text 567 23 Time;
#X obj 46 415 zexy/pack~;
#X obj 59 437 zexy/unpack~;
#X obj 149 437 zexy/pack~;
#X obj 162 459 zexy/unpack~;
#X obj 277 458 zexy/pack~;
#X obj 290 480 zexy/unpack~;
#X obj 403 479 zexy/pack~;
#X obj 416 501 zexy/unpack~;
#X connect 0 0 1 0;
#X connect 0 0 2 0;
#X connect 1 0 5 0;
#X connect 1 0 7 0;
#X connect 2 0 5 1;
#X connect 2 0 7 1;
#X connect 5 0 9 0;
#X connect 5 0 11 0;
#X connect 6 0 11 1;
#X connect 6 0 9 1;
#X connect 7 0 10 0;
#X connect 7 0 12 0;
#X connect 8 0 10 1;
#X connect 8 0 12 1;
#X connect 9 0 29 0;
#X connect 10 0 30 0;
#X connect 11 0 31 0;
#X connect 12 0 32 0;
#X connect 15 0 16 0;
#X connect 16 0 20 1;
#X connect 16 0 21 1;
#X connect 16 0 22 1;
#X connect 16 0 23 1;
#X connect 17 0 15 0;
#X connect 20 0 39 0;
#X connect 21 0 41 0;
#X connect 22 0 43 0;
#X connect 23 0 45 0;
#X connect 24 0 29 0;
#X connect 25 0 30 0;
#X connect 26 0 31 0;
#X connect 27 0 32 0;
#X connect 28 0 33 0;
#X connect 28 0 34 0;
#X connect 28 0 35 0;
#X connect 28 0 36 0;
#X connect 29 0 20 0;
#X connect 29 0 3 0;
#X connect 30 0 21 0;
#X connect 30 0 4 0;
#X connect 31 0 22 0;
#X connect 32 0 23 0;
#X connect 33 0 24 0;
#X connect 34 0 25 0;
#X connect 35 0 26 0;
#X connect 36 0 27 0;
#X connect 39 0 40 0;
#X connect 40 0 1 1;
#X connect 41 0 42 0;
#X connect 42 0 2 1;
#X connect 43 0 44 0;
#X connect 44 0 6 0;
#X connect 44 0 8 0;
#X connect 45 0 46 0;
#X connect 46 0 8 1;
#X connect 46 0 6 1;
#X restore 35 221 pd reverbG;
#N canvas 470 65 682 544 reverbD 0;
#X obj 113 55 inlet~;
#X obj 46 189 +~;
#X obj 164 183 +~;
#X obj 21 512 outlet~;
#X obj 122 512 outlet~;
#X obj 46 269 +~;
#X obj 289 266 +~;
#X obj 149 258 -~;
#X obj 414 266 -~;
#X obj 47 323 +~;
#X obj 148 323 +~;
#X obj 277 323 -~;
#X obj 399 325 -~;
#X text 387 39 time.;
#X text 385 11 feedback gain on a scale of;
#X obj 394 100 * 0.495;
#X obj 395 123 + 0.005;
#X obj 393 60 inlet;
#X text 387 26 0 to 1 to control reverb;
#X text 18 13 cf "Recirculating schroeder reverb extract from the book
Designing Sound Andy Farnell Page 85";
#X obj 46 390 *~ 0;
#X obj 149 409 *~ 0;
#X obj 276 445 *~ 0;
#X obj 404 465 *~ 0;
#X obj 499 281 pack 0;
#X obj 499 255 * 101;
#X obj 547 282 pack 0;
#X obj 592 280 pack 0;
#X obj 640 281 pack 0;
#X obj 547 256 * 143;
#X obj 592 254 * 165;
#X obj 640 255 * 177;
#X obj 46 350 iem_delay/n_delay1p_line~ 1 1010 0;
#X obj 147 382 iem_delay/n_delay1p_line~ 1 1430 0;
#X obj 278 406 iem_delay/n_delay1p_line~ 1 1650 0;
#X obj 403 430 iem_delay/n_delay1p_line~ 1 1770 0;
#X obj 572 55 inlet;
#X text 561 38 0.01...10;
#X text 562 25 Time;
#X obj 46 419 zexy/pack~;
#X obj 59 441 zexy/unpack~;
#X obj 149 439 zexy/pack~;
#X obj 162 461 zexy/unpack~;
#X obj 276 469 zexy/pack~;
#X obj 289 491 zexy/unpack~;
#X obj 404 490 zexy/pack~;
#X obj 417 512 zexy/unpack~;
#X connect 0 0 1 0;
#X connect 0 0 2 0;
#X connect 1 0 5 0;
#X connect 1 0 7 0;
#X connect 2 0 5 1;
#X connect 2 0 7 1;
#X connect 5 0 9 0;
#X connect 5 0 11 0;
#X connect 6 0 11 1;
#X connect 6 0 9 1;
#X connect 7 0 10 0;
#X connect 7 0 12 0;
#X connect 8 0 10 1;
#X connect 8 0 12 1;
#X connect 9 0 32 0;
#X connect 10 0 33 0;
#X connect 11 0 34 0;
#X connect 12 0 35 0;
#X connect 15 0 16 0;
#X connect 16 0 20 1;
#X connect 16 0 21 1;
#X connect 16 0 22 1;
#X connect 16 0 23 1;
#X connect 17 0 15 0;
#X connect 20 0 39 0;
#X connect 21 0 41 0;
#X connect 22 0 43 0;
#X connect 23 0 45 0;
#X connect 24 0 32 0;
#X connect 25 0 24 0;
#X connect 26 0 33 0;
#X connect 27 0 34 0;
#X connect 28 0 35 0;
#X connect 29 0 26 0;
#X connect 30 0 27 0;
#X connect 31 0 28 0;
#X connect 32 0 20 0;
#X connect 32 0 3 0;
#X connect 33 0 21 0;
#X connect 33 0 4 0;
#X connect 34 0 22 0;
#X connect 35 0 23 0;
#X connect 36 0 25 0;
#X connect 36 0 29 0;
#X connect 36 0 30 0;
#X connect 36 0 31 0;
#X connect 39 0 40 0;
#X connect 40 0 1 1;
#X connect 41 0 42 0;
#X connect 42 0 2 1;
#X connect 43 0 44 0;
#X connect 44 0 6 0;
#X connect 44 0 8 0;
#X connect 45 0 46 0;
#X connect 46 0 8 1;
#X connect 46 0 6 1;
#X restore 168 216 pd reverbD;
#X msg 30 123 0;
#X obj 6 95 delay 2000;
#X text 138 83 14 3 2011;
#X connect 3 0 18 1;
#X connect 3 0 14 0;
#X connect 4 0 14 1;
#X connect 4 0 18 2;
#X connect 9 0 18 3;
#X connect 10 0 21 1;
#X connect 10 0 20 1;
#X connect 11 0 14 4;
#X connect 14 0 6 0;
#X connect 14 1 7 0;
#X connect 15 0 18 0;
#X connect 15 0 22 0;
#X connect 15 0 23 0;
#X connect 18 0 20 0;
#X connect 18 1 21 0;
#X connect 19 0 21 2;
#X connect 19 0 20 2;
#X connect 20 0 14 2;
#X connect 20 1 14 3;
#X connect 21 0 14 3;
#X connect 21 1 14 2;
#X connect 22 0 21 2;
#X connect 22 0 20 2;
#X connect 22 0 20 1;
#X connect 22 0 21 1;
#X connect 23 0 10 0;
#X connect 23 0 19 0;
#X coords 0 -1 1 1 132 68 1 100 100;
#X restore -92 -178 pd ARGO;
#X connect 1 0 2 0;
#X connect 8 0 0 0;
#X connect 8 0 6 0;
#X connect 8 1 0 1;
#X connect 8 1 7 0;
#X connect 9 0 17 0;
#X connect 14 0 17 0;
#X connect 14 1 17 1;
#X connect 17 0 8 0;
#X connect 17 1 8 1;
