#N canvas 407 22 374 423 10;
#X obj -44 69 dac~ 1 2;
#N canvas 608 166 249 182 ARGOnOff 0;
#X obj 100 100 tgl 18 1 \$0-SendOnOff \$0-ReceiveOnOff On/Off 20 9
0 12 -4033 -1 -1 1 1;
#X obj 99 39 loadbang;
#X msg 99 62 \; pd dsp 1;
#X obj 100 129 outlet;
#X connect 0 0 3 0;
#X connect 1 0 2 0;
#X coords 0 -1 1 1 65 18 2 100 100;
#X restore 45 -310 pd ARGOnOff;
#X obj 45 -285 switch~;
#X obj -218 -320 cnv 15 15 15 empty empty ExMM67b-Reverb1/2.pd 0 8
1 14 -262144 -66577 0;
#X text -73 -257 Audio player 2 channels 2 outputs;
#N canvas 413 140 402 279 ARGO 0;
#X obj 101 101 cnv 10 88 41 \$0-A \$0-B empty 20 12 0 14 -1 -1 1.04858e+06
;
#X obj 101 109 nbx 4 12 0 1e+37 0 0 \$0 \$0-ReceiveCpuPeak CPUPeak
42 7 1 10 -24198 -1 -24198 14 256;
#X obj 101 122 nbx 4 12 0 1e+37 0 0 \$0 \$0-ReceiveCpuMean CPUMean
42 7 1 10 -24198 -1 -24198 13.55 256;
#X text 141 83 5 3 2009;
#X obj 145 -55 cputime;
#X obj 145 -76 t b b;
#X text 188 24 (c) musil@iem.kug.ac.at;
#X text 230 37 IEM KUG;
#X text 78 18 CPU-load;
#X obj 144 -125 loadbang;
#X text 205 48 graz \, austria 2001;
#X obj 145 -100 metro 500;
#X obj 145 -34 * 0.2;
#X text 237 -88 -dsp-load in %;
#X text 228 -101 measure average- and peak-;
#X obj 37 18 * 100;
#X obj 37 63 int;
#X obj 37 41 + 0.499;
#X obj 37 86 * 0.01;
#N canvas 524 162 422 273 1p1zmodif 0;
#X text 134 89 (c) musil@iem.kug.ac.at;
#X text 179 99 IEM KUG;
#X obj 14 195 +;
#X text 151 108 graz \, austria 2001;
#X text 135 71 y[n] = a0*x[n] + a1*x[n-1] + b1*y[n-1];
#X text 18 13 x[n];
#X text 16 244 y[n];
#X text 84 111 y[n-1];
#X text 134 56 <float> control-IIR-filter 1.order;
#X obj 15 28 inlet;
#X obj 14 228 outlet;
#X obj 15 112 * 0.1;
#X obj 59 156 * 0.9;
#X text 139 144 a1 = 0;
#X text 139 155 b1 = 0.9;
#X text 139 133 a0 = 0.1;
#X obj 15 50 t f b;
#X text 135 40 Inspiré de 1p1z;
#X obj 59 112 f 0;
#X connect 2 0 10 0;
#X connect 2 0 18 1;
#X connect 9 0 16 0;
#X connect 11 0 2 0;
#X connect 12 0 2 1;
#X connect 16 0 11 0;
#X connect 16 1 18 0;
#X connect 18 0 12 0;
#X restore 37 -8 pd 1p1zmodif;
#X text 146 9 Inspiré de 5.reference/iemabs/help-dsp.pd;
#X connect 4 0 12 0;
#X connect 5 0 4 0;
#X connect 5 1 4 1;
#X connect 9 0 11 0;
#X connect 11 0 5 0;
#X connect 12 0 19 0;
#X connect 12 0 1 0;
#X connect 15 0 17 0;
#X connect 16 0 18 0;
#X connect 17 0 16 0;
#X connect 18 0 2 0;
#X connect 19 0 15 0;
#X coords 0 -1 1 1 90 43 1 100 100;
#X restore 54 -163 pd ARGO;
#N canvas 172 173 382 310 ARGO 0;
#X text 12 234 peakamp~;
#X text 11 247 cyclone library;
#X text 12 262 http://suita.chopin.edu.pl/~czaja/miXed/externs/cyclone.html
;
#X text 12 275 pas de help \, dans Pd-extended. Voir doc Max/MSP MSP46ReferenceManual.pdf
;
#X obj 101 101 cnv 30 32 129 empty empty empty 20 12 0 14 -261299 -66577
0;
#X obj 101 101 cnv 4 10 4 empty empty empty 20 12 0 14 -1 -66577 0
;
#X obj 102 108 vu 8 120 \$0-B empty 0 0 1 9 -262144 -1 1 0;
#X obj 75 30 env~;
#X obj 115 4 inlet~;
#X obj 74 53 - 100;
#X obj 114 53 env~;
#X obj 113 76 - 100;
#X obj 115 31 peakamp~ 1000;
#X connect 7 0 9 0;
#X connect 8 0 7 0;
#X connect 8 0 12 0;
#X connect 9 0 6 0;
#X connect 10 0 11 0;
#X connect 11 0 6 1;
#X connect 12 0 10 0;
#X coords 0 -1 1 1 34 131 2 100 100;
#X restore 21 -43 pd ARGO;
#N canvas 172 173 382 310 ARGO 0;
#X text 12 234 peakamp~;
#X text 11 247 cyclone library;
#X text 12 262 http://suita.chopin.edu.pl/~czaja/miXed/externs/cyclone.html
;
#X text 12 275 pas de help \, dans Pd-extended. Voir doc Max/MSP MSP46ReferenceManual.pdf
;
#X obj 101 101 cnv 30 32 129 empty empty empty 20 12 0 14 -261299 -66577
0;
#X obj 101 101 cnv 4 10 4 empty empty empty 20 12 0 14 -1 -66577 0
;
#X obj 102 108 vu 8 120 \$0-B empty 0 0 1 9 -262144 -1 1 0;
#X obj 75 30 env~;
#X obj 115 4 inlet~;
#X obj 74 53 - 100;
#X obj 114 53 env~;
#X obj 113 76 - 100;
#X obj 115 31 peakamp~ 1000;
#X connect 7 0 9 0;
#X connect 8 0 7 0;
#X connect 8 0 12 0;
#X connect 9 0 6 0;
#X connect 10 0 11 0;
#X connect 11 0 6 1;
#X connect 12 0 10 0;
#X coords 0 -1 1 1 34 131 2 100 100;
#X restore 32 -43 pd ARGO;
#N canvas 350 62 368 392 ARGO 0;
#X obj 101 101 cnv 20 104 34 empty ColorAmpli empty 20 12 0 14 -261299
-1 1.04858e+06;
#X obj 85 274 outlet~;
#X obj 134 104 cnv 10 20 10 empty ColorAmpli Ampli 1 5 1 14 -261299
-1 1.04858e+06;
#X obj 89 -82 inlet~;
#X obj 85 245 *~;
#X obj 103 118 hsl 101 12 0 1.25 0 1 \$0-A ColorAmpli 0dB 0 7 1 9 -261299
-1 -1 8000 0;
#X obj 100 201 /~ 10000;
#X msg 115 77 label \$1;
#X obj 114 54 tosymbol;
#X obj 115 -45 * 80;
#X obj 115 -23 - 80;
#X obj 114 19 sprintf %ddB;
#X obj 101 101 cnv 4 10 4 empty empty empty 20 12 0 14 -1 -66577 0
;
#X obj 101 131 cnv 4 10 4 empty empty empty 20 12 0 14 -1 -66577 0
;
#X text 123 36 -> -80dB..20dB;
#X text 120 0 -> -80 .. 20;
#X text 104 139 -> 0..1.2;
#X text 109 179 -> 1..100000;
#X text 104 221 -> 0.0001..10 = -80dB..20dB;
#X obj 195 101 cnv 4 10 4 empty empty empty 20 12 0 14 -1 -66577 0
;
#X obj 195 131 cnv 4 10 4 empty empty empty 20 12 0 14 -1 -66577 0
;
#X obj 210 273 outlet~;
#X obj 214 -83 inlet~;
#X obj 210 244 *~;
#X text 217 160 <- compatibility 0.42.5;
#X text 221 83 1 2 2010;
#X obj 100 161 cyclone/pow~ 10000;
#X obj 235 -30 cnv 15 41 30 empty empty empty 20 12 0 14 -24198 -66577
0;
#N canvas 363 389 381 103 ? 0;
#X obj 5 49 cnv 15 370 38 empty empty empty 20 12 0 14 -224896 -66577
0;
#X text 6 65 Voir/Look at: http://puredata.info/downloads;
#X obj 4 12 cnv 18 370 30 empty empty ARGOPdMiniModules 1 10 1 14 -4033
-1 1.04858e+06;
#X obj 7 31 cnv 10 10 10 empty empty Gerard 0 5 1 9 -4033 -1 1.04858e+06
;
#X obj 38 31 cnv 10 10 10 empty empty Paresys 0 5 1 9 -4033 -1 1.04858e+06
;
#X obj 175 20 cnv 10 10 10 empty empty http://pagesperso-orange.fr/Paresys/ARGOPd/
0 5 1 9 -4033 -1 1.04858e+06;
#X obj 175 31 cnv 10 10 10 empty empty http://gerard.paresys.free.fr/ARGOPd/
0 5 1 9 -4033 -1 1.04858e+06;
#X text 6 51 Construit sous / Build under Pd 0.41.4-extended;
#X restore 241 -23 pd ?;
#X connect 3 0 4 0;
#X connect 4 0 1 0;
#X connect 5 0 9 0;
#X connect 5 0 26 0;
#X connect 6 0 4 1;
#X connect 6 0 23 1;
#X connect 7 0 5 0;
#X connect 8 0 7 0;
#X connect 9 0 10 0;
#X connect 10 0 11 0;
#X connect 11 0 8 0;
#X connect 22 0 23 0;
#X connect 23 0 21 0;
#X connect 26 0 6 0;
#X coords 0 -1 1 1 106 36 1 100 100;
#X restore -77 -100 pd ARGO;
#N canvas 312 168 308 257 ARGO 0;
#X obj 101 101 cnv 10 139 29 empty ColorForm 1-Pulse 91 9 1 14 -208064
-1 1.04858e+06;
#X obj 101 126 cnv 4 10 4 empty empty empty 20 12 0 14 -1 -66577 0
;
#X obj 100 113 nbx 6 12 0 999999 0 1 \$0-A ColorTime ms 53 7 1 9 -208064
-1 -1 0.03 256;
#X obj 85 231 outlet~;
#X obj -17 51 cnv 15 60 30 empty empty empty 20 12 0 14 -24198 -66577
0;
#N canvas 161 113 425 238 Help 0;
#X obj 10 38 cnv 15 400 120 empty empty empty 20 12 0 14 -233017 -66577
0;
#X text 14 40 Citation;
#X text 10 6 1 pulse generator;
#X text 28 57 The vline~ object \, like line~ \, generates linear ramps
whose levels and timing are determined by messages you send it. The
messages consist of a target value \, a time interval (zero if not
supplied) \, and an initial delay (also zero if not supplied.) Ramps
may start and stop between audio samples \, in which case the output
is interpolated accordingly.;
#X restore -10 57 pd Help;
#X text 178 82 31 10 2010;
#X obj 188 207 cnv 15 41 30 empty empty empty 20 12 0 14 -24198 -66577
0;
#N canvas 350 196 308 136 ?? 0;
#X obj -9 87 cnv 15 300 38 empty empty empty 20 12 0 14 -224896 -66577
0;
#X obj -9 10 cnv 18 300 70 empty empty ARGOPdMiniModules 1 10 1 14
-4033 -1 1.04858e+06;
#X obj 9 29 cnv 10 10 10 empty empty Gerard 0 5 1 9 -4033 -1 1.04858e+06
;
#X obj 40 29 cnv 10 10 10 empty empty Paresys 0 5 1 9 -4033 -1 1.04858e+06
;
#X text -8 89 Construit sous / Build under Pd 0.42.5-extended;
#X obj 39 105 pddplink http://puredata.info/downloads;
#X obj 3 42 pddplink http://pagesperso-orange.fr/Paresys/ARGOPd/;
#X obj 3 57 pddplink http://gerard.paresys.free.fr/ARGOPd/;
#X restore 192 214 pd ??;
#X obj 85 202 vline~;
#X msg 85 180 1 \, 0 0 \$1;
#X obj 85 158 f;
#X obj 89 48 inlet;
#X obj 100 101 bng 12 50 50 0 \$0-A \$0-B empty 14 6 1 9 -262144 -1
-1;
#X obj 101 101 cnv 4 10 4 empty empty empty 20 12 0 14 -260097 -66577
0;
#X text -57 101 Input anything message ->;
#X text -57 91 N'importe quel message ->;
#X connect 2 0 11 1;
#X connect 9 0 3 0;
#X connect 10 0 9 0;
#X connect 11 0 10 0;
#X connect 12 0 13 0;
#X connect 13 0 11 0;
#X coords 0 -1 1 1 141 31 1 100 100;
#X restore -172 -293 pd ARGO;
#X text -221 -297 Clic ->;
#X text -220 -240 Clic ->;
#N canvas 284 45 299 309 ARGO 0;
#X obj 101 101 cnv 20 130 54 empty ColorForm Reverb1/2 53 8 1 14 -188398
-1 1.04858e+06;
#X obj 101 151 cnv 4 10 4 empty empty empty 20 12 0 14 -1 -66577 0
;
#X obj 221 151 cnv 4 10 4 empty empty empty 0 0 0 9 -1 -66577 0;
#X obj 87 74 inlet~;
#X obj 211 74 inlet~;
#X obj 101 101 cnv 4 10 4 empty empty empty 20 12 0 14 -1 -66577 0
;
#X obj 86 278 outlet~;
#X obj 185 279 outlet~;
#X obj 221 101 cnv 4 10 4 empty empty empty 0 0 0 9 -1 -66577 0;
#X obj 103 126 hsl 127 12 0.001 1 1 1 \$0-A ColorForm Brill 0 7 1 9
-188398 -1 -1 8100 0;
#X obj 103 138 hsl 127 12 0 1 0 1 \$0-A ColorAmpli Dir 0 7 1 9 -261299
-1 -1 4000 0;
#X obj 91 19 cnv 15 60 30 empty empty empty 20 12 0 14 -24198 -66577
0;
#N canvas 307 210 482 191 Help 0;
#X obj -169 -8 cnv 15 440 80 empty empty empty 20 12 0 14 -228856 -66577
0;
#X text -166 -8 Citation;
#X text -172 -81 - Voir Pure Documentation Browser -> 3.audio.examples
-> G08.reverb.pd;
#X text -172 -49 - seuls les "early echoes" sont conservés.;
#X text -138 17 which also increase echo density.;
#X text -141 7 "early echo" generators \,;
#X restore 98 26 pd Help;
#N canvas 399 412 301 243 DirEffect 0;
#X obj 30 25 inlet~;
#X obj 186 25 inlet~;
#X obj 135 25 inlet~;
#X obj 80 25 inlet~;
#X obj 34 207 outlet~;
#X obj 193 203 outlet~;
#X text 242 7 0...1;
#X text 38 11 Dir1;
#X text 90 9 Dir2;
#X text 184 6 Effect2;
#X text 133 6 Effect1;
#X obj 81 146 *~;
#X obj 133 146 *~;
#X obj 193 147 *~;
#X obj 98 82 - 1;
#X obj 97 108 * -1;
#X obj 33 146 *~;
#X obj 218 107 * 0.2;
#X obj 241 26 inlet;
#X connect 0 0 16 0;
#X connect 1 0 13 0;
#X connect 2 0 12 0;
#X connect 3 0 11 0;
#X connect 11 0 5 0;
#X connect 12 0 4 0;
#X connect 13 0 5 0;
#X connect 14 0 15 0;
#X connect 15 0 11 1;
#X connect 15 0 16 1;
#X connect 16 0 4 0;
#X connect 17 0 12 1;
#X connect 17 0 13 1;
#X connect 18 0 17 0;
#X connect 18 0 14 0;
#X restore 87 241 pd DirEffect;
#N canvas 297 22 606 477 reverb 0;
#X obj 27 7 inlet~;
#X obj 15 446 outlet~;
#X obj 73 445 outlet~;
#X obj 14 179 +~;
#X obj 66 155 -~;
#X obj 14 206 +~;
#X obj 65 208 -~;
#X obj 14 259 +~;
#X obj 64 259 -~;
#X obj 14 310 +~;
#X obj 66 312 -~;
#X obj 14 366 +~;
#X obj 67 360 -~;
#X obj 135 8 loadbang;
#X text 394 270 which also increase echo density.;
#X text 391 260 "early echo" generators \,;
#X obj 113 8 bng 15 250 50 0 empty empty empty 17 7 0 10 -262144 -1
-1;
#X text 189 32 <- Astuce: 100 > tous les delays;
#X obj 132 33 pack 100;
#X obj 273 95 pack 0;
#X obj 313 147 pack 0;
#X obj 311 208 pack 0;
#X obj 312 261 pack 0;
#X obj 459 38 inlet;
#X text 453 19 0.01...10;
#X text 454 6 Time;
#X obj 82 121 iem_delay/n_delay1p_line~ 1 54.3216 0;
#X obj 80 182 iem_delay/n_delay1p_line~ 1 84.5346 0;
#X obj 80 235 iem_delay/n_delay1p_line~ 1 134.367 0;
#X obj 81 287 iem_delay/n_delay1p_line~ 1 215.463 0;
#X obj 82 337 iem_delay/n_delay1p_line~ 1 343.876 0;
#X obj 88 387 iem_delay/n_delay1p_line~ 1 555.437 0;
#X obj 273 69 * 5.43216;
#X obj 313 121 * 8.45346;
#X obj 311 182 * 13.4367;
#X obj 312 235 * 21.5463;
#X obj 313 313 pack 0;
#X obj 316 365 pack 0;
#X obj 313 287 * 34.3876;
#X obj 316 339 * 55.5437;
#X obj 73 416 -~;
#X connect 0 0 26 0;
#X connect 0 0 4 0;
#X connect 0 0 3 0;
#X connect 3 0 5 0;
#X connect 3 0 6 0;
#X connect 4 0 27 0;
#X connect 5 0 7 0;
#X connect 5 0 8 0;
#X connect 6 0 28 0;
#X connect 7 0 9 0;
#X connect 7 0 10 0;
#X connect 8 0 29 0;
#X connect 9 0 11 0;
#X connect 9 0 12 0;
#X connect 10 0 30 0;
#X connect 11 0 1 0;
#X connect 11 0 40 0;
#X connect 12 0 31 0;
#X connect 13 0 18 0;
#X connect 16 0 18 0;
#X connect 18 0 26 0;
#X connect 18 0 27 0;
#X connect 18 0 28 0;
#X connect 18 0 29 0;
#X connect 18 0 30 0;
#X connect 18 0 31 0;
#X connect 19 0 26 0;
#X connect 20 0 27 0;
#X connect 21 0 28 0;
#X connect 22 0 29 0;
#X connect 23 0 32 0;
#X connect 23 0 33 0;
#X connect 23 0 34 0;
#X connect 23 0 35 0;
#X connect 23 0 38 0;
#X connect 23 0 39 0;
#X connect 26 0 3 1;
#X connect 26 0 4 1;
#X connect 27 0 6 1;
#X connect 27 0 5 1;
#X connect 28 0 8 1;
#X connect 28 0 7 1;
#X connect 29 0 10 1;
#X connect 29 0 9 1;
#X connect 30 0 12 1;
#X connect 30 0 11 1;
#X connect 31 0 1 0;
#X connect 31 0 40 1;
#X connect 32 0 19 0;
#X connect 33 0 20 0;
#X connect 34 0 21 0;
#X connect 35 0 22 0;
#X connect 36 0 30 0;
#X connect 37 0 31 0;
#X connect 38 0 36 0;
#X connect 39 0 37 0;
#X connect 40 0 2 0;
#X restore 138 212 pd reverb;
#N canvas 429 196 314 167 Brillance 0;
#X msg 79 42 clear;
#X obj 122 102 lop~ 5;
#X obj 173 81 line;
#X obj 122 14 inlet~;
#X obj 122 131 outlet~;
#X obj 172 38 * 20000;
#X obj 79 13 inlet;
#X obj 173 14 inlet;
#X msg 173 61 \$1 10;
#X connect 0 0 1 0;
#X connect 1 0 4 0;
#X connect 2 0 1 1;
#X connect 3 0 1 0;
#X connect 5 0 8 0;
#X connect 6 0 0 0;
#X connect 7 0 5 0;
#X connect 8 0 2 0;
#X restore 139 184 pd Brillance;
#X obj 114 102 bng 12 250 50 0 \$0-A \$0-B Reset 14 6 1 9 -188398 -1
-1;
#X obj 244 265 cnv 15 41 30 empty empty empty 20 12 0 14 -24198 -66577
0;
#N canvas 350 196 308 136 ?? 0;
#X obj -9 87 cnv 15 300 38 empty empty empty 20 12 0 14 -224896 -66577
0;
#X obj -9 10 cnv 18 300 70 empty empty ARGOPdMiniModules 1 10 1 14
-4033 -1 1.04858e+06;
#X obj 9 29 cnv 10 10 10 empty empty Gerard 0 5 1 9 -4033 -1 1.04858e+06
;
#X obj 40 29 cnv 10 10 10 empty empty Paresys 0 5 1 9 -4033 -1 1.04858e+06
;
#X text -8 89 Construit sous / Build under Pd 0.42.5-extended;
#X obj 39 105 pddplink http://puredata.info/downloads;
#X obj 3 42 pddplink http://pagesperso-orange.fr/Paresys/ARGOPd/;
#X obj 3 57 pddplink http://gerard.paresys.free.fr/ARGOPd/;
#X restore 248 272 pd ??;
#X obj 103 114 hsl 127 12 0.01 10 1 1 \$0-A ColorForm Time 0 7 1 9
-188398 -1 -1 11700 0;
#X text 138 83 31 1 2011;
#X connect 3 0 15 1;
#X connect 3 0 13 0;
#X connect 4 0 15 1;
#X connect 4 0 13 1;
#X connect 9 0 15 2;
#X connect 10 0 13 4;
#X connect 13 0 6 0;
#X connect 13 1 7 0;
#X connect 14 0 13 2;
#X connect 14 1 13 3;
#X connect 15 0 14 0;
#X connect 16 0 15 0;
#X connect 19 0 14 1;
#X coords 0 -1 1 1 132 56 1 100 100;
#X restore -93 -184 pd ARGO;
#X obj 100 61 cnv 15 41 30 empty empty empty 20 12 0 14 -24198 -66577
0;
#N canvas 350 196 308 136 ?? 0;
#X obj -9 87 cnv 15 300 38 empty empty empty 20 12 0 14 -224896 -66577
0;
#X obj -9 10 cnv 18 300 70 empty empty ARGOPdMiniModules 1 10 1 14
-4033 -1 1.04858e+06;
#X obj 9 29 cnv 10 10 10 empty empty Gerard 0 5 1 9 -4033 -1 1.04858e+06
;
#X obj 40 29 cnv 10 10 10 empty empty Paresys 0 5 1 9 -4033 -1 1.04858e+06
;
#X text -8 89 Construit sous / Build under Pd 0.42.5-extended;
#X obj 39 105 pddplink http://puredata.info/downloads;
#X obj 3 42 pddplink http://pagesperso-orange.fr/Paresys/ARGOPd/;
#X obj 3 57 pddplink http://gerard.paresys.free.fr/ARGOPd/;
#X restore 104 68 pd ??;
#N canvas 400 185 722 461 ARGO 0;
#X obj 368 103 cnv 10 20 10 empty empty Play 1 5 1 14 -262144 -1 1.04858e+06
;
#X obj 101 130 cnv 4 10 4 empty empty empty 20 12 0 14 -1 -66577 0
;
#X obj 81 439 outlet~;
#X obj -13 64 openpanel;
#X msg 212 352 1;
#X msg 141 326 0;
#X msg 25 107 set \$1;
#X msg 253 354 open \$1;
#X obj 197 291 t b b;
#X msg 211 418 set 0;
#X obj 177 193 sel 1 0;
#X floatatom 230 231 5 0 0 0 - - -;
#X msg 230 208 set \$1;
#X obj 204 261 sel 1;
#X msg 110 361 set 1;
#X obj 185 6 key;
#X obj 186 29 select 32;
#X obj 42 7 loadbang;
#X obj 228 383 readsf~ 2;
#X obj -12 84 t b s;
#X obj 151 100 tgl 12 1 \$0-A \$0-B Play(Space) 14 6 1 9 -262144 -1
-1 0 1;
#X obj 311 100 bng 12 250 50 0 \$0-A \$0-B Stop 14 6 1 9 -262144 -1
-1;
#X obj 249 100 tgl 12 1 \$0-A \$0-B Loop 15 6 1 9 -262144 -1 -1 0 1
;
#X obj 349 436 outlet~;
#X obj 389 130 cnv 4 10 4 empty empty empty 20 12 0 14 -1 -66577 0
;
#X obj 48 196 list2symbol;
#X obj 100 100 bng 12 250 50 0 \$0-A \$0-B empty 14 6 1 9 -262144 -1
-1;
#X obj 174 328 delay 5;
#X obj 102 6 inlet~;
#X obj 101 58 threshold~ 0.5 5 0.49 5;
#X obj 421 289 cnv 15 60 30 empty empty empty 20 12 0 14 -24198 -66577
0;
#N canvas 285 55 565 577 Help 0;
#X obj 9 -296 cnv 15 400 100 empty empty empty 20 12 0 14 -233017 -66577
0;
#X text 12 -297 Citation;
#X obj 8 -51 cnv 15 550 310 empty empty empty 20 12 0 14 -258113 -66577
0;
#X text 20 -44 - Ne lit pas un fichier au format mp3 \, SoundDesigner
II (.SDII ou .SD2);
#X text 23 56 Solution: ouvrir puis sauver le fichier au format aiff
avec Audacity;
#X text 36 43 error: dsp: xxx.aiff: unknown or bad header format;
#X text 31 -281 READSF~ - read a soundfile;
#X text 30 -263 The wave \, aiff \, and nextstep formats are parsed
automatically \, although only 2- 3- and 4- byte samples are accepted
(4 bytes implies floating point and is not available in aiff format.)
;
#X text 13 -189 - Si le Patch est sauvé avec 1 Player contenant un
nom de fichier Audio \, ce fichier sera lu automatiquement à la prochaine
ouverture s'il n'a pas changé d'emplacement.;
#X text 191 206 If the sample rate of pd is set to 44100 \, files having
the sample rates of 44100 are correctly played \, other files will
be transposed.;
#X text 193 179 WARNING The sample rate of the output depends on the
system sample rate of pd:;
#X text 21 95 - ATTENTION Le taux d'échantillonnage de la lecture du
fichier dépends du taux d'échantillonnage de Pd.;
#X text 33 122 Si le taux d'échantillonnage de Pd est de 44100 (Menu
Preferences -> Audio Settings...) \, les fichiers échantillonnés à
44100 Hz sont lus correctement \, sinon ils sont transposés.;
#X text 12 -143 - Peut Ouvrir automatiquement 1 fichier qui se trouve
dans le même dossier que lui \, quelquesoit l'emplacement du dossier.
Pour cela ouvrir le module et taper le nom du fichier (sans chemin
d'accés) dans le message. Le dossier contenant le patch et le fichier
Audio est ainsi transportable.;
#X text 21 4 - Ne lit pas un fichier au format aiff "Entier petit boutien"
comme les pistes d'un CD Audio copiées avec le finder du Mac. Le message
d'erreur s'affichent:;
#X text 8 -434 MM Audio-Play;
#X text 19 -405 Le canal d'un fichier Audio Mono est lu sur la sortie
gauche;
#X text 19 -392 Les canaux 3 \, 4... d'un fichier Audio de plus de
2 canaux ne sont pas lus.;
#X text 199 -329 Channels 3 \, 4... of an Audio file of more than 2
channels are not read.;
#X text 199 -343 A Mono Audio file is read on the left output.;
#X text 19 -418 Lit un fichier Audio Stereo (2 canaux) au format aiff
\, wav.;
#X text 198 -370 Reads an Stereo Audio file (2 channels) with aiff
\, wav format..;
#X restore 428 295 pd Help;
#X obj 101 100 cnv 2 10 4 empty empty empty 20 12 0 14 -1 -66577 0
;
#X obj 102 101 cnv 2 8 2 empty empty empty 20 12 0 14 -262144 -66577
0;
#X text 75 81 Trig Decl;
#X obj 106 113 hradio 14 1 0 20 empty empty empty 0 6 0 8 -260097 -260097
-260097 0;
#X obj -13 42 bang;
#X text 403 115 <- Click the name to change;
#X symbolatom 101 113 49 0 0 0 - - -;
#X obj 49 140 cnv 15 400 50 empty empty empty 20 12 0 14 -260097 -66577
0;
#X text 51 139 Nom du fichier / File name;
#X text 454 152 <- Ajouter ../ devant le nom du fichier \; pour remonter
d'un dossier;
#X obj 653 417 cnv 15 41 30 empty empty empty 20 12 0 14 -24198 -66577
0;
#N canvas 350 196 308 136 ?? 0;
#X obj -9 87 cnv 15 300 38 empty empty empty 20 12 0 14 -224896 -66577
0;
#X obj -9 10 cnv 18 300 70 empty empty ARGOPdMiniModules 1 10 1 14
-4033 -1 1.04858e+06;
#X obj 9 29 cnv 10 10 10 empty empty Gerard 0 5 1 9 -4033 -1 1.04858e+06
;
#X obj 40 29 cnv 10 10 10 empty empty Paresys 0 5 1 9 -4033 -1 1.04858e+06
;
#X text -8 89 Construit sous / Build under Pd 0.42.5-extended;
#X obj 39 105 pddplink http://puredata.info/downloads;
#X obj 3 42 pddplink http://pagesperso-orange.fr/Paresys/ARGOPd/;
#X obj 3 57 pddplink http://gerard.paresys.free.fr/ARGOPd/;
#X restore 657 424 pd ??;
#X text 405 96 13 11 2010;
#X msg 53 158 GaucheDroit.wav;
#X connect 3 0 19 0;
#X connect 4 0 18 0;
#X connect 5 0 18 0;
#X connect 6 0 45 0;
#X connect 7 0 18 0;
#X connect 8 0 27 0;
#X connect 8 1 45 0;
#X connect 9 0 20 0;
#X connect 10 0 8 0;
#X connect 10 1 9 0;
#X connect 10 1 5 0;
#X connect 11 0 13 0;
#X connect 12 0 11 0;
#X connect 13 0 26 0;
#X connect 14 0 20 0;
#X connect 15 0 16 0;
#X connect 16 0 20 0;
#X connect 17 0 45 0;
#X connect 18 0 2 0;
#X connect 18 1 23 0;
#X connect 18 2 11 0;
#X connect 18 2 9 0;
#X connect 19 0 45 0;
#X connect 19 1 6 0;
#X connect 20 0 10 0;
#X connect 21 0 5 0;
#X connect 21 0 9 0;
#X connect 22 0 12 0;
#X connect 25 0 38 0;
#X connect 25 0 7 0;
#X connect 26 0 8 0;
#X connect 27 0 4 0;
#X connect 27 0 14 0;
#X connect 28 0 29 0;
#X connect 29 0 26 0;
#X connect 35 0 36 0;
#X connect 36 0 3 0;
#X connect 45 0 25 0;
#X coords 0 -1 1 1 300 35 2 100 100;
#X restore -171 -238 pd ARGO;
#X text -185 -90 Niveau general ->;
#X text -179 -80 General level ->;
#N canvas 286 45 629 434 ARGO 0;
#X obj 239 64 inlet~;
#X text 89 83 Left input;
#X text 242 83 Right input;
#X text -13 6 Stereo wav file format recorder;
#X text -13 21 Enregistreur de fichier audio wav à 2 canaux (stereo)
;
#X obj 88 64 inlet~;
#X obj 100 188 sel 0 1;
#X msg 118 355 start;
#X msg 56 351 stop;
#X msg 119 235 open \$1;
#X obj 119 211 savepanel;
#X obj 136 305 delay 1000;
#X obj 192 408 float;
#X obj 238 407 + 1;
#X obj 170 380 metro 1000;
#X msg 238 381 -1;
#X msg 47 245 0;
#X msg 11 244 1;
#X obj 47 216 t b b;
#X obj 136 327 t b b b b;
#X obj 134 264 t b b b;
#X obj 86 409 writesf~ 2;
#X text -13 36 L'extension .wav est ajoutée au nom du fichier automatiquement
;
#X obj 103 100 hsl 161 17 0 127 0 0 \$0-A \$0-B Record 103 10 1 14
-261299 -261299 -1 0 1;
#N canvas 317 143 290 366 CouleurRecord2 0;
#X obj 122 -19 +;
#X obj 122 37 +;
#X obj 61 -75 * -65536;
#X obj 117 -75 * -256;
#X obj 163 -77 * -1;
#X obj 122 68 - 1;
#X obj 115 -202 inlet;
#X text 77 -97 R;
#X text 123 -99 G;
#X text 172 -98 B;
#X obj 122 123 outlet;
#X text 170 -169 Rouge;
#X msg 134 -121 255;
#X msg 167 -121 0;
#X obj 115 -178 sel 0 1;
#X text 56 -170 Rose;
#X msg 73 -121 200;
#X msg 40 -121 252;
#X obj 134 -148 t b b b;
#X msg 198 -121 0;
#X msg 104 -121 200;
#X obj 40 -148 t b b b;
#X msg 122 96 color \$1 \$1 -1;
#X connect 0 0 1 1;
#X connect 1 0 5 0;
#X connect 2 0 1 0;
#X connect 3 0 0 0;
#X connect 4 0 0 1;
#X connect 5 0 22 0;
#X connect 6 0 14 0;
#X connect 12 0 2 0;
#X connect 13 0 3 0;
#X connect 14 0 21 0;
#X connect 14 1 18 0;
#X connect 16 0 3 0;
#X connect 17 0 2 0;
#X connect 18 0 12 0;
#X connect 18 1 13 0;
#X connect 18 2 19 0;
#X connect 19 0 4 0;
#X connect 20 0 4 0;
#X connect 21 0 17 0;
#X connect 21 1 16 0;
#X connect 21 2 20 0;
#X connect 22 0 10 0;
#X restore -24 275 pd CouleurRecord2;
#X obj 255 101 cnv 4 10 4 empty empty empty 20 12 0 14 -1 -66577 0
;
#X obj 101 101 cnv 4 10 4 empty empty empty 20 12 0 14 -1 -66577 0
;
#X obj 112 100 nbx 4 17 0 9999 0 0 \$0-A ColorTime sec 59 9 1 15 -208064
-1 -1 11 256;
#X obj 100 168 tgl 15 0 \$0-A \$0-B empty 19 9 1 12 -262144 -258113
-1 1 1;
#X text 156 61 5 2 2011;
#X obj 100 125 b;
#X obj 100 147 delay 500;
#X obj 305 394 cnv 15 41 30 empty empty empty 20 12 0 14 -24198 -66577
0;
#N canvas 350 196 308 136 ?? 0;
#X obj -9 87 cnv 15 300 38 empty empty empty 20 12 0 14 -224896 -66577
0;
#X obj -9 10 cnv 18 300 70 empty empty ARGOPdMiniModules 1 10 1 14
-4033 -1 1.04858e+06;
#X obj 9 29 cnv 10 10 10 empty empty Gerard 0 5 1 9 -4033 -1 1.04858e+06
;
#X obj 40 29 cnv 10 10 10 empty empty Paresys 0 5 1 9 -4033 -1 1.04858e+06
;
#X text -8 89 Construit sous / Build under Pd 0.42.5-extended;
#X obj 39 105 pddplink http://puredata.info/downloads;
#X obj 3 42 pddplink http://pagesperso-orange.fr/Paresys/ARGOPd/;
#X obj 3 57 pddplink http://gerard.paresys.free.fr/ARGOPd/;
#X restore 309 401 pd ??;
#X text -271 87 Clic n'importe où pour commencer un enregistrement
Audio -> Clic encore pour arrêter l'enregistrement;
#X text -170 114 Click anywhere to start recording Audio ->;
#X text -171 126 Click again to stop recording;
#X text 146 120 Hslider caché transformé en bouton;
#X connect 0 0 21 1;
#X connect 5 0 21 0;
#X connect 6 0 18 0;
#X connect 6 1 10 0;
#X connect 7 0 21 0;
#X connect 8 0 14 0;
#X connect 8 0 21 0;
#X connect 9 0 20 0;
#X connect 9 0 21 0;
#X connect 10 0 9 0;
#X connect 11 0 19 0;
#X connect 12 0 13 0;
#X connect 13 0 12 1;
#X connect 13 0 27 0;
#X connect 14 0 12 0;
#X connect 15 0 13 0;
#X connect 16 0 24 0;
#X connect 17 0 24 0;
#X connect 18 0 16 0;
#X connect 18 1 8 0;
#X connect 19 0 17 0;
#X connect 19 1 7 0;
#X connect 19 2 14 0;
#X connect 19 3 15 0;
#X connect 20 0 11 0;
#X connect 20 2 15 0;
#X connect 23 0 30 0;
#X connect 24 0 23 0;
#X connect 28 0 6 0;
#X connect 30 0 31 0;
#X connect 31 0 28 0;
#X coords 0 -1 1 1 166 17 1 100 100;
#X restore -214 68 pd ARGO;
#X connect 1 0 2 0;
#X connect 8 0 0 0;
#X connect 8 0 6 0;
#X connect 8 0 18 0;
#X connect 8 1 0 1;
#X connect 8 1 7 0;
#X connect 8 1 18 1;
#X connect 9 0 12 0;
#X connect 12 0 8 0;
#X connect 12 1 8 1;
#X connect 15 0 12 0;
#X connect 15 1 12 1;
