#N canvas 249 22 575 522 10;
#X obj -45 -229 cnv 15 15 15 empty empty ExMM24a-FFTBrickWallFilter.pd
0 8 1 14 -262144 -66577 0;
#X text 24 156 Mix LowPass / HighPass ->;
#X text 50 -64 LowPass Filter ->;
#X text 323 -63 <- HighPass Filter;
#N canvas 310 130 478 295 ARGO 0;
#X obj 95 47 cartopol~;
#X obj 95 20 rfft~;
#X obj -23 77 vectral~ 1024;
#X obj -23 3 count~ 0 1024 1 1;
#X msg -109 34 slide 10 10;
#X msg 161 72 range 0 512 \, 2 \, bufsize 512;
#X obj 95 -28 inlet~;
#X msg -129 61 slide 1 1;
#X obj -23 35 *~ 0.361;
#X obj 101 101 cnv 12 198 34 empty empty empty 20 12 0 14 -262144 -1
1.04858e+06;
#X obj 158 105 cnv 10 44 10 empty empty Spectrum(2000Hz/div) 1 5 1
14 -262144 -1 1.04858e+06;
#X obj 101 120 Scope~ 198 129 2 3 512 0 512 0 0 0 0 255 0 0 255 252
255 0;
#X obj 101 101 cnv 4 10 4 empty empty empty 20 12 0 14 -1 -66577 0
;
#X obj 115 103 tgl 12 1 \$0-SendLoop \$0-ReceiveLoop Gliss 15 6 1 9
-262144 -1 -1 1 1;
#X obj -128 7 sel 0 1;
#X msg 168 13 frgb 255 0 0;
#X obj 169 -12 block~ 1024;
#X text -126 207 Voir examples:cyclone:pink-test.pd;
#X text -126 218 Voir examples:cyclone:scope-...;
#X msg 166 44 brgb 255 255 255;
#X text -126 229 Voir MSP46ReferenceManual.pdf;
#X obj 95 -2 *~ 10;
#X connect 0 0 2 2;
#X connect 1 0 0 0;
#X connect 1 1 0 1;
#X connect 2 0 11 0;
#X connect 3 0 2 1;
#X connect 3 0 8 0;
#X connect 4 0 2 0;
#X connect 5 0 11 0;
#X connect 6 0 21 0;
#X connect 7 0 2 0;
#X connect 8 0 2 0;
#X connect 13 0 14 0;
#X connect 14 0 7 0;
#X connect 14 1 4 0;
#X connect 15 0 11 0;
#X connect 19 0 11 0;
#X connect 21 0 1 0;
#X coords 0 -1 1 1 200 150 2 100 100;
#X restore -47 -27 pd ARGO;
#X obj -5 -101 switch~;
#N canvas 608 166 228 173 ARGOnOff 0;
#X obj 100 100 tgl 18 1 \$0-SendOnOff \$0-ReceiveOnOff On/Off 20 11
1 14 -4033 -1 -1 1 1;
#X obj 99 10 loadbang;
#X msg 99 33 \; pd dsp 1;
#X obj 100 129 outlet;
#X text -50 99 Audio On/Off du patch ->;
#X text -22 45 Audio General On ->;
#X text 107 82 17 3 2010;
#X connect 0 0 3 0;
#X connect 1 0 2 0;
#X coords 0 -1 1 1 65 18 2 100 100;
#X restore -5 -119 pd ARGOnOff;
#X text -12 -152 On/Off patch;
#X text 0 -134 V;
#X text 0 -141 |;
#X text 22 -184 FFT = Fast Fourier Transform = Transformée de Fourier
rapide;
#N canvas 396 296 408 282 ARGO 0;
#X obj 101 101 cnv 10 164 34 empty ColorForm empty 20 12 0 14 -188398
-1 1.04858e+06;
#X obj 101 131 cnv 4 10 4 empty empty empty 20 12 0 14 -1 -66577 0
;
#X obj 93 51 inlet~;
#X obj 101 101 cnv 4 10 4 empty empty empty 20 12 0 14 -1 -66577 0
;
#X obj 92 183 outlet~;
#X obj 125 105 cnv 10 20 10 empty ColorForm FFT-BrickWallFilter 1 5
1 14 -188398 -1 1.04858e+06;
#X obj 255 131 cnv 4 10 4 empty empty empty 20 12 0 14 -1 -66577 0
;
#N canvas 197 134 569 400 fft-analysis 0;
#X obj 42 128 *~;
#X obj 43 55 *~;
#X obj 12 14 inlet~;
#X obj 43 78 rfft~;
#X obj 37 298 *~;
#X obj 42 159 rifft~;
#X obj 38 358 outlet~;
#X obj 60 15 tabreceive~ \$0-hann;
#X obj 38 333 *~;
#X obj 196 131 *~;
#X obj 191 357 outlet~;
#X obj 191 332 *~;
#X text 217 331 normalize;
#X obj 191 298 *~;
#X obj 196 159 rifft~;
#X obj 75 126 *~;
#X obj 229 132 *~;
#X obj 328 15 inlet;
#X obj 240 53 expr~ $v1 > $v2;
#X obj 132 53 expr~ $v1 <= $v2;
#X obj 182 15 tabreceive~ \$0-FFTIndex;
#X text 188 375 HighPass;
#X text 38 375 LowPass;
#X obj 402 361 switch~ 1024 4 1;
#X msg 516 332 0;
#X msg 366 331 1;
#X text 366 0 64..65536;
#X obj 367 16 r \$0-FFTSize;
#X obj 404 123 /;
#X obj 466 15 r \$0-FFTOverlap;
#X text 483 -3 1 2 4 8;
#X obj 434 244 pack 1 2;
#X msg 401 331 set \$1 \$2 1;
#X obj 466 72 t b b f b;
#X obj 367 72 t b b b f f f b;
#X msg 376 99 0.628;
#X connect 0 0 5 0;
#X connect 1 0 3 0;
#X connect 2 0 1 0;
#X connect 3 0 0 0;
#X connect 3 0 9 0;
#X connect 3 1 15 0;
#X connect 3 1 16 0;
#X connect 4 0 8 0;
#X connect 5 0 4 0;
#X connect 7 0 1 1;
#X connect 7 0 4 1;
#X connect 7 0 13 1;
#X connect 8 0 6 0;
#X connect 9 0 14 0;
#X connect 11 0 10 0;
#X connect 13 0 11 0;
#X connect 14 0 13 0;
#X connect 15 0 5 1;
#X connect 16 0 14 1;
#X connect 17 0 18 1;
#X connect 17 0 19 1;
#X connect 18 0 9 1;
#X connect 18 0 16 1;
#X connect 19 0 0 1;
#X connect 19 0 15 1;
#X connect 20 0 18 0;
#X connect 20 0 19 0;
#X connect 24 0 23 0;
#X connect 25 0 23 0;
#X connect 27 0 34 0;
#X connect 28 0 11 1;
#X connect 28 0 8 1;
#X connect 29 0 33 0;
#X connect 31 0 32 0;
#X connect 32 0 23 0;
#X connect 33 0 25 0;
#X connect 33 1 31 0;
#X connect 33 2 31 1;
#X connect 33 3 24 0;
#X connect 34 0 25 0;
#X connect 34 2 35 0;
#X connect 34 3 28 1;
#X connect 34 5 31 0;
#X connect 34 6 24 0;
#X connect 35 0 28 0;
#X restore 120 158 pd fft-analysis;
#X text 11 209 cf MaxMSP463 -> Documentation -> MSP46TutorialsAndTopics.pdf
;
#X text 26 222 -> Tutorial 26: Frequency Domain Signal Processing with...
;
#X obj 235 183 outlet~;
#X text 238 137 HighPass;
#X text 91 136 LowPass;
#X obj 103 118 hsl 161 12 0.0005 0.5 1 1 \$0-A ColorTime 2000Hz 0 7
1 9 -208064 -1 -1 10441 0;
#X obj -11 98 *;
#X obj -11 48 t f b;
#X obj 16 75 samplerate~;
#X msg -11 169 label \$1;
#X obj -11 146 tosymbol;
#X obj -11 123 sprintf %dHz;
#X text 37 11 Filtres Passe-Bas et Passe-Haut dont la représentation
graphique est verticale comme un mur de briques.;
#X text 36 -18 Low-pass and High-pass filters of which the image is
as vertical as a brick wall.;
#X text 271 110 4 4 2010;
#X connect 2 0 7 0;
#X connect 7 0 4 0;
#X connect 7 1 10 0;
#X connect 13 0 7 1;
#X connect 13 0 15 0;
#X connect 14 0 19 0;
#X connect 15 0 14 0;
#X connect 15 1 16 0;
#X connect 16 0 14 1;
#X connect 17 0 13 0;
#X connect 18 0 17 0;
#X connect 19 0 18 0;
#X coords 0 -1 1 1 166 36 1 100 100;
#X restore 156 -86 pd ARGO;
#N canvas 295 212 217 197 ARGO 0;
#X obj 110 105 cnv 10 20 10 empty empty WhiteNoise 1 5 1 14 -262144
-1 1.04858e+06;
#X obj 101 113 cnv 4 10 4 empty empty empty 20 12 0 14 -1 -66577 0
;
#X obj 87 153 outlet~;
#X obj 87 124 noise~;
#X connect 3 0 2 0;
#X coords 0 -1 1 1 95 18 2 100 100;
#X restore 156 -121 pd ARGO;
#N canvas 310 130 478 295 ARGO 0;
#X obj 95 47 cartopol~;
#X obj 95 20 rfft~;
#X obj -23 77 vectral~ 1024;
#X obj -23 3 count~ 0 1024 1 1;
#X msg -109 34 slide 10 10;
#X msg 161 72 range 0 512 \, 2 \, bufsize 512;
#X obj 95 -28 inlet~;
#X msg -129 61 slide 1 1;
#X obj -23 35 *~ 0.361;
#X obj 101 101 cnv 12 198 34 empty empty empty 20 12 0 14 -262144 -1
1.04858e+06;
#X obj 158 105 cnv 10 44 10 empty empty Spectrum(2000Hz/div) 1 5 1
14 -262144 -1 1.04858e+06;
#X obj 101 120 Scope~ 198 129 2 3 512 0 512 0 0 0 0 255 0 0 255 252
255 0;
#X obj 101 101 cnv 4 10 4 empty empty empty 20 12 0 14 -1 -66577 0
;
#X obj 115 103 tgl 12 1 \$0-SendLoop \$0-ReceiveLoop Gliss 15 6 1 9
-262144 -1 -1 1 1;
#X obj -128 7 sel 0 1;
#X msg 168 13 frgb 255 0 0;
#X obj 169 -12 block~ 1024;
#X text -126 207 Voir examples:cyclone:pink-test.pd;
#X text -126 218 Voir examples:cyclone:scope-...;
#X msg 166 44 brgb 255 255 255;
#X text -126 229 Voir MSP46ReferenceManual.pdf;
#X obj 95 -2 *~ 10;
#X connect 0 0 2 2;
#X connect 1 0 0 0;
#X connect 1 1 0 1;
#X connect 2 0 11 0;
#X connect 3 0 2 1;
#X connect 3 0 8 0;
#X connect 4 0 2 0;
#X connect 5 0 11 0;
#X connect 6 0 21 0;
#X connect 7 0 2 0;
#X connect 8 0 2 0;
#X connect 13 0 14 0;
#X connect 14 0 7 0;
#X connect 14 1 4 0;
#X connect 15 0 11 0;
#X connect 19 0 11 0;
#X connect 21 0 1 0;
#X coords 0 -1 1 1 200 150 2 100 100;
#X restore 316 -27 pd ARGO;
#X text 169 -249 Filtres Passe-Bas et Passe-Haut dont la représentation
graphique est verticale comme un mur de briques.;
#X text 170 -221 Low-pass and High-pass filters of which the image
is as vertical as a brick wall.;
#N canvas 350 62 236 332 ARGO 0;
#X obj 101 101 cnv 20 104 34 empty ColorAmpli empty 20 12 0 14 -261299
-1 1.04858e+06;
#X obj 92 302 outlet~;
#X obj 141 104 cnv 10 20 10 empty ColorAmpli Mix 1 5 1 14 -261299 -1
1.04858e+06;
#X obj 88 75 inlet~;
#X obj 181 75 inlet~;
#X obj 86 272 *~;
#X obj 103 118 hsl 101 12 -1 1 0 1 \$0-A ColorAmpli -1 0 7 1 9 -261299
-1 -1 0 0;
#X msg 22 132 label \$1;
#X obj 21 109 tosymbol;
#X obj 101 101 cnv 4 10 4 empty empty empty 20 12 0 14 -1 -66577 0
;
#X obj 101 131 cnv 4 10 4 empty empty empty 20 12 0 14 -1 -66577 0
;
#X obj 195 101 cnv 4 10 4 empty empty empty 20 12 0 14 -1 -66577 0
;
#X obj 179 271 *~;
#X obj 136 145 + 1;
#X obj 136 170 / 2;
#X obj 101 196 t b f;
#X msg 101 220 1;
#X obj 101 247 -;
#X connect 3 0 5 0;
#X connect 4 0 12 0;
#X connect 5 0 1 0;
#X connect 6 0 8 0;
#X connect 6 0 13 0;
#X connect 7 0 6 0;
#X connect 8 0 7 0;
#X connect 12 0 1 0;
#X connect 13 0 14 0;
#X connect 14 0 15 0;
#X connect 14 0 12 1;
#X connect 15 0 16 0;
#X connect 15 1 17 1;
#X connect 16 0 17 0;
#X connect 17 0 5 1;
#X coords 0 -1 1 1 106 36 1 100 100;
#X restore 181 141 pd ARGO;
#X obj 458 227 cnv 15 48 25 empty empty empty 20 12 0 14 -24198 -66577
0;
#N canvas 350 196 308 136 ??? 0;
#X obj -6 87 cnv 15 300 38 empty empty empty 20 12 0 14 -224896 -66577
0;
#X obj -6 10 cnv 18 300 70 empty empty ARGOPdMiniModules 3 10 1 14
-4033 -1 1.04858e+06;
#X obj 13 31 cnv 10 10 10 empty empty Gerard 0 5 1 11 -4033 -1 1.04858e+06
;
#X obj 55 30 cnv 10 10 10 empty empty Paresys 0 5 1 11 -4033 -1 1.04858e+06
;
#X text -1 89 Construit sous / Build under Pd 0.42.5-extended;
#X obj 6 43 pddp/pddplink http://pagesperso-orange.fr/Paresys/ARGOPd/
;
#X obj 6 58 pddp/pddplink http://gerard.paresys.free.fr/ARGOPd/;
#X obj 46 105 pddp/pddplink http://puredata.info/downloads;
#X restore 462 231 pd ???;
#X obj 164 236 dac~ 1 2;
#N canvas 324 59 331 313 ARGO 0;
#X obj 101 101 cnv 20 104 34 empty ColorAmpli empty 20 12 0 14 -261299
-1 1.04858e+06;
#X obj 85 285 outlet~;
#X obj 134 104 cnv 10 20 10 empty ColorAmpli Ampli 1 5 1 14 -261299
-1 1.04858e+06;
#X obj 85 72 inlet~;
#X obj 85 260 *~;
#X obj 103 118 hsl 101 12 -80 20 0 1 \$0-A ColorAmpli -6dB 0 7 1 9
-261299 -1 -1 7400 0;
#X msg -24 161 label \$1;
#X obj -25 138 tosymbol;
#X obj -25 103 sprintf %ddB;
#X obj 101 101 cnv 4 10 4 empty empty empty 20 12 0 14 -1 -66577 0
;
#X obj 101 131 cnv 4 10 4 empty empty empty 20 12 0 14 -1 -66577 0
;
#X text -16 120 -> -80dB..20dB;
#X text 106 182 -> 0.0001..10 = -80dB..20dB;
#X text 209 97 5 5 2011;
#X obj 100 163 expr (pow(10 \, $f1 / 20));
#X text 107 140 -> -80..20;
#X obj 227 270 cnv 15 41 30 empty empty empty 20 12 0 14 -24198 -66577
0;
#N canvas 350 196 308 136 ?? 0;
#X obj -9 87 cnv 15 300 38 empty empty empty 20 12 0 14 -224896 -66577
0;
#X obj -9 10 cnv 18 300 70 empty empty ARGOPdMiniModules 1 10 1 14
-4033 -1 1.04858e+06;
#X obj 9 29 cnv 10 10 10 empty empty Gerard 0 5 1 9 -4033 -1 1.04858e+06
;
#X obj 40 29 cnv 10 10 10 empty empty Paresys 0 5 1 9 -4033 -1 1.04858e+06
;
#X text -8 89 Construit sous / Build under Pd 0.42.5-extended;
#X obj 39 105 pddplink http://puredata.info/downloads;
#X obj 3 42 pddplink http://pagesperso-orange.fr/Paresys/ARGOPd/;
#X obj 3 57 pddplink http://gerard.paresys.free.fr/ARGOPd/;
#X restore 231 277 pd ??;
#X obj 100 206 sel 0.0001;
#X msg 100 234 0;
#X connect 3 0 4 0;
#X connect 4 0 1 0;
#X connect 5 0 8 0;
#X connect 5 0 14 0;
#X connect 6 0 5 0;
#X connect 7 0 6 0;
#X connect 8 0 7 0;
#X connect 14 0 18 0;
#X connect 18 0 19 0;
#X connect 18 1 4 1;
#X connect 19 0 4 1;
#X connect 19 0 7 0;
#X coords 0 -1 1 1 106 36 1 100 100;
#X restore 181 184 pd ARGO;
#X text 74 194 Niveau general ->;
#X text 80 204 General level ->;
#X text 331 -154 <- FFT size;
#X text 331 -165 <- Taille de la FFT;
#N canvas 305 72 638 521 ARGO 0;
#X obj 101 101 cnv 10 228 22 empty ColorForm Init-FFT 2 9 1 14 -188398
-1 1.04858e+06;
#X obj 155 100 hradio 12 1 1 11 \$0-A ColorForm empty 0 -8 0 10 -188398
-1 -1 5;
#X obj 287 100 nbx 5 12 1 99999 0 1 \$0-A ColorForm empty 0 0 1 9 -188398
-1 -1 2048 256;
#N canvas 0 22 450 300 (subpatch) 0;
#X array \$0-hann 2048 float 0;
#X coords 0 0 2047 1 300 100 0;
#X restore 50 89 graph;
#X obj 158 359 osc~;
#X obj 157 380 *~ -0.5;
#X obj 157 402 +~ 0.5;
#X obj 90 437 tabwrite~ \$0-hann;
#X obj 173 230 samplerate~;
#X obj 155 255 swap;
#X obj 155 279 /;
#X obj 155 206 t f b f;
#X msg 362 408 resize \$1;
#X obj 334 437 s \$0-hann;
#X msg 215 327 0;
#X text 249 189 64..65536;
#X obj 231 378 phasor~;
#N canvas 9 234 450 300 (subpatch) 0;
#X array \$0-FFTIndex 2048 float 0;
#X coords 0 0 2047 1 300 100 0;
#X restore 49 117 graph;
#X obj 200 437 tabwrite~ \$0-FFTIndex;
#X obj 396 437 s \$0-FFTIndex;
#X obj 8 437 s \$0-FFTSize;
#X obj 191 112 hradio 12 1 1 4 \$0-A ColorForm Overlap -33 6 1 9 -188398
-1 -1 2;
#X obj 239 112 nbx 1 12 1 99999 0 1 \$0-A ColorForm empty 0 0 1 9 -188398
-1 -1 4 256;
#X obj 482 436 s \$0-FFTOverlap;
#X msg 90 385 stop;
#X obj 155 302 t b b b b b f;
#X obj 155 48 r \$0-SendOnOff;
#X obj 155 77 sel 1;
#X text 279 82 2 6 2011;
#X obj 90 331 delay 2000;
#X obj 583 424 cnv 15 41 30 empty empty empty 20 12 0 14 -24198 -66577
0;
#N canvas 350 196 308 136 ?? 0;
#X obj -9 87 cnv 15 300 38 empty empty empty 20 12 0 14 -224896 -66577
0;
#X obj -9 10 cnv 18 300 70 empty empty ARGOPdMiniModules 1 10 1 14
-4033 -1 1.04858e+06;
#X obj 9 29 cnv 10 10 10 empty empty Gerard 0 5 1 9 -4033 -1 1.04858e+06
;
#X obj 40 29 cnv 10 10 10 empty empty Paresys 0 5 1 9 -4033 -1 1.04858e+06
;
#X text -8 89 Construit sous / Build under Pd 0.42.5-extended;
#X obj 39 105 pddplink http://puredata.info/downloads;
#X obj 3 42 pddplink http://pagesperso-orange.fr/Paresys/ARGOPd/;
#X obj 3 57 pddplink http://gerard.paresys.free.fr/ARGOPd/;
#X restore 587 431 pd ??;
#X obj 155 138 expr (pow(2 \, $f1 + 6));
#X obj 190 163 expr (pow(2 \, $f1));
#X text 239 208 -> Overlap 1 2 4 8;
#X text 161 188 -> window-size;
#X obj 48 156 cnv 15 60 30 empty empty empty 20 12 0 14 -24198 -66577
0;
#N canvas 399 94 413 273 Help 0;
#X obj 8 85 cnv 15 400 80 empty empty empty 20 12 0 14 -233017 -66577
0;
#X text 12 87 Citation;
#X text 22 2 Init-FFT;
#X text 29 106 calculate Hann window table (variable window size);
#X text 23 29 Voir Pd-0.42.5-extended ->;
#X text 24 41 Pure Data/3.audio.examples/I05.compressor.pd ->;
#X text 23 53 pd hann-window;
#X text 24 168 L'array \$0-FFTIndex n'est utilise que dans le MM FFT-BrickWallFilter
;
#X text 20 216 Si le son d'un MiniModule FFT est haché \, avec Init-FFT
grand (65536...) -> Pd-extended -> Preferences -> Audio Settings...
-> delay (msec) -> Augmenter;
#X restore 55 162 pd Help;
#X text 333 106 <- FFT size;
#X text 333 95 <- Taille de la FFT;
#X obj 92 -54 cnv 15 360 95 empty empty empty 20 12 0 14 -24198 -66577
0;
#X text 100 -52 ATTENTION: il faut placer un et un seul MiniModule
"Init-FFT" dans un patch contenant 1 ou plusieurs MiniModules FFT.
;
#X text 99 -6 CAUTION: it is necessary to place one and only one MiniModule
"Init-FFT" in a patch containing 1 or several MiniModules FFT.;
#X connect 1 0 32 0;
#X connect 4 0 5 0;
#X connect 5 0 6 0;
#X connect 6 0 7 0;
#X connect 8 0 9 1;
#X connect 9 0 10 0;
#X connect 9 1 10 1;
#X connect 10 0 25 0;
#X connect 11 0 9 0;
#X connect 11 1 8 0;
#X connect 11 2 12 0;
#X connect 12 0 13 0;
#X connect 12 0 19 0;
#X connect 14 0 4 1;
#X connect 14 0 16 1;
#X connect 16 0 18 0;
#X connect 21 0 33 0;
#X connect 24 0 18 0;
#X connect 24 0 7 0;
#X connect 25 0 29 0;
#X connect 25 2 7 0;
#X connect 25 3 18 0;
#X connect 25 4 14 0;
#X connect 25 5 16 0;
#X connect 25 5 4 0;
#X connect 26 0 27 0;
#X connect 27 0 1 0;
#X connect 29 0 24 0;
#X connect 32 0 2 0;
#X connect 32 0 20 0;
#X connect 32 0 11 0;
#X connect 33 0 22 0;
#X connect 33 0 23 0;
#X coords 0 -1 1 1 230 24 1 100 100;
#X restore 100 -156 pd ARGO;
#X connect 6 0 5 0;
#X connect 11 0 4 0;
#X connect 11 0 16 0;
#X connect 11 1 13 0;
#X connect 11 1 16 1;
#X connect 12 0 11 0;
#X connect 16 0 20 0;
#X connect 20 0 19 0;
#X connect 20 0 19 1;
