#N canvas 467 22 424 149 10;
#X obj 4 -42 cnv 15 15 15 empty empty ExMM80a-MIDI-Visu.pd 0 8 1 14
-262144 -66577 0;
#X obj 363 59 cnv 15 48 25 empty empty empty 20 12 0 14 -24198 -66577
0;
#N canvas 350 196 308 136 ??? 0;
#X obj -6 87 cnv 15 300 38 empty empty empty 20 12 0 14 -224896 -66577
0;
#X obj -6 10 cnv 18 300 70 empty empty ARGOPdMiniModules 3 10 1 14
-4033 -1 1.04858e+06;
#X obj 13 31 cnv 10 10 10 empty empty Gerard 0 5 1 11 -4033 -1 1.04858e+06
;
#X obj 55 30 cnv 10 10 10 empty empty Paresys 0 5 1 11 -4033 -1 1.04858e+06
;
#X text -1 89 Construit sous / Build under Pd 0.42.5-extended;
#X obj 6 43 pddp/pddplink http://pagesperso-orange.fr/Paresys/ARGOPd/
;
#X obj 6 58 pddp/pddplink http://gerard.paresys.free.fr/ARGOPd/;
#X obj 46 105 pddp/pddplink http://puredata.info/downloads;
#X restore 367 63 pd ???;
#N canvas 62 231 322 268 MIDI 0;
#X obj 101 101 cnv 10 105 36 empty ColorMIDI Note 40 8 1 14 -262103
-1 1.04858e+06;
#X obj 55 -18 / 16;
#X obj 55 7 int;
#X obj 54 28 + 1;
#X obj 95 -50 - 1;
#X obj 119 -14 mod 16;
#X obj 119 28 + 1;
#X obj 130 114 cnv 9 9 9 empty ColorMIDI Ch 0 5 1 9 -262103 -1 1.04858e+06
;
#X obj 104 114 cnv 9 9 9 empty ColorMIDI Port 0 5 1 9 -262103 -1 1.04858e+06
;
#X obj 187 -115 notein;
#X obj 163 114 cnv 9 9 9 empty ColorMIDI Pitch 0 5 1 9 -262103 -1 1.04858e+06
;
#X obj 189 114 cnv 9 9 9 empty ColorMIDI Vel 0 5 1 9 -262103 -1 1.04858e+06
;
#X obj 103 123 hsl 18 15 0 127 0 0 \$0-A \$0-B 1 0 8 1 10 -262103 -262103
-1 0 1;
#X msg 54 72 label \$1;
#X obj 54 50 tosymbol;
#X obj 126 123 hsl 18 15 0 127 0 0 \$0-A \$0-B 1 0 8 1 10 -262103 -262103
-1 0 1;
#X msg 119 72 label \$1;
#X obj 119 50 tosymbol;
#X obj 164 123 hsl 18 15 0 127 0 0 \$0-A \$0-B 67 0 8 1 10 -262103
-262103 -1 0 1;
#X msg 184 72 label \$1;
#X obj 184 50 tosymbol;
#X obj 187 123 hsl 18 15 0 127 0 0 \$0-A \$0-B 104 0 8 1 10 -262103
-262103 -1 0 1;
#X msg 249 72 label \$1;
#X obj 249 50 tosymbol;
#X obj 164 -15 cyclone/speedlim 100;
#X obj 146 123 bng 15 50 50 0 \$0-A \$0-B empty 6 9 0 9 -257985 -260097
-1;
#X obj 262 115 cnv 15 48 25 empty empty empty 20 12 0 14 -24198 -66577
0;
#N canvas 350 196 308 136 ??? 0;
#X obj -6 87 cnv 15 300 38 empty empty empty 20 12 0 14 -224896 -66577
0;
#X obj -6 10 cnv 18 300 70 empty empty ARGOPdMiniModules 3 10 1 14
-4033 -1 1.04858e+06;
#X obj 13 31 cnv 10 10 10 empty empty Gerard 0 5 1 11 -4033 -1 1.04858e+06
;
#X obj 55 30 cnv 10 10 10 empty empty Paresys 0 5 1 11 -4033 -1 1.04858e+06
;
#X text -1 89 Construit sous / Build under Pd 0.42.5-extended;
#X obj 6 43 pddp/pddplink http://pagesperso-orange.fr/Paresys/ARGOPd/
;
#X obj 6 58 pddp/pddplink http://gerard.paresys.free.fr/ARGOPd/;
#X obj 46 105 pddp/pddplink http://puredata.info/downloads;
#X restore 266 119 pd ???;
#X text 253 93 22 1 2012;
#X obj 228 -85 cnv 15 60 30 empty empty empty 20 12 0 14 -24198 -66577
0;
#N canvas 334 205 546 168 Help 0;
#X obj 12 13 cnv 15 400 100 empty empty empty 20 12 0 14 -233017 -66577
0;
#X text 15 12 Citation;
#X obj 9 137 pddp/pddplink http://madamebutterface.com/assets/documents/MIDI%201.0%20Detailed%20Specification.pdf
;
#X text 11 122 MIDI 1 Detailed Specification v4.2.pdf;
#X text 25 55 The [notein] object reads incoming MIDI notes and reports
their note number \, velocity and channel number. Without the argument
it reads from all MIDI channels (omni).;
#X text 26 31 - read incoming stream of MIDI notes.;
#X restore 235 -79 pd Help;
#X connect 1 0 2 0;
#X connect 2 0 3 0;
#X connect 3 0 14 0;
#X connect 4 0 1 0;
#X connect 4 0 5 0;
#X connect 5 0 6 0;
#X connect 6 0 17 0;
#X connect 9 0 20 0;
#X connect 9 0 24 0;
#X connect 9 1 23 0;
#X connect 9 2 4 0;
#X connect 13 0 12 0;
#X connect 14 0 13 0;
#X connect 16 0 15 0;
#X connect 17 0 16 0;
#X connect 19 0 18 0;
#X connect 20 0 19 0;
#X connect 22 0 21 0;
#X connect 23 0 22 0;
#X connect 24 0 25 0;
#X coords 0 -1 1 1 107 38 1 100 100;
#X restore 23 11 pd MIDI;
#N canvas 426 259 302 260 MIDI 0;
#X obj 101 101 cnv 10 105 36 empty ColorMIDI ControlChange 5 8 1 14
-262103 -1 1.04858e+06;
#X obj 144 -98 ctlin;
#X obj 166 114 cnv 9 9 9 empty ColorMIDI Ctrl 0 5 1 9 -262103 -1 1.04858e+06
;
#X obj 191 117 cnv 2 9 9 empty ColorMIDI Val 0 2 1 9 -262103 -1 1.04858e+06
;
#X obj 130 114 cnv 9 9 9 empty ColorMIDI Ch 0 5 1 9 -262103 -1 1.04858e+06
;
#X obj 103 114 cnv 9 9 9 empty ColorMIDI Port 0 5 1 9 -262103 -1 1.04858e+06
;
#X obj 239 118 cnv 15 48 25 empty empty empty 20 12 0 14 -24198 -66577
0;
#N canvas 350 196 308 136 ??? 0;
#X obj -6 87 cnv 15 300 38 empty empty empty 20 12 0 14 -224896 -66577
0;
#X obj -6 10 cnv 18 300 70 empty empty ARGOPdMiniModules 3 10 1 14
-4033 -1 1.04858e+06;
#X obj 13 31 cnv 10 10 10 empty empty Gerard 0 5 1 11 -4033 -1 1.04858e+06
;
#X obj 55 30 cnv 10 10 10 empty empty Paresys 0 5 1 11 -4033 -1 1.04858e+06
;
#X text -1 89 Construit sous / Build under Pd 0.42.5-extended;
#X obj 6 43 pddp/pddplink http://pagesperso-orange.fr/Paresys/ARGOPd/
;
#X obj 6 58 pddp/pddplink http://gerard.paresys.free.fr/ARGOPd/;
#X obj 46 105 pddp/pddplink http://puredata.info/downloads;
#X restore 243 122 pd ???;
#X text 230 96 22 1 2012;
#X obj 25 -26 / 16;
#X obj 25 -1 int;
#X obj 24 20 + 1;
#X obj 65 -58 - 1;
#X obj 89 -22 mod 16;
#X obj 89 20 + 1;
#X obj 103 123 hsl 18 15 0 127 0 0 \$0-A \$0-B 1 0 8 1 10 -262103 -262103
-1 0 1;
#X msg 24 64 label \$1;
#X obj 24 42 tosymbol;
#X obj 126 123 hsl 18 15 0 127 0 0 \$0-A \$0-B 2 0 8 1 10 -262103 -262103
-1 0 1;
#X msg 89 64 label \$1;
#X obj 89 42 tosymbol;
#X obj 164 123 hsl 18 15 0 127 0 0 \$0-A \$0-B 1 0 8 1 10 -262103 -262103
-1 0 1;
#X msg 158 64 label \$1;
#X obj 158 42 tosymbol;
#X obj 187 123 hsl 18 15 0 127 0 0 \$0-A \$0-B 79 0 8 1 10 -262103
-262103 -1 0 1;
#X msg 223 64 label \$1;
#X obj 223 42 tosymbol;
#X obj 147 -23 cyclone/speedlim 100;
#X obj 146 123 bng 15 50 50 0 \$0-A \$0-B empty 6 9 0 9 -257985 -260097
-1;
#X obj 204 -81 cnv 15 60 30 empty empty empty 20 12 0 14 -24198 -66577
0;
#N canvas 334 205 545 172 Help 0;
#X obj 12 13 cnv 15 400 100 empty empty empty 20 12 0 14 -233017 -66577
0;
#X text 15 12 Citation;
#X obj 9 137 pddp/pddplink http://madamebutterface.com/assets/documents/MIDI%201.0%20Detailed%20Specification.pdf
;
#X text 21 42 The [ctlin] object reads control change messages directly
from the MIDI port. See a MIDI-specification chart near you for control
change message numbers and their meannings (MIDI implementation documents
are freely available on the internet in c=various forms).;
#X text 21 26 - read incoming Control Change messages;
#X text 11 122 MIDI 1 Detailed Specification v4.2.pdf;
#X restore 211 -75 pd Help;
#X connect 1 0 26 0;
#X connect 1 0 27 0;
#X connect 1 1 23 0;
#X connect 1 2 12 0;
#X connect 9 0 10 0;
#X connect 10 0 11 0;
#X connect 11 0 17 0;
#X connect 12 0 9 0;
#X connect 12 0 13 0;
#X connect 13 0 14 0;
#X connect 14 0 20 0;
#X connect 16 0 15 0;
#X connect 17 0 16 0;
#X connect 19 0 18 0;
#X connect 20 0 19 0;
#X connect 22 0 21 0;
#X connect 23 0 22 0;
#X connect 25 0 24 0;
#X connect 26 0 25 0;
#X connect 27 0 28 0;
#X coords 0 -1 1 1 107 38 1 100 100;
#X restore 155 11 pd MIDI;
#N canvas 738 264 343 245 MIDI 0;
#X obj 101 101 cnv 10 105 36 empty ColorMIDI PitchBend 25 8 1 14 -262103
-1 1.04858e+06;
#X obj 138 114 cnv 9 9 9 empty ColorMIDI Ch 0 5 1 9 -262103 -1 1.04858e+06
;
#X obj 113 114 cnv 9 9 9 empty ColorMIDI Port 0 5 1 9 -262103 -1 1.04858e+06
;
#X obj 145 -91 bendin;
#X obj 277 9 / 128;
#X obj 223 -72 cnv 15 60 30 empty empty empty 20 12 0 14 -24198 -66577
0;
#N canvas 334 205 545 172 Help 0;
#X obj 12 13 cnv 15 400 100 empty empty empty 20 12 0 14 -233017 -66577
0;
#X text 15 12 Citation;
#X text 25 93 ... ad nauseam.;
#X text 25 27 The [bendin] object reads incoming pitch bend values
and reports them. If started with no arguments it reports the channel
number through the right outlet.;
#X text 25 70 Output (int) is a 14-bit pitchbend value;
#X obj 9 137 pddp/pddplink http://madamebutterface.com/assets/documents/MIDI%201.0%20Detailed%20Specification.pdf
;
#X text 11 122 MIDI 1 Detailed Specification v4.2.pdf;
#X restore 230 -66 pd Help;
#X obj 283 115 cnv 15 48 25 empty empty empty 20 12 0 14 -24198 -66577
0;
#N canvas 350 196 308 136 ??? 0;
#X obj -6 87 cnv 15 300 38 empty empty empty 20 12 0 14 -224896 -66577
0;
#X obj -6 10 cnv 18 300 70 empty empty ARGOPdMiniModules 3 10 1 14
-4033 -1 1.04858e+06;
#X obj 13 31 cnv 10 10 10 empty empty Gerard 0 5 1 11 -4033 -1 1.04858e+06
;
#X obj 55 30 cnv 10 10 10 empty empty Paresys 0 5 1 11 -4033 -1 1.04858e+06
;
#X text -1 89 Construit sous / Build under Pd 0.42.5-extended;
#X obj 6 43 pddp/pddplink http://pagesperso-orange.fr/Paresys/ARGOPd/
;
#X obj 6 58 pddp/pddplink http://gerard.paresys.free.fr/ARGOPd/;
#X obj 46 105 pddp/pddplink http://puredata.info/downloads;
#X restore 287 119 pd ???;
#X text 161 80 22 1 2012;
#X obj 190 117 cnv 2 9 9 empty ColorMIDI Val 0 2 1 9 -262103 -1 1.04858e+06
;
#X obj 23 -23 / 16;
#X obj 23 2 int;
#X obj 22 23 + 1;
#X obj 87 -54 - 1;
#X obj 87 -19 mod 16;
#X obj 87 23 + 1;
#X obj 103 123 hsl 18 15 0 127 0 0 \$0-A \$0-B 1 0 8 1 10 -262103 -262103
-1 0 1;
#X msg 22 67 label \$1;
#X obj 22 45 tosymbol;
#X obj 126 123 hsl 18 15 0 127 0 0 \$0-A \$0-B 5 0 8 1 10 -262103 -262103
-1 0 1;
#X msg 87 67 label \$1;
#X obj 87 45 tosymbol;
#X obj 187 123 hsl 18 15 0 127 0 0 \$0-A \$0-B 81 0 8 1 10 -262103
-262103 -1 0 1;
#X msg 277 54 label \$1;
#X obj 277 32 tosymbol;
#X obj 145 9 cyclone/speedlim 100;
#X obj 146 123 bng 15 50 50 0 \$0-A \$0-B empty 6 9 0 9 -257985 -260097
-1;
#X connect 3 0 4 0;
#X connect 3 0 26 0;
#X connect 3 1 14 0;
#X connect 4 0 25 0;
#X connect 11 0 12 0;
#X connect 12 0 13 0;
#X connect 13 0 19 0;
#X connect 14 0 11 0;
#X connect 14 0 15 0;
#X connect 15 0 16 0;
#X connect 16 0 22 0;
#X connect 18 0 17 0;
#X connect 19 0 18 0;
#X connect 21 0 20 0;
#X connect 22 0 21 0;
#X connect 24 0 23 0;
#X connect 25 0 24 0;
#X connect 26 0 27 0;
#X coords 0 -1 1 1 107 38 1 100 100;
#X restore 286 11 pd MIDI;
