#N canvas 370 22 504 430 10;
#X obj -63 -53 cnv 15 15 15 empty empty ExMM40c-Saturationx3-Player.pd
0 8 1 14 -262144 -66577 0;
#X obj -39 20 switch~;
#N canvas 608 166 228 173 ARGOnOff 0;
#X obj 100 100 tgl 18 1 \$0-SendOnOff \$0-ReceiveOnOff On/Off 20 11
1 14 -4033 -1 -1 1 1;
#X obj 99 10 loadbang;
#X msg 99 33 \; pd dsp 1;
#X obj 100 129 outlet;
#X text -50 99 Audio On/Off du patch ->;
#X text -22 45 Audio General On ->;
#X text 107 82 17 3 2010;
#X connect 0 0 3 0;
#X connect 1 0 2 0;
#X coords 0 -1 1 1 65 18 2 100 100;
#X restore -39 2 pd ARGOnOff;
#X text -34 -14 V;
#X text -34 -21 |;
#X text -46 -32 On/Off Patch;
#X obj 75 47 cnv 15 350 80 empty empty empty 20 12 0 14 -233017 -66577
0;
#X obj 277 338 dac~ 1 2;
#N canvas 309 45 492 302 ARGO 0;
#X obj 40 -35 inlet~;
#X obj 251 108 cnv 10 44 10 empty empty Scope 1 5 1 14 -262144 -1 1.04858e+06
;
#X obj 101 101 cnv 4 10 4 empty empty empty 20 12 0 14 -1 -66577 0
;
#X msg -36 168 frgb 255 0 0;
#X obj 124 105 nbx 4 12 1 2000 0 1 \$0-A ColorTime ms/div 40 7 1 9
-208064 -1 -1 20 256;
#X obj 205 105 tgl 12 1 \$0-A \$0-B Sync 15 6 1 9 -262144 -1 -1 0 1
;
#X msg 128 52 delay 0 \, triglevel 0 \, trigger 0;
#X obj 126 5 sel 0 1;
#X msg -39 192 brgb 255 255 255;
#X obj 85 64 * 2;
#X msg 146 28 delay 1 \, triglevel 0.1 \, trigger 1;
#X obj 277 -36 inlet~;
#X obj 289 101 cnv 4 10 4 empty empty empty 20 12 0 14 -1 -66577 0
;
#X obj -14 80 t b b b b;
#X obj -15 57 bng 15 250 50 0 empty empty empty 17 7 0 10 -262144 -1
-1;
#X msg -33 111 bufsize 176;
#X obj 196 -34 cnv 15 60 30 empty empty empty 20 12 0 14 -24198 -66577
0;
#N canvas 374 104 413 135 Help 0;
#X text 24 54 Voir MSP46ReferenceManual.pdf;
#X text 23 1 utilise l'objet Scope~ de la library cyclone;
#X text 24 26 Voir Browser -> Pure Data/examples/cyclone/scope-test.pd
;
#X text 24 40 Voir Browser -> Pure Data/examples/cyclone/pink-test.pd
;
#X text 24 -20 Scope;
#X restore 203 -28 pd Help;
#X obj 101 121 cnv 15 199 129 empty empty empty 20 12 0 14 -1 -66577
0;
#X obj 101 123 Scope~ 198 61 40 3 176 -0.95 0.95 0 0 0 0 255 0 0 255
255 255 0;
#X obj 101 187 Scope~ 198 61 40 3 176 -0.95 0.95 0 0 0 0 255 0 0 255
255 255 0;
#X msg -24 136 range -0.95 0.95;
#X obj 277 -12 -~ 0.025;
#X obj 40 -11 -~ 0.025;
#X obj 396 222 cnv 15 41 30 empty empty empty 20 12 0 14 -24198 -66577
0;
#N canvas 350 196 308 136 ?? 0;
#X obj -9 87 cnv 15 300 38 empty empty empty 20 12 0 14 -224896 -66577
0;
#X obj -9 10 cnv 18 300 70 empty empty ARGOPdMiniModules 1 10 1 14
-4033 -1 1.04858e+06;
#X obj 9 29 cnv 10 10 10 empty empty Gerard 0 5 1 9 -4033 -1 1.04858e+06
;
#X obj 40 29 cnv 10 10 10 empty empty Paresys 0 5 1 9 -4033 -1 1.04858e+06
;
#X text -8 89 Construit sous / Build under Pd 0.42.5-extended;
#X obj 39 105 pddplink http://puredata.info/downloads;
#X obj 3 42 pddplink http://pagesperso-orange.fr/Paresys/ARGOPd/;
#X obj 3 57 pddplink http://gerard.paresys.free.fr/ARGOPd/;
#X restore 400 229 pd ??;
#X text 243 85 15 5 2011;
#X connect 0 0 23 0;
#X connect 3 0 19 0;
#X connect 3 0 20 0;
#X connect 4 0 9 0;
#X connect 5 0 7 0;
#X connect 6 0 19 0;
#X connect 6 0 20 0;
#X connect 7 0 6 0;
#X connect 7 1 10 0;
#X connect 8 0 19 0;
#X connect 8 0 20 0;
#X connect 9 0 19 0;
#X connect 9 0 20 0;
#X connect 10 0 19 0;
#X connect 10 0 20 0;
#X connect 11 0 22 0;
#X connect 13 0 15 0;
#X connect 13 1 21 0;
#X connect 13 2 3 0;
#X connect 13 3 8 0;
#X connect 14 0 13 0;
#X connect 15 0 19 0;
#X connect 15 0 20 0;
#X connect 21 0 19 0;
#X connect 21 0 20 0;
#X connect 22 0 20 0;
#X connect 23 0 19 0;
#X coords 0 -1 1 1 200 150 2 100 100;
#X restore -49 202 pd ARGO;
#N canvas 392 69 302 281 ARGO 0;
#X obj 101 101 cnv 20 104 34 empty ColorAmpli Clip 80 9 1 14 -261299
-1 1.04858e+06;
#X obj 85 252 outlet~;
#X obj 85 72 inlet~;
#X obj 85 200 *~;
#X obj 103 118 hsl 101 12 -20 80 0 1 \$0-A ColorAmpli 30dB 0 7 1 9
-261299 -1 -1 5000 0;
#X msg -9 139 label \$1;
#X obj -10 116 tosymbol;
#X obj -10 94 sprintf %ddB;
#X obj 101 101 cnv 4 10 4 empty empty empty 20 12 0 14 -1 -66577 0
;
#X obj 101 131 cnv 4 10 4 empty empty empty 20 12 0 14 -1 -66577 0
;
#X obj 100 163 expr (pow(10 \, $f1 / 20));
#X obj 219 234 cnv 15 41 30 empty empty empty 20 12 0 14 -24198 -66577
0;
#N canvas 388 355 308 136 ?? 0;
#X obj -9 87 cnv 15 300 38 empty empty empty 20 12 0 14 -224896 -66577
0;
#X obj -9 10 cnv 18 300 70 empty empty ARGOPdMiniModules 1 10 1 14
-4033 -1 1.04858e+06;
#X obj 9 29 cnv 10 10 10 empty empty Gerard 0 5 1 9 -4033 -1 1.04858e+06
;
#X obj 40 29 cnv 10 10 10 empty empty Paresys 0 5 1 9 -4033 -1 1.04858e+06
;
#X text -8 89 Construit sous / Build under Pd 0.42.5-extended;
#X obj 39 105 pddplink http://puredata.info/downloads;
#X obj 3 42 pddplink http://pagesperso-orange.fr/Paresys/ARGOPd/;
#X obj 3 57 pddplink http://gerard.paresys.free.fr/ARGOPd/;
#X restore 223 241 pd ??;
#X obj 1 34 cnv 15 60 30 empty empty empty 20 12 0 14 -24198 -66577
0;
#N canvas 341 91 416 168 Help 0;
#X obj 4 42 cnv 15 400 100 empty empty empty 20 12 0 14 -233017 -66577
0;
#X text 7 41 Citation;
#X text 24 94 - restrict a signal to lie between two limits;
#X text 23 63 The clip~ object passes its signal input to its output
\, clipping it to lie between two limits.;
#X text 7 11 Clip;
#X restore 8 40 pd Help;
#X text 107 140 -> -20..80;
#X text 106 182 -> 0.1..10000 = -20dB..80dB;
#X text 209 97 14 5 2011;
#X obj 85 227 clip~ -1 1;
#X connect 2 0 3 0;
#X connect 3 0 18 0;
#X connect 4 0 7 0;
#X connect 4 0 10 0;
#X connect 5 0 4 0;
#X connect 6 0 5 0;
#X connect 7 0 6 0;
#X connect 10 0 3 1;
#X connect 18 0 1 0;
#X coords 0 -1 1 1 106 36 1 100 100;
#X restore 311 83 pd ARGO;
#N canvas 392 69 302 281 ARGO 0;
#X obj 101 101 cnv 20 104 34 empty ColorAmpli Tanh 70 9 1 14 -261299
-1 1.04858e+06;
#X obj 85 252 outlet~;
#X obj 85 72 inlet~;
#X obj 85 200 *~;
#X obj 103 118 hsl 101 12 -20 80 0 1 \$0-A ColorAmpli 16dB 0 7 1 9
-261299 -1 -1 3600 0;
#X msg -9 139 label \$1;
#X obj -10 116 tosymbol;
#X obj -10 94 sprintf %ddB;
#X obj 101 101 cnv 4 10 4 empty empty empty 20 12 0 14 -1 -66577 0
;
#X obj 101 131 cnv 4 10 4 empty empty empty 20 12 0 14 -1 -66577 0
;
#X obj 100 163 expr (pow(10 \, $f1 / 20));
#X obj 219 234 cnv 15 41 30 empty empty empty 20 12 0 14 -24198 -66577
0;
#N canvas 350 196 308 136 ?? 0;
#X obj -9 87 cnv 15 300 38 empty empty empty 20 12 0 14 -224896 -66577
0;
#X obj -9 10 cnv 18 300 70 empty empty ARGOPdMiniModules 1 10 1 14
-4033 -1 1.04858e+06;
#X obj 9 29 cnv 10 10 10 empty empty Gerard 0 5 1 9 -4033 -1 1.04858e+06
;
#X obj 40 29 cnv 10 10 10 empty empty Paresys 0 5 1 9 -4033 -1 1.04858e+06
;
#X text -8 89 Construit sous / Build under Pd 0.42.5-extended;
#X obj 39 105 pddplink http://puredata.info/downloads;
#X obj 3 42 pddplink http://pagesperso-orange.fr/Paresys/ARGOPd/;
#X obj 3 57 pddplink http://gerard.paresys.free.fr/ARGOPd/;
#X restore 223 241 pd ??;
#X obj 85 227 cyclone/tanh~;
#X obj 1 34 cnv 15 60 30 empty empty empty 20 12 0 14 -24198 -66577
0;
#N canvas 341 91 411 318 Help 0;
#X obj 0 3 cnv 15 400 290 empty empty empty 20 12 0 14 -233017 -66577
0;
#X text 3 2 Citation;
#X text 19 28 cyclone library;
#X text 19 40 calculate hyperbolic tangent function;
#X text 19 17 tanh~;
#X obj 19 140 pddplink http://suita.chopin.edu.pl/~czaja/miXed/externs/cyclone.html
;
#X text 19 162 cf doc Max/MSP -> MSP46ReferenceManual.pdf;
#X text 19 88 outputs signal values always between -1 and 1;
#X text 19 108 turn a sine wave into a square wave by cranking up the
volume!;
#X text 19 57 can be used to simulate analog distortion \, and is much
"smoother" than using clip~;
#X restore 8 40 pd Help;
#X text 107 140 -> -20..80;
#X text 106 182 -> 0.1..10000 = -20dB..80dB;
#X text 209 97 14 5 2011;
#X connect 2 0 3 0;
#X connect 3 0 13 0;
#X connect 4 0 7 0;
#X connect 4 0 10 0;
#X connect 5 0 4 0;
#X connect 6 0 5 0;
#X connect 7 0 6 0;
#X connect 10 0 3 1;
#X connect 13 0 1 0;
#X coords 0 -1 1 1 106 36 1 100 100;
#X restore 83 83 pd ARGO;
#N canvas 306 45 344 241 ARGO 0;
#X obj 101 101 cnv 20 104 34 empty ColorAmpli empty 20 12 0 14 -261299
-1 1.04858e+06;
#X obj 88 200 outlet~;
#X obj 124 105 cnv 10 20 10 empty ColorAmpli Overdrive 1 5 1 14 -261299
-1 1.04858e+06;
#X obj 88 74 inlet~;
#X obj 185 74 inlet~;
#X obj 195 101 cnv 4 10 4 empty empty empty 20 12 0 14 -258113 -66577
0;
#X obj 101 101 cnv 4 10 4 empty empty empty 20 12 0 14 -1 -66577 0
;
#X obj 101 131 cnv 4 10 4 empty empty empty 20 12 0 14 -1 -66577 0
;
#X obj 103 118 hsl 101 12 0 99 0 1 \$0-A ColorAmpli empty 0 7 1 9 -262144
-1 -1 4100 0;
#X obj 103 118 hsl 101 12 0 99 0 0 \$0-A ColorAmpli 40.59 0 7 1 9 -261299
-258049 -1 4100 0;
#X text 211 127 2 HSLIDER superposés;
#X text 210 116 <-- ATTENTION;
#X obj 25 104 cnv 15 60 30 empty empty empty 20 12 0 14 -24198 -66577
0;
#N canvas 265 68 414 381 Help 0;
#X obj -8 -23 cnv 15 400 290 empty empty empty 20 12 0 14 -233017 -66577
0;
#X text -5 -24 Citation;
#X text 6 -9 overdrive~ (library cyclone);
#X text 18 8 Simulate an analog amplifier being overdriven by applying
a non-linear transfer function to the incoming signal.;
#X text -8 -64 Simule un amplificateur analogique saturé en appliquant
une fonction de transfert non linéaire au signal d'entrée.;
#X text 19 44 If the "drive" is 1 \, the signal is unchanged. Increasing
the "drive" increases the amount of distortion. If the "drive" is less
than 1 \, then it causes a different kind of distortion. If the "drive"
is less than 0 \, VERY LOUD distortion can result \, so be careful!
;
#X text 19 117 overdrive~ simulates the distortion caused when an analog
amplifier is fed a signal that is too high for the inputs. This is
generally known as "overdriving" the amplifier \, and it causes a characteristic
distortion that is often used to generate a "fat" sound.;
#X text -7 -83 Overdrive;
#X text 5 210 AUTHOR Kzrysztof Czaja;
#X text 5 228 DESCRIPTION a library for porting and running Max/MSP
patches in Pd;
#X text 6 192 Library cyclone;
#X restore 32 110 pd Help;
#N canvas 639 204 347 287 Overdrive 0;
#X obj 29 8 loadbang;
#X msg 92 155 set \$1;
#X obj 38 70 +~;
#X obj 90 98 snapshot~;
#X obj 91 132 change;
#X obj 211 11 inlet;
#X obj 160 197 outlet;
#X obj -26 8 inlet~;
#X msg 214 153 label \$1;
#X obj 90 69 metro 200;
#X obj 101 8 r SendFluid;
#X text 206 -17 Hslider;
#X text 211 -6 Under;
#X text 110 -43 Fluidité de;
#X text 109 -32 l'affichage;
#X text 110 -21 des sliders;
#X text 88 -10 (200ms par défaut);
#X obj -28 200 outlet;
#X text -26 217 0..99;
#X obj -29 106 snapshot~;
#X obj -28 129 change;
#X obj -28 69 metro 20;
#X obj -28 155 clip 0 99;
#X obj 213 128 tosymbol;
#X obj 213 93 sprintf %s;
#X text 204 -29 0 .. 99;
#X connect 0 0 9 0;
#X connect 0 0 21 0;
#X connect 1 0 6 0;
#X connect 2 0 3 0;
#X connect 2 0 19 0;
#X connect 3 0 4 0;
#X connect 4 0 1 0;
#X connect 5 0 2 1;
#X connect 5 0 24 0;
#X connect 7 0 2 0;
#X connect 8 0 6 0;
#X connect 9 0 3 0;
#X connect 10 0 9 1;
#X connect 19 0 20 0;
#X connect 20 0 22 0;
#X connect 21 0 19 0;
#X connect 22 0 17 0;
#X connect 23 0 8 0;
#X connect 24 0 23 0;
#X restore 102 149 pd Overdrive;
#X obj 87 173 cyclone/overdrive~;
#X obj 291 197 cnv 15 41 30 empty empty empty 20 12 0 14 -24198 -66577
0;
#N canvas 350 196 308 136 ?? 0;
#X obj -9 87 cnv 15 300 38 empty empty empty 20 12 0 14 -224896 -66577
0;
#X obj -9 10 cnv 18 300 70 empty empty ARGOPdMiniModules 1 10 1 14
-4033 -1 1.04858e+06;
#X obj 9 29 cnv 10 10 10 empty empty Gerard 0 5 1 9 -4033 -1 1.04858e+06
;
#X obj 40 29 cnv 10 10 10 empty empty Paresys 0 5 1 9 -4033 -1 1.04858e+06
;
#X text -8 89 Construit sous / Build under Pd 0.42.5-extended;
#X obj 39 105 pddplink http://puredata.info/downloads;
#X obj 3 42 pddplink http://pagesperso-orange.fr/Paresys/ARGOPd/;
#X obj 3 57 pddplink http://gerard.paresys.free.fr/ARGOPd/;
#X restore 295 204 pd ??;
#X text 252 79 2 1 2011;
#X connect 3 0 15 0;
#X connect 4 0 14 0;
#X connect 8 0 14 1;
#X connect 14 0 15 0;
#X connect 14 1 9 0;
#X connect 15 0 1 0;
#X coords 0 -1 1 1 106 36 1 100 100;
#X restore 197 83 pd ARGO;
#N canvas 324 59 331 313 ARGO 0;
#X obj 101 101 cnv 20 104 34 empty ColorAmpli empty 20 12 0 14 -261299
-1 1.04858e+06;
#X obj 85 285 outlet~;
#X obj 134 104 cnv 10 20 10 empty ColorAmpli Ampli 1 5 1 14 -261299
-1 1.04858e+06;
#X obj 85 72 inlet~;
#X obj 85 260 *~;
#X obj 103 118 hsl 101 12 -80 20 0 1 \$0-A ColorAmpli -6dB 0 7 1 9
-261299 -1 -1 7400 0;
#X msg -24 161 label \$1;
#X obj -25 138 tosymbol;
#X obj -25 103 sprintf %ddB;
#X obj 101 101 cnv 4 10 4 empty empty empty 20 12 0 14 -1 -66577 0
;
#X obj 101 131 cnv 4 10 4 empty empty empty 20 12 0 14 -1 -66577 0
;
#X text -16 120 -> -80dB..20dB;
#X text 106 182 -> 0.0001..10 = -80dB..20dB;
#X text 209 97 5 5 2011;
#X obj 100 163 expr (pow(10 \, $f1 / 20));
#X text 107 140 -> -80..20;
#X obj 227 270 cnv 15 41 30 empty empty empty 20 12 0 14 -24198 -66577
0;
#N canvas 350 196 308 136 ?? 0;
#X obj -9 87 cnv 15 300 38 empty empty empty 20 12 0 14 -224896 -66577
0;
#X obj -9 10 cnv 18 300 70 empty empty ARGOPdMiniModules 1 10 1 14
-4033 -1 1.04858e+06;
#X obj 9 29 cnv 10 10 10 empty empty Gerard 0 5 1 9 -4033 -1 1.04858e+06
;
#X obj 40 29 cnv 10 10 10 empty empty Paresys 0 5 1 9 -4033 -1 1.04858e+06
;
#X text -8 89 Construit sous / Build under Pd 0.42.5-extended;
#X obj 39 105 pddplink http://puredata.info/downloads;
#X obj 3 42 pddplink http://pagesperso-orange.fr/Paresys/ARGOPd/;
#X obj 3 57 pddplink http://gerard.paresys.free.fr/ARGOPd/;
#X restore 231 277 pd ??;
#X obj 100 206 sel 0.0001;
#X msg 100 234 0;
#X connect 3 0 4 0;
#X connect 4 0 1 0;
#X connect 5 0 8 0;
#X connect 5 0 14 0;
#X connect 6 0 5 0;
#X connect 7 0 6 0;
#X connect 8 0 7 0;
#X connect 14 0 18 0;
#X connect 18 0 19 0;
#X connect 18 1 4 1;
#X connect 19 0 4 1;
#X connect 19 0 7 0;
#X coords 0 -1 1 1 106 36 1 100 100;
#X restore 292 229 pd ARGO;
#X text 183 238 Niveau general ->;
#X text 189 249 General level ->;
#X text 194 61 Comparer 3 distorsions par saturation;
#X text 195 48 Compare 3 distortions by saturation;
#X obj -56 47 cnv 15 120 80 empty empty empty 20 12 0 14 -233017 -66577
0;
#N canvas 324 59 331 313 ARGO 0;
#X obj 101 101 cnv 20 104 34 empty ColorAmpli empty 20 12 0 14 -261299
-1 1.04858e+06;
#X obj 85 285 outlet~;
#X obj 134 104 cnv 10 20 10 empty ColorAmpli Ampli 1 5 1 14 -261299
-1 1.04858e+06;
#X obj 85 72 inlet~;
#X obj 85 260 *~;
#X obj 103 118 hsl 101 12 -80 20 0 1 \$0-A ColorAmpli 0dB 0 7 1 9 -261299
-1 -1 8000 0;
#X msg -24 161 label \$1;
#X obj -25 138 tosymbol;
#X obj -25 103 sprintf %ddB;
#X obj 101 101 cnv 4 10 4 empty empty empty 20 12 0 14 -1 -66577 0
;
#X obj 101 131 cnv 4 10 4 empty empty empty 20 12 0 14 -1 -66577 0
;
#X text -16 120 -> -80dB..20dB;
#X text 106 182 -> 0.0001..10 = -80dB..20dB;
#X text 209 97 5 5 2011;
#X obj 100 163 expr (pow(10 \, $f1 / 20));
#X text 107 140 -> -80..20;
#X obj 227 270 cnv 15 41 30 empty empty empty 20 12 0 14 -24198 -66577
0;
#N canvas 350 196 308 136 ?? 0;
#X obj -9 87 cnv 15 300 38 empty empty empty 20 12 0 14 -224896 -66577
0;
#X obj -9 10 cnv 18 300 70 empty empty ARGOPdMiniModules 1 10 1 14
-4033 -1 1.04858e+06;
#X obj 9 29 cnv 10 10 10 empty empty Gerard 0 5 1 9 -4033 -1 1.04858e+06
;
#X obj 40 29 cnv 10 10 10 empty empty Paresys 0 5 1 9 -4033 -1 1.04858e+06
;
#X text -8 89 Construit sous / Build under Pd 0.42.5-extended;
#X obj 39 105 pddplink http://puredata.info/downloads;
#X obj 3 42 pddplink http://pagesperso-orange.fr/Paresys/ARGOPd/;
#X obj 3 57 pddplink http://gerard.paresys.free.fr/ARGOPd/;
#X restore 231 277 pd ??;
#X obj 100 206 sel 0.0001;
#X msg 100 234 0;
#X connect 3 0 4 0;
#X connect 4 0 1 0;
#X connect 5 0 8 0;
#X connect 5 0 14 0;
#X connect 6 0 5 0;
#X connect 7 0 6 0;
#X connect 8 0 7 0;
#X connect 14 0 18 0;
#X connect 18 0 19 0;
#X connect 18 1 4 1;
#X connect 19 0 4 1;
#X connect 19 0 7 0;
#X coords 0 -1 1 1 106 36 1 100 100;
#X restore -49 83 pd ARGO;
#X text -38 52 Normal;
#X obj 375 327 cnv 15 41 30 empty empty empty 20 12 0 14 -24198 -66577
0;
#N canvas 350 196 308 136 ?? 0;
#X obj -9 87 cnv 15 300 38 empty empty empty 20 12 0 14 -224896 -66577
0;
#X obj -9 10 cnv 18 300 70 empty empty ARGOPdMiniModules 1 10 1 14
-4033 -1 1.04858e+06;
#X obj 9 29 cnv 10 10 10 empty empty Gerard 0 5 1 9 -4033 -1 1.04858e+06
;
#X obj 40 29 cnv 10 10 10 empty empty Paresys 0 5 1 9 -4033 -1 1.04858e+06
;
#X text -8 89 Construit sous / Build under Pd 0.42.5-extended;
#X obj 39 105 pddplink http://puredata.info/downloads;
#X obj 3 42 pddplink http://pagesperso-orange.fr/Paresys/ARGOPd/;
#X obj 3 57 pddplink http://gerard.paresys.free.fr/ARGOPd/;
#X restore 379 334 pd ??;
#N canvas 219 46 718 469 ARGO 0;
#X obj 368 103 cnv 10 20 10 empty empty Play 1 5 1 14 -262144 -1 1.04858e+06
;
#X obj 101 130 cnv 4 10 4 empty empty empty 20 12 0 14 -1 -66577 0
;
#X obj 82 450 outlet~;
#X obj -13 64 openpanel;
#X msg 212 352 1;
#X msg 141 326 0;
#X msg 25 107 set \$1;
#X msg 242 377 open \$1;
#X obj 197 291 t b b;
#X msg 222 436 set 0;
#X obj 177 193 sel 1 0;
#X floatatom 230 231 5 0 0 0 - - -;
#X msg 230 208 set \$1;
#X obj 204 261 sel 1;
#X msg 110 361 set 1;
#X obj 185 6 key;
#X obj 186 29 select 32;
#X obj 42 7 loadbang;
#X obj 243 404 readsf~ 2;
#X obj -12 84 t b s;
#X obj 151 100 tgl 12 1 \$0-A \$0-B Play(Space) 14 6 1 9 -262144 -1
-1 1 1;
#X obj 311 100 bng 12 250 50 0 \$0-A \$0-B Stop 14 6 1 9 -262144 -1
-1;
#X obj 249 100 tgl 12 1 \$0-A \$0-B Loop 15 6 1 9 -262144 -1 -1 1 1
;
#X obj 48 196 list2symbol;
#X obj 100 100 bng 12 250 50 0 \$0-A \$0-B empty 14 6 1 9 -262144 -1
-1;
#X obj 174 328 delay 5;
#X obj 102 6 inlet~;
#X obj 101 58 threshold~ 0.5 5 0.49 5;
#X obj 101 100 cnv 2 10 4 empty empty empty 20 12 0 14 -1 -66577 0
;
#X obj 102 101 cnv 2 8 2 empty empty empty 20 12 0 14 -262144 -66577
0;
#X text 75 81 Trig Decl;
#X obj 106 113 hradio 14 1 0 20 empty empty empty 0 6 0 8 -260097 -260097
-260097 0;
#X obj -13 42 bang;
#X text 403 115 <- Click the name to change;
#X symbolatom 101 113 49 0 0 0 - - -;
#X obj 49 140 cnv 15 400 50 empty empty empty 20 12 0 14 -260097 -66577
0;
#X text 51 139 Nom du fichier / File name;
#X text 454 152 <- Ajouter ../ devant le nom du fichier \; pour remonter
d'un dossier;
#X obj 654 424 cnv 15 41 30 empty empty empty 20 12 0 14 -24198 -66577
0;
#N canvas 350 196 308 136 ?? 0;
#X obj -9 87 cnv 15 300 38 empty empty empty 20 12 0 14 -224896 -66577
0;
#X obj -9 10 cnv 18 300 70 empty empty ARGOPdMiniModules 1 10 1 14
-4033 -1 1.04858e+06;
#X obj 9 29 cnv 10 10 10 empty empty Gerard 0 5 1 9 -4033 -1 1.04858e+06
;
#X obj 40 29 cnv 10 10 10 empty empty Paresys 0 5 1 9 -4033 -1 1.04858e+06
;
#X text -8 89 Construit sous / Build under Pd 0.42.5-extended;
#X obj 39 105 pddplink http://puredata.info/downloads;
#X obj 3 42 pddplink http://pagesperso-orange.fr/Paresys/ARGOPd/;
#X obj 3 57 pddplink http://gerard.paresys.free.fr/ARGOPd/;
#X restore 658 431 pd ??;
#X obj 396 258 cnv 15 60 30 empty empty empty 20 12 0 14 -24198 -66577
0;
#N canvas 309 46 564 575 Help 0;
#X obj 9 -296 cnv 15 400 100 empty empty empty 20 12 0 14 -233017 -66577
0;
#X text 12 -297 Citation;
#X obj 8 -51 cnv 15 550 310 empty empty empty 20 12 0 14 -258113 -66577
0;
#X text 20 -44 - Ne lit pas un fichier au format mp3 \, SoundDesigner
II (.SDII ou .SD2);
#X text 23 56 Solution: ouvrir puis sauver le fichier au format aiff
avec Audacity;
#X text 36 43 error: dsp: xxx.aiff: unknown or bad header format;
#X text 31 -281 READSF~ - read a soundfile;
#X text 30 -263 The wave \, aiff \, and nextstep formats are parsed
automatically \, although only 2- 3- and 4- byte samples are accepted
(4 bytes implies floating point and is not available in aiff format.)
;
#X text 13 -189 - Si le Patch est sauvé avec 1 Player contenant un
nom de fichier Audio \, ce fichier sera lu automatiquement à la prochaine
ouverture s'il n'a pas changé d'emplacement.;
#X text 191 206 If the sample rate of pd is set to 44100 \, files having
the sample rates of 44100 are correctly played \, other files will
be transposed.;
#X text 193 179 WARNING The sample rate of the output depends on the
system sample rate of pd:;
#X text 21 95 - ATTENTION Le taux d'échantillonnage de la lecture du
fichier dépends du taux d'échantillonnage de Pd.;
#X text 33 122 Si le taux d'échantillonnage de Pd est de 44100 (Menu
Preferences -> Audio Settings...) \, les fichiers échantillonnés à
44100 Hz sont lus correctement \, sinon ils sont transposés.;
#X text 12 -143 - Peut Ouvrir automatiquement 1 fichier qui se trouve
dans le même dossier que lui \, quelquesoit l'emplacement du dossier.
Pour cela ouvrir le module et taper le nom du fichier (sans chemin
d'accés) dans le message. Le dossier contenant le patch et le fichier
Audio est ainsi transportable.;
#X text 21 4 - Ne lit pas un fichier au format aiff "Entier petit boutien"
comme les pistes d'un CD Audio copiées avec le finder du Mac. Le message
d'erreur s'affichent:;
#X text 8 -434 MM Audio-Play;
#X text 18 -404 Le canal 2 d'un fichier Audio Stereo est mélangé au
canal 1;
#X text 18 -390 Les canaux 3 \, 4... d'un fichier Audio de plus de
2 canaux ne sont pas lus.;
#X text 197 -328 Channels 3 \, 4... of an Audio file of more than 2
channels are not read.;
#X text 197 -342 Channel 2 of a Stereo Audio file is mixed with channel
1;
#X text 19 -418 Lit un fichier Audio Mono (1 canal) au format aiff
\, wav.;
#X text 198 -357 Reads a Mono Audio file (1 channel) with aiff \, wav
format..;
#X restore 403 264 pd Help;
#X text 405 96 13 11 2010;
#X msg 53 158 drum00.wav;
#X connect 3 0 19 0;
#X connect 4 0 18 0;
#X connect 5 0 18 0;
#X connect 6 0 43 0;
#X connect 7 0 18 0;
#X connect 8 0 25 0;
#X connect 8 1 43 0;
#X connect 9 0 20 0;
#X connect 10 0 8 0;
#X connect 10 1 9 0;
#X connect 10 1 5 0;
#X connect 11 0 13 0;
#X connect 12 0 11 0;
#X connect 13 0 24 0;
#X connect 14 0 20 0;
#X connect 15 0 16 0;
#X connect 16 0 20 0;
#X connect 17 0 43 0;
#X connect 18 0 2 0;
#X connect 18 1 2 0;
#X connect 18 2 11 0;
#X connect 18 2 9 0;
#X connect 19 0 43 0;
#X connect 19 1 6 0;
#X connect 20 0 10 0;
#X connect 21 0 5 0;
#X connect 21 0 9 0;
#X connect 22 0 12 0;
#X connect 23 0 34 0;
#X connect 23 0 7 0;
#X connect 24 0 8 0;
#X connect 25 0 4 0;
#X connect 25 0 14 0;
#X connect 26 0 27 0;
#X connect 27 0 24 0;
#X connect 31 0 32 0;
#X connect 32 0 3 0;
#X connect 43 0 23 0;
#X coords 0 -1 1 1 300 35 2 100 100;
#X restore 83 -27 pd ARGO;
#N canvas 464 46 284 181 ARGO 0;
#X obj 101 101 cnv 6 104 34 empty ColorAmpli Mux 76 27 1 14 -261299
-1 1.04858e+06;
#X obj 84 148 outlet~;
#X obj 84 23 inlet~;
#X msg 9 136 label \$1;
#X obj 9 113 tosymbol;
#X obj 101 101 cnv 4 10 4 empty empty empty 20 12 0 14 -1 -66577 0
;
#X obj 101 131 cnv 4 10 4 empty empty empty 20 12 0 14 -1 -66577 0
;
#X obj 195 101 cnv 4 10 4 empty empty empty 20 12 0 14 -1 -66577 0
;
#X obj 129 23 inlet~;
#X obj 219 23 inlet~;
#X obj 130 101 cnv 4 10 4 empty empty empty 20 12 0 14 -1 -66577 0
;
#X obj 174 23 inlet~;
#X obj 163 101 cnv 4 10 4 empty empty empty 20 12 0 14 -1 -66577 0
;
#X obj 9 90 sprintf %d;
#X obj 103 106 hsl 101 12 0.3 3.7 0 1 \$0-A ColorAmpli 2 0 7 1 9 -261299
-1 -1 3100 0;
#X obj 84 74 zexy/multiplex~ 1 2 3 4;
#X obj 229 139 cnv 15 41 30 empty empty empty 20 12 0 14 -24198 -66577
0;
#N canvas 350 196 308 136 ?? 0;
#X obj -9 87 cnv 15 300 38 empty empty empty 20 12 0 14 -224896 -66577
0;
#X obj -9 10 cnv 18 300 70 empty empty ARGOPdMiniModules 1 10 1 14
-4033 -1 1.04858e+06;
#X obj 9 29 cnv 10 10 10 empty empty Gerard 0 5 1 9 -4033 -1 1.04858e+06
;
#X obj 40 29 cnv 10 10 10 empty empty Paresys 0 5 1 9 -4033 -1 1.04858e+06
;
#X text -8 89 Construit sous / Build under Pd 0.42.5-extended;
#X obj 39 105 pddplink http://puredata.info/downloads;
#X obj 3 42 pddplink http://pagesperso-orange.fr/Paresys/ARGOPd/;
#X obj 3 57 pddplink http://gerard.paresys.free.fr/ARGOPd/;
#X restore 233 146 pd ??;
#X text 210 104 15 5 2010;
#X obj 9 67 + 1;
#X obj 8 43 int;
#X connect 2 0 15 0;
#X connect 3 0 14 0;
#X connect 4 0 3 0;
#X connect 8 0 15 1;
#X connect 9 0 15 3;
#X connect 11 0 15 2;
#X connect 13 0 4 0;
#X connect 14 0 20 0;
#X connect 15 0 1 0;
#X connect 19 0 13 0;
#X connect 20 0 19 0;
#X connect 20 0 15 0;
#X coords 0 -1 1 1 106 36 1 100 100;
#X restore 144 154 pd ARGO;
#X text 34 157 Adjust 1 2 3 4 ->;
#X connect 2 0 1 0;
#X connect 9 0 23 3;
#X connect 10 0 23 1;
#X connect 11 0 23 2;
#X connect 12 0 7 0;
#X connect 12 0 7 1;
#X connect 18 0 23 0;
#X connect 18 0 8 0;
#X connect 22 0 18 0;
#X connect 22 0 10 0;
#X connect 22 0 11 0;
#X connect 22 0 9 0;
#X connect 23 0 12 0;
#X connect 23 0 8 1;
