#N canvas 284 263 450 300 10;
#X text 18 10 tanh(x) ~= x*(27+x*x) / (27+9*x*x);
#X obj 17 39 inlet;
#X obj 17 62 clip -3 3;
#X obj 83 159 * 9;
#X obj 35 155 + 27;
#X obj 84 182 + 27;
#X obj 17 177 *;
#X obj 17 212 /;
#X obj 17 235 outlet;
#X obj 21 86 t f f f;
#X obj 42 108 *;
#X obj 45 130 t f f;
#X connect 1 0 2 0;
#X connect 2 0 9 0;
#X connect 3 0 5 0;
#X connect 4 0 6 1;
#X connect 5 0 7 1;
#X connect 6 0 7 0;
#X connect 7 0 8 0;
#X connect 9 0 6 0;
#X connect 9 1 10 0;
#X connect 9 2 10 1;
#X connect 10 0 11 0;
#X connect 11 0 4 0;
#X connect 11 1 3 0;
