#N canvas 305 65 617 389 10;
#N canvas 84 147 438 203 ARGO 0;
#X obj 92 143 osc~;
#X obj 101 101 cnv 20 244 34 empty ColorTime empty 20 12 0 14 -208064
-1 1.04858e+06;
#X obj 92 168 outlet~;
#X obj 100 106 nbx 7 12 0 20000 0 1 \$0-A ColorTime Hz 60 7 1 9 -208064
-1 -1 174.614 256;
#X obj 194 104 cnv 10 65 10 empty ColorTime Oscill 1 5 1 14 -208064
-1 1.04858e+06;
#X obj 231 104 cnv 10 10 10 empty ColorTime Sinus 1 5 1 14 -208064
-1 1.04858e+06;
#X obj 87 26 inlet~;
#X obj 101 131 cnv 4 10 4 empty empty empty 20 12 0 14 -1 -66577 0
;
#X obj 101 101 cnv 4 10 4 empty empty empty 20 12 0 14 -1728 -66577
0;
#X obj 103 118 hsl 241 12 0 1 0 0 \$0-A ColorTime empty 0 7 1 9 -262144
-1 -1 16100 0;
#X obj 103 118 hsl 241 12 0 1 0 0 \$0-A ColorTime F2 0 7 1 9 -208064
-1728 -1 16100 0;
#X text 228 147 2 HSLIDER superposés;
#X text 227 136 ATTENTION;
#X obj 366 103 cnv 15 41 30 empty empty empty 20 12 0 14 -24198 -66577
0;
#N canvas 350 196 381 103 ? 0;
#X obj 5 49 cnv 15 370 38 empty empty empty 20 12 0 14 -224896 -66577
0;
#X text 6 65 Voir/Look at: http://puredata.info/downloads;
#X obj 4 12 cnv 18 370 30 empty empty ARGOPdMiniModules 1 10 1 14 -4033
-1 1.04858e+06;
#X obj 7 31 cnv 10 10 10 empty empty Gerard 0 5 1 9 -4033 -1 1.04858e+06
;
#X obj 38 31 cnv 10 10 10 empty empty Paresys 0 5 1 9 -4033 -1 1.04858e+06
;
#X obj 175 20 cnv 10 10 10 empty empty http://pagesperso-orange.fr/Paresys/ARGOPd/
0 5 1 9 -4033 -1 1.04858e+06;
#X obj 175 31 cnv 10 10 10 empty empty http://gerard.paresys.free.fr/ARGOPd/
0 5 1 9 -4033 -1 1.04858e+06;
#X text 6 51 Construit sous / Build under Pd 0.41.4-extended;
#X restore 372 110 pd ?;
#X obj 364 60 cnv 15 60 30 empty empty empty 20 12 0 14 -24198 -66577
0;
#N canvas 161 113 425 238 Help 0;
#X obj 8 85 cnv 15 400 100 empty empty empty 20 12 0 14 -233017 -66577
0;
#X text 12 87 Citation;
#X text 10 45 Sensibilitée de l'entrée de contrôle de la fréquence:
;
#X text 10 57 1 = 240 1/2 ton = 20 octaves;
#X text 11 19 Oscillateur sinusoïdal;
#X text 22 106 The osc~ object outputs a cosine wave. If no argument
is supplied \, the input is taken to be an audio signal.;
#X restore 371 66 pd Help;
#N canvas 658 231 344 337 Freq-v7-sig- 0;
#X obj 226 11 ftom;
#X obj 279 170 mtof;
#X obj 141 95 +~;
#X obj 9 142 snapshot~;
#X obj 9 164 change;
#X msg 9 189 set \$1;
#X obj 142 198 clip~ 0 20000;
#X obj 142 175 mtof~;
#X obj 142 227 outlet~;
#X obj 280 -12 inlet;
#X obj 225 -13 inlet;
#X obj 38 227 outlet;
#X obj 279 227 outlet;
#X text 35 245 Hslider;
#X obj 141 -8 inlet~;
#X obj 8 -9 loadbang;
#X obj 229 227 outlet;
#X obj 279 109 * 240;
#X obj 279 132 - 108;
#X obj 141 123 *~ 240;
#X obj 141 145 -~ 108;
#X obj 226 34 + 108;
#X obj 226 56 / 240;
#X obj 9 40 metro 200;
#X obj 64 -9 r SendFluid;
#N canvas 618 373 489 317 pitchb 0;
#X obj 70 111 mod 12;
#X obj 70 135 sel 0 1 2 3 4 5 6 7 8 9 10 11;
#X msg 246 170 A;
#X msg 300 170 B;
#X msg 192 170 G;
#X msg 3 170 C;
#X msg 57 170 D;
#X msg 111 170 E;
#X msg 138 170 F;
#X obj 204 1 inlet;
#X obj 329 115 div 12;
#X obj 204 79 t f f;
#X text 334 190 -> Numero de l'octave;
#X text 213 64 -> Numero MIDI de la note (69 = A3 = 440Hz);
#X msg 260 260 label \$1;
#X obj 260 283 outlet;
#X msg 30 170 Db;
#X msg 84 170 Eb;
#X msg 165 170 Gb;
#X msg 219 170 Ab;
#X msg 273 170 Bb;
#X text 369 78 (70 = A#3 = Bb3);
#X obj 260 238 symbol;
#X obj 260 213 sprintf %s%d;
#X text 11 231 Impossible d'afficher # dans un label;
#X text 11 243 donc j'affiche b;
#X obj 204 51 int;
#X text 255 23 -> pour corriger certaines erreurs de calcul;
#X obj 204 25 + 120.1;
#X obj 329 144 - 12;
#X text 255 35 et le pb du passage a zero de mod 12;
#X connect 0 0 1 0;
#X connect 1 0 5 0;
#X connect 1 1 16 0;
#X connect 1 2 6 0;
#X connect 1 3 17 0;
#X connect 1 4 7 0;
#X connect 1 5 8 0;
#X connect 1 6 18 0;
#X connect 1 7 4 0;
#X connect 1 8 19 0;
#X connect 1 9 2 0;
#X connect 1 10 20 0;
#X connect 1 11 3 0;
#X connect 2 0 23 0;
#X connect 3 0 23 0;
#X connect 4 0 23 0;
#X connect 5 0 23 0;
#X connect 6 0 23 0;
#X connect 7 0 23 0;
#X connect 8 0 23 0;
#X connect 9 0 28 0;
#X connect 10 0 29 0;
#X connect 11 0 0 0;
#X connect 11 1 10 0;
#X connect 14 0 15 0;
#X connect 16 0 23 0;
#X connect 17 0 23 0;
#X connect 18 0 23 0;
#X connect 19 0 23 0;
#X connect 20 0 23 0;
#X connect 22 0 14 0;
#X connect 23 0 22 0;
#X connect 26 0 11 0;
#X connect 28 0 26 0;
#X connect 29 0 23 1;
#X restore 40 86 pd pitchb;
#X text 44 256 Over;
#X text 281 245 Number;
#X text 222 -30 Number;
#X text 228 244 Hslider;
#X text 230 255 Under;
#X text 281 -42 Hslider;
#X text 286 -31 Under;
#X msg 229 197 set \$1;
#X connect 0 0 21 0;
#X connect 0 0 25 0;
#X connect 1 0 12 0;
#X connect 2 0 3 0;
#X connect 2 0 19 0;
#X connect 3 0 4 0;
#X connect 4 0 5 0;
#X connect 5 0 11 0;
#X connect 6 0 8 0;
#X connect 7 0 6 0;
#X connect 9 0 17 0;
#X connect 10 0 0 0;
#X connect 14 0 2 0;
#X connect 15 0 23 0;
#X connect 17 0 18 0;
#X connect 18 0 1 0;
#X connect 19 0 20 0;
#X connect 20 0 7 0;
#X connect 21 0 22 0;
#X connect 22 0 2 1;
#X connect 22 0 33 0;
#X connect 23 0 3 0;
#X connect 24 0 23 1;
#X connect 25 0 11 0;
#X connect 33 0 16 0;
#X restore 62 63 pd Freq-v7-sig-;
#X text 282 80 29 11 2009;
#X connect 0 0 2 0;
#X connect 3 0 17 1;
#X connect 6 0 17 0;
#X connect 9 0 17 2;
#X connect 17 0 10 0;
#X connect 17 1 0 0;
#X connect 17 2 9 0;
#X connect 17 3 3 0;
#X coords 0 -1 1 1 246 36 1 100 100;
#X restore 28 6 pd ARGO;
#N canvas 433 141 293 343 ARGO 0;
#X obj 26 9 loadbang;
#X obj 93 9 inlet~;
#X obj 141 44 cnv 15 60 30 empty empty empty 20 12 0 14 -24198 -66577
0;
#N canvas 84 93 422 471 Help 0;
#X obj 8 87 cnv 15 400 300 empty empty empty 20 12 0 14 -233017 -66577
0;
#X text 11 86 Citation;
#X text 70 0 http://en.wikipedia.org/wiki/Waveshaper;
#X text 11 -1 Voir/See:;
#X text 12 -62 Cheby;
#X text 52 -63 Modification de la forme d'onde ou distortion non-linéaire
;
#X text 51 -35 waveshaping or nonlinear distortion;
#X text 8 64 Inspiré de Browser -> 3.audio.examples/E05.chebychev.pd
;
#X restore 148 50 pd Help;
#N canvas 343 159 556 359 RenameArray 0;
#X obj -314 -222 realtime;
#X obj -314 -198 * 100;
#X obj -314 -175 int;
#X obj -314 -128 tosymbol;
#X obj -314 -150 sprintf A%d;
#X obj -298 9 pack s s;
#X msg -298 34 \; \$1 rename \$2;
#X obj -298 -17 tosymbol;
#X msg -354 -73 set \$1;
#X text -319 38 (1);
#X text -376 -75 (2);
#X text -250 -38 (3);
#X text -178 -231 array -> Voir:;
#X text -178 -218 Help Browser/2.control.examples/15.array.pd;
#X text -178 -205 Help Browser/2.control.examples/16.more.arrays.pd
;
#X text -178 -193 Help Browser/5.reference/all_about_arrays.pd;
#X obj -268 -250 inlet;
#X text -189 -59 SOLUTION:;
#X obj -356 69 outlet;
#X obj -317 -101 t a b a a;
#X msg -298 -39 A51;
#X symbolatom -251 -101 10 0 0 0 - - -;
#X text -187 -87 PROBLEME: Comment dupliquer un MiniModule comportant
un array;
#X text -184 -43 (1) Renommer l'array;
#X text -185 -28 (2) Renomme le message qui renomme l'array;
#X text -185 -10 Démarrer en nommant l'array (graph) A et en mettant
A dans (3);
#X connect 0 0 1 0;
#X connect 1 0 2 0;
#X connect 2 0 4 0;
#X connect 3 0 19 0;
#X connect 3 0 21 0;
#X connect 4 0 3 0;
#X connect 5 0 6 0;
#X connect 7 0 5 0;
#X connect 8 0 20 0;
#X connect 8 0 18 0;
#X connect 16 0 0 1;
#X connect 19 0 8 0;
#X connect 19 1 20 0;
#X connect 19 2 5 1;
#X connect 20 0 7 0;
#X restore -8 118 pd RenameArray;
#X obj 94 316 outlet~;
#X obj 94 274 tabread4~;
#N canvas 466 205 368 259 make-table 0;
#X text 189 170 normalize from -1 to 1;
#X obj 69 90 t b b;
#X obj 141 115 f;
#X obj 179 115 + 1;
#X msg 163 92 0;
#X obj 69 113 until;
#X obj 141 145 t f f;
#X obj 68 141 sel 258;
#X obj 49 173 expr ($f1-129)/128;
#X obj 70 46 inlet;
#X obj 48 197 outlet;
#X obj 167 206 outlet;
#X connect 1 0 5 0;
#X connect 1 1 4 0;
#X connect 2 0 3 0;
#X connect 2 0 6 0;
#X connect 2 0 7 0;
#X connect 3 0 2 1;
#X connect 4 0 2 1;
#X connect 5 0 2 0;
#X connect 6 0 8 0;
#X connect 6 1 11 0;
#X connect 7 0 5 1;
#X connect 8 0 10 0;
#X connect 9 0 1 0;
#X restore 5 274 pd make-table;
#X obj 94 239 +~ 129;
#X obj -5 302 tabwrite;
#X obj 101 101 cnv 8 103 95 empty ColorForm empty 20 12 0 14 -188398
-1 1.04858e+06;
#X obj 101 192 cnv 4 10 4 empty empty empty 20 12 0 14 -1 -66577 0
;
#X obj 141 9 cnv 15 41 30 empty empty empty 20 12 0 14 -24198 -66577
0;
#N canvas 350 196 381 103 ? 0;
#X obj 5 49 cnv 15 370 38 empty empty empty 20 12 0 14 -224896 -66577
0;
#X text 6 65 Voir/Look at: http://puredata.info/downloads;
#X obj 4 12 cnv 18 370 30 empty empty ARGOPdMiniModules 1 10 1 14 -4033
-1 1.04858e+06;
#X obj 7 31 cnv 10 10 10 empty empty Gerard 0 5 1 9 -4033 -1 1.04858e+06
;
#X obj 38 31 cnv 10 10 10 empty empty Paresys 0 5 1 9 -4033 -1 1.04858e+06
;
#X obj 175 20 cnv 10 10 10 empty empty http://pagesperso-orange.fr/Paresys/ARGOPd/
0 5 1 9 -4033 -1 1.04858e+06;
#X obj 175 31 cnv 10 10 10 empty empty http://gerard.paresys.free.fr/ARGOPd/
0 5 1 9 -4033 -1 1.04858e+06;
#X text 6 51 Construit sous / Build under Pd 0.41.4-extended;
#X restore 147 16 pd ?;
#N canvas 0 22 844 357 (subpatch) 0;
#X array A51 259 float 1;
#A 0 -0.0245412 0 0.0245412 0.0490676 0.0735645 0.0980171 0.122411
0.14673 0.170962 0.19509 0.219101 0.24298 0.266713 0.290284 0.313681
0.33689 0.359895 0.382683 0.405241 0.427555 0.449611 0.471396 0.492898
0.514102 0.534997 0.55557 0.575808 0.595699 0.615231 0.634393 0.653172
0.671558 0.68954 0.707106 0.724247 0.740951 0.757208 0.77301 0.788346
0.803207 0.817584 0.831469 0.844853 0.857728 0.870087 0.881921 0.893224
0.903989 0.914209 0.923879 0.932992 0.941544 0.949528 0.95694 0.963776
0.970031 0.975702 0.980785 0.985277 0.989176 0.992479 0.995185 0.99729
0.998795 0.999699 1 0.999699 0.998796 0.997291 0.995185 0.99248 0.989177
0.985278 0.980786 0.975702 0.970032 0.963776 0.956941 0.949529 0.941545
0.932993 0.92388 0.91421 0.90399 0.893225 0.881922 0.870088 0.85773
0.844855 0.831471 0.817586 0.803209 0.788348 0.773012 0.75721 0.740952
0.724248 0.707108 0.689542 0.67156 0.653174 0.634395 0.615233 0.595701
0.57581 0.555572 0.534999 0.514105 0.4929 0.471399 0.449613 0.427557
0.405243 0.382686 0.359897 0.336892 0.313684 0.290287 0.266715 0.242983
0.219104 0.195093 0.170964 0.146733 0.122413 0.0980197 0.0735671 0.0490703
0.0245439 2.65359e-06 -0.0245386 -0.049065 -0.0735619 -0.0980144 -0.122408
-0.146728 -0.170959 -0.195088 -0.219098 -0.242977 -0.26671 -0.290282
-0.313679 -0.336887 -0.359892 -0.382681 -0.405239 -0.427552 -0.449609
-0.471394 -0.492896 -0.5141 -0.534995 -0.555568 -0.575806 -0.595697
-0.615229 -0.634391 -0.65317 -0.671557 -0.689538 -0.707104 -0.724245
-0.740949 -0.757207 -0.773008 -0.788344 -0.803205 -0.817583 -0.831468
-0.844852 -0.857727 -0.870085 -0.88192 -0.893223 -0.903988 -0.914208
-0.923878 -0.932992 -0.941543 -0.949527 -0.956939 -0.963775 -0.97003
-0.975701 -0.980785 -0.985277 -0.989176 -0.992479 -0.995184 -0.99729
-0.998795 -0.999699 -1 -0.999699 -0.998796 -0.997291 -0.995185 -0.99248
-0.989177 -0.985278 -0.980786 -0.975703 -0.970032 -0.963777 -0.956942
-0.94953 -0.941545 -0.932994 -0.923881 -0.914212 -0.903991 -0.893226
-0.881923 -0.870089 -0.857731 -0.844856 -0.831472 -0.817587 -0.80321
-0.788349 -0.773013 -0.757212 -0.740954 -0.72425 -0.70711 -0.689544
-0.671562 -0.653176 -0.634397 -0.615235 -0.595703 -0.575812 -0.555574
-0.535002 -0.514107 -0.492902 -0.471401 -0.449616 -0.42756 -0.405246
-0.382688 -0.3599 -0.336895 -0.313687 -0.29029 -0.266718 -0.242985
-0.219106 -0.195095 -0.170967 -0.146736 -0.122416 -0.0980223 -0.0735698
-0.0490729 -0.0245465 -5.30718e-06 0.0245359;
#X coords 0 1 258 -1 80 80 1;
#X restore 125 117 graph;
#X obj 101 101 cnv 8 103 11 empty ColorForm empty 20 12 0 14 -188398
-1 1.04858e+06;
#X obj 114 104 cnv 10 20 10 empty empty WaveShaping 1 5 1 14 -188398
-1 1.04858e+06;
#X text 149 82 13 3 2010;
#X obj 94 215 *~ 127;
#X obj 101 101 cnv 4 10 4 empty empty empty 20 12 0 14 -1 -66577 0
;
#X obj 106 117 bng 12 250 50 0 \$0-A \$0-b Init 1 19 1 9 -262144 -1
-1;
#N canvas 572 326 389 234 Normalize 0;
#X obj 106 38 inlet;
#X msg 155 175 \; \$1 normalize;
#X obj 105 132 list2symbol;
#X msg 106 107 A51;
#X connect 0 0 3 0;
#X connect 2 0 1 0;
#X connect 3 0 2 0;
#X restore 10 215 pd Normalize;
#X obj 106 167 bng 12 250 50 0 \$0-A \$0-b Norm -3 19 1 9 -262144 -1
-1;
#X obj 106 142 bng 12 250 50 0 \$0-A \$0-b Sin 1 19 1 9 -262144 -1
-1;
#N canvas 763 293 389 234 Sinus 0;
#X obj 106 38 inlet;
#X obj 105 132 list2symbol;
#X msg 106 107 A51;
#X msg 105 161 \; \$1 sinesum 257 1;
#X connect 0 0 2 0;
#X connect 1 0 3 0;
#X connect 2 0 1 0;
#X restore 39 174 pd Sinus;
#X text 209 132 <- Dessiner;
#X text 210 145 <- Draw;
#X connect 0 0 4 0;
#X connect 1 0 18 0;
#X connect 4 0 6 0;
#X connect 4 0 9 0;
#X connect 4 0 21 0;
#X connect 4 0 24 0;
#X connect 6 0 5 0;
#X connect 7 0 9 0;
#X connect 7 1 9 1;
#X connect 8 0 6 0;
#X connect 18 0 8 0;
#X connect 20 0 7 0;
#X connect 22 0 21 0;
#X connect 23 0 24 0;
#X coords 0 -1 1 1 105 97 2 100 100;
#X restore 28 100 pd ARGO;
#X obj -70 27 switch~;
#N canvas 608 166 249 182 ARGOnOff 0;
#X obj 100 100 tgl 18 1 \$0-SendOnOff \$0-ReceiveOnOff On/Off 20 9
0 12 -4033 -1 -1 1 1;
#X obj 99 39 loadbang;
#X msg 99 62 \; pd dsp 1;
#X obj 100 129 outlet;
#X connect 0 0 3 0;
#X connect 1 0 2 0;
#X coords 0 -1 1 1 65 18 2 100 100;
#X restore -70 9 pd ARGOnOff;
#X text -104 68 Change input level ->;
#X obj 28 218 hip~ 20;
#X text -112 212 Filtre passe-haut 20Hz;
#X text -106 224 High-Pass Filter 20Hz;
#X text 150 85 Voir/Look at:;
#X text -68 79 (Index);
#X text 149 59 Modification de la forme d'onde ou distortion non-linéaire
;
#X text 149 72 waveshaping or nonlinear distortion;
#X text 138 139 <- Dessiner;
#X text 139 152 <- Draw;
#X obj -100 -14 cnv 15 15 15 empty empty ExMM61a-WaveShaping.pd 0 8
1 14 -262144 -1 0;
#X obj 9 349 dac~ 1 2;
#X obj 445 336 cnv 15 48 25 empty empty empty 20 12 0 14 -24198 -66577
0;
#N canvas 350 196 308 136 ??? 0;
#X obj -6 87 cnv 15 300 38 empty empty empty 20 12 0 14 -224896 -66577
0;
#X obj -6 10 cnv 18 300 70 empty empty ARGOPdMiniModules 3 10 1 14
-4033 -1 1.04858e+06;
#X obj 13 31 cnv 10 10 10 empty empty Gerard 0 5 1 11 -4033 -1 1.04858e+06
;
#X obj 55 30 cnv 10 10 10 empty empty Paresys 0 5 1 11 -4033 -1 1.04858e+06
;
#X text -1 89 Construit sous / Build under Pd 0.42.5-extended;
#X obj 6 43 pddp/pddplink http://pagesperso-orange.fr/Paresys/ARGOPd/
;
#X obj 6 58 pddp/pddplink http://gerard.paresys.free.fr/ARGOPd/;
#X obj 46 105 pddp/pddplink http://puredata.info/downloads;
#X restore 449 340 pd ???;
#N canvas 324 59 331 313 ARGO 0;
#X obj 101 101 cnv 20 104 34 empty ColorAmpli empty 20 12 0 14 -261299
-1 1.04858e+06;
#X obj 85 285 outlet~;
#X obj 134 104 cnv 10 20 10 empty ColorAmpli Ampli 1 5 1 14 -261299
-1 1.04858e+06;
#X obj 85 72 inlet~;
#X obj 85 260 *~;
#X obj 103 118 hsl 101 12 -80 20 0 1 \$0-A ColorAmpli -10dB 0 7 1 9
-261299 -1 -1 7000 0;
#X msg -24 161 label \$1;
#X obj -25 138 tosymbol;
#X obj -25 103 sprintf %ddB;
#X obj 101 101 cnv 4 10 4 empty empty empty 20 12 0 14 -1 -66577 0
;
#X obj 101 131 cnv 4 10 4 empty empty empty 20 12 0 14 -1 -66577 0
;
#X text -16 120 -> -80dB..20dB;
#X text 106 182 -> 0.0001..10 = -80dB..20dB;
#X text 209 97 5 5 2011;
#X obj 100 163 expr (pow(10 \, $f1 / 20));
#X text 107 140 -> -80..20;
#X obj 227 270 cnv 15 41 30 empty empty empty 20 12 0 14 -24198 -66577
0;
#N canvas 350 196 308 136 ?? 0;
#X obj -9 87 cnv 15 300 38 empty empty empty 20 12 0 14 -224896 -66577
0;
#X obj -9 10 cnv 18 300 70 empty empty ARGOPdMiniModules 1 10 1 14
-4033 -1 1.04858e+06;
#X obj 9 29 cnv 10 10 10 empty empty Gerard 0 5 1 9 -4033 -1 1.04858e+06
;
#X obj 40 29 cnv 10 10 10 empty empty Paresys 0 5 1 9 -4033 -1 1.04858e+06
;
#X text -8 89 Construit sous / Build under Pd 0.42.5-extended;
#X obj 39 105 pddplink http://puredata.info/downloads;
#X obj 3 42 pddplink http://pagesperso-orange.fr/Paresys/ARGOPd/;
#X obj 3 57 pddplink http://gerard.paresys.free.fr/ARGOPd/;
#X restore 231 277 pd ??;
#X obj 100 206 sel 0.0001;
#X msg 100 234 0;
#X connect 3 0 4 0;
#X connect 4 0 1 0;
#X connect 5 0 8 0;
#X connect 5 0 14 0;
#X connect 6 0 5 0;
#X connect 7 0 6 0;
#X connect 8 0 7 0;
#X connect 14 0 18 0;
#X connect 18 0 19 0;
#X connect 18 1 4 1;
#X connect 19 0 4 1;
#X connect 19 0 7 0;
#X coords 0 -1 1 1 106 36 1 100 100;
#X restore 28 255 pd ARGO;
#X text -79 265 Niveau general ->;
#X text -73 276 General level ->;
#N canvas 324 59 331 313 ARGO 0;
#X obj 101 101 cnv 20 104 34 empty ColorAmpli empty 20 12 0 14 -261299
-1 1.04858e+06;
#X obj 85 285 outlet~;
#X obj 134 104 cnv 10 20 10 empty ColorAmpli Ampli 1 5 1 14 -261299
-1 1.04858e+06;
#X obj 85 72 inlet~;
#X obj 85 260 *~;
#X obj 103 118 hsl 101 12 -80 20 0 1 \$0-A ColorAmpli 0dB 0 7 1 9 -261299
-1 -1 8000 0;
#X msg -24 161 label \$1;
#X obj -25 138 tosymbol;
#X obj -25 103 sprintf %ddB;
#X obj 101 101 cnv 4 10 4 empty empty empty 20 12 0 14 -1 -66577 0
;
#X obj 101 131 cnv 4 10 4 empty empty empty 20 12 0 14 -1 -66577 0
;
#X text -16 120 -> -80dB..20dB;
#X text 106 182 -> 0.0001..10 = -80dB..20dB;
#X text 209 97 5 5 2011;
#X obj 100 163 expr (pow(10 \, $f1 / 20));
#X text 107 140 -> -80..20;
#X obj 227 270 cnv 15 41 30 empty empty empty 20 12 0 14 -24198 -66577
0;
#N canvas 350 196 308 136 ?? 0;
#X obj -9 87 cnv 15 300 38 empty empty empty 20 12 0 14 -224896 -66577
0;
#X obj -9 10 cnv 18 300 70 empty empty ARGOPdMiniModules 1 10 1 14
-4033 -1 1.04858e+06;
#X obj 9 29 cnv 10 10 10 empty empty Gerard 0 5 1 9 -4033 -1 1.04858e+06
;
#X obj 40 29 cnv 10 10 10 empty empty Paresys 0 5 1 9 -4033 -1 1.04858e+06
;
#X text -8 89 Construit sous / Build under Pd 0.42.5-extended;
#X obj 39 105 pddplink http://puredata.info/downloads;
#X obj 3 42 pddplink http://pagesperso-orange.fr/Paresys/ARGOPd/;
#X obj 3 57 pddplink http://gerard.paresys.free.fr/ARGOPd/;
#X restore 231 277 pd ??;
#X obj 100 206 sel 0.0001;
#X msg 100 234 0;
#X connect 3 0 4 0;
#X connect 4 0 1 0;
#X connect 5 0 8 0;
#X connect 5 0 14 0;
#X connect 6 0 5 0;
#X connect 7 0 6 0;
#X connect 8 0 7 0;
#X connect 14 0 18 0;
#X connect 18 0 19 0;
#X connect 18 1 4 1;
#X connect 19 0 4 1;
#X connect 19 0 7 0;
#X coords 0 -1 1 1 106 36 1 100 100;
#X restore 28 53 pd ARGO;
#X obj 234 86 pddp/pddplink http://en.wikipedia.org/wiki/Waveshaper
;
#N canvas 309 45 492 302 ARGO 0;
#X obj 40 -35 inlet~;
#X obj 251 108 cnv 10 44 10 empty empty Scope 1 5 1 14 -262144 -1 1.04858e+06
;
#X obj 101 101 cnv 4 10 4 empty empty empty 20 12 0 14 -1 -66577 0
;
#X msg -36 168 frgb 255 0 0;
#X obj 124 105 nbx 4 12 1 2000 0 1 \$0-A ColorTime ms/div 40 7 1 9
-208064 -1 -1 1 256;
#X obj 205 105 tgl 12 1 \$0-A \$0-B Sync 15 6 1 9 -262144 -1 -1 1 1
;
#X msg 128 52 delay 0 \, triglevel 0 \, trigger 0;
#X obj 126 5 sel 0 1;
#X msg -39 192 brgb 255 255 255;
#X obj 85 64 * 2;
#X msg 146 28 delay 1 \, triglevel 0.1 \, trigger 1;
#X obj 277 -36 inlet~;
#X obj 289 101 cnv 4 10 4 empty empty empty 20 12 0 14 -1 -66577 0
;
#X obj -14 80 t b b b b;
#X obj -15 57 bng 15 250 50 0 empty empty empty 17 7 0 10 -262144 -1
-1;
#X msg -33 111 bufsize 176;
#X obj 196 -34 cnv 15 60 30 empty empty empty 20 12 0 14 -24198 -66577
0;
#N canvas 374 104 413 135 Help 0;
#X text 24 54 Voir MSP46ReferenceManual.pdf;
#X text 23 1 utilise l'objet Scope~ de la library cyclone;
#X text 24 26 Voir Browser -> Pure Data/examples/cyclone/scope-test.pd
;
#X text 24 40 Voir Browser -> Pure Data/examples/cyclone/pink-test.pd
;
#X text 24 -20 Scope;
#X restore 203 -28 pd Help;
#X obj 101 121 cnv 15 199 129 empty empty empty 20 12 0 14 -1 -66577
0;
#X obj 101 123 Scope~ 198 61 2 3 176 -0.95 0.95 1 0 1 0.1 255 0 0 255
255 255 0;
#X obj 101 187 Scope~ 198 61 2 3 176 -0.95 0.95 1 0 1 0.1 255 0 0 255
255 255 0;
#X msg -24 136 range -0.95 0.95;
#X obj 277 -12 -~ 0.025;
#X obj 40 -11 -~ 0.025;
#X obj 396 222 cnv 15 41 30 empty empty empty 20 12 0 14 -24198 -66577
0;
#N canvas 350 196 308 136 ?? 0;
#X obj -9 87 cnv 15 300 38 empty empty empty 20 12 0 14 -224896 -66577
0;
#X obj -9 10 cnv 18 300 70 empty empty ARGOPdMiniModules 1 10 1 14
-4033 -1 1.04858e+06;
#X obj 9 29 cnv 10 10 10 empty empty Gerard 0 5 1 9 -4033 -1 1.04858e+06
;
#X obj 40 29 cnv 10 10 10 empty empty Paresys 0 5 1 9 -4033 -1 1.04858e+06
;
#X text -8 89 Construit sous / Build under Pd 0.42.5-extended;
#X obj 39 105 pddplink http://puredata.info/downloads;
#X obj 3 42 pddplink http://pagesperso-orange.fr/Paresys/ARGOPd/;
#X obj 3 57 pddplink http://gerard.paresys.free.fr/ARGOPd/;
#X restore 400 229 pd ??;
#X text 243 85 15 5 2011;
#X connect 0 0 23 0;
#X connect 3 0 19 0;
#X connect 3 0 20 0;
#X connect 4 0 9 0;
#X connect 5 0 7 0;
#X connect 6 0 19 0;
#X connect 6 0 20 0;
#X connect 7 0 6 0;
#X connect 7 1 10 0;
#X connect 8 0 19 0;
#X connect 8 0 20 0;
#X connect 9 0 19 0;
#X connect 9 0 20 0;
#X connect 10 0 19 0;
#X connect 10 0 20 0;
#X connect 11 0 22 0;
#X connect 13 0 15 0;
#X connect 13 1 21 0;
#X connect 13 2 3 0;
#X connect 13 3 8 0;
#X connect 14 0 13 0;
#X connect 15 0 19 0;
#X connect 15 0 20 0;
#X connect 21 0 19 0;
#X connect 21 0 20 0;
#X connect 22 0 20 0;
#X connect 23 0 19 0;
#X coords 0 -1 1 1 200 150 2 100 100;
#X restore 138 217 pd ARGO;
#X connect 0 0 21 0;
#X connect 0 0 23 0;
#X connect 1 0 5 0;
#X connect 1 0 23 1;
#X connect 3 0 2 0;
#X connect 5 0 18 0;
#X connect 18 0 15 0;
#X connect 18 0 15 1;
#X connect 21 0 1 0;
