#N canvas 0 54 1024 546 10;
#X obj 103 113 cnv 8 316 96 empty empty empty 4 6 1 9 -1 -3707 0;
#X obj 103 103 cnv 10 316 10 empty empty TRANSIT 2 8 1 12 -162280 -1
0;
#X obj 104 200 cnv 8 8 8 empty empty out1 0 6 1 9 -1 -162280 0;
#X obj 117 9 loadbang;
#N canvas 0 92 450 300 bassdrum 0;
#X obj 15 119 line~;
#X obj 175 120 line~;
#X obj 88 152 osc~;
#X obj 89 181 *~;
#X msg 109 127 0.5;
#X obj 109 20 inlet;
#X obj 90 231 outlet~;
#X msg 175 94 1 \, 0 100;
#X msg 15 91 220 \, 60 20;
#X obj 126 209 line~;
#X msg 126 189 \$1 20;
#X obj 90 209 *~;
#X obj 253 18 inlet;
#X obj 253 40 / 127;
#X connect 0 0 2 0;
#X connect 1 0 3 1;
#X connect 2 0 3 0;
#X connect 3 0 11 0;
#X connect 4 0 2 1;
#X connect 5 0 8 0;
#X connect 5 0 4 0;
#X connect 5 0 7 0;
#X connect 7 0 1 0;
#X connect 8 0 0 0;
#X connect 9 0 11 1;
#X connect 10 0 9 0;
#X connect 11 0 6 0;
#X connect 12 0 13 0;
#X connect 13 0 10 0;
#X restore 464 355 pd bassdrum;
#X obj 408 483 outlet~;
#N canvas 0 102 450 300 ehihat 0;
#X obj 25 81 noise~;
#X obj 72 81 line~;
#X obj 26 142 *~;
#X obj 72 16 inlet;
#X msg 72 50 1 \, 0 75;
#X obj 26 204 outlet~;
#X obj 25 176 *~;
#X obj 65 146 line~;
#X msg 66 126 \$1 20;
#X obj 174 16 inlet;
#X obj 174 38 / 127;
#X obj 25 103 hip~ 5000;
#X connect 0 0 11 0;
#X connect 1 0 2 1;
#X connect 2 0 6 0;
#X connect 3 0 4 0;
#X connect 4 0 1 0;
#X connect 6 0 5 0;
#X connect 7 0 6 1;
#X connect 8 0 7 0;
#X connect 9 0 10 0;
#X connect 10 0 8 0;
#X connect 11 0 2 0;
#X restore 538 355 pd ehihat;
#N canvas 0 87 450 300 esnare 0;
#X obj 68 62 noise~;
#X obj 118 63 line~;
#X obj 68 98 *~;
#X obj 68 126 lop~ 400;
#X msg 118 31 3 \, 0 50;
#X obj 118 2 inlet;
#X obj 68 175 outlet~;
#X obj 68 153 *~;
#X obj 125 153 line~;
#X msg 125 132 \$1 20;
#X obj 199 4 inlet;
#X obj 199 26 / 127;
#X connect 0 0 2 0;
#X connect 1 0 2 1;
#X connect 2 0 3 0;
#X connect 3 0 7 0;
#X connect 4 0 1 0;
#X connect 5 0 4 0;
#X connect 7 0 6 0;
#X connect 8 0 7 1;
#X connect 9 0 8 0;
#X connect 10 0 11 0;
#X connect 11 0 9 0;
#X restore 600 355 pd esnare;
#X obj 484 482 outlet~;
#X obj 546 482 outlet~;
#N canvas 504 186 450 300 transeq 0;
#X obj 64 151 select 1;
#X obj 209 128 random 127;
#X obj 209 178 moses 0;
#X obj 233 214 f;
#X obj 144 89 t b b b;
#X obj 20 24 inlet;
#X obj 70 24 inlet;
#X obj 120 24 inlet;
#X obj 170 24 inlet;
#X obj 51 266 outlet;
#X obj 101 266 outlet;
#X obj 64 129 random 10;
#X obj 70 46 i;
#X connect 0 0 9 0;
#X connect 1 0 2 0;
#X connect 2 1 3 1;
#X connect 3 0 10 0;
#X connect 4 0 11 0;
#X connect 4 1 3 0;
#X connect 4 2 1 0;
#X connect 5 0 4 0;
#X connect 6 0 12 0;
#X connect 7 0 1 1;
#X connect 8 0 2 1;
#X connect 11 0 0 0;
#X connect 12 0 11 1;
#X restore 464 293 pd transeq;
#N canvas 507 181 450 300 transeq 0;
#X obj 64 151 select 1;
#X obj 209 128 random 127;
#X obj 209 178 moses 0;
#X obj 233 214 f;
#X obj 144 89 t b b b;
#X obj 20 24 inlet;
#X obj 70 24 inlet;
#X obj 120 24 inlet;
#X obj 170 24 inlet;
#X obj 51 266 outlet;
#X obj 101 266 outlet;
#X obj 64 129 random 10;
#X obj 70 46 i;
#X connect 0 0 9 0;
#X connect 1 0 2 0;
#X connect 2 1 3 1;
#X connect 3 0 10 0;
#X connect 4 0 11 0;
#X connect 4 1 3 0;
#X connect 4 2 1 0;
#X connect 5 0 4 0;
#X connect 6 0 12 0;
#X connect 7 0 1 1;
#X connect 8 0 2 1;
#X connect 11 0 0 0;
#X connect 12 0 11 1;
#X restore 532 293 pd transeq;
#N canvas 507 181 450 300 transeq 0;
#X obj 64 151 select 1;
#X obj 209 128 random 127;
#X obj 209 178 moses 0;
#X obj 233 214 f;
#X obj 144 89 t b b b;
#X obj 20 24 inlet;
#X obj 70 24 inlet;
#X obj 120 24 inlet;
#X obj 170 24 inlet;
#X obj 51 266 outlet;
#X obj 101 266 outlet;
#X obj 64 129 random 10;
#X obj 70 46 i;
#X connect 0 0 9 0;
#X connect 1 0 2 0;
#X connect 2 1 3 1;
#X connect 3 0 10 0;
#X connect 4 0 11 0;
#X connect 4 1 3 0;
#X connect 4 2 1 0;
#X connect 5 0 4 0;
#X connect 6 0 12 0;
#X connect 7 0 1 1;
#X connect 8 0 2 1;
#X connect 11 0 0 0;
#X connect 12 0 11 1;
#X restore 600 293 pd transeq;
#X msg 119 49 3;
#X obj 578 11 r pscorchea;
#X obj 131 130 cnv 10 284 64 empty empty empty 20 12 0 14 -3707 -66577
0;
#X obj 135 131 hsl 32 14 64 127 0 0 empty empty empty -2 -8 0 10 -1
-3707 -1 2756 1;
#X obj 135 147 hsl 32 14 64 127 0 0 empty empty empty -2 -8 0 10 -1
-3707 -1 2756 1;
#X obj 135 163 hsl 32 14 64 127 0 0 empty empty empty -2 -8 0 10 -1
-3707 -1 2756 1;
#X obj 135 179 hsl 32 14 64 127 0 0 empty empty empty -2 -8 0 10 -1
-3707 -1 2756 1;
#X msg 24 85 120;
#X obj 175 131 hsl 32 14 63 0 0 0 empty empty empty -2 -8 0 10 -1 -3707
-1 2608 1;
#X obj 175 147 hsl 32 14 63 0 0 0 empty empty empty -2 -8 0 10 -1 -3707
-1 2608 1;
#X obj 175 163 hsl 32 14 63 0 0 0 empty empty empty -2 -8 0 10 -1 -3707
-1 2608 1;
#X obj 175 179 hsl 32 14 63 0 0 0 empty empty empty -2 -8 0 10 -1 -3707
-1 2608 1;
#X msg 50 32 10;
#X obj 215 131 hsl 32 14 1 10 0 0 empty empty empty -2 -8 0 10 -1 -3707
-1 689 1;
#X obj 215 147 hsl 32 14 1 10 0 0 empty empty empty -2 -8 0 10 -1 -3707
-1 689 1;
#X obj 215 163 hsl 32 14 1 10 0 0 empty empty empty -2 -8 0 10 -1 -3707
-1 689 1;
#X obj 215 179 hsl 32 14 1 10 0 0 empty empty empty -2 -8 0 10 -1 -3707
-1 689 1;
#X obj 656 11 r pfusa;
#X obj 462 152 spigot;
#X obj 512 152 spigot;
#X msg 476 91 1 0;
#X obj 438 113 unpack f f;
#X msg 508 91 1 0;
#X obj 508 113 unpack f f;
#X obj 465 63 sel 0 1;
#X obj 253 133 hradio 10 1 0 2 empty empty empty 0 -8 0 10 -1 -3707
-1 0;
#X obj 602 152 spigot;
#X obj 652 152 spigot;
#X msg 616 91 1 0;
#X obj 578 113 unpack f f;
#X msg 648 91 1 0;
#X obj 648 113 unpack f f;
#X obj 605 63 sel 0 1;
#X obj 742 152 spigot;
#X obj 792 152 spigot;
#X msg 756 91 1 0;
#X obj 718 113 unpack f f;
#X msg 788 91 1 0;
#X obj 788 113 unpack f f;
#X obj 745 63 sel 0 1;
#X obj 253 149 hradio 10 1 0 2 empty empty empty 0 -8 0 10 -1 -3707
-1 0;
#X obj 253 165 hradio 10 1 0 2 empty empty empty 0 -8 0 10 -1 -3707
-1 0;
#X obj 253 181 hradio 10 1 0 2 empty empty empty 0 -8 0 10 -1 -3707
-1 0;
#X obj 882 152 spigot;
#X obj 932 152 spigot;
#X msg 896 91 1 0;
#X obj 858 113 unpack f f;
#X msg 928 91 1 0;
#X obj 928 113 unpack f f;
#X obj 885 63 sel 0 1;
#N canvas 507 181 450 300 transeq 0;
#X obj 64 151 select 1;
#X obj 209 128 random 127;
#X obj 209 178 moses 0;
#X obj 233 214 f;
#X obj 144 89 t b b b;
#X obj 20 24 inlet;
#X obj 70 24 inlet;
#X obj 120 24 inlet;
#X obj 170 24 inlet;
#X obj 51 266 outlet;
#X obj 101 266 outlet;
#X obj 64 129 random 10;
#X obj 70 46 i;
#X connect 0 0 9 0;
#X connect 1 0 2 0;
#X connect 2 1 3 1;
#X connect 3 0 10 0;
#X connect 4 0 11 0;
#X connect 4 1 3 0;
#X connect 4 2 1 0;
#X connect 5 0 4 0;
#X connect 6 0 12 0;
#X connect 7 0 1 1;
#X connect 8 0 2 1;
#X connect 11 0 0 0;
#X connect 12 0 11 1;
#X restore 670 293 pd transeq;
#X obj 119 133 bng 10 100 50 0 empty empty empty 17 7 0 10 -1 -3707
-1;
#X obj 119 149 bng 10 100 50 0 empty empty empty 17 7 0 10 -1 -3707
-1;
#X obj 119 165 bng 10 100 50 0 empty empty empty 17 7 0 10 -1 -3707
-1;
#X obj 119 181 bng 10 100 50 0 empty empty empty 17 7 0 10 -1 -3707
-1;
#X obj 104 132 cnv 8 8 8 empty empty low 0 6 1 9 -1 -3707 0;
#X obj 107 164 cnv 8 8 8 empty empty /nz 0 6 1 9 -1 -3707 0;
#X obj 104 148 cnv 8 8 8 empty empty hnz 0 6 1 9 -1 -3707 0;
#X obj 131 119 cnv 8 8 8 empty empty limit.rnd.amp 0 6 1 9 -1 -3707
0;
#X obj 210 119 cnv 8 8 8 empty empty %rnd 0 6 1 9 -1 -3707 0;
#X obj 252 119 cnv 8 8 8 empty empty 16/32 0 6 1 9 -1 -3707 0;
#N canvas 0 97 450 300 tomdrum 0;
#X obj 15 119 line~;
#X obj 175 120 line~;
#X obj 88 152 osc~;
#X obj 89 181 *~;
#X msg 109 127 0.5;
#X obj 109 20 inlet;
#X obj 90 231 outlet~;
#X msg 175 94 1 \, 0 100;
#X obj 126 209 line~;
#X msg 126 189 \$1 20;
#X obj 90 209 *~;
#X obj 253 18 inlet;
#X obj 253 40 / 127;
#X msg 15 91 500 \, 240 20;
#X connect 0 0 2 0;
#X connect 1 0 3 1;
#X connect 2 0 3 0;
#X connect 3 0 10 0;
#X connect 4 0 2 1;
#X connect 5 0 13 0;
#X connect 5 0 4 0;
#X connect 5 0 7 0;
#X connect 7 0 1 0;
#X connect 8 0 10 1;
#X connect 9 0 8 0;
#X connect 10 0 6 0;
#X connect 11 0 12 0;
#X connect 12 0 9 0;
#X connect 13 0 0 0;
#X restore 664 355 pd tomdrum;
#X obj 610 482 outlet~;
#X obj 104 181 cnv 8 8 8 empty empty mid 0 6 1 9 -1 -3707 0;
#X obj 144 200 cnv 8 8 8 empty empty out2 0 6 1 9 -1 -162280 0;
#X obj 187 200 cnv 8 8 8 empty empty out3 0 6 1 9 -1 -162280 0;
#X obj 230 200 cnv 8 8 8 empty empty out4 0 6 1 9 -1 -162280 0;
#X obj 270 200 cnv 8 8 8 empty empty Gate1 0 6 1 9 -1 -3707 0;
#X obj 312 200 cnv 8 8 8 empty empty Gate2 0 6 1 9 -1 -3707 0;
#X obj 355 200 cnv 8 8 8 empty empty Gate3 0 6 1 9 -1 -3707 0;
#X obj 395 200 cnv 8 8 8 empty empty Gate4 0 6 1 9 -1 -3707 0;
#X obj 724 412 outlet;
#X obj 774 412 outlet;
#X obj 824 412 outlet;
#X obj 874 412 outlet;
#N canvas 0 97 541 300 distfilter 0;
#X obj 143 86 clip~ -1 1;
#X obj 144 64 *~ 1;
#X obj 192 118 hip~ 2000;
#X obj 53 118 vcf~ 120 2;
#X obj 123 118 bp~ 500 2;
#X obj 83 210 *~ 1;
#X obj 153 210 *~ 1;
#X obj 222 210 *~ 1;
#X obj 40 19 inlet~;
#X obj 97 19 inlet;
#X obj 58 72 mtof;
#X obj 144 19 inlet;
#X obj 185 19 inlet;
#X obj 152 251 outlet~;
#X obj 225 19 inlet;
#X obj 313 71 select 0 1 2;
#X obj 313 93 t b b;
#X obj 356 93 t b b;
#X obj 413 91 t b b;
#X msg 296 118 1;
#X msg 326 118 0;
#X msg 356 118 1;
#X msg 386 118 0;
#X msg 414 118 1;
#X msg 444 118 0;
#X connect 0 0 3 0;
#X connect 0 0 4 0;
#X connect 0 0 2 0;
#X connect 1 0 0 0;
#X connect 2 0 7 0;
#X connect 3 0 5 0;
#X connect 4 0 6 0;
#X connect 5 0 13 0;
#X connect 6 0 13 0;
#X connect 7 0 13 0;
#X connect 8 0 1 0;
#X connect 9 0 1 1;
#X connect 10 0 3 1;
#X connect 10 0 4 1;
#X connect 10 0 2 1;
#X connect 11 0 10 0;
#X connect 12 0 3 2;
#X connect 12 0 4 2;
#X connect 14 0 15 0;
#X connect 15 0 16 0;
#X connect 15 1 17 0;
#X connect 15 2 18 0;
#X connect 16 0 19 0;
#X connect 16 1 20 0;
#X connect 17 0 21 0;
#X connect 17 1 22 0;
#X connect 18 0 23 0;
#X connect 18 1 24 0;
#X connect 19 0 5 1;
#X connect 20 0 6 1;
#X connect 20 0 7 1;
#X connect 21 0 6 1;
#X connect 22 0 7 1;
#X connect 22 0 5 1;
#X connect 23 0 7 1;
#X connect 24 0 6 1;
#X connect 24 0 5 1;
#X restore 377 445 pd distfilter;
#N canvas 0 87 541 300 distfilter 0;
#X obj 143 86 clip~ -1 1;
#X obj 144 64 *~ 1;
#X obj 192 118 hip~ 2000;
#X obj 53 118 vcf~ 120 2;
#X obj 123 118 bp~ 500 2;
#X obj 83 210 *~ 1;
#X obj 153 210 *~ 1;
#X obj 222 210 *~ 1;
#X obj 40 19 inlet~;
#X obj 97 19 inlet;
#X obj 58 72 mtof;
#X obj 144 19 inlet;
#X obj 185 19 inlet;
#X obj 152 251 outlet~;
#X obj 225 19 inlet;
#X obj 313 71 select 0 1 2;
#X obj 313 93 t b b;
#X obj 356 93 t b b;
#X obj 413 91 t b b;
#X msg 296 118 1;
#X msg 326 118 0;
#X msg 356 118 1;
#X msg 386 118 0;
#X msg 414 118 1;
#X msg 444 118 0;
#X connect 0 0 3 0;
#X connect 0 0 4 0;
#X connect 0 0 2 0;
#X connect 1 0 0 0;
#X connect 2 0 7 0;
#X connect 3 0 5 0;
#X connect 4 0 6 0;
#X connect 5 0 13 0;
#X connect 6 0 13 0;
#X connect 7 0 13 0;
#X connect 8 0 1 0;
#X connect 9 0 1 1;
#X connect 10 0 3 1;
#X connect 10 0 4 1;
#X connect 10 0 2 1;
#X connect 11 0 10 0;
#X connect 12 0 3 2;
#X connect 12 0 4 2;
#X connect 14 0 15 0;
#X connect 15 0 16 0;
#X connect 15 1 17 0;
#X connect 15 2 18 0;
#X connect 16 0 19 0;
#X connect 16 1 20 0;
#X connect 17 0 21 0;
#X connect 17 1 22 0;
#X connect 18 0 23 0;
#X connect 18 1 24 0;
#X connect 19 0 5 1;
#X connect 20 0 6 1;
#X connect 20 0 7 1;
#X connect 21 0 6 1;
#X connect 22 0 7 1;
#X connect 22 0 5 1;
#X connect 23 0 7 1;
#X connect 24 0 6 1;
#X connect 24 0 5 1;
#X restore 467 445 pd distfilter;
#N canvas 0 87 541 300 distfilter 0;
#X obj 143 86 clip~ -1 1;
#X obj 144 64 *~ 1;
#X obj 192 118 hip~ 2000;
#X obj 53 118 vcf~ 120 2;
#X obj 123 118 bp~ 500 2;
#X obj 83 210 *~ 1;
#X obj 153 210 *~ 1;
#X obj 222 210 *~ 1;
#X obj 40 19 inlet~;
#X obj 97 19 inlet;
#X obj 58 72 mtof;
#X obj 144 19 inlet;
#X obj 185 19 inlet;
#X obj 152 251 outlet~;
#X obj 225 19 inlet;
#X obj 313 71 select 0 1 2;
#X obj 313 93 t b b;
#X obj 356 93 t b b;
#X obj 413 91 t b b;
#X msg 296 118 1;
#X msg 326 118 0;
#X msg 356 118 1;
#X msg 386 118 0;
#X msg 414 118 1;
#X msg 444 118 0;
#X connect 0 0 3 0;
#X connect 0 0 4 0;
#X connect 0 0 2 0;
#X connect 1 0 0 0;
#X connect 2 0 7 0;
#X connect 3 0 5 0;
#X connect 4 0 6 0;
#X connect 5 0 13 0;
#X connect 6 0 13 0;
#X connect 7 0 13 0;
#X connect 8 0 1 0;
#X connect 9 0 1 1;
#X connect 10 0 3 1;
#X connect 10 0 4 1;
#X connect 10 0 2 1;
#X connect 11 0 10 0;
#X connect 12 0 3 2;
#X connect 12 0 4 2;
#X connect 14 0 15 0;
#X connect 15 0 16 0;
#X connect 15 1 17 0;
#X connect 15 2 18 0;
#X connect 16 0 19 0;
#X connect 16 1 20 0;
#X connect 17 0 21 0;
#X connect 17 1 22 0;
#X connect 18 0 23 0;
#X connect 18 1 24 0;
#X connect 19 0 5 1;
#X connect 20 0 6 1;
#X connect 20 0 7 1;
#X connect 21 0 6 1;
#X connect 22 0 7 1;
#X connect 22 0 5 1;
#X connect 23 0 7 1;
#X connect 24 0 6 1;
#X connect 24 0 5 1;
#X restore 557 445 pd distfilter;
#N canvas 0 87 541 300 distfilter 0;
#X obj 143 86 clip~ -1 1;
#X obj 144 64 *~ 1;
#X obj 192 118 hip~ 2000;
#X obj 53 118 vcf~ 120 2;
#X obj 123 118 bp~ 500 2;
#X obj 83 210 *~ 1;
#X obj 153 210 *~ 1;
#X obj 222 210 *~ 1;
#X obj 40 19 inlet~;
#X obj 97 19 inlet;
#X obj 58 72 mtof;
#X obj 144 19 inlet;
#X obj 185 19 inlet;
#X obj 152 251 outlet~;
#X obj 225 19 inlet;
#X obj 313 71 select 0 1 2;
#X obj 313 93 t b b;
#X obj 356 93 t b b;
#X obj 413 91 t b b;
#X msg 296 118 1;
#X msg 326 118 0;
#X msg 356 118 1;
#X msg 386 118 0;
#X msg 414 118 1;
#X msg 444 118 0;
#X connect 0 0 3 0;
#X connect 0 0 4 0;
#X connect 0 0 2 0;
#X connect 1 0 0 0;
#X connect 2 0 7 0;
#X connect 3 0 5 0;
#X connect 4 0 6 0;
#X connect 5 0 13 0;
#X connect 6 0 13 0;
#X connect 7 0 13 0;
#X connect 8 0 1 0;
#X connect 9 0 1 1;
#X connect 10 0 3 1;
#X connect 10 0 4 1;
#X connect 10 0 2 1;
#X connect 11 0 10 0;
#X connect 12 0 3 2;
#X connect 12 0 4 2;
#X connect 14 0 15 0;
#X connect 15 0 16 0;
#X connect 15 1 17 0;
#X connect 15 2 18 0;
#X connect 16 0 19 0;
#X connect 16 1 20 0;
#X connect 17 0 21 0;
#X connect 17 1 22 0;
#X connect 18 0 23 0;
#X connect 18 1 24 0;
#X connect 19 0 5 1;
#X connect 20 0 6 1;
#X connect 20 0 7 1;
#X connect 21 0 6 1;
#X connect 22 0 7 1;
#X connect 22 0 5 1;
#X connect 23 0 7 1;
#X connect 24 0 6 1;
#X connect 24 0 5 1;
#X restore 647 445 pd distfilter;
#X obj 281 131 hsl 20 14 1 20 0 0 empty empty empty -2 -8 0 10 -1 -3707
-1 0 1;
#X obj 305 133 hradio 10 1 0 3 empty empty empty 0 -8 0 10 -1 -3707
-1 1;
#X obj 340 131 hsl 45 14 0 127 0 0 empty empty empty -2 -8 0 10 -1
-3707 -1 0 1;
#X obj 392 131 hsl 20 14 0 9 0 0 empty empty empty -2 -8 0 10 -1 -3707
-1 0 1;
#X obj 281 147 hsl 20 14 1 20 0 0 empty empty empty -2 -8 0 10 -1 -3707
-1 0 1;
#X obj 281 163 hsl 20 14 1 20 0 0 empty empty empty -2 -8 0 10 -1 -3707
-1 0 1;
#X obj 281 179 hsl 20 14 1 20 0 0 empty empty empty -2 -8 0 10 -1 -3707
-1 0 1;
#X obj 305 149 hradio 10 1 0 3 empty empty empty 0 -8 0 10 -1 -3707
-1 1;
#X obj 340 147 hsl 45 14 0 127 0 0 empty empty empty -2 -8 0 10 -1
-3707 -1 0 1;
#X obj 392 147 hsl 20 14 0 9 0 0 empty empty empty -2 -8 0 10 -1 -3707
-1 0 1;
#X obj 305 165 hradio 10 1 0 3 empty empty empty 0 -8 0 10 -1 -3707
-1 1;
#X obj 340 163 hsl 45 14 0 127 0 0 empty empty empty -2 -8 0 10 -1
-3707 -1 0 1;
#X obj 392 163 hsl 20 14 0 9 0 0 empty empty empty -2 -8 0 10 -1 -3707
-1 0 1;
#X obj 305 181 hradio 10 1 0 3 empty empty empty 0 -8 0 10 -1 -3707
-1 1;
#X obj 340 179 hsl 45 14 0 127 0 0 empty empty empty -2 -8 0 10 -1
-3707 -1 0 1;
#X obj 392 179 hsl 20 14 0 9 0 0 empty empty empty -2 -8 0 10 -1 -3707
-1 0 1;
#X obj 278 119 cnv 8 8 8 empty empty sat. 0 6 1 9 -1 -3707 0;
#X obj 305 119 cnv 8 8 8 empty empty f.type 0 6 1 9 -1 -3707 0;
#X obj 337 119 cnv 8 8 8 empty empty cut 0 6 1 9 -1 -3707 0;
#X obj 389 119 cnv 8 8 8 empty empty res 0 6 1 9 -1 -3707 0;
#X obj 161 105 cnv 8 50 8 empty empty intel.beat 2 7 1 9 -162280 -1
0;
#X msg 170 49 1;
#X connect 3 0 25 0;
#X connect 3 0 20 0;
#X connect 3 0 13 0;
#X connect 3 0 33 0;
#X connect 3 0 41 0;
#X connect 3 0 48 0;
#X connect 3 0 58 0;
#X connect 3 0 113 0;
#X connect 4 0 88 0;
#X connect 6 0 89 0;
#X connect 7 0 90 0;
#X connect 10 0 4 0;
#X connect 10 0 64 0;
#X connect 10 0 84 0;
#X connect 10 1 4 1;
#X connect 11 0 6 0;
#X connect 11 0 65 0;
#X connect 11 0 85 0;
#X connect 11 1 6 1;
#X connect 12 0 7 0;
#X connect 12 0 66 0;
#X connect 12 0 86 0;
#X connect 12 1 7 1;
#X connect 13 0 26 0;
#X connect 13 0 27 0;
#X connect 13 0 28 0;
#X connect 13 0 29 0;
#X connect 14 0 31 0;
#X connect 14 0 39 0;
#X connect 14 0 46 0;
#X connect 14 0 56 0;
#X connect 16 0 10 2;
#X connect 17 0 11 2;
#X connect 18 0 12 2;
#X connect 19 0 63 2;
#X connect 20 0 16 0;
#X connect 20 0 17 0;
#X connect 20 0 18 0;
#X connect 20 0 19 0;
#X connect 21 0 10 3;
#X connect 22 0 11 3;
#X connect 23 0 12 3;
#X connect 24 0 63 3;
#X connect 25 0 21 0;
#X connect 25 0 22 0;
#X connect 25 0 23 0;
#X connect 25 0 24 0;
#X connect 26 0 10 1;
#X connect 27 0 11 1;
#X connect 28 0 12 1;
#X connect 29 0 63 1;
#X connect 30 0 32 0;
#X connect 30 0 40 0;
#X connect 30 0 47 0;
#X connect 30 0 57 0;
#X connect 31 0 10 0;
#X connect 32 0 10 0;
#X connect 33 0 34 0;
#X connect 34 0 31 1;
#X connect 34 1 32 1;
#X connect 35 0 36 0;
#X connect 36 0 32 1;
#X connect 36 1 31 1;
#X connect 37 0 33 0;
#X connect 37 1 35 0;
#X connect 38 0 37 0;
#X connect 39 0 11 0;
#X connect 40 0 11 0;
#X connect 41 0 42 0;
#X connect 42 0 39 1;
#X connect 42 1 40 1;
#X connect 43 0 44 0;
#X connect 44 0 40 1;
#X connect 44 1 39 1;
#X connect 45 0 41 0;
#X connect 45 1 43 0;
#X connect 46 0 12 0;
#X connect 47 0 12 0;
#X connect 48 0 49 0;
#X connect 49 0 46 1;
#X connect 49 1 47 1;
#X connect 50 0 51 0;
#X connect 51 0 47 1;
#X connect 51 1 46 1;
#X connect 52 0 48 0;
#X connect 52 1 50 0;
#X connect 53 0 45 0;
#X connect 54 0 52 0;
#X connect 55 0 62 0;
#X connect 56 0 63 0;
#X connect 57 0 63 0;
#X connect 58 0 59 0;
#X connect 59 0 56 1;
#X connect 59 1 57 1;
#X connect 60 0 61 0;
#X connect 61 0 57 1;
#X connect 61 1 56 1;
#X connect 62 0 58 0;
#X connect 62 1 60 0;
#X connect 63 0 67 0;
#X connect 63 0 74 0;
#X connect 63 0 87 0;
#X connect 63 1 74 1;
#X connect 74 0 91 0;
#X connect 88 0 5 0;
#X connect 89 0 8 0;
#X connect 90 0 9 0;
#X connect 91 0 75 0;
#X connect 92 0 88 1;
#X connect 93 0 88 4;
#X connect 94 0 88 2;
#X connect 95 0 88 3;
#X connect 96 0 89 1;
#X connect 97 0 90 1;
#X connect 98 0 91 1;
#X connect 99 0 89 4;
#X connect 100 0 89 2;
#X connect 101 0 89 3;
#X connect 102 0 90 4;
#X connect 103 0 90 2;
#X connect 104 0 90 3;
#X connect 105 0 91 4;
#X connect 106 0 91 2;
#X connect 107 0 91 3;
#X connect 113 0 93 0;
#X connect 113 0 99 0;
#X connect 113 0 102 0;
#X connect 113 0 105 0;
#X coords 0 -1 1 1 322 112 1 100 100;
