#N canvas 0 0 1110 445 10;
#X obj 180 58 inlet;
#X obj -32 205 outlet~;
#X obj 26 205 outlet~;
#X obj 83 205 outlet~;
#X obj 138 205 outlet~;
#X obj 192 205 outlet~;
#X obj 246 205 outlet~;
#X obj 300 205 outlet~;
#X obj 356 205 outlet~;
#X obj 412 206 outlet~;
#X obj 467 207 outlet~;
#X obj 521 207 outlet~;
#X obj 576 207 outlet~;
#N canvas 0 0 450 300 unpack~ 0;
#X obj 215 83 r voices;
#X obj 215 108 t b f;
#X obj 227 158 <=;
#X obj 227 182 switch~;
#X obj 215 132 1;
#X obj 121 132 unpack~;
#X obj 121 156 outlet~;
#X obj 121 107 inlet;
#X connect 0 0 1 0;
#X connect 1 0 4 0;
#X connect 1 1 2 1;
#X connect 2 0 3 0;
#X connect 4 0 2 0;
#X connect 5 0 6 0;
#X connect 7 0 5 0;
#X restore 26 145 pd unpack~;
#N canvas 466 117 450 300 unpack~ 0;
#X obj 215 83 r voices;
#X obj 215 108 t b f;
#X obj 227 158 <=;
#X obj 227 182 switch~;
#X obj 215 132 2;
#X obj 121 132 unpack~;
#X obj 122 107 inlet;
#X obj 121 156 outlet~;
#X connect 0 0 1 0;
#X connect 1 0 4 0;
#X connect 1 1 2 1;
#X connect 2 0 3 0;
#X connect 4 0 2 0;
#X connect 5 0 7 0;
#X connect 6 0 5 0;
#X restore 70 165 pd unpack~;
#N canvas 0 0 450 300 unpack~ 0;
#X obj 215 83 r voices;
#X obj 215 108 t b f;
#X obj 227 158 <=;
#X obj 227 182 switch~;
#X obj 215 132 3;
#X obj 121 132 unpack~;
#X obj 122 107 inlet;
#X obj 121 156 outlet~;
#X connect 0 0 1 0;
#X connect 1 0 4 0;
#X connect 1 1 2 1;
#X connect 2 0 3 0;
#X connect 4 0 2 0;
#X connect 5 0 7 0;
#X connect 6 0 5 0;
#X restore 116 145 pd unpack~;
#N canvas 0 0 450 300 unpack~ 0;
#X obj 215 83 r voices;
#X obj 215 108 t b f;
#X obj 227 158 <=;
#X obj 227 182 switch~;
#X obj 215 132 4;
#X obj 121 132 unpack~;
#X obj 121 156 outlet~;
#X obj 122 107 inlet;
#X connect 0 0 1 0;
#X connect 1 0 4 0;
#X connect 1 1 2 1;
#X connect 2 0 3 0;
#X connect 4 0 2 0;
#X connect 5 0 6 0;
#X connect 7 0 5 0;
#X restore 160 165 pd unpack~;
#N canvas 0 0 450 300 unpack~ 0;
#X obj 215 83 r voices;
#X obj 215 108 t b f;
#X obj 227 158 <=;
#X obj 227 182 switch~;
#X obj 215 132 5;
#X obj 121 132 unpack~;
#X obj 122 107 inlet;
#X obj 121 156 outlet~;
#X connect 0 0 1 0;
#X connect 1 0 4 0;
#X connect 1 1 2 1;
#X connect 2 0 3 0;
#X connect 4 0 2 0;
#X connect 5 0 7 0;
#X connect 6 0 5 0;
#X restore 206 145 pd unpack~;
#N canvas 0 0 450 300 unpack~ 0;
#X obj 215 83 r voices;
#X obj 215 108 t b f;
#X obj 227 158 <=;
#X obj 227 182 switch~;
#X obj 215 132 6;
#X obj 121 132 unpack~;
#X obj 122 107 inlet;
#X obj 121 156 outlet~;
#X connect 0 0 1 0;
#X connect 1 0 4 0;
#X connect 1 1 2 1;
#X connect 2 0 3 0;
#X connect 4 0 2 0;
#X connect 5 0 7 0;
#X connect 6 0 5 0;
#X restore 250 165 pd unpack~;
#N canvas 0 0 450 300 unpack~ 0;
#X obj 215 83 r voices;
#X obj 215 108 t b f;
#X obj 227 158 <=;
#X obj 227 182 switch~;
#X obj 215 132 7;
#X obj 121 132 unpack~;
#X obj 121 107 inlet;
#X obj 121 156 outlet~;
#X connect 0 0 1 0;
#X connect 1 0 4 0;
#X connect 1 1 2 1;
#X connect 2 0 3 0;
#X connect 4 0 2 0;
#X connect 5 0 7 0;
#X connect 6 0 5 0;
#X restore 296 145 pd unpack~;
#N canvas 0 0 450 300 unpack~ 0;
#X obj 215 83 r voices;
#X obj 215 108 t b f;
#X obj 227 158 <=;
#X obj 227 182 switch~;
#X obj 215 132 8;
#X obj 121 132 unpack~;
#X obj 122 107 inlet;
#X obj 121 156 outlet~;
#X connect 0 0 1 0;
#X connect 1 0 4 0;
#X connect 1 1 2 1;
#X connect 2 0 3 0;
#X connect 4 0 2 0;
#X connect 5 0 7 0;
#X connect 6 0 5 0;
#X restore 340 165 pd unpack~;
#N canvas 0 0 450 300 unpack~ 0;
#X obj 215 83 r voices;
#X obj 215 108 t b f;
#X obj 227 158 <=;
#X obj 227 182 switch~;
#X obj 215 132 9;
#X obj 121 132 unpack~;
#X obj 122 107 inlet;
#X obj 121 156 outlet~;
#X connect 0 0 1 0;
#X connect 1 0 4 0;
#X connect 1 1 2 1;
#X connect 2 0 3 0;
#X connect 4 0 2 0;
#X connect 5 0 7 0;
#X connect 6 0 5 0;
#X restore 386 145 pd unpack~;
#N canvas 0 0 450 300 unpack~ 0;
#X obj 215 83 r voices;
#X obj 215 108 t b f;
#X obj 227 158 <=;
#X obj 227 182 switch~;
#X obj 215 132 10;
#X obj 121 132 unpack~;
#X obj 122 107 inlet;
#X obj 121 156 outlet~;
#X connect 0 0 1 0;
#X connect 1 0 4 0;
#X connect 1 1 2 1;
#X connect 2 0 3 0;
#X connect 4 0 2 0;
#X connect 5 0 7 0;
#X connect 6 0 5 0;
#X restore 430 165 pd unpack~;
#N canvas 0 0 450 300 unpack~ 0;
#X obj 215 83 r voices;
#X obj 215 108 t b f;
#X obj 227 158 <=;
#X obj 227 182 switch~;
#X obj 215 132 11;
#X obj 121 132 unpack~;
#X obj 122 107 inlet;
#X obj 121 156 outlet~;
#X connect 0 0 1 0;
#X connect 1 0 4 0;
#X connect 1 1 2 1;
#X connect 2 0 3 0;
#X connect 4 0 2 0;
#X connect 5 0 7 0;
#X connect 6 0 5 0;
#X restore 476 145 pd unpack~;
#N canvas 0 0 450 300 unpack~ 0;
#X obj 215 83 r voices;
#X obj 215 108 t b f;
#X obj 227 158 <=;
#X obj 227 182 switch~;
#X obj 215 132 12;
#X obj 121 132 unpack~;
#X obj 122 107 inlet;
#X obj 121 156 outlet~;
#X connect 0 0 1 0;
#X connect 1 0 4 0;
#X connect 1 1 2 1;
#X connect 2 0 3 0;
#X connect 4 0 2 0;
#X connect 5 0 7 0;
#X connect 6 0 5 0;
#X restore 520 165 pd unpack~;
#X obj 704 207 outlet~;
#X obj 703 154 unpack~;
#X obj 179 82 route 1 2 3 4 5 6 7 8 9 10 11 12;
#X text 758 153 <------------- independent single source;
#X text 851 168 always active;
#X connect 0 0 27 0;
#X connect 13 0 1 0;
#X connect 14 0 2 0;
#X connect 15 0 3 0;
#X connect 16 0 4 0;
#X connect 17 0 5 0;
#X connect 18 0 6 0;
#X connect 19 0 7 0;
#X connect 20 0 8 0;
#X connect 21 0 9 0;
#X connect 22 0 10 0;
#X connect 23 0 11 0;
#X connect 24 0 12 0;
#X connect 26 0 25 0;
#X connect 27 0 13 0;
#X connect 27 1 14 0;
#X connect 27 2 15 0;
#X connect 27 3 16 0;
#X connect 27 4 17 0;
#X connect 27 5 18 0;
#X connect 27 6 19 0;
#X connect 27 7 20 0;
#X connect 27 8 21 0;
#X connect 27 9 22 0;
#X connect 27 10 23 0;
#X connect 27 11 24 0;
#X connect 27 12 26 0;
