#N canvas 331 303 450 300 10;
#X obj 149 173 unpack~;
#X obj 148 225 pack~;
#X obj 148 202 *~;
#X obj 149 150 inlet;
#X obj 148 247 outlet;
#X obj 314 150 r voices;
#X obj 314 199 \$1;
#X obj 314 175 t b f;
#X obj 326 225 <=;
#X obj 326 249 switch~;
#X obj 199 174 r~ \$2;
#X connect 0 0 2 0;
#X connect 1 0 4 0;
#X connect 2 0 1 0;
#X connect 3 0 0 0;
#X connect 5 0 7 0;
#X connect 6 0 8 0;
#X connect 7 0 6 0;
#X connect 7 1 8 1;
#X connect 8 0 9 0;
#X connect 10 0 2 1;
