#N canvas 339 22 588 566 10;
#X obj 157 176 dac~ 1 2;
#N canvas 608 166 249 182 ARGOnOff 0;
#X obj 100 100 tgl 18 1 \$0-SendOnOff \$0-ReceiveOnOff On/Off 20 9
0 12 -4033 -1 -1 1 1;
#X obj 99 39 loadbang;
#X msg 99 62 \; pd dsp 1;
#X obj 100 129 outlet;
#X connect 0 0 3 0;
#X connect 1 0 2 0;
#X coords 0 -1 1 1 65 18 2 100 100;
#X restore 136 -207 pd ARGOnOff;
#X obj 136 -182 switch~;
#X obj -332 -232 cnv 15 15 15 empty empty ExMM69e-Chaos-Audio.pd 0
8 1 14 -262144 -66577 0;
#N canvas 413 140 402 279 ARGO 0;
#X obj 101 101 cnv 10 88 41 \$0-A \$0-B empty 20 12 0 14 -1 -1 1.04858e+06
;
#X obj 101 109 nbx 4 12 0 1e+37 0 0 \$0 \$0-ReceiveCpuPeak CPUPeak
42 7 1 10 -24198 -1 -24198 26 256;
#X obj 101 122 nbx 4 12 0 1e+37 0 0 \$0 \$0-ReceiveCpuMean CPUMean
42 7 1 10 -24198 -1 -24198 25.41 256;
#X text 141 83 5 3 2009;
#X obj 145 -55 cputime;
#X obj 145 -76 t b b;
#X text 188 24 (c) musil@iem.kug.ac.at;
#X text 230 37 IEM KUG;
#X text 78 18 CPU-load;
#X obj 144 -125 loadbang;
#X text 205 48 graz \, austria 2001;
#X obj 145 -100 metro 500;
#X obj 145 -34 * 0.2;
#X text 237 -88 -dsp-load in %;
#X text 228 -101 measure average- and peak-;
#X obj 37 18 * 100;
#X obj 37 63 int;
#X obj 37 41 + 0.499;
#X obj 37 86 * 0.01;
#N canvas 524 162 422 273 1p1zmodif 0;
#X text 134 89 (c) musil@iem.kug.ac.at;
#X text 179 99 IEM KUG;
#X obj 14 195 +;
#X text 151 108 graz \, austria 2001;
#X text 135 71 y[n] = a0*x[n] + a1*x[n-1] + b1*y[n-1];
#X text 18 13 x[n];
#X text 16 244 y[n];
#X text 84 111 y[n-1];
#X text 134 56 <float> control-IIR-filter 1.order;
#X obj 15 28 inlet;
#X obj 14 228 outlet;
#X obj 15 112 * 0.1;
#X obj 59 156 * 0.9;
#X text 139 144 a1 = 0;
#X text 139 155 b1 = 0.9;
#X text 139 133 a0 = 0.1;
#X obj 15 50 t f b;
#X text 135 40 Inspiré de 1p1z;
#X obj 59 112 f 0;
#X connect 2 0 10 0;
#X connect 2 0 18 1;
#X connect 9 0 16 0;
#X connect 11 0 2 0;
#X connect 12 0 2 1;
#X connect 16 0 11 0;
#X connect 16 1 18 0;
#X connect 18 0 12 0;
#X restore 37 -8 pd 1p1zmodif;
#X text 146 9 Inspiré de 5.reference/iemabs/help-dsp.pd;
#X connect 4 0 12 0;
#X connect 5 0 4 0;
#X connect 5 1 4 1;
#X connect 9 0 11 0;
#X connect 11 0 5 0;
#X connect 12 0 19 0;
#X connect 12 0 1 0;
#X connect 15 0 17 0;
#X connect 16 0 18 0;
#X connect 17 0 16 0;
#X connect 18 0 2 0;
#X connect 19 0 15 0;
#X coords 0 -1 1 1 90 43 1 100 100;
#X restore -298 66 pd ARGO;
#X text -257 -193 Change ->;
#N canvas 377 44 379 272 ARGO 0;
#X obj 101 101 cnv 20 130 31 empty ColorForm Chaos 88 8 1 14 -188398
-1 1.04858e+06;
#X obj 101 128 cnv 4 10 4 empty empty empty 20 12 0 14 -1 -66577 0
;
#X obj 87 74 inlet~;
#X obj 101 101 cnv 4 10 4 empty empty empty 20 12 0 14 -1 -66577 0
;
#X obj 34 245 outlet~;
#X obj 103 115 hsl 127 12 3 4 1 1 \$0-A ColorForm P=3.769 0 7 1 9 -208064
-1 -1 10000 0;
#X obj 160 42 cnv 15 60 30 empty empty empty 20 12 0 14 -24198 -66577
0;
#N canvas 344 68 455 194 Help 0;
#X text 34 27 n+1;
#X text 104 27 n;
#X text 157 27 n;
#X text 61 22 = P * X * (1 - X );
#X text 12 21 - X;
#X text 11 45 - Voir ->;
#X text 13 113 - Voir ->;
#X text 191 21 chaotique si 0 < X < 1 et 3.57 < P < 4;
#X text 11 73 - En faisant varier P de 3 à 4 \, on passe d'une oscillation
régulière \, stable \, à une variation chaotique... La limite est P
= 3.57. C'est le "scénario de Feigenbaum".;
#X text 20 152 Contrairement à sa version précédente \, ce MM peut
être présent à 2 exemplaires dans un même patch.;
#X obj 72 46 pddplink http://fr.wikipedia.org/wiki/Image:Diagramme_de_bifurcation.png
;
#X obj 73 115 pddplink http://fr.wikipedia.org/wiki/Théorie_du_chaos
;
#X obj 75 129 pddplink http://en.wikipedia.org/wiki/Chaos_theory;
#X restore 167 49 pd Help;
#X msg -102 126 label \$1;
#X obj -102 104 tosymbol;
#X obj -102 82 sprintf P=%s;
#X obj -103 59 expr (int(1000 * $f1) / 1000) \;;
#X obj 34 198 samphold~;
#N canvas 786 433 252 239 Chaos 0;
#X obj 57 26 inlet~;
#X obj 78 169 outlet~;
#X obj 93 90 *~;
#X obj 77 119 *~;
#X obj 40 67 -~ 1;
#X obj 39 90 *~ -1;
#X obj 139 26 inlet;
#X obj 77 144 clip~ 0.001 0.999;
#X text 152 7 P;
#X text 73 7 X;
#X text 41 187 P * X * (1 - X);
#X text 9 145 0 < X < 1;
#X connect 0 0 2 0;
#X connect 0 0 4 0;
#X connect 2 0 3 1;
#X connect 3 0 7 0;
#X connect 4 0 5 0;
#X connect 5 0 3 0;
#X connect 6 0 2 1;
#X connect 7 0 1 0;
#X restore 35 176 pd Chaos;
#X obj 34 224 -~ 0.5;
#X obj -82 171 zexy/pack~;
#X obj -82 202 zexy/unpack~;
#X text 103 181 Astuce pack~ + unpack~ pour;
#X text 104 192 reboucler l'audio;
#X text 138 84 15 3 2011;
#X obj 220 229 cnv 15 41 30 empty empty empty 20 12 0 14 -24198 -66577
0;
#N canvas 350 196 308 136 ?? 0;
#X obj -9 87 cnv 15 300 38 empty empty empty 20 12 0 14 -224896 -66577
0;
#X obj -9 10 cnv 18 300 70 empty empty ARGOPdMiniModules 1 10 1 14
-4033 -1 1.04858e+06;
#X obj 9 29 cnv 10 10 10 empty empty Gerard 0 5 1 9 -4033 -1 1.04858e+06
;
#X obj 40 29 cnv 10 10 10 empty empty Paresys 0 5 1 9 -4033 -1 1.04858e+06
;
#X text -8 89 Construit sous / Build under Pd 0.42.5-extended;
#X obj 39 105 pddplink http://puredata.info/downloads;
#X obj 3 42 pddplink http://pagesperso-orange.fr/Paresys/ARGOPd/;
#X obj 3 57 pddplink http://gerard.paresys.free.fr/ARGOPd/;
#X restore 224 236 pd ??;
#X connect 2 0 12 1;
#X connect 5 0 11 0;
#X connect 5 0 13 1;
#X connect 8 0 5 0;
#X connect 9 0 8 0;
#X connect 10 0 9 0;
#X connect 11 0 10 0;
#X connect 12 0 14 0;
#X connect 12 0 15 0;
#X connect 13 0 12 0;
#X connect 14 0 4 0;
#X connect 15 0 16 0;
#X connect 16 0 13 0;
#X coords 0 -1 1 1 132 33 1 100 100;
#X restore -193 -157 pd ARGO;
#N canvas 678 30 375 375 ARGO 0;
#X obj 101 101 cnv 20 244 34 empty ColorTime empty 20 12 0 14 -208064
-1 1.04858e+06;
#X obj 110 341 outlet~;
#X obj 194 104 cnv 10 65 10 empty ColorTime Oscill 1 5 1 14 -208064
-1 1.04858e+06;
#X obj 231 104 cnv 10 10 10 empty ColorTime Tri/Rectangle 1 5 1 14
-208064 -1 1.04858e+06;
#X obj 101 131 cnv 4 10 4 empty empty empty 20 12 0 14 -1 -66577 0
;
#X obj 101 101 cnv 4 10 4 empty empty empty 20 12 0 14 -1728 -66577
0;
#X obj 163 341 outlet~;
#X obj 335 131 cnv 4 10 4 empty empty empty 0 0 0 9 -1 -66577 0;
#X obj 92 154 phasor~;
#X obj 167 187 -~ 0.5;
#X obj 251 237 -~ 0.5;
#X obj 256 267 *~;
#X obj 268 292 +~ 0.125;
#X obj 217 341 outlet~;
#X obj 251 215 expr~ $v1 < 0;
#X obj 110 316 *~ 2;
#X obj 164 315 *~ -2;
#X obj 218 316 *~ 2;
#X obj 268 316 *~ 8;
#X obj 268 341 outlet~;
#X obj 256 131 cnv 4 10 4 empty empty empty 0 0 0 9 -1 -66577 0;
#X obj 177 131 cnv 4 10 4 empty empty empty 0 0 0 9 -1 -66577 0;
#X text 84 134 Ramp up;
#X text 155 135 Ramp down;
#X text 233 136 Rectangle;
#X text 313 136 Triangle;
#X obj 100 106 nbx 7 12 0 20000 0 1 \$0-A ColorTime Hz 60 7 1 9 -208064
-1 -1 6.875 256;
#X obj 87 26 inlet~;
#X obj 103 118 hsl 241 12 0 1 0 0 \$0-A ColorTime empty 0 7 1 9 -262144
-1 -1 10500 0;
#X obj 103 118 hsl 241 12 0 1 0 0 \$0-A ColorTime A-3 0 7 1 9 -208064
-1728 -1 11493 0;
#X obj 72 236 cnv 15 41 30 empty empty empty 20 12 0 14 -24198 -66577
0;
#N canvas 350 196 381 103 ? 0;
#X obj 5 49 cnv 15 370 38 empty empty empty 20 12 0 14 -224896 -66577
0;
#X text 6 65 Voir/Look at: http://puredata.info/downloads;
#X obj 4 12 cnv 18 370 30 empty empty ARGOPdMiniModules 1 10 1 14 -4033
-1 1.04858e+06;
#X obj 7 31 cnv 10 10 10 empty empty Gerard 0 5 1 9 -4033 -1 1.04858e+06
;
#X obj 38 31 cnv 10 10 10 empty empty Paresys 0 5 1 9 -4033 -1 1.04858e+06
;
#X obj 175 20 cnv 10 10 10 empty empty http://pagesperso-orange.fr/Paresys/ARGOPd/
0 5 1 9 -4033 -1 1.04858e+06;
#X obj 175 31 cnv 10 10 10 empty empty http://gerard.paresys.free.fr/ARGOPd/
0 5 1 9 -4033 -1 1.04858e+06;
#X text 6 51 Construit sous / Build under Pd 0.41.4-extended;
#X restore 78 243 pd ?;
#X obj 70 193 cnv 15 60 30 empty empty empty 20 12 0 14 -24198 -66577
0;
#N canvas 161 113 425 238 Help 0;
#X obj 8 85 cnv 15 400 100 empty empty empty 20 12 0 14 -233017 -66577
0;
#X text 12 87 Citation;
#X text 10 45 Sensibilitée de l'entrée de contrôle de la fréquence:
;
#X text 10 57 1 = 240 1/2 ton = 20 octaves;
#X text 11 19 Oscillateur sinusoïdal;
#X text 21 103 The phasor~ object outputs a sawtooth signal...;
#X restore 77 199 pd Help;
#X text 196 62 2 HSLIDER superposés;
#X text 220 51 ATTENTION;
#N canvas 686 258 344 337 Freq-v7-sig- 0;
#X obj 226 11 ftom;
#X obj 279 170 mtof;
#X obj 141 95 +~;
#X obj 9 142 snapshot~;
#X obj 9 164 change;
#X msg 9 189 set \$1;
#X obj 142 198 clip~ 0 20000;
#X obj 142 175 mtof~;
#X obj 142 227 outlet~;
#X obj 280 -12 inlet;
#X obj 225 -13 inlet;
#X obj 38 227 outlet;
#X obj 279 227 outlet;
#X text 35 245 Hslider;
#X obj 141 -8 inlet~;
#X obj 8 -9 loadbang;
#X obj 229 227 outlet;
#X obj 279 109 * 240;
#X obj 279 132 - 108;
#X obj 141 123 *~ 240;
#X obj 141 145 -~ 108;
#X obj 226 34 + 108;
#X obj 226 56 / 240;
#X obj 9 40 metro 200;
#X obj 64 -9 r SendFluid;
#X text 44 256 Over;
#X text 281 245 Number;
#X text 222 -30 Number;
#X text 228 244 Hslider;
#X text 230 255 Under;
#X text 281 -42 Hslider;
#X text 286 -31 Under;
#X msg 229 197 set \$1;
#N canvas 618 373 489 317 pitchb 0;
#X obj 70 111 mod 12;
#X obj 70 135 sel 0 1 2 3 4 5 6 7 8 9 10 11;
#X msg 246 170 A;
#X msg 300 170 B;
#X msg 192 170 G;
#X msg 3 170 C;
#X msg 57 170 D;
#X msg 111 170 E;
#X msg 138 170 F;
#X obj 204 1 inlet;
#X obj 329 115 div 12;
#X obj 204 79 t f f;
#X text 334 190 -> Numero de l'octave;
#X text 213 64 -> Numero MIDI de la note (69 = A3 = 440Hz);
#X msg 260 260 label \$1;
#X obj 260 283 outlet;
#X msg 30 170 Db;
#X msg 84 170 Eb;
#X msg 165 170 Gb;
#X msg 219 170 Ab;
#X msg 273 170 Bb;
#X text 369 78 (70 = A#3 = Bb3);
#X obj 260 238 symbol;
#X obj 260 213 sprintf %s%d;
#X text 11 231 Impossible d'afficher # dans un label;
#X text 11 243 donc j'affiche b;
#X obj 204 51 int;
#X text 255 23 -> pour corriger certaines erreurs de calcul;
#X obj 204 25 + 120.1;
#X obj 329 144 - 12;
#X text 255 35 et le pb du passage a zero de mod 12;
#X connect 0 0 1 0;
#X connect 1 0 5 0;
#X connect 1 1 16 0;
#X connect 1 2 6 0;
#X connect 1 3 17 0;
#X connect 1 4 7 0;
#X connect 1 5 8 0;
#X connect 1 6 18 0;
#X connect 1 7 4 0;
#X connect 1 8 19 0;
#X connect 1 9 2 0;
#X connect 1 10 20 0;
#X connect 1 11 3 0;
#X connect 2 0 23 0;
#X connect 3 0 23 0;
#X connect 4 0 23 0;
#X connect 5 0 23 0;
#X connect 6 0 23 0;
#X connect 7 0 23 0;
#X connect 8 0 23 0;
#X connect 9 0 28 0;
#X connect 10 0 29 0;
#X connect 11 0 0 0;
#X connect 11 1 10 0;
#X connect 14 0 15 0;
#X connect 16 0 23 0;
#X connect 17 0 23 0;
#X connect 18 0 23 0;
#X connect 19 0 23 0;
#X connect 20 0 23 0;
#X connect 22 0 14 0;
#X connect 23 0 22 0;
#X connect 26 0 11 0;
#X connect 28 0 26 0;
#X connect 29 0 23 1;
#X restore 77 96 pd pitchb;
#X connect 0 0 21 0;
#X connect 0 0 33 0;
#X connect 1 0 12 0;
#X connect 2 0 3 0;
#X connect 2 0 19 0;
#X connect 3 0 4 0;
#X connect 4 0 5 0;
#X connect 5 0 11 0;
#X connect 6 0 8 0;
#X connect 7 0 6 0;
#X connect 9 0 17 0;
#X connect 10 0 0 0;
#X connect 14 0 2 0;
#X connect 15 0 23 0;
#X connect 17 0 18 0;
#X connect 18 0 1 0;
#X connect 19 0 20 0;
#X connect 20 0 7 0;
#X connect 21 0 22 0;
#X connect 22 0 2 1;
#X connect 22 0 32 0;
#X connect 23 0 3 0;
#X connect 24 0 23 1;
#X connect 32 0 16 0;
#X connect 33 0 11 0;
#X restore 62 63 pd Freq-v7-sig-;
#X text 280 81 29 11 2009;
#X connect 8 0 9 0;
#X connect 9 0 15 0;
#X connect 9 0 16 0;
#X connect 9 0 11 0;
#X connect 9 0 14 0;
#X connect 10 0 11 1;
#X connect 10 0 17 0;
#X connect 11 0 12 0;
#X connect 12 0 18 0;
#X connect 14 0 10 0;
#X connect 15 0 1 0;
#X connect 16 0 6 0;
#X connect 17 0 13 0;
#X connect 18 0 19 0;
#X connect 26 0 36 1;
#X connect 27 0 36 0;
#X connect 28 0 36 2;
#X connect 36 0 29 0;
#X connect 36 1 8 0;
#X connect 36 2 28 0;
#X connect 36 3 26 0;
#X coords 0 -1 1 1 246 36 1 100 100;
#X restore -193 -208 pd ARGO;
#N canvas 162 72 308 371 ARGO 0;
#X obj 101 101 cnv 20 104 34 empty ColorAmpli empty 20 12 0 14 -261299
-1 1.04858e+06;
#X obj 85 278 outlet~;
#X obj 134 104 cnv 10 20 10 empty ColorAmpli Ampli 1 5 1 14 -261299
-1 1.04858e+06;
#X obj 86 -69 inlet~;
#X obj 85 253 *~;
#X obj 103 118 hsl 101 12 0 1.25 0 1 \$0-A ColorAmpli -22dB 0 7 1 9
-261299 -1 -1 5800 0;
#X msg 134 75 label \$1;
#X obj 133 52 tosymbol;
#X obj 134 -47 * 80;
#X obj 134 -25 - 80;
#X obj 133 17 sprintf %ddB;
#X obj 101 101 cnv 4 10 4 empty empty empty 20 12 0 14 -1 -66577 0
;
#X obj 101 131 cnv 4 10 4 empty empty empty 20 12 0 14 -1 -66577 0
;
#X text 142 34 -> -80dB..20dB;
#X text 139 -2 -> -80 .. 20;
#X text 109 203 -> 1..100000;
#X text 109 237 -> 0.0001..10 = -80dB..20dB;
#X obj 20 103 cnv 15 41 30 empty empty empty 20 12 0 14 -24198 -66577
0;
#N canvas 363 389 381 103 ? 0;
#X obj 5 49 cnv 15 370 38 empty empty empty 20 12 0 14 -224896 -66577
0;
#X text 6 65 Voir/Look at: http://puredata.info/downloads;
#X obj 4 12 cnv 18 370 30 empty empty ARGOPdMiniModules 1 10 1 14 -4033
-1 1.04858e+06;
#X obj 7 31 cnv 10 10 10 empty empty Gerard 0 5 1 9 -4033 -1 1.04858e+06
;
#X obj 38 31 cnv 10 10 10 empty empty Paresys 0 5 1 9 -4033 -1 1.04858e+06
;
#X obj 175 20 cnv 10 10 10 empty empty http://pagesperso-orange.fr/Paresys/ARGOPd/
0 5 1 9 -4033 -1 1.04858e+06;
#X obj 175 31 cnv 10 10 10 empty empty http://gerard.paresys.free.fr/ARGOPd/
0 5 1 9 -4033 -1 1.04858e+06;
#X text 6 51 Construit sous / Build under Pd 0.41.4-extended;
#X restore 26 110 pd ?;
#X obj 100 143 t b f;
#X msg 100 166 10000;
#X obj 100 189 pow;
#X obj 100 221 / 10000;
#X text 209 97 13 3 2010;
#X text 142 153 -> 0 .. 1.2;
#X connect 3 0 4 0;
#X connect 4 0 1 0;
#X connect 5 0 8 0;
#X connect 5 0 19 0;
#X connect 6 0 5 0;
#X connect 7 0 6 0;
#X connect 8 0 9 0;
#X connect 9 0 10 0;
#X connect 10 0 7 0;
#X connect 19 0 20 0;
#X connect 19 1 21 1;
#X connect 20 0 21 0;
#X connect 21 0 22 0;
#X connect 22 0 4 1;
#X coords 0 -1 1 1 106 36 1 100 100;
#X restore -128 -112 pd ARGO;
#N canvas 678 30 375 375 ARGO 0;
#X obj 101 101 cnv 20 244 34 empty ColorTime empty 20 12 0 14 -208064
-1 1.04858e+06;
#X obj 110 341 outlet~;
#X obj 194 104 cnv 10 65 10 empty ColorTime Oscill 1 5 1 14 -208064
-1 1.04858e+06;
#X obj 231 104 cnv 10 10 10 empty ColorTime Tri/Rectangle 1 5 1 14
-208064 -1 1.04858e+06;
#X obj 101 131 cnv 4 10 4 empty empty empty 20 12 0 14 -1 -66577 0
;
#X obj 101 101 cnv 4 10 4 empty empty empty 20 12 0 14 -1728 -66577
0;
#X obj 163 341 outlet~;
#X obj 335 131 cnv 4 10 4 empty empty empty 0 0 0 9 -1 -66577 0;
#X obj 92 154 phasor~;
#X obj 167 187 -~ 0.5;
#X obj 251 237 -~ 0.5;
#X obj 256 267 *~;
#X obj 268 292 +~ 0.125;
#X obj 217 341 outlet~;
#X obj 251 215 expr~ $v1 < 0;
#X obj 110 316 *~ 2;
#X obj 164 315 *~ -2;
#X obj 218 316 *~ 2;
#X obj 268 316 *~ 8;
#X obj 268 341 outlet~;
#X obj 256 131 cnv 4 10 4 empty empty empty 0 0 0 9 -1 -66577 0;
#X obj 177 131 cnv 4 10 4 empty empty empty 0 0 0 9 -1 -66577 0;
#X text 84 134 Ramp up;
#X text 155 135 Ramp down;
#X text 233 136 Rectangle;
#X text 313 136 Triangle;
#X obj 100 106 nbx 7 12 0 20000 0 1 \$0-A ColorTime Hz 60 7 1 9 -208064
-1 -1 2217.46 256;
#X obj 87 26 inlet~;
#X obj 103 118 hsl 241 12 0 1 0 0 \$0-A ColorTime empty 0 7 1 9 -262144
-1 -1 20500 0;
#X obj 103 118 hsl 241 12 0 1 0 0 \$0-A ColorTime Db6 0 7 1 9 -208064
-1728 -1 20300 0;
#X obj 72 236 cnv 15 41 30 empty empty empty 20 12 0 14 -24198 -66577
0;
#N canvas 350 196 381 103 ? 0;
#X obj 5 49 cnv 15 370 38 empty empty empty 20 12 0 14 -224896 -66577
0;
#X text 6 65 Voir/Look at: http://puredata.info/downloads;
#X obj 4 12 cnv 18 370 30 empty empty ARGOPdMiniModules 1 10 1 14 -4033
-1 1.04858e+06;
#X obj 7 31 cnv 10 10 10 empty empty Gerard 0 5 1 9 -4033 -1 1.04858e+06
;
#X obj 38 31 cnv 10 10 10 empty empty Paresys 0 5 1 9 -4033 -1 1.04858e+06
;
#X obj 175 20 cnv 10 10 10 empty empty http://pagesperso-orange.fr/Paresys/ARGOPd/
0 5 1 9 -4033 -1 1.04858e+06;
#X obj 175 31 cnv 10 10 10 empty empty http://gerard.paresys.free.fr/ARGOPd/
0 5 1 9 -4033 -1 1.04858e+06;
#X text 6 51 Construit sous / Build under Pd 0.41.4-extended;
#X restore 78 243 pd ?;
#X obj 70 193 cnv 15 60 30 empty empty empty 20 12 0 14 -24198 -66577
0;
#N canvas 161 113 425 238 Help 0;
#X obj 8 85 cnv 15 400 100 empty empty empty 20 12 0 14 -233017 -66577
0;
#X text 12 87 Citation;
#X text 10 45 Sensibilitée de l'entrée de contrôle de la fréquence:
;
#X text 10 57 1 = 240 1/2 ton = 20 octaves;
#X text 11 19 Oscillateur sinusoïdal;
#X text 21 103 The phasor~ object outputs a sawtooth signal...;
#X restore 77 199 pd Help;
#X text 196 62 2 HSLIDER superposés;
#X text 220 51 ATTENTION;
#N canvas 686 258 344 337 Freq-v7-sig- 0;
#X obj 226 11 ftom;
#X obj 279 170 mtof;
#X obj 141 95 +~;
#X obj 9 142 snapshot~;
#X obj 9 164 change;
#X msg 9 189 set \$1;
#X obj 142 198 clip~ 0 20000;
#X obj 142 175 mtof~;
#X obj 142 227 outlet~;
#X obj 280 -12 inlet;
#X obj 225 -13 inlet;
#X obj 38 227 outlet;
#X obj 279 227 outlet;
#X text 35 245 Hslider;
#X obj 141 -8 inlet~;
#X obj 8 -9 loadbang;
#X obj 229 227 outlet;
#X obj 279 109 * 240;
#X obj 279 132 - 108;
#X obj 141 123 *~ 240;
#X obj 141 145 -~ 108;
#X obj 226 34 + 108;
#X obj 226 56 / 240;
#X obj 9 40 metro 200;
#X obj 64 -9 r SendFluid;
#X text 44 256 Over;
#X text 281 245 Number;
#X text 222 -30 Number;
#X text 228 244 Hslider;
#X text 230 255 Under;
#X text 281 -42 Hslider;
#X text 286 -31 Under;
#X msg 229 197 set \$1;
#N canvas 618 373 489 317 pitchb 0;
#X obj 70 111 mod 12;
#X obj 70 135 sel 0 1 2 3 4 5 6 7 8 9 10 11;
#X msg 246 170 A;
#X msg 300 170 B;
#X msg 192 170 G;
#X msg 3 170 C;
#X msg 57 170 D;
#X msg 111 170 E;
#X msg 138 170 F;
#X obj 204 1 inlet;
#X obj 329 115 div 12;
#X obj 204 79 t f f;
#X text 334 190 -> Numero de l'octave;
#X text 213 64 -> Numero MIDI de la note (69 = A3 = 440Hz);
#X msg 260 260 label \$1;
#X obj 260 283 outlet;
#X msg 30 170 Db;
#X msg 84 170 Eb;
#X msg 165 170 Gb;
#X msg 219 170 Ab;
#X msg 273 170 Bb;
#X text 369 78 (70 = A#3 = Bb3);
#X obj 260 238 symbol;
#X obj 260 213 sprintf %s%d;
#X text 11 231 Impossible d'afficher # dans un label;
#X text 11 243 donc j'affiche b;
#X obj 204 51 int;
#X text 255 23 -> pour corriger certaines erreurs de calcul;
#X obj 204 25 + 120.1;
#X obj 329 144 - 12;
#X text 255 35 et le pb du passage a zero de mod 12;
#X connect 0 0 1 0;
#X connect 1 0 5 0;
#X connect 1 1 16 0;
#X connect 1 2 6 0;
#X connect 1 3 17 0;
#X connect 1 4 7 0;
#X connect 1 5 8 0;
#X connect 1 6 18 0;
#X connect 1 7 4 0;
#X connect 1 8 19 0;
#X connect 1 9 2 0;
#X connect 1 10 20 0;
#X connect 1 11 3 0;
#X connect 2 0 23 0;
#X connect 3 0 23 0;
#X connect 4 0 23 0;
#X connect 5 0 23 0;
#X connect 6 0 23 0;
#X connect 7 0 23 0;
#X connect 8 0 23 0;
#X connect 9 0 28 0;
#X connect 10 0 29 0;
#X connect 11 0 0 0;
#X connect 11 1 10 0;
#X connect 14 0 15 0;
#X connect 16 0 23 0;
#X connect 17 0 23 0;
#X connect 18 0 23 0;
#X connect 19 0 23 0;
#X connect 20 0 23 0;
#X connect 22 0 14 0;
#X connect 23 0 22 0;
#X connect 26 0 11 0;
#X connect 28 0 26 0;
#X connect 29 0 23 1;
#X restore 77 96 pd pitchb;
#X connect 0 0 21 0;
#X connect 0 0 33 0;
#X connect 1 0 12 0;
#X connect 2 0 3 0;
#X connect 2 0 19 0;
#X connect 3 0 4 0;
#X connect 4 0 5 0;
#X connect 5 0 11 0;
#X connect 6 0 8 0;
#X connect 7 0 6 0;
#X connect 9 0 17 0;
#X connect 10 0 0 0;
#X connect 14 0 2 0;
#X connect 15 0 23 0;
#X connect 17 0 18 0;
#X connect 18 0 1 0;
#X connect 19 0 20 0;
#X connect 20 0 7 0;
#X connect 21 0 22 0;
#X connect 22 0 2 1;
#X connect 22 0 32 0;
#X connect 23 0 3 0;
#X connect 24 0 23 1;
#X connect 32 0 16 0;
#X connect 33 0 11 0;
#X restore 62 63 pd Freq-v7-sig-;
#X text 280 81 29 11 2009;
#X connect 8 0 9 0;
#X connect 9 0 15 0;
#X connect 9 0 16 0;
#X connect 9 0 11 0;
#X connect 9 0 14 0;
#X connect 10 0 11 1;
#X connect 10 0 17 0;
#X connect 11 0 12 0;
#X connect 12 0 18 0;
#X connect 14 0 10 0;
#X connect 15 0 1 0;
#X connect 16 0 6 0;
#X connect 17 0 13 0;
#X connect 18 0 19 0;
#X connect 26 0 36 1;
#X connect 27 0 36 0;
#X connect 28 0 36 2;
#X connect 36 0 29 0;
#X connect 36 1 8 0;
#X connect 36 2 28 0;
#X connect 36 3 26 0;
#X coords 0 -1 1 1 246 36 1 100 100;
#X restore -128 -38 pd ARGO;
#X obj 200 264 cnv 15 41 30 empty empty empty 20 12 0 14 -24198 -66577
0;
#N canvas 350 196 308 136 ?? 0;
#X obj -9 87 cnv 15 300 38 empty empty empty 20 12 0 14 -224896 -66577
0;
#X obj -9 10 cnv 18 300 70 empty empty ARGOPdMiniModules 1 10 1 14
-4033 -1 1.04858e+06;
#X obj 9 29 cnv 10 10 10 empty empty Gerard 0 5 1 9 -4033 -1 1.04858e+06
;
#X obj 40 29 cnv 10 10 10 empty empty Paresys 0 5 1 9 -4033 -1 1.04858e+06
;
#X text -8 89 Construit sous / Build under Pd 0.42.5-extended;
#X obj 39 105 pddplink http://puredata.info/downloads;
#X obj 3 42 pddplink http://pagesperso-orange.fr/Paresys/ARGOPd/;
#X obj 3 57 pddplink http://gerard.paresys.free.fr/ARGOPd/;
#X restore 204 271 pd ??;
#X text -265 209 n+1;
#X text -195 209 n;
#X text -142 209 n;
#X text -238 204 = P * X * (1 - X );
#X text -287 203 - X;
#X text -288 227 - Voir ->;
#X text -286 295 - Voir ->;
#X text -108 203 chaotique si 0 < X < 1 et 3.57 < P < 4;
#X text -288 255 - En faisant varier P de 3 à 4 \, on passe d'une oscillation
régulière \, stable \, à une variation chaotique... La limite est P
= 3.57. C'est le "scénario de Feigenbaum".;
#X obj -226 297 pddplink http://fr.wikipedia.org/wiki/Théorie_du_chaos
;
#X obj -224 311 pddplink http://en.wikipedia.org/wiki/Chaos_theory
;
#N canvas 377 44 379 272 ARGO 0;
#X obj 101 101 cnv 20 130 31 empty ColorForm Chaos 88 8 1 14 -188398
-1 1.04858e+06;
#X obj 101 128 cnv 4 10 4 empty empty empty 20 12 0 14 -1 -66577 0
;
#X obj 87 74 inlet~;
#X obj 101 101 cnv 4 10 4 empty empty empty 20 12 0 14 -1 -66577 0
;
#X obj 34 245 outlet~;
#X obj 103 115 hsl 127 12 3 4 1 1 \$0-A ColorForm P=3.675 0 7 1 9 -208064
-1 -1 8900 0;
#X obj 160 42 cnv 15 60 30 empty empty empty 20 12 0 14 -24198 -66577
0;
#N canvas 344 68 455 194 Help 0;
#X text 34 27 n+1;
#X text 104 27 n;
#X text 157 27 n;
#X text 61 22 = P * X * (1 - X );
#X text 12 21 - X;
#X text 11 45 - Voir ->;
#X text 13 113 - Voir ->;
#X text 191 21 chaotique si 0 < X < 1 et 3.57 < P < 4;
#X text 11 73 - En faisant varier P de 3 à 4 \, on passe d'une oscillation
régulière \, stable \, à une variation chaotique... La limite est P
= 3.57. C'est le "scénario de Feigenbaum".;
#X text 20 152 Contrairement à sa version précédente \, ce MM peut
être présent à 2 exemplaires dans un même patch.;
#X obj 72 46 pddplink http://fr.wikipedia.org/wiki/Image:Diagramme_de_bifurcation.png
;
#X obj 73 115 pddplink http://fr.wikipedia.org/wiki/Théorie_du_chaos
;
#X obj 75 129 pddplink http://en.wikipedia.org/wiki/Chaos_theory;
#X restore 167 49 pd Help;
#X msg -102 126 label \$1;
#X obj -102 104 tosymbol;
#X obj -102 82 sprintf P=%s;
#X obj -103 59 expr (int(1000 * $f1) / 1000) \;;
#X obj 34 198 samphold~;
#N canvas 786 433 252 239 Chaos 0;
#X obj 57 26 inlet~;
#X obj 78 169 outlet~;
#X obj 93 90 *~;
#X obj 77 119 *~;
#X obj 40 67 -~ 1;
#X obj 39 90 *~ -1;
#X obj 139 26 inlet;
#X obj 77 144 clip~ 0.001 0.999;
#X text 152 7 P;
#X text 73 7 X;
#X text 41 187 P * X * (1 - X);
#X text 9 145 0 < X < 1;
#X connect 0 0 2 0;
#X connect 0 0 4 0;
#X connect 2 0 3 1;
#X connect 3 0 7 0;
#X connect 4 0 5 0;
#X connect 5 0 3 0;
#X connect 6 0 2 1;
#X connect 7 0 1 0;
#X restore 35 176 pd Chaos;
#X obj 34 224 -~ 0.5;
#X obj -82 171 zexy/pack~;
#X obj -82 202 zexy/unpack~;
#X text 103 181 Astuce pack~ + unpack~ pour;
#X text 104 192 reboucler l'audio;
#X text 138 84 15 3 2011;
#X obj 220 229 cnv 15 41 30 empty empty empty 20 12 0 14 -24198 -66577
0;
#N canvas 350 196 308 136 ?? 0;
#X obj -9 87 cnv 15 300 38 empty empty empty 20 12 0 14 -224896 -66577
0;
#X obj -9 10 cnv 18 300 70 empty empty ARGOPdMiniModules 1 10 1 14
-4033 -1 1.04858e+06;
#X obj 9 29 cnv 10 10 10 empty empty Gerard 0 5 1 9 -4033 -1 1.04858e+06
;
#X obj 40 29 cnv 10 10 10 empty empty Paresys 0 5 1 9 -4033 -1 1.04858e+06
;
#X text -8 89 Construit sous / Build under Pd 0.42.5-extended;
#X obj 39 105 pddplink http://puredata.info/downloads;
#X obj 3 42 pddplink http://pagesperso-orange.fr/Paresys/ARGOPd/;
#X obj 3 57 pddplink http://gerard.paresys.free.fr/ARGOPd/;
#X restore 224 236 pd ??;
#X connect 2 0 12 1;
#X connect 5 0 11 0;
#X connect 5 0 13 1;
#X connect 8 0 5 0;
#X connect 9 0 8 0;
#X connect 10 0 9 0;
#X connect 11 0 10 0;
#X connect 12 0 14 0;
#X connect 12 0 15 0;
#X connect 13 0 12 0;
#X connect 14 0 4 0;
#X connect 15 0 16 0;
#X connect 16 0 13 0;
#X coords 0 -1 1 1 132 33 1 100 100;
#X restore -332 -156 pd ARGO;
#N canvas 162 72 308 371 ARGO 0;
#X obj 101 101 cnv 20 104 34 empty ColorAmpli empty 20 12 0 14 -261299
-1 1.04858e+06;
#X obj 85 278 outlet~;
#X obj 134 104 cnv 10 20 10 empty ColorAmpli Ampli 1 5 1 14 -261299
-1 1.04858e+06;
#X obj 86 -69 inlet~;
#X obj 85 253 *~;
#X obj 103 118 hsl 101 12 0 1.25 0 1 \$0-A ColorAmpli -13dB 0 7 1 9
-261299 -1 -1 6700 0;
#X msg 134 75 label \$1;
#X obj 133 52 tosymbol;
#X obj 134 -47 * 80;
#X obj 134 -25 - 80;
#X obj 133 17 sprintf %ddB;
#X obj 101 101 cnv 4 10 4 empty empty empty 20 12 0 14 -1 -66577 0
;
#X obj 101 131 cnv 4 10 4 empty empty empty 20 12 0 14 -1 -66577 0
;
#X text 142 34 -> -80dB..20dB;
#X text 139 -2 -> -80 .. 20;
#X text 109 203 -> 1..100000;
#X text 109 237 -> 0.0001..10 = -80dB..20dB;
#X obj 20 103 cnv 15 41 30 empty empty empty 20 12 0 14 -24198 -66577
0;
#N canvas 363 389 381 103 ? 0;
#X obj 5 49 cnv 15 370 38 empty empty empty 20 12 0 14 -224896 -66577
0;
#X text 6 65 Voir/Look at: http://puredata.info/downloads;
#X obj 4 12 cnv 18 370 30 empty empty ARGOPdMiniModules 1 10 1 14 -4033
-1 1.04858e+06;
#X obj 7 31 cnv 10 10 10 empty empty Gerard 0 5 1 9 -4033 -1 1.04858e+06
;
#X obj 38 31 cnv 10 10 10 empty empty Paresys 0 5 1 9 -4033 -1 1.04858e+06
;
#X obj 175 20 cnv 10 10 10 empty empty http://pagesperso-orange.fr/Paresys/ARGOPd/
0 5 1 9 -4033 -1 1.04858e+06;
#X obj 175 31 cnv 10 10 10 empty empty http://gerard.paresys.free.fr/ARGOPd/
0 5 1 9 -4033 -1 1.04858e+06;
#X text 6 51 Construit sous / Build under Pd 0.41.4-extended;
#X restore 26 110 pd ?;
#X obj 100 143 t b f;
#X msg 100 166 10000;
#X obj 100 189 pow;
#X obj 100 221 / 10000;
#X text 209 97 13 3 2010;
#X text 142 153 -> 0 .. 1.2;
#X connect 3 0 4 0;
#X connect 4 0 1 0;
#X connect 5 0 8 0;
#X connect 5 0 19 0;
#X connect 6 0 5 0;
#X connect 7 0 6 0;
#X connect 8 0 9 0;
#X connect 9 0 10 0;
#X connect 10 0 7 0;
#X connect 19 0 20 0;
#X connect 19 1 21 1;
#X connect 20 0 21 0;
#X connect 21 0 22 0;
#X connect 22 0 4 1;
#X coords 0 -1 1 1 106 36 1 100 100;
#X restore -333 -111 pd ARGO;
#X obj -333 -69 zexy/pack~;
#X obj -333 -48 zexy/unpack~;
#N canvas 388 142 349 246 ARGO 0;
#X obj 101 101 cnv 20 104 34 empty ColorAmpli empty 20 12 0 14 -261299
-1 1.04858e+06;
#X obj 88 200 outlet~;
#X obj 134 104 cnv 10 20 10 empty ColorAmpli Ampli 1 5 1 14 -261299
-1 1.04858e+06;
#X obj 88 74 inlet~;
#X obj 185 74 inlet~;
#X obj 87 173 *~;
#X obj 195 101 cnv 4 10 4 empty empty empty 20 12 0 14 -258113 -66577
0;
#X obj 101 101 cnv 4 10 4 empty empty empty 20 12 0 14 -1 -66577 0
;
#X obj 101 131 cnv 4 10 4 empty empty empty 20 12 0 14 -1 -66577 0
;
#X obj 103 118 hsl 101 12 0 1.25 0 1 \$0-A ColorAmpli empty 0 7 1 9
-262144 -1 -1 0 0;
#X obj 103 118 hsl 101 12 0 1.25 0 0 \$0-A ColorAmpli -80dB 0 7 1 9
-261299 -258049 -1 3146 0;
#X text 211 127 2 HSLIDER superposés;
#X text 210 116 <-- ATTENTION;
#X obj 217 197 cnv 15 41 30 empty empty empty 20 12 0 14 -24198 -66577
0;
#N canvas 363 389 381 103 ? 0;
#X obj 5 49 cnv 15 370 38 empty empty empty 20 12 0 14 -224896 -66577
0;
#X text 6 65 Voir/Look at: http://puredata.info/downloads;
#X obj 4 12 cnv 18 370 30 empty empty ARGOPdMiniModules 1 10 1 14 -4033
-1 1.04858e+06;
#X obj 7 31 cnv 10 10 10 empty empty Gerard 0 5 1 9 -4033 -1 1.04858e+06
;
#X obj 38 31 cnv 10 10 10 empty empty Paresys 0 5 1 9 -4033 -1 1.04858e+06
;
#X obj 175 20 cnv 10 10 10 empty empty http://pagesperso-orange.fr/Paresys/ARGOPd/
0 5 1 9 -4033 -1 1.04858e+06;
#X obj 175 31 cnv 10 10 10 empty empty http://gerard.paresys.free.fr/ARGOPd/
0 5 1 9 -4033 -1 1.04858e+06;
#X text 6 51 Construit sous / Build under Pd 0.41.4-extended;
#X restore 223 204 pd ?;
#X obj 215 154 cnv 15 60 30 empty empty empty 20 12 0 14 -24198 -66577
0;
#N canvas 346 353 425 238 Help 0;
#X text 11 19 Amplificateur à gain controlé logarithmiquement;
#X text 10 45 Sensibilitée de l'entrée de contrôle du gain:;
#X text 10 60 1 = +80 dB;
#X text 11 74 Cela signifie par exemple:;
#X text 189 86 1 = 0 dB;
#X text 171 98 0.75 = -20 dB;
#X text 171 111 0.5 = -40 dB;
#X text 171 124 0.25 = -60 dB;
#X text 171 74 1.25 = +20 dB (slider à droite);
#X text 189 137 0 = -80 dB (slider à gauche);
#X restore 222 160 pd Help;
#N canvas 342 358 466 292 Ampli-v1-log 0;
#X obj -53 31 loadbang;
#X msg 208 178 set \$1;
#X obj 86 71 +~;
#X obj 206 121 snapshot~;
#X obj 207 155 change;
#X obj 276 33 inlet;
#X obj 231 210 outlet;
#X obj 85 31 inlet~;
#X msg 275 177 label \$1;
#X obj -46 59 metro 200;
#X obj 6 31 r SendFluid;
#X text 228 223 Hslider;
#X text 271 5 Hslider;
#X text 236 235 Over;
#X text 276 16 Under;
#X obj 85 207 outlet~;
#X obj 85 158 /~ 10000;
#X text 19 107 0..1.25 ->;
#X text 8 138 1..100000 ->;
#X text -82 173 0.0001..10 = -80dB..20dB ->;
#X obj 276 154 tosymbol;
#X obj 276 60 * 80;
#X obj 276 82 - 80;
#X obj 276 119 sprintf %ddB;
#X text 285 136 -> -80dB..20dB;
#X text 282 100 -> -80 .. 20;
#X text 224 248 0 .. 1.25;
#X text 263 -7 0 .. 1.25;
#X text 15 -20 Fluidité de;
#X text 14 -9 l'affichage;
#X text 15 2 des sliders;
#X text -7 13 (200ms par défaut);
#X obj 85 123 cyclone/pow~ 10000;
#X text -57 123 compatibility 0.42.5 ->;
#X connect 0 0 9 0;
#X connect 1 0 6 0;
#X connect 2 0 3 0;
#X connect 2 0 32 0;
#X connect 3 0 4 0;
#X connect 4 0 1 0;
#X connect 5 0 2 1;
#X connect 5 0 21 0;
#X connect 7 0 2 0;
#X connect 8 0 6 0;
#X connect 9 0 3 0;
#X connect 10 0 9 1;
#X connect 16 0 15 0;
#X connect 20 0 8 0;
#X connect 21 0 22 0;
#X connect 22 0 23 0;
#X connect 23 0 20 0;
#X connect 32 0 16 0;
#X restore 102 149 pd Ampli-v1-log;
#X text 22 33 Logarithmic Gain Controlled Amplifier;
#X text 22 49 Amplificateur à gain controlé loogarithmiquement;
#X text 209 97 1 2 2010;
#X connect 3 0 5 0;
#X connect 4 0 17 0;
#X connect 5 0 1 0;
#X connect 9 0 17 1;
#X connect 17 0 5 1;
#X connect 17 1 10 0;
#X coords 0 -1 1 1 106 36 1 100 100;
#X restore 111 7 pd ARGO;
#N canvas 382 183 431 349 ARGO 0;
#X obj 40 -35 inlet~;
#X obj 251 108 cnv 10 44 10 empty empty Scope 1 5 1 14 -262144 -1 1.04858e+06
;
#X obj 101 101 cnv 4 10 4 empty empty empty 20 12 0 14 -1 -66577 0
;
#X msg -36 168 frgb 255 0 0;
#X obj 124 105 nbx 4 12 1 2000 0 1 \$0-A ColorTime ms/div 40 7 1 9
-208064 -1 -1 50 256;
#X msg -24 136 range -1 1;
#X obj 205 105 tgl 12 1 \$0-A \$0-B Sync 15 6 1 9 -262144 -1 -1 0 1
;
#X msg 128 52 delay 0 \, triglevel 0 \, trigger 0;
#X obj 126 5 sel 0 1;
#X msg -39 192 brgb 255 255 255;
#X obj 94 64 * 2;
#X msg 146 28 delay 1 \, triglevel 0.1 \, trigger 1;
#X obj 41 -7 clip~ -1 1;
#X obj 277 -36 inlet~;
#X obj 278 -8 clip~ -1 1;
#X obj 289 101 cnv 4 10 4 empty empty empty 20 12 0 14 -1 -66577 0
;
#X obj -14 80 t b b b b;
#X obj -15 57 bng 15 250 50 0 empty empty empty 17 7 0 10 -262144 -1
-1;
#X msg -33 111 bufsize 176;
#X obj 196 -34 cnv 15 60 30 empty empty empty 20 12 0 14 -24198 -66577
0;
#N canvas 281 57 423 536 Help 0;
#X obj 9 12 cnv 15 400 200 empty empty empty 20 12 0 14 -233017 -66577
0;
#X text 12 11 Citation;
#X obj 10 219 cnv 15 370 220 empty empty empty 20 12 0 14 -258113 -66577
0;
#X text 12 221 ATTENTION;
#X text 9 -31 Voir examples:cyclone:pink-test.pd;
#X text 9 -20 Voir examples:cyclone:scope-...;
#X text 9 -9 Voir MSP46ReferenceManual.pdf;
#X text 8 -50 utilise l'objet Scope~ de la library cyclone;
#X restore 203 -28 pd Help;
#X obj 337 246 cnv 15 41 30 empty empty empty 20 12 0 14 -24198 -66577
0;
#N canvas 350 196 381 103 ? 0;
#X obj 5 49 cnv 15 370 38 empty empty empty 20 12 0 14 -224896 -66577
0;
#X text 6 65 Voir/Look at: http://puredata.info/downloads;
#X obj 4 12 cnv 18 370 30 empty empty ARGOPdMiniModules 1 10 1 14 -4033
-1 1.04858e+06;
#X obj 7 31 cnv 10 10 10 empty empty Gerard 0 5 1 9 -4033 -1 1.04858e+06
;
#X obj 38 31 cnv 10 10 10 empty empty Paresys 0 5 1 9 -4033 -1 1.04858e+06
;
#X obj 175 20 cnv 10 10 10 empty empty http://pagesperso-orange.fr/Paresys/ARGOPd/
0 5 1 9 -4033 -1 1.04858e+06;
#X obj 175 31 cnv 10 10 10 empty empty http://gerard.paresys.free.fr/ARGOPd/
0 5 1 9 -4033 -1 1.04858e+06;
#X text 6 51 Construit sous / Build under Pd 0.41.4-extended;
#X restore 343 253 pd ?;
#X obj 101 121 cnv 15 199 129 empty empty empty 20 12 0 14 -1 -66577
0;
#X obj 101 123 Scope~ 198 61 100 3 176 -1 1 0 0 0 0 255 0 0 255 255
255 0;
#X obj 101 187 Scope~ 198 61 100 3 176 -1 1 0 0 0 0 255 0 0 255 255
255 0;
#X text 243 85 17 6 2010;
#X connect 0 0 12 0;
#X connect 3 0 24 0;
#X connect 3 0 25 0;
#X connect 4 0 10 0;
#X connect 5 0 24 0;
#X connect 5 0 25 0;
#X connect 6 0 8 0;
#X connect 7 0 24 0;
#X connect 7 0 25 0;
#X connect 8 0 7 0;
#X connect 8 1 11 0;
#X connect 9 0 24 0;
#X connect 9 0 25 0;
#X connect 10 0 24 0;
#X connect 10 0 25 0;
#X connect 11 0 24 0;
#X connect 11 0 25 0;
#X connect 12 0 24 0;
#X connect 13 0 14 0;
#X connect 14 0 25 0;
#X connect 16 0 18 0;
#X connect 16 1 5 0;
#X connect 16 2 3 0;
#X connect 16 3 9 0;
#X connect 17 0 16 0;
#X connect 18 0 24 0;
#X connect 18 0 25 0;
#X coords 0 -1 1 1 200 150 2 100 100;
#X restore -147 40 pd ARGO;
#N canvas 421 44 268 333 ARGO 0;
#X obj 101 101 cnv 20 130 66 empty ColorForm Reverb2/2 53 8 1 14 -188398
-1 1.04858e+06;
#X obj 101 163 cnv 4 10 4 empty empty empty 20 12 0 14 -1 -66577 0
;
#X obj 221 163 cnv 4 10 4 empty empty empty 0 0 0 9 -1 -66577 0;
#X obj 87 74 inlet~;
#X obj 211 74 inlet~;
#X obj 101 101 cnv 4 10 4 empty empty empty 20 12 0 14 -1 -66577 0
;
#X obj 89 294 outlet~;
#X obj 188 295 outlet~;
#X obj 221 101 cnv 4 10 4 empty empty empty 0 0 0 9 -1 -66577 0;
#X obj 103 138 hsl 127 12 0.001 1 1 1 \$0-A ColorForm Brill 0 7 1 9
-188398 -1 -1 8600 0;
#X obj 103 126 hsl 127 12 0 1 0 1 \$0-A ColorForm Size 0 7 1 9 -188398
-1 -1 9500 0;
#X obj 103 150 hsl 127 12 0 1 0 1 \$0-A ColorAmpli Dir 0 7 1 9 -261299
-1 -1 2800 0;
#X obj 47 24 cnv 15 60 30 empty empty empty 20 12 0 14 -24198 -66577
0;
#N canvas 331 65 447 335 Help 0;
#X obj -169 -78 cnv 15 440 80 empty empty empty 20 12 0 14 -228856
-66577 0;
#X text -166 -78 Citation;
#X text -165 8 Comme MM-Reverb sauf:;
#X text -151 20 - Pas de "Early Echo";
#X text -150 31 - Sorties apres le delay \, sinon la reverb contient
le signal direct c'est a dire sans retard.;
#X text -148 56 - La sortie gauche est alors toujours + intense que
la droite (G vient d'un + et D vient d'un -) Donc on double la reverb
à gauche et a droite en inversant les 2 entrées.;
#X text -144 93 - Temps différents a gauche et a droite pour avoir
une vraie stereo. Un signal Mono \, envoyé sur les 2 entrees a bien
alors une reverb Stereo.;
#X text -143 131 - Temps réglables (* 0.01 ... * 10 de MM-Reverb).
;
#X text -161 168 Contrairement à sa version précédente \, ce MM peut
être présent à 2 exemplaires dans un même patch.;
#X text -168 -114 - Voir Pure Documentation Browser -> Pure Data/ ->
3.audio.examples -> G08.reverb.pd;
#X text -150 -62 "Here is a simple recirculating reverberator. "Feedback"
should be between 0 and 100 - if 100 \, the reverberation lasts forever."
;
#X text -147 -22 "Feedback" = Size;
#X text -168 -130 MM Reverb2/2;
#X restore 54 31 pd Help;
#N canvas 399 412 301 243 DirEffect 0;
#X obj 30 25 inlet~;
#X obj 186 25 inlet~;
#X obj 135 25 inlet~;
#X obj 80 25 inlet~;
#X obj 34 207 outlet~;
#X obj 193 203 outlet~;
#X text 242 7 0...1;
#X text 38 11 Dir1;
#X text 90 9 Dir2;
#X text 184 6 Effect2;
#X text 133 6 Effect1;
#X obj 81 146 *~;
#X obj 133 146 *~;
#X obj 193 147 *~;
#X obj 98 82 - 1;
#X obj 97 108 * -1;
#X obj 33 146 *~;
#X obj 218 107 * 0.2;
#X obj 241 26 inlet;
#X connect 0 0 16 0;
#X connect 1 0 13 0;
#X connect 2 0 12 0;
#X connect 3 0 11 0;
#X connect 11 0 5 0;
#X connect 12 0 4 0;
#X connect 13 0 5 0;
#X connect 14 0 15 0;
#X connect 15 0 11 1;
#X connect 15 0 16 1;
#X connect 16 0 4 0;
#X connect 17 0 12 1;
#X connect 17 0 13 1;
#X connect 18 0 17 0;
#X connect 18 0 14 0;
#X restore 96 259 pd DirEffect;
#X obj 114 102 bng 12 2000 50 0 \$0-A \$0-B Reset 14 6 1 9 -188398
-1 -1;
#X obj 213 259 cnv 15 41 30 empty empty empty 20 12 0 14 -24198 -66577
0;
#N canvas 350 196 308 136 ?? 0;
#X obj -9 87 cnv 15 300 38 empty empty empty 20 12 0 14 -224896 -66577
0;
#X obj -9 10 cnv 18 300 70 empty empty ARGOPdMiniModules 1 10 1 14
-4033 -1 1.04858e+06;
#X obj 9 29 cnv 10 10 10 empty empty Gerard 0 5 1 9 -4033 -1 1.04858e+06
;
#X obj 40 29 cnv 10 10 10 empty empty Paresys 0 5 1 9 -4033 -1 1.04858e+06
;
#X text -8 89 Construit sous / Build under Pd 0.42.5-extended;
#X obj 39 105 pddplink http://puredata.info/downloads;
#X obj 3 42 pddplink http://pagesperso-orange.fr/Paresys/ARGOPd/;
#X obj 3 57 pddplink http://gerard.paresys.free.fr/ARGOPd/;
#X restore 217 266 pd ??;
#N canvas 155 302 314 167 BrillanceStereo 0;
#X msg 79 42 clear;
#X obj 122 102 lop~ 5;
#X obj 261 78 line;
#X obj 122 14 inlet~;
#X obj 122 131 outlet~;
#X obj 260 35 * 20000;
#X obj 79 13 inlet;
#X obj 261 11 inlet;
#X msg 261 58 \$1 10;
#X obj 185 103 lop~ 5;
#X obj 185 15 inlet~;
#X obj 185 132 outlet~;
#X connect 0 0 1 0;
#X connect 0 0 9 0;
#X connect 1 0 4 0;
#X connect 2 0 1 1;
#X connect 2 0 9 1;
#X connect 3 0 1 0;
#X connect 5 0 8 0;
#X connect 6 0 0 0;
#X connect 7 0 5 0;
#X connect 8 0 2 0;
#X connect 9 0 11 0;
#X connect 10 0 9 0;
#X restore 130 181 pd BrillanceStereo;
#X obj 103 114 hsl 127 12 0.01 10 1 1 \$0-A ColorForm Time 0 7 1 9
-188398 -1 -1 8100 0;
#N canvas 4 70 682 544 reverbG 0;
#X obj 113 55 inlet~;
#X obj 46 189 +~;
#X obj 164 183 +~;
#X obj 21 512 outlet~;
#X obj 132 507 outlet~;
#X obj 46 269 +~;
#X obj 289 266 +~;
#X obj 149 258 -~;
#X obj 414 266 -~;
#X obj 47 323 +~;
#X obj 148 323 +~;
#X obj 277 323 -~;
#X obj 399 325 -~;
#X text 387 39 time.;
#X text 385 11 feedback gain on a scale of;
#X obj 393 100 * 0.495;
#X obj 394 123 + 0.005;
#X obj 393 60 inlet;
#X text 387 26 0 to 1 to control reverb;
#X text 18 13 cf "Recirculating schroeder reverb extract from the book
Designing Sound Andy Farnell Page 85";
#X obj 46 390 *~ 0;
#X obj 149 409 *~ 0;
#X obj 277 433 *~ 0;
#X obj 403 455 *~ 0;
#X obj 499 281 pack 0;
#X obj 547 282 pack 0;
#X obj 592 280 pack 0;
#X obj 640 281 pack 0;
#X obj 572 55 inlet;
#X obj 46 350 iem_delay/n_delay1p_line~ 1 1130 0;
#X obj 147 382 iem_delay/n_delay1p_line~ 1 1310 0;
#X obj 278 406 iem_delay/n_delay1p_line~ 1 1510 0;
#X obj 403 430 iem_delay/n_delay1p_line~ 1 1670 0;
#X obj 499 255 * 113;
#X obj 547 256 * 131;
#X obj 592 254 * 151;
#X obj 640 255 * 187;
#X text 566 36 0.01...10;
#X text 567 23 Time;
#X obj 46 415 zexy/pack~;
#X obj 59 437 zexy/unpack~;
#X obj 149 437 zexy/pack~;
#X obj 162 459 zexy/unpack~;
#X obj 277 458 zexy/pack~;
#X obj 290 480 zexy/unpack~;
#X obj 403 479 zexy/pack~;
#X obj 416 501 zexy/unpack~;
#X connect 0 0 1 0;
#X connect 0 0 2 0;
#X connect 1 0 5 0;
#X connect 1 0 7 0;
#X connect 2 0 5 1;
#X connect 2 0 7 1;
#X connect 5 0 9 0;
#X connect 5 0 11 0;
#X connect 6 0 11 1;
#X connect 6 0 9 1;
#X connect 7 0 10 0;
#X connect 7 0 12 0;
#X connect 8 0 10 1;
#X connect 8 0 12 1;
#X connect 9 0 29 0;
#X connect 10 0 30 0;
#X connect 11 0 31 0;
#X connect 12 0 32 0;
#X connect 15 0 16 0;
#X connect 16 0 20 1;
#X connect 16 0 21 1;
#X connect 16 0 22 1;
#X connect 16 0 23 1;
#X connect 17 0 15 0;
#X connect 20 0 39 0;
#X connect 21 0 41 0;
#X connect 22 0 43 0;
#X connect 23 0 45 0;
#X connect 24 0 29 0;
#X connect 25 0 30 0;
#X connect 26 0 31 0;
#X connect 27 0 32 0;
#X connect 28 0 33 0;
#X connect 28 0 34 0;
#X connect 28 0 35 0;
#X connect 28 0 36 0;
#X connect 29 0 20 0;
#X connect 29 0 3 0;
#X connect 30 0 21 0;
#X connect 30 0 4 0;
#X connect 31 0 22 0;
#X connect 32 0 23 0;
#X connect 33 0 24 0;
#X connect 34 0 25 0;
#X connect 35 0 26 0;
#X connect 36 0 27 0;
#X connect 39 0 40 0;
#X connect 40 0 1 1;
#X connect 41 0 42 0;
#X connect 42 0 2 1;
#X connect 43 0 44 0;
#X connect 44 0 6 0;
#X connect 44 0 8 0;
#X connect 45 0 46 0;
#X connect 46 0 8 1;
#X connect 46 0 6 1;
#X restore 35 221 pd reverbG;
#N canvas 470 65 682 544 reverbD 0;
#X obj 113 55 inlet~;
#X obj 46 189 +~;
#X obj 164 183 +~;
#X obj 21 512 outlet~;
#X obj 122 512 outlet~;
#X obj 46 269 +~;
#X obj 289 266 +~;
#X obj 149 258 -~;
#X obj 414 266 -~;
#X obj 47 323 +~;
#X obj 148 323 +~;
#X obj 277 323 -~;
#X obj 399 325 -~;
#X text 387 39 time.;
#X text 385 11 feedback gain on a scale of;
#X obj 394 100 * 0.495;
#X obj 395 123 + 0.005;
#X obj 393 60 inlet;
#X text 387 26 0 to 1 to control reverb;
#X text 18 13 cf "Recirculating schroeder reverb extract from the book
Designing Sound Andy Farnell Page 85";
#X obj 46 390 *~ 0;
#X obj 149 409 *~ 0;
#X obj 276 445 *~ 0;
#X obj 404 465 *~ 0;
#X obj 499 281 pack 0;
#X obj 499 255 * 101;
#X obj 547 282 pack 0;
#X obj 592 280 pack 0;
#X obj 640 281 pack 0;
#X obj 547 256 * 143;
#X obj 592 254 * 165;
#X obj 640 255 * 177;
#X obj 46 350 iem_delay/n_delay1p_line~ 1 1010 0;
#X obj 147 382 iem_delay/n_delay1p_line~ 1 1430 0;
#X obj 278 406 iem_delay/n_delay1p_line~ 1 1650 0;
#X obj 403 430 iem_delay/n_delay1p_line~ 1 1770 0;
#X obj 572 55 inlet;
#X text 561 38 0.01...10;
#X text 562 25 Time;
#X obj 46 419 zexy/pack~;
#X obj 59 441 zexy/unpack~;
#X obj 149 439 zexy/pack~;
#X obj 162 461 zexy/unpack~;
#X obj 276 469 zexy/pack~;
#X obj 289 491 zexy/unpack~;
#X obj 404 490 zexy/pack~;
#X obj 417 512 zexy/unpack~;
#X connect 0 0 1 0;
#X connect 0 0 2 0;
#X connect 1 0 5 0;
#X connect 1 0 7 0;
#X connect 2 0 5 1;
#X connect 2 0 7 1;
#X connect 5 0 9 0;
#X connect 5 0 11 0;
#X connect 6 0 11 1;
#X connect 6 0 9 1;
#X connect 7 0 10 0;
#X connect 7 0 12 0;
#X connect 8 0 10 1;
#X connect 8 0 12 1;
#X connect 9 0 32 0;
#X connect 10 0 33 0;
#X connect 11 0 34 0;
#X connect 12 0 35 0;
#X connect 15 0 16 0;
#X connect 16 0 20 1;
#X connect 16 0 21 1;
#X connect 16 0 22 1;
#X connect 16 0 23 1;
#X connect 17 0 15 0;
#X connect 20 0 39 0;
#X connect 21 0 41 0;
#X connect 22 0 43 0;
#X connect 23 0 45 0;
#X connect 24 0 32 0;
#X connect 25 0 24 0;
#X connect 26 0 33 0;
#X connect 27 0 34 0;
#X connect 28 0 35 0;
#X connect 29 0 26 0;
#X connect 30 0 27 0;
#X connect 31 0 28 0;
#X connect 32 0 20 0;
#X connect 32 0 3 0;
#X connect 33 0 21 0;
#X connect 33 0 4 0;
#X connect 34 0 22 0;
#X connect 35 0 23 0;
#X connect 36 0 25 0;
#X connect 36 0 29 0;
#X connect 36 0 30 0;
#X connect 36 0 31 0;
#X connect 39 0 40 0;
#X connect 40 0 1 1;
#X connect 41 0 42 0;
#X connect 42 0 2 1;
#X connect 43 0 44 0;
#X connect 44 0 6 0;
#X connect 44 0 8 0;
#X connect 45 0 46 0;
#X connect 46 0 8 1;
#X connect 46 0 6 1;
#X restore 168 216 pd reverbD;
#X msg 30 123 0;
#X obj 6 95 delay 2000;
#X text 138 83 14 3 2011;
#X connect 3 0 18 1;
#X connect 3 0 14 0;
#X connect 4 0 14 1;
#X connect 4 0 18 2;
#X connect 9 0 18 3;
#X connect 10 0 21 1;
#X connect 10 0 20 1;
#X connect 11 0 14 4;
#X connect 14 0 6 0;
#X connect 14 1 7 0;
#X connect 15 0 18 0;
#X connect 15 0 22 0;
#X connect 15 0 23 0;
#X connect 18 0 20 0;
#X connect 18 1 21 0;
#X connect 19 0 21 2;
#X connect 19 0 20 2;
#X connect 20 0 14 2;
#X connect 20 1 14 3;
#X connect 21 0 14 3;
#X connect 21 1 14 2;
#X connect 22 0 21 2;
#X connect 22 0 20 2;
#X connect 22 0 20 1;
#X connect 22 0 21 1;
#X connect 23 0 10 0;
#X connect 23 0 19 0;
#X coords 0 -1 1 1 132 68 1 100 100;
#X restore 111 51 pd ARGO;
#N canvas 497 69 330 372 ARGO 0;
#X obj 101 101 cnv 20 104 34 empty ColorAmpli empty 20 12 0 14 -261299
-1 1.04858e+06;
#X obj 85 282 outlet~;
#X obj 134 104 cnv 10 20 10 empty ColorAmpli Ampli 1 5 1 14 -261299
-1 1.04858e+06;
#X obj 89 -62 inlet~;
#X obj 85 259 *~;
#X obj 103 118 hsl 101 12 0 1.25 0 1 \$0-A ColorAmpli 0dB 0 7 1 9 -261299
-1 -1 8000 0;
#X msg 117 76 label \$1;
#X obj 116 53 tosymbol;
#X obj 116 -40 * 80;
#X obj 116 -18 - 80;
#X obj 116 18 sprintf %ddB;
#X obj 101 101 cnv 4 10 4 empty empty empty 20 12 0 14 -1 -66577 0
;
#X obj 101 131 cnv 4 10 4 empty empty empty 20 12 0 14 -1 -66577 0
;
#X text 125 35 -> -80dB..20dB;
#X text 122 -1 -> -80 .. 20;
#X obj 195 101 cnv 4 10 4 empty empty empty 20 12 0 14 -1 -66577 0
;
#X obj 195 131 cnv 4 10 4 empty empty empty 20 12 0 14 -1 -66577 0
;
#X obj 210 281 outlet~;
#X obj 214 -63 inlet~;
#X obj 210 258 *~;
#X obj 34 106 cnv 15 41 30 empty empty empty 20 12 0 14 -24198 -66577
0;
#N canvas 363 389 381 103 ? 0;
#X obj 5 49 cnv 15 370 38 empty empty empty 20 12 0 14 -224896 -66577
0;
#X text 6 65 Voir/Look at: http://puredata.info/downloads;
#X obj 4 12 cnv 18 370 30 empty empty ARGOPdMiniModules 1 10 1 14 -4033
-1 1.04858e+06;
#X obj 7 31 cnv 10 10 10 empty empty Gerard 0 5 1 9 -4033 -1 1.04858e+06
;
#X obj 38 31 cnv 10 10 10 empty empty Paresys 0 5 1 9 -4033 -1 1.04858e+06
;
#X obj 175 20 cnv 10 10 10 empty empty http://pagesperso-orange.fr/Paresys/ARGOPd/
0 5 1 9 -4033 -1 1.04858e+06;
#X obj 175 31 cnv 10 10 10 empty empty http://gerard.paresys.free.fr/ARGOPd/
0 5 1 9 -4033 -1 1.04858e+06;
#X text 6 51 Construit sous / Build under Pd 0.41.4-extended;
#X restore 40 113 pd ?;
#X text 113 204 -> 1..100000;
#X text 156 234 -> 0.0001..10 = -80dB..20dB;
#X obj 100 144 t b f;
#X msg 100 167 10000;
#X obj 100 190 pow;
#X obj 100 222 / 10000;
#X text 142 154 -> 0 .. 1.2;
#X text 221 83 13 3 2010;
#X connect 3 0 4 0;
#X connect 4 0 1 0;
#X connect 5 0 8 0;
#X connect 5 0 24 0;
#X connect 6 0 5 0;
#X connect 7 0 6 0;
#X connect 8 0 9 0;
#X connect 9 0 10 0;
#X connect 10 0 7 0;
#X connect 18 0 19 0;
#X connect 19 0 17 0;
#X connect 24 0 25 0;
#X connect 24 1 26 1;
#X connect 25 0 26 0;
#X connect 26 0 27 0;
#X connect 27 0 4 1;
#X connect 27 0 19 1;
#X coords 0 -1 1 1 106 36 1 100 100;
#X restore 127 127 pd ARGO;
#X text -335 -30 Astuce pack~ + unpack~ pour;
#X text -334 -19 reboucler l'audio;
#N canvas 384 205 286 254 ARGO 0;
#X obj 113 104 cnv 10 20 10 empty empty Switch 1 5 1 14 -262144 -1
1.04858e+06;
#X obj 101 101 cnv 4 10 4 empty empty empty 20 12 0 14 -1 -66577 0
;
#X obj 101 112 cnv 4 10 4 empty empty empty 20 12 0 14 -1 -66577 0
;
#X obj -1 41 inlet~;
#X obj 89 228 outlet~;
#X obj 88 200 *~;
#X obj 103 173 line~;
#X msg 103 150 \$1 20;
#X obj 238 41 inlet;
#X obj 194 100 tgl 12 1 \$0-A \$0-B empty 17 7 0 10 -262144 -1 -1 1
1;
#X text 46 40 1: Play 0: Stop bang: Change ->;
#X obj 195 101 cnv 4 10 4 empty empty empty 20 12 0 14 -260097 -66577
0;
#X text 131 84 15 3 2011;
#X obj 230 210 cnv 15 41 30 empty empty empty 20 12 0 14 -24198 -66577
0;
#N canvas 350 196 308 136 ?? 0;
#X obj -9 87 cnv 15 300 38 empty empty empty 20 12 0 14 -224896 -66577
0;
#X obj -9 10 cnv 18 300 70 empty empty ARGOPdMiniModules 1 10 1 14
-4033 -1 1.04858e+06;
#X obj 9 29 cnv 10 10 10 empty empty Gerard 0 5 1 9 -4033 -1 1.04858e+06
;
#X obj 40 29 cnv 10 10 10 empty empty Paresys 0 5 1 9 -4033 -1 1.04858e+06
;
#X text -8 89 Construit sous / Build under Pd 0.42.5-extended;
#X obj 39 105 pddplink http://puredata.info/downloads;
#X obj 3 42 pddplink http://pagesperso-orange.fr/Paresys/ARGOPd/;
#X obj 3 57 pddplink http://gerard.paresys.free.fr/ARGOPd/;
#X restore 234 217 pd ??;
#X connect 3 0 5 0;
#X connect 5 0 4 0;
#X connect 6 0 5 1;
#X connect 7 0 6 0;
#X connect 8 0 9 0;
#X connect 9 0 7 0;
#X coords 0 -1 1 1 106 17 2 100 100;
#X restore 51 -127 pd ARGO;
#X text 160 -129 <- Stop / Play;
#N canvas 240 127 443 197 ARGO 0;
#X obj 101 101 cnv 12 92 15 empty ColorAmpli empty 20 12 0 14 -261299
-1 1.04858e+06;
#X obj 145 104 cnv 8 8 10 empty ColorAmpli Quanta 1 5 1 14 -261299
-1 1.04858e+06;
#X obj 101 101 cnv 4 10 4 empty empty empty 20 12 0 14 -1 -66577 0
;
#X obj 101 112 cnv 4 10 4 empty empty empty 20 12 0 14 -1 -66577 0
;
#X obj 84 66 inlet~;
#X obj 113 102 nbx 3 12 0 999 0 1 \$0-A ColorAmpli empty 0 0 1 9 -261299
-1 -1 240 256;
#X obj 83 168 outlet~;
#X text 202 60 Quanta;
#X text 256 61 Echelle;
#X text 313 61 Notes dans l'octave;
#X text 212 73 120;
#X text 212 85 180;
#X text 212 97 240;
#X text 212 109 360;
#X text 212 121 480;
#X text 256 85 2/3 ton;
#X text 256 97 1/2 ton;
#X text 256 109 1/3 ton;
#X text 256 121 1/4 ton;
#X text 270 73 1 ton;
#X text 370 73 6;
#X text 370 85 9;
#X text 363 97 12;
#X text 363 109 18;
#X text 363 121 24;
#X obj 83 135 quantize~ 16;
#X text 80 -1 - "quantize a signal with a variable step-number";
#X text 211 140 0 = Off;
#X text 80 16 - Avec 240 \, Quanta sort des 1/2 tons tempérés (pour
le contrôle de la fréquence d'un oscillateur ou d'un filtre par exemple):
;
#X text 210 166 quantize~ (library zexy);
#X connect 4 0 25 0;
#X connect 5 0 25 0;
#X connect 25 0 6 0;
#X coords 0 -1 1 1 94 17 1 100 100;
#X restore -128 -67 pd ARGO;
#X obj -229 228 pddplink http://fr.wikipedia.org/wiki/Fichier:LogisticMap_BifurcationDiagram.png
;
#X connect 1 0 2 0;
#X connect 6 0 8 0;
#X connect 6 0 28 0;
#X connect 7 0 23 0;
#X connect 7 0 6 0;
#X connect 7 1 28 1;
#X connect 7 1 33 0;
#X connect 8 0 35 0;
#X connect 9 3 27 0;
#X connect 23 0 24 0;
#X connect 24 0 25 0;
#X connect 25 0 26 0;
#X connect 26 0 7 0;
#X connect 27 0 29 0;
#X connect 29 0 30 0;
#X connect 29 1 30 1;
#X connect 30 0 0 0;
#X connect 30 1 0 1;
#X connect 33 0 27 1;
#X connect 35 0 9 0;
