#N canvas 257 22 473 459 10;
#X obj 150 243 dac~ 1 2;
#X obj 8 -175 cnv 15 15 15 empty empty ExMM18a-12Sinus.pd 0 8 1 14
-262144 -66577 0;
#X text 77 99 General level ->;
#X text 71 87 Niveau général ->;
#X text 155 -176 fréquences F \, 2 x F \, 3 x F... 12 x F;
#X text 156 -189 Mélange de 12 ondes sinusoïdales de;
#X text 51 -2 Régler le mélange;
#X text 50 11 des 12 fréquences ->;
#X text 52 26 Adjust the mix of;
#X text 45 40 the 12 frequencies ->;
#N canvas 227 65 699 495 ARGO 0;
#X obj 91 462 outlet~;
#X obj 90 41 inlet~;
#X obj 142 266 t b f;
#X obj 336 263 t b f;
#X obj 529 263 t b f;
#X obj 191 265 t b f;
#X obj 383 264 t b f;
#X obj 576 263 t b f;
#X obj 240 264 t b f;
#X obj 432 264 t b f;
#X obj 616 263 t b f;
#X obj 288 263 t b f;
#X obj 480 263 t b f;
#X obj 658 264 t b f;
#X obj 284 346 pack s f f f f f f f f f f f f;
#N canvas 0 22 450 300 (subpatch) 0;
#X array \$0wavetable 515 float 0;
#X coords 0 0 514 1 101 40 0;
#X restore 42 358 graph;
#X obj 101 101 cnv 20 244 34 empty ColorTime empty 20 12 0 14 -208064
-1 1.04858e+06;
#X obj 100 106 nbx 7 12 0 20000 0 1 \$0-A ColorTime Hz 60 7 1 9 -208064
-1 -1 51.9131 256;
#X obj 103 118 hsl 241 12 0 1 0 0 \$0-A ColorTime empty 0 7 1 9 -262144
-1 -1 14000 0;
#X obj 103 118 hsl 241 12 0 1 0 0 \$0-A ColorTime Ab0 0 7 1 9 -208064
-1728 -1 14000 0;
#X text 353 116 2 HSLIDER superposés;
#X text 352 105 ATTENTION;
#X obj 12 27 cnv 15 60 30 empty empty empty 20 12 0 14 -24198 -66577
0;
#N canvas 346 363 487 234 Help 0;
#X obj 8 85 cnv 15 400 100 empty empty empty 20 12 0 14 -233017 -66577
0;
#X text 12 87 Citation;
#X text 10 45 Sensibilitée de l'entrée de contrôle de la fréquence:
;
#X text 10 57 1 = 240 1/2 ton = 20 octaves;
#X text 177 192 manuals/1.Sound/building_waveforms_with_sines.pd;
#X text 9 192 Voir Help -> Browser ... ->;
#X text 11 19 Oscillateur 12 sinusoïdes de fréquences: f 2xf 3xf ..
12xf;
#X text 28 103 Any waveform can be contructed using sine waves. This
patch allows you to construct a waveform using harmonics.;
#X restore 19 33 pd Help;
#N canvas 658 231 344 337 Freq-v7-sig- 0;
#X obj 226 11 ftom;
#X obj 279 170 mtof;
#X obj 141 95 +~;
#X obj 9 142 snapshot~;
#X obj 9 164 change;
#X msg 9 189 set \$1;
#X obj 142 198 clip~ 0 20000;
#X obj 142 175 mtof~;
#X obj 142 227 outlet~;
#X obj 280 -12 inlet;
#X obj 225 -13 inlet;
#X obj 38 227 outlet;
#X obj 279 227 outlet;
#X text 35 245 Hslider;
#X obj 141 -8 inlet~;
#X obj 8 -9 loadbang;
#X obj 229 227 outlet;
#X obj 279 109 * 240;
#X obj 279 132 - 108;
#X obj 141 123 *~ 240;
#X obj 141 145 -~ 108;
#X obj 226 34 + 108;
#X obj 226 56 / 240;
#X obj 9 40 metro 200;
#X obj 64 -9 r SendFluid;
#N canvas 618 373 489 317 pitchb 0;
#X obj 70 111 mod 12;
#X obj 70 135 sel 0 1 2 3 4 5 6 7 8 9 10 11;
#X msg 246 170 A;
#X msg 300 170 B;
#X msg 192 170 G;
#X msg 3 170 C;
#X msg 57 170 D;
#X msg 111 170 E;
#X msg 138 170 F;
#X obj 204 1 inlet;
#X obj 329 115 div 12;
#X obj 204 79 t f f;
#X text 334 190 -> Numero de l'octave;
#X text 213 64 -> Numero MIDI de la note (69 = A3 = 440Hz);
#X msg 260 260 label \$1;
#X obj 260 283 outlet;
#X msg 30 170 Db;
#X msg 84 170 Eb;
#X msg 165 170 Gb;
#X msg 219 170 Ab;
#X msg 273 170 Bb;
#X text 369 78 (70 = A#3 = Bb3);
#X obj 260 238 symbol;
#X obj 260 213 sprintf %s%d;
#X text 11 231 Impossible d'afficher # dans un label;
#X text 11 243 donc j'affiche b;
#X obj 204 51 int;
#X text 255 23 -> pour corriger certaines erreurs de calcul;
#X obj 204 25 + 120.1;
#X obj 329 144 - 12;
#X text 255 35 et le pb du passage a zero de mod 12;
#X connect 0 0 1 0;
#X connect 1 0 5 0;
#X connect 1 1 16 0;
#X connect 1 2 6 0;
#X connect 1 3 17 0;
#X connect 1 4 7 0;
#X connect 1 5 8 0;
#X connect 1 6 18 0;
#X connect 1 7 4 0;
#X connect 1 8 19 0;
#X connect 1 9 2 0;
#X connect 1 10 20 0;
#X connect 1 11 3 0;
#X connect 2 0 23 0;
#X connect 3 0 23 0;
#X connect 4 0 23 0;
#X connect 5 0 23 0;
#X connect 6 0 23 0;
#X connect 7 0 23 0;
#X connect 8 0 23 0;
#X connect 9 0 28 0;
#X connect 10 0 29 0;
#X connect 11 0 0 0;
#X connect 11 1 10 0;
#X connect 14 0 15 0;
#X connect 16 0 23 0;
#X connect 17 0 23 0;
#X connect 18 0 23 0;
#X connect 19 0 23 0;
#X connect 20 0 23 0;
#X connect 22 0 14 0;
#X connect 23 0 22 0;
#X connect 26 0 11 0;
#X connect 28 0 26 0;
#X connect 29 0 23 1;
#X restore 40 86 pd pitchb;
#X text 44 256 Over;
#X text 281 245 Number;
#X text 222 -30 Number;
#X text 228 244 Hslider;
#X text 230 255 Under;
#X text 281 -42 Hslider;
#X text 286 -31 Under;
#X msg 229 197 set \$1;
#X connect 0 0 21 0;
#X connect 0 0 25 0;
#X connect 1 0 12 0;
#X connect 2 0 3 0;
#X connect 2 0 19 0;
#X connect 3 0 4 0;
#X connect 4 0 5 0;
#X connect 5 0 11 0;
#X connect 6 0 8 0;
#X connect 7 0 6 0;
#X connect 9 0 17 0;
#X connect 10 0 0 0;
#X connect 14 0 2 0;
#X connect 15 0 23 0;
#X connect 17 0 18 0;
#X connect 18 0 1 0;
#X connect 19 0 20 0;
#X connect 20 0 7 0;
#X connect 21 0 22 0;
#X connect 22 0 2 1;
#X connect 22 0 33 0;
#X connect 23 0 3 0;
#X connect 24 0 23 1;
#X connect 25 0 11 0;
#X connect 33 0 16 0;
#X restore 62 69 pd Freq-v7-sig-;
#X obj 255 104 cnv 10 65 10 empty ColorTime Oscill 1 5 1 14 -208064
-1 1.04858e+06;
#X obj 292 104 cnv 10 10 10 empty ColorTime 12Sinus 1 5 1 14 -208064
-1 1.04858e+06;
#X obj 101 101 cnv 4 10 4 empty empty empty 20 12 0 14 -1728 -66577
0;
#X obj 101 131 cnv 20 244 110 empty ColorForm empty 20 12 0 14 -188398
-1 1.04858e+06;
#X obj 214 132 vsl 12 96 0 1 0 1 \$0-A ColorForm 2 4 105 1 10 -188398
-1 -1 4600 0;
#X obj 226 132 vsl 12 96 0 1 0 1 \$0-A ColorForm 3 4 105 1 10 -188398
-1 -1 4600 0;
#X obj 238 132 vsl 12 96 0 1 0 1 \$0-A ColorForm 4 4 105 1 10 -188398
-1 -1 4600 0;
#X obj 250 132 vsl 12 96 0 1 0 1 \$0-A ColorForm 5 4 105 1 10 -188398
-1 -1 4700 0;
#X obj 262 132 vsl 12 96 0 1 0 1 \$0-A ColorForm 6 4 105 1 10 -188398
-1 -1 0 0;
#X obj 274 132 vsl 12 96 0 1 0 1 \$0-A ColorForm 7 4 105 1 10 -188398
-1 -1 0 0;
#X obj 286 132 vsl 12 96 0 1 0 1 \$0-A ColorForm 8 4 105 1 10 -188398
-1 -1 0 0;
#X obj 298 132 vsl 12 96 0 1 0 1 \$0-A ColorForm 9 4 105 1 10 -188398
-1 -1 0 0;
#X obj 310 132 vsl 12 96 0 1 0 1 \$0-A ColorForm 10 0 105 1 10 -188398
-1 -1 3600 0;
#X obj 322 132 vsl 12 96 0 1 0 1 \$0-A ColorForm 11 0 105 1 10 -188398
-1 -1 0 0;
#X obj 334 132 vsl 12 96 0 1 0 1 \$0-A ColorForm 12 0 105 1 10 -188398
-1 -1 0 0;
#X obj 202 132 vsl 12 96 0 1 0 1 \$0-A ColorForm 1 4 105 1 10 -188398
-1 -1 4800 0;
#X obj 101 237 cnv 4 10 4 empty empty empty 20 12 0 14 -1 -66577 0
;
#X obj 91 358 tabosc4~ \$0wavetable;
#X obj 335 311 symbol \$0wavetable;
#X obj 176 13 cnv 15 360 66 empty empty empty 20 12 0 14 -258113 -66577
0;
#X text 179 16 ATTENTION: Ce MiniModule ne peut pas être présent à
2 exemplaires dans un même patch.;
#X text 179 48 WARNING: This MiniModule can not be present at 2 copies
in a single patch.;
#X msg 265 454 \; \$1 sinesum 512 \$2 \$3 \$4 \$5 \$6 \$7 \$8 \$9 \$10
\$11 \$12 \$13 \;;
#X obj 112 177 tgl 12 1 \$0-A \$0-B Sinus/Cosinus 15 6 1 10 -262144
-1 -1 0 1;
#X obj 264 393 spigot;
#X obj 345 370 == 0;
#X obj 311 393 spigot;
#X text 293 81 1 2 2012;
#X msg 311 418 \; \$1 cosinesum 512 0 \$2 \$3 \$4 \$5 \$6 \$7 \$8 \$9
\$10 \$11 \$12 \$13 \;;
#X obj 102 267 t b f;
#X obj 626 461 cnv 15 48 25 empty empty empty 20 12 0 14 -24198 -66577
0;
#N canvas 350 196 308 136 ??? 0;
#X obj -6 87 cnv 15 300 38 empty empty empty 20 12 0 14 -224896 -66577
0;
#X obj -6 10 cnv 18 300 70 empty empty ARGOPdMiniModules 3 10 1 14
-4033 -1 1.04858e+06;
#X obj 13 31 cnv 10 10 10 empty empty Gerard 0 5 1 11 -4033 -1 1.04858e+06
;
#X obj 55 30 cnv 10 10 10 empty empty Paresys 0 5 1 11 -4033 -1 1.04858e+06
;
#X text -1 89 Construit sous / Build under Pd 0.42.5-extended;
#X obj 6 43 pddp/pddplink http://pagesperso-orange.fr/Paresys/ARGOPd/
;
#X obj 6 58 pddp/pddplink http://gerard.paresys.free.fr/ARGOPd/;
#X obj 46 105 pddp/pddplink http://puredata.info/downloads;
#X restore 630 465 pd ???;
#X connect 1 0 24 0;
#X connect 2 0 43 0;
#X connect 2 1 14 1;
#X connect 3 0 43 0;
#X connect 3 1 14 5;
#X connect 4 0 43 0;
#X connect 4 1 14 9;
#X connect 5 0 43 0;
#X connect 5 1 14 2;
#X connect 6 0 43 0;
#X connect 6 1 14 6;
#X connect 7 0 43 0;
#X connect 7 1 14 10;
#X connect 8 0 43 0;
#X connect 8 1 14 3;
#X connect 9 0 43 0;
#X connect 9 1 14 7;
#X connect 10 0 43 0;
#X connect 10 1 14 11;
#X connect 11 0 43 0;
#X connect 11 1 14 4;
#X connect 12 0 43 0;
#X connect 12 1 14 8;
#X connect 13 0 43 0;
#X connect 13 1 14 12;
#X connect 14 0 49 0;
#X connect 14 0 51 0;
#X connect 17 0 24 1;
#X connect 18 0 24 2;
#X connect 24 0 19 0;
#X connect 24 1 42 0;
#X connect 24 2 18 0;
#X connect 24 3 17 0;
#X connect 29 0 5 0;
#X connect 30 0 8 0;
#X connect 31 0 11 0;
#X connect 32 0 3 0;
#X connect 33 0 6 0;
#X connect 34 0 9 0;
#X connect 35 0 12 0;
#X connect 36 0 4 0;
#X connect 37 0 7 0;
#X connect 38 0 10 0;
#X connect 39 0 13 0;
#X connect 40 0 2 0;
#X connect 42 0 0 0;
#X connect 43 0 14 0;
#X connect 48 0 54 0;
#X connect 49 0 47 0;
#X connect 50 0 51 1;
#X connect 51 0 53 0;
#X connect 54 0 43 0;
#X connect 54 1 49 1;
#X connect 54 1 50 0;
#X coords 0 -1 1 1 246 142 1 100 100;
#X restore 176 -83 pd ARGO;
#X obj 29 -44 switch~;
#N canvas 608 166 228 173 ARGOnOff 0;
#X obj 100 100 tgl 18 1 \$0-SendOnOff \$0-ReceiveOnOff On/Off 20 11
1 14 -4033 -1 -1 1 1;
#X obj 99 10 loadbang;
#X msg 99 33 \; pd dsp 1;
#X obj 100 129 outlet;
#X text -50 99 Audio On/Off du patch ->;
#X text -22 45 Audio General On ->;
#X text 107 82 17 3 2010;
#X connect 0 0 3 0;
#X connect 1 0 2 0;
#X coords 0 -1 1 1 65 18 2 100 100;
#X restore 29 -62 pd ARGOnOff;
#X text 34 -78 V;
#X text 34 -85 |;
#X text 22 -96 On/Off Patch;
#X obj 416 230 cnv 15 48 25 empty empty empty 20 12 0 14 -24198 -66577
0;
#N canvas 350 196 308 136 ??? 0;
#X obj -6 87 cnv 15 300 38 empty empty empty 20 12 0 14 -224896 -66577
0;
#X obj -6 10 cnv 18 300 70 empty empty ARGOPdMiniModules 3 10 1 14
-4033 -1 1.04858e+06;
#X obj 13 31 cnv 10 10 10 empty empty Gerard 0 5 1 11 -4033 -1 1.04858e+06
;
#X obj 55 30 cnv 10 10 10 empty empty Paresys 0 5 1 11 -4033 -1 1.04858e+06
;
#X text -1 89 Construit sous / Build under Pd 0.42.5-extended;
#X obj 6 43 pddp/pddplink http://pagesperso-orange.fr/Paresys/ARGOPd/
;
#X obj 6 58 pddp/pddplink http://gerard.paresys.free.fr/ARGOPd/;
#X obj 46 105 pddp/pddplink http://puredata.info/downloads;
#X restore 420 234 pd ???;
#N canvas 432 42 314 359 ARGO 0;
#X obj 101 101 cnv 30 37 130 empty ColorAmpli empty 20 12 0 14 -1 -258113
0;
#X obj 101 101 cnv 4 10 4 empty empty empty 20 12 0 14 -1 -66577 0
;
#X obj 102 108 vu 8 120 \$0-B empty 0 0 1 11 -1 -4034 1 0;
#X obj 42 -112 inlet~;
#X obj 35 -87 *~;
#X obj 35 3 snapshot~;
#X obj 35 26 sqrt;
#X obj 35 -24 lop~ 10;
#X obj 35 50 rmstodb;
#X obj 98 -111 loadbang;
#X obj 35 73 - 100;
#X obj 171 26 sqrt;
#X obj 172 50 rmstodb;
#X obj 172 73 - 100;
#X obj 97 -23 metro 200;
#X obj 236 -97 cnv 15 60 30 empty empty empty 20 12 0 14 -24198 -66577
0;
#N canvas 300 65 442 264 Help 0;
#X obj 12 48 cnv 15 400 150 empty empty empty 20 12 0 14 -233017 -66577
0;
#X text 16 50 Citation;
#X text 28 67 peakamp~ tracks and outputs the absolute value of the
peak amplitude of the incoming signal. It outputs when banged or using
its own internal clock. The peak value is reset each time peakamp~
outputs a value.;
#X text 17 214 par rapport à la version précédente du MM-Vumetre env~
est remplacé par square~ + lop~ + snapshot~ + sqrt + rmstodb car env~
consomme beaucoup CPU.;
#X text 29 123 cyclone library;
#X text 28 135 http://suita.chopin.edu.pl/~czaja/miXed/externs/cyclone.html
;
#X text 29 155 Voir doc Max/MSP MSP46ReferenceManual.pdf;
#X text 18 14 MM-Vumetre;
#X restore 243 -91 pd Help;
#X obj 261 199 cnv 15 41 30 empty empty empty 20 12 0 14 -24198 -66577
0;
#N canvas 350 196 308 136 ?? 0;
#X obj -9 87 cnv 15 300 38 empty empty empty 20 12 0 14 -224896 -66577
0;
#X obj -9 10 cnv 18 300 70 empty empty ARGOPdMiniModules 1 10 1 14
-4033 -1 1.04858e+06;
#X obj 9 29 cnv 10 10 10 empty empty Gerard 0 5 1 9 -4033 -1 1.04858e+06
;
#X obj 40 29 cnv 10 10 10 empty empty Paresys 0 5 1 9 -4033 -1 1.04858e+06
;
#X text -8 89 Construit sous / Build under Pd 0.42.5-extended;
#X obj 39 105 pddplink http://puredata.info/downloads;
#X obj 3 42 pddplink http://pagesperso-orange.fr/Paresys/ARGOPd/;
#X obj 3 57 pddplink http://gerard.paresys.free.fr/ARGOPd/;
#X restore 265 206 pd ??;
#X obj 158 -111 r SendFluid;
#X obj 171 -50 cyclone/peakamp~ 1000;
#X text 145 106 13 2 2011;
#X connect 3 0 4 0;
#X connect 3 0 4 1;
#X connect 4 0 7 0;
#X connect 4 0 20 0;
#X connect 5 0 6 0;
#X connect 6 0 8 0;
#X connect 7 0 5 0;
#X connect 8 0 10 0;
#X connect 9 0 14 0;
#X connect 10 0 2 0;
#X connect 11 0 12 0;
#X connect 12 0 13 0;
#X connect 13 0 2 1;
#X connect 14 0 5 0;
#X connect 19 0 14 1;
#X connect 20 0 11 0;
#X coords 0 -1 1 1 39 132 2 100 100;
#X restore 105 128 pd ARGO;
#N canvas 324 59 331 313 ARGO 0;
#X obj 101 101 cnv 20 104 34 empty ColorAmpli empty 20 12 0 14 -261299
-1 1.04858e+06;
#X obj 85 285 outlet~;
#X obj 134 104 cnv 10 20 10 empty ColorAmpli Ampli 1 5 1 14 -261299
-1 1.04858e+06;
#X obj 85 72 inlet~;
#X obj 85 260 *~;
#X obj 103 118 hsl 101 12 -80 20 0 1 \$0-A ColorAmpli -10dB 0 7 1 9
-261299 -1 -1 7000 0;
#X msg -24 161 label \$1;
#X obj -25 138 tosymbol;
#X obj -25 103 sprintf %ddB;
#X obj 101 101 cnv 4 10 4 empty empty empty 20 12 0 14 -1 -66577 0
;
#X obj 101 131 cnv 4 10 4 empty empty empty 20 12 0 14 -1 -66577 0
;
#X text -16 120 -> -80dB..20dB;
#X text 106 182 -> 0.0001..10 = -80dB..20dB;
#X text 209 97 5 5 2011;
#X obj 100 163 expr (pow(10 \, $f1 / 20));
#X text 107 140 -> -80..20;
#X obj 227 270 cnv 15 41 30 empty empty empty 20 12 0 14 -24198 -66577
0;
#N canvas 350 196 308 136 ?? 0;
#X obj -9 87 cnv 15 300 38 empty empty empty 20 12 0 14 -224896 -66577
0;
#X obj -9 10 cnv 18 300 70 empty empty ARGOPdMiniModules 1 10 1 14
-4033 -1 1.04858e+06;
#X obj 9 29 cnv 10 10 10 empty empty Gerard 0 5 1 9 -4033 -1 1.04858e+06
;
#X obj 40 29 cnv 10 10 10 empty empty Paresys 0 5 1 9 -4033 -1 1.04858e+06
;
#X text -8 89 Construit sous / Build under Pd 0.42.5-extended;
#X obj 39 105 pddplink http://puredata.info/downloads;
#X obj 3 42 pddplink http://pagesperso-orange.fr/Paresys/ARGOPd/;
#X obj 3 57 pddplink http://gerard.paresys.free.fr/ARGOPd/;
#X restore 231 277 pd ??;
#X obj 100 206 sel 0.0001;
#X msg 100 234 0;
#X connect 3 0 4 0;
#X connect 4 0 1 0;
#X connect 5 0 8 0;
#X connect 5 0 14 0;
#X connect 6 0 5 0;
#X connect 7 0 6 0;
#X connect 8 0 7 0;
#X connect 14 0 18 0;
#X connect 18 0 19 0;
#X connect 18 1 4 1;
#X connect 19 0 4 1;
#X connect 19 0 7 0;
#X coords 0 -1 1 1 106 36 1 100 100;
#X restore 176 76 pd ARGO;
#N canvas 357 43 397 237 ARGO 0;
#X obj 40 -35 inlet~;
#X obj 101 102 cnv 12 198 18 empty empty empty 20 12 0 14 -262144 -1
1.04858e+06;
#X obj 101 102 cnv 4 10 4 empty empty empty 20 12 0 14 -1 -66577 0
;
#X msg -34 86 frgb 255 0 0;
#X obj 124 105 nbx 4 12 1 2000 0 1 empty ColorTime ms/div 40 7 1 9
-208064 -1 -1 7 256;
#X msg -22 54 range -1 1;
#X msg -37 110 brgb 255 255 255;
#X obj 86 64 * 2;
#X obj 41 -7 clip~ -1 1;
#X obj -31 -7 t b b b b;
#X msg -31 29 bufsize 176;
#X obj 196 -34 cnv 15 60 30 empty empty empty 20 12 0 14 -24198 -66577
0;
#N canvas 346 63 417 574 Help 0;
#X text 10 57 cf doc/examples/cyclone/scope-gop.pd;
#X text 10 113 cf MSP46ReferenceManual.pdf;
#X text 10 69 cf doc/examples/cyclone/scope-test.pd;
#X text 10 81 cf doc/examples/cyclone/scope-test1.pd;
#X text 10 46 cf doc/examples/cyclone/pink-test.pd;
#X text 10 26 cf extra/cyclone/Scope~-help.pd;
#X text 10 93 cf doc/examples/cyclone/scope-test2.pd;
#X obj 8 161 cnv 15 400 500 empty empty empty 20 12 0 14 -233017 -66577
0;
#X text 25 275 The word delay \, followed by a number \, sets the number
of milliseconds of delay before scope~ begins collecting values. After
a non-zero delay period \, scope~ enters a state in which it may wait
for a trigger condition to be satisfied in the input signal based on
the setting of the trigger state (set with the trigger message) and
trigger level (set with the triglevel message). By default \, the delay
is 0;
#X text 12 164 Citation (MSP46ReferenceManual.pdf);
#X text 25 391 trigger Sets the trigger mode. After a non-zero delay
period (set with the delay message) \, scope~ begins to wait for a
particular feature in the input signal before it begins collecting
samples. trigger 1 sets an upward trigger in which the signal must
go from being below the trigger level (default 0) to being equal to
it or above it. trigger 2 sets a downward trigger in which the signal
must go from being above the trigger level to being equal to it or
below it. The default trigger mode is 0 \, which does not wait after
a non-zero delay period before collecting samples again. This is sometimes
referred to as a line trigger mode.;
#X text 23 560 The word triglevel \, followed by a number \, sets the
trigger level \, used by trigger modes 1 and 2 The default trigger
level is 0 If you are displaying a waveform \, making slight changes
to the trigger level will move the waveform to the left or right inside
the scope~. It is possible to set the trigger level so that scope~
will never change the display.;
#X text 28 183 The word bufsize \, followed by a number \, changes
the number of samples stored in the buffer used by the scope~ object.
;
#X text 26 222 The word range \, followed by two numbers (float or
int) sets the minimum and maximum displayed signal amplitudes. The
default values are 1 to 1;
#X text 10 125 cf MSP46TutorialsAndTopics.pdf;
#X text 48 137 -> Tutorial 24: AnalysisOscilloscope;
#X text 10 -2 Clic sur la forme d'onde pour la figer.;
#X text 223 12 Click to freeze the waveform.;
#X text 11 -25 MM-Scope: utilise l'objet Scope~ de la library cyclone
;
#X restore 203 -28 pd Help;
#X obj 101 121 cnv 15 199 65 empty empty Scope 155 -10 1 14 -1 -1 0
;
#X obj 101 123 Scope~ 198 61 14 3 176 -1 1 1 0 1 0.435897 255 0 0 255
255 255 0;
#X msg -31 -32 bang;
#X text 250 82 9 2 2011;
#X obj 306 158 cnv 15 41 30 empty empty empty 20 12 0 14 -24198 -66577
0;
#N canvas 416 191 308 136 ?? 0;
#X obj -9 87 cnv 15 300 38 empty empty empty 20 12 0 14 -224896 -66577
0;
#X obj -9 10 cnv 18 300 70 empty empty ARGOPdMiniModules 1 10 1 14
-4033 -1 1.04858e+06;
#X obj 9 29 cnv 10 10 10 empty empty Gerard 0 5 1 9 -4033 -1 1.04858e+06
;
#X obj 40 29 cnv 10 10 10 empty empty Paresys 0 5 1 9 -4033 -1 1.04858e+06
;
#X text -8 89 Construit sous / Build under Pd 0.42.5-extended;
#X obj 39 105 pddplink http://puredata.info/downloads;
#X obj 3 42 pddplink http://pagesperso-orange.fr/Paresys/ARGOPd/;
#X obj 3 57 pddplink http://gerard.paresys.free.fr/ARGOPd/;
#X restore 310 165 pd ??;
#X obj 203 105 hsl 40 12 0 1 0 1 \$0-A \$0-B Sync 3 6 1 10 -262144
-1 -1 1700 1;
#X msg 121 63 delay 1 \, triglevel \$1 \, trigger 1;
#X connect 0 0 8 0;
#X connect 3 0 14 0;
#X connect 4 0 7 0;
#X connect 5 0 14 0;
#X connect 6 0 14 0;
#X connect 7 0 14 0;
#X connect 8 0 14 0;
#X connect 9 0 10 0;
#X connect 9 1 5 0;
#X connect 9 2 3 0;
#X connect 9 3 6 0;
#X connect 10 0 14 0;
#X connect 15 0 9 0;
#X connect 19 0 20 0;
#X connect 20 0 14 0;
#X coords 0 -1 1 1 200 86 2 100 100;
#X restore 207 172 pd ARGO;
#X obj 103 -155 cnv 15 360 66 empty empty empty 20 12 0 14 -258113
-66577 0;
#X text 106 -152 ATTENTION: Ce MiniModule ne peut pas être présent
à 2 exemplaires dans un même patch.;
#X text 106 -120 WARNING: This MiniModule can not be present at 2 copies
in a single patch.;
#X connect 10 0 19 0;
#X connect 12 0 11 0;
#X connect 19 0 0 0;
#X connect 19 0 18 0;
#X connect 19 0 0 1;
#X connect 19 0 20 0;
