#N canvas 360 42 619 353 10;
#N canvas 497 69 330 372 ARGO 0;
#X obj 101 101 cnv 20 104 34 empty ColorAmpli empty 20 12 0 14 -261299
-1 1.04858e+06;
#X obj 85 282 outlet~;
#X obj 134 104 cnv 10 20 10 empty ColorAmpli Ampli 1 5 1 14 -261299
-1 1.04858e+06;
#X obj 89 -62 inlet~;
#X obj 85 259 *~;
#X obj 103 118 hsl 101 12 0 1.25 0 1 \$0-A ColorAmpli 0dB 0 7 1 9 -261299
-1 -1 8000 0;
#X msg 117 76 label \$1;
#X obj 116 53 tosymbol;
#X obj 116 -40 * 80;
#X obj 116 -18 - 80;
#X obj 116 18 sprintf %ddB;
#X obj 101 101 cnv 4 10 4 empty empty empty 20 12 0 14 -1 -66577 0
;
#X obj 101 131 cnv 4 10 4 empty empty empty 20 12 0 14 -1 -66577 0
;
#X text 125 35 -> -80dB..20dB;
#X text 122 -1 -> -80 .. 20;
#X obj 195 101 cnv 4 10 4 empty empty empty 20 12 0 14 -1 -66577 0
;
#X obj 195 131 cnv 4 10 4 empty empty empty 20 12 0 14 -1 -66577 0
;
#X obj 210 281 outlet~;
#X obj 214 -63 inlet~;
#X obj 210 258 *~;
#X obj 34 106 cnv 15 41 30 empty empty empty 20 12 0 14 -24198 -66577
0;
#N canvas 363 389 381 103 ? 0;
#X obj 5 49 cnv 15 370 38 empty empty empty 20 12 0 14 -224896 -66577
0;
#X text 6 65 Voir/Look at: http://puredata.info/downloads;
#X obj 4 12 cnv 18 370 30 empty empty ARGOPdMiniModules 1 10 1 14 -4033
-1 1.04858e+06;
#X obj 7 31 cnv 10 10 10 empty empty Gerard 0 5 1 9 -4033 -1 1.04858e+06
;
#X obj 38 31 cnv 10 10 10 empty empty Paresys 0 5 1 9 -4033 -1 1.04858e+06
;
#X obj 175 20 cnv 10 10 10 empty empty http://pagesperso-orange.fr/Paresys/ARGOPd/
0 5 1 9 -4033 -1 1.04858e+06;
#X obj 175 31 cnv 10 10 10 empty empty http://gerard.paresys.free.fr/ARGOPd/
0 5 1 9 -4033 -1 1.04858e+06;
#X text 6 51 Construit sous / Build under Pd 0.41.4-extended;
#X restore 40 113 pd ?;
#X text 113 204 -> 1..100000;
#X text 156 234 -> 0.0001..10 = -80dB..20dB;
#X obj 100 144 t b f;
#X msg 100 167 10000;
#X obj 100 190 pow;
#X obj 100 222 / 10000;
#X text 142 154 -> 0 .. 1.2;
#X text 221 83 13 3 2010;
#X connect 3 0 4 0;
#X connect 4 0 1 0;
#X connect 5 0 8 0;
#X connect 5 0 24 0;
#X connect 6 0 5 0;
#X connect 7 0 6 0;
#X connect 8 0 9 0;
#X connect 9 0 10 0;
#X connect 10 0 7 0;
#X connect 18 0 19 0;
#X connect 19 0 17 0;
#X connect 24 0 25 0;
#X connect 24 1 26 1;
#X connect 25 0 26 0;
#X connect 26 0 27 0;
#X connect 27 0 4 1;
#X connect 27 0 19 1;
#X coords 0 -1 1 1 106 36 1 100 100;
#X restore 153 275 pd ARGO;
#X obj 176 328 dac~ 1 2;
#X obj 533 301 cnv 15 41 30 empty empty empty 20 12 0 14 -24198 -66577
0;
#N canvas 350 196 381 103 ? 0;
#X obj 5 49 cnv 15 370 38 empty empty empty 20 12 0 14 -224896 -66577
0;
#X text 6 65 Voir/Look at: http://puredata.info/downloads;
#X obj 4 12 cnv 18 370 30 empty empty ARGOPdMiniModules 1 10 1 14 -4033
-1 1.04858e+06;
#X obj 7 31 cnv 10 10 10 empty empty Gerard 0 5 1 9 -4033 -1 1.04858e+06
;
#X obj 38 31 cnv 10 10 10 empty empty Paresys 0 5 1 9 -4033 -1 1.04858e+06
;
#X obj 175 20 cnv 10 10 10 empty empty http://pagesperso-orange.fr/Paresys/ARGOPd/
0 5 1 9 -4033 -1 1.04858e+06;
#X obj 175 31 cnv 10 10 10 empty empty http://gerard.paresys.free.fr/ARGOPd/
0 5 1 9 -4033 -1 1.04858e+06;
#X text 6 51 Construit sous / Build under Pd 0.41.4-extended;
#X restore 539 308 pd ?;
#X obj 315 80 switch~;
#X text 308 28 On/Off patch;
#X text 320 46 V;
#X text 320 39 |;
#X obj -13 33 cnv 15 300 24 empty empty empty 20 12 0 14 -261682 -66577
0;
#X obj -6 38 bng 15 250 50 0 empty empty empty 17 7 0 10 -262144 -1
-1;
#X text 14 41 <- Bang to start the reading of the file;
#X obj 292 118 cnv 15 190 24 empty empty empty 20 12 0 14 -261682 -66577
0;
#X text 293 116 -> Bang à la fin du fichier;
#X text 293 126 -> Bang at the end of the file;
#X text 45 284 Niveau general ->;
#X text 51 294 General level ->;
#X text 13 31 <- Bang pour démarrer la lecture du fichier;
#X text 432 171 Delay = Retard;
#N canvas 278 65 720 479 ARGO 0;
#X obj 368 103 cnv 10 20 10 empty empty Play 1 5 1 14 -262144 -1 1.04858e+06
;
#X obj 101 131 cnv 4 10 4 empty empty empty 20 12 0 14 -1 -66577 0
;
#X obj 81 425 outlet~;
#X obj 219 30 openpanel;
#X msg 212 341 1;
#X msg 141 315 0;
#X msg 247 76 set \$1;
#X msg 242 366 open \$1;
#X obj 183 289 t b b;
#X msg 328 376 set 0;
#X obj 177 193 sel 1 0;
#X floatatom 230 231 5 0 0 0 - - -;
#X msg 230 208 set \$1;
#X obj 204 261 sel 1;
#X msg 116 359 set 1;
#X obj 143 6 key;
#X obj 144 29 select 32;
#X obj 37 8 loadbang;
#X obj 226 393 readsf~ 2;
#X obj 274 312 list2symbol;
#X obj 242 341 symbol;
#X obj 220 50 t b s;
#X text 369 321 avec espace;
#X text 351 309 -> pour les noms de fichier;
#X obj 151 101 tgl 12 1 \$0-A \$0-B Play(Space) 14 6 1 9 -262144 -1
-1 0 1;
#X obj 311 101 bng 12 250 50 0 \$0-A \$0-B Stop 14 6 1 9 -262144 -1
-1;
#X obj 249 101 tgl 12 1 \$0-A \$0-B Loop 15 6 1 9 -262144 -1 -1 0 1
;
#X obj 251 425 outlet~;
#X obj 243 131 cnv 4 10 4 empty empty empty 20 12 0 14 -1 -66577 0
;
#X msg 49 113 set \$1;
#X obj 53 195 list2symbol;
#X obj 37 42 t b b;
#X obj 100 101 bng 12 250 50 0 \$0-A \$0-B empty 14 6 1 9 -262144 -1
-1;
#X obj 174 317 delay 5;
#X text 346 63 Les canaux 3 \, 4... d'un fichier Audio de plus de 2
canaux ne sont pas lus.;
#X text 296 235 Channels 3 \, 4... of an Audio file of more than 2
channels are not read.;
#X text 346 36 Lit un fichier Audio Stereo (2 canaux).;
#X text 346 49 Le canal d'un fichier Audio Mono est lu sur la sortie
gauche;
#X text 296 221 A Mono Audio file is read on the left output.;
#X obj 504 83 cnv 15 60 30 empty empty empty 20 12 0 14 -24198 -66577
0;
#N canvas 294 22 563 525 Help 0;
#X obj 8 103 cnv 15 400 100 empty empty empty 20 12 0 14 -233017 -66577
0;
#X text 11 102 Citation;
#X obj 8 348 cnv 15 550 200 empty empty empty 20 12 0 14 -258113 -66577
0;
#X text 10 -23 - Ne lit pas un fichier au format mp3 \, SoundDesigner
II (.SDII ou .SD2);
#X text 27 48 error: soundfiler_read: x.aiff: unknown or bad header
format;
#X text 14 72 Solution: ouvrir puis sauver le fichier au format aiff
avec Audacity;
#X text 13 9 - Ne lit pas un fichier au format aiff "Entier petit boutien"
comme les pistes d'un CD Audio copiées avec le finder du Mac. Les messages
d'erreur s'affichent:;
#X text 27 59 error: dsp: xxx.aiff: unknown or bad header format;
#X text 9 -42 - Lit un fichier Audio au format aiff \, wave;
#X text 30 118 READSF~ - read a soundfile;
#X text 29 136 The wave \, aiff \, and nextstep formats are parsed
automatically \, although only 2- 3- and 4- byte samples are accepted
(4 bytes implies floating point and is not available in aiff format.)
;
#X text 22 513 Erreur dans la fenêtre Pd:;
#X text 11 208 - Si le Patch est sauvé avec 1 Player contenant un nom
de fichier Audio \, ce fichier sera lu automatiquement à la prochaine
ouverture s'il n'a pas changé d'emplacement.;
#X text 186 466 If the sample rate of pd is set to 44100 \, files having
the sample rates of 44100 are correctly played \, other files will
be transposed.;
#X text 188 439 WARNING The sample rate of the output depends on the
system sample rate of pd:;
#X text 16 355 - ATTENTION Le taux d'échantillonnage de la lecture
du fichier dépends du taux d'échantillonnage de Pd.;
#X text 28 382 Si le taux d'échantillonnage de Pd est de 44100 (Menu
Preferences -> Audio Settings...) \, les fichiers échantillonnés à
44100 Hz sont lus correctement \, sinon ils sont transposés.;
#X text 11 249 - Peut Ouvrir automatiquement 1 fichier Audio qui se
trouve dans le même dossier que lui \, quelquesoit l'emplacement du
dossier. Pour cela ouvrir le module et taper le nom du fichier (sans
chemin d'accés) dans le message. Sauver le patch. Fermer le patch.
Ré-ouvrir le patch. Le dossier contenant le patch et le fichier Audio
est ainsi transportable.;
#X restore 511 89 pd Help;
#X text 75 81 Trig Decl;
#X obj 105 115 hradio 14 1 0 19 empty empty empty 0 6 0 8 -262144 -1
-1 0;
#X obj 219 8 bang;
#X text 405 114 <- Click the name to change;
#X symbolatom 101 114 47 0 0 0 - - -;
#X obj 49 140 cnv 15 400 50 empty empty empty 20 12 0 14 -260097 -66577
0;
#X text 51 139 Nom du fichier / File name;
#X obj 101 101 cnv 4 10 4 empty empty empty 20 12 0 14 -260097 -66577
0;
#X text 88 70 bang;
#X text 297 207 Reads an Stereo Audio file (2 channels).;
#X obj 663 407 cnv 15 41 30 empty empty empty 20 12 0 14 -24198 -66577
0;
#N canvas 350 196 381 103 ? 0;
#X obj 5 49 cnv 15 370 38 empty empty empty 20 12 0 14 -224896 -66577
0;
#X text 6 65 Voir/Look at: http://puredata.info/downloads;
#X obj 4 12 cnv 18 370 30 empty empty ARGOPdMiniModules 1 10 1 14 -4033
-1 1.04858e+06;
#X obj 7 31 cnv 10 10 10 empty empty Gerard 0 5 1 9 -4033 -1 1.04858e+06
;
#X obj 38 31 cnv 10 10 10 empty empty Paresys 0 5 1 9 -4033 -1 1.04858e+06
;
#X obj 175 20 cnv 10 10 10 empty empty http://pagesperso-orange.fr/Paresys/ARGOPd/
0 5 1 9 -4033 -1 1.04858e+06;
#X obj 175 31 cnv 10 10 10 empty empty http://gerard.paresys.free.fr/ARGOPd/
0 5 1 9 -4033 -1 1.04858e+06;
#X text 6 51 Construit sous / Build under Pd 0.41.4-extended;
#X restore 669 414 pd ?;
#X obj 387 123 bng 12 250 50 0 \$0-A \$0-B empty 14 6 1 9 -262144 -1
-1;
#X obj 388 131 cnv 4 10 4 empty empty empty 20 12 0 14 -260097 -66577
0;
#X text 403 96 9 5 2010;
#X obj 100 -21 cnv 15 400 24 empty empty empty 20 12 0 14 -261682 -66577
0;
#X obj 102 -18 inlet;
#X obj 366 421 cnv 15 240 24 empty empty empty 20 12 0 14 -261682 -66577
0;
#X text 416 419 -> Bang à la fin du fichier;
#X text 417 429 -> Bang at the end of the file;
#X obj 371 425 outlet;
#X obj 283 7 r \$0-SendOnOff;
#X obj 283 30 select 0;
#X text 139 -23 <- N'importe quel message déclenche la lecture du fichier
;
#X text 140 -13 <- Anything message trigs the reading of the file;
#X msg 54 155 13.aiff;
#X connect 3 0 21 0;
#X connect 4 0 18 0;
#X connect 5 0 18 0;
#X connect 6 0 45 0;
#X connect 7 0 18 0;
#X connect 8 0 33 0;
#X connect 8 1 20 0;
#X connect 9 0 24 0;
#X connect 10 0 8 0;
#X connect 10 1 9 0;
#X connect 10 1 5 0;
#X connect 11 0 13 0;
#X connect 12 0 11 0;
#X connect 13 0 32 0;
#X connect 14 0 24 0;
#X connect 15 0 16 0;
#X connect 16 0 24 0;
#X connect 17 0 31 0;
#X connect 18 0 2 0;
#X connect 18 1 27 0;
#X connect 18 2 11 0;
#X connect 18 2 9 0;
#X connect 18 2 53 0;
#X connect 19 0 20 1;
#X connect 20 0 7 0;
#X connect 21 0 45 0;
#X connect 21 1 6 0;
#X connect 24 0 10 0;
#X connect 25 0 5 0;
#X connect 25 0 9 0;
#X connect 26 0 12 0;
#X connect 29 0 66 0;
#X connect 30 0 6 0;
#X connect 31 0 45 0;
#X connect 31 1 66 0;
#X connect 32 0 8 0;
#X connect 33 0 4 0;
#X connect 33 0 14 0;
#X connect 42 0 43 0;
#X connect 43 0 3 0;
#X connect 45 0 19 0;
#X connect 45 0 29 0;
#X connect 53 0 61 0;
#X connect 57 0 32 0;
#X connect 62 0 63 0;
#X connect 63 0 25 0;
#X connect 66 0 30 0;
#X coords 0 -1 1 1 300 36 2 100 100;
#X restore -6 71 pd ARGO;
#N canvas 278 65 720 479 ARGO 0;
#X obj 368 103 cnv 10 20 10 empty empty Play 1 5 1 14 -262144 -1 1.04858e+06
;
#X obj 101 131 cnv 4 10 4 empty empty empty 20 12 0 14 -1 -66577 0
;
#X obj 81 425 outlet~;
#X obj 219 30 openpanel;
#X msg 212 341 1;
#X msg 141 315 0;
#X msg 247 76 set \$1;
#X msg 242 366 open \$1;
#X obj 183 289 t b b;
#X msg 328 376 set 0;
#X obj 177 193 sel 1 0;
#X floatatom 230 231 5 0 0 0 - - -;
#X msg 230 208 set \$1;
#X obj 204 261 sel 1;
#X msg 116 359 set 1;
#X obj 143 6 key;
#X obj 144 29 select 32;
#X obj 37 8 loadbang;
#X obj 226 393 readsf~ 2;
#X obj 274 312 list2symbol;
#X obj 242 341 symbol;
#X obj 220 50 t b s;
#X text 369 321 avec espace;
#X text 351 309 -> pour les noms de fichier;
#X obj 151 101 tgl 12 1 \$0-A \$0-B Play(Space) 14 6 1 9 -262144 -1
-1 0 1;
#X obj 311 101 bng 12 250 50 0 \$0-A \$0-B Stop 14 6 1 9 -262144 -1
-1;
#X obj 249 101 tgl 12 1 \$0-A \$0-B Loop 15 6 1 9 -262144 -1 -1 0 1
;
#X obj 251 425 outlet~;
#X obj 243 131 cnv 4 10 4 empty empty empty 20 12 0 14 -1 -66577 0
;
#X msg 49 113 set \$1;
#X obj 53 195 list2symbol;
#X obj 37 42 t b b;
#X obj 100 101 bng 12 250 50 0 \$0-A \$0-B empty 14 6 1 9 -262144 -1
-1;
#X obj 174 317 delay 5;
#X text 346 63 Les canaux 3 \, 4... d'un fichier Audio de plus de 2
canaux ne sont pas lus.;
#X text 296 235 Channels 3 \, 4... of an Audio file of more than 2
channels are not read.;
#X text 346 36 Lit un fichier Audio Stereo (2 canaux).;
#X text 346 49 Le canal d'un fichier Audio Mono est lu sur la sortie
gauche;
#X text 296 221 A Mono Audio file is read on the left output.;
#X obj 504 83 cnv 15 60 30 empty empty empty 20 12 0 14 -24198 -66577
0;
#N canvas 294 22 563 525 Help 0;
#X obj 8 103 cnv 15 400 100 empty empty empty 20 12 0 14 -233017 -66577
0;
#X text 11 102 Citation;
#X obj 8 348 cnv 15 550 200 empty empty empty 20 12 0 14 -258113 -66577
0;
#X text 10 -23 - Ne lit pas un fichier au format mp3 \, SoundDesigner
II (.SDII ou .SD2);
#X text 27 48 error: soundfiler_read: x.aiff: unknown or bad header
format;
#X text 14 72 Solution: ouvrir puis sauver le fichier au format aiff
avec Audacity;
#X text 13 9 - Ne lit pas un fichier au format aiff "Entier petit boutien"
comme les pistes d'un CD Audio copiées avec le finder du Mac. Les messages
d'erreur s'affichent:;
#X text 27 59 error: dsp: xxx.aiff: unknown or bad header format;
#X text 9 -42 - Lit un fichier Audio au format aiff \, wave;
#X text 30 118 READSF~ - read a soundfile;
#X text 29 136 The wave \, aiff \, and nextstep formats are parsed
automatically \, although only 2- 3- and 4- byte samples are accepted
(4 bytes implies floating point and is not available in aiff format.)
;
#X text 22 513 Erreur dans la fenêtre Pd:;
#X text 11 208 - Si le Patch est sauvé avec 1 Player contenant un nom
de fichier Audio \, ce fichier sera lu automatiquement à la prochaine
ouverture s'il n'a pas changé d'emplacement.;
#X text 186 466 If the sample rate of pd is set to 44100 \, files having
the sample rates of 44100 are correctly played \, other files will
be transposed.;
#X text 188 439 WARNING The sample rate of the output depends on the
system sample rate of pd:;
#X text 16 355 - ATTENTION Le taux d'échantillonnage de la lecture
du fichier dépends du taux d'échantillonnage de Pd.;
#X text 28 382 Si le taux d'échantillonnage de Pd est de 44100 (Menu
Preferences -> Audio Settings...) \, les fichiers échantillonnés à
44100 Hz sont lus correctement \, sinon ils sont transposés.;
#X text 11 249 - Peut Ouvrir automatiquement 1 fichier Audio qui se
trouve dans le même dossier que lui \, quelquesoit l'emplacement du
dossier. Pour cela ouvrir le module et taper le nom du fichier (sans
chemin d'accés) dans le message. Sauver le patch. Fermer le patch.
Ré-ouvrir le patch. Le dossier contenant le patch et le fichier Audio
est ainsi transportable.;
#X restore 511 89 pd Help;
#X text 75 81 Trig Decl;
#X obj 105 115 hradio 14 1 0 19 empty empty empty 0 6 0 8 -262144 -1
-1 0;
#X obj 219 8 bang;
#X text 405 114 <- Click the name to change;
#X symbolatom 101 114 47 0 0 0 - - -;
#X obj 49 140 cnv 15 400 50 empty empty empty 20 12 0 14 -260097 -66577
0;
#X text 51 139 Nom du fichier / File name;
#X obj 101 101 cnv 4 10 4 empty empty empty 20 12 0 14 -260097 -66577
0;
#X text 88 70 bang;
#X text 297 207 Reads an Stereo Audio file (2 channels).;
#X obj 663 407 cnv 15 41 30 empty empty empty 20 12 0 14 -24198 -66577
0;
#N canvas 350 196 381 103 ? 0;
#X obj 5 49 cnv 15 370 38 empty empty empty 20 12 0 14 -224896 -66577
0;
#X text 6 65 Voir/Look at: http://puredata.info/downloads;
#X obj 4 12 cnv 18 370 30 empty empty ARGOPdMiniModules 1 10 1 14 -4033
-1 1.04858e+06;
#X obj 7 31 cnv 10 10 10 empty empty Gerard 0 5 1 9 -4033 -1 1.04858e+06
;
#X obj 38 31 cnv 10 10 10 empty empty Paresys 0 5 1 9 -4033 -1 1.04858e+06
;
#X obj 175 20 cnv 10 10 10 empty empty http://pagesperso-orange.fr/Paresys/ARGOPd/
0 5 1 9 -4033 -1 1.04858e+06;
#X obj 175 31 cnv 10 10 10 empty empty http://gerard.paresys.free.fr/ARGOPd/
0 5 1 9 -4033 -1 1.04858e+06;
#X text 6 51 Construit sous / Build under Pd 0.41.4-extended;
#X restore 669 414 pd ?;
#X obj 387 123 bng 12 250 50 0 \$0-A \$0-B empty 14 6 1 9 -262144 -1
-1;
#X obj 388 131 cnv 4 10 4 empty empty empty 20 12 0 14 -260097 -66577
0;
#X text 403 96 9 5 2010;
#X obj 100 -21 cnv 15 400 24 empty empty empty 20 12 0 14 -261682 -66577
0;
#X obj 102 -18 inlet;
#X obj 366 421 cnv 15 240 24 empty empty empty 20 12 0 14 -261682 -66577
0;
#X text 416 419 -> Bang à la fin du fichier;
#X text 417 429 -> Bang at the end of the file;
#X obj 371 425 outlet;
#X obj 283 7 r \$0-SendOnOff;
#X obj 283 30 select 0;
#X text 139 -23 <- N'importe quel message déclenche la lecture du fichier
;
#X text 140 -13 <- Anything message trigs the reading of the file;
#X msg 54 155 12Court.wav;
#X connect 3 0 21 0;
#X connect 4 0 18 0;
#X connect 5 0 18 0;
#X connect 6 0 45 0;
#X connect 7 0 18 0;
#X connect 8 0 33 0;
#X connect 8 1 20 0;
#X connect 9 0 24 0;
#X connect 10 0 8 0;
#X connect 10 1 9 0;
#X connect 10 1 5 0;
#X connect 11 0 13 0;
#X connect 12 0 11 0;
#X connect 13 0 32 0;
#X connect 14 0 24 0;
#X connect 15 0 16 0;
#X connect 16 0 24 0;
#X connect 17 0 31 0;
#X connect 18 0 2 0;
#X connect 18 1 27 0;
#X connect 18 2 11 0;
#X connect 18 2 9 0;
#X connect 18 2 53 0;
#X connect 19 0 20 1;
#X connect 20 0 7 0;
#X connect 21 0 45 0;
#X connect 21 1 6 0;
#X connect 24 0 10 0;
#X connect 25 0 5 0;
#X connect 25 0 9 0;
#X connect 26 0 12 0;
#X connect 29 0 66 0;
#X connect 30 0 6 0;
#X connect 31 0 45 0;
#X connect 31 1 66 0;
#X connect 32 0 8 0;
#X connect 33 0 4 0;
#X connect 33 0 14 0;
#X connect 42 0 43 0;
#X connect 43 0 3 0;
#X connect 45 0 19 0;
#X connect 45 0 29 0;
#X connect 53 0 61 0;
#X connect 57 0 32 0;
#X connect 62 0 63 0;
#X connect 63 0 25 0;
#X connect 66 0 30 0;
#X coords 0 -1 1 1 300 36 2 100 100;
#X restore 288 215 pd ARGO;
#N canvas 312 168 336 264 ARGO 0;
#X obj 101 101 cnv 10 139 15 empty ColorForm empty 20 12 0 14 -208064
-1 1.04858e+06;
#X obj 101 112 cnv 4 10 4 empty empty empty 20 12 0 14 -1 -66577 0
;
#X obj 100 100 nbx 6 12 0 999999 0 1 \$0-A ColorTime ms 53 7 1 9 -208064
-1 -1 6000 256;
#X obj 85 231 outlet~;
#X obj 115 125 t b f;
#X obj 128 175 /;
#X obj 167 105 cnv 10 65 10 empty ColorTime Oscill 1 5 1 14 -208064
-1 1.04858e+06;
#X obj 203 105 cnv 10 10 10 empty ColorTime Sinus 1 5 1 14 -208064
-1 1.04858e+06;
#X obj 259 140 cnv 15 41 30 empty empty empty 20 12 0 14 -24198 -66577
0;
#N canvas 350 196 381 103 ? 0;
#X obj 5 49 cnv 15 370 38 empty empty empty 20 12 0 14 -224896 -66577
0;
#X text 6 65 Voir/Look at: http://puredata.info/downloads;
#X obj 4 12 cnv 18 370 30 empty empty ARGOPdMiniModules 1 10 1 14 -4033
-1 1.04858e+06;
#X obj 7 31 cnv 10 10 10 empty empty Gerard 0 5 1 9 -4033 -1 1.04858e+06
;
#X obj 38 31 cnv 10 10 10 empty empty Paresys 0 5 1 9 -4033 -1 1.04858e+06
;
#X obj 175 20 cnv 10 10 10 empty empty http://pagesperso-orange.fr/Paresys/ARGOPd/
0 5 1 9 -4033 -1 1.04858e+06;
#X obj 175 31 cnv 10 10 10 empty empty http://gerard.paresys.free.fr/ARGOPd/
0 5 1 9 -4033 -1 1.04858e+06;
#X text 6 51 Construit sous / Build under Pd 0.41.4-extended;
#X restore 265 147 pd ?;
#X obj 257 97 cnv 15 60 30 empty empty empty 20 12 0 14 -24198 -66577
0;
#N canvas 161 113 425 238 Help 0;
#X obj 8 85 cnv 15 400 100 empty empty empty 20 12 0 14 -233017 -66577
0;
#X text 12 87 Citation;
#X text 10 6 Oscillateur sinusoïdal;
#X text 22 106 The osc~ object outputs a cosine wave. If no argument
is supplied \, the input is taken to be an audio signal.;
#X text 12 21 freq(Hz) = 1 / Periode (sec);
#X text 11 39 freq(Hz) = 1000 / Periode (ms);
#X restore 264 103 pd Help;
#X text 178 82 13 12 2009;
#X obj 128 199 osc~ 1000;
#X msg 115 151 1000;
#X connect 2 0 4 0;
#X connect 4 0 14 0;
#X connect 4 1 5 1;
#X connect 5 0 13 0;
#X connect 13 0 3 0;
#X connect 14 0 5 0;
#X coords 0 -1 1 1 141 17 1 100 100;
#X restore 427 31 pd ARGO;
#N canvas 162 72 308 371 ARGO 0;
#X obj 101 101 cnv 20 104 34 empty ColorAmpli empty 20 12 0 14 -261299
-1 1.04858e+06;
#X obj 85 278 outlet~;
#X obj 134 104 cnv 10 20 10 empty ColorAmpli Ampli 1 5 1 14 -261299
-1 1.04858e+06;
#X obj 86 -69 inlet~;
#X obj 85 253 *~;
#X obj 103 118 hsl 101 12 0 1.25 0 1 \$0-A ColorAmpli -14dB 0 7 1 9
-261299 -1 -1 6600 0;
#X msg 134 75 label \$1;
#X obj 133 52 tosymbol;
#X obj 134 -47 * 80;
#X obj 134 -25 - 80;
#X obj 133 17 sprintf %ddB;
#X obj 101 101 cnv 4 10 4 empty empty empty 20 12 0 14 -1 -66577 0
;
#X obj 101 131 cnv 4 10 4 empty empty empty 20 12 0 14 -1 -66577 0
;
#X text 142 34 -> -80dB..20dB;
#X text 139 -2 -> -80 .. 20;
#X text 109 203 -> 1..100000;
#X text 109 237 -> 0.0001..10 = -80dB..20dB;
#X obj 20 103 cnv 15 41 30 empty empty empty 20 12 0 14 -24198 -66577
0;
#N canvas 363 389 381 103 ? 0;
#X obj 5 49 cnv 15 370 38 empty empty empty 20 12 0 14 -224896 -66577
0;
#X text 6 65 Voir/Look at: http://puredata.info/downloads;
#X obj 4 12 cnv 18 370 30 empty empty ARGOPdMiniModules 1 10 1 14 -4033
-1 1.04858e+06;
#X obj 7 31 cnv 10 10 10 empty empty Gerard 0 5 1 9 -4033 -1 1.04858e+06
;
#X obj 38 31 cnv 10 10 10 empty empty Paresys 0 5 1 9 -4033 -1 1.04858e+06
;
#X obj 175 20 cnv 10 10 10 empty empty http://pagesperso-orange.fr/Paresys/ARGOPd/
0 5 1 9 -4033 -1 1.04858e+06;
#X obj 175 31 cnv 10 10 10 empty empty http://gerard.paresys.free.fr/ARGOPd/
0 5 1 9 -4033 -1 1.04858e+06;
#X text 6 51 Construit sous / Build under Pd 0.41.4-extended;
#X restore 26 110 pd ?;
#X obj 100 143 t b f;
#X msg 100 166 10000;
#X obj 100 189 pow;
#X obj 100 221 / 10000;
#X text 209 97 13 3 2010;
#X text 142 153 -> 0 .. 1.2;
#X connect 3 0 4 0;
#X connect 4 0 1 0;
#X connect 5 0 8 0;
#X connect 5 0 19 0;
#X connect 6 0 5 0;
#X connect 7 0 6 0;
#X connect 8 0 9 0;
#X connect 9 0 10 0;
#X connect 10 0 7 0;
#X connect 19 0 20 0;
#X connect 19 1 21 1;
#X connect 20 0 21 0;
#X connect 21 0 22 0;
#X connect 22 0 4 1;
#X coords 0 -1 1 1 106 36 1 100 100;
#X restore 427 60 pd ARGO;
#X obj -21 7 cnv 15 15 15 empty empty ExMM43g-PlayerBang-Ctrl.pd 0
8 1 14 -262144 -1 0;
#X obj 133 152 cnv 15 170 24 empty empty empty 20 12 0 14 -261682 -66577
0;
#X text 133 159 Input anything message ->;
#X text 133 149 N'importe quel message ->;
#N canvas 422 111 424 273 ARGO 0;
#X obj 292 221 cnv 15 41 30 empty empty empty 20 12 0 14 -24198 -66577
0;
#N canvas 350 196 381 103 ? 0;
#X obj 5 49 cnv 15 370 38 empty empty empty 20 12 0 14 -224896 -66577
0;
#X text 6 65 Voir/Look at: http://puredata.info/downloads;
#X obj 4 12 cnv 18 370 30 empty empty ARGOPdMiniModules 1 10 1 14 -4033
-1 1.04858e+06;
#X obj 7 31 cnv 10 10 10 empty empty Gerard 0 5 1 9 -4033 -1 1.04858e+06
;
#X obj 38 31 cnv 10 10 10 empty empty Paresys 0 5 1 9 -4033 -1 1.04858e+06
;
#X obj 175 20 cnv 10 10 10 empty empty http://pagesperso-orange.fr/Paresys/ARGOPd/
0 5 1 9 -4033 -1 1.04858e+06;
#X obj 175 31 cnv 10 10 10 empty empty http://gerard.paresys.free.fr/ARGOPd/
0 5 1 9 -4033 -1 1.04858e+06;
#X text 6 51 Construit sous / Build under Pd 0.41.4-extended;
#X restore 298 228 pd ?;
#X obj 95 233 cnv 15 170 24 empty empty empty 20 12 0 14 -261682 -66577
0;
#X obj 100 237 outlet;
#X obj 101 101 cnv 10 132 36 empty ColorForm Delay 85 7 1 14 -208064
-1 1.04858e+06;
#X obj 144 101 tgl 12 1 \$0-A \$0-B Play 14 6 1 9 -262144 -1 -1 0 1
;
#X obj 192 125 bng 12 250 50 0 \$0-A \$0-B Stop 15 7 1 9 -262144 -1
-1;
#X obj 144 125 tgl 12 1 \$0-A \$0-B Loop 15 6 1 9 -262144 -1 -1 0 1
;
#X obj 100 101 bng 12 250 50 0 \$0-A \$0-B empty 14 6 1 9 -262144 -1
-1;
#X obj 101 101 cnv 4 10 4 empty empty empty 20 12 0 14 -260097 -66577
0;
#X obj 100 125 bng 12 250 50 0 \$0-A \$0-B empty 14 6 1 9 -262144 -1
-1;
#X obj 101 133 cnv 4 10 4 empty empty empty 20 12 0 14 -260097 -66577
0;
#X obj 131 177 sel 1;
#X obj 131 149 int;
#X msg -61 176 stop;
#X obj -27 201 delay 1000;
#X msg 145 69 1;
#X obj -45 153 sel 0 1;
#X msg 179 69 0;
#X obj -27 225 t b b;
#X obj 223 101 cnv 4 10 4 empty empty empty 20 12 0 14 -1728 -66577
0;
#X obj 103 113 hsl 129 12 0 1 0 1 empty ColorTime empty 0 7 1 9 -262144
-1 -1 5000 0;
#X obj 215 28 inlet~;
#X obj 103 113 hsl 129 12 0 1 0 0 empty ColorTime 250ms 0 7 1 9 -208064
-1728 -1 5486 0;
#N canvas 649 119 303 389 Timems 0;
#X msg 144 261 set \$1;
#X obj 3 51 +~;
#X obj 89 300 outlet;
#X obj 102 88 snapshot~;
#X obj 144 116 change;
#X obj 62 -14 inlet;
#X obj -32 -14 inlet~;
#X msg 61 264 label \$1;
#X obj 61 242 tosymbol;
#X obj 102 -13 loadbang;
#X obj 102 51 metro 200;
#X obj 159 -13 r SendFluid;
#X obj -33 17 *~ 1.90476;
#X text 86 314 Hslider;
#X text 93 328 Over;
#X text 62 -44 Hslider;
#X text 64 -33 Under;
#X obj 61 133 * 126;
#X obj 61 176 mtof;
#X obj 61 197 clip 0 20000;
#X obj 61 220 sprintf %dms;
#X obj 61 154 + 10;
#X obj 37 51 metro 10;
#X obj -22 89 snapshot~;
#X obj -22 111 change;
#X obj -20 298 outlet;
#X obj -22 133 * 126;
#X obj -22 176 mtof;
#X obj -22 197 clip 0 20000;
#X obj -22 154 + 10;
#X connect 0 0 2 0;
#X connect 1 0 3 0;
#X connect 1 0 23 0;
#X connect 3 0 4 0;
#X connect 4 0 0 0;
#X connect 5 0 1 1;
#X connect 5 0 17 0;
#X connect 6 0 12 0;
#X connect 7 0 2 0;
#X connect 8 0 7 0;
#X connect 9 0 10 0;
#X connect 9 0 22 0;
#X connect 10 0 3 0;
#X connect 11 0 10 1;
#X connect 12 0 1 0;
#X connect 17 0 21 0;
#X connect 18 0 19 0;
#X connect 19 0 20 0;
#X connect 20 0 8 0;
#X connect 21 0 18 0;
#X connect 22 0 23 0;
#X connect 23 0 24 0;
#X connect 24 0 26 0;
#X connect 26 0 29 0;
#X connect 27 0 28 0;
#X connect 28 0 25 0;
#X connect 29 0 27 0;
#X restore 25 112 pd Timems;
#X text 236 115 2 HSLIDER superposés;
#X text 235 104 ATTENTION;
#X text 210 85 10 5 2010;
#X obj 253 168 cnv 15 60 30 empty empty empty 20 12 0 14 -24198 -66577
0;
#N canvas 400 134 418 133 Help 0;
#X text 9 25 Delay = Retard;
#X text 10 51 Un "Bang" sort du MM Delay \, X msec aprés n'importe
quel message reçu à l'entrée.;
#X text 8 83 A "Bang" outputs the MM Delay \, X msec after anything
message received at the input.;
#X restore 260 174 pd Help;
#X obj -54 25 cnv 15 170 24 empty empty empty 20 12 0 14 -261682 -66577
0;
#X obj 268 28 r \$0-SendOnOff;
#X obj 268 54 select 0;
#X text -54 32 Input anything message ->;
#X text -54 22 N'importe quel message ->;
#X text 145 231 -> Bang;
#X text 146 241 -> Bang;
#X obj 101 28 inlet;
#X text -54 5 Delay = Retard;
#X connect 5 0 17 0;
#X connect 6 0 18 0;
#X connect 7 0 13 1;
#X connect 8 0 16 0;
#X connect 10 0 3 0;
#X connect 10 0 13 0;
#X connect 12 0 8 0;
#X connect 13 0 12 0;
#X connect 14 0 15 0;
#X connect 15 0 19 0;
#X connect 16 0 5 0;
#X connect 17 0 14 0;
#X connect 17 1 15 0;
#X connect 18 0 5 0;
#X connect 19 0 10 0;
#X connect 19 1 18 0;
#X connect 21 0 24 1;
#X connect 22 0 24 0;
#X connect 24 0 15 1;
#X connect 24 1 23 0;
#X connect 31 0 32 0;
#X connect 32 0 6 0;
#X connect 37 0 8 0;
#X coords 0 -1 1 1 134 38 2 100 100;
#X restore 288 158 pd ARGO;
#N canvas 608 166 249 182 ARGOnOff 0;
#X obj 100 100 tgl 18 1 \$0-SendOnOff \$0-ReceiveOnOff On/Off 20 9
0 12 -4033 -1 -1 1 1;
#X obj 99 39 loadbang;
#X msg 99 62 \; pd dsp 1;
#X obj 100 129 outlet;
#X connect 0 0 3 0;
#X connect 1 0 2 0;
#X coords 0 -1 1 1 65 18 2 100 100;
#X restore 315 62 pd ARGOnOff;
#X connect 0 0 1 0;
#X connect 0 1 1 1;
#X connect 9 0 18 0;
#X connect 18 0 0 0;
#X connect 18 1 0 0;
#X connect 18 2 26 0;
#X connect 19 0 0 1;
#X connect 19 1 0 1;
#X connect 19 2 9 0;
#X connect 20 0 21 0;
#X connect 21 0 26 1;
#X connect 26 0 19 0;
#X connect 27 0 4 0;
