#N canvas 587 23 574 332 10;
#N canvas 673 67 364 57 \$0-name_dialog 0;
#X text -60 0 Hi! Type to enter your name! Press enter to submit or
press esc to restart.;
#X obj 0 40 cnv 15 1 1 empty 1002-canvas-0 empty 0 0 1 14 -262144 -1
0;
#X restore 390 53 pd \$0-name_dialog;
#N canvas 199 35 1148 575 implementation 0;
#X obj 60 47 key;
#X floatatom 94 64 5 0 0 0 - - -;
#N canvas 823 649 575 178 dynamic_makefilename 0;
#X obj 18 8 inlet;
#X obj 175 8 inlet;
#X obj 18 150 outlet;
#N canvas 574 601 450 300 \$0-makefilename_shell 0;
#X obj 10 58 outlet;
#X obj 6 4 inlet;
#N canvas 435 311 121 82 \$0-makefilename_guts 0;
#X obj 0 0 inlet;
#X obj 0 20 makefilename %se;
#X obj 0 40 outlet;
#X connect 0 0 1 0;
#X connect 1 0 2 0;
#X restore 9 29 pd \$0-makefilename_guts;
#X connect 1 0 2 0;
#X connect 2 0 0 0;
#X restore 18 79 pd \$0-makefilename_shell;
#X obj 175 30 symbol;
#X msg 202 72 clear \, obj 0 0 inlet \, obj 0 20 makefilename %s\$1
\, obj 0 40 outlet \, connect 0 0 1 0 \, connect 1 0 2 0 \,;
#X obj 202 107 s pd-\$0-makefilename_guts;
#X obj 175 52 t b a;
#X msg 175 130 connect 1 0 2 0 \, connect 2 0 0 0;
#X obj 175 150 s pd-\$0-makefilename_shell;
#X connect 0 0 3 0;
#X connect 1 0 4 0;
#X connect 3 0 2 0;
#X connect 4 0 7 0;
#X connect 5 0 6 0;
#X connect 7 0 8 0;
#X connect 7 1 5 0;
#X connect 8 0 9 0;
#X restore 764 253 pd dynamic_makefilename;
#X obj 60 119 sel 113 119 101 114 116 121 117 105 111 112 97 115 100
102 103 104 106 107 108 122 120 99 118 98 110 109;
#X msg 60 152 q;
#X msg 73 152 w;
#X msg 86 152 e;
#X msg 99 152 r;
#X msg 113 152 t;
#X msg 126 152 y;
#X msg 139 152 u;
#X msg 152 152 i;
#X msg 166 152 o;
#X msg 179 152 p;
#X msg 192 152 a;
#X msg 205 152 s;
#X msg 219 152 d;
#X msg 232 152 f;
#X msg 245 152 g;
#X msg 259 152 h;
#X msg 272 152 j;
#X msg 285 152 k;
#X msg 298 152 l;
#X msg 312 152 z;
#X msg 325 152 x;
#X msg 338 152 c;
#X msg 351 152 v;
#X msg 365 152 b;
#X msg 378 152 n;
#X msg 391 152 m;
#X msg 412 152 Q;
#X msg 425 152 W;
#X msg 438 152 E;
#X msg 451 152 R;
#X msg 464 152 T;
#X msg 477 152 Y;
#X msg 490 152 U;
#X msg 503 152 I;
#X msg 516 152 O;
#X msg 529 152 P;
#X msg 542 152 A;
#X msg 555 152 S;
#X msg 568 152 D;
#X msg 581 152 F;
#X msg 594 152 G;
#X msg 607 152 H;
#X msg 620 152 J;
#X msg 633 152 K;
#X msg 646 152 L;
#X msg 659 152 Z;
#X msg 672 152 X;
#X msg 685 152 C;
#X msg 698 152 V;
#X msg 711 152 B;
#X msg 724 152 N;
#X msg 737 152 M;
#X obj 412 119 sel 81 87 69 82 84 89 85 73 79 80 65 83 68 70 71 72
74 75 76 90 88 67 86 66 78 77;
#X obj 764 169 t b a;
#X msg 764 315;
#X obj 764 273 list prepend set;
#X obj 764 293 list trim;
#X obj 60 92 spigot;
#X msg 894 216 set;
#X obj 289 12 loadbang;
#X msg 152 75 1;
#X obj 647 274 f;
#X obj 674 274 + 1;
#X obj 149 346 s pd-\$0-name_dialog;
#X obj 764 233 symbol;
#X obj 764 350 list prepend add2;
#X msg 764 392;
#X obj 764 371 list trim;
#X obj 151 243 f \$0;
#X obj 209 196 bng 15 250 50 0 empty empty empty 17 7 0 10 -262144
-1 -1;
#X obj 627 450 s;
#X obj 642 430 symbol;
#X msg 642 409 \$2-canvas-\$1;
#X obj 642 388 pack 0 \$0;
#X obj 647 187 bng 15 250 50 0 empty empty empty 17 7 0 10 -262144
-1 -1;
#X msg 627 365 label \$1;
#X msg 849 216 symbol;
#X obj 615 302 t f f;
#X obj 584 274 f;
#X obj 611 274 + 1;
#X floatatom 663 302 5 0 0 0 - - -;
#X obj 811 157 bng 15 250 50 0 empty empty empty 17 7 0 10 -262144
-1 -1;
#X obj 845 195 t b b b;
#X msg 835 371 set;
#X obj 445 198 bng 15 250 50 0 empty empty empty 17 7 0 10 -262144
-1 -1;
#X msg 111 322 clear;
#X msg 189 74 0;
#X obj 926 242 s pd-\$0-name_dialog;
#X msg 926 214 vis 0;
#X msg 251 526 obj \$2 40 cnv 15 1 1 empty \$3-canvas-\$1 empty 0 0
1 14 -262144 -1 \,;
#X obj 914 166 t b b b b;
#X obj 767 429 s \$0-input_name;
#X obj 845 149 sel 32 10 27;
#X obj 175 24 bng 15 250 50 0 empty empty empty 17 7 0 10 -262144 -1
-1;
#X obj 172 41 t b b b;
#X msg 62 321 vis 1;
#X obj 845 170 t b b b b;
#X obj 578 360 t b b;
#X obj 259 467 pack 0 0 \$0;
#X floatatom 536 325 5 0 0 0 - - -;
#X msg 544 241 0;
#X msg 584 241 0;
#X obj 527 360 bng 15 250 50 0 empty empty empty 17 7 0 10 -262144
-1 -1;
#X msg 662 248 1;
#X msg 633 330 0;
#X obj 473 400 +;
#X obj 400 380 f;
#X obj 473 423 t f f;
#X obj 311 346 sqrt;
#X obj 251 31 delay 1000;
#X obj 173 4 r \$0-restart;
#X obj 329 367 pow 1.2;
#X text 682 543 Chris Penny - 2015 - Use this however you want;
#X obj 411 349 * 100;
#X msg 151 268 clear \, text -60 0 Hi! Type to enter your name! Press
enter to submit or press esc to restart. \, obj 0 40 cnv 15 1 1 empty
\$1-canvas-0 empty 0 0 1 14 -262144 -1 \,;
#X connect 0 0 1 0;
#X connect 0 0 61 0;
#X connect 2 0 59 0;
#X connect 2 0 68 1;
#X connect 2 0 79 0;
#X connect 3 0 4 0;
#X connect 3 1 5 0;
#X connect 3 2 6 0;
#X connect 3 3 7 0;
#X connect 3 4 8 0;
#X connect 3 5 9 0;
#X connect 3 6 10 0;
#X connect 3 7 11 0;
#X connect 3 8 12 0;
#X connect 3 9 13 0;
#X connect 3 10 14 0;
#X connect 3 11 15 0;
#X connect 3 12 16 0;
#X connect 3 13 17 0;
#X connect 3 14 18 0;
#X connect 3 15 19 0;
#X connect 3 16 20 0;
#X connect 3 17 21 0;
#X connect 3 18 22 0;
#X connect 3 19 23 0;
#X connect 3 20 24 0;
#X connect 3 21 25 0;
#X connect 3 22 26 0;
#X connect 3 23 27 0;
#X connect 3 24 28 0;
#X connect 3 25 29 0;
#X connect 3 26 56 0;
#X connect 4 0 57 0;
#X connect 5 0 57 0;
#X connect 6 0 57 0;
#X connect 7 0 57 0;
#X connect 8 0 57 0;
#X connect 9 0 57 0;
#X connect 10 0 57 0;
#X connect 11 0 57 0;
#X connect 12 0 57 0;
#X connect 13 0 57 0;
#X connect 14 0 57 0;
#X connect 15 0 57 0;
#X connect 16 0 57 0;
#X connect 17 0 57 0;
#X connect 18 0 57 0;
#X connect 19 0 57 0;
#X connect 20 0 57 0;
#X connect 21 0 57 0;
#X connect 22 0 57 0;
#X connect 23 0 57 0;
#X connect 24 0 57 0;
#X connect 25 0 57 0;
#X connect 26 0 57 0;
#X connect 27 0 57 0;
#X connect 28 0 57 0;
#X connect 29 0 57 0;
#X connect 30 0 57 0;
#X connect 31 0 57 0;
#X connect 32 0 57 0;
#X connect 33 0 57 0;
#X connect 34 0 57 0;
#X connect 35 0 57 0;
#X connect 36 0 57 0;
#X connect 37 0 57 0;
#X connect 38 0 57 0;
#X connect 39 0 57 0;
#X connect 40 0 57 0;
#X connect 41 0 57 0;
#X connect 42 0 57 0;
#X connect 43 0 57 0;
#X connect 44 0 57 0;
#X connect 45 0 57 0;
#X connect 46 0 57 0;
#X connect 47 0 57 0;
#X connect 48 0 57 0;
#X connect 49 0 57 0;
#X connect 50 0 57 0;
#X connect 51 0 57 0;
#X connect 52 0 57 0;
#X connect 53 0 57 0;
#X connect 54 0 57 0;
#X connect 55 0 57 0;
#X connect 56 0 30 0;
#X connect 56 1 31 0;
#X connect 56 2 32 0;
#X connect 56 3 33 0;
#X connect 56 4 34 0;
#X connect 56 5 35 0;
#X connect 56 6 36 0;
#X connect 56 7 37 0;
#X connect 56 8 38 0;
#X connect 56 9 39 0;
#X connect 56 10 40 0;
#X connect 56 11 41 0;
#X connect 56 12 42 0;
#X connect 56 13 43 0;
#X connect 56 14 44 0;
#X connect 56 15 45 0;
#X connect 56 16 46 0;
#X connect 56 17 47 0;
#X connect 56 18 48 0;
#X connect 56 19 49 0;
#X connect 56 20 50 0;
#X connect 56 21 51 0;
#X connect 56 22 52 0;
#X connect 56 23 53 0;
#X connect 56 24 54 0;
#X connect 56 25 55 0;
#X connect 56 26 96 0;
#X connect 57 0 68 0;
#X connect 57 0 82 0;
#X connect 57 1 2 1;
#X connect 58 0 69 0;
#X connect 59 0 60 0;
#X connect 60 0 58 0;
#X connect 61 0 3 0;
#X connect 62 0 58 0;
#X connect 63 0 113 0;
#X connect 64 0 61 1;
#X connect 65 0 66 0;
#X connect 65 0 81 0;
#X connect 65 0 84 0;
#X connect 66 0 65 1;
#X connect 68 0 2 0;
#X connect 69 0 71 0;
#X connect 70 0 95 0;
#X connect 71 0 70 0;
#X connect 72 0 118 0;
#X connect 73 0 72 0;
#X connect 75 0 74 1;
#X connect 76 0 75 0;
#X connect 77 0 76 0;
#X connect 78 0 65 0;
#X connect 79 0 74 0;
#X connect 80 0 68 1;
#X connect 81 0 102 0;
#X connect 81 0 106 0;
#X connect 81 1 77 0;
#X connect 82 0 83 0;
#X connect 82 0 103 0;
#X connect 83 0 82 1;
#X connect 85 0 86 0;
#X connect 86 0 105 0;
#X connect 86 1 80 0;
#X connect 86 2 62 0;
#X connect 87 0 70 0;
#X connect 88 0 73 0;
#X connect 88 0 104 0;
#X connect 88 0 86 0;
#X connect 88 0 107 0;
#X connect 88 0 87 0;
#X connect 88 0 108 0;
#X connect 89 0 67 0;
#X connect 90 0 61 1;
#X connect 92 0 91 0;
#X connect 93 0 67 0;
#X connect 94 0 92 0;
#X connect 94 0 90 0;
#X connect 94 1 88 0;
#X connect 94 2 70 0;
#X connect 94 3 58 0;
#X connect 96 0 100 0;
#X connect 96 1 94 0;
#X connect 96 2 88 0;
#X connect 97 0 98 0;
#X connect 98 0 99 0;
#X connect 98 1 64 0;
#X connect 98 2 88 0;
#X connect 99 0 67 0;
#X connect 100 0 86 0;
#X connect 100 1 78 0;
#X connect 100 2 58 0;
#X connect 100 3 101 0;
#X connect 101 1 110 0;
#X connect 102 0 93 0;
#X connect 103 0 117 0;
#X connect 104 0 82 0;
#X connect 105 0 82 0;
#X connect 107 0 65 1;
#X connect 108 0 77 0;
#X connect 108 0 109 1;
#X connect 109 0 111 0;
#X connect 110 0 109 0;
#X connect 111 0 109 1;
#X connect 111 1 102 1;
#X connect 112 0 115 0;
#X connect 113 0 98 0;
#X connect 114 0 97 0;
#X connect 115 0 110 1;
#X connect 117 0 112 0;
#X connect 118 0 67 0;
#X restore 390 73 pd implementation;
#X obj 396 110 r \$0-input_name;
#X obj 396 131 list prepend set;
#X obj 396 152 list trim;
#X text 6 8 This patch uses dynamic patching to create a canvas for
each word that is input \, then it interactively changes their labels
to match the input text.;
#X text 6 54 The [key] object is hooked up to a couple [select] objects
that output a letter for every key that is pressed. It then uses a
dynamic version of [makefilename] to join each character together into
a word.;
#X text 9 116 Since it would be pretty complicated (but definitely
doable) to add backspace functionality \, I just said that the esc
key would reset the configuration.;
#X text 10 163 I'm trying to guess where to place each new canvas when
you press spacebar (to enter a new word) - this is definitely not perfect.
It works for most names \, but it might mess up with some really long
ones. This has the added complexity of not working with a fixed-width
font. Still \, it looks nicer and is a bit more complex than just letting
the user type into a message or symbol box.;
#X obj 407 28 bng 15 250 50 0 \$0-restart empty Restart 17 7 0 10 -262144
-1 -1;
#X msg 396 173;
#X connect 2 0 3 0;
#X connect 3 0 4 0;
#X connect 4 0 10 0;
