#N canvas 270 22 515 277 10;
#X floatatom 247 81 5 0 0 2 - - -;
#X msg 215 51 -5;
#X msg 280 51 5;
#X msg 247 51 0;
#X obj -176 61 switch~;
#N canvas 608 166 228 173 ARGOnOff 0;
#X obj 100 100 tgl 18 1 \$0-SendOnOff \$0-ReceiveOnOff On/Off 20 11
1 14 -4033 -1 -1 1 1;
#X obj 99 10 loadbang;
#X msg 99 33 \; pd dsp 1;
#X obj 100 129 outlet;
#X text -50 99 Audio On/Off du patch ->;
#X text -22 45 Audio General On ->;
#X text 107 82 17 3 2010;
#X connect 0 0 3 0;
#X connect 1 0 2 0;
#X coords 0 -1 1 1 65 18 2 100 100;
#X restore -176 43 pd ARGOnOff;
#X text -171 27 V;
#X text -171 20 |;
#X text -183 9 On/Off Patch;
#X obj 257 233 cnv 15 48 25 empty empty empty 20 12 0 14 -24198 -66577
0;
#N canvas 350 196 308 136 ??? 0;
#X obj -6 87 cnv 15 300 38 empty empty empty 20 12 0 14 -224896 -66577
0;
#X obj -6 10 cnv 18 300 70 empty empty ARGOPdMiniModules 3 10 1 14
-4033 -1 1.04858e+06;
#X obj 13 31 cnv 10 10 10 empty empty Gerard 0 5 1 11 -4033 -1 1.04858e+06
;
#X obj 55 30 cnv 10 10 10 empty empty Paresys 0 5 1 11 -4033 -1 1.04858e+06
;
#X text -1 89 Construit sous / Build under Pd 0.42.5-extended;
#X obj 6 43 pddp/pddplink http://pagesperso-orange.fr/Paresys/ARGOPd/
;
#X obj 6 58 pddp/pddplink http://gerard.paresys.free.fr/ARGOPd/;
#X obj 46 105 pddp/pddplink http://puredata.info/downloads;
#X restore 261 237 pd ???;
#X text -87 199 Niveau general ->;
#X text -81 209 General level ->;
#X text 136 119 <- -24..+12 semitones;
#X obj 48 240 dac~ 1 2;
#N canvas 497 69 331 310 ARGO 0;
#X obj 101 101 cnv 20 104 34 empty ColorAmpli empty 20 12 0 14 -261299
-1 1.04858e+06;
#X obj 85 282 outlet~;
#X obj 134 104 cnv 10 20 10 empty ColorAmpli Ampli 1 5 1 14 -261299
-1 1.04858e+06;
#X obj 85 43 inlet~;
#X obj 85 259 *~;
#X obj 103 118 hsl 101 12 -80 20 0 1 \$0-A ColorAmpli 0dB 0 7 1 9 -261299
-1 -1 8000 0;
#X obj 101 101 cnv 4 10 4 empty empty empty 20 12 0 14 -1 -66577 0
;
#X obj 101 131 cnv 4 10 4 empty empty empty 20 12 0 14 -1 -66577 0
;
#X obj 195 101 cnv 4 10 4 empty empty empty 20 12 0 14 -1 -66577 0
;
#X obj 195 131 cnv 4 10 4 empty empty empty 20 12 0 14 -1 -66577 0
;
#X obj 210 281 outlet~;
#X obj 210 42 inlet~;
#X obj 210 258 *~;
#X text 221 83 1 6 2011;
#X msg -10 150 label \$1;
#X obj -11 127 tosymbol;
#X obj -11 92 sprintf %ddB;
#X text 107 167 -> 0.0001..10 = -80dB..20dB;
#X obj 101 148 expr (pow(10 \, $f1 / 20));
#X obj 101 191 sel 0.0001;
#X msg 101 219 0;
#X obj 264 269 cnv 15 41 30 empty empty empty 20 12 0 14 -24198 -66577
0;
#N canvas 350 196 308 136 ?? 0;
#X obj -9 87 cnv 15 300 38 empty empty empty 20 12 0 14 -224896 -66577
0;
#X obj -9 10 cnv 18 300 70 empty empty ARGOPdMiniModules 1 10 1 14
-4033 -1 1.04858e+06;
#X obj 9 29 cnv 10 10 10 empty empty Gerard 0 5 1 9 -4033 -1 1.04858e+06
;
#X obj 40 29 cnv 10 10 10 empty empty Paresys 0 5 1 9 -4033 -1 1.04858e+06
;
#X text -8 89 Construit sous / Build under Pd 0.42.5-extended;
#X obj 39 105 pddplink http://puredata.info/downloads;
#X obj 3 42 pddplink http://pagesperso-orange.fr/Paresys/ARGOPd/;
#X obj 3 57 pddplink http://gerard.paresys.free.fr/ARGOPd/;
#X restore 268 276 pd ??;
#X connect 3 0 4 0;
#X connect 4 0 1 0;
#X connect 5 0 16 0;
#X connect 5 0 18 0;
#X connect 11 0 12 0;
#X connect 12 0 10 0;
#X connect 14 0 5 0;
#X connect 15 0 14 0;
#X connect 16 0 15 0;
#X connect 18 0 19 0;
#X connect 19 0 20 0;
#X connect 19 1 4 1;
#X connect 19 1 12 1;
#X connect 20 0 4 1;
#X connect 20 0 12 1;
#X connect 20 0 15 0;
#X coords 0 -1 1 1 106 36 1 100 100;
#X restore 19 189 pd ARGO;
#N canvas 446 135 303 287 ARGO 0;
#X obj 101 101 cnv 20 148 46 empty ColorForm PitchShift2 78 12 1 14
-188398 -1 1.04858e+06;
#X obj 101 143 cnv 4 10 4 empty empty empty 20 12 0 14 -1 -66577 0
;
#X obj 74 50 inlet~;
#X obj 101 101 cnv 4 10 4 empty empty empty 20 12 0 14 -1 -66577 0
;
#X obj 74 262 outlet~;
#X obj 18 14 cnv 15 60 30 empty empty empty 20 12 0 14 -24198 -66577
0;
#N canvas 373 22 423 575 Help 0;
#X obj 10 28 cnv 15 400 310 empty empty empty 20 12 0 14 -233017 -66577
0;
#X text 13 30 Citation;
#X text 312 2 = Transposition;
#X text 10 5 PitchShift = Pitch shifting = Décalage en hauteur;
#X text 13 342 [soundtouch~] for Pd written by Katja Vetter;
#X text 14 387 based on Olli Parviainen's SoundTouch library;
#X obj 14 404 pddp/pddplink http://www.surina.net/soundtouch/;
#X text 25 47 [soundtouch~] is a Pure Data implementation of Olli Parviainen's
SoundTouch library \, ported by Katja Vetter. The class is implemented
as a real-time pitch shifter \, converting an audio stream to different
pitch. [soundtouch~] version 0.9 \, Aug 2011 for SoundTouch version
1.6 and Pure Data version 0.42;
#X obj 30 358 pddp/pddplink http://www.katjaas.nl/pitchshift/pitchshift.html
;
#X obj 30 370 pddp/pddplink http://www.katjaas.nl/pitchshift/soundtouch%7E.html
;
#X obj 14 416 pddp/pddplink http://www.surina.net/article/time-and-pitch-scaling.html
;
#X text 304 309 Katja Vetter;
#X text 25 138 "For me \, Pure Data's appeal is in it's unlimited options
for processing input signals. Therefore \, I am not going to worry
about soundfiles and index imprecision. I am more than happy with SoundTouch
built into [soundtouch~] as a realtime pitch shifter. My main purpose
for it is the transformation of speech and solo instruments in live
performance. Combined with the parametric Fourier filter described
on an earlier page \, and enhancements like filtering \, compression
and distortion \, the pitch shifter should be able to do a huge variety
of voice transformations. A single artist could impersonate a multitude
of characters with help of such a 'voicetrafo' module. More about that
on the page Instant Decomposer.";
#X obj 10 441 cnv 15 400 120 empty empty empty 20 12 0 14 -258113 -66577
0;
#X text 26 462 Notice that clicks and cracks during pitch-factor changes
are inherent to the way soundtouch~ binaries were built for this distribution
\, and a compile-time option exists to trade these artifacts for a
longer latency time (see section 'how to build'). Please do not send
me bug reports about this \, but instead recompile the class according
to your preference.;
#X text 18 446 Clicks;
#X restore 25 20 pd Help;
#X obj 103 118 hsl 145 12 -24 12 0 1 \$0-A ColorTime -5semitone 0 7
1 9 -208064 -1728 -1 7600 0;
#X obj 239 101 cnv 4 10 4 empty empty empty 20 12 0 14 -260097 -66577
0;
#N canvas 484 315 248 174 label 0;
#X obj 46 76 outlet;
#X obj 46 -70 inlet;
#X msg 46 42 label \$1;
#X obj 46 20 tosymbol;
#X obj 46 -14 sprintf %ssemitone;
#X obj 46 -43 expr (int(100 * $f1) / 100) \;;
#X connect 1 0 5 0;
#X connect 2 0 0 0;
#X connect 3 0 2 0;
#X connect 4 0 3 0;
#X connect 5 0 4 0;
#X restore 16 108 pd label;
#X obj 167 47 cnv 15 100 24 empty empty empty 20 12 0 14 -261682 -66577
0;
#X text 167 44 Nombre ->;
#X text 167 54 Number ->;
#X obj 227 50 inlet;
#X obj 103 130 hsl 145 12 10 100 0 1 \$0-A ColorTime 40ms 0 7 1 9 -208064
-1728 -1 4900 0;
#N canvas 795 278 161 155 label 0;
#X obj 46 76 outlet;
#X obj 46 -43 inlet;
#X msg 46 42 label \$1;
#X obj 46 20 tosymbol;
#X obj 46 -14 sprintf %dms;
#X connect 1 0 4 0;
#X connect 2 0 0 0;
#X connect 3 0 2 0;
#X connect 4 0 3 0;
#X restore 16 136 pd label;
#X obj 167 207 exp;
#X obj 167 186 * 0.05776;
#X obj 244 251 cnv 15 48 25 empty empty empty 20 12 0 14 -24198 -66577
0;
#N canvas 350 196 308 136 ??? 0;
#X obj -6 87 cnv 15 300 38 empty empty empty 20 12 0 14 -224896 -66577
0;
#X obj -6 10 cnv 18 300 70 empty empty ARGOPdMiniModules 3 10 1 14
-4033 -1 1.04858e+06;
#X obj 13 31 cnv 10 10 10 empty empty Gerard 0 5 1 11 -4033 -1 1.04858e+06
;
#X obj 55 30 cnv 10 10 10 empty empty Paresys 0 5 1 11 -4033 -1 1.04858e+06
;
#X text -1 89 Construit sous / Build under Pd 0.42.5-extended;
#X obj 6 43 pddp/pddplink http://pagesperso-orange.fr/Paresys/ARGOPd/
;
#X obj 6 58 pddp/pddplink http://gerard.paresys.free.fr/ARGOPd/;
#X obj 46 105 pddp/pddplink http://puredata.info/downloads;
#X restore 248 255 pd ???;
#X text 189 28 -24..+12 semitones;
#X msg 100 207 set \$1;
#X obj 74 237 soundtouch~ 40 2;
#X obj 167 262 outlet~;
#X obj 120 50 inlet~;
#X obj 239 143 cnv 4 10 4 empty empty empty 20 12 0 14 -1 -66577 0
;
#X obj 168 101 cnv 4 10 4 empty empty empty 20 12 0 14 -1 -66577 0
;
#X text 194 83 17 9 2011;
#X connect 2 0 22 0;
#X connect 7 0 9 0;
#X connect 7 0 17 0;
#X connect 9 0 7 0;
#X connect 13 0 7 0;
#X connect 14 0 15 0;
#X connect 14 0 21 0;
#X connect 15 0 14 0;
#X connect 16 0 22 2;
#X connect 17 0 16 0;
#X connect 21 0 22 0;
#X connect 22 0 4 0;
#X connect 22 1 23 0;
#X connect 24 0 22 1;
#X coords 0 -1 1 1 150 48 1 100 100;
#X restore -16 126 pd ARGO;
#N canvas 237 45 722 461 ARGO 0;
#X obj 368 103 cnv 10 20 10 empty empty Play 1 5 1 14 -262144 -1 1.04858e+06
;
#X obj 101 130 cnv 4 10 4 empty empty empty 20 12 0 14 -1 -66577 0
;
#X obj 81 439 outlet~;
#X obj -13 64 openpanel;
#X msg 212 352 1;
#X msg 141 326 0;
#X msg 25 107 set \$1;
#X msg 253 354 open \$1;
#X obj 197 291 t b b;
#X msg 211 418 set 0;
#X obj 177 193 sel 1 0;
#X floatatom 230 231 5 0 0 0 - - -;
#X msg 230 208 set \$1;
#X obj 204 261 sel 1;
#X msg 110 361 set 1;
#X obj 185 6 key;
#X obj 186 29 select 32;
#X obj 42 7 loadbang;
#X obj 228 383 readsf~ 2;
#X obj -12 84 t b s;
#X obj 151 100 tgl 12 1 \$0-A \$0-B Play(Space) 14 6 1 9 -262144 -1
-1 1 1;
#X obj 311 100 bng 12 250 50 0 \$0-A \$0-B Stop 14 6 1 9 -262144 -1
-1;
#X obj 249 100 tgl 12 1 \$0-A \$0-B Loop 15 6 1 9 -262144 -1 -1 1 1
;
#X obj 349 436 outlet~;
#X obj 389 130 cnv 4 10 4 empty empty empty 20 12 0 14 -1 -66577 0
;
#X obj 48 196 list2symbol;
#X obj 100 100 bng 12 250 50 0 \$0-A \$0-B empty 14 6 1 9 -262144 -1
-1;
#X obj 174 328 delay 5;
#X obj 102 6 inlet~;
#X obj 101 58 threshold~ 0.5 5 0.49 5;
#X obj 421 289 cnv 15 60 30 empty empty empty 20 12 0 14 -24198 -66577
0;
#N canvas 285 55 565 577 Help 0;
#X obj 9 -296 cnv 15 400 100 empty empty empty 20 12 0 14 -233017 -66577
0;
#X text 12 -297 Citation;
#X obj 8 -51 cnv 15 550 310 empty empty empty 20 12 0 14 -258113 -66577
0;
#X text 20 -44 - Ne lit pas un fichier au format mp3 \, SoundDesigner
II (.SDII ou .SD2);
#X text 23 56 Solution: ouvrir puis sauver le fichier au format aiff
avec Audacity;
#X text 36 43 error: dsp: xxx.aiff: unknown or bad header format;
#X text 31 -281 READSF~ - read a soundfile;
#X text 30 -263 The wave \, aiff \, and nextstep formats are parsed
automatically \, although only 2- 3- and 4- byte samples are accepted
(4 bytes implies floating point and is not available in aiff format.)
;
#X text 13 -189 - Si le Patch est sauvé avec 1 Player contenant un
nom de fichier Audio \, ce fichier sera lu automatiquement à la prochaine
ouverture s'il n'a pas changé d'emplacement.;
#X text 191 206 If the sample rate of pd is set to 44100 \, files having
the sample rates of 44100 are correctly played \, other files will
be transposed.;
#X text 193 179 WARNING The sample rate of the output depends on the
system sample rate of pd:;
#X text 21 95 - ATTENTION Le taux d'échantillonnage de la lecture du
fichier dépends du taux d'échantillonnage de Pd.;
#X text 33 122 Si le taux d'échantillonnage de Pd est de 44100 (Menu
Preferences -> Audio Settings...) \, les fichiers échantillonnés à
44100 Hz sont lus correctement \, sinon ils sont transposés.;
#X text 12 -143 - Peut Ouvrir automatiquement 1 fichier qui se trouve
dans le même dossier que lui \, quelquesoit l'emplacement du dossier.
Pour cela ouvrir le module et taper le nom du fichier (sans chemin
d'accés) dans le message. Le dossier contenant le patch et le fichier
Audio est ainsi transportable.;
#X text 21 4 - Ne lit pas un fichier au format aiff "Entier petit boutien"
comme les pistes d'un CD Audio copiées avec le finder du Mac. Le message
d'erreur s'affichent:;
#X text 8 -434 MM Audio-Play;
#X text 19 -405 Le canal d'un fichier Audio Mono est lu sur la sortie
gauche;
#X text 19 -392 Les canaux 3 \, 4... d'un fichier Audio de plus de
2 canaux ne sont pas lus.;
#X text 199 -329 Channels 3 \, 4... of an Audio file of more than 2
channels are not read.;
#X text 199 -343 A Mono Audio file is read on the left output.;
#X text 19 -418 Lit un fichier Audio Stereo (2 canaux) au format aiff
\, wav.;
#X text 198 -370 Reads an Stereo Audio file (2 channels) with aiff
\, wav format..;
#X restore 428 295 pd Help;
#X obj 101 100 cnv 2 10 4 empty empty empty 20 12 0 14 -1 -66577 0
;
#X obj 102 101 cnv 2 8 2 empty empty empty 20 12 0 14 -262144 -66577
0;
#X text 75 81 Trig Decl;
#X obj 106 113 hradio 14 1 0 20 empty empty empty 0 6 0 8 -260097 -260097
-260097 0;
#X obj -13 42 bang;
#X text 403 115 <- Click the name to change;
#X symbolatom 101 113 49 0 0 0 - - -;
#X obj 49 140 cnv 15 400 50 empty empty empty 20 12 0 14 -260097 -66577
0;
#X text 51 139 Nom du fichier / File name;
#X text 454 152 <- Ajouter ../ devant le nom du fichier \; pour remonter
d'un dossier;
#X obj 653 417 cnv 15 41 30 empty empty empty 20 12 0 14 -24198 -66577
0;
#N canvas 350 196 308 136 ?? 0;
#X obj -9 87 cnv 15 300 38 empty empty empty 20 12 0 14 -224896 -66577
0;
#X obj -9 10 cnv 18 300 70 empty empty ARGOPdMiniModules 1 10 1 14
-4033 -1 1.04858e+06;
#X obj 9 29 cnv 10 10 10 empty empty Gerard 0 5 1 9 -4033 -1 1.04858e+06
;
#X obj 40 29 cnv 10 10 10 empty empty Paresys 0 5 1 9 -4033 -1 1.04858e+06
;
#X text -8 89 Construit sous / Build under Pd 0.42.5-extended;
#X obj 39 105 pddplink http://puredata.info/downloads;
#X obj 3 42 pddplink http://pagesperso-orange.fr/Paresys/ARGOPd/;
#X obj 3 57 pddplink http://gerard.paresys.free.fr/ARGOPd/;
#X restore 657 424 pd ??;
#X text 405 96 13 11 2010;
#X msg 53 158 Goch-Dwa(CreoleHaitien).wav;
#X connect 3 0 19 0;
#X connect 4 0 18 0;
#X connect 5 0 18 0;
#X connect 6 0 45 0;
#X connect 7 0 18 0;
#X connect 8 0 27 0;
#X connect 8 1 45 0;
#X connect 9 0 20 0;
#X connect 10 0 8 0;
#X connect 10 1 9 0;
#X connect 10 1 5 0;
#X connect 11 0 13 0;
#X connect 12 0 11 0;
#X connect 13 0 26 0;
#X connect 14 0 20 0;
#X connect 15 0 16 0;
#X connect 16 0 20 0;
#X connect 17 0 45 0;
#X connect 18 0 2 0;
#X connect 18 1 23 0;
#X connect 18 2 11 0;
#X connect 18 2 9 0;
#X connect 19 0 45 0;
#X connect 19 1 6 0;
#X connect 20 0 10 0;
#X connect 21 0 5 0;
#X connect 21 0 9 0;
#X connect 22 0 12 0;
#X connect 25 0 38 0;
#X connect 25 0 7 0;
#X connect 26 0 8 0;
#X connect 27 0 4 0;
#X connect 27 0 14 0;
#X connect 28 0 29 0;
#X connect 29 0 26 0;
#X connect 35 0 36 0;
#X connect 36 0 3 0;
#X connect 45 0 25 0;
#X coords 0 -1 1 1 300 35 2 100 100;
#X restore -93 35 pd ARGO;
#X obj -196 -6 cnv 15 15 15 empty empty ExMM99b-PitchShift2.pd 0 8
1 14 -262144 -1 0;
#X connect 0 0 16 2;
#X connect 1 0 0 0;
#X connect 2 0 0 0;
#X connect 3 0 0 0;
#X connect 5 0 4 0;
#X connect 15 0 14 0;
#X connect 15 1 14 1;
#X connect 16 0 15 0;
#X connect 16 1 15 1;
#X connect 17 0 16 0;
#X connect 17 1 16 1;
