#N canvas 349 22 430 358 10;
#N canvas 608 166 249 182 ARGOnOff 0;
#X obj 100 100 tgl 18 1 \$0-SendOnOff \$0-ReceiveOnOff On/Off 20 9
0 12 -4033 -1 -1 1 1;
#X obj 99 39 loadbang;
#X msg 99 62 \; pd dsp 1;
#X obj 100 129 outlet;
#X connect 0 0 3 0;
#X connect 1 0 2 0;
#X coords 0 -1 1 1 65 18 2 100 100;
#X restore -99 -180 pd ARGOnOff;
#X obj -99 -155 switch~;
#X obj -21 74 dac~ 1 2;
#N canvas 446 113 417 240 ARGO 0;
#X obj 223 152 cnv 15 60 30 empty empty empty 20 12 0 14 -24198 -66577
0;
#N canvas 424 180 418 133 Help 0;
#X text 10 51 Un "Bang" sort chaque X msec.;
#X text 8 83 A "Bang" outputs every X msec.;
#X restore 230 158 pd Help;
#X obj 270 193 cnv 15 41 30 empty empty empty 20 12 0 14 -24198 -66577
0;
#N canvas 350 196 381 103 ? 0;
#X obj 5 49 cnv 15 370 38 empty empty empty 20 12 0 14 -224896 -66577
0;
#X text 6 65 Voir/Look at: http://puredata.info/downloads;
#X obj 4 12 cnv 18 370 30 empty empty ARGOPdMiniModules 1 10 1 14 -4033
-1 1.04858e+06;
#X obj 7 31 cnv 10 10 10 empty empty Gerard 0 5 1 9 -4033 -1 1.04858e+06
;
#X obj 38 31 cnv 10 10 10 empty empty Paresys 0 5 1 9 -4033 -1 1.04858e+06
;
#X obj 175 20 cnv 10 10 10 empty empty http://pagesperso-orange.fr/Paresys/ARGOPd/
0 5 1 9 -4033 -1 1.04858e+06;
#X obj 175 31 cnv 10 10 10 empty empty http://gerard.paresys.free.fr/ARGOPd/
0 5 1 9 -4033 -1 1.04858e+06;
#X text 6 51 Construit sous / Build under Pd 0.41.4-extended;
#X restore 276 200 pd ?;
#X obj 100 32 inlet;
#X obj 95 198 cnv 15 170 24 empty empty empty 20 12 0 14 -261682 -66577
0;
#X obj 100 202 outlet;
#X obj 101 101 cnv 10 132 36 empty ColorForm Oscill 95 9 1 14 -208064
-1 1.04858e+06;
#X obj 100 125 bng 12 250 50 0 \$0-A \$0-B empty 14 6 1 9 -262144 -1
-1;
#X obj 101 133 cnv 4 10 4 empty empty empty 20 12 0 14 -260097 -66577
0;
#X obj 100 113 nbx 6 12 1 999999 0 1 \$0-A ColorTime ms 40 17 1 9 -208064
-1 -1 71 256;
#X obj 214 33 r \$0-SendOnOff;
#X obj 214 59 select 0;
#X text 146 206 -> Bang;
#X text 145 196 -> Bang;
#X obj 100 100 tgl 12 1 \$0-A \$0-B empty 17 7 0 10 -262144 -1 -1 1
1;
#X obj -93 96 cnv 15 190 20 empty empty empty 20 12 0 14 -261682 -66577
0;
#X text -92 97 1: Play 0: Stop bang: Change ->;
#X obj 101 101 cnv 4 10 4 empty empty empty 20 12 0 14 -260097 -66577
0;
#X obj 18 151 metro 300;
#X text 177 83 27 6 2010;
#X connect 4 0 15 0;
#X connect 8 0 6 0;
#X connect 10 0 19 1;
#X connect 11 0 12 0;
#X connect 15 0 19 0;
#X connect 19 0 8 0;
#X coords 0 -1 1 1 134 38 2 100 100;
#X restore 13 -173 pd ARGO;
#X text -161 -55 NoteMIDI 0..127 = C-2..G8 ->;
#X text -35 -44 Bang ->;
#X text -119 -235 Synth1 = Synthétiseur 1 = Synthesizer 1;
#N canvas 383 56 468 428 ARGO 0;
#X obj 287 37 cnv 15 60 30 empty empty empty 20 12 0 14 -24198 -66577
0;
#N canvas 402 65 418 133 Help 0;
#X text 8 52 random 100 generates random numbers between 0 and 99;
#X text 9 25 Nbr = Nombre - Number;
#X restore 294 43 pd Help;
#X obj 308 383 cnv 15 41 30 empty empty empty 20 12 0 14 -24198 -66577
0;
#N canvas 350 196 381 103 ? 0;
#X obj 5 49 cnv 15 370 38 empty empty empty 20 12 0 14 -224896 -66577
0;
#X text 6 65 Voir/Look at: http://puredata.info/downloads;
#X obj 4 12 cnv 18 370 30 empty empty ARGOPdMiniModules 1 10 1 14 -4033
-1 1.04858e+06;
#X obj 7 31 cnv 10 10 10 empty empty Gerard 0 5 1 9 -4033 -1 1.04858e+06
;
#X obj 38 31 cnv 10 10 10 empty empty Paresys 0 5 1 9 -4033 -1 1.04858e+06
;
#X obj 175 20 cnv 10 10 10 empty empty http://pagesperso-orange.fr/Paresys/ARGOPd/
0 5 1 9 -4033 -1 1.04858e+06;
#X obj 175 31 cnv 10 10 10 empty empty http://gerard.paresys.free.fr/ARGOPd/
0 5 1 9 -4033 -1 1.04858e+06;
#X text 6 51 Construit sous / Build under Pd 0.41.4-extended;
#X restore 314 390 pd ?;
#X obj -57 5 cnv 15 170 24 empty empty empty 20 12 0 14 -261682 -66577
0;
#X obj 100 8 inlet;
#X obj 92 390 cnv 15 170 24 empty empty empty 20 12 0 14 -261682 -66577
0;
#X obj 97 394 outlet;
#X obj 101 101 cnv 10 132 46 empty ColorForm Nbr 107 9 1 14 -261476
-1 1.04858e+06;
#X obj 100 101 bng 12 50 50 0 \$0-A \$0-B empty 14 6 1 9 -262144 -1
-1;
#X obj 101 101 cnv 4 10 4 empty empty empty 20 12 0 14 -260097 -66577
0;
#X obj 101 143 cnv 4 10 4 empty empty empty 20 12 0 14 -260097 -66577
0;
#X obj 115 106 nbx 4 12 51 9999 0 1 \$0-A ColorTime max 40 7 1 9 -262144
-1 -1 76 256;
#X text -57 12 Input anything message ->;
#X text -57 2 N'importe quel message ->;
#X obj 115 130 nbx 4 12 -999 9999 0 1 \$0-A ColorTime min 40 7 1 9
-262144 -1 -1 50 256;
#X obj 100 118 nbx 4 12 -999 9999 0 1 \$0-A ColorTime empty 40 7 1
9 -262144 -1 -1 60 256;
#X obj 232 270 random;
#X obj 231 221 -;
#X obj 191 166 + 1;
#X obj 231 246 t b f;
#X text 142 388 -> Nombre;
#X text 143 398 -> Number;
#X obj 269 332 +;
#X msg 270 209 range \$1 9999;
#X obj -46 162 + 1;
#X obj -29 326 int;
#X obj -69 326 + 1;
#X obj -46 259 int;
#X obj -46 185 t f f;
#X obj -46 234 select 1;
#X obj -46 210 >;
#X obj 175 100 vradio 12 1 1 4 \$0-A \$0-B --> 16 6 1 9 -262144 -1
-1 2;
#X obj 189 112 cnv 5 5 5 empty empty <-- 0 6 1 9 -261476 -1 0;
#X obj 189 125 cnv 5 5 5 empty empty <--> 0 6 1 9 -261476 -1 0;
#X obj 189 137 cnv 5 5 5 empty empty Alea 0 6 1 9 -261476 -1 0;
#X obj 39 364 switch 4;
#X obj 61 331 int;
#X obj 18 260 int;
#X obj 18 186 t f f;
#X obj 18 235 select 1;
#X obj 18 163 - 1;
#X obj 18 211 <;
#X obj 110 190 + 1;
#X obj 116 212 t f f;
#X obj 113 265 select 1;
#X obj 130 331 int;
#X obj 110 237 >;
#X msg 124 163 -1;
#X obj 171 263 select 1;
#X obj 171 239 <;
#X msg 159 163 1;
#X obj 109 291 t b b;
#X obj 172 290 t b b;
#X obj -42 64 >;
#X obj -42 132 int;
#X obj -42 87 select 1;
#X obj -42 41 t b f;
#X obj -103 131 int;
#X obj -103 87 select 1;
#X obj -103 42 t b f;
#X obj -103 65 <;
#X obj -103 108 delay 5;
#X obj 229 161 t b f f f f f b f;
#X obj -42 109 delay 5;
#X obj 328 184 + 1;
#X text 210 83 11 9 2010;
#X connect 5 0 9 0;
#X connect 9 0 17 0;
#X connect 9 0 26 0;
#X connect 9 0 37 0;
#X connect 9 0 46 0;
#X connect 12 0 19 0;
#X connect 12 0 31 1;
#X connect 12 0 38 1;
#X connect 12 0 47 1;
#X connect 12 0 55 1;
#X connect 12 0 57 0;
#X connect 15 0 63 0;
#X connect 16 0 7 0;
#X connect 16 0 25 0;
#X connect 16 0 41 0;
#X connect 16 0 43 0;
#X connect 16 0 54 0;
#X connect 16 0 61 0;
#X connect 17 0 23 0;
#X connect 18 0 20 0;
#X connect 19 0 18 0;
#X connect 20 0 17 0;
#X connect 20 1 17 1;
#X connect 23 0 36 4;
#X connect 24 0 12 0;
#X connect 25 0 29 0;
#X connect 26 0 36 1;
#X connect 27 0 36 0;
#X connect 28 0 26 1;
#X connect 29 0 31 0;
#X connect 29 1 26 1;
#X connect 30 0 28 0;
#X connect 31 0 30 0;
#X connect 32 0 27 0;
#X connect 36 0 16 0;
#X connect 37 0 36 2;
#X connect 38 0 37 1;
#X connect 39 0 42 0;
#X connect 39 1 37 1;
#X connect 40 0 38 0;
#X connect 41 0 39 0;
#X connect 42 0 40 0;
#X connect 43 0 44 0;
#X connect 44 0 47 0;
#X connect 44 0 50 0;
#X connect 44 1 46 1;
#X connect 45 0 52 0;
#X connect 46 0 36 3;
#X connect 47 0 45 0;
#X connect 48 0 43 1;
#X connect 49 0 53 0;
#X connect 50 0 49 0;
#X connect 51 0 43 1;
#X connect 52 0 43 0;
#X connect 52 1 48 0;
#X connect 53 0 43 0;
#X connect 53 1 51 0;
#X connect 54 0 56 0;
#X connect 55 0 16 0;
#X connect 56 0 64 0;
#X connect 57 0 54 0;
#X connect 57 1 54 1;
#X connect 58 0 16 0;
#X connect 59 0 62 0;
#X connect 60 0 61 0;
#X connect 60 1 61 1;
#X connect 61 0 59 0;
#X connect 62 0 58 0;
#X connect 63 0 18 0;
#X connect 63 1 18 1;
#X connect 63 2 23 1;
#X connect 63 3 58 1;
#X connect 63 4 60 0;
#X connect 63 5 28 1;
#X connect 63 5 50 1;
#X connect 63 5 42 1;
#X connect 63 6 12 0;
#X connect 63 7 65 0;
#X connect 64 0 55 0;
#X connect 65 0 24 0;
#X coords 0 -1 1 1 134 48 2 100 100;
#X restore 14 -123 pd ARGO;
#X obj -154 -252 cnv 15 15 15 empty empty ExMM101a-Synth1.pd 0 8 1
14 -262144 -1 0;
#X text -34 -207 Sinusoidal Oscillator -> Attack/Decay envelope;
#X text -120 -221 Oscillateur sinusoidal -> Enveloppe Attaque/Chute
;
#N canvas 202 155 392 416 ARGO 0;
#X obj 101 101 cnv 12 164 15 empty \$0-CanvasRecordMono Record 107
8 1 14 -261299 -1 1.04858e+06;
#X obj 101 101 cnv 4 10 4 empty empty empty 20 12 0 14 -1 -66577 0
;
#X obj 80 62 inlet~;
#X obj 133 130 sel 0 1;
#X msg 136 319 start;
#X msg 99 318 stop;
#X msg 179 198 open \$1;
#X obj 179 177 savepanel;
#X obj 179 266 delay 1000;
#X obj 177 379 float;
#X obj 223 378 + 1;
#X obj 155 357 metro 1000;
#X msg 223 358 -1;
#X obj 130 101 nbx 4 15 0 9999 0 0 \$0-A ColorTime sec 50 7 1 12 -208064
-1 -1 0 256;
#X obj 91 388 writesf~ 1;
#X text 87 80 Input;
#X text -35 24 Enregistreur de fichier audio wav à 1 canal (mono);
#X text -35 9 Mono wav file format recorder;
#X text 271 100 3 5 2009;
#X msg -45 339 0;
#X msg -14 339 1;
#X obj 115 101 tgl 15 0 \$0-A \$0-B empty 19 9 1 12 -262144 -258113
-1 0 1;
#X obj 152 153 t b b;
#X obj 113 153 t b b;
#X obj 179 288 t b b b b;
#N canvas 317 143 290 366 CouleurRecord 0;
#X obj 122 -19 +;
#X obj 122 37 +;
#X obj 61 -75 * -65536;
#X obj 117 -75 * -256;
#X obj 163 -77 * -1;
#X obj 122 68 - 1;
#X obj 115 -202 inlet;
#X text 77 -97 R;
#X text 123 -99 G;
#X text 172 -98 B;
#X obj 122 123 outlet;
#X text 170 -169 Rouge;
#X msg 134 -121 255;
#X msg 167 -121 0;
#X obj 115 -178 sel 0 1;
#X msg 122 96 color \$1 -1;
#X text 56 -170 Rose;
#X msg 73 -121 200;
#X msg 40 -121 252;
#X obj 134 -148 t b b b;
#X msg 198 -121 0;
#X msg 104 -121 200;
#X obj 40 -148 t b b b;
#X connect 0 0 1 1;
#X connect 1 0 5 0;
#X connect 2 0 1 0;
#X connect 3 0 0 0;
#X connect 4 0 0 1;
#X connect 5 0 15 0;
#X connect 6 0 14 0;
#X connect 12 0 2 0;
#X connect 13 0 3 0;
#X connect 14 0 22 0;
#X connect 14 1 19 0;
#X connect 15 0 10 0;
#X connect 17 0 3 0;
#X connect 18 0 2 0;
#X connect 19 0 12 0;
#X connect 19 1 13 0;
#X connect 19 2 20 0;
#X connect 20 0 4 0;
#X connect 21 0 4 0;
#X connect 22 0 18 0;
#X connect 22 1 17 0;
#X connect 22 2 21 0;
#X restore -45 364 pd CouleurRecord;
#X obj -45 388 s \$0-CanvasRecordMono;
#X msg 138 178 set 0;
#X msg 198 243 set 1;
#X obj 179 220 t b b b;
#X text -37 39 L'extension .wav est ajoutée au nom du fichier automatiquement
;
#X obj 281 14 cnv 15 41 30 empty empty empty 20 12 0 14 -24198 -66577
0;
#N canvas 350 196 381 103 ? 0;
#X obj 5 49 cnv 15 370 38 empty empty empty 20 12 0 14 -224896 -66577
0;
#X text 6 65 Voir/Look at: http://puredata.info/downloads;
#X obj 4 12 cnv 18 370 30 empty empty ARGOPdMiniModules 1 10 1 14 -4033
-1 1.04858e+06;
#X obj 7 31 cnv 10 10 10 empty empty Gerard 0 5 1 9 -4033 -1 1.04858e+06
;
#X obj 38 31 cnv 10 10 10 empty empty Paresys 0 5 1 9 -4033 -1 1.04858e+06
;
#X obj 175 20 cnv 10 10 10 empty empty http://pagesperso-orange.fr/Paresys/ARGOPd/
0 5 1 9 -4033 -1 1.04858e+06;
#X text 6 51 Construit sous / Build under Pd 0.40.3-extended;
#X obj 175 31 cnv 10 10 10 empty empty http://gerard.paresys.free.fr/ARGOPd/
0 5 1 9 -4033 -1 1.04858e+06;
#X restore 287 21 pd ?;
#X connect 2 0 14 0;
#X connect 3 0 23 0;
#X connect 3 1 22 0;
#X connect 4 0 14 0;
#X connect 5 0 11 0;
#X connect 5 0 14 0;
#X connect 6 0 14 0;
#X connect 6 0 29 0;
#X connect 7 0 6 0;
#X connect 8 0 24 0;
#X connect 9 0 10 0;
#X connect 10 0 9 1;
#X connect 10 0 13 0;
#X connect 11 0 9 0;
#X connect 12 0 10 0;
#X connect 19 0 25 0;
#X connect 20 0 25 0;
#X connect 21 0 3 0;
#X connect 22 0 27 0;
#X connect 22 1 7 0;
#X connect 23 0 19 0;
#X connect 23 1 5 0;
#X connect 24 0 20 0;
#X connect 24 1 4 0;
#X connect 24 2 11 0;
#X connect 24 3 12 0;
#X connect 25 0 26 0;
#X connect 27 0 21 0;
#X connect 28 0 21 0;
#X connect 29 0 8 0;
#X connect 29 1 28 0;
#X connect 29 2 12 0;
#X coords 0 -1 1 1 166 17 1 100 100;
#X restore 37 74 pd ARGO;
#N canvas 423 115 319 371 ARGO 0;
#X obj 100 328 outlet~;
#X obj 204 10 cnv 15 60 30 empty empty empty 20 12 0 14 -24198 -66577
0;
#N canvas 346 177 352 113 Help 0;
#X text 21 31 Synth1 = Synthétiseur 1 = Synthesizer 1;
#X text 20 56 Oscillateur sinusoidal -> Enveloppe Attack/Decay;
#X restore 211 16 pd Help;
#X obj 265 308 cnv 15 41 30 empty empty empty 20 12 0 14 -24198 -66577
0;
#N canvas 350 196 308 136 ?? 0;
#X obj -9 87 cnv 15 300 38 empty empty empty 20 12 0 14 -224896 -66577
0;
#X obj -9 10 cnv 18 300 70 empty empty ARGOPdMiniModules 1 10 1 14
-4033 -1 1.04858e+06;
#X obj 9 29 cnv 10 10 10 empty empty Gerard 0 5 1 9 -4033 -1 1.04858e+06
;
#X obj 40 29 cnv 10 10 10 empty empty Paresys 0 5 1 9 -4033 -1 1.04858e+06
;
#X text -8 89 Construit sous / Build under Pd 0.42.5-extended;
#X obj 39 105 pddplink http://puredata.info/downloads;
#X obj 3 42 pddplink http://pagesperso-orange.fr/Paresys/ARGOPd/;
#X obj 3 57 pddplink http://gerard.paresys.free.fr/ARGOPd/;
#X restore 269 315 pd ??;
#X obj 100 9 inlet;
#X text 30 -24 NoteMIDI;
#N canvas 499 145 264 245 Freq-v6 0;
#X obj -88 23 inlet;
#X obj -88 177 outlet;
#X text -91 194 Hslider;
#X text -93 2 Hslider;
#X obj 36 149 clip 0 20000;
#X obj 36 125 mtof;
#X obj 36 176 outlet;
#X text 33 194 Freq Hz;
#N canvas 220 243 583 317 pitchb-11-2010 0;
#X obj 70 111 mod 12;
#X obj 70 135 sel 0 1 2 3 4 5 6 7 8 9 10 11;
#X msg 246 170 A;
#X msg 300 170 B;
#X msg 192 170 G;
#X msg 3 170 C;
#X msg 57 170 D;
#X msg 111 170 E;
#X msg 138 170 F;
#X obj 204 1 inlet;
#X obj 329 115 div 12;
#X obj 204 79 t f f;
#X text 334 190 -> Numero de l'octave;
#X text 213 64 -> Numero MIDI de la note (69 = A3 = 440Hz);
#X msg 260 260 label \$1;
#X obj 260 283 outlet;
#X msg 30 170 Db;
#X msg 84 170 Eb;
#X msg 165 170 Gb;
#X msg 219 170 Ab;
#X msg 273 170 Bb;
#X text 369 78 (70 = A#3 = Bb3);
#X obj 260 238 symbol;
#X obj 260 213 sprintf %s%d;
#X text 11 231 Impossible d'afficher # dans un label;
#X text 11 243 donc j'affiche b;
#X obj 204 51 int;
#X text 255 23 -> pour corriger certaines erreurs de calcul;
#X obj 329 144 - 12;
#X text 255 35 et le pb du passage a zero de mod 12;
#X obj 204 25 + 120.5;
#X connect 0 0 1 0;
#X connect 1 0 5 0;
#X connect 1 1 16 0;
#X connect 1 2 6 0;
#X connect 1 3 17 0;
#X connect 1 4 7 0;
#X connect 1 5 8 0;
#X connect 1 6 18 0;
#X connect 1 7 4 0;
#X connect 1 8 19 0;
#X connect 1 9 2 0;
#X connect 1 10 20 0;
#X connect 1 11 3 0;
#X connect 2 0 23 0;
#X connect 3 0 23 0;
#X connect 4 0 23 0;
#X connect 5 0 23 0;
#X connect 6 0 23 0;
#X connect 7 0 23 0;
#X connect 8 0 23 0;
#X connect 9 0 30 0;
#X connect 10 0 28 0;
#X connect 11 0 0 0;
#X connect 11 1 10 0;
#X connect 14 0 15 0;
#X connect 16 0 23 0;
#X connect 17 0 23 0;
#X connect 18 0 23 0;
#X connect 19 0 23 0;
#X connect 20 0 23 0;
#X connect 22 0 14 0;
#X connect 23 0 22 0;
#X connect 26 0 11 0;
#X connect 28 0 23 1;
#X connect 30 0 26 0;
#X restore -88 88 pd pitchb-11-2010;
#X connect 0 0 5 0;
#X connect 0 0 8 0;
#X connect 4 0 6 0;
#X connect 5 0 4 0;
#X connect 8 0 1 0;
#X restore 43 186 pd Freq-v6;
#X text 90 -24 0..127 = C-2..G8;
#X obj 100 210 osc~;
#X obj 100 304 *~;
#X obj 101 101 cnv 6 132 56 empty ColorForm Synth1 87 8 1 14 -262144
-1 1.04858e+06;
#X obj 100 101 bng 12 50 50 0 \$0-A \$0-B empty 14 6 1 9 -262144 -1
-1;
#X obj 101 101 cnv 4 10 4 empty empty empty 20 12 0 14 -260097 -66577
0;
#X obj 101 153 cnv 4 10 4 empty empty empty 20 12 0 14 -1 -66577 0
;
#X obj 103 117 hsl 129 12 0 128 0 1 \$0-A ColorTime C3 0 7 1 9 -208064
-1 -1 6000 0;
#X obj 100 34 t b f;
#X obj 133 129 hsl 99 12 0.1 10000 1 1 \$0-A ColorForm 3.81 0 7 1 9
-208064 -1 -1 3100 0;
#X obj 102 142 cnv 6 2 2 empty ColorForm Decay 0 4 1 9 -262144 -1 1.04858e+06
;
#X obj 102 132 cnv 6 2 2 empty ColorForm Attack 0 4 1 9 -262144 -1
1.04858e+06;
#X obj 133 141 hsl 99 12 0.1 10000 1 1 \$0-A ColorForm 63.99 0 7 1
9 -208064 -1 -1 5500 0;
#X obj 127 61 select 0;
#N canvas 0 22 450 300 label-ms 0;
#X msg 156 171 label \$1;
#X obj 156 151 tosymbol;
#X obj 156 111 expr (int(100 * $f1) / 100) \;;
#X obj 154 84 inlet;
#X obj 157 200 outlet;
#X obj 156 131 sprintf %s;
#X connect 0 0 4 0;
#X connect 1 0 0 0;
#X connect 2 0 5 0;
#X connect 3 0 2 0;
#X connect 5 0 1 0;
#X restore 244 120 pd label-ms;
#N canvas 0 22 450 300 label-ms 0;
#X msg 156 171 label \$1;
#X obj 156 151 tosymbol;
#X obj 156 111 expr (int(100 * $f1) / 100) \;;
#X obj 154 84 inlet;
#X obj 157 200 outlet;
#X obj 156 131 sprintf %s;
#X connect 0 0 4 0;
#X connect 1 0 0 0;
#X connect 2 0 5 0;
#X connect 3 0 2 0;
#X connect 5 0 1 0;
#X restore 244 143 pd label-ms;
#X text 91 -9 ou Bang;
#X obj 115 150 cnv 6 2 2 empty ColorForm ms 0 4 1 9 -262144 -1 1.04858e+06
;
#X obj 134 258 vline~;
#X msg 134 234 1 \$1 \, 0 \$2 \$1;
#X obj 221 188 pack 1 2;
#X obj 239 164 t b f;
#X obj 127 282 *~;
#X obj 134 210 list append 0 0;
#X text 174 82 11 4 2011;
#X connect 5 0 16 0;
#X connect 7 0 15 0;
#X connect 7 1 9 0;
#X connect 9 0 10 0;
#X connect 10 0 0 0;
#X connect 12 0 31 0;
#X connect 15 0 7 0;
#X connect 16 0 12 0;
#X connect 16 1 21 0;
#X connect 17 0 22 0;
#X connect 17 0 28 0;
#X connect 20 0 23 0;
#X connect 20 0 29 0;
#X connect 21 1 15 0;
#X connect 22 0 17 0;
#X connect 23 0 20 0;
#X connect 26 0 30 0;
#X connect 26 0 30 1;
#X connect 27 0 26 0;
#X connect 28 0 31 1;
#X connect 29 0 28 0;
#X connect 29 1 28 1;
#X connect 30 0 10 1;
#X connect 31 0 27 0;
#X coords 0 -1 1 1 134 58 1 100 100;
#X restore 14 -49 pd ARGO;
#X obj 209 68 cnv 15 48 25 empty empty empty 20 12 0 14 -24198 -66577
0;
#N canvas 350 196 308 136 ??? 0;
#X obj -6 87 cnv 15 300 38 empty empty empty 20 12 0 14 -224896 -66577
0;
#X obj -6 10 cnv 18 300 70 empty empty ARGOPdMiniModules 3 10 1 14
-4033 -1 1.04858e+06;
#X obj 13 31 cnv 10 10 10 empty empty Gerard 0 5 1 11 -4033 -1 1.04858e+06
;
#X obj 55 30 cnv 10 10 10 empty empty Paresys 0 5 1 11 -4033 -1 1.04858e+06
;
#X text -1 89 Construit sous / Build under Pd 0.42.5-extended;
#X obj 6 43 pddp/pddplink http://pagesperso-orange.fr/Paresys/ARGOPd/
;
#X obj 6 58 pddp/pddplink http://gerard.paresys.free.fr/ARGOPd/;
#X obj 46 105 pddp/pddplink http://puredata.info/downloads;
#X restore 213 72 pd ???;
#N canvas 324 59 331 313 ARGO 0;
#X obj 101 101 cnv 20 104 34 empty ColorAmpli empty 20 12 0 14 -261299
-1 1.04858e+06;
#X obj 85 285 outlet~;
#X obj 134 104 cnv 10 20 10 empty ColorAmpli Ampli 1 5 1 14 -261299
-1 1.04858e+06;
#X obj 85 72 inlet~;
#X obj 85 260 *~;
#X obj 103 118 hsl 101 12 -80 20 0 1 \$0-A ColorAmpli -3dB 0 7 1 9
-261299 -1 -1 7700 0;
#X msg -24 161 label \$1;
#X obj -25 138 tosymbol;
#X obj -25 103 sprintf %ddB;
#X obj 101 101 cnv 4 10 4 empty empty empty 20 12 0 14 -1 -66577 0
;
#X obj 101 131 cnv 4 10 4 empty empty empty 20 12 0 14 -1 -66577 0
;
#X text -16 120 -> -80dB..20dB;
#X text 106 182 -> 0.0001..10 = -80dB..20dB;
#X text 209 97 5 5 2011;
#X obj 100 163 expr (pow(10 \, $f1 / 20));
#X text 107 140 -> -80..20;
#X obj 227 270 cnv 15 41 30 empty empty empty 20 12 0 14 -24198 -66577
0;
#N canvas 350 196 308 136 ?? 0;
#X obj -9 87 cnv 15 300 38 empty empty empty 20 12 0 14 -224896 -66577
0;
#X obj -9 10 cnv 18 300 70 empty empty ARGOPdMiniModules 1 10 1 14
-4033 -1 1.04858e+06;
#X obj 9 29 cnv 10 10 10 empty empty Gerard 0 5 1 9 -4033 -1 1.04858e+06
;
#X obj 40 29 cnv 10 10 10 empty empty Paresys 0 5 1 9 -4033 -1 1.04858e+06
;
#X text -8 89 Construit sous / Build under Pd 0.42.5-extended;
#X obj 39 105 pddplink http://puredata.info/downloads;
#X obj 3 42 pddplink http://pagesperso-orange.fr/Paresys/ARGOPd/;
#X obj 3 57 pddplink http://gerard.paresys.free.fr/ARGOPd/;
#X restore 231 277 pd ??;
#X obj 100 206 sel 0.0001;
#X msg 100 234 0;
#X connect 3 0 4 0;
#X connect 4 0 1 0;
#X connect 5 0 8 0;
#X connect 5 0 14 0;
#X connect 6 0 5 0;
#X connect 7 0 6 0;
#X connect 8 0 7 0;
#X connect 14 0 18 0;
#X connect 18 0 19 0;
#X connect 18 1 4 1;
#X connect 19 0 4 1;
#X connect 19 0 7 0;
#X coords 0 -1 1 1 106 36 1 100 100;
#X restore 14 18 pd ARGO;
#X text -94 28 Niveau general ->;
#X text -88 39 General level ->;
#X connect 0 0 1 0;
#X connect 3 0 7 0;
#X connect 7 0 12 0;
#X connect 12 0 15 0;
#X connect 15 0 2 0;
#X connect 15 0 2 1;
#X connect 15 0 11 0;
