#N canvas 203 22 738 405 10;
#X obj 245 51 switch~;
#N canvas 608 166 228 173 ARGOnOff 0;
#X obj 100 100 tgl 18 1 \$0-SendOnOff \$0-ReceiveOnOff On/Off 20 11
1 14 -4033 -1 -1 1 1;
#X obj 99 10 loadbang;
#X msg 99 33 \; pd dsp 1;
#X obj 100 129 outlet;
#X text -50 99 Audio On/Off du patch ->;
#X text -22 45 Audio General On ->;
#X text 107 82 17 3 2010;
#X connect 0 0 3 0;
#X connect 1 0 2 0;
#X coords 0 -1 1 1 65 18 2 100 100;
#X restore 245 33 pd ARGOnOff;
#X text 250 17 V;
#X text 250 10 |;
#X text 238 -1 On/Off Patch;
#X text -304 223 Niveau general ->;
#X text -298 233 General level ->;
#N canvas 432 42 314 359 ARGO 0;
#X obj 101 101 cnv 30 37 130 empty ColorAmpli empty 20 12 0 14 -1 -258113
0;
#X obj 101 101 cnv 4 10 4 empty empty empty 20 12 0 14 -1 -66577 0
;
#X obj 102 108 vu 8 120 \$0-B empty 0 0 1 11 -1 -4034 1 0;
#X obj 42 -112 inlet~;
#X obj 35 -87 *~;
#X obj 35 3 snapshot~;
#X obj 35 26 sqrt;
#X obj 35 -24 lop~ 10;
#X obj 35 50 rmstodb;
#X obj 98 -111 loadbang;
#X obj 35 73 - 100;
#X obj 171 26 sqrt;
#X obj 172 50 rmstodb;
#X obj 172 73 - 100;
#X obj 97 -23 metro 200;
#X obj 236 -97 cnv 15 60 30 empty empty empty 20 12 0 14 -24198 -66577
0;
#N canvas 300 65 442 264 Help 0;
#X obj 12 48 cnv 15 400 150 empty empty empty 20 12 0 14 -233017 -66577
0;
#X text 16 50 Citation;
#X text 28 67 peakamp~ tracks and outputs the absolute value of the
peak amplitude of the incoming signal. It outputs when banged or using
its own internal clock. The peak value is reset each time peakamp~
outputs a value.;
#X text 17 214 par rapport à la version précédente du MM-Vumetre env~
est remplacé par square~ + lop~ + snapshot~ + sqrt + rmstodb car env~
consomme beaucoup CPU.;
#X text 29 123 cyclone library;
#X text 28 135 http://suita.chopin.edu.pl/~czaja/miXed/externs/cyclone.html
;
#X text 29 155 Voir doc Max/MSP MSP46ReferenceManual.pdf;
#X text 18 14 MM-Vumetre;
#X restore 243 -91 pd Help;
#X obj 261 199 cnv 15 41 30 empty empty empty 20 12 0 14 -24198 -66577
0;
#N canvas 350 196 308 136 ?? 0;
#X obj -9 87 cnv 15 300 38 empty empty empty 20 12 0 14 -224896 -66577
0;
#X obj -9 10 cnv 18 300 70 empty empty ARGOPdMiniModules 1 10 1 14
-4033 -1 1.04858e+06;
#X obj 9 29 cnv 10 10 10 empty empty Gerard 0 5 1 9 -4033 -1 1.04858e+06
;
#X obj 40 29 cnv 10 10 10 empty empty Paresys 0 5 1 9 -4033 -1 1.04858e+06
;
#X text -8 89 Construit sous / Build under Pd 0.42.5-extended;
#X obj 39 105 pddplink http://puredata.info/downloads;
#X obj 3 42 pddplink http://pagesperso-orange.fr/Paresys/ARGOPd/;
#X obj 3 57 pddplink http://gerard.paresys.free.fr/ARGOPd/;
#X restore 265 206 pd ??;
#X obj 158 -111 r SendFluid;
#X obj 171 -50 cyclone/peakamp~ 1000;
#X text 145 106 13 2 2011;
#X connect 3 0 4 0;
#X connect 3 0 4 1;
#X connect 4 0 7 0;
#X connect 4 0 20 0;
#X connect 5 0 6 0;
#X connect 6 0 8 0;
#X connect 7 0 5 0;
#X connect 8 0 10 0;
#X connect 9 0 14 0;
#X connect 10 0 2 0;
#X connect 11 0 12 0;
#X connect 12 0 13 0;
#X connect 13 0 2 1;
#X connect 14 0 5 0;
#X connect 19 0 14 1;
#X connect 20 0 11 0;
#X coords 0 -1 1 1 39 132 2 100 100;
#X restore -131 253 pd ARGO;
#N canvas 335 46 476 374 ARGO 0;
#X obj 101 101 cnv 20 244 34 empty ColorTime Oscill-Pulse2 73 10 1
14 -208064 -1 1.04858e+06;
#X obj 91 352 outlet~;
#X obj 100 106 nbx 7 12 0 20000 0 1 \$0-A ColorTime Hz 60 7 1 9 -208064
-1 -1 61.7354 256;
#X obj 87 26 inlet~;
#X obj 101 131 cnv 4 10 4 empty empty empty 20 12 0 14 -1 -66577 0
;
#X obj 101 101 cnv 4 10 4 empty empty empty 20 12 0 14 -1728 -66577
0;
#X obj 103 118 hsl 241 12 0 1 0 0 \$0-A ColorTime empty 0 7 1 9 -262144
-1 -1 14300 0;
#X obj 103 118 hsl 241 12 0 1 0 0 \$0-A ColorTime B0 0 7 1 9 -208064
-1728 -1 14300 0;
#X text 350 121 2 HSLIDER superposés;
#X text 349 110 ATTENTION;
#X obj 176 26 cnv 15 60 30 empty empty empty 20 12 0 14 -24198 -66577
0;
#N canvas 357 140 425 238 Help 0;
#X obj 9 85 cnv 15 400 130 empty empty empty 20 12 0 14 -233017 -66577
0;
#X text 10 45 Sensibilitée de l'entrée de contrôle de la fréquence:
;
#X text 10 57 1 = 240 1/2 ton = 20 octaves;
#X text 11 19 Générateur d'impulsions controlées en largeur;
#X text 30 101 The Theory and Technique of Electronic Music;
#X text 14 87 From:;
#X text 31 114 Miller Puckette;
#X obj 30 128 pddplink http://crca.ucsd.edu/%7Emsp/techniques/latest/book.pdf
;
#X text 28 155 Figure6.13: Example patch F01.pulse.pd \, which synthesizes
a pulse train using stretched wavetable lookup.;
#X text 29 142 6.5 Examples Wavetable pulse train;
#X restore 183 32 pd Help;
#N canvas 658 231 344 337 Freq-v7-sig- 0;
#X obj 226 11 ftom;
#X obj 279 170 mtof;
#X obj 141 95 +~;
#X obj 9 142 snapshot~;
#X obj 9 164 change;
#X msg 9 189 set \$1;
#X obj 142 198 clip~ 0 20000;
#X obj 142 175 mtof~;
#X obj 142 227 outlet~;
#X obj 280 -12 inlet;
#X obj 225 -13 inlet;
#X obj 38 227 outlet;
#X obj 279 227 outlet;
#X text 35 245 Hslider;
#X obj 141 -8 inlet~;
#X obj 8 -9 loadbang;
#X obj 229 227 outlet;
#X obj 279 109 * 240;
#X obj 279 132 - 108;
#X obj 141 123 *~ 240;
#X obj 141 145 -~ 108;
#X obj 226 34 + 108;
#X obj 226 56 / 240;
#X obj 9 40 metro 200;
#X obj 64 -9 r SendFluid;
#N canvas 618 373 489 317 pitchb 0;
#X obj 70 111 mod 12;
#X obj 70 135 sel 0 1 2 3 4 5 6 7 8 9 10 11;
#X msg 246 170 A;
#X msg 300 170 B;
#X msg 192 170 G;
#X msg 3 170 C;
#X msg 57 170 D;
#X msg 111 170 E;
#X msg 138 170 F;
#X obj 204 1 inlet;
#X obj 329 115 div 12;
#X obj 204 79 t f f;
#X text 334 190 -> Numero de l'octave;
#X text 213 64 -> Numero MIDI de la note (69 = A3 = 440Hz);
#X msg 260 260 label \$1;
#X obj 260 283 outlet;
#X msg 30 170 Db;
#X msg 84 170 Eb;
#X msg 165 170 Gb;
#X msg 219 170 Ab;
#X msg 273 170 Bb;
#X text 369 78 (70 = A#3 = Bb3);
#X obj 260 238 symbol;
#X obj 260 213 sprintf %s%d;
#X text 11 231 Impossible d'afficher # dans un label;
#X text 11 243 donc j'affiche b;
#X obj 204 51 int;
#X text 255 23 -> pour corriger certaines erreurs de calcul;
#X obj 204 25 + 120.1;
#X obj 329 144 - 12;
#X text 255 35 et le pb du passage a zero de mod 12;
#X connect 0 0 1 0;
#X connect 1 0 5 0;
#X connect 1 1 16 0;
#X connect 1 2 6 0;
#X connect 1 3 17 0;
#X connect 1 4 7 0;
#X connect 1 5 8 0;
#X connect 1 6 18 0;
#X connect 1 7 4 0;
#X connect 1 8 19 0;
#X connect 1 9 2 0;
#X connect 1 10 20 0;
#X connect 1 11 3 0;
#X connect 2 0 23 0;
#X connect 3 0 23 0;
#X connect 4 0 23 0;
#X connect 5 0 23 0;
#X connect 6 0 23 0;
#X connect 7 0 23 0;
#X connect 8 0 23 0;
#X connect 9 0 28 0;
#X connect 10 0 29 0;
#X connect 11 0 0 0;
#X connect 11 1 10 0;
#X connect 14 0 15 0;
#X connect 16 0 23 0;
#X connect 17 0 23 0;
#X connect 18 0 23 0;
#X connect 19 0 23 0;
#X connect 20 0 23 0;
#X connect 22 0 14 0;
#X connect 23 0 22 0;
#X connect 26 0 11 0;
#X connect 28 0 26 0;
#X connect 29 0 23 1;
#X restore 40 86 pd pitchb;
#X text 44 256 Over;
#X text 281 245 Number;
#X text 222 -30 Number;
#X text 228 244 Hslider;
#X text 230 255 Under;
#X text 281 -42 Hslider;
#X text 286 -31 Under;
#X msg 229 197 set \$1;
#X connect 0 0 21 0;
#X connect 0 0 25 0;
#X connect 1 0 12 0;
#X connect 2 0 3 0;
#X connect 2 0 19 0;
#X connect 3 0 4 0;
#X connect 4 0 5 0;
#X connect 5 0 11 0;
#X connect 6 0 8 0;
#X connect 7 0 6 0;
#X connect 9 0 17 0;
#X connect 10 0 0 0;
#X connect 14 0 2 0;
#X connect 15 0 23 0;
#X connect 17 0 18 0;
#X connect 18 0 1 0;
#X connect 19 0 20 0;
#X connect 20 0 7 0;
#X connect 21 0 22 0;
#X connect 22 0 2 1;
#X connect 22 0 33 0;
#X connect 23 0 3 0;
#X connect 24 0 23 1;
#X connect 25 0 11 0;
#X connect 33 0 16 0;
#X restore 62 63 pd Freq-v7-sig-;
#X obj 91 159 phasor~;
#X obj 335 101 cnv 4 10 4 empty empty empty 20 12 0 14 -3522 -66577
0;
#X text 303 71 Pulse width;
#X text 307 82 modulation;
#X obj 263 106 hsl 81 12 -1 1 0 1 \$0-A ColorForm 86 0 7 1 9 -262144
-1 -1 3200 0;
#X obj 317 47 inlet~;
#X obj 263 106 hsl 81 12 -1 1 0 1 \$0-A ColorForm 39 0 7 1 9 -188398
-3522 -1 3200 0;
#N canvas 795 278 236 292 PWM~ 0;
#X msg 126 236 set \$1;
#X obj 15 73 +~;
#X obj 89 278 outlet;
#X obj 127 109 snapshot~;
#X obj 127 216 change;
#X obj 60 32 inlet;
#X obj 13 32 inlet~;
#X obj 17 277 outlet~;
#X msg 51 239 label \$1;
#X obj 51 217 tosymbol;
#X obj 100 33 loadbang;
#X obj 101 73 metro 200;
#X obj 158 34 r SendFluid;
#X obj 60 71 + 1;
#X obj 39 105 t b f;
#X msg 39 130 100;
#X obj 51 154 pow;
#X text 55 196 <- 1..10000;
#X text 56 14 -1..+1;
#X obj 51 178 int;
#X connect 0 0 2 0;
#X connect 1 0 3 0;
#X connect 1 0 7 0;
#X connect 3 0 4 0;
#X connect 4 0 0 0;
#X connect 5 0 1 1;
#X connect 5 0 13 0;
#X connect 6 0 1 0;
#X connect 8 0 2 0;
#X connect 9 0 8 0;
#X connect 10 0 11 0;
#X connect 11 0 3 0;
#X connect 12 0 11 1;
#X connect 13 0 14 0;
#X connect 14 0 15 0;
#X connect 14 1 16 1;
#X connect 15 0 16 0;
#X connect 16 0 19 0;
#X connect 19 0 9 0;
#X restore 315 146 pd PWM~;
#X obj 419 332 cnv 15 41 30 empty empty empty 20 12 0 14 -24198 -66577
0;
#N canvas 350 196 308 136 ?? 0;
#X obj -9 87 cnv 15 300 38 empty empty empty 20 12 0 14 -224896 -66577
0;
#X obj -9 10 cnv 18 300 70 empty empty ARGOPdMiniModules 1 10 1 14
-4033 -1 1.04858e+06;
#X obj 9 29 cnv 10 10 10 empty empty Gerard 0 5 1 9 -4033 -1 1.04858e+06
;
#X obj 40 29 cnv 10 10 10 empty empty Paresys 0 5 1 9 -4033 -1 1.04858e+06
;
#X text -8 89 Construit sous / Build under Pd 0.42.5-extended;
#X obj 39 105 pddplink http://puredata.info/downloads;
#X obj 3 42 pddplink http://pagesperso-orange.fr/Paresys/ARGOPd/;
#X obj 3 57 pddplink http://gerard.paresys.free.fr/ARGOPd/;
#X restore 423 339 pd ??;
#X text 224 81 22 12 2010;
#X obj 91 184 -~ 0.5;
#X obj 91 266 clip~ -0.5 0.5;
#X obj 91 289 cos~;
#X obj 91 310 +~ 1;
#X obj 91 331 *~ 0.5;
#X obj 221 239 *~;
#X obj 315 208 cyclone/pow~ 100;
#X obj 315 184 +~ 1;
#X text 250 232 <- 1..10000;
#X text 320 165 <- -1..+1;
#X connect 2 0 12 1;
#X connect 3 0 12 0;
#X connect 6 0 12 2;
#X connect 12 0 7 0;
#X connect 12 1 13 0;
#X connect 12 2 6 0;
#X connect 12 3 2 0;
#X connect 13 0 24 0;
#X connect 17 0 20 1;
#X connect 18 0 20 0;
#X connect 20 0 31 0;
#X connect 20 1 19 0;
#X connect 24 0 29 0;
#X connect 25 0 26 0;
#X connect 26 0 27 0;
#X connect 27 0 28 0;
#X connect 28 0 1 0;
#X connect 29 0 25 0;
#X connect 30 0 29 1;
#X connect 31 0 30 0;
#X coords 0 -1 1 1 246 36 1 100 100;
#X restore -182 23 pd ARGO;
#N canvas 196 86 803 293 ARGO 0;
#X obj 95 47 cartopol~;
#X obj 95 20 rfft~;
#X msg -109 34 slide 10 10;
#X obj 95 -28 inlet~;
#X msg -129 61 slide 1 1;
#X obj -23 35 *~ 0.361;
#X obj 101 101 cnv 12 198 34 empty empty empty 20 12 0 14 -262144 -1
1.04858e+06;
#X obj 100 114 Scope~ 514 135 2 3 515 0 1000 0 0 0 0 255 0 0 255 255
255 0;
#X obj 101 101 cnv 4 10 4 empty empty empty 20 12 0 14 -1 -66577 0
;
#X obj 115 101 tgl 12 1 \$0-SendLoop \$0-ReceiveLoop Gliss 15 6 1 9
-262144 -1 -1 0 1;
#X obj -128 7 sel 0 1;
#X msg 224 -20 frgb 255 0 0;
#X msg 223 4 brgb 255 255 255;
#X obj 207 104 cnv 10 44 10 empty empty Spectrum(500Hz/div) 1 5 1 14
-262144 -1 1.04858e+06;
#X obj 492 23 block~ 4096;
#X obj -23 77 vectral~ 1024;
#X obj -23 3 count~ 0 1024 1 1;
#X obj 621 219 cnv 15 41 30 empty empty empty 20 12 0 14 -24198 -66577
0;
#N canvas 350 196 308 136 ?? 0;
#X obj -9 87 cnv 15 300 38 empty empty empty 20 12 0 14 -224896 -66577
0;
#X obj -9 10 cnv 18 300 70 empty empty ARGOPdMiniModules 1 10 1 14
-4033 -1 1.04858e+06;
#X obj 9 29 cnv 10 10 10 empty empty Gerard 0 5 1 9 -4033 -1 1.04858e+06
;
#X obj 40 29 cnv 10 10 10 empty empty Paresys 0 5 1 9 -4033 -1 1.04858e+06
;
#X text -8 89 Construit sous / Build under Pd 0.42.5-extended;
#X obj 39 105 pddplink http://puredata.info/downloads;
#X obj 3 42 pddplink http://pagesperso-orange.fr/Paresys/ARGOPd/;
#X obj 3 57 pddplink http://gerard.paresys.free.fr/ARGOPd/;
#X restore 625 226 pd ??;
#X obj -59 137 cnv 15 60 30 empty empty empty 20 12 0 14 -24198 -66577
0;
#N canvas 385 108 422 399 Help 0;
#X obj 8 85 cnv 15 400 240 empty empty empty 20 12 0 14 -233017 -66577
0;
#X text 12 87 Citation;
#X text 14 333 Voir examples:cyclone:pink-test.pd;
#X text 14 344 Voir examples:cyclone:scope-...;
#X text 14 355 Voir MSP46ReferenceManual.pdf;
#X text 13 28 Utilise l'objet Scope~ de la library cyclone;
#X restore -52 143 pd Help;
#X msg 228 77 bufsize 515;
#X msg 225 29 range 0 256;
#X msg 228 53 2;
#X text 560 80 16 6 2011;
#X connect 0 0 15 2;
#X connect 1 0 0 0;
#X connect 1 1 0 1;
#X connect 2 0 15 0;
#X connect 3 0 1 0;
#X connect 4 0 15 0;
#X connect 5 0 15 0;
#X connect 9 0 10 0;
#X connect 10 0 4 0;
#X connect 10 1 2 0;
#X connect 11 0 7 0;
#X connect 12 0 7 0;
#X connect 15 0 7 0;
#X connect 16 0 5 0;
#X connect 16 0 15 1;
#X connect 21 0 7 0;
#X connect 22 0 7 0;
#X connect 23 0 7 0;
#X coords 0 -1 1 1 514 150 2 100 100;
#X restore -87 211 pd ARGO;
#X obj -300 2 cnv 15 15 15 empty empty ExMM146a-Parole2.pd 0 8 1 14
-262144 -1 0;
#X obj 373 366 cnv 15 48 25 empty empty empty 20 12 0 14 -24198 -66577
0;
#N canvas 350 196 308 136 ??? 0;
#X obj -6 87 cnv 15 300 38 empty empty empty 20 12 0 14 -224896 -66577
0;
#X obj -6 10 cnv 18 300 70 empty empty ARGOPdMiniModules 3 10 1 14
-4033 -1 1.04858e+06;
#X obj 13 31 cnv 10 10 10 empty empty Gerard 0 5 1 11 -4033 -1 1.04858e+06
;
#X obj 55 30 cnv 10 10 10 empty empty Paresys 0 5 1 11 -4033 -1 1.04858e+06
;
#X text -1 89 Construit sous / Build under Pd 0.42.5-extended;
#X obj 6 43 pddp/pddplink http://pagesperso-orange.fr/Paresys/ARGOPd/
;
#X obj 6 58 pddp/pddplink http://gerard.paresys.free.fr/ARGOPd/;
#X obj 46 105 pddp/pddplink http://puredata.info/downloads;
#X restore 377 370 pd ???;
#X text -241 88 Adjust ->;
#X text -241 161 Adjust ->;
#X text -83 122 <- Adjust;
#X obj -227 369 dac~ 1 2;
#N canvas 324 59 331 313 ARGO 0;
#X obj 101 101 cnv 20 104 34 empty ColorAmpli empty 20 12 0 14 -261299
-1 1.04858e+06;
#X obj 85 285 outlet~;
#X obj 134 104 cnv 10 20 10 empty ColorAmpli Ampli 1 5 1 14 -261299
-1 1.04858e+06;
#X obj 85 72 inlet~;
#X obj 85 260 *~;
#X obj 103 118 hsl 101 12 -80 20 0 1 \$0-A ColorAmpli 0dB 0 7 1 9 -261299
-1 -1 8000 0;
#X msg -24 161 label \$1;
#X obj -25 138 tosymbol;
#X obj -25 103 sprintf %ddB;
#X obj 101 101 cnv 4 10 4 empty empty empty 20 12 0 14 -1 -66577 0
;
#X obj 101 131 cnv 4 10 4 empty empty empty 20 12 0 14 -1 -66577 0
;
#X text -16 120 -> -80dB..20dB;
#X text 106 182 -> 0.0001..10 = -80dB..20dB;
#X text 209 97 5 5 2011;
#X obj 100 163 expr (pow(10 \, $f1 / 20));
#X text 107 140 -> -80..20;
#X obj 227 270 cnv 15 41 30 empty empty empty 20 12 0 14 -24198 -66577
0;
#N canvas 350 196 308 136 ?? 0;
#X obj -9 87 cnv 15 300 38 empty empty empty 20 12 0 14 -224896 -66577
0;
#X obj -9 10 cnv 18 300 70 empty empty ARGOPdMiniModules 1 10 1 14
-4033 -1 1.04858e+06;
#X obj 9 29 cnv 10 10 10 empty empty Gerard 0 5 1 9 -4033 -1 1.04858e+06
;
#X obj 40 29 cnv 10 10 10 empty empty Paresys 0 5 1 9 -4033 -1 1.04858e+06
;
#X text -8 89 Construit sous / Build under Pd 0.42.5-extended;
#X obj 39 105 pddplink http://puredata.info/downloads;
#X obj 3 42 pddplink http://pagesperso-orange.fr/Paresys/ARGOPd/;
#X obj 3 57 pddplink http://gerard.paresys.free.fr/ARGOPd/;
#X restore 231 277 pd ??;
#X obj 100 206 sel 0.0001;
#X msg 100 234 0;
#X connect 3 0 4 0;
#X connect 4 0 1 0;
#X connect 5 0 8 0;
#X connect 5 0 14 0;
#X connect 6 0 5 0;
#X connect 7 0 6 0;
#X connect 8 0 7 0;
#X connect 14 0 18 0;
#X connect 18 0 19 0;
#X connect 18 1 4 1;
#X connect 19 0 4 1;
#X connect 19 0 7 0;
#X coords 0 -1 1 1 106 36 1 100 100;
#X restore -197 212 pd ARGO;
#X obj -2 136 pddp/pddplink http://www.martin-brinkmann.de/pd-patches.htm
;
#X text -3 121 Based on Martin Brinkmann's work: vowelfilter1.pd;
#X text -3 107 Parole2;
#N canvas 405 90 394 421 vowelfilter1 0;
#N canvas 223 70 802 650 3filter 0;
#X obj 56 95 inlet~;
#X obj 162 96 inlet;
#X obj 219 94 inlet;
#X obj 272 94 inlet;
#X obj 396 96 inlet;
#X obj 154 230 vcf~;
#X obj 201 232 vcf~;
#X obj 264 232 vcf~;
#X obj 162 282 vcf~;
#X obj 209 284 vcf~;
#X obj 272 284 vcf~;
#X obj 74 470 outlet~;
#X obj 158 469 outlet~;
#X obj 252 468 outlet~;
#X connect 0 0 5 0;
#X connect 0 0 6 0;
#X connect 0 0 7 0;
#X connect 1 0 5 1;
#X connect 1 0 8 1;
#X connect 2 0 6 1;
#X connect 2 0 9 1;
#X connect 3 0 7 1;
#X connect 3 0 10 1;
#X connect 4 0 5 2;
#X connect 4 0 7 2;
#X connect 4 0 6 2;
#X connect 4 0 8 2;
#X connect 4 0 9 2;
#X connect 4 0 10 2;
#X connect 5 0 8 0;
#X connect 6 0 9 0;
#X connect 7 0 10 0;
#X connect 8 0 11 0;
#X connect 9 0 12 0;
#X connect 10 0 13 0;
#X restore 112 362 pd 3filter;
#X floatatom 18 309 5 0 0 0 - - -;
#N canvas 4 22 695 727 1st6freqs 0;
#X obj 39 58 inlet;
#X obj 145 33 inlet;
#X obj 534 83 inlet;
#X obj 221 610 outlet;
#X obj 62 221 -;
#X msg 48 201 1;
#X obj 42 303 +;
#X obj 39 164 t f b f;
#X obj 153 221 -;
#X msg 139 201 1;
#X obj 133 303 +;
#X obj 121 167 t f b f;
#X obj 78 388 *;
#X obj 127 453 +;
#X obj 254 333 -;
#X msg 263 303 1;
#X obj 157 400 *;
#X obj 237 250 t b b f b f;
#X obj 28 261 * 300;
#X obj 72 261 * 270;
#X obj 120 261 * 530;
#X obj 163 259 * 400;
#X obj 397 233 -;
#X msg 382 208 1;
#X obj 375 305 +;
#X obj 364 174 t f b f;
#X obj 406 267 * 640;
#X obj 363 268 * 660;
#X obj 198 522 *;
#X obj 448 409 -;
#X msg 457 379 1;
#X obj 265 526 *;
#X obj 431 326 t b b f b f;
#X obj 221 571 +;
#X connect 0 0 11 0;
#X connect 0 0 7 0;
#X connect 1 0 17 0;
#X connect 1 0 25 0;
#X connect 2 0 32 0;
#X connect 4 0 19 0;
#X connect 5 0 4 0;
#X connect 6 0 12 0;
#X connect 7 0 18 0;
#X connect 7 1 5 0;
#X connect 7 2 4 1;
#X connect 8 0 21 0;
#X connect 9 0 8 0;
#X connect 10 0 16 0;
#X connect 11 0 20 0;
#X connect 11 1 9 0;
#X connect 11 2 8 1;
#X connect 12 0 13 0;
#X connect 13 0 28 0;
#X connect 14 0 16 1;
#X connect 15 0 14 0;
#X connect 16 0 13 1;
#X connect 17 0 12 0;
#X connect 17 1 16 0;
#X connect 17 2 12 1;
#X connect 17 3 15 0;
#X connect 17 4 14 1;
#X connect 18 0 6 0;
#X connect 19 0 6 1;
#X connect 20 0 10 0;
#X connect 21 0 10 1;
#X connect 22 0 26 0;
#X connect 23 0 22 0;
#X connect 24 0 31 0;
#X connect 25 0 27 0;
#X connect 25 1 23 0;
#X connect 25 2 22 1;
#X connect 26 0 24 1;
#X connect 27 0 24 0;
#X connect 28 0 33 0;
#X connect 29 0 31 1;
#X connect 30 0 29 0;
#X connect 31 0 33 1;
#X connect 32 0 28 0;
#X connect 32 1 31 0;
#X connect 32 2 28 1;
#X connect 32 3 30 0;
#X connect 32 4 29 1;
#X connect 33 0 3 0;
#X restore 18 281 pd 1st6freqs;
#X floatatom 106 308 5 0 0 0 - - -;
#N canvas 457 22 695 727 2nd6freqs 0;
#X obj 39 58 inlet;
#X obj 145 33 inlet;
#X obj 534 83 inlet;
#X obj 221 610 outlet;
#X obj 62 221 -;
#X msg 48 201 1;
#X obj 42 303 +;
#X obj 39 164 t f b f;
#X obj 153 221 -;
#X msg 139 201 1;
#X obj 133 303 +;
#X obj 121 167 t f b f;
#X obj 78 388 *;
#X obj 127 453 +;
#X obj 254 333 -;
#X msg 263 303 1;
#X obj 157 400 *;
#X obj 237 250 t b b f b f;
#X obj 397 233 -;
#X msg 382 208 1;
#X obj 375 305 +;
#X obj 364 174 t f b f;
#X obj 198 522 *;
#X obj 448 409 -;
#X msg 457 379 1;
#X obj 265 526 *;
#X obj 431 326 t b b f b f;
#X obj 221 571 +;
#X obj 21 261 * 870;
#X obj 66 262 * 2300;
#X obj 115 259 * 1850;
#X obj 167 259 * 2000;
#X obj 350 266 * 1700;
#X obj 406 266 * 1200;
#X connect 0 0 11 0;
#X connect 0 0 7 0;
#X connect 1 0 17 0;
#X connect 1 0 21 0;
#X connect 2 0 26 0;
#X connect 4 0 29 0;
#X connect 5 0 4 0;
#X connect 6 0 12 0;
#X connect 7 0 28 0;
#X connect 7 1 5 0;
#X connect 7 2 4 1;
#X connect 8 0 31 0;
#X connect 9 0 8 0;
#X connect 10 0 16 0;
#X connect 11 0 30 0;
#X connect 11 1 9 0;
#X connect 11 2 8 1;
#X connect 12 0 13 0;
#X connect 13 0 22 0;
#X connect 14 0 16 1;
#X connect 15 0 14 0;
#X connect 16 0 13 1;
#X connect 17 0 12 0;
#X connect 17 1 16 0;
#X connect 17 2 12 1;
#X connect 17 3 15 0;
#X connect 17 4 14 1;
#X connect 18 0 33 0;
#X connect 19 0 18 0;
#X connect 20 0 25 0;
#X connect 21 0 32 0;
#X connect 21 1 19 0;
#X connect 21 2 18 1;
#X connect 22 0 27 0;
#X connect 23 0 25 1;
#X connect 24 0 23 0;
#X connect 25 0 27 1;
#X connect 26 0 22 0;
#X connect 26 1 25 0;
#X connect 26 2 22 1;
#X connect 26 3 24 0;
#X connect 26 4 23 1;
#X connect 27 0 3 0;
#X connect 28 0 6 0;
#X connect 29 0 6 1;
#X connect 30 0 10 0;
#X connect 31 0 10 1;
#X connect 32 0 20 0;
#X connect 33 0 20 1;
#X restore 106 280 pd 2nd6freqs;
#X floatatom 194 307 5 0 0 0 - - -;
#N canvas 457 22 695 727 3rd6freqs 0;
#X obj 39 58 inlet;
#X obj 145 33 inlet;
#X obj 534 83 inlet;
#X obj 221 610 outlet;
#X obj 62 221 -;
#X msg 48 201 1;
#X obj 42 303 +;
#X obj 39 164 t f b f;
#X obj 153 221 -;
#X msg 139 201 1;
#X obj 133 303 +;
#X obj 121 167 t f b f;
#X obj 78 388 *;
#X obj 127 453 +;
#X obj 254 333 -;
#X msg 263 303 1;
#X obj 157 400 *;
#X obj 237 250 t b b f b f;
#X obj 397 233 -;
#X msg 382 208 1;
#X obj 375 305 +;
#X obj 364 174 t f b f;
#X obj 198 522 *;
#X obj 448 409 -;
#X msg 457 379 1;
#X obj 265 526 *;
#X obj 431 326 t b b f b f;
#X obj 221 571 +;
#X obj 15 262 * 2250;
#X obj 65 261 * 3000;
#X obj 115 259 * 2500;
#X obj 167 259 * 2550;
#X obj 349 266 * 2400;
#X obj 404 267 * 2400;
#X connect 0 0 11 0;
#X connect 0 0 7 0;
#X connect 1 0 17 0;
#X connect 1 0 21 0;
#X connect 2 0 26 0;
#X connect 4 0 29 0;
#X connect 5 0 4 0;
#X connect 6 0 12 0;
#X connect 7 0 28 0;
#X connect 7 1 5 0;
#X connect 7 2 4 1;
#X connect 8 0 31 0;
#X connect 9 0 8 0;
#X connect 10 0 16 0;
#X connect 11 0 30 0;
#X connect 11 1 9 0;
#X connect 11 2 8 1;
#X connect 12 0 13 0;
#X connect 13 0 22 0;
#X connect 14 0 16 1;
#X connect 15 0 14 0;
#X connect 16 0 13 1;
#X connect 17 0 12 0;
#X connect 17 1 16 0;
#X connect 17 2 12 1;
#X connect 17 3 15 0;
#X connect 17 4 14 1;
#X connect 18 0 33 0;
#X connect 19 0 18 0;
#X connect 20 0 25 0;
#X connect 21 0 32 0;
#X connect 21 1 19 0;
#X connect 21 2 18 1;
#X connect 22 0 27 0;
#X connect 23 0 25 1;
#X connect 24 0 23 0;
#X connect 25 0 27 1;
#X connect 26 0 22 0;
#X connect 26 1 25 0;
#X connect 26 2 22 1;
#X connect 26 3 24 0;
#X connect 26 4 23 1;
#X connect 27 0 3 0;
#X connect 28 0 6 0;
#X connect 29 0 6 1;
#X connect 30 0 10 0;
#X connect 31 0 10 1;
#X connect 32 0 20 0;
#X connect 33 0 20 1;
#X restore 194 279 pd 3rd6freqs;
#X obj -72 30 inlet~;
#X obj 78 396 outlet~;
#X obj 74 68 / 128;
#X obj 74 35 inlet;
#X obj 133 72 / 128;
#X obj 133 35 inlet;
#X obj 183 73 / 128;
#X obj 183 34 inlet;
#X obj 141 394 outlet~;
#X obj 198 391 outlet~;
#X obj -74 314 *~ 5;
#X obj 101 101 cnv 15 95 109 empty empty Parole2 47 13 1 14 -188398
-66577 0;
#X obj 103 120 hsl 80 12 0 1 0 1 \$0-A \$0-B empty -2 -8 0 10 -208064
-1 -1 3900 0;
#X obj 185 122 vsl 12 80 0 1 0 1 \$0-A \$0-B empty 0 -9 0 10 -208064
-1 -1 3500 0;
#X obj 103 193 hsl 80 12 0 1 0 1 \$0-A \$0-B empty -2 -8 0 10 -208064
-1 -1 6600 0;
#X obj 101 101 cnv 4 10 4 empty empty empty 20 12 0 14 -1 -66577 0
;
#X obj 186 101 cnv 4 10 4 empty empty empty 20 12 0 14 -260097 -66577
0;
#X obj 128 101 cnv 4 10 4 empty empty empty 20 12 0 14 -260097 -66577
0;
#X obj 157 101 cnv 4 10 4 empty empty empty 20 12 0 14 -260097 -66577
0;
#X obj 101 206 cnv 4 10 4 empty empty empty 20 12 0 14 -1 -66577 0
;
#X obj 143 206 cnv 4 10 4 empty empty empty 20 12 0 14 -1 -66577 0
;
#X obj 186 206 cnv 4 10 4 empty empty empty 20 12 0 14 -1 -66577 0
;
#X obj 103 158 hsl 80 12 1 99 1 1 \$0-A \$0-B 16 0 7 1 9 -188398 -1
-1 4800 0;
#N canvas 0 22 450 300 label 0;
#X msg 221 236 label \$1;
#X obj 221 214 tosymbol;
#X obj 221 175 int;
#X obj 224 132 inlet;
#X obj 223 270 outlet;
#X connect 0 0 4 0;
#X connect 1 0 0 0;
#X connect 2 0 1 0;
#X connect 3 0 2 0;
#X restore 35 127 pd label;
#X obj 103 153 cnv 2 2 2 empty empty Resonance 0 0 1 9 -188398 -66577
0;
#X obj -30 58 cnv 15 60 30 empty empty empty 20 12 0 14 -24198 -66577
0;
#N canvas 301 159 423 320 Help 0;
#X obj 10 23 pddp/pddplink http://www.martin-brinkmann.de/pd-patches.htm
;
#X text 9 5 Based on Martin Brinkmann's work: vowelfilter1.pd;
#X obj 11 79 cnv 15 400 230 empty empty empty 20 12 0 14 -233017 -66577
0;
#X text 14 81 Citation;
#X text 26 97 my instruments (09/2011) collection of mostly messy and
undocumented patches which i use to make music. maybe it is usefull
for someone. work in progress and will be updated occasionally.;
#X text 47 167 unsorted \, unfinished \, mostly undocumented collection
of patches i use to make music.;
#X text 47 196 pretty messy \, and made to be as selfcontained and
copy/paste-able as possible.;
#X text 47 227 (therefore hardly any abstractions used...) work in
progress \, and patches may change \, become obsolete or disapear with
future updates. mostly pd vanilla \, but sometimes externals are needed
(especially moog~);
#X text 24 286 09/2011 martin brinkmann;
#X text 10 44 my instruments (09-2011)/mnb_instruments_wip/vowelfilter1.pd
;
#X text 26 153 mnb_instruments_wip;
#X restore -23 64 pd Help;
#X obj 252 384 cnv 15 48 25 empty empty empty 20 12 0 14 -24198 -66577
0;
#N canvas 350 196 308 136 ??? 0;
#X obj -6 87 cnv 15 300 38 empty empty empty 20 12 0 14 -224896 -66577
0;
#X obj -6 10 cnv 18 300 70 empty empty ARGOPdMiniModules 3 10 1 14
-4033 -1 1.04858e+06;
#X obj 13 31 cnv 10 10 10 empty empty Gerard 0 5 1 11 -4033 -1 1.04858e+06
;
#X obj 55 30 cnv 10 10 10 empty empty Paresys 0 5 1 11 -4033 -1 1.04858e+06
;
#X text -1 89 Construit sous / Build under Pd 0.42.5-extended;
#X obj 6 43 pddp/pddplink http://pagesperso-orange.fr/Paresys/ARGOPd/
;
#X obj 6 58 pddp/pddplink http://gerard.paresys.free.fr/ARGOPd/;
#X obj 46 105 pddp/pddplink http://puredata.info/downloads;
#X restore 256 388 pd ???;
#X msg -65 109 270 2300 3000;
#X msg -64 139 300 870 2250;
#X msg -63 166 400 2000 2550;
#X msg -63 190 530 1850 2500;
#X msg -63 223 640 1200 2400;
#X msg -63 251 660 1700 2400;
#X text 71 15 0..128;
#X text 130 16 0..128;
#X text 181 15 0..128;
#X text 202 120 16 5 2012;
#X connect 0 0 8 0;
#X connect 0 1 15 0;
#X connect 0 2 16 0;
#X connect 2 0 0 1;
#X connect 2 0 1 0;
#X connect 4 0 3 0;
#X connect 4 0 0 2;
#X connect 6 0 5 0;
#X connect 6 0 0 3;
#X connect 7 0 17 0;
#X connect 9 0 19 0;
#X connect 10 0 9 0;
#X connect 11 0 20 0;
#X connect 12 0 11 0;
#X connect 13 0 21 0;
#X connect 14 0 13 0;
#X connect 17 0 0 0;
#X connect 19 0 2 0;
#X connect 19 0 4 0;
#X connect 19 0 6 0;
#X connect 20 0 2 1;
#X connect 20 0 4 1;
#X connect 20 0 6 1;
#X connect 21 0 2 2;
#X connect 21 0 4 2;
#X connect 21 0 6 2;
#X connect 29 0 30 0;
#X connect 29 0 0 4;
#X connect 30 0 29 0;
#X coords 0 -1 1 1 97 111 1 100 100;
#X restore -182 71 pd vowelfilter1;
#X connect 1 0 0 0;
#X connect 8 0 21 0;
#X connect 17 0 16 0;
#X connect 17 0 16 1;
#X connect 17 0 7 0;
#X connect 21 0 17 0;
#X connect 21 0 9 0;
#X connect 21 1 17 0;
#X connect 21 1 9 0;
#X connect 21 2 17 0;
#X connect 21 2 9 0;
