#N canvas 4 22 1146 578 10;
#X obj 39 78 switch~;
#N canvas 608 166 228 173 ARGOnOff 0;
#X obj 100 100 tgl 18 1 \$0-SendOnOff \$0-ReceiveOnOff On/Off 20 11
1 14 -4033 -1 -1 1 1;
#X obj 99 10 loadbang;
#X msg 99 33 \; pd dsp 1;
#X obj 100 129 outlet;
#X text -50 99 Audio On/Off du patch ->;
#X text -22 45 Audio General On ->;
#X text 107 82 17 3 2010;
#X connect 0 0 3 0;
#X connect 1 0 2 0;
#X coords 0 -1 1 1 65 18 2 100 100;
#X restore 39 60 pd ARGOnOff;
#X text 44 44 V;
#X text 44 37 |;
#X text 32 26 On/Off Patch;
#N canvas 413 140 402 279 ARGO 0;
#X obj 101 101 cnv 10 95 41 \$0-A \$0-B empty 20 12 0 14 -1 -1 1.04858e+06
;
#X obj 101 109 nbx 4 12 0 1e+37 0 0 \$0 \$0-ReceiveCpuPeak CPUPeak
45 7 1 11 -24198 -1 -24198 26 256;
#X obj 101 122 nbx 4 12 0 1e+37 0 0 \$0 \$0-ReceiveCpuMean CPUMean
45 7 1 11 -24198 -1 -24198 27.58 256;
#X obj 145 -55 cputime;
#X obj 145 -76 t b b;
#X text 188 24 (c) musil@iem.kug.ac.at;
#X text 230 37 IEM KUG;
#X text 78 18 CPU-load;
#X obj 144 -125 loadbang;
#X text 205 48 graz \, austria 2001;
#X obj 145 -100 metro 500;
#X obj 145 -34 * 0.2;
#X text 237 -88 -dsp-load in %;
#X text 228 -101 measure average- and peak-;
#X obj 37 18 * 100;
#X obj 37 63 int;
#X obj 37 41 + 0.499;
#X obj 37 86 * 0.01;
#N canvas 524 162 422 273 1p1zmodif 0;
#X text 134 89 (c) musil@iem.kug.ac.at;
#X text 179 99 IEM KUG;
#X obj 14 195 +;
#X text 151 108 graz \, austria 2001;
#X text 135 71 y[n] = a0*x[n] + a1*x[n-1] + b1*y[n-1];
#X text 18 13 x[n];
#X text 16 244 y[n];
#X text 84 111 y[n-1];
#X text 134 56 <float> control-IIR-filter 1.order;
#X obj 15 28 inlet;
#X obj 14 228 outlet;
#X obj 15 112 * 0.1;
#X obj 59 156 * 0.9;
#X text 139 144 a1 = 0;
#X text 139 155 b1 = 0.9;
#X text 139 133 a0 = 0.1;
#X obj 15 50 t f b;
#X text 135 40 Inspiré de 1p1z;
#X obj 59 112 f 0;
#X connect 2 0 10 0;
#X connect 2 0 18 1;
#X connect 9 0 16 0;
#X connect 11 0 2 0;
#X connect 12 0 2 1;
#X connect 16 0 11 0;
#X connect 16 1 18 0;
#X connect 18 0 12 0;
#X restore 37 -8 pd 1p1zmodif;
#X text 146 9 Inspiré de 5.reference/iemabs/help-dsp.pd;
#X text 141 83 25 3 2010;
#X connect 3 0 11 0;
#X connect 4 0 3 0;
#X connect 4 1 3 1;
#X connect 8 0 10 0;
#X connect 10 0 4 0;
#X connect 11 0 18 0;
#X connect 11 0 1 0;
#X connect 14 0 16 0;
#X connect 15 0 17 0;
#X connect 16 0 15 0;
#X connect 17 0 2 0;
#X connect 18 0 14 0;
#X coords 0 -1 1 1 97 43 1 100 100;
#X restore 16 108 pd ARGO;
#X obj 5 5 cnv 15 15 15 empty empty ExMM131j-EEG-Play-2Ch-Sonification.pd
0 8 1 14 -262144 -66577 0;
#N canvas 324 45 499 409 ARGO 0;
#X obj 301 104 cnv 15 60 30 empty empty empty 20 12 0 14 -24198 -66577
0;
#N canvas 351 69 403 277 Help 0;
#X text 13 5 6 filtres passe-bandes pour séparer les ondes mesurées
par électro-encéphalographie.;
#X text 13 36 6 bandpass filters to separate the waves measured by
electroencephalography.;
#X text 12 -13 EEG = electroencephalography. = électro-encéphalographie
;
#X obj 13 129 pddplink http://www.brainmaster.com/generalinfo/eegbands/eegbands.html
;
#X obj 13 114 pddplink http://fr.wikipedia.org/wiki/Électro-encéphalographie
;
#X obj 13 81 pddplink http://en.wikipedia.org/wiki/Electroencephalography
;
#X obj 13 97 pddplink http://fr.wikipedia.org/wiki/Rythme_cérébral
;
#X obj 21 177 pddplink http://openeeg.sourceforge.net/doc/;
#X text 14 162 Made for:;
#X text 11 -38 -;
#X restore 308 110 pd Help;
#X obj 444 367 cnv 15 41 30 empty empty empty 20 12 0 14 -24198 -66577
0;
#N canvas 350 196 308 136 ?? 0;
#X obj -9 87 cnv 15 300 38 empty empty empty 20 12 0 14 -224896 -66577
0;
#X obj -9 10 cnv 18 300 70 empty empty ARGOPdMiniModules 1 10 1 14
-4033 -1 1.04858e+06;
#X obj 9 29 cnv 10 10 10 empty empty Gerard 0 5 1 9 -4033 -1 1.04858e+06
;
#X obj 40 29 cnv 10 10 10 empty empty Paresys 0 5 1 9 -4033 -1 1.04858e+06
;
#X text -8 89 Construit sous / Build under Pd 0.42.5-extended;
#X obj 39 105 pddplink http://puredata.info/downloads;
#X obj 3 42 pddplink http://pagesperso-orange.fr/Paresys/ARGOPd/;
#X obj 3 57 pddplink http://gerard.paresys.free.fr/ARGOPd/;
#X restore 448 374 pd ??;
#X obj 101 101 cnv 20 130 34 empty ColorForm Flt-EEG 80 8 1 14 -188398
-1 1.04858e+06;
#X obj 101 131 cnv 4 10 4 empty empty empty 20 12 0 14 -1 -66577 0
;
#X obj 197 131 cnv 4 10 4 empty empty empty 0 0 0 9 -1 -66577 0;
#X obj 101 101 cnv 4 10 4 empty empty empty 20 12 0 14 -1 -66577 0
;
#X obj 148 131 cnv 4 10 4 empty empty empty 0 0 0 9 -1 -66577 0;
#X obj 123 131 cnv 4 10 4 empty empty empty 0 0 0 9 -1 -66577 0;
#X obj 21 290 lop~ 3;
#X obj 21 312 lop~ 3;
#X text 26 367 Delta;
#X text 7 381 0.1Hz...3Hz;
#X obj 84 249 hip~ 4;
#X obj 84 270 hip~ 4;
#X obj 84 291 lop~ 7;
#X obj 84 312 lop~ 7;
#X text 89 367 Theta;
#X text 81 381 4Hz...7Hz;
#X obj 146 249 hip~ 8;
#X obj 146 270 hip~ 8;
#X obj 146 291 lop~ 12;
#X obj 146 312 lop~ 12;
#X text 153 367 Alpha;
#X text 143 381 8Hz...12Hz;
#X obj 214 249 hip~ 12;
#X obj 214 270 hip~ 12;
#X obj 214 291 lop~ 30;
#X obj 214 312 lop~ 30;
#X text 224 367 Beta;
#X text 209 381 12Hz...30Hz;
#X text 291 367 Gamma;
#X text 280 381 30Hz...100Hz;
#X obj 283 247 hip~ 30;
#X obj 283 268 hip~ 30;
#X obj 89 71 inlet~;
#X obj 89 146 hip~ 0.1;
#X obj 89 167 hip~ 0.1;
#X obj 89 190 lop~ 100;
#X obj 89 211 lop~ 100;
#X obj 21 348 outlet~;
#X obj 84 347 outlet~;
#X obj 146 346 outlet~;
#X obj 214 346 outlet~;
#X obj 283 347 outlet~;
#X obj 372 349 outlet~;
#X obj 221 131 cnv 4 10 4 empty empty empty 0 0 0 9 -1 -66577 0;
#X obj 172 131 cnv 4 10 4 empty empty empty 0 0 0 9 -1 -66577 0;
#X text 183 79 9 5 2011;
#X obj 142 121 cnv 3 6 6 empty ColorForm Alpha 1 5 1 9 -188398 -1 1.04858e+06
;
#X obj 101 121 cnv 3 6 6 empty ColorForm Delta 1 5 1 9 -188398 -1 1.04858e+06
;
#X obj 116 114 cnv 3 6 6 empty ColorForm Theta 1 5 1 9 -188398 -1 1.04858e+06
;
#X obj 187 121 cnv 3 6 6 empty ColorForm Gamma 1 5 1 9 -188398 -1 1.04858e+06
;
#X obj 166 114 cnv 3 6 6 empty ColorForm Beta 1 5 1 9 -188398 -1 1.04858e+06
;
#X obj 221 121 cnv 3 6 6 empty ColorForm All 1 5 1 9 -188398 -1 1.04858e+06
;
#X text 383 367 All;
#X text 359 381 0.1Hz...100Hz;
#X connect 10 0 11 0;
#X connect 11 0 41 0;
#X connect 14 0 15 0;
#X connect 15 0 16 0;
#X connect 16 0 17 0;
#X connect 17 0 42 0;
#X connect 20 0 21 0;
#X connect 21 0 22 0;
#X connect 22 0 23 0;
#X connect 23 0 43 0;
#X connect 26 0 27 0;
#X connect 27 0 28 0;
#X connect 28 0 29 0;
#X connect 29 0 44 0;
#X connect 34 0 35 0;
#X connect 35 0 45 0;
#X connect 36 0 37 0;
#X connect 37 0 38 0;
#X connect 38 0 39 0;
#X connect 39 0 40 0;
#X connect 40 0 10 0;
#X connect 40 0 14 0;
#X connect 40 0 20 0;
#X connect 40 0 26 0;
#X connect 40 0 34 0;
#X connect 40 0 46 0;
#X coords 0 -1 1 1 132 36 1 100 100;
#X restore 296 131 pd ARGO;
#N canvas 309 45 492 302 ARGO 0;
#X obj 40 -35 inlet~;
#X obj 251 108 cnv 10 44 10 empty empty Scope 1 5 1 14 -262144 -1 1.04858e+06
;
#X obj 101 101 cnv 4 10 4 empty empty empty 20 12 0 14 -1 -66577 0
;
#X msg -36 168 frgb 255 0 0;
#X obj 124 105 nbx 4 12 1 2000 0 1 \$0-A ColorTime ms/div 40 7 1 9
-208064 -1 -1 100 256;
#X obj 205 105 tgl 12 1 \$0-A \$0-B Sync 15 6 1 9 -262144 -1 -1 0 1
;
#X msg 128 52 delay 0 \, triglevel 0 \, trigger 0;
#X obj 126 5 sel 0 1;
#X msg -39 192 brgb 255 255 255;
#X obj 85 64 * 2;
#X msg 146 28 delay 1 \, triglevel 0.1 \, trigger 1;
#X obj 277 -36 inlet~;
#X obj 289 101 cnv 4 10 4 empty empty empty 20 12 0 14 -1 -66577 0
;
#X obj -14 80 t b b b b;
#X obj -15 57 bng 15 250 50 0 empty empty empty 17 7 0 10 -262144 -1
-1;
#X msg -33 111 bufsize 176;
#X obj 196 -34 cnv 15 60 30 empty empty empty 20 12 0 14 -24198 -66577
0;
#N canvas 374 104 413 135 Help 0;
#X text 24 54 Voir MSP46ReferenceManual.pdf;
#X text 23 1 utilise l'objet Scope~ de la library cyclone;
#X text 24 26 Voir Browser -> Pure Data/examples/cyclone/scope-test.pd
;
#X text 24 40 Voir Browser -> Pure Data/examples/cyclone/pink-test.pd
;
#X text 24 -20 Scope;
#X restore 203 -28 pd Help;
#X obj 101 121 cnv 15 199 129 empty empty empty 20 12 0 14 -1 -66577
0;
#X obj 101 123 Scope~ 198 61 200 3 176 -0.95 0.95 0 0 0 0 255 0 0 255
255 255 0;
#X obj 101 187 Scope~ 198 61 200 3 176 -0.95 0.95 0 0 0 0 255 0 0 255
255 255 0;
#X msg -24 136 range -0.95 0.95;
#X obj 277 -12 -~ 0.025;
#X obj 40 -11 -~ 0.025;
#X obj 396 222 cnv 15 41 30 empty empty empty 20 12 0 14 -24198 -66577
0;
#N canvas 350 196 308 136 ?? 0;
#X obj -9 87 cnv 15 300 38 empty empty empty 20 12 0 14 -224896 -66577
0;
#X obj -9 10 cnv 18 300 70 empty empty ARGOPdMiniModules 1 10 1 14
-4033 -1 1.04858e+06;
#X obj 9 29 cnv 10 10 10 empty empty Gerard 0 5 1 9 -4033 -1 1.04858e+06
;
#X obj 40 29 cnv 10 10 10 empty empty Paresys 0 5 1 9 -4033 -1 1.04858e+06
;
#X text -8 89 Construit sous / Build under Pd 0.42.5-extended;
#X obj 39 105 pddplink http://puredata.info/downloads;
#X obj 3 42 pddplink http://pagesperso-orange.fr/Paresys/ARGOPd/;
#X obj 3 57 pddplink http://gerard.paresys.free.fr/ARGOPd/;
#X restore 400 229 pd ??;
#X text 243 85 15 5 2011;
#X connect 0 0 23 0;
#X connect 3 0 19 0;
#X connect 3 0 20 0;
#X connect 4 0 9 0;
#X connect 5 0 7 0;
#X connect 6 0 19 0;
#X connect 6 0 20 0;
#X connect 7 0 6 0;
#X connect 7 1 10 0;
#X connect 8 0 19 0;
#X connect 8 0 20 0;
#X connect 9 0 19 0;
#X connect 9 0 20 0;
#X connect 10 0 19 0;
#X connect 10 0 20 0;
#X connect 11 0 22 0;
#X connect 13 0 15 0;
#X connect 13 1 21 0;
#X connect 13 2 3 0;
#X connect 13 3 8 0;
#X connect 14 0 13 0;
#X connect 15 0 19 0;
#X connect 15 0 20 0;
#X connect 21 0 19 0;
#X connect 21 0 20 0;
#X connect 22 0 20 0;
#X connect 23 0 19 0;
#X coords 0 -1 1 1 200 150 2 100 100;
#X restore 199 196 pd ARGO;
#N canvas 309 45 492 302 ARGO 0;
#X obj 40 -35 inlet~;
#X obj 251 108 cnv 10 44 10 empty empty Scope 1 5 1 14 -262144 -1 1.04858e+06
;
#X obj 101 101 cnv 4 10 4 empty empty empty 20 12 0 14 -1 -66577 0
;
#X msg -36 168 frgb 255 0 0;
#X obj 124 105 nbx 4 12 1 2000 0 1 \$0-A ColorTime ms/div 40 7 1 9
-208064 -1 -1 20 256;
#X obj 205 105 tgl 12 1 \$0-A \$0-B Sync 15 6 1 9 -262144 -1 -1 0 1
;
#X msg 128 52 delay 0 \, triglevel 0 \, trigger 0;
#X obj 126 5 sel 0 1;
#X msg -39 192 brgb 255 255 255;
#X obj 85 64 * 2;
#X msg 146 28 delay 1 \, triglevel 0.1 \, trigger 1;
#X obj 277 -36 inlet~;
#X obj 289 101 cnv 4 10 4 empty empty empty 20 12 0 14 -1 -66577 0
;
#X obj -14 80 t b b b b;
#X obj -15 57 bng 15 250 50 0 empty empty empty 17 7 0 10 -262144 -1
-1;
#X msg -33 111 bufsize 176;
#X obj 196 -34 cnv 15 60 30 empty empty empty 20 12 0 14 -24198 -66577
0;
#N canvas 374 104 413 135 Help 0;
#X text 24 54 Voir MSP46ReferenceManual.pdf;
#X text 23 1 utilise l'objet Scope~ de la library cyclone;
#X text 24 26 Voir Browser -> Pure Data/examples/cyclone/scope-test.pd
;
#X text 24 40 Voir Browser -> Pure Data/examples/cyclone/pink-test.pd
;
#X text 24 -20 Scope;
#X restore 203 -28 pd Help;
#X obj 101 121 cnv 15 199 129 empty empty empty 20 12 0 14 -1 -66577
0;
#X obj 101 123 Scope~ 198 61 40 3 176 -0.95 0.95 0 0 0 0 255 0 0 255
255 255 0;
#X obj 101 187 Scope~ 198 61 40 3 176 -0.95 0.95 0 0 0 0 255 0 0 255
255 255 0;
#X msg -24 136 range -0.95 0.95;
#X obj 277 -12 -~ 0.025;
#X obj 40 -11 -~ 0.025;
#X obj 396 222 cnv 15 41 30 empty empty empty 20 12 0 14 -24198 -66577
0;
#N canvas 350 196 308 136 ?? 0;
#X obj -9 87 cnv 15 300 38 empty empty empty 20 12 0 14 -224896 -66577
0;
#X obj -9 10 cnv 18 300 70 empty empty ARGOPdMiniModules 1 10 1 14
-4033 -1 1.04858e+06;
#X obj 9 29 cnv 10 10 10 empty empty Gerard 0 5 1 9 -4033 -1 1.04858e+06
;
#X obj 40 29 cnv 10 10 10 empty empty Paresys 0 5 1 9 -4033 -1 1.04858e+06
;
#X text -8 89 Construit sous / Build under Pd 0.42.5-extended;
#X obj 39 105 pddplink http://puredata.info/downloads;
#X obj 3 42 pddplink http://pagesperso-orange.fr/Paresys/ARGOPd/;
#X obj 3 57 pddplink http://gerard.paresys.free.fr/ARGOPd/;
#X restore 400 229 pd ??;
#X text 243 85 15 5 2011;
#X connect 0 0 23 0;
#X connect 3 0 19 0;
#X connect 3 0 20 0;
#X connect 4 0 9 0;
#X connect 5 0 7 0;
#X connect 6 0 19 0;
#X connect 6 0 20 0;
#X connect 7 0 6 0;
#X connect 7 1 10 0;
#X connect 8 0 19 0;
#X connect 8 0 20 0;
#X connect 9 0 19 0;
#X connect 9 0 20 0;
#X connect 10 0 19 0;
#X connect 10 0 20 0;
#X connect 11 0 22 0;
#X connect 13 0 15 0;
#X connect 13 1 21 0;
#X connect 13 2 3 0;
#X connect 13 3 8 0;
#X connect 14 0 13 0;
#X connect 15 0 19 0;
#X connect 15 0 20 0;
#X connect 21 0 19 0;
#X connect 21 0 20 0;
#X connect 22 0 20 0;
#X connect 23 0 19 0;
#X coords 0 -1 1 1 200 150 2 100 100;
#X restore 399 196 pd ARGO;
#N canvas 309 45 492 302 ARGO 0;
#X obj 40 -35 inlet~;
#X obj 251 108 cnv 10 44 10 empty empty Scope 1 5 1 14 -262144 -1 1.04858e+06
;
#X obj 101 101 cnv 4 10 4 empty empty empty 20 12 0 14 -1 -66577 0
;
#X msg -36 168 frgb 255 0 0;
#X obj 124 105 nbx 4 12 1 2000 0 1 \$0-A ColorTime ms/div 40 7 1 9
-208064 -1 -1 100 256;
#X obj 205 105 tgl 12 1 \$0-A \$0-B Sync 15 6 1 9 -262144 -1 -1 0 1
;
#X msg 128 52 delay 0 \, triglevel 0 \, trigger 0;
#X obj 126 5 sel 0 1;
#X msg -39 192 brgb 255 255 255;
#X obj 85 64 * 2;
#X msg 146 28 delay 1 \, triglevel 0.1 \, trigger 1;
#X obj 277 -36 inlet~;
#X obj 289 101 cnv 4 10 4 empty empty empty 20 12 0 14 -1 -66577 0
;
#X obj -14 80 t b b b b;
#X obj -15 57 bng 15 250 50 0 empty empty empty 17 7 0 10 -262144 -1
-1;
#X msg -33 111 bufsize 176;
#X obj 196 -34 cnv 15 60 30 empty empty empty 20 12 0 14 -24198 -66577
0;
#N canvas 374 104 413 135 Help 0;
#X text 24 54 Voir MSP46ReferenceManual.pdf;
#X text 23 1 utilise l'objet Scope~ de la library cyclone;
#X text 24 26 Voir Browser -> Pure Data/examples/cyclone/scope-test.pd
;
#X text 24 40 Voir Browser -> Pure Data/examples/cyclone/pink-test.pd
;
#X text 24 -20 Scope;
#X restore 203 -28 pd Help;
#X obj 101 121 cnv 15 199 129 empty empty empty 20 12 0 14 -1 -66577
0;
#X obj 101 123 Scope~ 198 61 200 3 176 -0.95 0.95 0 0 0 0 255 0 0 255
255 255 0;
#X obj 101 187 Scope~ 198 61 200 3 176 -0.95 0.95 0 0 0 0 255 0 0 255
255 255 0;
#X msg -24 136 range -0.95 0.95;
#X obj 277 -12 -~ 0.025;
#X obj 40 -11 -~ 0.025;
#X obj 396 222 cnv 15 41 30 empty empty empty 20 12 0 14 -24198 -66577
0;
#N canvas 350 196 308 136 ?? 0;
#X obj -9 87 cnv 15 300 38 empty empty empty 20 12 0 14 -224896 -66577
0;
#X obj -9 10 cnv 18 300 70 empty empty ARGOPdMiniModules 1 10 1 14
-4033 -1 1.04858e+06;
#X obj 9 29 cnv 10 10 10 empty empty Gerard 0 5 1 9 -4033 -1 1.04858e+06
;
#X obj 40 29 cnv 10 10 10 empty empty Paresys 0 5 1 9 -4033 -1 1.04858e+06
;
#X text -8 89 Construit sous / Build under Pd 0.42.5-extended;
#X obj 39 105 pddplink http://puredata.info/downloads;
#X obj 3 42 pddplink http://pagesperso-orange.fr/Paresys/ARGOPd/;
#X obj 3 57 pddplink http://gerard.paresys.free.fr/ARGOPd/;
#X restore 400 229 pd ??;
#X text 243 85 15 5 2011;
#X connect 0 0 23 0;
#X connect 3 0 19 0;
#X connect 3 0 20 0;
#X connect 4 0 9 0;
#X connect 5 0 7 0;
#X connect 6 0 19 0;
#X connect 6 0 20 0;
#X connect 7 0 6 0;
#X connect 7 1 10 0;
#X connect 8 0 19 0;
#X connect 8 0 20 0;
#X connect 9 0 19 0;
#X connect 9 0 20 0;
#X connect 10 0 19 0;
#X connect 10 0 20 0;
#X connect 11 0 22 0;
#X connect 13 0 15 0;
#X connect 13 1 21 0;
#X connect 13 2 3 0;
#X connect 13 3 8 0;
#X connect 14 0 13 0;
#X connect 15 0 19 0;
#X connect 15 0 20 0;
#X connect 21 0 19 0;
#X connect 21 0 20 0;
#X connect 22 0 20 0;
#X connect 23 0 19 0;
#X coords 0 -1 1 1 200 150 2 100 100;
#X restore -1 196 pd ARGO;
#N canvas 362 47 318 207 ARGO 0;
#X obj 101 101 cnv 20 148 46 empty ColorForm PitchShift 50 9 1 14 -188398
-1 1.04858e+06;
#X obj 101 143 cnv 4 10 4 empty empty empty 20 12 0 14 -1 -66577 0
;
#X obj 90 50 inlet~;
#X obj 101 101 cnv 4 10 4 empty empty empty 20 12 0 14 -1 -66577 0
;
#X obj 90 184 outlet~;
#X obj 19 112 cnv 15 60 30 empty empty empty 20 12 0 14 -24198 -66577
0;
#N canvas 345 36 418 512 Help 0;
#X obj 8 36 cnv 15 400 360 empty empty empty 20 12 0 14 -233017 -66577
0;
#X text 11 38 Citation;
#X text 310 10 = Transposition;
#X text 8 13 PitchShift = Pitch shifting = Décalage en hauteur;
#X text 28 54 Voir: /doc/3.audio.examples/G09.pitchshift.pd;
#X text 26 314 The Theory and Technique of Electronic Music;
#X text 26 303 Voir:;
#X text 27 327 Miller Puckette;
#X text 48 341 7.9 Pitchshifting page 202;
#X text 71 353 Pitch shifter page 218;
#X obj 27 368 pddplink http://crca.ucsd.edu/%7Emsp/techniques/latest/book.pdf
;
#X text 26 71 This is a classic rotating-tape-head style pitch shifter
using the vd~ variable delay object. Ther are two moving tape heads
\, each of which is loudest at the middle of its trajectory \, and
enveloped out at the moment it has to jump back (or forward) to start
another scratch. Most of the brain work is in computing how fast the
tape heads have to move to get the desired transposition.;
#X text 25 170 The "window size" is the total trajectory of the read
points in the delay line \, in milliseconds. The delay times are controlled
by a phasor~ object. The second delay time \, 180 degrees out of phase
from the first one \, is computed using the "wrap" object.;
#X text 25 243 The cos~ objects compute the fadein and fadeout of the
two delay line outputs. They each traverse the positive half of the
cosine waveform (phase -0.25 to +0.25) over the time the phase goes
from one end to the other.;
#X text 7 431 Cela evite de devoir nommer la "delay line".;
#X text 6 448 Le MiniModule est ainsi duplicable et peux être présent
à 2 exemplaires dans un même patch.;
#X text 7 400 (delwrite~ G09-del 5000) + (vd~ G09-del) est remplacé
par (cyclone/comb~ 5000 0 0 1 0).;
#X restore 26 118 pd Help;
#X obj 249 164 cnv 15 41 30 empty empty empty 20 12 0 14 -24198 -66577
0;
#N canvas 392 196 308 136 ?? 0;
#X obj -9 87 cnv 15 300 38 empty empty empty 20 12 0 14 -224896 -66577
0;
#X obj -9 10 cnv 18 300 70 empty empty ARGOPdMiniModules 1 10 1 14
-4033 -1 1.04858e+06;
#X obj 9 29 cnv 10 10 10 empty empty Gerard 0 5 1 9 -4033 -1 1.04858e+06
;
#X obj 40 29 cnv 10 10 10 empty empty Paresys 0 5 1 9 -4033 -1 1.04858e+06
;
#X text -8 89 Construit sous / Build under Pd 0.42.5-extended;
#X obj 39 105 pddplink http://puredata.info/downloads;
#X obj 3 42 pddplink http://pagesperso-orange.fr/Paresys/ARGOPd/;
#X obj 3 57 pddplink http://gerard.paresys.free.fr/ARGOPd/;
#X restore 253 171 pd ??;
#X obj 103 118 hsl 145 12 -36 36 0 1 \$0-A ColorTime 9semitone 0 7
1 9 -208064 -1728 -1 9000 0;
#X obj 239 101 cnv 4 10 4 empty empty empty 20 12 0 14 -260097 -66577
0;
#N canvas 484 315 248 174 label 0;
#X obj 46 76 outlet;
#X obj 46 -70 inlet;
#X msg 46 42 label \$1;
#X obj 46 20 tosymbol;
#X obj 46 -14 sprintf %ssemitone;
#X obj 46 -43 expr (int(100 * $f1) / 100) \;;
#X connect 1 0 5 0;
#X connect 2 0 0 0;
#X connect 3 0 2 0;
#X connect 4 0 3 0;
#X connect 5 0 4 0;
#X restore 257 108 pd label;
#X obj 149 47 cnv 15 100 24 empty empty empty 20 12 0 14 -261682 -66577
0;
#X text 149 44 Nombre ->;
#X text 149 54 Number ->;
#X obj 209 50 inlet;
#X obj 103 130 hsl 145 12 1 1000 1 1 \$0-A ColorTime 56ms 0 7 1 9 -208064
-1728 -1 8400 0;
#N canvas 795 278 161 155 label 0;
#X obj 46 76 outlet;
#X obj 46 -43 inlet;
#X msg 46 42 label \$1;
#X obj 46 20 tosymbol;
#X obj 46 -14 sprintf %dms;
#X connect 1 0 4 0;
#X connect 2 0 0 0;
#X connect 3 0 2 0;
#X connect 4 0 3 0;
#X restore 257 138 pd label;
#N canvas 339 115 459 487 PitchShift 0;
#X obj 44 35 inlet~;
#X obj 164 460 outlet~;
#X obj 109 32 inlet;
#X obj 268 33 inlet;
#X obj 89 324 *~;
#X obj 268 159 line~;
#X obj 268 133 pack 0 200;
#X obj 109 75 exp;
#X obj 71 192 /;
#X obj 210 135 * 0.001;
#X obj 7 398 cos~;
#X obj 19 425 *~;
#X obj 238 291 wrap~;
#X obj 322 326 *~;
#X obj 238 398 cos~;
#X obj 250 425 *~;
#X obj 210 162 t b f;
#X obj 238 264 +~ 0.5;
#X obj 7 341 -~ 0.5;
#X obj 7 369 *~ 0.5;
#X obj 238 334 -~ 0.5;
#X obj 238 369 *~ 0.5;
#X obj 71 139 - 1;
#X obj 109 54 * 0.05776;
#X obj 71 160 * -1;
#X text 94 16 (halftones);
#X text 106 185 tape head;
#X obj 71 220 phasor~;
#X obj 268 78 max 1;
#X text 107 198 rotation freq;
#X text 90 3 transposition;
#X text 242 10 window (msec);
#X msg 321 163 clear;
#X obj 51 398 cyclone/comb~ 5000 0 0 1 0;
#X obj 284 398 cyclone/comb~ 5000 0 0 1 0;
#X text 111 91 <- speed change;
#X obj 89 369 +~ 2;
#X obj 322 369 +~ 2;
#X connect 0 0 33 0;
#X connect 0 0 34 0;
#X connect 2 0 23 0;
#X connect 3 0 28 0;
#X connect 4 0 36 0;
#X connect 5 0 4 1;
#X connect 5 0 13 1;
#X connect 6 0 5 0;
#X connect 7 0 22 0;
#X connect 8 0 27 0;
#X connect 9 0 16 0;
#X connect 10 0 11 0;
#X connect 11 0 1 0;
#X connect 12 0 13 0;
#X connect 12 0 20 0;
#X connect 13 0 37 0;
#X connect 14 0 15 0;
#X connect 15 0 1 0;
#X connect 16 0 8 0;
#X connect 16 1 8 1;
#X connect 17 0 12 0;
#X connect 18 0 19 0;
#X connect 19 0 10 0;
#X connect 20 0 21 0;
#X connect 21 0 14 0;
#X connect 22 0 24 0;
#X connect 23 0 7 0;
#X connect 24 0 8 0;
#X connect 27 0 4 0;
#X connect 27 0 18 0;
#X connect 27 0 17 0;
#X connect 28 0 9 0;
#X connect 28 0 6 0;
#X connect 32 0 33 0;
#X connect 32 0 34 0;
#X connect 33 0 11 1;
#X connect 34 0 15 1;
#X connect 36 0 33 1;
#X connect 37 0 34 1;
#X restore 90 156 pd PitchShift;
#X text 181 29 -36..+36 semitones;
#X text 122 82 11 5 2011;
#X connect 2 0 18 0;
#X connect 9 0 11 0;
#X connect 9 0 18 1;
#X connect 11 0 9 0;
#X connect 15 0 9 0;
#X connect 16 0 17 0;
#X connect 16 0 18 2;
#X connect 17 0 16 0;
#X connect 18 0 4 0;
#X coords 0 -1 1 1 150 48 1 100 100;
#X restore 133 355 pd ARGO;
#N canvas 392 69 302 281 ARGO 0;
#X obj 101 101 cnv 20 104 34 empty ColorAmpli Tanh 70 9 1 14 -261299
-1 1.04858e+06;
#X obj 85 252 outlet~;
#X obj 85 72 inlet~;
#X obj 85 200 *~;
#X obj 103 118 hsl 101 12 -20 80 0 1 \$0-A ColorAmpli 44dB 0 7 1 9
-261299 -1 -1 6400 0;
#X msg -9 139 label \$1;
#X obj -10 116 tosymbol;
#X obj -10 94 sprintf %ddB;
#X obj 101 101 cnv 4 10 4 empty empty empty 20 12 0 14 -1 -66577 0
;
#X obj 101 131 cnv 4 10 4 empty empty empty 20 12 0 14 -1 -66577 0
;
#X obj 100 163 expr (pow(10 \, $f1 / 20));
#X obj 219 234 cnv 15 41 30 empty empty empty 20 12 0 14 -24198 -66577
0;
#N canvas 350 196 308 136 ?? 0;
#X obj -9 87 cnv 15 300 38 empty empty empty 20 12 0 14 -224896 -66577
0;
#X obj -9 10 cnv 18 300 70 empty empty ARGOPdMiniModules 1 10 1 14
-4033 -1 1.04858e+06;
#X obj 9 29 cnv 10 10 10 empty empty Gerard 0 5 1 9 -4033 -1 1.04858e+06
;
#X obj 40 29 cnv 10 10 10 empty empty Paresys 0 5 1 9 -4033 -1 1.04858e+06
;
#X text -8 89 Construit sous / Build under Pd 0.42.5-extended;
#X obj 39 105 pddplink http://puredata.info/downloads;
#X obj 3 42 pddplink http://pagesperso-orange.fr/Paresys/ARGOPd/;
#X obj 3 57 pddplink http://gerard.paresys.free.fr/ARGOPd/;
#X restore 223 241 pd ??;
#X obj 85 227 cyclone/tanh~;
#X obj 1 34 cnv 15 60 30 empty empty empty 20 12 0 14 -24198 -66577
0;
#N canvas 341 91 411 318 Help 0;
#X obj 0 3 cnv 15 400 290 empty empty empty 20 12 0 14 -233017 -66577
0;
#X text 3 2 Citation;
#X text 19 28 cyclone library;
#X text 19 40 calculate hyperbolic tangent function;
#X text 19 17 tanh~;
#X obj 19 140 pddplink http://suita.chopin.edu.pl/~czaja/miXed/externs/cyclone.html
;
#X text 19 162 cf doc Max/MSP -> MSP46ReferenceManual.pdf;
#X text 19 88 outputs signal values always between -1 and 1;
#X text 19 108 turn a sine wave into a square wave by cranking up the
volume!;
#X text 19 57 can be used to simulate analog distortion \, and is much
"smoother" than using clip~;
#X restore 8 40 pd Help;
#X text 107 140 -> -20..80;
#X text 106 182 -> 0.1..10000 = -20dB..80dB;
#X text 209 97 14 5 2011;
#X connect 2 0 3 0;
#X connect 3 0 13 0;
#X connect 4 0 7 0;
#X connect 4 0 10 0;
#X connect 5 0 4 0;
#X connect 6 0 5 0;
#X connect 7 0 6 0;
#X connect 10 0 3 1;
#X connect 13 0 1 0;
#X coords 0 -1 1 1 106 36 1 100 100;
#X restore 133 410 pd ARGO;
#X obj 620 523 dac~;
#N canvas 392 69 302 281 ARGO 0;
#X obj 101 101 cnv 20 104 34 empty ColorAmpli Tanh 70 9 1 14 -261299
-1 1.04858e+06;
#X obj 85 252 outlet~;
#X obj 85 72 inlet~;
#X obj 85 200 *~;
#X obj 103 118 hsl 101 12 -20 80 0 1 \$0-A ColorAmpli 35dB 0 7 1 9
-261299 -1 -1 5500 0;
#X msg -9 139 label \$1;
#X obj -10 116 tosymbol;
#X obj -10 94 sprintf %ddB;
#X obj 101 101 cnv 4 10 4 empty empty empty 20 12 0 14 -1 -66577 0
;
#X obj 101 131 cnv 4 10 4 empty empty empty 20 12 0 14 -1 -66577 0
;
#X obj 100 163 expr (pow(10 \, $f1 / 20));
#X obj 219 234 cnv 15 41 30 empty empty empty 20 12 0 14 -24198 -66577
0;
#N canvas 350 196 308 136 ?? 0;
#X obj -9 87 cnv 15 300 38 empty empty empty 20 12 0 14 -224896 -66577
0;
#X obj -9 10 cnv 18 300 70 empty empty ARGOPdMiniModules 1 10 1 14
-4033 -1 1.04858e+06;
#X obj 9 29 cnv 10 10 10 empty empty Gerard 0 5 1 9 -4033 -1 1.04858e+06
;
#X obj 40 29 cnv 10 10 10 empty empty Paresys 0 5 1 9 -4033 -1 1.04858e+06
;
#X text -8 89 Construit sous / Build under Pd 0.42.5-extended;
#X obj 39 105 pddplink http://puredata.info/downloads;
#X obj 3 42 pddplink http://pagesperso-orange.fr/Paresys/ARGOPd/;
#X obj 3 57 pddplink http://gerard.paresys.free.fr/ARGOPd/;
#X restore 223 241 pd ??;
#X obj 85 227 cyclone/tanh~;
#X obj 1 34 cnv 15 60 30 empty empty empty 20 12 0 14 -24198 -66577
0;
#N canvas 341 91 411 318 Help 0;
#X obj 0 3 cnv 15 400 290 empty empty empty 20 12 0 14 -233017 -66577
0;
#X text 3 2 Citation;
#X text 19 28 cyclone library;
#X text 19 40 calculate hyperbolic tangent function;
#X text 19 17 tanh~;
#X obj 19 140 pddplink http://suita.chopin.edu.pl/~czaja/miXed/externs/cyclone.html
;
#X text 19 162 cf doc Max/MSP -> MSP46ReferenceManual.pdf;
#X text 19 88 outputs signal values always between -1 and 1;
#X text 19 108 turn a sine wave into a square wave by cranking up the
volume!;
#X text 19 57 can be used to simulate analog distortion \, and is much
"smoother" than using clip~;
#X restore 8 40 pd Help;
#X text 107 140 -> -20..80;
#X text 106 182 -> 0.1..10000 = -20dB..80dB;
#X text 209 97 14 5 2011;
#X connect 2 0 3 0;
#X connect 3 0 13 0;
#X connect 4 0 7 0;
#X connect 4 0 10 0;
#X connect 5 0 4 0;
#X connect 6 0 5 0;
#X connect 7 0 6 0;
#X connect 10 0 3 1;
#X connect 13 0 1 0;
#X coords 0 -1 1 1 106 36 1 100 100;
#X restore 323 410 pd ARGO;
#N canvas 432 42 314 359 ARGO 0;
#X obj 101 101 cnv 30 37 130 empty ColorAmpli empty 20 12 0 14 -1 -258113
0;
#X obj 101 101 cnv 4 10 4 empty empty empty 20 12 0 14 -1 -66577 0
;
#X obj 102 108 vu 8 120 \$0-B empty 0 0 1 11 -1 -4034 1 0;
#X obj 42 -112 inlet~;
#X obj 35 -87 *~;
#X obj 35 3 snapshot~;
#X obj 35 26 sqrt;
#X obj 35 -24 lop~ 10;
#X obj 35 50 rmstodb;
#X obj 98 -111 loadbang;
#X obj 35 73 - 100;
#X obj 171 26 sqrt;
#X obj 172 50 rmstodb;
#X obj 172 73 - 100;
#X obj 97 -23 metro 200;
#X obj 236 -97 cnv 15 60 30 empty empty empty 20 12 0 14 -24198 -66577
0;
#N canvas 300 65 442 264 Help 0;
#X obj 12 48 cnv 15 400 150 empty empty empty 20 12 0 14 -233017 -66577
0;
#X text 16 50 Citation;
#X text 28 67 peakamp~ tracks and outputs the absolute value of the
peak amplitude of the incoming signal. It outputs when banged or using
its own internal clock. The peak value is reset each time peakamp~
outputs a value.;
#X text 17 214 par rapport à la version précédente du MM-Vumetre env~
est remplacé par square~ + lop~ + snapshot~ + sqrt + rmstodb car env~
consomme beaucoup CPU.;
#X text 29 123 cyclone library;
#X text 28 135 http://suita.chopin.edu.pl/~czaja/miXed/externs/cyclone.html
;
#X text 29 155 Voir doc Max/MSP MSP46ReferenceManual.pdf;
#X text 18 14 MM-Vumetre;
#X restore 243 -91 pd Help;
#X obj 261 199 cnv 15 41 30 empty empty empty 20 12 0 14 -24198 -66577
0;
#N canvas 350 196 308 136 ?? 0;
#X obj -9 87 cnv 15 300 38 empty empty empty 20 12 0 14 -224896 -66577
0;
#X obj -9 10 cnv 18 300 70 empty empty ARGOPdMiniModules 1 10 1 14
-4033 -1 1.04858e+06;
#X obj 9 29 cnv 10 10 10 empty empty Gerard 0 5 1 9 -4033 -1 1.04858e+06
;
#X obj 40 29 cnv 10 10 10 empty empty Paresys 0 5 1 9 -4033 -1 1.04858e+06
;
#X text -8 89 Construit sous / Build under Pd 0.42.5-extended;
#X obj 39 105 pddplink http://puredata.info/downloads;
#X obj 3 42 pddplink http://pagesperso-orange.fr/Paresys/ARGOPd/;
#X obj 3 57 pddplink http://gerard.paresys.free.fr/ARGOPd/;
#X restore 265 206 pd ??;
#X obj 158 -111 r SendFluid;
#X obj 171 -50 cyclone/peakamp~ 1000;
#X text 145 106 13 2 2011;
#X connect 3 0 4 0;
#X connect 3 0 4 1;
#X connect 4 0 7 0;
#X connect 4 0 20 0;
#X connect 5 0 6 0;
#X connect 6 0 8 0;
#X connect 7 0 5 0;
#X connect 8 0 10 0;
#X connect 9 0 14 0;
#X connect 10 0 2 0;
#X connect 11 0 12 0;
#X connect 12 0 13 0;
#X connect 13 0 2 1;
#X connect 14 0 5 0;
#X connect 19 0 14 1;
#X connect 20 0 11 0;
#X coords 0 -1 1 1 39 132 2 100 100;
#X restore 682 439 pd ARGO;
#N canvas 432 42 314 359 ARGO 0;
#X obj 101 101 cnv 30 37 130 empty ColorAmpli empty 20 12 0 14 -1 -258113
0;
#X obj 101 101 cnv 4 10 4 empty empty empty 20 12 0 14 -1 -66577 0
;
#X obj 102 108 vu 8 120 \$0-B empty 0 0 1 11 -1 -4034 1 0;
#X obj 42 -112 inlet~;
#X obj 35 -87 *~;
#X obj 35 3 snapshot~;
#X obj 35 26 sqrt;
#X obj 35 -24 lop~ 10;
#X obj 35 50 rmstodb;
#X obj 98 -111 loadbang;
#X obj 35 73 - 100;
#X obj 171 26 sqrt;
#X obj 172 50 rmstodb;
#X obj 172 73 - 100;
#X obj 97 -23 metro 200;
#X obj 236 -97 cnv 15 60 30 empty empty empty 20 12 0 14 -24198 -66577
0;
#N canvas 300 65 442 264 Help 0;
#X obj 12 48 cnv 15 400 150 empty empty empty 20 12 0 14 -233017 -66577
0;
#X text 16 50 Citation;
#X text 28 67 peakamp~ tracks and outputs the absolute value of the
peak amplitude of the incoming signal. It outputs when banged or using
its own internal clock. The peak value is reset each time peakamp~
outputs a value.;
#X text 17 214 par rapport à la version précédente du MM-Vumetre env~
est remplacé par square~ + lop~ + snapshot~ + sqrt + rmstodb car env~
consomme beaucoup CPU.;
#X text 29 123 cyclone library;
#X text 28 135 http://suita.chopin.edu.pl/~czaja/miXed/externs/cyclone.html
;
#X text 29 155 Voir doc Max/MSP MSP46ReferenceManual.pdf;
#X text 18 14 MM-Vumetre;
#X restore 243 -91 pd Help;
#X obj 261 199 cnv 15 41 30 empty empty empty 20 12 0 14 -24198 -66577
0;
#N canvas 350 196 308 136 ?? 0;
#X obj -9 87 cnv 15 300 38 empty empty empty 20 12 0 14 -224896 -66577
0;
#X obj -9 10 cnv 18 300 70 empty empty ARGOPdMiniModules 1 10 1 14
-4033 -1 1.04858e+06;
#X obj 9 29 cnv 10 10 10 empty empty Gerard 0 5 1 9 -4033 -1 1.04858e+06
;
#X obj 40 29 cnv 10 10 10 empty empty Paresys 0 5 1 9 -4033 -1 1.04858e+06
;
#X text -8 89 Construit sous / Build under Pd 0.42.5-extended;
#X obj 39 105 pddplink http://puredata.info/downloads;
#X obj 3 42 pddplink http://pagesperso-orange.fr/Paresys/ARGOPd/;
#X obj 3 57 pddplink http://gerard.paresys.free.fr/ARGOPd/;
#X restore 265 206 pd ??;
#X obj 158 -111 r SendFluid;
#X obj 171 -50 cyclone/peakamp~ 1000;
#X text 145 106 13 2 2011;
#X connect 3 0 4 0;
#X connect 3 0 4 1;
#X connect 4 0 7 0;
#X connect 4 0 20 0;
#X connect 5 0 6 0;
#X connect 6 0 8 0;
#X connect 7 0 5 0;
#X connect 8 0 10 0;
#X connect 9 0 14 0;
#X connect 10 0 2 0;
#X connect 11 0 12 0;
#X connect 12 0 13 0;
#X connect 13 0 2 1;
#X connect 14 0 5 0;
#X connect 19 0 14 1;
#X connect 20 0 11 0;
#X coords 0 -1 1 1 39 132 2 100 100;
#X restore 694 439 pd ARGO;
#X text 433 477 Niveau general ->;
#X text 439 487 General level ->;
#N canvas 537 160 316 303 ARGO 0;
#X obj 101 101 cnv 20 104 34 empty ColorAmpli empty 20 12 0 14 -261299
-1 1.04858e+06;
#X obj 85 278 outlet~;
#X obj 134 104 cnv 10 20 10 empty ColorAmpli Ampli 1 5 1 14 -261299
-1 1.04858e+06;
#X obj 87 60 inlet~;
#X obj 85 253 *~;
#X obj 103 118 hsl 101 12 -80 120 0 1 \$0-A ColorAmpli 34dB 0 7 1 9
-261299 -1 -1 5700 0;
#X obj 101 101 cnv 4 10 4 empty empty empty 20 12 0 14 -1 -66577 0
;
#X obj 101 131 cnv 4 10 4 empty empty empty 20 12 0 14 -1 -66577 0
;
#X text 109 170 -> 0.0001..1000000 = -80dB..120dB;
#X obj 262 261 cnv 15 41 30 empty empty empty 20 12 0 14 -24198 -66577
0;
#N canvas 350 196 308 136 ?? 0;
#X obj -9 87 cnv 15 300 38 empty empty empty 20 12 0 14 -224896 -66577
0;
#X obj -9 10 cnv 18 300 70 empty empty ARGOPdMiniModules 1 10 1 14
-4033 -1 1.04858e+06;
#X obj 9 29 cnv 10 10 10 empty empty Gerard 0 5 1 9 -4033 -1 1.04858e+06
;
#X obj 40 29 cnv 10 10 10 empty empty Paresys 0 5 1 9 -4033 -1 1.04858e+06
;
#X text -8 89 Construit sous / Build under Pd 0.42.5-extended;
#X obj 39 105 pddplink http://puredata.info/downloads;
#X obj 3 42 pddplink http://pagesperso-orange.fr/Paresys/ARGOPd/;
#X obj 3 57 pddplink http://gerard.paresys.free.fr/ARGOPd/;
#X restore 266 268 pd ??;
#X text 209 97 1 6 2011;
#X msg 5 145 label \$1;
#X obj 4 122 tosymbol;
#X obj 4 87 sprintf %ddB;
#X obj 101 147 expr (pow(10 \, $f1 / 20));
#X obj 101 190 sel 0.0001;
#X msg 101 218 0;
#X connect 3 0 4 0;
#X connect 4 0 1 0;
#X connect 5 0 14 0;
#X connect 5 0 15 0;
#X connect 12 0 5 0;
#X connect 13 0 12 0;
#X connect 14 0 13 0;
#X connect 15 0 16 0;
#X connect 16 0 17 0;
#X connect 16 1 4 1;
#X connect 17 0 4 1;
#X connect 17 0 13 0;
#X coords 0 -1 1 1 106 36 1 100 100;
#X restore 296 80 pd ARGO;
#X text 163 92 4 Adjust Amplitude ->;
#N canvas 324 45 499 409 ARGO 0;
#X obj 301 104 cnv 15 60 30 empty empty empty 20 12 0 14 -24198 -66577
0;
#N canvas 351 69 403 277 Help 0;
#X text 13 5 6 filtres passe-bandes pour séparer les ondes mesurées
par électro-encéphalographie.;
#X text 13 36 6 bandpass filters to separate the waves measured by
electroencephalography.;
#X text 12 -13 EEG = electroencephalography. = électro-encéphalographie
;
#X obj 13 129 pddplink http://www.brainmaster.com/generalinfo/eegbands/eegbands.html
;
#X obj 13 114 pddplink http://fr.wikipedia.org/wiki/Électro-encéphalographie
;
#X obj 13 81 pddplink http://en.wikipedia.org/wiki/Electroencephalography
;
#X obj 13 97 pddplink http://fr.wikipedia.org/wiki/Rythme_cérébral
;
#X obj 21 177 pddplink http://openeeg.sourceforge.net/doc/;
#X text 14 162 Made for:;
#X text 11 -38 -;
#X restore 308 110 pd Help;
#X obj 444 367 cnv 15 41 30 empty empty empty 20 12 0 14 -24198 -66577
0;
#N canvas 350 196 308 136 ?? 0;
#X obj -9 87 cnv 15 300 38 empty empty empty 20 12 0 14 -224896 -66577
0;
#X obj -9 10 cnv 18 300 70 empty empty ARGOPdMiniModules 1 10 1 14
-4033 -1 1.04858e+06;
#X obj 9 29 cnv 10 10 10 empty empty Gerard 0 5 1 9 -4033 -1 1.04858e+06
;
#X obj 40 29 cnv 10 10 10 empty empty Paresys 0 5 1 9 -4033 -1 1.04858e+06
;
#X text -8 89 Construit sous / Build under Pd 0.42.5-extended;
#X obj 39 105 pddplink http://puredata.info/downloads;
#X obj 3 42 pddplink http://pagesperso-orange.fr/Paresys/ARGOPd/;
#X obj 3 57 pddplink http://gerard.paresys.free.fr/ARGOPd/;
#X restore 448 374 pd ??;
#X obj 101 101 cnv 20 130 34 empty ColorForm Flt-EEG 80 8 1 14 -188398
-1 1.04858e+06;
#X obj 101 131 cnv 4 10 4 empty empty empty 20 12 0 14 -1 -66577 0
;
#X obj 197 131 cnv 4 10 4 empty empty empty 0 0 0 9 -1 -66577 0;
#X obj 101 101 cnv 4 10 4 empty empty empty 20 12 0 14 -1 -66577 0
;
#X obj 148 131 cnv 4 10 4 empty empty empty 0 0 0 9 -1 -66577 0;
#X obj 123 131 cnv 4 10 4 empty empty empty 0 0 0 9 -1 -66577 0;
#X obj 21 290 lop~ 3;
#X obj 21 312 lop~ 3;
#X text 26 367 Delta;
#X text 7 381 0.1Hz...3Hz;
#X obj 84 249 hip~ 4;
#X obj 84 270 hip~ 4;
#X obj 84 291 lop~ 7;
#X obj 84 312 lop~ 7;
#X text 89 367 Theta;
#X text 81 381 4Hz...7Hz;
#X obj 146 249 hip~ 8;
#X obj 146 270 hip~ 8;
#X obj 146 291 lop~ 12;
#X obj 146 312 lop~ 12;
#X text 153 367 Alpha;
#X text 143 381 8Hz...12Hz;
#X obj 214 249 hip~ 12;
#X obj 214 270 hip~ 12;
#X obj 214 291 lop~ 30;
#X obj 214 312 lop~ 30;
#X text 224 367 Beta;
#X text 209 381 12Hz...30Hz;
#X text 291 367 Gamma;
#X text 280 381 30Hz...100Hz;
#X obj 283 247 hip~ 30;
#X obj 283 268 hip~ 30;
#X obj 89 71 inlet~;
#X obj 89 146 hip~ 0.1;
#X obj 89 167 hip~ 0.1;
#X obj 89 190 lop~ 100;
#X obj 89 211 lop~ 100;
#X obj 21 348 outlet~;
#X obj 84 347 outlet~;
#X obj 146 346 outlet~;
#X obj 214 346 outlet~;
#X obj 283 347 outlet~;
#X obj 372 349 outlet~;
#X obj 221 131 cnv 4 10 4 empty empty empty 0 0 0 9 -1 -66577 0;
#X obj 172 131 cnv 4 10 4 empty empty empty 0 0 0 9 -1 -66577 0;
#X text 183 79 9 5 2011;
#X obj 142 121 cnv 3 6 6 empty ColorForm Alpha 1 5 1 9 -188398 -1 1.04858e+06
;
#X obj 101 121 cnv 3 6 6 empty ColorForm Delta 1 5 1 9 -188398 -1 1.04858e+06
;
#X obj 116 114 cnv 3 6 6 empty ColorForm Theta 1 5 1 9 -188398 -1 1.04858e+06
;
#X obj 187 121 cnv 3 6 6 empty ColorForm Gamma 1 5 1 9 -188398 -1 1.04858e+06
;
#X obj 166 114 cnv 3 6 6 empty ColorForm Beta 1 5 1 9 -188398 -1 1.04858e+06
;
#X obj 221 121 cnv 3 6 6 empty ColorForm All 1 5 1 9 -188398 -1 1.04858e+06
;
#X text 383 367 All;
#X text 359 381 0.1Hz...100Hz;
#X connect 10 0 11 0;
#X connect 11 0 41 0;
#X connect 14 0 15 0;
#X connect 15 0 16 0;
#X connect 16 0 17 0;
#X connect 17 0 42 0;
#X connect 20 0 21 0;
#X connect 21 0 22 0;
#X connect 22 0 23 0;
#X connect 23 0 43 0;
#X connect 26 0 27 0;
#X connect 27 0 28 0;
#X connect 28 0 29 0;
#X connect 29 0 44 0;
#X connect 34 0 35 0;
#X connect 35 0 45 0;
#X connect 36 0 37 0;
#X connect 37 0 38 0;
#X connect 38 0 39 0;
#X connect 39 0 40 0;
#X connect 40 0 10 0;
#X connect 40 0 14 0;
#X connect 40 0 20 0;
#X connect 40 0 26 0;
#X connect 40 0 34 0;
#X connect 40 0 46 0;
#X coords 0 -1 1 1 132 36 1 100 100;
#X restore 900 131 pd ARGO;
#N canvas 309 45 492 302 ARGO 0;
#X obj 40 -35 inlet~;
#X obj 251 108 cnv 10 44 10 empty empty Scope 1 5 1 14 -262144 -1 1.04858e+06
;
#X obj 101 101 cnv 4 10 4 empty empty empty 20 12 0 14 -1 -66577 0
;
#X msg -36 168 frgb 255 0 0;
#X obj 124 105 nbx 4 12 1 2000 0 1 \$0-A ColorTime ms/div 40 7 1 9
-208064 -1 -1 100 256;
#X obj 205 105 tgl 12 1 \$0-A \$0-B Sync 15 6 1 9 -262144 -1 -1 0 1
;
#X msg 128 52 delay 0 \, triglevel 0 \, trigger 0;
#X obj 126 5 sel 0 1;
#X msg -39 192 brgb 255 255 255;
#X obj 85 64 * 2;
#X msg 146 28 delay 1 \, triglevel 0.1 \, trigger 1;
#X obj 277 -36 inlet~;
#X obj 289 101 cnv 4 10 4 empty empty empty 20 12 0 14 -1 -66577 0
;
#X obj -14 80 t b b b b;
#X obj -15 57 bng 15 250 50 0 empty empty empty 17 7 0 10 -262144 -1
-1;
#X msg -33 111 bufsize 176;
#X obj 196 -34 cnv 15 60 30 empty empty empty 20 12 0 14 -24198 -66577
0;
#N canvas 374 104 413 135 Help 0;
#X text 24 54 Voir MSP46ReferenceManual.pdf;
#X text 23 1 utilise l'objet Scope~ de la library cyclone;
#X text 24 26 Voir Browser -> Pure Data/examples/cyclone/scope-test.pd
;
#X text 24 40 Voir Browser -> Pure Data/examples/cyclone/pink-test.pd
;
#X text 24 -20 Scope;
#X restore 203 -28 pd Help;
#X obj 101 121 cnv 15 199 129 empty empty empty 20 12 0 14 -1 -66577
0;
#X obj 101 123 Scope~ 198 61 200 3 176 -0.95 0.95 0 0 0 0 255 0 0 255
255 255 0;
#X obj 101 187 Scope~ 198 61 200 3 176 -0.95 0.95 0 0 0 0 255 0 0 255
255 255 0;
#X msg -24 136 range -0.95 0.95;
#X obj 277 -12 -~ 0.025;
#X obj 40 -11 -~ 0.025;
#X obj 396 222 cnv 15 41 30 empty empty empty 20 12 0 14 -24198 -66577
0;
#N canvas 350 196 308 136 ?? 0;
#X obj -9 87 cnv 15 300 38 empty empty empty 20 12 0 14 -224896 -66577
0;
#X obj -9 10 cnv 18 300 70 empty empty ARGOPdMiniModules 1 10 1 14
-4033 -1 1.04858e+06;
#X obj 9 29 cnv 10 10 10 empty empty Gerard 0 5 1 9 -4033 -1 1.04858e+06
;
#X obj 40 29 cnv 10 10 10 empty empty Paresys 0 5 1 9 -4033 -1 1.04858e+06
;
#X text -8 89 Construit sous / Build under Pd 0.42.5-extended;
#X obj 39 105 pddplink http://puredata.info/downloads;
#X obj 3 42 pddplink http://pagesperso-orange.fr/Paresys/ARGOPd/;
#X obj 3 57 pddplink http://gerard.paresys.free.fr/ARGOPd/;
#X restore 400 229 pd ??;
#X text 243 85 15 5 2011;
#X connect 0 0 23 0;
#X connect 3 0 19 0;
#X connect 3 0 20 0;
#X connect 4 0 9 0;
#X connect 5 0 7 0;
#X connect 6 0 19 0;
#X connect 6 0 20 0;
#X connect 7 0 6 0;
#X connect 7 1 10 0;
#X connect 8 0 19 0;
#X connect 8 0 20 0;
#X connect 9 0 19 0;
#X connect 9 0 20 0;
#X connect 10 0 19 0;
#X connect 10 0 20 0;
#X connect 11 0 22 0;
#X connect 13 0 15 0;
#X connect 13 1 21 0;
#X connect 13 2 3 0;
#X connect 13 3 8 0;
#X connect 14 0 13 0;
#X connect 15 0 19 0;
#X connect 15 0 20 0;
#X connect 21 0 19 0;
#X connect 21 0 20 0;
#X connect 22 0 20 0;
#X connect 23 0 19 0;
#X coords 0 -1 1 1 200 150 2 100 100;
#X restore 803 196 pd ARGO;
#N canvas 309 45 492 302 ARGO 0;
#X obj 40 -35 inlet~;
#X obj 251 108 cnv 10 44 10 empty empty Scope 1 5 1 14 -262144 -1 1.04858e+06
;
#X obj 101 101 cnv 4 10 4 empty empty empty 20 12 0 14 -1 -66577 0
;
#X msg -36 168 frgb 255 0 0;
#X obj 124 105 nbx 4 12 1 2000 0 1 \$0-A ColorTime ms/div 40 7 1 9
-208064 -1 -1 20 256;
#X obj 205 105 tgl 12 1 \$0-A \$0-B Sync 15 6 1 9 -262144 -1 -1 0 1
;
#X msg 128 52 delay 0 \, triglevel 0 \, trigger 0;
#X obj 126 5 sel 0 1;
#X msg -39 192 brgb 255 255 255;
#X obj 85 64 * 2;
#X msg 146 28 delay 1 \, triglevel 0.1 \, trigger 1;
#X obj 277 -36 inlet~;
#X obj 289 101 cnv 4 10 4 empty empty empty 20 12 0 14 -1 -66577 0
;
#X obj -14 80 t b b b b;
#X obj -15 57 bng 15 250 50 0 empty empty empty 17 7 0 10 -262144 -1
-1;
#X msg -33 111 bufsize 176;
#X obj 196 -34 cnv 15 60 30 empty empty empty 20 12 0 14 -24198 -66577
0;
#N canvas 374 104 413 135 Help 0;
#X text 24 54 Voir MSP46ReferenceManual.pdf;
#X text 23 1 utilise l'objet Scope~ de la library cyclone;
#X text 24 26 Voir Browser -> Pure Data/examples/cyclone/scope-test.pd
;
#X text 24 40 Voir Browser -> Pure Data/examples/cyclone/pink-test.pd
;
#X text 24 -20 Scope;
#X restore 203 -28 pd Help;
#X obj 101 121 cnv 15 199 129 empty empty empty 20 12 0 14 -1 -66577
0;
#X obj 101 123 Scope~ 198 61 40 3 176 -0.95 0.95 0 0 0 0 255 0 0 255
255 255 0;
#X obj 101 187 Scope~ 198 61 40 3 176 -0.95 0.95 0 0 0 0 255 0 0 255
255 255 0;
#X msg -24 136 range -0.95 0.95;
#X obj 277 -12 -~ 0.025;
#X obj 40 -11 -~ 0.025;
#X obj 396 222 cnv 15 41 30 empty empty empty 20 12 0 14 -24198 -66577
0;
#N canvas 350 196 308 136 ?? 0;
#X obj -9 87 cnv 15 300 38 empty empty empty 20 12 0 14 -224896 -66577
0;
#X obj -9 10 cnv 18 300 70 empty empty ARGOPdMiniModules 1 10 1 14
-4033 -1 1.04858e+06;
#X obj 9 29 cnv 10 10 10 empty empty Gerard 0 5 1 9 -4033 -1 1.04858e+06
;
#X obj 40 29 cnv 10 10 10 empty empty Paresys 0 5 1 9 -4033 -1 1.04858e+06
;
#X text -8 89 Construit sous / Build under Pd 0.42.5-extended;
#X obj 39 105 pddplink http://puredata.info/downloads;
#X obj 3 42 pddplink http://pagesperso-orange.fr/Paresys/ARGOPd/;
#X obj 3 57 pddplink http://gerard.paresys.free.fr/ARGOPd/;
#X restore 400 229 pd ??;
#X text 243 85 15 5 2011;
#X connect 0 0 23 0;
#X connect 3 0 19 0;
#X connect 3 0 20 0;
#X connect 4 0 9 0;
#X connect 5 0 7 0;
#X connect 6 0 19 0;
#X connect 6 0 20 0;
#X connect 7 0 6 0;
#X connect 7 1 10 0;
#X connect 8 0 19 0;
#X connect 8 0 20 0;
#X connect 9 0 19 0;
#X connect 9 0 20 0;
#X connect 10 0 19 0;
#X connect 10 0 20 0;
#X connect 11 0 22 0;
#X connect 13 0 15 0;
#X connect 13 1 21 0;
#X connect 13 2 3 0;
#X connect 13 3 8 0;
#X connect 14 0 13 0;
#X connect 15 0 19 0;
#X connect 15 0 20 0;
#X connect 21 0 19 0;
#X connect 21 0 20 0;
#X connect 22 0 20 0;
#X connect 23 0 19 0;
#X coords 0 -1 1 1 200 150 2 100 100;
#X restore 1003 196 pd ARGO;
#N canvas 309 45 492 302 ARGO 0;
#X obj 40 -35 inlet~;
#X obj 251 108 cnv 10 44 10 empty empty Scope 1 5 1 14 -262144 -1 1.04858e+06
;
#X obj 101 101 cnv 4 10 4 empty empty empty 20 12 0 14 -1 -66577 0
;
#X msg -36 168 frgb 255 0 0;
#X obj 124 105 nbx 4 12 1 2000 0 1 \$0-A ColorTime ms/div 40 7 1 9
-208064 -1 -1 100 256;
#X obj 205 105 tgl 12 1 \$0-A \$0-B Sync 15 6 1 9 -262144 -1 -1 0 1
;
#X msg 128 52 delay 0 \, triglevel 0 \, trigger 0;
#X obj 126 5 sel 0 1;
#X msg -39 192 brgb 255 255 255;
#X obj 85 64 * 2;
#X msg 146 28 delay 1 \, triglevel 0.1 \, trigger 1;
#X obj 277 -36 inlet~;
#X obj 289 101 cnv 4 10 4 empty empty empty 20 12 0 14 -1 -66577 0
;
#X obj -14 80 t b b b b;
#X obj -15 57 bng 15 250 50 0 empty empty empty 17 7 0 10 -262144 -1
-1;
#X msg -33 111 bufsize 176;
#X obj 196 -34 cnv 15 60 30 empty empty empty 20 12 0 14 -24198 -66577
0;
#N canvas 374 104 413 135 Help 0;
#X text 24 54 Voir MSP46ReferenceManual.pdf;
#X text 23 1 utilise l'objet Scope~ de la library cyclone;
#X text 24 26 Voir Browser -> Pure Data/examples/cyclone/scope-test.pd
;
#X text 24 40 Voir Browser -> Pure Data/examples/cyclone/pink-test.pd
;
#X text 24 -20 Scope;
#X restore 203 -28 pd Help;
#X obj 101 121 cnv 15 199 129 empty empty empty 20 12 0 14 -1 -66577
0;
#X obj 101 123 Scope~ 198 61 200 3 176 -0.95 0.95 0 0 0 0 255 0 0 255
255 255 0;
#X obj 101 187 Scope~ 198 61 200 3 176 -0.95 0.95 0 0 0 0 255 0 0 255
255 255 0;
#X msg -24 136 range -0.95 0.95;
#X obj 277 -12 -~ 0.025;
#X obj 40 -11 -~ 0.025;
#X obj 396 222 cnv 15 41 30 empty empty empty 20 12 0 14 -24198 -66577
0;
#N canvas 350 196 308 136 ?? 0;
#X obj -9 87 cnv 15 300 38 empty empty empty 20 12 0 14 -224896 -66577
0;
#X obj -9 10 cnv 18 300 70 empty empty ARGOPdMiniModules 1 10 1 14
-4033 -1 1.04858e+06;
#X obj 9 29 cnv 10 10 10 empty empty Gerard 0 5 1 9 -4033 -1 1.04858e+06
;
#X obj 40 29 cnv 10 10 10 empty empty Paresys 0 5 1 9 -4033 -1 1.04858e+06
;
#X text -8 89 Construit sous / Build under Pd 0.42.5-extended;
#X obj 39 105 pddplink http://puredata.info/downloads;
#X obj 3 42 pddplink http://pagesperso-orange.fr/Paresys/ARGOPd/;
#X obj 3 57 pddplink http://gerard.paresys.free.fr/ARGOPd/;
#X restore 400 229 pd ??;
#X text 243 85 15 5 2011;
#X connect 0 0 23 0;
#X connect 3 0 19 0;
#X connect 3 0 20 0;
#X connect 4 0 9 0;
#X connect 5 0 7 0;
#X connect 6 0 19 0;
#X connect 6 0 20 0;
#X connect 7 0 6 0;
#X connect 7 1 10 0;
#X connect 8 0 19 0;
#X connect 8 0 20 0;
#X connect 9 0 19 0;
#X connect 9 0 20 0;
#X connect 10 0 19 0;
#X connect 10 0 20 0;
#X connect 11 0 22 0;
#X connect 13 0 15 0;
#X connect 13 1 21 0;
#X connect 13 2 3 0;
#X connect 13 3 8 0;
#X connect 14 0 13 0;
#X connect 15 0 19 0;
#X connect 15 0 20 0;
#X connect 21 0 19 0;
#X connect 21 0 20 0;
#X connect 22 0 20 0;
#X connect 23 0 19 0;
#X coords 0 -1 1 1 200 150 2 100 100;
#X restore 603 196 pd ARGO;
#X text 930 63 -80dB..120dB;
#N canvas 537 160 316 303 ARGO 0;
#X obj 101 101 cnv 20 104 34 empty ColorAmpli empty 20 12 0 14 -261299
-1 1.04858e+06;
#X obj 85 278 outlet~;
#X obj 134 104 cnv 10 20 10 empty ColorAmpli Ampli 1 5 1 14 -261299
-1 1.04858e+06;
#X obj 87 60 inlet~;
#X obj 85 253 *~;
#X obj 103 118 hsl 101 12 -80 120 0 1 \$0-A ColorAmpli 18dB 0 7 1 9
-261299 -1 -1 4900 0;
#X obj 101 101 cnv 4 10 4 empty empty empty 20 12 0 14 -1 -66577 0
;
#X obj 101 131 cnv 4 10 4 empty empty empty 20 12 0 14 -1 -66577 0
;
#X text 109 170 -> 0.0001..1000000 = -80dB..120dB;
#X obj 262 261 cnv 15 41 30 empty empty empty 20 12 0 14 -24198 -66577
0;
#N canvas 350 196 308 136 ?? 0;
#X obj -9 87 cnv 15 300 38 empty empty empty 20 12 0 14 -224896 -66577
0;
#X obj -9 10 cnv 18 300 70 empty empty ARGOPdMiniModules 1 10 1 14
-4033 -1 1.04858e+06;
#X obj 9 29 cnv 10 10 10 empty empty Gerard 0 5 1 9 -4033 -1 1.04858e+06
;
#X obj 40 29 cnv 10 10 10 empty empty Paresys 0 5 1 9 -4033 -1 1.04858e+06
;
#X text -8 89 Construit sous / Build under Pd 0.42.5-extended;
#X obj 39 105 pddplink http://puredata.info/downloads;
#X obj 3 42 pddplink http://pagesperso-orange.fr/Paresys/ARGOPd/;
#X obj 3 57 pddplink http://gerard.paresys.free.fr/ARGOPd/;
#X restore 266 268 pd ??;
#X text 209 97 1 6 2011;
#X msg 5 145 label \$1;
#X obj 4 122 tosymbol;
#X obj 4 87 sprintf %ddB;
#X obj 101 147 expr (pow(10 \, $f1 / 20));
#X obj 101 190 sel 0.0001;
#X msg 101 218 0;
#X connect 3 0 4 0;
#X connect 4 0 1 0;
#X connect 5 0 14 0;
#X connect 5 0 15 0;
#X connect 12 0 5 0;
#X connect 13 0 12 0;
#X connect 14 0 13 0;
#X connect 15 0 16 0;
#X connect 16 0 17 0;
#X connect 16 1 4 1;
#X connect 17 0 4 1;
#X connect 17 0 13 0;
#X coords 0 -1 1 1 106 36 1 100 100;
#X restore 900 80 pd ARGO;
#X text 767 92 4 Adjust Amplitude ->;
#N canvas 362 47 318 207 ARGO 0;
#X obj 101 101 cnv 20 148 46 empty ColorForm PitchShift 50 9 1 14 -188398
-1 1.04858e+06;
#X obj 101 143 cnv 4 10 4 empty empty empty 20 12 0 14 -1 -66577 0
;
#X obj 90 50 inlet~;
#X obj 101 101 cnv 4 10 4 empty empty empty 20 12 0 14 -1 -66577 0
;
#X obj 90 184 outlet~;
#X obj 19 112 cnv 15 60 30 empty empty empty 20 12 0 14 -24198 -66577
0;
#N canvas 345 36 418 512 Help 0;
#X obj 8 36 cnv 15 400 360 empty empty empty 20 12 0 14 -233017 -66577
0;
#X text 11 38 Citation;
#X text 310 10 = Transposition;
#X text 8 13 PitchShift = Pitch shifting = Décalage en hauteur;
#X text 28 54 Voir: /doc/3.audio.examples/G09.pitchshift.pd;
#X text 26 314 The Theory and Technique of Electronic Music;
#X text 26 303 Voir:;
#X text 27 327 Miller Puckette;
#X text 48 341 7.9 Pitchshifting page 202;
#X text 71 353 Pitch shifter page 218;
#X obj 27 368 pddplink http://crca.ucsd.edu/%7Emsp/techniques/latest/book.pdf
;
#X text 26 71 This is a classic rotating-tape-head style pitch shifter
using the vd~ variable delay object. Ther are two moving tape heads
\, each of which is loudest at the middle of its trajectory \, and
enveloped out at the moment it has to jump back (or forward) to start
another scratch. Most of the brain work is in computing how fast the
tape heads have to move to get the desired transposition.;
#X text 25 170 The "window size" is the total trajectory of the read
points in the delay line \, in milliseconds. The delay times are controlled
by a phasor~ object. The second delay time \, 180 degrees out of phase
from the first one \, is computed using the "wrap" object.;
#X text 25 243 The cos~ objects compute the fadein and fadeout of the
two delay line outputs. They each traverse the positive half of the
cosine waveform (phase -0.25 to +0.25) over the time the phase goes
from one end to the other.;
#X text 7 431 Cela evite de devoir nommer la "delay line".;
#X text 6 448 Le MiniModule est ainsi duplicable et peux être présent
à 2 exemplaires dans un même patch.;
#X text 7 400 (delwrite~ G09-del 5000) + (vd~ G09-del) est remplacé
par (cyclone/comb~ 5000 0 0 1 0).;
#X restore 26 118 pd Help;
#X obj 249 164 cnv 15 41 30 empty empty empty 20 12 0 14 -24198 -66577
0;
#N canvas 392 196 308 136 ?? 0;
#X obj -9 87 cnv 15 300 38 empty empty empty 20 12 0 14 -224896 -66577
0;
#X obj -9 10 cnv 18 300 70 empty empty ARGOPdMiniModules 1 10 1 14
-4033 -1 1.04858e+06;
#X obj 9 29 cnv 10 10 10 empty empty Gerard 0 5 1 9 -4033 -1 1.04858e+06
;
#X obj 40 29 cnv 10 10 10 empty empty Paresys 0 5 1 9 -4033 -1 1.04858e+06
;
#X text -8 89 Construit sous / Build under Pd 0.42.5-extended;
#X obj 39 105 pddplink http://puredata.info/downloads;
#X obj 3 42 pddplink http://pagesperso-orange.fr/Paresys/ARGOPd/;
#X obj 3 57 pddplink http://gerard.paresys.free.fr/ARGOPd/;
#X restore 253 171 pd ??;
#X obj 103 118 hsl 145 12 -36 36 0 1 \$0-A ColorTime 15semitone 0 7
1 9 -208064 -1728 -1 10200 0;
#X obj 239 101 cnv 4 10 4 empty empty empty 20 12 0 14 -260097 -66577
0;
#N canvas 484 315 248 174 label 0;
#X obj 46 76 outlet;
#X obj 46 -70 inlet;
#X msg 46 42 label \$1;
#X obj 46 20 tosymbol;
#X obj 46 -14 sprintf %ssemitone;
#X obj 46 -43 expr (int(100 * $f1) / 100) \;;
#X connect 1 0 5 0;
#X connect 2 0 0 0;
#X connect 3 0 2 0;
#X connect 4 0 3 0;
#X connect 5 0 4 0;
#X restore 257 108 pd label;
#X obj 149 47 cnv 15 100 24 empty empty empty 20 12 0 14 -261682 -66577
0;
#X text 149 44 Nombre ->;
#X text 149 54 Number ->;
#X obj 209 50 inlet;
#X obj 103 130 hsl 145 12 1 1000 1 1 \$0-A ColorTime 56ms 0 7 1 9 -208064
-1728 -1 8400 0;
#N canvas 795 278 161 155 label 0;
#X obj 46 76 outlet;
#X obj 46 -43 inlet;
#X msg 46 42 label \$1;
#X obj 46 20 tosymbol;
#X obj 46 -14 sprintf %dms;
#X connect 1 0 4 0;
#X connect 2 0 0 0;
#X connect 3 0 2 0;
#X connect 4 0 3 0;
#X restore 257 138 pd label;
#N canvas 339 115 459 487 PitchShift 0;
#X obj 44 35 inlet~;
#X obj 164 460 outlet~;
#X obj 109 32 inlet;
#X obj 268 33 inlet;
#X obj 89 324 *~;
#X obj 268 159 line~;
#X obj 268 133 pack 0 200;
#X obj 109 75 exp;
#X obj 71 192 /;
#X obj 210 135 * 0.001;
#X obj 7 398 cos~;
#X obj 19 425 *~;
#X obj 238 291 wrap~;
#X obj 322 326 *~;
#X obj 238 398 cos~;
#X obj 250 425 *~;
#X obj 210 162 t b f;
#X obj 238 264 +~ 0.5;
#X obj 7 341 -~ 0.5;
#X obj 7 369 *~ 0.5;
#X obj 238 334 -~ 0.5;
#X obj 238 369 *~ 0.5;
#X obj 71 139 - 1;
#X obj 109 54 * 0.05776;
#X obj 71 160 * -1;
#X text 94 16 (halftones);
#X text 106 185 tape head;
#X obj 71 220 phasor~;
#X obj 268 78 max 1;
#X text 107 198 rotation freq;
#X text 90 3 transposition;
#X text 242 10 window (msec);
#X msg 321 163 clear;
#X obj 51 398 cyclone/comb~ 5000 0 0 1 0;
#X obj 284 398 cyclone/comb~ 5000 0 0 1 0;
#X text 111 91 <- speed change;
#X obj 89 369 +~ 2;
#X obj 322 369 +~ 2;
#X connect 0 0 33 0;
#X connect 0 0 34 0;
#X connect 2 0 23 0;
#X connect 3 0 28 0;
#X connect 4 0 36 0;
#X connect 5 0 4 1;
#X connect 5 0 13 1;
#X connect 6 0 5 0;
#X connect 7 0 22 0;
#X connect 8 0 27 0;
#X connect 9 0 16 0;
#X connect 10 0 11 0;
#X connect 11 0 1 0;
#X connect 12 0 13 0;
#X connect 12 0 20 0;
#X connect 13 0 37 0;
#X connect 14 0 15 0;
#X connect 15 0 1 0;
#X connect 16 0 8 0;
#X connect 16 1 8 1;
#X connect 17 0 12 0;
#X connect 18 0 19 0;
#X connect 19 0 10 0;
#X connect 20 0 21 0;
#X connect 21 0 14 0;
#X connect 22 0 24 0;
#X connect 23 0 7 0;
#X connect 24 0 8 0;
#X connect 27 0 4 0;
#X connect 27 0 18 0;
#X connect 27 0 17 0;
#X connect 28 0 9 0;
#X connect 28 0 6 0;
#X connect 32 0 33 0;
#X connect 32 0 34 0;
#X connect 33 0 11 1;
#X connect 34 0 15 1;
#X connect 36 0 33 1;
#X connect 37 0 34 1;
#X restore 90 156 pd PitchShift;
#X text 181 29 -36..+36 semitones;
#X text 122 82 11 5 2011;
#X connect 2 0 18 0;
#X connect 9 0 11 0;
#X connect 9 0 18 1;
#X connect 11 0 9 0;
#X connect 15 0 9 0;
#X connect 16 0 17 0;
#X connect 16 0 18 2;
#X connect 17 0 16 0;
#X connect 18 0 4 0;
#X coords 0 -1 1 1 150 48 1 100 100;
#X restore 323 355 pd ARGO;
#N canvas 362 47 318 207 ARGO 0;
#X obj 101 101 cnv 20 148 46 empty ColorForm PitchShift 50 9 1 14 -188398
-1 1.04858e+06;
#X obj 101 143 cnv 4 10 4 empty empty empty 20 12 0 14 -1 -66577 0
;
#X obj 90 50 inlet~;
#X obj 101 101 cnv 4 10 4 empty empty empty 20 12 0 14 -1 -66577 0
;
#X obj 90 184 outlet~;
#X obj 19 112 cnv 15 60 30 empty empty empty 20 12 0 14 -24198 -66577
0;
#N canvas 345 36 418 512 Help 0;
#X obj 8 36 cnv 15 400 360 empty empty empty 20 12 0 14 -233017 -66577
0;
#X text 11 38 Citation;
#X text 310 10 = Transposition;
#X text 8 13 PitchShift = Pitch shifting = Décalage en hauteur;
#X text 28 54 Voir: /doc/3.audio.examples/G09.pitchshift.pd;
#X text 26 314 The Theory and Technique of Electronic Music;
#X text 26 303 Voir:;
#X text 27 327 Miller Puckette;
#X text 48 341 7.9 Pitchshifting page 202;
#X text 71 353 Pitch shifter page 218;
#X obj 27 368 pddplink http://crca.ucsd.edu/%7Emsp/techniques/latest/book.pdf
;
#X text 26 71 This is a classic rotating-tape-head style pitch shifter
using the vd~ variable delay object. Ther are two moving tape heads
\, each of which is loudest at the middle of its trajectory \, and
enveloped out at the moment it has to jump back (or forward) to start
another scratch. Most of the brain work is in computing how fast the
tape heads have to move to get the desired transposition.;
#X text 25 170 The "window size" is the total trajectory of the read
points in the delay line \, in milliseconds. The delay times are controlled
by a phasor~ object. The second delay time \, 180 degrees out of phase
from the first one \, is computed using the "wrap" object.;
#X text 25 243 The cos~ objects compute the fadein and fadeout of the
two delay line outputs. They each traverse the positive half of the
cosine waveform (phase -0.25 to +0.25) over the time the phase goes
from one end to the other.;
#X text 7 431 Cela evite de devoir nommer la "delay line".;
#X text 6 448 Le MiniModule est ainsi duplicable et peux être présent
à 2 exemplaires dans un même patch.;
#X text 7 400 (delwrite~ G09-del 5000) + (vd~ G09-del) est remplacé
par (cyclone/comb~ 5000 0 0 1 0).;
#X restore 26 118 pd Help;
#X obj 249 164 cnv 15 41 30 empty empty empty 20 12 0 14 -24198 -66577
0;
#N canvas 392 196 308 136 ?? 0;
#X obj -9 87 cnv 15 300 38 empty empty empty 20 12 0 14 -224896 -66577
0;
#X obj -9 10 cnv 18 300 70 empty empty ARGOPdMiniModules 1 10 1 14
-4033 -1 1.04858e+06;
#X obj 9 29 cnv 10 10 10 empty empty Gerard 0 5 1 9 -4033 -1 1.04858e+06
;
#X obj 40 29 cnv 10 10 10 empty empty Paresys 0 5 1 9 -4033 -1 1.04858e+06
;
#X text -8 89 Construit sous / Build under Pd 0.42.5-extended;
#X obj 39 105 pddplink http://puredata.info/downloads;
#X obj 3 42 pddplink http://pagesperso-orange.fr/Paresys/ARGOPd/;
#X obj 3 57 pddplink http://gerard.paresys.free.fr/ARGOPd/;
#X restore 253 171 pd ??;
#X obj 103 118 hsl 145 12 -36 36 0 1 \$0-A ColorTime 21semitone 0 7
1 9 -208064 -1728 -1 11400 0;
#X obj 239 101 cnv 4 10 4 empty empty empty 20 12 0 14 -260097 -66577
0;
#N canvas 484 315 248 174 label 0;
#X obj 46 76 outlet;
#X obj 46 -70 inlet;
#X msg 46 42 label \$1;
#X obj 46 20 tosymbol;
#X obj 46 -14 sprintf %ssemitone;
#X obj 46 -43 expr (int(100 * $f1) / 100) \;;
#X connect 1 0 5 0;
#X connect 2 0 0 0;
#X connect 3 0 2 0;
#X connect 4 0 3 0;
#X connect 5 0 4 0;
#X restore 257 108 pd label;
#X obj 149 47 cnv 15 100 24 empty empty empty 20 12 0 14 -261682 -66577
0;
#X text 149 44 Nombre ->;
#X text 149 54 Number ->;
#X obj 209 50 inlet;
#X obj 103 130 hsl 145 12 1 1000 1 1 \$0-A ColorTime 56ms 0 7 1 9 -208064
-1728 -1 8400 0;
#N canvas 795 278 161 155 label 0;
#X obj 46 76 outlet;
#X obj 46 -43 inlet;
#X msg 46 42 label \$1;
#X obj 46 20 tosymbol;
#X obj 46 -14 sprintf %dms;
#X connect 1 0 4 0;
#X connect 2 0 0 0;
#X connect 3 0 2 0;
#X connect 4 0 3 0;
#X restore 257 138 pd label;
#N canvas 339 115 459 487 PitchShift 0;
#X obj 44 35 inlet~;
#X obj 164 460 outlet~;
#X obj 109 32 inlet;
#X obj 268 33 inlet;
#X obj 89 324 *~;
#X obj 268 159 line~;
#X obj 268 133 pack 0 200;
#X obj 109 75 exp;
#X obj 71 192 /;
#X obj 210 135 * 0.001;
#X obj 7 398 cos~;
#X obj 19 425 *~;
#X obj 238 291 wrap~;
#X obj 322 326 *~;
#X obj 238 398 cos~;
#X obj 250 425 *~;
#X obj 210 162 t b f;
#X obj 238 264 +~ 0.5;
#X obj 7 341 -~ 0.5;
#X obj 7 369 *~ 0.5;
#X obj 238 334 -~ 0.5;
#X obj 238 369 *~ 0.5;
#X obj 71 139 - 1;
#X obj 109 54 * 0.05776;
#X obj 71 160 * -1;
#X text 94 16 (halftones);
#X text 106 185 tape head;
#X obj 71 220 phasor~;
#X obj 268 78 max 1;
#X text 107 198 rotation freq;
#X text 90 3 transposition;
#X text 242 10 window (msec);
#X msg 321 163 clear;
#X obj 51 398 cyclone/comb~ 5000 0 0 1 0;
#X obj 284 398 cyclone/comb~ 5000 0 0 1 0;
#X text 111 91 <- speed change;
#X obj 89 369 +~ 2;
#X obj 322 369 +~ 2;
#X connect 0 0 33 0;
#X connect 0 0 34 0;
#X connect 2 0 23 0;
#X connect 3 0 28 0;
#X connect 4 0 36 0;
#X connect 5 0 4 1;
#X connect 5 0 13 1;
#X connect 6 0 5 0;
#X connect 7 0 22 0;
#X connect 8 0 27 0;
#X connect 9 0 16 0;
#X connect 10 0 11 0;
#X connect 11 0 1 0;
#X connect 12 0 13 0;
#X connect 12 0 20 0;
#X connect 13 0 37 0;
#X connect 14 0 15 0;
#X connect 15 0 1 0;
#X connect 16 0 8 0;
#X connect 16 1 8 1;
#X connect 17 0 12 0;
#X connect 18 0 19 0;
#X connect 19 0 10 0;
#X connect 20 0 21 0;
#X connect 21 0 14 0;
#X connect 22 0 24 0;
#X connect 23 0 7 0;
#X connect 24 0 8 0;
#X connect 27 0 4 0;
#X connect 27 0 18 0;
#X connect 27 0 17 0;
#X connect 28 0 9 0;
#X connect 28 0 6 0;
#X connect 32 0 33 0;
#X connect 32 0 34 0;
#X connect 33 0 11 1;
#X connect 34 0 15 1;
#X connect 36 0 33 1;
#X connect 37 0 34 1;
#X restore 90 156 pd PitchShift;
#X text 181 29 -36..+36 semitones;
#X text 122 82 11 5 2011;
#X connect 2 0 18 0;
#X connect 9 0 11 0;
#X connect 9 0 18 1;
#X connect 11 0 9 0;
#X connect 15 0 9 0;
#X connect 16 0 17 0;
#X connect 16 0 18 2;
#X connect 17 0 16 0;
#X connect 18 0 4 0;
#X coords 0 -1 1 1 150 48 1 100 100;
#X restore 744 358 pd ARGO;
#N canvas 392 69 302 281 ARGO 0;
#X obj 101 101 cnv 20 104 34 empty ColorAmpli Tanh 70 9 1 14 -261299
-1 1.04858e+06;
#X obj 85 252 outlet~;
#X obj 85 72 inlet~;
#X obj 85 200 *~;
#X obj 103 118 hsl 101 12 -20 80 0 1 \$0-A ColorAmpli 37dB 0 7 1 9
-261299 -1 -1 5700 0;
#X msg -9 139 label \$1;
#X obj -10 116 tosymbol;
#X obj -10 94 sprintf %ddB;
#X obj 101 101 cnv 4 10 4 empty empty empty 20 12 0 14 -1 -66577 0
;
#X obj 101 131 cnv 4 10 4 empty empty empty 20 12 0 14 -1 -66577 0
;
#X obj 100 163 expr (pow(10 \, $f1 / 20));
#X obj 219 234 cnv 15 41 30 empty empty empty 20 12 0 14 -24198 -66577
0;
#N canvas 350 196 308 136 ?? 0;
#X obj -9 87 cnv 15 300 38 empty empty empty 20 12 0 14 -224896 -66577
0;
#X obj -9 10 cnv 18 300 70 empty empty ARGOPdMiniModules 1 10 1 14
-4033 -1 1.04858e+06;
#X obj 9 29 cnv 10 10 10 empty empty Gerard 0 5 1 9 -4033 -1 1.04858e+06
;
#X obj 40 29 cnv 10 10 10 empty empty Paresys 0 5 1 9 -4033 -1 1.04858e+06
;
#X text -8 89 Construit sous / Build under Pd 0.42.5-extended;
#X obj 39 105 pddplink http://puredata.info/downloads;
#X obj 3 42 pddplink http://pagesperso-orange.fr/Paresys/ARGOPd/;
#X obj 3 57 pddplink http://gerard.paresys.free.fr/ARGOPd/;
#X restore 223 241 pd ??;
#X obj 85 227 cyclone/tanh~;
#X obj 1 34 cnv 15 60 30 empty empty empty 20 12 0 14 -24198 -66577
0;
#N canvas 341 91 411 318 Help 0;
#X obj 0 3 cnv 15 400 290 empty empty empty 20 12 0 14 -233017 -66577
0;
#X text 3 2 Citation;
#X text 19 28 cyclone library;
#X text 19 40 calculate hyperbolic tangent function;
#X text 19 17 tanh~;
#X obj 19 140 pddplink http://suita.chopin.edu.pl/~czaja/miXed/externs/cyclone.html
;
#X text 19 162 cf doc Max/MSP -> MSP46ReferenceManual.pdf;
#X text 19 88 outputs signal values always between -1 and 1;
#X text 19 108 turn a sine wave into a square wave by cranking up the
volume!;
#X text 19 57 can be used to simulate analog distortion \, and is much
"smoother" than using clip~;
#X restore 8 40 pd Help;
#X text 107 140 -> -20..80;
#X text 106 182 -> 0.1..10000 = -20dB..80dB;
#X text 209 97 14 5 2011;
#X connect 2 0 3 0;
#X connect 3 0 13 0;
#X connect 4 0 7 0;
#X connect 4 0 10 0;
#X connect 5 0 4 0;
#X connect 6 0 5 0;
#X connect 7 0 6 0;
#X connect 10 0 3 1;
#X connect 13 0 1 0;
#X coords 0 -1 1 1 106 36 1 100 100;
#X restore 744 413 pd ARGO;
#N canvas 392 69 302 281 ARGO 0;
#X obj 101 101 cnv 20 104 34 empty ColorAmpli Tanh 70 9 1 14 -261299
-1 1.04858e+06;
#X obj 85 252 outlet~;
#X obj 85 72 inlet~;
#X obj 85 200 *~;
#X obj 103 118 hsl 101 12 -20 80 0 1 \$0-A ColorAmpli 28dB 0 7 1 9
-261299 -1 -1 4800 0;
#X msg -9 139 label \$1;
#X obj -10 116 tosymbol;
#X obj -10 94 sprintf %ddB;
#X obj 101 101 cnv 4 10 4 empty empty empty 20 12 0 14 -1 -66577 0
;
#X obj 101 131 cnv 4 10 4 empty empty empty 20 12 0 14 -1 -66577 0
;
#X obj 100 163 expr (pow(10 \, $f1 / 20));
#X obj 219 234 cnv 15 41 30 empty empty empty 20 12 0 14 -24198 -66577
0;
#N canvas 350 196 308 136 ?? 0;
#X obj -9 87 cnv 15 300 38 empty empty empty 20 12 0 14 -224896 -66577
0;
#X obj -9 10 cnv 18 300 70 empty empty ARGOPdMiniModules 1 10 1 14
-4033 -1 1.04858e+06;
#X obj 9 29 cnv 10 10 10 empty empty Gerard 0 5 1 9 -4033 -1 1.04858e+06
;
#X obj 40 29 cnv 10 10 10 empty empty Paresys 0 5 1 9 -4033 -1 1.04858e+06
;
#X text -8 89 Construit sous / Build under Pd 0.42.5-extended;
#X obj 39 105 pddplink http://puredata.info/downloads;
#X obj 3 42 pddplink http://pagesperso-orange.fr/Paresys/ARGOPd/;
#X obj 3 57 pddplink http://gerard.paresys.free.fr/ARGOPd/;
#X restore 223 241 pd ??;
#X obj 85 227 cyclone/tanh~;
#X obj 1 34 cnv 15 60 30 empty empty empty 20 12 0 14 -24198 -66577
0;
#N canvas 341 91 411 318 Help 0;
#X obj 0 3 cnv 15 400 290 empty empty empty 20 12 0 14 -233017 -66577
0;
#X text 3 2 Citation;
#X text 19 28 cyclone library;
#X text 19 40 calculate hyperbolic tangent function;
#X text 19 17 tanh~;
#X obj 19 140 pddplink http://suita.chopin.edu.pl/~czaja/miXed/externs/cyclone.html
;
#X text 19 162 cf doc Max/MSP -> MSP46ReferenceManual.pdf;
#X text 19 88 outputs signal values always between -1 and 1;
#X text 19 108 turn a sine wave into a square wave by cranking up the
volume!;
#X text 19 57 can be used to simulate analog distortion \, and is much
"smoother" than using clip~;
#X restore 8 40 pd Help;
#X text 107 140 -> -20..80;
#X text 106 182 -> 0.1..10000 = -20dB..80dB;
#X text 209 97 14 5 2011;
#X connect 2 0 3 0;
#X connect 3 0 13 0;
#X connect 4 0 7 0;
#X connect 4 0 10 0;
#X connect 5 0 4 0;
#X connect 6 0 5 0;
#X connect 7 0 6 0;
#X connect 10 0 3 1;
#X connect 13 0 1 0;
#X coords 0 -1 1 1 106 36 1 100 100;
#X restore 934 413 pd ARGO;
#N canvas 362 47 318 207 ARGO 0;
#X obj 101 101 cnv 20 148 46 empty ColorForm PitchShift 50 9 1 14 -188398
-1 1.04858e+06;
#X obj 101 143 cnv 4 10 4 empty empty empty 20 12 0 14 -1 -66577 0
;
#X obj 90 50 inlet~;
#X obj 101 101 cnv 4 10 4 empty empty empty 20 12 0 14 -1 -66577 0
;
#X obj 90 184 outlet~;
#X obj 19 112 cnv 15 60 30 empty empty empty 20 12 0 14 -24198 -66577
0;
#N canvas 345 36 418 512 Help 0;
#X obj 8 36 cnv 15 400 360 empty empty empty 20 12 0 14 -233017 -66577
0;
#X text 11 38 Citation;
#X text 310 10 = Transposition;
#X text 8 13 PitchShift = Pitch shifting = Décalage en hauteur;
#X text 28 54 Voir: /doc/3.audio.examples/G09.pitchshift.pd;
#X text 26 314 The Theory and Technique of Electronic Music;
#X text 26 303 Voir:;
#X text 27 327 Miller Puckette;
#X text 48 341 7.9 Pitchshifting page 202;
#X text 71 353 Pitch shifter page 218;
#X obj 27 368 pddplink http://crca.ucsd.edu/%7Emsp/techniques/latest/book.pdf
;
#X text 26 71 This is a classic rotating-tape-head style pitch shifter
using the vd~ variable delay object. Ther are two moving tape heads
\, each of which is loudest at the middle of its trajectory \, and
enveloped out at the moment it has to jump back (or forward) to start
another scratch. Most of the brain work is in computing how fast the
tape heads have to move to get the desired transposition.;
#X text 25 170 The "window size" is the total trajectory of the read
points in the delay line \, in milliseconds. The delay times are controlled
by a phasor~ object. The second delay time \, 180 degrees out of phase
from the first one \, is computed using the "wrap" object.;
#X text 25 243 The cos~ objects compute the fadein and fadeout of the
two delay line outputs. They each traverse the positive half of the
cosine waveform (phase -0.25 to +0.25) over the time the phase goes
from one end to the other.;
#X text 7 431 Cela evite de devoir nommer la "delay line".;
#X text 6 448 Le MiniModule est ainsi duplicable et peux être présent
à 2 exemplaires dans un même patch.;
#X text 7 400 (delwrite~ G09-del 5000) + (vd~ G09-del) est remplacé
par (cyclone/comb~ 5000 0 0 1 0).;
#X restore 26 118 pd Help;
#X obj 249 164 cnv 15 41 30 empty empty empty 20 12 0 14 -24198 -66577
0;
#N canvas 392 196 308 136 ?? 0;
#X obj -9 87 cnv 15 300 38 empty empty empty 20 12 0 14 -224896 -66577
0;
#X obj -9 10 cnv 18 300 70 empty empty ARGOPdMiniModules 1 10 1 14
-4033 -1 1.04858e+06;
#X obj 9 29 cnv 10 10 10 empty empty Gerard 0 5 1 9 -4033 -1 1.04858e+06
;
#X obj 40 29 cnv 10 10 10 empty empty Paresys 0 5 1 9 -4033 -1 1.04858e+06
;
#X text -8 89 Construit sous / Build under Pd 0.42.5-extended;
#X obj 39 105 pddplink http://puredata.info/downloads;
#X obj 3 42 pddplink http://pagesperso-orange.fr/Paresys/ARGOPd/;
#X obj 3 57 pddplink http://gerard.paresys.free.fr/ARGOPd/;
#X restore 253 171 pd ??;
#X obj 103 118 hsl 145 12 -36 36 0 1 \$0-A ColorTime 27semitone 0 7
1 9 -208064 -1728 -1 12600 0;
#X obj 239 101 cnv 4 10 4 empty empty empty 20 12 0 14 -260097 -66577
0;
#N canvas 484 315 248 174 label 0;
#X obj 46 76 outlet;
#X obj 46 -70 inlet;
#X msg 46 42 label \$1;
#X obj 46 20 tosymbol;
#X obj 46 -14 sprintf %ssemitone;
#X obj 46 -43 expr (int(100 * $f1) / 100) \;;
#X connect 1 0 5 0;
#X connect 2 0 0 0;
#X connect 3 0 2 0;
#X connect 4 0 3 0;
#X connect 5 0 4 0;
#X restore 257 108 pd label;
#X obj 149 47 cnv 15 100 24 empty empty empty 20 12 0 14 -261682 -66577
0;
#X text 149 44 Nombre ->;
#X text 149 54 Number ->;
#X obj 209 50 inlet;
#X obj 103 130 hsl 145 12 1 1000 1 1 \$0-A ColorTime 56ms 0 7 1 9 -208064
-1728 -1 8400 0;
#N canvas 795 278 161 155 label 0;
#X obj 46 76 outlet;
#X obj 46 -43 inlet;
#X msg 46 42 label \$1;
#X obj 46 20 tosymbol;
#X obj 46 -14 sprintf %dms;
#X connect 1 0 4 0;
#X connect 2 0 0 0;
#X connect 3 0 2 0;
#X connect 4 0 3 0;
#X restore 257 138 pd label;
#N canvas 339 115 459 487 PitchShift 0;
#X obj 44 35 inlet~;
#X obj 164 460 outlet~;
#X obj 109 32 inlet;
#X obj 268 33 inlet;
#X obj 89 324 *~;
#X obj 268 159 line~;
#X obj 268 133 pack 0 200;
#X obj 109 75 exp;
#X obj 71 192 /;
#X obj 210 135 * 0.001;
#X obj 7 398 cos~;
#X obj 19 425 *~;
#X obj 238 291 wrap~;
#X obj 322 326 *~;
#X obj 238 398 cos~;
#X obj 250 425 *~;
#X obj 210 162 t b f;
#X obj 238 264 +~ 0.5;
#X obj 7 341 -~ 0.5;
#X obj 7 369 *~ 0.5;
#X obj 238 334 -~ 0.5;
#X obj 238 369 *~ 0.5;
#X obj 71 139 - 1;
#X obj 109 54 * 0.05776;
#X obj 71 160 * -1;
#X text 94 16 (halftones);
#X text 106 185 tape head;
#X obj 71 220 phasor~;
#X obj 268 78 max 1;
#X text 107 198 rotation freq;
#X text 90 3 transposition;
#X text 242 10 window (msec);
#X msg 321 163 clear;
#X obj 51 398 cyclone/comb~ 5000 0 0 1 0;
#X obj 284 398 cyclone/comb~ 5000 0 0 1 0;
#X text 111 91 <- speed change;
#X obj 89 369 +~ 2;
#X obj 322 369 +~ 2;
#X connect 0 0 33 0;
#X connect 0 0 34 0;
#X connect 2 0 23 0;
#X connect 3 0 28 0;
#X connect 4 0 36 0;
#X connect 5 0 4 1;
#X connect 5 0 13 1;
#X connect 6 0 5 0;
#X connect 7 0 22 0;
#X connect 8 0 27 0;
#X connect 9 0 16 0;
#X connect 10 0 11 0;
#X connect 11 0 1 0;
#X connect 12 0 13 0;
#X connect 12 0 20 0;
#X connect 13 0 37 0;
#X connect 14 0 15 0;
#X connect 15 0 1 0;
#X connect 16 0 8 0;
#X connect 16 1 8 1;
#X connect 17 0 12 0;
#X connect 18 0 19 0;
#X connect 19 0 10 0;
#X connect 20 0 21 0;
#X connect 21 0 14 0;
#X connect 22 0 24 0;
#X connect 23 0 7 0;
#X connect 24 0 8 0;
#X connect 27 0 4 0;
#X connect 27 0 18 0;
#X connect 27 0 17 0;
#X connect 28 0 9 0;
#X connect 28 0 6 0;
#X connect 32 0 33 0;
#X connect 32 0 34 0;
#X connect 33 0 11 1;
#X connect 34 0 15 1;
#X connect 36 0 33 1;
#X connect 37 0 34 1;
#X restore 90 156 pd PitchShift;
#X text 181 29 -36..+36 semitones;
#X text 122 82 11 5 2011;
#X connect 2 0 18 0;
#X connect 9 0 11 0;
#X connect 9 0 18 1;
#X connect 11 0 9 0;
#X connect 15 0 9 0;
#X connect 16 0 17 0;
#X connect 16 0 18 2;
#X connect 17 0 16 0;
#X connect 18 0 4 0;
#X coords 0 -1 1 1 150 48 1 100 100;
#X restore 934 358 pd ARGO;
#N canvas 500 139 369 371 ARGO 0;
#X obj 101 101 cnv 20 104 34 empty ColorAmpli empty 20 12 0 14 -261299
-1 1.04858e+06;
#X obj 85 328 outlet~;
#X obj 158 106 cnv 10 20 10 empty ColorAmpli Ampli 1 5 1 14 -261299
-1 1.04858e+06;
#X obj 85 61 inlet~;
#X obj 85 292 *~;
#X obj 103 118 hsl 101 12 -80 20 0 1 \$0-A ColorAmpli -21dB 0 7 1 9
-261299 -1 -1 5900 0;
#X obj 101 101 cnv 4 10 4 empty empty empty 20 12 0 14 -1 -66577 0
;
#X obj 101 131 cnv 4 10 4 empty empty empty 20 12 0 14 -1 -66577 0
;
#X obj 195 101 cnv 4 10 4 empty empty empty 20 12 0 14 -1 -66577 0
;
#X obj 195 131 cnv 4 10 4 empty empty empty 20 12 0 14 -1 -66577 0
;
#X obj 210 60 inlet~;
#X obj 210 291 *~;
#X obj 264 328 outlet~;
#X obj 264 60 inlet~;
#X obj 264 291 *~;
#X obj 148 101 cnv 4 10 4 empty empty empty 20 12 0 14 -1 -66577 0
;
#X text 216 90 1 6 2011;
#X msg 5 144 label \$1;
#X obj 4 121 tosymbol;
#X obj 4 86 sprintf %ddB;
#X text 107 167 -> 0.0001..10 = -80dB..20dB;
#X obj 101 148 expr (pow(10 \, $f1 / 20));
#X obj 318 327 cnv 15 41 30 empty empty empty 20 12 0 14 -24198 -66577
0;
#N canvas 350 196 308 136 ?? 0;
#X obj -9 87 cnv 15 300 38 empty empty empty 20 12 0 14 -224896 -66577
0;
#X obj -9 10 cnv 18 300 70 empty empty ARGOPdMiniModules 1 10 1 14
-4033 -1 1.04858e+06;
#X obj 9 29 cnv 10 10 10 empty empty Gerard 0 5 1 9 -4033 -1 1.04858e+06
;
#X obj 40 29 cnv 10 10 10 empty empty Paresys 0 5 1 9 -4033 -1 1.04858e+06
;
#X text -8 89 Construit sous / Build under Pd 0.42.5-extended;
#X obj 39 105 pddplink http://puredata.info/downloads;
#X obj 3 42 pddplink http://pagesperso-orange.fr/Paresys/ARGOPd/;
#X obj 3 57 pddplink http://gerard.paresys.free.fr/ARGOPd/;
#X restore 322 334 pd ??;
#X obj 101 191 sel 0.0001;
#X msg 101 219 0;
#X obj 225 263 * 0.7;
#X connect 3 0 4 0;
#X connect 4 0 1 0;
#X connect 5 0 19 0;
#X connect 5 0 21 0;
#X connect 10 0 11 0;
#X connect 11 0 1 0;
#X connect 11 0 12 0;
#X connect 13 0 14 0;
#X connect 14 0 12 0;
#X connect 17 0 5 0;
#X connect 18 0 17 0;
#X connect 19 0 18 0;
#X connect 21 0 24 0;
#X connect 24 0 25 0;
#X connect 24 1 4 1;
#X connect 24 1 14 1;
#X connect 24 1 26 0;
#X connect 25 0 18 0;
#X connect 25 0 4 1;
#X connect 25 0 14 1;
#X connect 25 0 26 0;
#X connect 26 0 11 1;
#X coords 0 -1 1 1 106 36 1 100 100;
#X restore 543 468 pd ARGO;
#N canvas 286 45 604 224 ARGO 0;
#X obj 239 36 inlet~;
#X text 77 17 Left input;
#X text 224 17 Right input;
#X text -270 21 Stereo wav file format recorder;
#X text -270 36 Enregistreur de fichier audio wav à 2 canaux (stereo)
;
#X obj 88 36 inlet~;
#X obj 171 198 writesf~ 2;
#X text -270 51 L'extension .wav est ajoutée au nom du fichier automatiquement
;
#X obj 103 100 hsl 161 17 0 127 0 0 \$0-A \$0-B Record 103 10 1 14
-261299 -261299 -1 0 1;
#X obj 255 101 cnv 4 10 4 empty empty empty 20 12 0 14 -1 -66577 0
;
#X obj 101 101 cnv 4 10 4 empty empty empty 20 12 0 14 -1 -66577 0
;
#X obj 112 100 nbx 4 17 0 9999 0 0 \$0-A ColorTime sec 59 9 1 15 -208064
-1 -1 0 256;
#X obj 282 181 cnv 15 41 30 empty empty empty 20 12 0 14 -24198 -66577
0;
#N canvas 350 196 308 136 ?? 0;
#X obj -9 87 cnv 15 300 38 empty empty empty 20 12 0 14 -224896 -66577
0;
#X obj -9 10 cnv 18 300 70 empty empty ARGOPdMiniModules 1 10 1 14
-4033 -1 1.04858e+06;
#X obj 9 29 cnv 10 10 10 empty empty Gerard 0 5 1 9 -4033 -1 1.04858e+06
;
#X obj 40 29 cnv 10 10 10 empty empty Paresys 0 5 1 9 -4033 -1 1.04858e+06
;
#X text -8 89 Construit sous / Build under Pd 0.42.5-extended;
#X obj 39 105 pddplink http://puredata.info/downloads;
#X obj 3 42 pddplink http://pagesperso-orange.fr/Paresys/ARGOPd/;
#X obj 3 57 pddplink http://gerard.paresys.free.fr/ARGOPd/;
#X restore 286 188 pd ??;
#X text -271 87 Clic n'importe où pour commencer un enregistrement
Audio -> Clic encore pour arrêter l'enregistrement;
#X text -170 114 Click anywhere to start recording Audio ->;
#X text -171 126 Click again to stop recording;
#X text 121 122 Hslider caché transformé en bouton;
#X text 160 81 6 2 2011;
#N canvas 415 66 351 399 record2 0;
#X obj 136 95 sel 0 1;
#X msg 171 260 start;
#X msg 107 259 stop;
#X msg 155 150 open \$1;
#X obj 155 126 savepanel;
#X obj 165 203 delay 1000;
#X obj 245 323 float;
#X obj 291 322 + 1;
#X obj 223 295 metro 1000;
#X msg 291 296 -1;
#X msg 11 257 0;
#X msg 42 257 1;
#X obj 66 210 t b b;
#X obj 165 229 t b b b b;
#N canvas 317 143 290 366 CouleurRecord2 0;
#X obj 122 -19 +;
#X obj 122 37 +;
#X obj 61 -75 * -65536;
#X obj 117 -75 * -256;
#X obj 163 -77 * -1;
#X obj 122 68 - 1;
#X obj 115 -202 inlet;
#X text 77 -97 R;
#X text 123 -99 G;
#X text 172 -98 B;
#X obj 122 123 outlet;
#X text 170 -169 Rouge;
#X msg 134 -121 255;
#X msg 167 -121 0;
#X obj 115 -178 sel 0 1;
#X text 56 -170 Rose;
#X msg 73 -121 200;
#X msg 40 -121 252;
#X obj 134 -148 t b b b;
#X msg 198 -121 0;
#X msg 104 -121 200;
#X obj 40 -148 t b b b;
#X msg 122 96 color \$1 \$1 -1;
#X connect 0 0 1 1;
#X connect 1 0 5 0;
#X connect 2 0 1 0;
#X connect 3 0 0 0;
#X connect 4 0 0 1;
#X connect 5 0 22 0;
#X connect 6 0 14 0;
#X connect 12 0 2 0;
#X connect 13 0 3 0;
#X connect 14 0 21 0;
#X connect 14 1 18 0;
#X connect 16 0 3 0;
#X connect 17 0 2 0;
#X connect 18 0 12 0;
#X connect 18 1 13 0;
#X connect 18 2 19 0;
#X connect 19 0 4 0;
#X connect 20 0 4 0;
#X connect 21 0 17 0;
#X connect 21 1 16 0;
#X connect 21 2 20 0;
#X connect 22 0 10 0;
#X restore 25 326 pd CouleurRecord2;
#X obj 136 75 tgl 15 0 \$0-A \$0-B empty 19 9 1 12 -262144 -258113
-1 0 1;
#X obj 136 30 b;
#X obj 136 52 delay 200;
#X obj 136 8 inlet;
#X obj 25 356 outlet;
#X text 22 372 Couleur;
#X obj 291 356 outlet;
#X text 288 372 Compteur;
#X obj 155 356 outlet;
#X text 152 372 writesf;
#X obj 199 176 t b b;
#X msg 72 33 0;
#X obj 72 8 loadbang;
#X msg 260 124 set 0;
#X msg 261 173 set 1;
#X obj 261 149 b;
#X connect 0 0 12 0;
#X connect 0 1 4 0;
#X connect 0 1 28 0;
#X connect 1 0 23 0;
#X connect 2 0 8 0;
#X connect 2 0 23 0;
#X connect 3 0 23 0;
#X connect 3 0 25 0;
#X connect 4 0 3 0;
#X connect 4 0 30 0;
#X connect 5 0 13 0;
#X connect 6 0 7 0;
#X connect 7 0 6 1;
#X connect 7 0 21 0;
#X connect 8 0 6 0;
#X connect 9 0 7 0;
#X connect 10 0 14 0;
#X connect 11 0 14 0;
#X connect 12 0 10 0;
#X connect 12 1 2 0;
#X connect 13 0 11 0;
#X connect 13 1 1 0;
#X connect 13 2 8 0;
#X connect 13 3 9 0;
#X connect 14 0 19 0;
#X connect 15 0 0 0;
#X connect 16 0 17 0;
#X connect 17 0 15 0;
#X connect 18 0 16 0;
#X connect 25 0 5 0;
#X connect 25 1 9 0;
#X connect 26 0 15 0;
#X connect 27 0 26 0;
#X connect 28 0 15 0;
#X connect 29 0 15 0;
#X connect 30 0 29 0;
#X restore 56 147 pd record2;
#X connect 0 0 6 1;
#X connect 5 0 6 0;
#X connect 8 0 19 0;
#X connect 19 0 8 0;
#X connect 19 1 6 0;
#X connect 19 2 11 0;
#X coords 0 -1 1 1 166 17 1 100 100;
#X restore 434 522 pd ARGO;
#N canvas 431 101 721 426 ARGO 0;
#X obj 368 103 cnv 10 20 10 empty empty Play 1 5 1 14 -262144 -1 1.04858e+06
;
#X obj 101 130 cnv 4 10 4 empty empty empty 20 12 0 14 -1 -66577 0
;
#X obj 81 400 outlet~;
#X obj -13 64 openpanel;
#X msg 206 316 1;
#X msg 168 315 0;
#X msg 25 107 set \$1;
#X msg 109 315 open \$1;
#X obj 150 249 t b b;
#X msg 313 318 set 0;
#X obj 181 219 sel 1 0;
#X obj 271 244 sel 1;
#X msg 126 289 set 1;
#X obj 251 6 key;
#X obj 250 57 select 32;
#X obj 42 7 loadbang;
#X obj 191 351 readsf~ 2;
#X obj 151 100 tgl 12 1 \$0-A \$0-B Play(Space) 14 6 1 9 -262144 -1
-1 1 1;
#X obj 311 100 bng 12 250 50 0 \$0-A \$0-B Stop 14 6 1 9 -262144 -1
-1;
#X obj 249 100 tgl 12 1 \$0-A \$0-B Loop 15 6 1 9 -262144 -1 -1 1 1
;
#X obj 349 397 outlet~;
#X obj 389 130 cnv 4 10 4 empty empty empty 20 12 0 14 -1 -66577 0
;
#X obj 48 219 list2symbol;
#X obj 100 100 bng 12 250 50 0 \$0-A \$0-B empty 14 6 1 9 -262144 -1
-1;
#X obj 206 276 delay 5;
#X obj 102 6 inlet~;
#X obj 101 58 threshold~ 0.5 5 0.49 5;
#X obj 559 44 cnv 15 60 30 empty empty empty 20 12 0 14 -24198 -66577
0;
#N canvas 285 55 565 577 Help 0;
#X obj 9 -296 cnv 15 400 100 empty empty empty 20 12 0 14 -233017 -66577
0;
#X text 12 -297 Citation;
#X obj 8 -51 cnv 15 550 310 empty empty empty 20 12 0 14 -258113 -66577
0;
#X text 20 -44 - Ne lit pas un fichier au format mp3 \, SoundDesigner
II (.SDII ou .SD2);
#X text 23 56 Solution: ouvrir puis sauver le fichier au format aiff
avec Audacity;
#X text 36 43 error: dsp: xxx.aiff: unknown or bad header format;
#X text 31 -281 READSF~ - read a soundfile;
#X text 30 -263 The wave \, aiff \, and nextstep formats are parsed
automatically \, although only 2- 3- and 4- byte samples are accepted
(4 bytes implies floating point and is not available in aiff format.)
;
#X text 13 -189 - Si le Patch est sauvé avec 1 Player contenant un
nom de fichier Audio \, ce fichier sera lu automatiquement à la prochaine
ouverture s'il n'a pas changé d'emplacement.;
#X text 191 206 If the sample rate of pd is set to 44100 \, files having
the sample rates of 44100 are correctly played \, other files will
be transposed.;
#X text 193 179 WARNING The sample rate of the output depends on the
system sample rate of pd:;
#X text 21 95 - ATTENTION Le taux d'échantillonnage de la lecture du
fichier dépends du taux d'échantillonnage de Pd.;
#X text 33 122 Si le taux d'échantillonnage de Pd est de 44100 (Menu
Preferences -> Audio Settings...) \, les fichiers échantillonnés à
44100 Hz sont lus correctement \, sinon ils sont transposés.;
#X text 12 -143 - Peut Ouvrir automatiquement 1 fichier qui se trouve
dans le même dossier que lui \, quelquesoit l'emplacement du dossier.
Pour cela ouvrir le module et taper le nom du fichier (sans chemin
d'accés) dans le message. Le dossier contenant le patch et le fichier
Audio est ainsi transportable.;
#X text 21 4 - Ne lit pas un fichier au format aiff "Entier petit boutien"
comme les pistes d'un CD Audio copiées avec le finder du Mac. Le message
d'erreur s'affichent:;
#X text 8 -434 MM Audio-Play;
#X text 19 -405 Le canal d'un fichier Audio Mono est lu sur la sortie
gauche;
#X text 19 -392 Les canaux 3 \, 4... d'un fichier Audio de plus de
2 canaux ne sont pas lus.;
#X text 199 -329 Channels 3 \, 4... of an Audio file of more than 2
channels are not read.;
#X text 199 -343 A Mono Audio file is read on the left output.;
#X text 19 -418 Lit un fichier Audio Stereo (2 canaux) au format aiff
\, wav.;
#X text 198 -370 Reads an Stereo Audio file (2 channels) with aiff
\, wav format..;
#X restore 566 50 pd Help;
#X obj 101 100 cnv 2 10 4 empty empty empty 20 12 0 14 -1 -66577 0
;
#X obj 102 101 cnv 2 8 2 empty empty empty 20 12 0 14 -262144 -66577
0;
#X text 75 81 Trig Decl;
#X obj 106 113 hradio 14 1 0 20 empty empty empty 0 6 0 8 -260097 -260097
-260097 0;
#X obj -13 42 bang;
#X text 403 115 <- Click the name to change;
#X symbolatom 101 113 49 0 0 0 - - -;
#X obj 49 163 cnv 15 400 50 empty empty empty 20 12 0 14 -260097 -66577
0;
#X text 51 162 Nom du fichier / File name;
#X text 454 175 <- Ajouter ../ devant le nom du fichier \; pour remonter
d'un dossier;
#X obj 633 385 cnv 15 48 25 empty empty empty 20 12 0 14 -24198 -66577
0;
#N canvas 350 196 308 136 ??? 0;
#X obj -6 87 cnv 15 300 38 empty empty empty 20 12 0 14 -224896 -66577
0;
#X obj -6 10 cnv 18 300 70 empty empty ARGOPdMiniModules 3 10 1 14
-4033 -1 1.04858e+06;
#X obj 13 31 cnv 10 10 10 empty empty Gerard 0 5 1 11 -4033 -1 1.04858e+06
;
#X obj 55 30 cnv 10 10 10 empty empty Paresys 0 5 1 11 -4033 -1 1.04858e+06
;
#X text -1 89 Construit sous / Build under Pd 0.42.5-extended;
#X obj 6 43 pddp/pddplink http://pagesperso-orange.fr/Paresys/ARGOPd/
;
#X obj 6 58 pddp/pddplink http://gerard.paresys.free.fr/ARGOPd/;
#X obj 46 105 pddp/pddplink http://puredata.info/downloads;
#X restore 637 389 pd ???;
#X obj 271 219 f;
#X text 334 81 25 10 2011;
#X obj 193 140 f;
#X obj -12 84 t b b s;
#X msg 53 181 2x2Electrodes-1min.wav;
#X connect 3 0 44 0;
#X connect 4 0 16 0;
#X connect 5 0 16 0;
#X connect 6 0 45 0;
#X connect 7 0 16 0;
#X connect 8 0 24 0;
#X connect 8 1 45 0;
#X connect 9 0 17 0;
#X connect 10 0 8 0;
#X connect 10 1 9 0;
#X connect 10 1 5 0;
#X connect 11 0 23 0;
#X connect 12 0 17 0;
#X connect 13 0 14 0;
#X connect 14 0 17 0;
#X connect 15 0 45 0;
#X connect 16 0 2 0;
#X connect 16 1 20 0;
#X connect 16 2 9 0;
#X connect 16 2 41 0;
#X connect 17 0 43 0;
#X connect 18 0 5 0;
#X connect 18 0 9 0;
#X connect 19 0 41 1;
#X connect 22 0 35 0;
#X connect 22 0 7 0;
#X connect 23 0 8 0;
#X connect 24 0 4 0;
#X connect 24 0 12 0;
#X connect 25 0 26 0;
#X connect 26 0 23 0;
#X connect 32 0 33 0;
#X connect 33 0 3 0;
#X connect 41 0 11 0;
#X connect 43 0 10 0;
#X connect 44 0 43 0;
#X connect 44 1 45 0;
#X connect 44 2 6 0;
#X connect 45 0 22 0;
#X coords 0 -1 1 1 300 35 2 100 100;
#X restore 461 15 pd ARGO;
#X obj 1087 507 cnv 15 48 25 empty empty empty 20 12 0 14 -24198 -66577
0;
#N canvas 504 259 308 136 ??? 0;
#X obj -6 87 cnv 15 300 38 empty empty empty 20 12 0 14 -224896 -66577
0;
#X obj -6 10 cnv 18 300 70 empty empty ARGOPdMiniModules 3 10 1 14
-4033 -1 1.04858e+06;
#X obj 13 31 cnv 10 10 10 empty empty Gerard 0 5 1 11 -4033 -1 1.04858e+06
;
#X obj 55 30 cnv 10 10 10 empty empty Paresys 0 5 1 11 -4033 -1 1.04858e+06
;
#X text -1 89 Construit sous / Build under Pd 0.42.5-extended;
#X obj 6 43 pddp/pddplink http://pagesperso-orange.fr/Paresys/ARGOPd/
;
#X obj 6 58 pddp/pddplink http://gerard.paresys.free.fr/ARGOPd/;
#X obj 46 105 pddp/pddplink http://puredata.info/downloads;
#X restore 1091 511 pd ???;
#X text 328 64 -80dB..120dB;
#X connect 1 0 0 0;
#X connect 7 0 10 0;
#X connect 7 1 10 1;
#X connect 7 1 11 0;
#X connect 7 2 8 0;
#X connect 7 2 28 0;
#X connect 7 3 8 1;
#X connect 7 4 9 0;
#X connect 7 5 9 1;
#X connect 11 0 12 0;
#X connect 12 0 33 0;
#X connect 14 0 33 1;
#X connect 19 0 7 0;
#X connect 21 0 24 0;
#X connect 21 1 24 1;
#X connect 21 1 22 0;
#X connect 21 2 22 0;
#X connect 21 2 29 0;
#X connect 21 3 22 1;
#X connect 21 3 32 0;
#X connect 21 4 23 0;
#X connect 21 5 23 1;
#X connect 26 0 21 0;
#X connect 28 0 14 0;
#X connect 29 0 30 0;
#X connect 30 0 33 1;
#X connect 31 0 33 2;
#X connect 32 0 31 0;
#X connect 33 0 13 0;
#X connect 33 0 15 0;
#X connect 33 0 34 0;
#X connect 33 1 13 1;
#X connect 33 1 16 0;
#X connect 33 1 34 1;
#X connect 35 0 19 0;
#X connect 35 1 26 0;
