#N canvas 396 22 429 316 10;
#X obj 14 -4 cnv 15 15 15 empty empty ExMM3g-Player-Scratch.pd 0 8
1 14 -262144 -1 0;
#N canvas 365 62 351 206 ARGO 0;
#X obj 93 173 outlet~;
#X obj 101 113 cnv 4 10 4 empty empty empty 20 12 0 14 -1 -66577 0
;
#X obj 56 50 cnv 15 41 30 empty empty empty 20 12 0 14 -24198 -66577
0;
#N canvas 350 196 381 103 ? 0;
#X obj 5 49 cnv 15 370 38 empty empty empty 20 12 0 14 -224896 -66577
0;
#X text 6 65 Voir/Look at: http://puredata.info/downloads;
#X obj 4 12 cnv 18 370 30 empty empty ARGOPdMiniModules 1 10 1 14 -4033
-1 1.04858e+06;
#X obj 7 31 cnv 10 10 10 empty empty Gerard 0 5 1 9 -4033 -1 1.04858e+06
;
#X obj 38 31 cnv 10 10 10 empty empty Paresys 0 5 1 9 -4033 -1 1.04858e+06
;
#X obj 175 20 cnv 10 10 10 empty empty http://pagesperso-orange.fr/Paresys/ARGOPd/
0 5 1 9 -4033 -1 1.04858e+06;
#X obj 175 31 cnv 10 10 10 empty empty http://gerard.paresys.free.fr/ARGOPd/
0 5 1 9 -4033 -1 1.04858e+06;
#X text 6 51 Construit sous / Build under Pd 0.41.4-extended;
#X restore 62 57 pd ?;
#X text 308 85 +1;
#X text 107 85 -1;
#X text 211 85 0;
#X obj 100 100 bng 12 250 50 0 empty empty empty 17 7 0 10 -262144
-1 -1;
#X msg 58 125 0;
#X text 54 96 zero ->;
#X obj 115 100 hsl 201 12 -1 1 0 1 \$0-A \$0-B empty -2 -8 0 10 -228856
-1 -1 10000 0;
#X obj 112 147 line~;
#X msg 112 125 \$1 100;
#X text 150 63 1 12 2009;
#X connect 7 0 8 0;
#X connect 8 0 10 0;
#X connect 10 0 12 0;
#X connect 11 0 0 0;
#X connect 12 0 11 0;
#X coords 0 -1 1 1 218 18 2 100 100;
#X restore 74 29 pd ARGO;
#X text 294 24 <- Play;
#X text 28 26 Zero ->;
#X obj 154 261 dac~ 1 2;
#N canvas 497 69 331 310 ARGO 0;
#X obj 101 101 cnv 20 104 34 empty ColorAmpli empty 20 12 0 14 -261299
-1 1.04858e+06;
#X obj 85 282 outlet~;
#X obj 134 104 cnv 10 20 10 empty ColorAmpli Ampli 1 5 1 14 -261299
-1 1.04858e+06;
#X obj 85 43 inlet~;
#X obj 85 259 *~;
#X obj 103 118 hsl 101 12 -80 20 0 1 \$0-A ColorAmpli 0dB 0 7 1 9 -261299
-1 -1 8000 0;
#X obj 101 101 cnv 4 10 4 empty empty empty 20 12 0 14 -1 -66577 0
;
#X obj 101 131 cnv 4 10 4 empty empty empty 20 12 0 14 -1 -66577 0
;
#X obj 195 101 cnv 4 10 4 empty empty empty 20 12 0 14 -1 -66577 0
;
#X obj 195 131 cnv 4 10 4 empty empty empty 20 12 0 14 -1 -66577 0
;
#X obj 210 281 outlet~;
#X obj 210 42 inlet~;
#X obj 210 258 *~;
#X text 221 83 1 6 2011;
#X msg -10 150 label \$1;
#X obj -11 127 tosymbol;
#X obj -11 92 sprintf %ddB;
#X text 107 167 -> 0.0001..10 = -80dB..20dB;
#X obj 101 148 expr (pow(10 \, $f1 / 20));
#X obj 101 191 sel 0.0001;
#X msg 101 219 0;
#X obj 264 269 cnv 15 41 30 empty empty empty 20 12 0 14 -24198 -66577
0;
#N canvas 350 196 308 136 ?? 0;
#X obj -9 87 cnv 15 300 38 empty empty empty 20 12 0 14 -224896 -66577
0;
#X obj -9 10 cnv 18 300 70 empty empty ARGOPdMiniModules 1 10 1 14
-4033 -1 1.04858e+06;
#X obj 9 29 cnv 10 10 10 empty empty Gerard 0 5 1 9 -4033 -1 1.04858e+06
;
#X obj 40 29 cnv 10 10 10 empty empty Paresys 0 5 1 9 -4033 -1 1.04858e+06
;
#X text -8 89 Construit sous / Build under Pd 0.42.5-extended;
#X obj 39 105 pddplink http://puredata.info/downloads;
#X obj 3 42 pddplink http://pagesperso-orange.fr/Paresys/ARGOPd/;
#X obj 3 57 pddplink http://gerard.paresys.free.fr/ARGOPd/;
#X restore 268 276 pd ??;
#X connect 3 0 4 0;
#X connect 4 0 1 0;
#X connect 5 0 16 0;
#X connect 5 0 18 0;
#X connect 11 0 12 0;
#X connect 12 0 10 0;
#X connect 14 0 5 0;
#X connect 15 0 14 0;
#X connect 16 0 15 0;
#X connect 18 0 19 0;
#X connect 19 0 20 0;
#X connect 19 1 4 1;
#X connect 19 1 12 1;
#X connect 20 0 4 1;
#X connect 20 0 12 1;
#X connect 20 0 15 0;
#X coords 0 -1 1 1 106 36 1 100 100;
#X restore 128 203 pd ARGO;
#X obj 350 137 switch~;
#N canvas 608 166 228 173 ARGOnOff 0;
#X obj 100 100 tgl 18 1 \$0-SendOnOff \$0-ReceiveOnOff On/Off 20 11
1 14 -4033 -1 -1 1 1;
#X obj 99 10 loadbang;
#X msg 99 33 \; pd dsp 1;
#X obj 100 129 outlet;
#X text -50 99 Audio On/Off du patch ->;
#X text -22 45 Audio General On ->;
#X text 107 82 17 3 2010;
#X connect 0 0 3 0;
#X connect 1 0 2 0;
#X coords 0 -1 1 1 65 18 2 100 100;
#X restore 350 119 pd ARGOnOff;
#X text 355 103 V;
#X text 355 96 |;
#X text 343 85 On/Off Patch;
#X obj 375 245 cnv 15 41 30 empty empty empty 20 12 0 14 -24198 -66577
0;
#N canvas 350 196 308 136 ?? 0;
#X obj -9 87 cnv 15 300 38 empty empty empty 20 12 0 14 -224896 -66577
0;
#X obj -9 10 cnv 18 300 70 empty empty ARGOPdMiniModules 1 10 1 14
-4033 -1 1.04858e+06;
#X obj 9 29 cnv 10 10 10 empty empty Gerard 0 5 1 9 -4033 -1 1.04858e+06
;
#X obj 40 29 cnv 10 10 10 empty empty Paresys 0 5 1 9 -4033 -1 1.04858e+06
;
#X text -8 89 Construit sous / Build under Pd 0.42.5-extended;
#X obj 39 105 pddplink http://puredata.info/downloads;
#X obj 3 42 pddplink http://pagesperso-orange.fr/Paresys/ARGOPd/;
#X obj 3 57 pddplink http://gerard.paresys.free.fr/ARGOPd/;
#X restore 379 252 pd ??;
#X text 20 213 Niveau general ->;
#X text 26 223 General level ->;
#N canvas 413 140 402 279 ARGO 0;
#X obj 101 101 cnv 10 95 41 \$0-A \$0-B empty 20 12 0 14 -1 -1 1.04858e+06
;
#X obj 101 109 nbx 4 12 0 1e+37 0 0 \$0 \$0-ReceiveCpuPeak CPUPeak
45 7 1 11 -24198 -1 -24198 20 256;
#X obj 101 122 nbx 4 12 0 1e+37 0 0 \$0 \$0-ReceiveCpuMean CPUMean
45 7 1 11 -24198 -1 -24198 18.8 256;
#X obj 145 -55 cputime;
#X obj 145 -76 t b b;
#X text 188 24 (c) musil@iem.kug.ac.at;
#X text 230 37 IEM KUG;
#X text 78 18 CPU-load;
#X obj 144 -125 loadbang;
#X text 205 48 graz \, austria 2001;
#X obj 145 -100 metro 500;
#X obj 145 -34 * 0.2;
#X text 237 -88 -dsp-load in %;
#X text 228 -101 measure average- and peak-;
#X obj 37 18 * 100;
#X obj 37 63 int;
#X obj 37 41 + 0.499;
#X obj 37 86 * 0.01;
#N canvas 524 162 422 273 1p1zmodif 0;
#X text 134 89 (c) musil@iem.kug.ac.at;
#X text 179 99 IEM KUG;
#X obj 14 195 +;
#X text 151 108 graz \, austria 2001;
#X text 135 71 y[n] = a0*x[n] + a1*x[n-1] + b1*y[n-1];
#X text 18 13 x[n];
#X text 16 244 y[n];
#X text 84 111 y[n-1];
#X text 134 56 <float> control-IIR-filter 1.order;
#X obj 15 28 inlet;
#X obj 14 228 outlet;
#X obj 15 112 * 0.1;
#X obj 59 156 * 0.9;
#X text 139 144 a1 = 0;
#X text 139 155 b1 = 0.9;
#X text 139 133 a0 = 0.1;
#X obj 15 50 t f b;
#X text 135 40 Inspiré de 1p1z;
#X obj 59 112 f 0;
#X connect 2 0 10 0;
#X connect 2 0 18 1;
#X connect 9 0 16 0;
#X connect 11 0 2 0;
#X connect 12 0 2 1;
#X connect 16 0 11 0;
#X connect 16 1 18 0;
#X connect 18 0 12 0;
#X restore 37 -8 pd 1p1zmodif;
#X text 146 9 Inspiré de 5.reference/iemabs/help-dsp.pd;
#X text 141 83 25 3 2010;
#X connect 3 0 11 0;
#X connect 4 0 3 0;
#X connect 4 1 3 1;
#X connect 8 0 10 0;
#X connect 10 0 4 0;
#X connect 11 0 18 0;
#X connect 11 0 1 0;
#X connect 14 0 16 0;
#X connect 15 0 17 0;
#X connect 16 0 15 0;
#X connect 17 0 2 0;
#X connect 18 0 14 0;
#X coords 0 -1 1 1 97 43 1 100 100;
#X restore 234 -26 pd ARGO;
#N canvas 287 77 853 517 ARGO 0;
#X obj 368 103 cnv 10 20 10 empty empty Play 1 5 1 14 -262144 -1 1.04858e+06
;
#X obj 96 480 outlet~;
#X obj 145 34 openpanel;
#X msg 173 78 set \$1;
#X obj -58 -7 loadbang;
#X obj -47 106 list2symbol;
#X obj 146 54 t b s;
#X obj 363 485 outlet~;
#X msg 13 198 set \$1;
#X obj -83 264 list2symbol;
#X text 346 63 Les canaux 3 \, 4... d'un fichier Audio de plus de 2
canaux ne sont pas lus.;
#X text 346 36 Lit un fichier Audio Stereo (2 canaux).;
#X text 346 49 Le canal d'un fichier Audio Mono est lu sur la sortie
gauche;
#X text 409 182 A Mono Audio file is read on the left output.;
#X obj -47 172 soundfiler;
#X msg -47 148 read -resize \$1 \$2 \$3;
#X obj -47 129 pack s s s;
#X obj 101 182 cnv 15 298 39 empty empty empty 20 12 0 14 -188398 -66577
0;
#N canvas 0 22 1149 303 (subpatch) 0;
#X array B43 153402 float 2;
#X coords 0 1 153402 -1 300 40 1;
#X restore 100 182 graph;
#X obj 101 143 cnv 15 298 38 empty empty empty 20 12 0 14 -188398 -66577
0;
#N canvas 2 311 741 303 (subpatch) 0;
#X array A43 153402 float 2;
#X coords 0 1 153402 -1 300 40 1;
#X restore 100 142 graph;
#X obj 363 463 hip~ 5;
#X obj 96 458 hip~ 5;
#X obj 389 217 cnv 4 10 4 empty empty empty 20 12 0 14 -1 -66577 0
;
#X obj 101 217 cnv 4 10 4 empty empty empty 20 12 0 14 -1 -66577 0
;
#X obj 96 434 tabread4~;
#X obj 362 441 tabread4~;
#X obj -9 238 cnv 15 400 50 empty empty empty 20 12 0 14 -260097 -66577
0;
#X text -7 237 Nom du fichier / File name;
#X text 252 408 list2symbol pour les noms de fichier avec espace;
#X obj 104 115 hradio 14 1 0 20 empty empty empty 0 6 0 8 -262144 -1
-1 0;
#X symbolatom 100 114 49 0 0 0 - - -;
#X obj 145 12 bang;
#X text 399 107 <- Clic le nom du fichier pour le changer;
#X text 399 117 <- Click to change the file name;
#X obj 95 -9 inlet~;
#X msg 194 410 set \$1;
#X obj 129 331 +~;
#X obj 194 365 snapshot~;
#X obj 194 388 change;
#X obj 101 101 cnv 4 10 4 empty empty empty 20 12 0 14 -1728 -66577
0;
#X text 75 81 Ctrl Position;
#X obj 131 410 *~ 1;
#X obj 130 368 +~ 1;
#X obj 152 387 / 2;
#X obj 103 130 hsl 295 12 -1 1 0 1 \$0-A ColorTime 3.4sec 240 87 1
9 -208064 -1 -1 12500 0;
#X obj 103 130 hsl 295 12 -1 1 0 0 \$0-A ColorTime empty -2 -8 0 10
-208064 -1728 -1 12500 0;
#X obj 193 340 metro 200;
#X obj 206 -9 r SendFluid;
#X obj -58 41 t b b b b;
#X text 409 169 Reads an Stereo Audio file (2 channels).;
#X text 410 144 2 HSLIDER superposés;
#X text 409 133 ATTENTION;
#X obj 145 308 line~;
#X msg 145 285 \$1 50;
#N canvas 415 209 678 351 RenameArrays 0;
#X obj -457 -189 realtime;
#X obj -457 -165 * 100;
#X obj -457 -142 int;
#X obj -522 -98 tosymbol;
#X obj -522 -120 sprintf A%d;
#X obj -479 39 pack s s;
#X msg -479 64 \; \$1 rename \$2;
#X obj -479 13 tosymbol;
#X msg -553 -43 set \$1;
#X text -500 68 (1);
#X text -576 -44 (2);
#X text -501 -10 (3);
#X text -360 -201 array -> Voir:;
#X text -360 -188 Help Browser/2.control.examples/15.array.pd;
#X text -360 -175 Help Browser/2.control.examples/16.more.arrays.pd
;
#X text -360 -163 Help Browser/5.reference/all_about_arrays.pd;
#X obj -362 -99 tosymbol;
#X obj -320 38 pack s s;
#X msg -320 63 \; \$1 rename \$2;
#X obj -320 12 tosymbol;
#X msg -389 -43 set \$1;
#X text -341 68 (1);
#X text -414 -44 (2);
#X text -341 -10 (3);
#X obj -362 -121 sprintf B%d;
#X obj -346 104 outlet;
#X obj -510 103 outlet;
#X obj -411 -217 inlet;
#X text -274 -50 Démarrer en nommant les arrays (graph) A et B et en
mettant A et B dans (3);
#X text -278 -99 SOLUTION:;
#X text -273 -83 (1) Renommer les 2 arrays;
#X obj -556 102 outlet;
#X obj -392 103 outlet;
#X text -276 -127 PROBLEME: Comment dupliquer un MiniModule comportant
un ou plusieurs arrays;
#X text -274 -68 (2) Renommer le message qui renomme les 2 arrays;
#X obj -522 -71 t a a b a;
#X obj -362 -72 t a a b a;
#X msg -479 -9 A43;
#X msg -320 -10 B43;
#X connect 0 0 1 0;
#X connect 1 0 2 0;
#X connect 2 0 4 0;
#X connect 2 0 24 0;
#X connect 3 0 35 0;
#X connect 4 0 3 0;
#X connect 5 0 6 0;
#X connect 7 0 5 0;
#X connect 8 0 37 0;
#X connect 8 0 31 0;
#X connect 16 0 36 0;
#X connect 17 0 18 0;
#X connect 19 0 17 0;
#X connect 20 0 38 0;
#X connect 20 0 32 0;
#X connect 24 0 16 0;
#X connect 27 0 0 1;
#X connect 35 0 8 0;
#X connect 35 1 26 0;
#X connect 35 2 37 0;
#X connect 35 3 5 1;
#X connect 36 0 20 0;
#X connect 36 1 25 0;
#X connect 36 2 38 0;
#X connect 36 3 17 1;
#X connect 37 0 7 0;
#X connect 38 0 19 0;
#X restore -22 67 pd RenameArrays;
#X obj 331 1 cnv 15 41 30 empty empty empty 20 12 0 14 -24198 -66577
0;
#N canvas 350 196 381 103 ? 0;
#X obj 5 49 cnv 15 370 38 empty empty empty 20 12 0 14 -224896 -66577
0;
#X text 6 65 Voir/Look at: http://puredata.info/downloads;
#X obj 4 12 cnv 18 370 30 empty empty ARGOPdMiniModules 1 10 1 14 -4033
-1 1.04858e+06;
#X obj 7 31 cnv 10 10 10 empty empty Gerard 0 5 1 9 -4033 -1 1.04858e+06
;
#X obj 38 31 cnv 10 10 10 empty empty Paresys 0 5 1 9 -4033 -1 1.04858e+06
;
#X obj 175 20 cnv 10 10 10 empty empty http://pagesperso-orange.fr/Paresys/ARGOPd/
0 5 1 9 -4033 -1 1.04858e+06;
#X obj 175 31 cnv 10 10 10 empty empty http://gerard.paresys.free.fr/ARGOPd/
0 5 1 9 -4033 -1 1.04858e+06;
#X text 6 51 Construit sous / Build under Pd 0.41.4-extended;
#X restore 337 8 pd ?;
#X obj 418 5 cnv 15 60 30 empty empty empty 20 12 0 14 -24198 -66577
0;
#N canvas 348 108 563 525 Help 0;
#X obj 10 85 cnv 15 400 120 empty empty empty 20 12 0 14 -233017 -66577
0;
#X text 13 84 Citation;
#X obj 8 348 cnv 15 550 230 empty empty empty 20 12 0 14 -224896 -66577
0;
#X text 12 -41 - Ne lit pas un fichier au format mp3 \, SoundDesigner
II (.SDII ou .SD2);
#X text 29 30 error: soundfiler_read: x.aiff: unknown or bad header
format;
#X text 16 54 Solution: ouvrir puis sauver le fichier au format aiff
avec Audacity;
#X text 15 -9 - Ne lit pas un fichier au format aiff "Entier petit
boutien" comme les pistes d'un CD Audio copiées avec le finder du Mac.
Les messages d'erreur s'affichent:;
#X text 29 41 error: dsp: xxx.aiff: unknown or bad header format;
#X text 11 -60 - Lit un fichier Audio au format aiff \, wave;
#X text 19 503 Erreur dans la fenêtre Pd:;
#X text 11 208 - Si le Patch est sauvé avec 1 Player contenant un nom
de fichier Audio \, ce fichier sera lu automatiquement à la prochaine
ouverture s'il n'a pas changé d'emplacement.;
#X text 186 463 If the sample rate of pd is set to 44100 \, files having
the sample rates of 44100 are correctly played \, other files will
be transposed.;
#X text 188 436 WARNING The sample rate of the output depends on the
system sample rate of pd:;
#X text 16 352 - ATTENTION Le taux d'échantillonnage de la lecture
du fichier dépends du taux d'échantillonnage de Pd.;
#X text 28 379 Si le taux d'échantillonnage de Pd est de 44100 (Menu
Preferences -> Audio Settings...) \, les fichiers échantillonnés à
44100 Hz sont lus correctement \, sinon ils sont transposés.;
#X text 32 99 The soundfiler object reads and writes floating point
arrays to binary soundfiles which may contain 2 or 3 byte fixed point
or 4 byte floating point samples in wave \, aiff \, or next formats
(no floating point aiff \, though.). The number of channels of the
soundfile need not match the number of arrays given (extras are dropped
and unsupplied channels are zeroed out.);
#X text 52 545 Quand on duplique le miniModule sous MacOSX.4;
#X text 34 518 warning: B...: multiply defined;
#X text 34 531 warning: A...: multiply defined;
#X text 73 558 Sans consequence...;
#X obj 11 653 cnv 15 350 170 empty empty empty 20 12 0 14 -258113 -66577
0;
#X text 18 656 ATTENTION;
#X text 30 670 Bug sous MacOSX.5 (pas sous MacOSX.4);
#X text 30 685 Ces 3 Mini%odules ne sont pas duplicables directement
;
#X text 31 712 Cela crash Pd...;
#X text 33 781 3 Ré-ouvrir le patch qui vient d'etre fermé;
#X text 33 796 4 Coller le MiniModule dans le patch;
#X text 64 767 (aprés avoir sauvé ce patch au besoin);
#X text 34 754 2 Fermer le patch d'où il a été copié;
#X text 34 740 1 Copier le MiniModule à dupliquer;
#X text 17 726 SOLUTION;
#X obj 11 586 cnv 15 290 60 empty empty empty 20 12 0 14 -258113 -66577
0;
#X text 14 590 File < 4e+06 samples;
#X text 46 602 < 90 sec at 44100 samples/sec;
#X text 31 699 en faisant: Pomme D ou Pomme C + Pomme V;
#X text 11 249 - Peut Ouvrir automatiquement 1 fichier qui se trouve
dans le même dossier que lui \, quelquesoit l'emplacement du dossier.
Pour cela ouvrir le module et taper le nom du fichier (sans chemin
d'accés) dans le message. Sauver le patch. Fermer le patch. Ré-ouvrir
le patch. Le dossier contenant le module ARGO et le fichier audio est
ainsi transportable.;
#X restore 425 11 pd Help;
#X obj 394 232 cnv 15 350 170 empty empty empty 20 12 0 14 -258113
-66577 0;
#X text 401 235 ATTENTION;
#X text 413 249 Bug sous MacOSX.5 (pas sous MacOSX.4);
#X text 413 264 Ces 3 Mini%odules ne sont pas duplicables directement
;
#X text 414 291 Cela crash Pd...;
#X text 416 360 3 Ré-ouvrir le patch qui vient d'etre fermé;
#X text 416 375 4 Coller le MiniModule dans le patch;
#X text 447 346 (aprés avoir sauvé ce patch au besoin);
#X text 417 333 2 Fermer le patch d'où il a été copié;
#X text 417 319 1 Copier le MiniModule à dupliquer;
#X text 400 305 SOLUTION;
#X text 414 278 en faisant: Pomme D ou Pomme C + Pomme V;
#X msg -105 239 label \$1;
#X obj -105 217 tosymbol;
#X obj -104 151 int;
#X obj -104 174 / 10;
#X obj -104 196 sprintf %ssec;
#X obj -104 128 / 4410;
#X text 405 90 19 2 2010;
#X msg 1 254 drumLoop.aiff;
#X connect 2 0 6 0;
#X connect 3 0 31 0;
#X connect 4 0 49 0;
#X connect 5 0 16 0;
#X connect 6 0 31 0;
#X connect 6 1 3 0;
#X connect 8 0 79 0;
#X connect 9 0 3 0;
#X connect 14 0 44 0;
#X connect 14 0 77 0;
#X connect 15 0 14 0;
#X connect 16 0 15 0;
#X connect 21 0 7 0;
#X connect 22 0 1 0;
#X connect 25 0 22 0;
#X connect 26 0 21 0;
#X connect 30 0 32 0;
#X connect 31 0 5 0;
#X connect 31 0 8 0;
#X connect 32 0 2 0;
#X connect 35 0 37 0;
#X connect 36 0 46 0;
#X connect 37 0 38 0;
#X connect 37 0 43 0;
#X connect 38 0 39 0;
#X connect 39 0 36 0;
#X connect 42 0 25 0;
#X connect 42 0 26 0;
#X connect 43 0 42 0;
#X connect 44 0 42 1;
#X connect 45 0 54 0;
#X connect 47 0 38 0;
#X connect 48 0 47 1;
#X connect 49 0 31 0;
#X connect 49 1 79 0;
#X connect 49 2 55 0;
#X connect 49 3 47 0;
#X connect 53 0 37 1;
#X connect 54 0 53 0;
#X connect 55 0 25 0;
#X connect 55 1 16 1;
#X connect 55 2 26 0;
#X connect 55 3 16 2;
#X connect 72 0 45 0;
#X connect 73 0 72 0;
#X connect 74 0 75 0;
#X connect 75 0 76 0;
#X connect 76 0 73 0;
#X connect 77 0 74 0;
#X connect 79 0 9 0;
#X coords 0 -1 1 1 300 122 2 100 100;
#X restore 31 58 pd ARGO;
#X connect 1 0 16 0;
#X connect 5 0 4 0;
#X connect 5 1 4 1;
#X connect 7 0 6 0;
#X connect 16 0 5 0;
#X connect 16 1 5 1;
